<?xml version="1.0" encoding="UTF-8" standalone="no"?>
<!-- Created with Inkscape (http://www.inkscape.org/) -->

<svg
   xmlns:dc="http://purl.org/dc/elements/1.1/"
   xmlns:cc="http://creativecommons.org/ns#"
   xmlns:rdf="http://www.w3.org/1999/02/22-rdf-syntax-ns#"
   xmlns:svg="http://www.w3.org/2000/svg"
   xmlns="http://www.w3.org/2000/svg"
   xmlns:sodipodi="http://sodipodi.sourceforge.net/DTD/sodipodi-0.dtd"
   xmlns:inkscape="http://www.inkscape.org/namespaces/inkscape"
   width="200"
   height="42.500679"
   id="svg3110"
   version="1.1"
   inkscape:version="0.48.4 r9939"
   sodipodi:docname="innoteclogo.svg">
  <defs
     id="defs3112" />
  <sodipodi:namedview
     id="base"
     pagecolor="#ffffff"
     bordercolor="#666666"
     borderopacity="1.0"
     inkscape:pageopacity="0.0"
     inkscape:pageshadow="2"
     inkscape:zoom="1"
     inkscape:cx="214.22867"
     inkscape:cy="-270.2103"
     inkscape:document-units="px"
     inkscape:current-layer="layer1"
     showgrid="false"
     fit-margin-top="0"
     fit-margin-left="0"
     fit-margin-right="0"
     fit-margin-bottom="0"
     inkscape:showpageshadow="false"
     borderlayer="true"
     inkscape:window-width="2479"
     inkscape:window-height="1410"
     inkscape:window-x="81"
     inkscape:window-y="30"
     inkscape:window-maximized="1" />
  <metadata
     id="metadata3115">
    <rdf:RDF>
      <cc:Work
         rdf:about="">
        <dc:format>image/svg+xml</dc:format>
        <dc:type
           rdf:resource="http://purl.org/dc/dcmitype/StillImage" />
        <dc:title></dc:title>
      </cc:Work>
    </rdf:RDF>
  </metadata>
  <g
     inkscape:label="Ebene 1"
     inkscape:groupmode="layer"
     id="layer1"
     transform="translate(-250.01562,-511.17881)">
    <g
       transform="matrix(0.40698183,0,0,0.39710321,352.19889,224.70009)"
       id="g4206">
      <path
         inkscape:connector-curvature="0"
         d="m 99.702057,104.28932 293.449313,0 0,60.81118 -293.449313,0 z"
         transform="matrix(1.228674,0,0,1.2591185,-251.08452,610.30581)"
         id="rect5340"
         style="fill:#ffffff;fill-opacity:1;stroke:none" />
      <path
         inkscape:connector-curvature="0"
         d="m 84.3125,93.8125 7.65625,72.96875 -17.53125,1.84375 0,4.625 325.53125,0 0,-79.4375 -315.65625,0 z m 22,17.71875 12.84375,0 0,43.15625 -12.84375,0 0,-43.15625 z m 163.9375,0 45.90625,0 0,8.40625 -16.5,0 0,34.75 -12.84375,0 0,-34.75 -16.5625,0 0,-8.40625 z m -114.59375,10 c 4.31488,4e-5 7.58828,1.14563 9.8125,3.4375 2.24638,2.29192 3.37496,5.62807 3.375,10 l 0,19.71875 -12.03125,0 0,-3.21875 0,-11.875 c -2e-5,-2.79263 -0.063,-4.72193 -0.21875,-5.78125 -0.13347,-1.05924 -0.39418,-1.84298 -0.75,-2.34375 -0.46712,-0.67407 -1.10557,-1.19655 -1.90625,-1.5625 -0.80072,-0.38517 -1.69565,-0.56248 -2.71875,-0.5625 -2.49112,2e-5 -4.45154,0.82444 -5.875,2.5 -1.4235,1.65635 -2.12502,3.95954 -2.125,6.90625 l 0,15.9375 -11.96875,0 0,-32.375 11.96875,0 0,4.75 c 1.80156,-1.88743 3.69473,-3.27027 5.71875,-4.15625 2.02398,-0.90517 4.27211,-1.37496 6.71875,-1.375 z m 48.71875,0 c 4.31489,4e-5 7.55702,1.14563 9.78125,3.4375 2.24639,2.29192 3.37495,5.62807 3.375,10 l 0,19.71875 -12,0 0,-3.21875 0,-11.875 c -3e-5,-2.79263 -0.0943,-4.72193 -0.25,-5.78125 -0.13349,-1.05924 -0.36291,-1.84298 -0.71875,-2.34375 -0.46711,-0.67407 -1.10557,-1.19655 -1.90625,-1.5625 -0.80074,-0.38517 -1.69565,-0.56248 -2.71875,-0.5625 -2.49111,2e-5 -4.45154,0.82444 -5.875,2.5 -1.4235,1.65635 -2.15627,3.95954 -2.15625,6.90625 l 0,15.9375 -11.9375,0 0,-32.375 11.9375,0 0,4.75 c 1.80157,-1.88743 3.72597,-3.27027 5.75,-4.15625 2.02398,-0.90517 4.27212,-1.37496 6.71875,-1.375 z m 42.09375,0 c 6.42787,4e-5 11.42803,1.49553 15.03125,4.5 3.62538,3.00454 5.43746,7.18434 5.4375,12.5 -4e-5,5.31568 -1.81212,9.46425 -5.4375,12.46875 -3.60322,3.00451 -8.60338,4.5 -15.03125,4.5 -6.45016,0 -11.5086,-1.49549 -15.15625,-4.5 -3.62543,-3.0045 -5.4375,-7.15307 -5.4375,-12.46875 0,-5.31566 1.81207,-9.49546 5.4375,-12.5 3.64765,-3.00447 8.70609,-4.49996 15.15625,-4.5 z m 84.59375,0 c 5.87182,4e-5 10.5795,1.5315 14.09375,4.59375 3.53641,3.06231 5.31246,7.15819 5.3125,12.28125 l 0,2.9375 -27.9375,0 c 0.28913,2.42673 1.29636,4.25541 3.03125,5.46875 1.73485,1.21336 4.16736,1.8125 7.28125,1.8125 2.5133,0 5.09418,-0.30193 7.71875,-0.9375 2.64675,-0.65483 5.34473,-1.62783 8.125,-2.9375 l 0,7.96875 c -2.82475,0.92446 -5.64407,1.60028 -8.46875,2.0625 -2.82474,0.48149 -5.64406,0.71875 -8.46875,0.71875 -6.76155,0 -12.02238,-1.47151 -15.78125,-4.4375 -3.73664,-2.98524 -5.62501,-7.15778 -5.625,-12.53125 -10e-6,-5.27712 1.86133,-9.44495 5.53125,-12.46875 3.69213,-3.02373 8.73734,-4.53121 15.1875,-4.53125 z m 47.125,0 c 1.95726,4e-5 3.89067,0.16067 5.78125,0.46875 1.91277,0.28891 3.79691,0.74673 5.6875,1.34375 l 0,8.4375 c -1.62369,-0.96297 -3.26039,-1.69399 -4.90625,-2.15625 -1.62369,-0.46221 -3.30542,-0.68746 -5.0625,-0.6875 -3.3363,4e-5 -5.9442,0.83644 -7.8125,2.53125 -1.8461,1.67562 -2.78127,4.03875 -2.78125,7.0625 -2e-5,3.02377 0.93515,5.36766 2.78125,7.0625 1.8683,1.6756 4.4762,2.53127 7.8125,2.53125 1.86829,2e-5 3.64434,-0.23726 5.3125,-0.71875 1.69035,-0.4815 3.23274,-1.2125 4.65625,-2.15625 l 0,8.46875 c -1.86835,0.59704 -3.75249,1.05486 -5.6875,1.34375 -1.91283,0.30815 -3.84624,0.4375 -5.78125,0.4375 -6.73931,0 -12.00916,-1.4835 -15.8125,-4.46875 -3.80337,-3.0045 -5.71875,-7.16507 -5.71875,-12.5 0,-5.33491 1.91538,-9.51471 5.71875,-12.5 3.80334,-3.00447 9.07319,-4.49996 15.8125,-4.5 z M 331,128.40625 c -2.31317,2e-5 -4.1793,0.58245 -5.625,1.71875 -1.44574,1.11708 -2.36289,2.7252 -2.71875,4.84375 l 15.53125,0 c -3e-5,-1.96448 -0.66552,-3.52463 -2,-4.71875 -1.31229,-1.21333 -3.0523,-1.84373 -5.1875,-1.84375 z m -84.53125,0.53125 c -2.6468,4e-5 -4.66128,0.81245 -6.0625,2.46875 -1.37901,1.63711 -2.09377,4.0242 -2.09375,7.125 -2e-5,3.10082 0.71474,5.46867 2.09375,7.125 1.40122,1.63707 3.4157,2.46877 6.0625,2.46875 2.60227,2e-5 4.58973,-0.83168 5.96875,-2.46875 1.37896,-1.65633 2.06247,-4.02418 2.0625,-7.125 -3e-5,-3.1008 -0.68354,-5.48789 -2.0625,-7.125 -1.37902,-1.6563 -3.36648,-2.46871 -5.96875,-2.46875 z"
         transform="matrix(1.228674,0,0,1.2591185,-251.08452,610.30581)"
         id="rect4196"
         style="fill:#009fd7;fill-opacity:1" />
    </g>
    <g
       transform="matrix(0.61815615,-0.0054402,0.0049334,0.5690226,283.40263,-74.411071)"
       id="g3947">
      <g
         id="g3068"
         transform="matrix(0.99450823,-0.11355434,0.09622001,0.99453556,-102.48894,2.4555853)">
        <path
           transform="matrix(0.8087954,0.00773257,-0.00701223,0.87863268,-61.706389,964.27946)"
           style="fill:#ffffff;fill-opacity:1;stroke:none"
           id="path5439"
           d="M 4.8749999,116.75 12.25,137 77.124998,130.625 72.499998,89.5 32.124999,85.125 z"
           inkscape:connector-curvature="0" />
        <path
           sodipodi:nodetypes="ccccc"
           inkscape:connector-curvature="0"
           style="fill:#009fd7;fill-opacity:1"
           id="rect4116"
           transform="matrix(0.60209632,0.00547484,-0.00525441,0.6273547,-59.393221,1031.8239)"
           d="m 0,0 0,100 100,0 0,-100 z" />
        <path
           sodipodi:nodetypes="csssssscssssscsssscssssscccscccscccssssscsscsssscccsscsssssscc"
           inkscape:connector-curvature="0"
           id="path3065"
           d="m -45.697882,1082.8476 c -3.409689,-0.561 -5.529327,-1.6453 -7.724445,-3.9509 -1.634619,-1.7172 -2.586223,-3.4256 -3.172372,-5.6956 -0.278894,-1.0801 -0.311184,-1.4288 -0.296987,-3.208 0.01417,-1.778 0.05218,-2.1278 0.347815,-3.2028 0.603403,-2.1939 1.59872,-3.9248 3.204615,-5.5731 1.168122,-1.199 2.150876,-1.9434 3.300222,-2.4999 l 0.856156,-0.4147 0.155444,-1.3452 c 0.408281,-3.5336 1.808155,-6.409 4.322294,-8.8782 1.322207,-1.2985 2.58665,-2.1782 4.200034,-2.9222 3.869981,-1.7845 8.646807,-1.7388 12.487714,0.1194 1.666894,0.8064 2.870271,1.6908 4.307584,3.1659 l 1.306399,1.3408 1.769227,0.045 c 2.885286,0.074 4.798939,0.6785 7.143771,2.2575 0.942694,0.6348 2.814629,2.5686 3.421347,3.5344 1.1387243,1.8127 1.8623648,3.9903 2.0137316,6.0598 l 0.076659,1.048 0.8560191,0.5644 c 2.242935,1.4787 3.894561,3.8697 4.5696443,6.6152 0.3080193,1.2528 0.2872495,3.9416 -0.039649,5.1314 -1.0921948,3.9755 -3.8535699,6.7243 -7.941917,7.9059 -0.843582,0.2438 -0.963395,0.2444 -17.855192,0.099 -9.35324,-0.081 -17.141898,-0.1688 -17.308122,-0.1962 z m 33.913664,-4.1402 c 1.8016681,-0.4065 3.4520335,-1.6469 4.3024447,-3.2338 1.0901088,-2.0341 1.2358822,-3.9906 0.1784031,-6.0453 -1.3946944,-2.7203 -3.8293948,-3.8428 -5.1583668,-3.8498 -1.588845,-0.1778 -2.40056,1.2973 -3.692992,1.203 -0.803112,-0.066 -1.285977,-0.3686 -1.467042,-0.6554 -0.414363,-0.6563 -0.547655,-1.3062 -0.118348,-2.0149 0.951922,-1.3172 2.64533,-2.0044 3.737837,-2.1331 l 1.600568,-0.1896 -0.09845,-0.5555 c -0.315838,-1.7829 -1.042466,-3.1718 -2.360935,-4.5128 -1.117518,-1.1368 -2.076023,-1.731 -3.556716,-2.205 -1.143339,-0.366 -2.780002,-0.4686 -3.886998,-0.2436 -0.847738,0.1722 -0.885924,0.1967 -2.007503,1.2818 -1.075888,1.0409 -1.6537,1.427 -2.128877,1.4224 -1.37396,0.068 -1.717455,-0.4391 -2.006063,-1.0964 -0.232075,-0.5285 -0.336167,-1.5042 0.760474,-2.6612 l 1.271091,-1.3408 -0.405295,-0.4323 c -1.147101,-1.2235 -3.053574,-2.3553 -4.864424,-2.8879 -1.374745,-0.4044 -3.817789,-0.4303 -5.178975,-0.054 -4.264064,1.176 -7.186604,4.4438 -7.834208,8.7597 l -0.0781,0.5205 0.880251,-0.013 c 0.887469,-0.013 2.896587,0.3209 3.455354,0.4856 0.377093,0.1107 1.392991,0.327 2.163489,1.3243 1.000808,1.2954 0.02794,2.5719 -0.78726,2.6952 -0.899915,0.1362 -1.306174,0.2642 -2.3361,-0.1588 -0.709869,-0.2915 -1.283452,-0.3572 -2.694689,-0.3568 -2.581141,0 -4.171263,0.6348 -5.934994,2.3668 -1.744135,1.713 -2.505228,3.4941 -2.524491,5.9077 -0.01928,2.4132 0.710997,4.2023 2.435612,5.9673 0.867511,0.8878 1.209421,1.1427 2.16937,1.6173 1.98526,0.9814 0.847592,0.9158 19.110724,1.0996 14.105018,0.1418 16.383097,0.1402 17.055205,-0.012 z"
           style="fill:#ffffff" />
      </g>
    </g>
  </g>
</svg>
