<?xml version="1.0" encoding="UTF-8" standalone="no"?>
<!-- Created with Inkscape (http://www.inkscape.org/) -->

<svg
   xmlns:dc="http://purl.org/dc/elements/1.1/"
   xmlns:cc="http://creativecommons.org/ns#"
   xmlns:rdf="http://www.w3.org/1999/02/22-rdf-syntax-ns#"
   xmlns:svg="http://www.w3.org/2000/svg"
   xmlns="http://www.w3.org/2000/svg"
   xmlns:xlink="http://www.w3.org/1999/xlink"
   xmlns:sodipodi="http://sodipodi.sourceforge.net/DTD/sodipodi-0.dtd"
   xmlns:inkscape="http://www.inkscape.org/namespaces/inkscape"
   width="125.08214mm"
   height="125.08215mm"
   viewBox="0 0 125.08214 125.08215"
   version="1.1"
   id="svg8"
   inkscape:export-filename="C:\Users\jherwig\Downloads\ALPR_1024.png"
   inkscape:export-xdpi="207.94"
   inkscape:export-ydpi="207.94"
   inkscape:version="0.92.1 r15371"
   sodipodi:docname="ALPR-scan.svg">
  <defs
     id="defs2">
    <linearGradient
       y2="57.63636"
       x2="56.909103"
       y1="98.909088"
       x1="54.909092"
       gradientTransform="matrix(8.1388236,0,0,8.2087572,43.862514,-237.13826)"
       gradientUnits="userSpaceOnUse"
       id="linearGradient3860"
       xlink:href="#linearGradient3802-1"
       inkscape:collect="always" />
    <linearGradient
       id="linearGradient3802-1"
       inkscape:collect="always">
      <stop
         id="stop3804-7"
         offset="0"
         style="stop-color:#2d2d2d;stop-opacity:1" />
      <stop
         id="stop3806-4"
         offset="1"
         style="stop-color:#b0b0b0;stop-opacity:1" />
    </linearGradient>
    <inkscape:perspective
       id="perspective2526"
       inkscape:persp3d-origin="405 : 180 : 1"
       inkscape:vp_z="810 : 270 : 1"
       inkscape:vp_y="0 : 1000 : 0"
       inkscape:vp_x="0 : 270 : 1"
       sodipodi:type="inkscape:persp3d" />
    <g
       id="s">
      <g
         id="c">
        <path
           inkscape:connector-curvature="0"
           transform="matrix(0.9510565,0.309017,-0.309017,0.9510565,0,-1)"
           d="M 0,0 0,1 0.5,1 0,0 z"
           id="t" />
        <use
           height="540"
           width="810"
           y="0"
           x="0"
           id="use2493"
           transform="scale(-1,1)"
           xlink:href="#t" />
      </g>
      <g
         id="a">
        <use
           height="540"
           width="810"
           y="0"
           x="0"
           id="use2496"
           transform="matrix(0.309017,0.9510565,-0.9510565,0.309017,0,0)"
           xlink:href="#c" />
        <use
           height="540"
           width="810"
           y="0"
           x="0"
           id="use2498"
           transform="matrix(-0.809017,0.5877853,-0.5877853,-0.809017,0,0)"
           xlink:href="#c" />
      </g>
      <use
         height="540"
         width="810"
         y="0"
         x="0"
         id="use2500"
         transform="scale(-1,1)"
         xlink:href="#a" />
    </g>
    <inkscape:perspective
       sodipodi:type="inkscape:persp3d"
       inkscape:vp_x="0 : 526.18109 : 1"
       inkscape:vp_y="0 : 1000 : 0"
       inkscape:vp_z="744.09448 : 526.18109 : 1"
       inkscape:persp3d-origin="372.04724 : 350.78739 : 1"
       id="perspective2592" />
    <inkscape:perspective
       sodipodi:type="inkscape:persp3d"
       inkscape:vp_x="0 : 526.18109 : 1"
       inkscape:vp_y="0 : 1000 : 0"
       inkscape:vp_z="744.09448 : 526.18109 : 1"
       inkscape:persp3d-origin="372.04724 : 350.78739 : 1"
       id="perspective2690" />
    <inkscape:perspective
       sodipodi:type="inkscape:persp3d"
       inkscape:vp_x="0 : 526.18109 : 1"
       inkscape:vp_y="0 : 1000 : 0"
       inkscape:vp_z="744.09448 : 526.18109 : 1"
       inkscape:persp3d-origin="372.04724 : 350.78739 : 1"
       id="perspective3833" />
  </defs>
  <sodipodi:namedview
     id="base"
     pagecolor="#ffffff"
     bordercolor="#666666"
     borderopacity="1.0"
     inkscape:pageopacity="0.0"
     inkscape:pageshadow="2"
     inkscape:zoom="1.2171423"
     inkscape:cx="339.52165"
     inkscape:cy="311.5847"
     inkscape:document-units="mm"
     inkscape:current-layer="layer1"
     showgrid="false"
     fit-margin-top="0"
     fit-margin-left="0"
     fit-margin-right="0"
     fit-margin-bottom="0"
     inkscape:window-width="1920"
     inkscape:window-height="1017"
     inkscape:window-x="1912"
     inkscape:window-y="-8"
     inkscape:window-maximized="1" />
  <metadata
     id="metadata5">
    <rdf:RDF>
      <cc:Work
         rdf:about="">
        <dc:format>image/svg+xml</dc:format>
        <dc:type
           rdf:resource="http://purl.org/dc/dcmitype/StillImage" />
        <dc:title></dc:title>
      </cc:Work>
    </rdf:RDF>
  </metadata>
  <g
     inkscape:label="Ebene 1"
     inkscape:groupmode="layer"
     id="layer1"
     transform="translate(9.0776787,-186.7453)">
    <path
       style="fill:#ffffff;stroke:#000000;stroke-width:0.29130533px;stroke-linecap:butt;stroke-linejoin:miter;stroke-opacity:1"
       d="m 7.7018745,226.89589 92.2400865,4.93544 1.460279,40.24068 -92.4323773,-4.77841 z"
       id="path4535"
       inkscape:connector-curvature="0"
       sodipodi:nodetypes="ccccc" />
    <path
       style="opacity:1;fill:#000000;fill-opacity:1;stroke:none;stroke-width:4.58350992;stroke-miterlimit:4;stroke-dasharray:none;stroke-opacity:1"
       d="M 2.8886719 84.316406 L 2.8886719 173.59375 L 22.941406 173.59375 L 22.941406 104.36914 L 92.166016 104.36914 L 92.166016 84.316406 L 2.8886719 84.316406 z M 381.66602 84.316406 L 381.66602 104.36914 L 450.89258 104.36914 L 450.89258 173.59375 L 470.94336 173.59375 L 470.94336 84.316406 L 381.66602 84.316406 z M 63.521484 149.08008 C 57.269547 148.76751 52.30463 153.63091 52.492188 159.88281 L 56.617188 297.37109 C 56.804746 303.62304 62.076188 308.99794 68.328125 309.31055 L 410.31055 326.41016 C 416.56252 326.72272 421.52738 321.85937 421.33984 315.60742 L 417.21484 178.11914 C 417.02738 171.8672 411.75586 166.49229 405.50391 166.17969 L 63.521484 149.08008 z M 125.85156 157.56055 L 405.66406 171.55078 C 409.0336 171.71935 411.74266 174.48008 411.84375 177.84961 L 415.96875 315.33984 C 416.06966 318.70937 413.51799 321.20755 410.14844 321.03906 L 130.33789 307.04883 L 125.85156 157.56055 z M 91.916016 172.58008 L 92.382812 173.92969 L 92.849609 175.2793 L 94.273438 175.39844 L 95.746094 175.51953 L 94.679688 176.27148 C 94.075504 176.68183 93.56729 177.1083 93.570312 177.20898 C 93.573317 177.30914 93.772855 177.92138 93.990234 178.55664 C 94.207595 179.19187 94.373267 179.69547 94.355469 179.71289 C 94.337705 179.72801 93.804913 179.36163 93.195312 178.89648 L 92.082031 178.08203 L 91.199219 178.70117 C 90.28328 179.34071 89.85414 179.6211 89.851562 179.53516 C 89.850683 179.50492 90.022516 178.91519 90.238281 178.22656 L 90.626953 176.96875 L 89.513672 176.1543 C 88.90493 175.69924 88.400896 175.26007 88.394531 175.19922 C 88.388484 175.13799 89.006215 175.13484 89.767578 175.17188 L 91.142578 175.24023 L 91.529297 173.88672 L 91.916016 172.58008 z M 80.105469 175.21094 L 80.572266 176.56055 L 81.041016 177.95703 L 82.511719 178.03125 L 83.982422 178.10547 L 82.822266 178.90039 L 81.664062 179.74219 L 82.128906 181.04297 C 82.388371 181.76002 82.594807 182.36264 82.595703 182.39258 C 82.59658 182.42281 82.144608 182.12351 81.628906 181.72852 C 80.155446 180.60033 80.315886 180.61932 79.294922 181.32812 C 78.794116 181.67546 78.327071 182.00543 78.228516 182.08008 C 77.991653 182.25961 77.999544 182.27419 78.386719 181.04688 C 78.570744 180.46354 78.683806 179.8727 78.679688 179.73438 C 78.67553 179.59 78.17677 179.09319 77.507812 178.58594 L 76.345703 177.72266 L 77.863281 177.79883 L 79.333984 177.87305 L 79.71875 176.51953 L 80.105469 175.21094 z M 103.91992 176.40234 L 104.38672 177.75195 L 104.85156 179.05273 L 106.27734 179.21875 L 107.70117 179.33789 L 106.63477 180.08984 C 106.03756 180.49524 105.56942 180.88955 105.57227 180.98438 C 105.57512 181.07923 105.72366 181.6777 105.94336 182.28125 C 106.16299 182.88476 106.3554 183.41901 106.35742 183.48633 C 106.35944 183.5536 105.86783 183.20078 105.24609 182.7207 L 104.13086 181.85742 L 103.15625 182.51953 C 101.8087 183.44631 101.77019 183.49321 101.89648 183.16602 C 102.05727 182.7494 102.61511 180.71711 102.58008 180.69141 C 102.56307 180.67629 102.03573 180.29429 101.41797 179.82812 L 100.30273 178.9668 L 101.72461 178.98828 L 103.14453 179.01172 L 103.5332 177.70508 L 103.91992 176.40234 z M 183.91016 180.87109 C 182.189 180.90278 180.53881 181.11375 178.96094 181.50586 C 176.93337 181.95399 175.07158 182.68502 173.375 183.69922 C 171.52354 184.78414 169.83419 186.03409 168.30664 187.44922 C 166.77908 188.86435 165.41458 190.44412 164.21094 192.18945 C 163.00729 193.93476 161.88504 195.80195 160.8457 197.79102 C 159.88263 199.70537 159.00344 201.7809 158.20703 204.01758 C 157.41535 206.41153 156.73674 208.69343 156.17383 210.86328 C 155.61092 213.03316 155.20278 215.09324 154.94727 217.04297 C 154.27193 220.69873 153.79086 224.28653 153.50391 227.80469 C 153.21696 231.32287 153.12165 234.73318 153.2207 238.03516 C 153.3174 241.25851 153.49565 244.52415 153.75195 247.83398 C 154.00589 251.06518 154.37585 254.26331 154.86328 257.42773 C 155.26502 260.35233 155.85759 263.08947 156.64062 265.64062 C 157.50228 268.19574 158.5169 270.60305 159.68359 272.85938 C 160.85501 275.27298 162.33293 277.46614 164.11914 279.43945 C 165.90299 281.33416 167.99548 283.04703 170.39648 284.58008 C 172.79513 286.03452 175.53766 287.19186 178.625 288.05273 C 181.71234 288.91356 185.14428 289.44018 188.91797 289.62891 C 192.69165 289.81761 196.09964 289.63433 199.14453 289.08008 C 202.26804 288.52973 205.02871 287.64628 207.42578 286.43164 C 209.74424 285.21305 211.74066 283.74321 213.41602 282.02148 C 215.16999 280.30364 216.5619 278.29373 217.5918 275.99023 C 218.62641 273.84394 219.49868 271.49259 220.20703 268.9375 C 220.91538 266.38239 221.42114 263.62018 221.72461 260.65234 C 221.95182 257.75919 222.09726 254.7443 222.16016 251.60742 C 222.29929 248.39588 222.31511 245.02221 222.20898 241.48438 C 222.10285 237.94654 221.80155 234.43784 221.30469 230.95898 C 220.80546 227.40149 220.10912 223.83496 219.2168 220.25781 C 218.75766 218.03684 218.18132 215.80892 217.48633 213.57617 C 216.79134 211.3434 216.01824 209.10782 215.16602 206.86719 C 214.31851 204.78381 213.31237 202.6909 212.15039 200.5918 C 210.98841 198.49267 209.70993 196.42876 208.31445 194.39648 C 207.00467 192.60398 205.50244 190.91811 203.80664 189.3418 C 202.1871 187.69082 200.37624 186.1882 198.37305 184.83203 C 196.45318 183.63702 194.42241 182.71114 192.2832 182.05469 C 190.22261 181.40216 188.01285 181.01636 185.6543 180.89844 C 185.06466 180.86895 184.48387 180.86053 183.91016 180.87109 z M 71.599609 183.73828 C 71.637688 183.67063 71.898626 184.20212 72.15625 184.94922 L 72.623047 186.29883 L 74 186.36719 L 75.421875 186.43945 L 74.310547 187.23633 C 73.708374 187.65559 73.241658 187.97063 73.242188 187.98828 C 73.242678 188.0034 73.454531 188.64931 73.710938 189.38477 C 73.96734 190.12022 74.142697 190.72392 74.130859 190.73242 C 74.118765 190.74376 73.642505 190.37923 73.064453 189.92188 C 72.486401 189.46417 71.94413 189.06383 71.853516 189.05469 C 71.762943 189.04713 71.23021 189.38191 70.691406 189.75586 C 70.152567 190.13003 69.702053 190.40192 69.667969 190.36719 C 69.633651 190.32939 69.766181 189.78834 69.962891 189.15039 C 70.159596 188.51207 70.2581 187.91724 70.207031 187.83594 C 70.155879 187.7543 69.631638 187.31296 69.041016 186.87695 L 67.974609 186.06641 L 69.398438 186.13867 L 70.820312 186.20898 L 71.166016 185.04102 C 71.365371 184.38595 71.561774 183.80605 71.599609 183.73828 z M 252.90625 184.3418 C 251.08324 184.41256 249.35614 184.73082 247.72461 185.29688 C 245.54688 185.97301 243.53848 187.08985 241.70117 188.64648 C 239.94484 190.28567 238.62893 192.22231 237.75391 194.45508 C 236.95515 196.61316 236.59714 199.06671 236.67969 201.81836 L 238.38086 258.54297 C 238.54124 263.88903 239.35294 268.67853 240.81445 272.91211 C 242.27597 277.14573 244.42671 280.78558 247.26562 283.83203 C 250.02591 286.87455 253.59016 289.25098 257.95898 290.96094 C 262.40407 292.59621 267.65341 293.56452 273.70703 293.86719 C 279.05308 294.1345 283.78779 293.66579 287.91211 292.45898 C 292.11269 291.1775 295.74136 289.15983 298.79883 286.4082 C 301.77532 283.57401 303.98973 280.15213 305.43945 276.14258 C 306.88682 272.05444 307.53262 267.4154 307.37695 262.22656 C 307.36045 261.67624 307.26555 261.12264 307.0918 260.56445 C 306.99668 260.0102 306.86436 259.53377 306.69531 259.13281 C 306.44531 258.64939 306.0819 258.31568 305.60547 258.13477 C 305.12668 257.87539 304.57231 257.73071 303.94336 257.69922 L 292.97656 257.15039 C 291.8759 257.09534 291.05766 257.29018 290.52148 257.73438 C 290.06157 258.10389 289.84475 258.7597 289.87305 259.70312 C 289.95088 262.29752 289.62875 264.6373 288.90625 266.7207 C 288.26001 268.7294 287.2157 270.52137 285.77148 272.09766 C 284.24864 273.67004 282.43855 274.83507 280.3418 275.59375 C 278.24269 276.27391 275.85662 276.54786 273.18359 276.41406 C 270.19609 276.2647 267.59014 275.74193 265.36523 274.8457 C 263.21895 273.95338 261.454 272.68803 260.07031 271.04883 C 258.68427 269.33103 257.64266 267.31531 256.94531 265.00391 C 256.24561 262.61393 255.85134 259.92501 255.76172 256.9375 L 254.20703 205.16797 C 254.17637 204.14596 254.30522 203.21044 254.59375 202.36133 C 254.88228 201.51224 255.3703 200.75225 256.05664 200.08008 C 256.74298 199.40788 257.51377 198.93528 258.36914 198.66406 C 259.30313 198.39672 260.24213 198.28687 261.18555 198.33398 L 280.4082 199.29492 C 280.87992 199.31861 281.31508 199.41882 281.71289 199.5957 C 282.10834 199.69397 282.46711 199.90805 282.79102 200.23828 C 283.11727 200.64707 283.36457 201.01362 283.53125 201.33594 C 283.77665 201.66221 283.90279 201.98239 283.91211 202.29688 L 284.29102 214.91406 C 284.32403 216.01471 284.58404 216.85383 285.07227 217.42773 C 285.55813 217.9231 286.27337 218.19312 287.2168 218.24023 L 297.00391 218.73047 C 297.63285 218.76191 298.09966 218.58834 298.40234 218.21094 C 298.78127 217.75891 299.03821 217.14357 299.17188 216.36523 L 301.03906 196.20508 C 300.99661 194.78997 300.72193 193.48219 300.21484 192.2793 C 299.78637 191.08038 299.1641 189.98859 298.34961 189.00586 C 297.3826 188.17252 296.34292 187.53214 295.23047 187.08398 C 294.11566 186.55735 292.92977 186.26221 291.67188 186.19922 L 254.76172 184.35352 C 254.13277 184.32207 253.51392 184.31821 252.90625 184.3418 z M 112.86914 185.80078 C 112.92693 185.74069 113.18498 186.2733 113.42578 187.01367 L 113.8457 188.36133 L 115.26953 188.43164 L 116.69141 188.50195 L 115.58008 189.29883 C 114.97041 189.71715 114.4662 190.0759 114.4668 190.0957 C 114.46728 190.11082 114.71723 190.72185 114.98047 191.44922 C 115.24368 192.17666 115.41966 192.78033 115.40039 192.79492 C 115.38149 192.81004 114.91204 192.44176 114.33398 191.98438 C 113.75594 191.52671 113.21366 191.12829 113.12305 191.11914 C 113.03256 191.11158 112.49975 191.44441 111.96094 191.81836 C 111.42216 192.19253 110.97158 192.46438 110.9375 192.42969 C 110.90311 192.39189 111.0357 191.85087 111.23242 191.21289 C 111.42907 190.5746 111.52968 189.9391 111.47461 189.85156 C 111.41988 189.76388 110.88989 189.36827 110.31055 188.94141 L 109.24609 188.17773 L 110.66797 188.20117 L 112.08984 188.22266 L 112.43359 187.05664 C 112.61529 186.42213 112.81094 185.863 112.86914 185.80078 z M 323.63086 187.79688 C 323.23777 187.77722 322.84695 187.87561 322.46094 188.0918 C 322.15118 188.2333 321.88462 188.45512 321.6582 188.75781 C 321.35554 189.13516 321.12984 189.51708 320.98438 189.90234 C 320.91765 190.29148 320.88911 190.64255 320.89844 190.95703 L 323.97266 293.4375 C 323.98208 293.75196 324.03108 294.06831 324.11914 294.38672 C 324.28581 294.70906 324.53311 295.0736 324.85938 295.48242 C 325.10466 295.8087 325.42641 296.0614 325.82422 296.23828 C 326.22203 296.41617 326.6572 296.51639 327.12891 296.53906 L 338.33203 297.09961 C 338.80374 297.12304 339.23272 297.06531 339.62109 296.92773 C 340.00947 296.79013 340.35707 296.57217 340.66211 296.27344 C 340.89088 296.04936 341.04018 295.78123 341.10938 295.4707 C 341.25489 295.08547 341.32044 294.69583 341.30859 294.30273 L 338.64453 205.50391 C 338.63745 205.26804 338.70805 204.95748 338.85352 204.57227 C 338.99896 204.18703 339.18105 203.72606 339.40039 203.1875 C 339.78405 202.8927 340.17022 202.67664 340.55859 202.53906 C 340.94697 202.40098 341.33738 202.34117 341.73047 202.36133 L 364.01758 203.47656 C 364.33205 203.49218 364.64956 203.58666 364.96875 203.75977 C 365.28558 203.85413 365.68487 204.07014 366.16602 204.4082 C 366.49229 204.817 366.70061 205.22016 366.79102 205.61719 C 366.96016 206.01814 367.04927 206.375 367.05859 206.68945 L 367.64844 226.38281 C 367.67438 227.24762 367.54593 228.14454 367.25977 229.07227 C 366.97123 229.92132 366.4859 230.79899 365.80664 231.70703 C 365.12502 232.53646 364.36042 233.16528 363.50977 233.59375 C 362.65676 233.94363 361.71931 234.09412 360.69727 234.04297 L 347.60547 233.38867 C 346.42619 233.32971 345.53195 233.59782 344.92188 234.19531 C 344.30944 234.71422 344.02126 235.56488 344.05664 236.74414 L 344.375 247.35742 C 344.38682 247.75054 344.44004 248.22309 344.53516 248.77734 C 344.70655 249.25689 344.95963 249.82016 345.29297 250.46484 L 373.73242 295.68945 C 374.06812 296.41275 374.43886 296.97985 374.84375 297.39258 C 375.24863 297.80535 375.64906 298.10046 376.04688 298.27734 C 376.44705 298.53304 376.7657 298.70667 377.00391 298.79688 C 377.32308 298.97023 377.5615 299.0608 377.71875 299.06836 L 388.92188 299.62891 C 390.17977 299.6918 391.15465 299.46612 391.8457 298.95117 C 392.53911 298.51481 392.90947 297.74711 392.95508 296.65039 C 392.95037 296.49314 392.86241 296.21343 392.69336 295.8125 C 392.60059 295.33686 392.38803 294.77747 392.05469 294.13281 C 391.97607 294.12878 391.89544 294.0863 391.81445 294.00391 C 391.73347 293.92101 391.65325 293.83825 391.57227 293.75586 L 364.875 251.67969 C 364.46539 251.10971 364.13672 250.58118 363.88672 250.09766 C 363.71528 249.61808 363.62153 249.14359 363.60742 248.67188 C 363.598 248.35739 363.62808 248.0449 363.69727 247.73438 C 363.84507 247.42786 364.07346 247.16358 364.38086 246.94336 C 364.84078 246.57385 365.68757 246.02799 366.92188 245.30469 C 368.15619 244.58141 369.73944 243.71918 371.67188 242.7168 C 374.14049 241.27022 376.29933 239.96432 378.14844 238.80078 C 379.99519 237.5586 381.56955 236.42057 382.87305 235.38672 C 384.16946 234.11702 385.11232 232.83044 385.70117 231.52539 C 386.28767 230.14171 386.56003 228.74133 386.51758 227.32617 L 385.71094 200.43945 C 385.66849 199.02435 385.43238 197.71652 385.00391 196.51758 C 384.57544 195.31864 383.91459 194.22687 383.02148 193.24023 C 382.29033 192.41867 381.37026 191.78409 380.25781 191.33594 C 379.22162 190.81318 377.99521 190.51612 376.58008 190.44531 L 323.63086 187.79688 z M 68.820312 195.29883 L 69.287109 196.64844 L 69.755859 198.04492 L 71.179688 198.16211 L 72.556641 198.2793 L 71.582031 198.94141 C 71.034606 199.31747 70.53041 199.64754 70.466797 199.68945 C 70.403267 199.7333 70.577952 200.35307 70.841797 201.08203 C 71.105581 201.81095 71.307741 202.45009 71.308594 202.47852 C 71.309472 202.50875 70.813492 202.1439 70.195312 201.66602 C 69.577107 201.18806 69.038562 200.8035 68.984375 200.80078 C 68.930464 200.7981 68.403391 201.13045 67.824219 201.54688 C 67.245041 201.96318 66.754007 202.2247 66.751953 202.15625 C 66.749903 202.08784 66.911617 201.57357 67.095703 200.99023 C 67.279732 200.40686 67.440539 199.82984 67.4375 199.72852 C 67.434454 199.62685 66.894492 199.15283 66.269531 198.67578 L 65.154297 197.81445 L 66.576172 197.83594 L 67.998047 197.85938 L 68.386719 196.59961 L 68.820312 195.29883 z M 186.11523 196.22852 C 187.92346 196.31892 189.58773 196.83397 191.10742 197.77344 C 192.70573 198.71688 194.11885 200.04395 195.34766 201.75391 C 196.57411 203.38523 197.65005 205.24472 198.57617 207.33203 C 199.58091 209.42329 200.4362 211.74184 201.14062 214.28906 C 201.7735 217.06822 202.32286 219.68771 202.78906 222.14453 C 203.25291 224.52274 203.59394 226.73711 203.8125 228.78906 C 204.10967 230.84492 204.33034 232.93586 204.47266 235.0625 C 204.6126 237.1105 204.71211 239.1571 204.77344 241.20117 C 204.84177 243.48111 204.86838 245.68005 204.85352 247.79883 C 204.91484 249.8429 204.89556 251.80461 204.79492 253.68359 C 204.62039 255.7159 204.35959 257.50787 204.01367 259.06055 C 203.74637 260.61721 203.39532 261.97323 202.95898 263.12891 C 202.37957 264.74846 201.63615 266.16427 200.73047 267.375 C 199.90104 268.51103 198.94971 269.48319 197.875 270.29297 C 196.64305 271.09486 195.2091 271.69089 193.57227 272.08008 C 192.01169 272.39453 190.28723 272.50439 188.40039 272.41016 C 186.59217 272.31972 184.89666 272.03809 183.3125 271.56641 C 181.8046 271.01999 180.44741 270.28507 179.24219 269.36133 C 178.11794 268.52011 177.10526 267.48815 176.20508 266.26562 C 175.3049 265.04312 174.51946 263.66975 173.8457 262.14453 C 173.3339 260.78443 172.85628 259.30881 172.41602 257.7168 C 172.05201 256.0501 171.72565 254.30637 171.43555 252.48633 C 171.32861 251.539 171.22214 250.59191 171.11523 249.64453 L 171.02344 246.57812 C 170.91179 245.47355 170.83811 244.33163 170.80273 243.15234 C 170.76736 241.97306 170.7311 240.75397 170.69336 239.49609 C 170.63447 237.53061 170.61209 235.48982 170.62695 233.37109 C 170.64187 231.25232 170.73447 229.09773 170.9043 226.9082 C 170.92632 225.02529 171.05903 222.91314 171.30273 220.57031 C 171.54409 218.14887 171.93488 215.49855 172.47656 212.62109 C 173.10866 210.14069 173.82697 207.9398 174.63281 206.01758 C 175.43629 204.01675 176.32746 202.29421 177.30469 200.85156 C 178.51305 199.26348 179.81199 198.07335 181.20117 197.2793 C 182.66898 196.48915 184.30701 196.13806 186.11523 196.22852 z M 116.54688 197.87109 L 116.54688 197.875 C 116.59528 197.99783 116.80869 198.60776 117.01367 199.22266 L 117.37891 200.33203 L 118.80273 200.44922 L 120.27539 200.57031 L 119.16211 201.36719 C 118.55476 201.78562 118.04908 202.15432 118.05078 202.21094 C 118.05255 202.2699 118.26086 202.89463 118.51953 203.60938 C 118.79668 204.37374 118.94974 204.88037 118.83984 204.80859 C 118.73715 204.7417 118.18478 204.31682 117.62695 203.89453 L 116.60938 203.13477 L 116.23828 203.39844 C 116.02648 203.54357 115.48961 203.91023 115.07812 204.19336 L 114.33594 204.67773 L 114.63867 203.69922 C 115.20817 201.88221 115.27959 202.06441 113.99219 201.10938 L 112.83008 200.29297 L 114.25195 200.31445 L 115.67383 200.33789 L 116.05859 198.98438 C 116.27527 198.25236 116.49878 197.74769 116.54688 197.87109 z M 72.361328 207.55273 C 72.405473 207.55394 72.630004 208.1164 72.873047 208.81055 L 73.335938 210.06445 L 74.761719 210.18359 L 76.185547 210.30273 L 75.072266 211.05078 C 74.480641 211.45583 73.987259 211.82509 73.958984 211.84766 C 73.931016 211.87033 74.111081 212.49705 74.378906 213.24219 C 74.646724 213.9874 74.796697 214.50568 74.699219 214.44336 C 74.601707 214.37949 74.091657 214.00013 73.537109 213.58008 L 72.519531 212.81836 L 71.453125 213.57031 C 70.859572 213.98882 70.318017 214.36648 70.292969 214.36523 C 70.267722 214.36395 70.433234 213.80519 70.634766 213.15039 C 70.836245 212.49544 71.017511 211.88032 71.019531 211.79688 C 71.021578 211.71335 70.484465 211.26331 69.853516 210.79102 L 68.691406 209.92773 L 70.160156 209.95312 L 71.626953 209.93164 L 71.923828 208.76172 C 72.107891 208.10684 72.317531 207.5516 72.361328 207.55273 z M 113.625 209.42773 L 114.0918 210.77734 L 114.55859 212.12695 L 115.98438 212.24414 L 117.4082 212.36328 L 116.3418 213.11523 C 115.75018 213.52032 115.25679 213.88958 115.22852 213.91211 C 115.20055 213.93479 115.38061 214.56147 115.64844 215.30664 C 115.91625 216.05185 116.06623 216.56826 115.96875 216.50586 C 115.8712 216.44199 115.31431 216.06064 114.75977 215.64062 L 113.78906 214.88086 L 112.67578 215.63086 C 112.08145 216.04993 111.60748 216.35615 111.60547 216.28906 C 111.60345 216.22179 111.76512 215.70454 111.94922 215.12109 C 112.13324 214.53772 112.24682 213.99391 112.24414 213.9043 C 112.24145 213.81434 111.754 213.32554 111.12305 212.85352 L 109.96094 211.99023 L 111.38281 212.01367 L 112.84961 211.99023 L 113.23828 210.73047 L 113.625 209.42773 z M 81.384766 216.78906 C 81.391281 216.79101 81.395937 216.80199 81.402344 216.81641 C 81.45246 216.93962 81.694505 217.55225 81.916016 218.16797 L 82.28125 219.27539 L 83.658203 219.39062 L 85.083984 219.55859 L 83.96875 220.25977 L 82.902344 221.01172 L 83.367188 222.31445 C 83.622229 223.01915 83.816829 223.58229 83.785156 223.61328 C 83.753408 223.6473 83.249685 223.33277 82.673828 222.89453 C 82.097983 222.45701 81.574561 222.08126 81.511719 222.07812 C 81.448827 222.075 80.937682 222.405 80.396484 222.78125 C 79.485917 223.41372 79.282914 223.50916 79.279297 223.38867 C 79.278617 223.36599 79.453398 222.80767 79.666016 222.12891 L 80.054688 220.86914 L 78.894531 220.05273 L 77.779297 219.19336 L 79.152344 219.16602 L 80.525391 219.18945 L 80.912109 217.88086 C 81.076746 217.32723 81.265081 216.92599 81.355469 216.81445 L 81.353516 216.8125 C 81.368634 216.79266 81.378251 216.78711 81.384766 216.78906 z M 105.16406 217.91016 C 105.20534 217.95496 105.44635 218.53742 105.67773 219.21289 L 106.09375 220.4668 L 107.51758 220.58398 L 108.99023 220.70508 L 107.96875 221.36328 C 107.40282 221.74086 106.89084 222.11518 106.85742 222.20898 C 106.82416 222.30347 106.96555 222.94497 107.18359 223.59766 C 107.4016 224.25031 107.57166 224.78041 107.55078 224.80078 C 107.53037 224.82346 107.05651 224.51409 106.48633 224.08398 C 105.91616 223.6544 105.39326 223.2729 105.32617 223.26953 C 105.25909 223.26617 104.70511 223.59966 104.11719 224.01367 C 103.52928 224.42832 103.0496 224.74456 103.04883 224.71875 C 103.04795 224.68851 103.26169 224.11849 103.48242 223.41406 C 103.70315 222.7096 103.86955 222.12107 103.86914 222.10742 C 103.86875 222.09608 103.33014 221.70869 102.70703 221.24219 L 101.5918 220.38281 L 102.9668 220.4043 L 104.33984 220.42773 L 104.72656 219.12109 C 104.9358 218.41001 105.12341 217.86869 105.16406 217.91016 z M 93.263672 220.62891 C 93.303055 220.50985 93.554628 221.0075 93.818359 221.74609 L 94.332031 223.09961 L 95.662109 223.21289 L 97.039062 223.37695 L 96.017578 224.03516 C 95.460283 224.41084 95.001567 224.85141 95.003906 224.97852 C 95.006809 225.10589 95.20236 225.67624 95.421875 226.2793 C 95.641277 226.88232 95.810951 227.41027 95.787109 227.43359 C 95.763298 227.45627 95.239274 227.08542 94.626953 226.61914 C 94.011381 226.15018 93.407194 225.83277 93.326172 225.89062 C 93.245592 225.94807 92.793844 226.29251 92.306641 226.64453 C 91.34234 227.34159 91.182732 227.40503 91.324219 227.02148 C 91.375091 226.88315 91.541165 226.29236 91.710938 225.71484 L 92.056641 224.64258 L 90.943359 223.83008 C 90.335173 223.37793 89.828897 222.96029 89.826172 222.91992 C 89.82288 222.87835 90.407322 222.90166 91.154297 222.93945 L 92.529297 223.00781 L 92.875 221.93555 C 93.062956 221.34038 93.224463 220.74796 93.263672 220.62891 z M 2.8886719 301.89648 L 2.8886719 391.17383 L 92.166016 391.17383 L 92.166016 369.91016 L 22.941406 369.91016 L 22.941406 301.89648 L 2.8886719 301.89648 z M 450.89258 301.89648 L 450.89258 369.91016 L 430.27734 369.91016 L 381.66602 369.91016 L 381.66602 391.17383 L 470.94336 391.17383 L 470.94336 301.89648 L 450.89258 301.89648 z "
       transform="matrix(0.26458333,0,0,0.26458333,-9.0776787,186.7453)"
       id="rect4485" />
  </g>
</svg>
