<?xml version="1.0" encoding="UTF-8" standalone="no"?>
<!-- Created with Inkscape (http://www.inkscape.org/) -->

<svg
   xmlns:dc="http://purl.org/dc/elements/1.1/"
   xmlns:cc="http://creativecommons.org/ns#"
   xmlns:rdf="http://www.w3.org/1999/02/22-rdf-syntax-ns#"
   xmlns:svg="http://www.w3.org/2000/svg"
   xmlns="http://www.w3.org/2000/svg"
   xmlns:xlink="http://www.w3.org/1999/xlink"
   xmlns:sodipodi="http://sodipodi.sourceforge.net/DTD/sodipodi-0.dtd"
   xmlns:inkscape="http://www.inkscape.org/namespaces/inkscape"
   width="125.08214mm"
   height="125.08215mm"
   viewBox="0 0 125.08214 125.08215"
   version="1.1"
   id="svg8"
   inkscape:export-filename="C:\Users\jherwig\Downloads\ALPR_1024.png"
   inkscape:export-xdpi="207.94"
   inkscape:export-ydpi="207.94"
   inkscape:version="0.92.1 r15371"
   sodipodi:docname="ALPR-scan-multicolor.svg">
  <defs
     id="defs2">
    <linearGradient
       y2="57.63636"
       x2="56.909103"
       y1="98.909088"
       x1="54.909092"
       gradientTransform="matrix(8.1388236,0,0,8.2087572,43.862514,-237.13826)"
       gradientUnits="userSpaceOnUse"
       id="linearGradient3860"
       xlink:href="#linearGradient3802-1"
       inkscape:collect="always" />
    <linearGradient
       id="linearGradient3802-1"
       inkscape:collect="always">
      <stop
         id="stop3804-7"
         offset="0"
         style="stop-color:#2d2d2d;stop-opacity:1" />
      <stop
         id="stop3806-4"
         offset="1"
         style="stop-color:#b0b0b0;stop-opacity:1" />
    </linearGradient>
    <inkscape:perspective
       id="perspective2526"
       inkscape:persp3d-origin="405 : 180 : 1"
       inkscape:vp_z="810 : 270 : 1"
       inkscape:vp_y="0 : 1000 : 0"
       inkscape:vp_x="0 : 270 : 1"
       sodipodi:type="inkscape:persp3d" />
    <g
       id="s">
      <g
         id="c">
        <path
           inkscape:connector-curvature="0"
           transform="matrix(0.9510565,0.309017,-0.309017,0.9510565,0,-1)"
           d="M 0,0 0,1 0.5,1 0,0 z"
           id="t" />
        <use
           height="540"
           width="810"
           y="0"
           x="0"
           id="use2493"
           transform="scale(-1,1)"
           xlink:href="#t" />
      </g>
      <g
         id="a">
        <use
           height="540"
           width="810"
           y="0"
           x="0"
           id="use2496"
           transform="matrix(0.309017,0.9510565,-0.9510565,0.309017,0,0)"
           xlink:href="#c" />
        <use
           height="540"
           width="810"
           y="0"
           x="0"
           id="use2498"
           transform="matrix(-0.809017,0.5877853,-0.5877853,-0.809017,0,0)"
           xlink:href="#c" />
      </g>
      <use
         height="540"
         width="810"
         y="0"
         x="0"
         id="use2500"
         transform="scale(-1,1)"
         xlink:href="#a" />
    </g>
    <inkscape:perspective
       sodipodi:type="inkscape:persp3d"
       inkscape:vp_x="0 : 526.18109 : 1"
       inkscape:vp_y="0 : 1000 : 0"
       inkscape:vp_z="744.09448 : 526.18109 : 1"
       inkscape:persp3d-origin="372.04724 : 350.78739 : 1"
       id="perspective2592" />
    <inkscape:perspective
       sodipodi:type="inkscape:persp3d"
       inkscape:vp_x="0 : 526.18109 : 1"
       inkscape:vp_y="0 : 1000 : 0"
       inkscape:vp_z="744.09448 : 526.18109 : 1"
       inkscape:persp3d-origin="372.04724 : 350.78739 : 1"
       id="perspective2690" />
    <inkscape:perspective
       sodipodi:type="inkscape:persp3d"
       inkscape:vp_x="0 : 526.18109 : 1"
       inkscape:vp_y="0 : 1000 : 0"
       inkscape:vp_z="744.09448 : 526.18109 : 1"
       inkscape:persp3d-origin="372.04724 : 350.78739 : 1"
       id="perspective3833" />
  </defs>
  <sodipodi:namedview
     id="base"
     pagecolor="#ffffff"
     bordercolor="#666666"
     borderopacity="1.0"
     inkscape:pageopacity="0.0"
     inkscape:pageshadow="2"
     inkscape:zoom="1.7212991"
     inkscape:cx="186.95421"
     inkscape:cy="242.38594"
     inkscape:document-units="mm"
     inkscape:current-layer="layer1"
     showgrid="false"
     fit-margin-top="0"
     fit-margin-left="0"
     fit-margin-right="0"
     fit-margin-bottom="0"
     inkscape:window-width="1920"
     inkscape:window-height="1017"
     inkscape:window-x="1912"
     inkscape:window-y="-8"
     inkscape:window-maximized="1" />
  <metadata
     id="metadata5">
    <rdf:RDF>
      <cc:Work
         rdf:about="">
        <dc:format>image/svg+xml</dc:format>
        <dc:type
           rdf:resource="http://purl.org/dc/dcmitype/StillImage" />
        <dc:title></dc:title>
      </cc:Work>
    </rdf:RDF>
  </metadata>
  <g
     inkscape:label="Ebene 1"
     inkscape:groupmode="layer"
     id="layer1"
     transform="translate(9.0776787,-186.7453)">
    <path
       style="fill:#ffffff;stroke:none;stroke-width:0.29130533px;stroke-linecap:butt;stroke-linejoin:miter;stroke-opacity:1"
       d="m 7.2849835,227.0607 92.2400875,4.93544 1.460279,40.24068 -92.4323783,-4.77841 z"
       id="path4535"
       inkscape:connector-curvature="0"
       sodipodi:nodetypes="ccccc" />
    <g
       id="g4626"
       transform="matrix(0.80096016,0,0,0.80096016,17.839734,41.535863)"
       inkscape:export-xdpi="219.64934"
       inkscape:export-ydpi="219.64934">
      <g
         id="g4674"
         transform="matrix(1.0749618,0.05374809,0.03224885,1.0749618,-14.982945,-20.726779)">
        <g
           id="g4667">
          <path
             style="color:#000000;font-style:normal;font-variant:normal;font-weight:normal;font-stretch:normal;font-size:medium;line-height:normal;font-family:sans-serif;font-variant-ligatures:normal;font-variant-position:normal;font-variant-caps:normal;font-variant-numeric:normal;font-variant-alternates:normal;font-feature-settings:normal;text-indent:0;text-align:start;text-decoration:none;text-decoration-line:none;text-decoration-style:solid;text-decoration-color:#000000;letter-spacing:normal;word-spacing:normal;text-transform:none;writing-mode:lr-tb;direction:ltr;text-orientation:mixed;dominant-baseline:auto;baseline-shift:baseline;text-anchor:start;white-space:normal;shape-padding:0;clip-rule:nonzero;display:inline;overflow:visible;visibility:visible;opacity:1;isolation:auto;mix-blend-mode:normal;color-interpolation:sRGB;color-interpolation-filters:linearRGB;solid-color:#000000;solid-opacity:1;vector-effect:none;fill:#000000;fill-opacity:1;fill-rule:nonzero;stroke:none;stroke-width:1.65037656;stroke-linecap:butt;stroke-linejoin:miter;stroke-miterlimit:4;stroke-dasharray:none;stroke-dashoffset:0;stroke-opacity:1;color-rendering:auto;image-rendering:auto;shape-rendering:auto;text-rendering:auto;enable-background:accumulate"
             d="m -4.8242188,233.98633 c -1.9212024,0 -3.4941406,1.57294 -3.4941406,3.49414 v 42.25 c 0,1.9212 1.5729382,3.49414 3.4941406,3.49414 H 100.26562 c 1.92121,0 3.49415,-1.57294 3.49415,-3.49414 v -42.25 c 0,-1.9212 -1.57294,-3.49414 -3.49415,-3.49414 z m 0,1.65039 H 100.26562 c 1.03545,0 1.84376,0.80831 1.84376,1.84375 v 42.25 c 0,1.03544 -0.80831,1.84375 -1.84376,1.84375 H -4.8242188 c -1.0354407,0 -1.84375,-0.80831 -1.84375,-1.84375 v -42.25 c 0,-1.03544 0.8083093,-1.84375 1.84375,-1.84375 z"
             id="rect4573"
             inkscape:connector-curvature="0" />
          <rect
             style="opacity:1;fill:#ffeb00;fill-opacity:1;stroke:none;stroke-width:2.32834196;stroke-miterlimit:4;stroke-dasharray:none;stroke-opacity:1"
             id="rect4676"
             width="19.333927"
             height="21.643867"
             x="0.88732904"
             y="239.17557"
             transform="matrix(0.99875234,-0.04993762,-0.0299865,0.9995503,0,0)"
             ry="2.4628115" />
          <path
             inkscape:connector-curvature="0"
             style="fill:#0000ff;fill-opacity:1;stroke-width:0.4664667"
             d="m -4.5824413,235.16968 c -0.3220287,0 -0.6247433,0.0714 -0.9037807,0.1895 -0.2790355,0.118 -0.532396,0.28458 -0.74343,0.49562 -0.2110356,0.21104 -0.3921757,0.46438 -0.5101978,0.74341 -0.1180175,0.27907 -0.1749272,0.58177 -0.1749272,0.90379 v 41.98201 c 0,0.32202 0.071472,0.62472 0.1895021,0.90379 0.1180175,0.27903 0.2845855,0.53239 0.4956211,0.74343 0.211034,0.21102 0.4643946,0.37758 0.74343,0.49562 0.2790374,0.118 0.581752,0.18949 0.9037807,0.18949 H 14.280302 v -46.64666 z m 8.2797827,5.61218 0.131186,0.40816 0.1311859,0.40816 0.4373129,0.0145 0.4518894,0.0145 -0.3352725,0.24782 c -0.1897314,0.13558 -0.349851,0.27518 -0.349851,0.30612 0,0.0308 0.055588,0.21599 0.1166236,0.40816 0.061035,0.19215 0.1076858,0.34419 0.1020432,0.34983 -0.00564,0.005 -0.166535,-0.0995 -0.3498509,-0.23323 l -0.3352724,-0.23322 -0.2769639,0.20408 c -0.2877925,0.21091 -0.4227361,0.30337 -0.4227361,0.27696 0,-0.009 0.058427,-0.19291 0.1311859,-0.40816 l 0.131186,-0.39358 -0.3352723,-0.23323 c -0.1831447,-0.13068 -0.3338745,-0.25836 -0.3352725,-0.27698 -0.00126,-0.0187 0.1887687,-0.029 0.4227343,-0.029 h 0.4227359 l 0.131186,-0.42273 z m -3.65884859,0.99123 0.13118594,0.40816 0.13120408,0.42275 H 0.75277225 1.2046616 l -0.36442755,0.26237 -0.3644276,0.27696 0.131186,0.39359 c 0.073236,0.21668 0.1311859,0.39897 0.1311859,0.40816 0,0.009 -0.136475,-0.0759 -0.2915407,-0.18949 -0.4430549,-0.32454 -0.3935209,-0.32126 -0.71427657,-0.0874 -0.15733251,0.11456 -0.30425388,0.22333 -0.3352743,0.24782 -0.0745589,0.0589 -0.0721953,0.0629 0.0583037,-0.32072 0.0620231,-0.18236 0.10204319,-0.36565 0.10204319,-0.40816 0,-0.0444 -0.14865747,-0.18943 -0.34985095,-0.33525 l -0.34984892,-0.2478 h 0.46646602 0.45188924 l 0.13118595,-0.42275 z m 7.31769739,0 0.1311859,0.40816 0.131186,0.39358 0.4373127,0.0292 0.437311,0.0145 -0.3352725,0.24782 c -0.1875382,0.13395 -0.3352725,0.26239 -0.3352725,0.29153 0,0.0292 0.040004,0.21122 0.1020432,0.39359 0.062023,0.18236 0.1166237,0.34375 0.1166237,0.36444 0,0.0207 -0.1483584,-0.0805 -0.3352721,-0.21868 l -0.3352712,-0.2483 -0.3061192,0.21867 c -0.4232772,0.30596 -0.4354703,0.3213 -0.3935809,0.21865 0.053332,-0.13069 0.2437751,-0.76522 0.2332322,-0.7726 -0.00511,-0.004 -0.1640318,-0.11383 -0.3498491,-0.24779 l -0.3352725,-0.24782 0.4373128,-0.0145 0.4373109,-0.0145 0.131186,-0.40816 z m -10.0144571,2.75506 c 0.012344,-0.0214 0.087958,0.13848 0.1603468,0.36444 l 0.131186,0.40816 H -1.944 -1.5066872 l -0.3498491,0.26239 c -0.1891955,0.1383 -0.3352742,0.24239 -0.3352742,0.24781 0,0.005 0.059061,0.20033 0.131186,0.42272 0.072125,0.2224 0.1203448,0.40536 0.1166236,0.40816 -0.00388,0.004 -0.1470189,-0.10133 -0.3206957,-0.23323 -0.1736748,-0.13196 -0.3366247,-0.2464 -0.3644276,-0.24782 -0.027803,-10e-4 -0.1951508,0.10985 -0.3644257,0.23325 -0.1692865,0.12343 -0.3105267,0.21424 -0.3206959,0.20408 -0.010223,-0.0109 0.035614,-0.17963 0.1020432,-0.379 0.066431,-0.19947 0.1024311,-0.38392 0.087465,-0.40816 -0.01499,-0.0243 -0.1721069,-0.15189 -0.3498509,-0.27698 l -0.3206957,-0.23322 h 0.4373126 0.4373128 l 0.1166236,-0.36444 c 0.067401,-0.20468 0.133497,-0.38673 0.1457664,-0.40816 z m 12.6820639,0 c 0.01834,-0.0194 0.09307,0.14029 0.160347,0.36444 l 0.116623,0.40816 h 0.437313 0.437313 l -0.349851,0.26239 c -0.191494,0.13812 -0.349849,0.25628 -0.349849,0.26237 0,0.005 0.07147,0.18835 0.145766,0.40816 0.07429,0.21983 0.122689,0.40337 0.116624,0.40816 -0.006,0.005 -0.147019,-0.10133 -0.320696,-0.23323 -0.173674,-0.13196 -0.336626,-0.2464 -0.364427,-0.24782 -0.02778,-10e-4 -0.1951512,0.10985 -0.3644282,0.23325 -0.169268,0.12343 -0.310526,0.21424 -0.320695,0.20408 -0.01022,-0.0109 0.03561,-0.17963 0.102043,-0.379 0.06641,-0.19947 0.103594,-0.39666 0.08746,-0.42275 -0.01604,-0.0261 -0.175491,-0.13993 -0.3498487,-0.26239 l -0.3206956,-0.21863 0.4373126,-0.0145 0.4373107,-0.0145 0.116624,-0.36444 c 0.0619,-0.19848 0.1274322,-0.37412 0.1457662,-0.39357 z m -13.6441511,3.60054 0.1311859,0.40816 0.131186,0.42273 0.4373127,0.0145 0.422736,0.0145 -0.306119,0.21865 c -0.1719474,0.12417 -0.3298864,0.23392 -0.349851,0.2478 -0.019958,0.0145 0.027573,0.20247 0.1020432,0.42275 0.074452,0.22027 0.131186,0.414 0.131186,0.42273 0,0.009 -0.1494333,-0.0957 -0.3352725,-0.23322 -0.1858456,-0.13758 -0.3477758,-0.24782 -0.3644274,-0.24782 -0.016567,0 -0.1823374,0.11075 -0.3644276,0.24782 -0.1820905,0.13703 -0.3352725,0.2251 -0.3352725,0.20406 0,-0.021 0.054584,-0.18206 0.1166236,-0.36442 0.062023,-0.18237 0.1166055,-0.36243 0.1166055,-0.39357 0,-0.0312 -0.1619165,-0.16893 -0.3498491,-0.30613 l -0.3352723,-0.24781 0.4373126,-0.0145 0.4373109,-0.0145 0.1312041,-0.39361 z m 14.6645461,0.0584 c 0.01376,0.0371 0.07378,0.22206 0.131186,0.40815 l 0.102043,0.33528 0.437313,0.0145 0.45189,0.0145 -0.349849,0.26239 c -0.190781,0.13812 -0.349851,0.25956 -0.349851,0.27696 0,0.0181 0.05818,0.20676 0.131186,0.42275 0.07824,0.23098 0.120625,0.3848 0.08746,0.3644 -0.03099,-0.019 -0.196649,-0.14101 -0.364427,-0.26239 L 11.015024,249.805 10.8984,249.8924 c -0.06652,0.0479 -0.235173,0.16893 -0.364426,0.26239 l -0.233234,0.16041 0.102044,-0.30611 c 0.192044,-0.56797 0.212462,-0.51305 -0.174928,-0.78717 l -0.3498502,-0.23324 0.4373122,-0.0145 0.437313,-0.0145 0.131186,-0.42273 c 0.07345,-0.22863 0.146683,-0.38708 0.160347,-0.34985 z m -1.005819,3.60052 0.131186,0.40816 0.131186,0.40815 0.437313,0.0145 0.437313,0.0145 -0.335274,0.24781 c -0.185816,0.13377 -0.340941,0.25502 -0.34985,0.26239 -0.0088,0.007 0.04108,0.19752 0.116624,0.42273 0.07554,0.22522 0.116888,0.38212 0.08746,0.36442 -0.02943,-0.0181 -0.197642,-0.12706 -0.364428,-0.24779 l -0.29154,-0.21866 -0.3498512,0.2478 c -0.186779,0.13812 -0.335273,0.23926 -0.335273,0.21865 0,-0.0207 0.05458,-0.18203 0.116624,-0.36442 0.06202,-0.18238 0.102043,-0.35147 0.102043,-0.37901 0,-0.0276 -0.145449,-0.17056 -0.3352725,-0.30611 l -0.349849,-0.24781 0.4373126,-0.0145 0.4518899,-0.0292 0.131185,-0.39356 z m -12.6820633,0.0584 c 0.013576,-3.1e-4 0.077379,0.16912 0.1457664,0.37901 l 0.131186,0.379 0.4373109,0.0145 0.4373128,0.0145 -0.3498491,0.24782 c -0.1858175,0.13377 -0.3409407,0.25501 -0.349851,0.26239 -0.00881,0.007 0.041079,0.19751 0.1166236,0.42271 0.075545,0.22523 0.1168883,0.38213 0.087465,0.36444 -0.029426,-0.0181 -0.1830618,-0.12706 -0.3498509,-0.2478 l -0.3061191,-0.21865 -0.3352723,0.2478 c -0.1865351,0.13793 -0.3567303,0.26237 -0.3644276,0.26237 -0.00776,0 0.048554,-0.17437 0.1166236,-0.379 0.068054,-0.20467 0.1297939,-0.39702 0.131186,-0.42273 0.0014,-0.0257 -0.1600296,-0.15588 -0.349849,-0.29153 l -0.3498509,-0.24782 0.4518894,-0.0145 0.4518894,-0.0292 0.1020432,-0.36441 c 0.062694,-0.20438 0.1322971,-0.3787 0.1457664,-0.37903 z m 9.9998805,2.6822 c 0.012163,0.0127 0.080711,0.18898 0.1457664,0.39356 l 0.1166236,0.37901 0.4373127,0.0145 0.4518895,0.0145 -0.3206959,0.21865 c -0.1776552,0.12489 -0.3387013,0.24758 -0.3498507,0.27696 -0.011111,0.0296 0.026393,0.22523 0.087464,0.42275 0.061072,0.1975 0.1086555,0.35781 0.1020432,0.3644 -0.00653,0.007 -0.1491867,-0.0805 -0.3206956,-0.20406 -0.1715069,-0.12343 -0.3292322,-0.23322 -0.3498489,-0.23322 -0.020609,0 -0.1942429,0.11129 -0.3790042,0.2478 -0.1847631,0.13666 -0.3352743,0.24116 -0.3352743,0.23322 0,-0.009 0.071332,-0.18795 0.1457663,-0.40814 0.074436,-0.22021 0.131186,-0.40397 0.131186,-0.40816 0,-0.004 -0.1623914,-0.11383 -0.3498509,-0.24781 l -0.3352724,-0.24782 0.422736,-0.0145 0.4227343,-0.0145 0.131186,-0.40816 c 0.070961,-0.22206 0.1336365,-0.39112 0.1457664,-0.37899 z m -7.31769739,0.0292 c 0.009697,-0.0127 0.0109299,-0.009 0.0146276,0 0.0142832,0.0372 0.0832847,0.22208 0.14576639,0.40816 l 0.10204318,0.33527 0.42273427,0.0145 0.43731275,0.0292 -0.34984905,0.23323 -0.3352743,0.24782 0.1311859,0.39356 c 0.071983,0.21296 0.1266563,0.38357 0.1166236,0.39359 -0.010042,0.0109 -0.1620923,-0.0781 -0.3352725,-0.20408 -0.17318169,-0.12579 -0.33053867,-0.23323 -0.34985069,-0.23323 -0.0193222,0 -0.17981764,0.10912 -0.34984913,0.23323 -0.28607527,0.20866 -0.34985095,0.24111 -0.34985095,0.20408 0,-0.007 0.0594837,-0.18142 0.13118595,-0.39359 l 0.13118595,-0.39356 -0.34985077,-0.23325 -0.33527251,-0.2478 0.42273434,-0.0292 0.42273596,-0.0145 0.13118595,-0.40816 c 0.0557823,-0.17292 0.11692452,-0.29955 0.14576639,-0.33527 z m 3.62969539,0.99123 c 0.013214,-0.0372 0.086,0.11202 0.1603468,0.33527 l 0.1457664,0.40816 0.4081594,0.0145 0.4227343,0.0292 -0.3206959,0.21865 c -0.1749798,0.12416 -0.3202427,0.26703 -0.3206957,0.30611 -2.838e-4,0.0392 0.054637,0.21138 0.1166236,0.3936 0.061952,0.1822 0.109589,0.34229 0.1020432,0.34983 -0.00758,0.007 -0.1657066,-0.0992 -0.3498507,-0.23323 -0.1851175,-0.13485 -0.3681124,-0.22311 -0.3935811,-0.20406 -0.025334,0.0189 -0.1675047,0.13196 -0.3206957,0.2478 -0.3032083,0.22937 -0.3532042,0.25143 -0.306119,0.13123 0.01693,-0.0433 0.073606,-0.22782 0.131186,-0.40816 l 0.1166236,-0.33527 -0.3352723,-0.23322 c -0.1830002,-0.12979 -0.3348071,-0.25 -0.3352725,-0.26239 -6.312e-4,-0.0127 0.1786141,-0.0145 0.4081577,-0.0145 h 0.4227359 l 0.1166236,-0.33527 c 0.063345,-0.18606 0.1180339,-0.37091 0.1312041,-0.40816 z"
             id="path3234"
             inkscape:export-xdpi="7"
             inkscape:export-ydpi="7" />
        </g>
        <g
           aria-label="OCR"
           style="font-style:normal;font-weight:normal;font-size:11.13256359px;line-height:1.25;font-family:sans-serif;letter-spacing:0px;word-spacing:0px;fill:#000000;fill-opacity:1;stroke:none;stroke-width:0.27831408"
           id="text4508-4">
          <path
             d="m 43.159996,259.98254 q 0,1.63075 -0.108716,3.11654 -0.07248,1.44955 -0.217433,2.79039 -0.181194,1.37707 -0.543582,2.57295 -0.362389,1.19588 -0.869732,2.21057 -0.507343,1.08716 -1.340836,1.92066 -0.797254,0.83349 -1.884419,1.44955 -1.123403,0.61606 -2.572955,0.94221 -1.413314,0.32615 -3.152777,0.32615 -1.739464,0 -3.152777,-0.32615 -1.413314,-0.32615 -2.500479,-0.94221 -1.087164,-0.6523 -1.884418,-1.48579 -0.797254,-0.86973 -1.304597,-1.9569 -0.507344,-1.01468 -0.869732,-2.17433 -0.326149,-1.15964 -0.471105,-2.50047 -0.181194,-1.44956 -0.253671,-2.93535 -0.07248,-1.52203 -0.07248,-3.00782 0,-1.52203 0.181194,-3.15278 0.181194,-1.63074 0.543582,-3.33397 0.144956,-0.90597 0.434866,-1.92066 0.289911,-1.01468 0.688538,-2.13809 0.398627,-1.05092 0.869731,-1.95689 0.507344,-0.94221 1.087165,-1.7757 0.579821,-0.8335 1.304597,-1.52203 0.724776,-0.68854 1.594508,-1.23212 0.797254,-0.50735 1.739463,-0.76102 0.978448,-0.28991 2.065613,-0.28991 1.087164,0 2.029373,0.25367 0.978448,0.25367 1.84818,0.76102 0.90597,0.57982 1.630747,1.30459 0.761015,0.68854 1.340836,1.4858 0.61606,0.90597 1.123403,1.84818 0.507343,0.94221 0.869732,1.88441 0.362388,1.01469 0.652298,2.02938 0.289911,1.01468 0.471105,2.02937 0.362388,1.63075 0.543582,3.2615 0.181194,1.5945 0.181194,3.22525 z m -5.363345,0.18119 q 0,-0.94221 -0.03624,-1.88441 -0.03624,-0.97845 -0.144956,-1.92066 -0.07248,-0.94221 -0.253671,-2.02938 -0.181194,-1.1234 -0.434866,-2.39176 -0.289911,-1.15964 -0.724776,-2.10185 -0.398627,-0.94221 -0.94221,-1.66698 -0.543582,-0.76102 -1.268358,-1.15965 -0.688538,-0.39862 -1.52203,-0.39862 -0.833493,0 -1.522031,0.39862 -0.652298,0.39863 -1.232119,1.15965 -0.471105,0.68853 -0.869732,1.63074 -0.398627,0.90597 -0.724776,2.06561 -0.289911,1.34084 -0.434866,2.46424 -0.144955,1.08717 -0.181194,1.9569 -0.108717,1.01469 -0.144955,1.99314 -0.03624,0.97844 -0.03624,1.88441 0,0.57982 0,1.12341 0,0.54358 0.03624,1.05092 0,0.47111 0,0.94221 0.03624,0.43487 0.07248,0.86973 0.108717,0.8335 0.253672,1.59451 0.181194,0.72478 0.398627,1.34084 0.28991,0.68854 0.688537,1.23212 0.398627,0.54358 0.905971,0.90597 0.543582,0.39862 1.23212,0.61606 0.724776,0.18119 1.558269,0.18119 0.869731,0 1.594507,-0.18119 0.761016,-0.21744 1.340837,-0.61606 0.507343,-0.39863 0.90597,-0.94221 0.434866,-0.57982 0.724776,-1.34084 0.217433,-0.54358 0.362389,-1.26836 0.181194,-0.72477 0.28991,-1.66698 0.07248,-0.86973 0.07248,-1.81194 0.03624,-0.97845 0.03624,-2.02938 z"
             style="font-style:normal;font-variant:normal;font-weight:normal;font-stretch:normal;font-size:37.10854721px;font-family:werbasinnotec;-inkscape-font-specification:werbasinnotec;stroke-width:0.27831408"
             id="path4680"
             inkscape:connector-curvature="0" />
          <path
             d="m 69.179466,265.05597 q 0,2.39177 -0.724776,4.31242 -0.724776,1.88442 -2.13809,3.2615 -1.449553,1.34083 -3.406449,2.02937 -1.920657,0.6523 -4.384896,0.6523 -2.790389,0 -4.819763,-0.6523 -1.993135,-0.68854 -3.225254,-2.02937 -1.268359,-1.34084 -1.884419,-3.2615 -0.61606,-1.92065 -0.61606,-4.38489 v -17.43087 q 0,-1.26836 0.398627,-2.28305 0.434866,-1.05093 1.268359,-1.84818 0.869731,-0.76101 1.884418,-1.1234 1.014687,-0.39863 2.174329,-0.39863 h 11.342749 q 0.579821,0 1.087165,0.21743 0.507343,0.1812 0.942209,0.54359 0.362388,0.43486 0.543582,0.97844 0.217433,0.54359 0.217433,1.19588 l -0.761015,6.23308 q -0.07248,0.36239 -0.253672,0.57982 -0.144955,0.1812 -0.434865,0.1812 h -3.007822 q -0.434866,0 -0.652299,-0.21744 -0.217433,-0.25367 -0.217433,-0.76101 v -3.87756 q 0,-0.14495 -0.108716,-0.28991 -0.07248,-0.14495 -0.217433,-0.32614 -0.144955,-0.14496 -0.326149,-0.1812 -0.181194,-0.0725 -0.398627,-0.0725 h -5.906927 q -0.434866,0 -0.869732,0.14496 -0.398627,0.14495 -0.724776,0.4711 -0.326149,0.32615 -0.471105,0.72478 -0.144955,0.39863 -0.144955,0.86973 v 15.90884 q 0,1.37708 0.289911,2.46424 0.28991,1.05093 0.90597,1.81194 0.61606,0.72478 1.594508,1.08717 1.014687,0.36238 2.391762,0.36238 1.232119,0 2.210567,-0.36238 0.978448,-0.39863 1.703225,-1.15965 0.688537,-0.76101 1.014687,-1.70322 0.362388,-0.97845 0.362388,-2.17433 0,-0.43487 0.217433,-0.61606 0.253671,-0.21743 0.761015,-0.21743 h 3.37021 q 0.28991,0 0.507343,0.10871 0.217433,0.0725 0.326149,0.28991 0.07248,0.1812 0.108717,0.43487 0.07248,0.25367 0.07248,0.50734 z"
             style="font-style:normal;font-variant:normal;font-weight:normal;font-stretch:normal;font-size:37.10854721px;font-family:werbasinnotec;-inkscape-font-specification:werbasinnotec;stroke-width:0.27831408"
             id="path4682"
             inkscape:connector-curvature="0" />
          <path
             d="m 95.198937,274.33311 q -0.03624,0.50734 -0.362389,0.72478 -0.326149,0.25367 -0.90597,0.25367 h -3.442687 q -0.07248,0 -0.217433,-0.0725 -0.108717,-0.0362 -0.289911,-0.14495 -0.181194,-0.0725 -0.362388,-0.25368 -0.181194,-0.18119 -0.326149,-0.50734 l -8.334928,-13.48084 q -0.144955,-0.28991 -0.217433,-0.50734 -0.03624,-0.25367 -0.03624,-0.43487 v -3.26149 q 0,-0.54358 0.289911,-0.79726 0.28991,-0.28991 0.833493,-0.28991 h 4.022508 q 0.471105,0 0.869732,-0.18119 0.398627,-0.21743 0.724776,-0.61606 0.326149,-0.43487 0.471105,-0.83349 0.144955,-0.43487 0.144955,-0.8335 v -6.05188 q 0,-0.14495 -0.07248,-0.32615 -0.03624,-0.18119 -0.181194,-0.36238 -0.217433,-0.14496 -0.362388,-0.1812 -0.144955,-0.0725 -0.28991,-0.0725 H 80.30478 q -0.181194,0 -0.362388,0.0725 -0.181194,0.0725 -0.362388,0.21743 -0.108716,0.25368 -0.181194,0.43487 -0.07248,0.18119 -0.07248,0.28991 v 27.28783 q 0,0.18119 -0.07248,0.36239 -0.03624,0.14495 -0.144956,0.25367 -0.144955,0.14495 -0.326149,0.21743 -0.181194,0.0725 -0.398627,0.0725 h -3.442687 q -0.217433,0 -0.398627,-0.0725 -0.181194,-0.0725 -0.289911,-0.21743 -0.144955,-0.1812 -0.217433,-0.32615 -0.03624,-0.14496 -0.03624,-0.28991 v -31.49153 q 0,-0.14496 0.03624,-0.32615 0.07248,-0.1812 0.217433,-0.36239 0.108717,-0.14496 0.253672,-0.21743 0.181194,-0.10872 0.362388,-0.10872 h 16.271228 q 0.652299,0 1.123404,0.21743 0.507343,0.1812 0.833492,0.54359 0.398627,0.43486 0.579821,0.97844 0.181194,0.54359 0.181194,1.19588 v 8.26245 q 0,0.6523 -0.28991,1.3046 -0.289911,0.61606 -0.90597,1.23212 -0.61606,0.50735 -1.485792,1.12341 -0.869731,0.57982 -2.029374,1.30459 -0.90597,0.50735 -1.485791,0.86973 -0.579821,0.36239 -0.797254,0.54359 -0.144955,0.10871 -0.217433,0.25367 -0.03624,0.14495 -0.03624,0.28991 0,0.21743 0.07248,0.43486 0.108716,0.21744 0.28991,0.47111 l 7.827585,12.53863 q 0.03624,0.0362 0.07248,0.0725 0.03624,0.0362 0.07248,0.0362 0.144955,0.28991 0.181194,0.50734 0.07248,0.18119 0.07248,0.25367 z"
             style="font-style:normal;font-variant:normal;font-weight:normal;font-stretch:normal;font-size:37.10854721px;font-family:werbasinnotec;-inkscape-font-specification:werbasinnotec;stroke-width:0.27831408"
             id="path4684"
             inkscape:connector-curvature="0" />
        </g>
      </g>
    </g>
    <path
       inkscape:export-ydpi="219.64934"
       inkscape:export-xdpi="219.64934"
       style="opacity:1;fill:#000000;fill-opacity:1;stroke:none;stroke-width:1.21272039;stroke-miterlimit:4;stroke-dasharray:none;stroke-opacity:1"
       d="m -8.3131596,232.67531 h 5.3055636 v -18.31565 h 18.315661 v -5.30557 H -8.3131596 Z M 91.904718,214.35966 H 110.221 v 18.31565 h 5.30493 V 209.05409 H 91.904718 Z M -8.3131596,290.24317 H 15.308065 v -5.6258 H -3.007596 V 266.62195 H -8.3131596 Z M 110.221,284.61737 h -5.4547 -12.861582 v 5.6258 H 115.52593 V 266.62195 H 110.221 Z"
       id="rect4485"
       inkscape:connector-curvature="0"
       sodipodi:nodetypes="ccccccccccccccccccccccccccccc" />
  </g>
</svg>
