<?xml version="1.0" encoding="UTF-8" standalone="no"?>
<!-- Created with Inkscape (http://www.inkscape.org/) -->

<svg
   xmlns:dc="http://purl.org/dc/elements/1.1/"
   xmlns:cc="http://creativecommons.org/ns#"
   xmlns:rdf="http://www.w3.org/1999/02/22-rdf-syntax-ns#"
   xmlns:svg="http://www.w3.org/2000/svg"
   xmlns="http://www.w3.org/2000/svg"
   xmlns:sodipodi="http://sodipodi.sourceforge.net/DTD/sodipodi-0.dtd"
   xmlns:inkscape="http://www.inkscape.org/namespaces/inkscape"
   id="svg2"
   version="1.1"
   inkscape:version="0.48.4 r9939"
   width="100"
   height="100"
   sodipodi:docname="archive-man-beside-drawer.svg">
  <metadata
     id="metadata8">
    <rdf:RDF>
      <cc:Work
         rdf:about="">
        <dc:format>image/svg+xml</dc:format>
        <dc:type
           rdf:resource="http://purl.org/dc/dcmitype/StillImage" />
        <dc:title />
      </cc:Work>
    </rdf:RDF>
  </metadata>
  <defs
     id="defs6" />
  <sodipodi:namedview
     pagecolor="#ffffff"
     bordercolor="#666666"
     borderopacity="1"
     objecttolerance="10"
     gridtolerance="10"
     guidetolerance="10"
     inkscape:pageopacity="0"
     inkscape:pageshadow="2"
     inkscape:window-width="1920"
     inkscape:window-height="1058"
     id="namedview4"
     showgrid="false"
     inkscape:zoom="8"
     inkscape:cx="36.487088"
     inkscape:cy="50.294235"
     inkscape:window-x="-8"
     inkscape:window-y="-8"
     inkscape:window-maximized="1"
     inkscape:current-layer="svg2" />
  <path
     style="fill:#000000"
     d=""
     id="path3011"
     inkscape:connector-curvature="0" />
  <path
     style="fill:#000000"
     d=""
     id="path3009"
     inkscape:connector-curvature="0" />
  <path
     style="fill:#000000"
     d=""
     id="path2989"
     inkscape:connector-curvature="0" />
  <path
     style="fill:#000000"
     d=""
     id="path2987"
     inkscape:connector-curvature="0" />
  <path
     style="fill:#000000"
     d=""
     id="path3813"
     inkscape:connector-curvature="0" />
  <path
     style="fill:#000000"
     d="M 74.84375 0.0625 C 69.20009 0.0625 64.625 4.6375901 64.625 10.28125 C 64.625 15.92491 69.20009 20.5 74.84375 20.5 C 80.48741 20.5 85.0625 15.92491 85.0625 10.28125 C 85.0625 4.6375901 80.48741 0.0625 74.84375 0.0625 z M 47.71875 8.4375 C 46.038175 8.5918778 44.599977 9.7831016 44.1875 11.625 L 44.09375 12.125 L 24.5 12.15625 L 4.90625 12.1875 L 4.90625 55.8125 L 4.90625 99.46875 L 27.78125 99.46875 L 50.6875 99.46875 L 50.6875 61.5 L 50.6875 23.53125 L 52.3125 25.15625 C 55.51859 28.390658 57.911538 30.034393 61 31.09375 C 62.016686 31.442473 63.815077 31.83297 64.5625 31.84375 C 64.791847 55.335527 64.773481 70.433961 65.3125 95.25 L 65.75 96.15625 C 66.172321 97.056731 67.068263 98.067719 67.78125 98.4375 C 68.600763 98.862517 70.063032 99.025428 70.96875 98.8125 C 72.064357 98.554918 72.495594 98.359708 73.21875 97.65625 C 73.970332 96.925142 74.349141 96.122632 74.5625 94.96875 C 74.67801 94.344493 74.72521 89.014903 74.65625 77.90625 L 74.53125 61.78125 L 74.875 61.78125 C 75.295105 61.78125 75.250002 59.629552 75.375 79.5 C 75.476054 95.564885 75.46936 95.56902 75.8125 96.28125 C 76.795069 98.320612 79.243701 99.358157 81.5 98.6875 C 82.538366 98.378863 83.666754 97.404249 84.1875 96.34375 L 84.65625 95.40625 L 84.6875 76.3125 L 84.71875 57.1875 L 85.65625 57.65625 C 87.098877 58.387919 88.722973 58.214358 89.96875 57.1875 C 91.318081 56.075255 93.73441 50.311444 94.5 46.375 C 94.896027 44.340573 94.896955 40.517189 94.5 38.65625 C 93.466871 33.812968 90.816521 29.789898 86.3125 26.21875 C 83.805107 24.23068 80.745335 22.365054 78.84375 21.6875 L 77.75 21.3125 L 76.5 22.5625 L 75.21875 23.8125 L 73.96875 22.5625 L 72.6875 21.3125 L 71.78125 21.59375 C 71.280762 21.751506 70.205827 22.213606 69.375 22.625 C 67.054758 23.773944 66.877129 23.82759 65.3125 23.8125 C 64.063835 23.80103 63.765286 23.75062 62.8125 23.3125 C 59.151527 21.629015 55.098609 17.047332 51.78125 10.84375 C 51.154213 9.6711397 50.429898 8.9837445 49.46875 8.65625 C 48.880592 8.4558438 48.278942 8.3860407 47.71875 8.4375 z M 9.34375 15.84375 L 46.28125 15.84375 L 46.28125 94.78125 L 9.34375 94.78125 L 9.34375 15.84375 z M 11.5625 18.78125 L 11.5625 41.5625 L 43.75 41.5625 L 43.75 18.78125 L 11.5625 18.78125 z M 25.5625 20.78125 L 29.8125 20.78125 C 31.036679 20.78125 32 21.744571 32 22.96875 C 32 24.192929 31.036679 25.1875 29.8125 25.1875 L 25.5625 25.1875 C 24.338321 25.1875 23.375 24.192929 23.375 22.96875 C 23.375 21.744571 24.338321 20.78125 25.5625 20.78125 z M 75.21875 24.84375 C 75.23255 24.84105 75.23887 24.84485 75.25 24.875 C 75.32021 25.06476 75.570909 26.398645 75.78125 27.84375 C 75.991484 29.288834 76.404833 32.190681 76.71875 34.28125 C 77.717311 40.931399 77.713873 40.802572 77.34375 41.21875 C 77.167439 41.417023 76.711825 42.054234 76.3125 42.625 C 75.266245 44.12045 75.230896 44.11837 74.65625 43.34375 C 74.387849 42.981945 73.848872 42.239064 73.4375 41.6875 L 72.6875 40.6875 L 72.84375 39.84375 C 72.9283 39.393585 73.06035 38.497058 73.15625 37.84375 C 73.25211 37.190442 73.525737 35.261092 73.78125 33.5625 C 74.036763 31.863886 74.446168 29.134865 74.6875 27.5 C 74.955502 25.684499 75.122176 24.862644 75.21875 24.84375 z M 85.75 37.6875 C 85.913295 37.6875 86.719466 38.839933 87 39.96875 C 87.443936 41.755402 87.438482 44.147858 86.90625 46.25 C 86.67621 47.158605 85.93254 47.78621 85.84375 47.875 C 85.73405 47.984653 85.6875 46.392937 85.6875 42.875 C 85.6875 40.026577 85.70862 37.6875 85.75 37.6875 z M 11.5625 44 L 11.5625 66.78125 L 43.75 66.78125 L 43.75 44 L 11.5625 44 z M 25.5625 46 L 29.8125 46 C 31.036679 46 32 46.963321 32 48.1875 C 32 49.411679 31.036679 50.40625 29.8125 50.40625 L 25.5625 50.40625 C 24.338321 50.40625 23.375 49.411679 23.375 48.1875 C 23.375 46.963321 24.338321 46 25.5625 46 z M 11.5625 69.25 L 11.5625 92 L 43.75 92 L 43.75 69.25 L 11.5625 69.25 z M 25.5625 71.25 L 29.8125 71.25 C 31.036679 71.25 32 72.213321 32 73.4375 C 32 74.661679 31.036679 75.625 29.8125 75.625 L 25.5625 75.625 C 24.338321 75.625 23.375 74.661679 23.375 73.4375 C 23.375 72.213321 24.338321 71.25 25.5625 71.25 z "
     id="path4803" />
</svg>
