<?xml version="1.0" encoding="UTF-8" standalone="no"?>
<!-- Created with Inkscape (http://www.inkscape.org/) -->

<svg
   xmlns:dc="http://purl.org/dc/elements/1.1/"
   xmlns:cc="http://creativecommons.org/ns#"
   xmlns:rdf="http://www.w3.org/1999/02/22-rdf-syntax-ns#"
   xmlns:svg="http://www.w3.org/2000/svg"
   xmlns="http://www.w3.org/2000/svg"
   xmlns:sodipodi="http://sodipodi.sourceforge.net/DTD/sodipodi-0.dtd"
   xmlns:inkscape="http://www.inkscape.org/namespaces/inkscape"
   id="svg2"
   version="1.1"
   inkscape:version="0.48.4 r9939"
   width="100"
   height="100"
   sodipodi:docname="archive-folders.svg">
  <metadata
     id="metadata8">
    <rdf:RDF>
      <cc:Work
         rdf:about="">
        <dc:format>image/svg+xml</dc:format>
        <dc:type
           rdf:resource="http://purl.org/dc/dcmitype/StillImage" />
        <dc:title></dc:title>
      </cc:Work>
    </rdf:RDF>
  </metadata>
  <defs
     id="defs6" />
  <sodipodi:namedview
     pagecolor="#ffffff"
     bordercolor="#666666"
     borderopacity="1"
     objecttolerance="10"
     gridtolerance="10"
     guidetolerance="10"
     inkscape:pageopacity="0"
     inkscape:pageshadow="2"
     inkscape:window-width="1920"
     inkscape:window-height="1058"
     id="namedview4"
     showgrid="false"
     inkscape:zoom="4"
     inkscape:cx="8.7674703"
     inkscape:cy="36.716651"
     inkscape:window-x="-8"
     inkscape:window-y="-8"
     inkscape:window-maximized="1"
     inkscape:current-layer="svg2" />
  <path
     style="fill:#000000"
     d=""
     id="path3011"
     inkscape:connector-curvature="0" />
  <path
     style="fill:#000000"
     d=""
     id="path3009"
     inkscape:connector-curvature="0" />
  <path
     style="fill:#000000"
     d=""
     id="path2989"
     inkscape:connector-curvature="0" />
  <path
     style="fill:#000000"
     d=""
     id="path2987"
     inkscape:connector-curvature="0" />
  <path
     style="fill:#000000"
     d=""
     id="path3813"
     inkscape:connector-curvature="0" />
  <path
     style="fill:#000000"
     d="M 73.25 6.59375 C 72.880095 6.632987 68.622405 7.8525346 63.78125 9.3125 L 54.96875 11.96875 L 54.46875 12.625 C 54.1869 12.984418 53.87292 13.667905 53.78125 14.15625 C 53.616448 15.034509 53.752983 15.471074 65.15625 54.03125 L 76.6875 93 L 77.3125 93.53125 C 77.951927 94.032676 78.89015 94.29287 79.96875 94.3125 C 80.267196 94.317841 84.350089 93.181173 89.03125 91.78125 C 98.604874 88.918051 98.203099 89.119486 99.03125 87.125 L 99.4375 86.15625 L 88.0625 47.3125 C 76.855304 9.0447317 76.667014 8.4823832 76.0625 7.84375 C 75.285918 7.0233061 74.116964 6.501613 73.25 6.59375 z M 12.21875 8.0625 L 3.03125 8.125 L 2.34375 8.625 C 1.9718953 8.8902259 1.4758054 9.4636489 1.25 9.90625 C 0.84395441 10.702255 0.8530909 11.13282 0.90625 51.34375 L 0.96875 92 L 1.4375 92.6875 C 1.9093559 93.349055 2.7208194 93.864161 3.75 94.1875 C 4.0347981 94.276907 8.2702907 94.3339 13.15625 94.3125 C 23.14876 94.268575 22.704958 94.335801 24.0625 92.65625 L 24.71875 91.875 L 24.78125 51.375 C 24.833633 11.499938 24.805875 10.90832 24.40625 10.125 C 23.892885 9.1186885 22.951458 8.2813706 22.09375 8.125 C 21.727815 8.05821 17.275146 8.028671 12.21875 8.0625 z M 39.15625 8.0625 L 29.96875 8.125 L 29.28125 8.625 C 28.909395 8.890226 28.413306 9.4636481 28.1875 9.90625 C 27.781454 10.702255 27.79059 11.132819 27.84375 51.34375 L 27.90625 92 L 28.375 92.6875 C 28.846856 93.349055 29.658319 93.864161 30.6875 94.1875 C 30.972298 94.276907 35.207792 94.3339 40.09375 94.3125 C 50.08626 94.268575 49.642458 94.335801 51 92.65625 L 51.65625 91.875 L 51.71875 51.375 C 51.771133 11.499937 51.743375 10.90832 51.34375 10.125 C 50.830385 9.1186894 49.857708 8.281371 49 8.125 C 48.634065 8.05821 44.212646 8.02867 39.15625 8.0625 z M 74.78125 19.59375 L 75.40625 19.9375 L 76.0625 20.28125 L 81.40625 38.5 L 86.65625 56.375 C 86.304796 57.088517 86.225837 57.318336 85.84375 58.125 L 79.375 60 C 75.228881 61.214644 72.65625 61.9375 72.65625 61.9375 C 72.189694 61.550922 71.61012 61.252338 71.21875 60.96875 C 71.051022 60.457628 69.236675 54.913534 65.65625 42.59375 L 60.5 24.90625 L 60.84375 24.25 L 61.15625 23.59375 L 67.96875 21.59375 L 74.78125 19.59375 z M 5.6875 21.03125 L 12.78125 21.03125 L 19.875 21.03125 L 20.375 21.5625 L 20.90625 22.0625 L 20.90625 41.0625 L 20.90625 59.6875 C 20.367655 60.27277 20.21928 60.45902 19.625 61.125 L 12.875 61.125 C 8.5546255 61.11971 5.875 61.0625 5.875 61.0625 C 5.5365612 60.559931 5.0766368 60.101293 4.78125 59.71875 C 4.7646436 59.181067 4.581679 53.360694 4.625 40.53125 L 4.6875 22.125 L 5.1875 21.5625 L 5.6875 21.03125 z M 32.625 21.03125 L 39.71875 21.03125 L 46.8125 21.03125 L 47.3125 21.5625 L 47.84375 22.0625 L 47.84375 41.0625 L 47.84375 59.6875 C 47.305155 60.27277 47.15678 60.45902 46.5625 61.125 L 39.8125 61.125 C 35.492127 61.11971 32.8125 61.0625 32.8125 61.0625 C 32.474061 60.559931 32.014137 60.101293 31.71875 59.71875 C 31.702143 59.181067 31.51918 53.360694 31.5625 40.53125 L 31.625 22.125 L 32.125 21.5625 L 32.625 21.03125 z M 79.5625 44.6875 L 75.09375 46 L 70.65625 47.3125 L 70.9375 48.28125 L 71.21875 49.28125 L 75.6875 47.96875 L 80.15625 46.65625 L 79.875 45.65625 L 79.5625 44.6875 z M 8.09375 46.46875 L 8.09375 47.5 L 8.09375 48.53125 L 12.75 48.53125 L 17.375 48.53125 L 17.375 47.5 L 17.375 46.46875 L 12.75 46.46875 L 8.09375 46.46875 z M 35.03125 46.46875 L 35.03125 47.5 L 35.03125 48.53125 L 39.6875 48.53125 L 44.3125 48.53125 L 44.3125 47.5 L 44.3125 46.46875 L 39.6875 46.46875 L 35.03125 46.46875 z M 80.625 48.25 L 76.15625 49.5625 L 71.6875 50.875 L 71.96875 51.75 L 72.21875 52.65625 L 76.6875 51.34375 L 81.15625 50.03125 L 80.875 49.125 L 80.625 48.25 z M 8.09375 50.1875 L 8.09375 51.09375 L 8.09375 52.03125 L 12.75 52.03125 L 17.375 52.03125 L 17.375 51.09375 L 17.375 50.1875 L 12.75 50.1875 L 8.09375 50.1875 z M 35.03125 50.1875 L 35.03125 51.09375 L 35.03125 52.03125 L 39.6875 52.03125 L 44.3125 52.03125 L 44.3125 51.09375 L 44.3125 50.1875 L 39.6875 50.1875 L 35.03125 50.1875 z M 81.625 51.625 L 77.15625 52.9375 L 72.6875 54.25 L 72.96875 55.21875 L 73.28125 56.21875 L 77.71875 54.90625 L 82.1875 53.59375 L 81.90625 52.59375 L 81.625 51.625 z M 8.09375 53.6875 L 8.09375 54.71875 L 8.09375 55.75 L 12.75 55.75 L 17.375 55.75 L 17.375 54.71875 L 17.375 53.6875 L 12.75 53.6875 L 8.09375 53.6875 z M 35.03125 53.6875 L 35.03125 54.71875 L 35.03125 55.75 L 39.6875 55.75 L 44.3125 55.75 L 44.3125 54.71875 L 44.3125 53.6875 L 39.6875 53.6875 L 35.03125 53.6875 z M 83.21875 68.84375 C 84.462249 68.754195 85.747458 69.061217 86.9375 69.78125 C 90.588526 71.990278 91.0322 76.748487 87.875 79.6875 C 87.023928 80.479774 86.613641 80.727099 85.53125 81.03125 C 83.77027 81.526656 82.639453 81.410324 81.03125 80.625 C 78.396327 79.338338 77.127385 76.877147 77.625 74 C 77.912396 72.338304 78.417286 71.443212 79.75 70.28125 C 80.757338 69.402972 81.975251 68.933305 83.21875 68.84375 z M 83.4375 70.4375 C 83.123704 70.473065 82.795029 70.556317 82.46875 70.65625 C 79.76327 71.484936 78.575743 73.681006 79.34375 76.40625 C 79.643561 77.470129 79.836892 77.815876 80.5 78.4375 C 81.329775 79.215375 82.157608 79.587016 83.3125 79.6875 C 84.267497 79.770523 85.967906 79.234541 86.71875 78.625 C 88.116687 77.490135 88.667986 75.675955 88.15625 73.90625 C 87.461877 71.508725 85.63407 70.188545 83.4375 70.4375 z M 13.125 70.53125 C 14.679783 70.612639 16.202059 71.341609 17.375 72.625 C 20.253858 75.774917 19.327254 80.478128 15.46875 82.40625 C 14.428626 82.926022 13.967978 83.0138 12.84375 83 C 11.014543 82.978097 9.9460717 82.551152 8.625 81.34375 C 6.4605104 79.365542 5.9603571 76.682121 7.25 74.0625 C 7.9948312 72.549537 8.7372066 71.832195 10.34375 71.09375 C 11.254485 70.675129 12.19213 70.482417 13.125 70.53125 z M 40.0625 70.53125 C 41.617283 70.612639 43.139559 71.341609 44.3125 72.625 C 47.191358 75.774917 46.264754 80.478128 42.40625 82.40625 C 41.366126 82.926022 40.905478 83.0138 39.78125 83 C 37.952043 82.978097 36.883572 82.551152 35.5625 81.34375 C 33.39801 79.365542 32.897857 76.682121 34.1875 74.0625 C 34.932331 72.549537 35.674707 71.832195 37.28125 71.09375 C 38.191985 70.675129 39.12963 70.482417 40.0625 70.53125 z M 12.84375 72.1875 C 10.014374 72.21867 8.25137 73.981295 8.21875 76.8125 C 8.2060125 77.917744 8.2893623 78.341456 8.75 79.125 C 9.326413 80.105492 10.014206 80.671307 11.09375 81.09375 C 11.98646 81.443008 13.763866 81.435269 14.65625 81.0625 C 16.317713 80.368463 17.3663 78.748437 17.375 76.90625 C 17.387272 74.053644 15.573505 72.15747 12.84375 72.1875 z M 39.78125 72.1875 C 36.951875 72.21867 35.18887 73.981295 35.15625 76.8125 C 35.143512 77.917744 35.226862 78.341456 35.6875 79.125 C 36.263913 80.105492 36.951707 80.671307 38.03125 81.09375 C 38.92396 81.443008 40.701366 81.435269 41.59375 81.0625 C 43.255213 80.368463 44.3038 78.748437 44.3125 76.90625 C 44.324772 74.053644 42.511005 72.15747 39.78125 72.1875 z "
     id="path3858" />
</svg>
