<?xml version="1.0" encoding="UTF-8" standalone="no"?>
<svg
   xmlns:dc="http://purl.org/dc/elements/1.1/"
   xmlns:cc="http://creativecommons.org/ns#"
   xmlns:rdf="http://www.w3.org/1999/02/22-rdf-syntax-ns#"
   xmlns:svg="http://www.w3.org/2000/svg"
   xmlns="http://www.w3.org/2000/svg"
   xmlns:sodipodi="http://sodipodi.sourceforge.net/DTD/sodipodi-0.dtd"
   xmlns:inkscape="http://www.inkscape.org/namespaces/inkscape"
   version="1.1"
   viewBox="0 0 100 100"
   id="svg2"
   inkscape:version="0.48.4 r9939"
   width="100%"
   height="100%"
   sodipodi:docname="arrow-left-dot.svg">
  <metadata
     id="metadata51">
    <rdf:RDF>
      <cc:Work
         rdf:about="">
        <dc:format>image/svg+xml</dc:format>
        <dc:type
           rdf:resource="http://purl.org/dc/dcmitype/StillImage" />
        <dc:title>remember-me-active</dc:title>
      </cc:Work>
    </rdf:RDF>
  </metadata>
  <defs
     id="defs49" />
  <sodipodi:namedview
     pagecolor="#ffffff"
     bordercolor="#666666"
     borderopacity="1"
     objecttolerance="10"
     gridtolerance="10"
     guidetolerance="10"
     inkscape:pageopacity="0"
     inkscape:pageshadow="2"
     inkscape:window-width="1920"
     inkscape:window-height="1018"
     id="namedview47"
     showgrid="false"
     inkscape:zoom="0.70710678"
     inkscape:cx="-97.732016"
     inkscape:cy="-103.55476"
     inkscape:window-x="1912"
     inkscape:window-y="-8"
     inkscape:window-maximized="1"
     inkscape:current-layer="svg2"
     inkscape:snap-bbox="true"
     fit-margin-top="0"
     fit-margin-left="0"
     fit-margin-right="0"
     fit-margin-bottom="0"
     units="pc"
     showborder="true"
     inkscape:showpageshadow="false" />
  <title
     id="title3003">remember-me-active</title>
  <path
     style="fill:#000000"
     d="m 68.21875,1.4375 c -0.813546,0.017108 -1.870008,0.1211977 -2.625,0.78125 -0.07605,0.066338 -0.143843,0.1218075 -0.21875,0.1875 -1.10357,0.6893533 -1.955369,1.6191833 -2.84375,2.40625 -0.754985,0.7389072 -1.906866,1.8895513 -3,2.96875 -0.47337,0.4425201 -0.88799,0.8357752 -1.40625,1.3125 -3.560175,3.496413 -8.202797,8.078128 -12.84375,12.6875 -4.640953,4.609372 -9.278965,9.249316 -12.84375,12.84375 -1.891968,1.9542 -4.029649,4.020916 -5.78125,5.9375 -0.295954,0.32383 -0.605853,0.655599 -0.875,0.96875 -0.236837,0.269758 -0.478422,0.547851 -0.6875,0.84375 -0.0131,0.01882 -0.01826,0.0436 -0.03125,0.0625 -0.194086,0.278499 -0.361843,0.576533 -0.53125,0.875 -0.02283,0.04039 -0.04014,0.08435 -0.0625,0.125 -0.159128,0.288526 -0.301371,0.57087 -0.4375,0.875 -0.06527,0.144994 -0.127717,0.29007 -0.1875,0.4375 -0.10818,0.268578 -0.221796,0.534737 -0.3125,0.8125 -0.09044,0.276959 -0.17711,0.55917 -0.25,0.84375 -0.02399,0.09264 -0.04044,0.18809 -0.0625,0.28125 C 23.13017,47.065565 23.05761,47.456323 23,47.84375 22.95573,48.141473 22.93202,48.448554 22.90625,48.75 22.88364,49.011698 22.88348,49.269019 22.875,49.53125 22.87,49.688383 22.84372,49.842551 22.84375,50 c -2.7e-5,0.157449 0.02623,0.311617 0.03125,0.46875 0.0085,0.262231 0.0086,0.519552 0.03125,0.78125 0.0018,0.02073 -0.0019,0.04179 0,0.0625 0.02564,0.28261 0.05146,0.563075 0.09375,0.84375 0.05761,0.387427 0.130168,0.778185 0.21875,1.15625 0.02171,0.09266 0.03894,0.189282 0.0625,0.28125 0.07289,0.280866 0.159239,0.537284 0.25,0.8125 0.109682,0.33647 0.239711,0.67722 0.375,1 0.01812,0.04277 0.04391,0.08244 0.0625,0.125 0.02531,0.05859 0.03635,0.129431 0.0625,0.1875 0.128263,0.281912 0.28827,0.572433 0.4375,0.84375 0.02273,0.04121 0.03931,0.08414 0.0625,0.125 0.16722,0.295645 0.338523,0.563263 0.53125,0.84375 0.22484,0.324348 0.461016,0.64394 0.71875,0.9375 0.387425,0.454429 0.522944,0.591577 0.875,0.96875 0.0078,0.0084 0.02332,0.02277 0.03125,0.03125 0.427529,0.466749 0.87794,0.924647 1.34375,1.40625 1.434914,1.483565 2.988711,3.035834 4.40625,4.5 3.564785,3.594435 8.202797,8.234378 12.84375,12.84375 4.640953,4.609372 9.283575,9.191086 12.84375,12.6875 0.51826,0.476725 0.93288,0.86998 1.40625,1.3125 1.093134,1.079199 2.245015,2.229843 3,2.96875 0.879869,0.779526 1.724257,1.687649 2.8125,2.375 0.08618,0.07564 0.162303,0.142253 0.25,0.21875 0.754992,0.660052 1.811454,0.764142 2.625,0.78125 0.0594,0.0012 0.131152,-4.88e-4 0.1875,0 0.159348,-0.0034 0.312758,-0.01558 0.46875,-0.03125 C 71.971578,98.333879 74.1875,96.177599 74.1875,93 74.316877,89.598146 69.30479,85.975516 66.03125,82.78125 62.605202,79.426122 57.979013,74.835224 52.96875,69.8125 50.20694,67.043817 48.601596,65.408375 46.5625,63.34375 46.158064,62.932071 45.879772,62.669009 45.5,62.28125 44.349552,61.113512 42.647277,59.360091 41.71875,58.40625 38.985066,55.57408 37.17897,53.624442 36,52.28125 35.319526,51.537989 34.8929,50.979479 34.71875,50.46875 34.673503,50.30982 34.620307,50.155154 34.625,50 34.6203,49.844846 34.6735,49.69018 34.71875,49.53125 34.8929,49.020521 35.319526,48.462011 36,47.71875 c 1.17897,-1.343192 2.985066,-3.29283 5.71875,-6.125 0.0044,-0.0046 -0.0044,-0.02668 0,-0.03125 0.923759,-0.948849 2.638434,-2.68376 3.78125,-3.84375 2.12374,-2.168402 4.521592,-4.562433 7.46875,-7.53125 0.0055,-0.0055 -0.0055,-0.02574 0,-0.03125 2.392483,-2.37752 4.757146,-4.735424 7.125,-7.09375 0.621645,-0.61711 1.068178,-1.074327 1.65625,-1.65625 1.5036,-1.487878 3.049842,-2.981582 4.28125,-4.1875 C 69.30479,14.024484 74.316878,10.401855 74.1875,7 74.1875,3.8224007 71.971578,1.6661205 68.875,1.46875 68.677556,1.4489133 68.483968,1.4375 68.28125,1.4375 c -0.02131,0.0017 -0.04135,-0.00189 -0.0625,0 z"
     id="path3819-4-9"
     inkscape:connector-curvature="0" />
</svg>
