<?xml version="1.0" encoding="UTF-8" standalone="no"?>
<!-- Created with Inkscape (http://www.inkscape.org/) -->

<svg
   xmlns:dc="http://purl.org/dc/elements/1.1/"
   xmlns:cc="http://creativecommons.org/ns#"
   xmlns:rdf="http://www.w3.org/1999/02/22-rdf-syntax-ns#"
   xmlns:svg="http://www.w3.org/2000/svg"
   xmlns="http://www.w3.org/2000/svg"
   xmlns:sodipodi="http://sodipodi.sourceforge.net/DTD/sodipodi-0.dtd"
   xmlns:inkscape="http://www.inkscape.org/namespaces/inkscape"
   id="svg2"
   version="1.1"
   inkscape:version="0.48.4 r9939"
   width="100"
   height="100"
   sodipodi:docname="axle.png">
  <metadata
     id="metadata8">
    <rdf:RDF>
      <cc:Work
         rdf:about="">
        <dc:format>image/svg+xml</dc:format>
        <dc:type
           rdf:resource="http://purl.org/dc/dcmitype/StillImage" />
        <dc:title></dc:title>
      </cc:Work>
    </rdf:RDF>
  </metadata>
  <defs
     id="defs6" />
  <sodipodi:namedview
     pagecolor="#ffffff"
     bordercolor="#666666"
     borderopacity="1"
     objecttolerance="10"
     gridtolerance="10"
     guidetolerance="10"
     inkscape:pageopacity="0"
     inkscape:pageshadow="2"
     inkscape:window-width="1920"
     inkscape:window-height="1058"
     id="namedview4"
     showgrid="false"
     inkscape:zoom="7.375"
     inkscape:cx="35.601354"
     inkscape:cy="44.763338"
     inkscape:window-x="-8"
     inkscape:window-y="-8"
     inkscape:window-maximized="1"
     inkscape:current-layer="svg2" />
  <path
     style="fill:#000000"
     d="m 11.68156,29.079756 c -4.1740468,0 -6.0696344,0.0669 -6.428612,0.23046 -1.0358459,0.47196 -1.0613274,0.68461 -1.0613274,8.599784 l 0,7.295869 -0.6913791,0.291107 c -1.0327427,0.431508 -2.4098863,1.795446 -2.92319906,2.892875 -0.3491886,0.746543 -0.45485461,1.306079 -0.45485461,2.425891 0,2.379235 1.04145057,4.100048 3.12333507,5.15502 l 0.9460977,0.479114 0.00607,7.320127 c 0.00736,7.829529 0.027925,7.976378 0.9885507,8.508813 0.7093132,0.39315 12.0033863,0.382365 12.7662533,-0.01213 1.151437,-0.595432 1.182623,-0.8314 1.182623,-9.497365 l 0,-7.878082 10.570821,0 6.088987,0 c 1.75495,6.118044 7.357622,10.59508 14.009523,10.59508 6.647807,0 12.256973,-4.470696 14.015587,-10.58295 l 6.01621,-0.006 10.625405,-0.006 0,7.878082 c 0,6.881596 0.03901,7.962837 0.315365,8.545202 0.593065,1.249785 0.514757,1.237205 7.095733,1.237205 4.210507,0 6.111808,-0.06677 6.471065,-0.23046 1.035442,-0.471778 1.061327,-0.685094 1.061327,-8.56946 l 0,-7.27161 1.031004,-0.582214 c 1.185484,-0.669045 2.165852,-1.704967 2.680607,-2.838293 0.548322,-1.207219 0.496184,-3.424532 -0.109158,-4.669841 -0.71657,-1.474103 -1.941573,-2.631184 -3.080886,-2.917134 l -0.521567,-0.133424 0,-7.368645 c 0,-7.663553 -0.02304,-7.876103 -0.849062,-8.545202 -0.372376,-0.301637 -1.027571,-0.335744 -6.531713,-0.339625 -5.347182,-0.0037 -6.173238,0.03273 -6.5681,0.309301 -0.95438,0.668475 -0.994615,1.038703 -0.994615,9.479171 l 0,7.865952 -10.637534,0 -6.004081,0 c -1.759348,-6.111096 -7.3686,-10.576886 -14.015587,-10.576886 -6.646988,0 -12.250175,4.46579 -14.009523,10.576886 l -6.034405,0 -10.625403,0 0,-7.865952 c 0,-8.503016 -0.03023,-8.811308 -1.031005,-9.467041 -0.447757,-0.293382 -1.174573,-0.327496 -6.422547,-0.327496 z m -3.6449017,2.989912 7.4474867,0 c 1.081584,0 1.952843,0.871257 1.952843,1.952842 l 0,33.604659 c 0,1.081586 -0.871259,1.952843 -1.952843,1.952843 l -7.4474867,0 c -1.0815842,0 -1.9528426,-0.871257 -1.9528426,-1.952843 l 0,-33.604659 c 0,-1.081585 0.8712584,-1.952842 1.9528426,-1.952842 z m 76.3124777,0 7.447485,0 c 1.081585,0 1.952843,0.871257 1.952843,1.952842 l 0,33.604659 c 0,1.081586 -0.871258,1.952843 -1.952843,1.952843 l -7.447485,0 c -1.081585,0 -1.952843,-0.871257 -1.952843,-1.952843 l 0,-33.604659 c 0,-1.081585 0.871258,-1.952842 1.952843,-1.952842 z"
     id="path2998"
     inkscape:connector-curvature="0" />
</svg>
