<?xml version="1.0" encoding="UTF-8" standalone="no"?>
<!-- Created with Inkscape (http://www.inkscape.org/) -->

<svg
   xmlns:dc="http://purl.org/dc/elements/1.1/"
   xmlns:cc="http://creativecommons.org/ns#"
   xmlns:rdf="http://www.w3.org/1999/02/22-rdf-syntax-ns#"
   xmlns:svg="http://www.w3.org/2000/svg"
   xmlns="http://www.w3.org/2000/svg"
   xmlns:sodipodi="http://sodipodi.sourceforge.net/DTD/sodipodi-0.dtd"
   xmlns:inkscape="http://www.inkscape.org/namespaces/inkscape"
   id="svg2"
   version="1.1"
   inkscape:version="0.48.4 r9939"
   width="100"
   height="100"
   sodipodi:docname="goods-receiption-warehouse.svg">
  <metadata
     id="metadata8">
    <rdf:RDF>
      <cc:Work
         rdf:about="">
        <dc:format>image/svg+xml</dc:format>
        <dc:type
           rdf:resource="http://purl.org/dc/dcmitype/StillImage" />
        <dc:title></dc:title>
      </cc:Work>
    </rdf:RDF>
  </metadata>
  <defs
     id="defs6" />
  <sodipodi:namedview
     pagecolor="#ffffff"
     bordercolor="#666666"
     borderopacity="1"
     objecttolerance="10"
     gridtolerance="10"
     guidetolerance="10"
     inkscape:pageopacity="0"
     inkscape:pageshadow="2"
     inkscape:window-width="1920"
     inkscape:window-height="1058"
     id="namedview4"
     showgrid="false"
     inkscape:zoom="1.4142136"
     inkscape:cx="33.968127"
     inkscape:cy="-185.92038"
     inkscape:window-x="-8"
     inkscape:window-y="-8"
     inkscape:window-maximized="1"
     inkscape:current-layer="svg2" />
  <path
     style="fill:#000000"
     d=""
     id="path3011"
     inkscape:connector-curvature="0" />
  <path
     style="fill:#000000"
     d=""
     id="path3009"
     inkscape:connector-curvature="0" />
  <path
     style="fill:#000000"
     d=""
     id="path2989"
     inkscape:connector-curvature="0" />
  <path
     style="fill:#000000"
     d=""
     id="path2987"
     inkscape:connector-curvature="0" />
  <path
     style="fill:#000000"
     d=""
     id="path3813"
     inkscape:connector-curvature="0" />
  <path
     style="fill:#000000"
     d="m 74.092971,99.030749 c -4.667992,-0.676325 -7.68075,-1.963103 -9.798297,-4.184941 -1.670574,-1.752848 -2.379817,-3.590756 -1.921528,-4.979384 0.122369,-0.370768 0.947467,-1.694735 1.833563,-2.942153 3.027359,-4.261835 3.93475,-6.217986 3.93475,-8.4825 0,-1.942737 -0.557413,-3.474836 -2.325201,-6.391031 C 63.739152,68.624299 63.481239,68.090761 59.985016,59.98782 57.133428,53.378878 55.254768,49.334376 54.606842,48.409339 54.426101,48.1513 53.843333,47.870275 53.023808,47.64597 c -1.676227,-0.458781 -2.160932,-0.905667 -2.160932,-1.992339 0,-0.743288 -0.05334,-0.839593 -0.527952,-0.953397 -1.948071,-0.467106 -2.162658,-0.995363 -2.369085,-5.832238 -0.215409,-5.047275 -0.72949,-6.843204 -2.730771,-9.539784 -1.455742,-1.961504 -3.098382,-3.081319 -5.841651,-3.982348 l -1.006322,-0.330528 -1.105506,0.542852 c -1.06478,0.522864 -1.208046,0.542321 -3.889275,0.528211 C 28.424162,26.060262 18.935339,24.279259 16.1507,22.850244 12.190118,20.817757 8.41685,15.144687 8.896812,11.94409 9.109342,10.526824 10.081235,9.1294068 11.410124,8.330367 16.478017,5.2831192 24.713795,2.960784 34.160254,1.9152552 37.957278,1.4949977 46.700271,1.0537109 51.246846,1.0528285 c 4.7614,-6.633e-4 14.714058,0.4673515 18.172548,0.8550166 6.97744,0.7820967 11.491151,2.1235107 12.400911,3.6853757 0.584592,1.0036291 1.103834,2.6821645 1.3347,4.3146672 0.550627,3.8936 -1.045827,7.500046 -4.284987,9.679945 -2.050193,1.379744 -2.341043,2.00696 -2.219052,4.785355 0.114614,2.610452 0.335171,3.465675 4.257987,16.510644 7.16918,23.840452 10.078629,35.193751 10.078629,39.329011 0,1.851381 -0.515852,4.896805 -1.166936,6.88921 -2.071574,6.339253 -6.387448,10.938382 -11.216044,11.952154 -1.578761,0.331469 -2.079932,0.328862 -4.511631,-0.02348 z M 34.253533,21.557251 c 0.507255,-0.399009 0.525326,-0.472128 0.438839,-1.775854 -0.152579,-2.299913 -2.237753,-6.446577 -3.866348,-7.688767 -1.399699,-1.067607 -5.151089,-1.651164 -11.256571,-1.751051 -7.04559,-0.115264 -8.44525,0.259757 -8.180431,2.191833 0.246051,1.795126 2.484719,5.092658 4.661918,6.866934 0.589966,0.480785 1.408297,0.9272 2.015836,1.099668 1.407414,0.399553 4.69061,0.837357 8.126134,1.083607 1.583869,0.113526 3.182135,0.233838 3.551702,0.267366 0.369575,0.0335 1.416231,0.07478 2.325918,0.09167 1.433565,0.0266 1.724468,-0.02474 2.183003,-0.385406 z"
     id="path4662"
     inkscape:connector-curvature="0"
     sodipodi:nodetypes="cscssssssssssscsssssscssssssssscccssssscsccc" />
  <path
     id="rect4664-7-5-1"
     style="fill:#000000;fill-opacity:1;stroke:none"
     d="m 34.096511,57.979726 1.69784,0 0,31.937184 -1.69784,0 z m -5.302964,0 2.932631,0 0,31.937184 -2.932631,0 z m -7.151504,0 1.697839,0 0,31.937184 -1.697839,0 z m 4.810543,0 1.697839,0 0,31.937184 -1.697839,0 z m -10.238482,0 2.932631,0 0,31.937184 -2.932631,0 z m -2.804011,0 1.697839,0 0,31.937184 -1.697839,0 z m 25.364692,0 6.173961,0 0,31.937184 -6.173961,0 z m -33.8024367,0 6.1739607,0 0,31.937184 -6.1739607,0 z"
     inkscape:connector-curvature="0" />
</svg>
