<?xml version="1.0" encoding="UTF-8" standalone="no"?>
<!-- Created with Inkscape (http://www.inkscape.org/) -->

<svg
   xmlns:dc="http://purl.org/dc/elements/1.1/"
   xmlns:cc="http://creativecommons.org/ns#"
   xmlns:rdf="http://www.w3.org/1999/02/22-rdf-syntax-ns#"
   xmlns:svg="http://www.w3.org/2000/svg"
   xmlns="http://www.w3.org/2000/svg"
   xmlns:sodipodi="http://sodipodi.sourceforge.net/DTD/sodipodi-0.dtd"
   xmlns:inkscape="http://www.inkscape.org/namespaces/inkscape"
   id="svg2"
   version="1.1"
   inkscape:version="0.48.4 r9939"
   width="100"
   height="100"
   sodipodi:docname="hazard-triangle.svg">
  <metadata
     id="metadata8">
    <rdf:RDF>
      <cc:Work
         rdf:about="">
        <dc:format>image/svg+xml</dc:format>
        <dc:type
           rdf:resource="http://purl.org/dc/dcmitype/StillImage" />
        <dc:title></dc:title>
      </cc:Work>
    </rdf:RDF>
  </metadata>
  <defs
     id="defs6" />
  <sodipodi:namedview
     pagecolor="#ffffff"
     bordercolor="#666666"
     borderopacity="1"
     objecttolerance="10"
     gridtolerance="10"
     guidetolerance="10"
     inkscape:pageopacity="0"
     inkscape:pageshadow="2"
     inkscape:window-width="1920"
     inkscape:window-height="1058"
     id="namedview4"
     showgrid="false"
     inkscape:zoom="2.3177389"
     inkscape:cx="176.41861"
     inkscape:cy="15.112205"
     inkscape:window-x="-8"
     inkscape:window-y="-8"
     inkscape:window-maximized="1"
     inkscape:current-layer="svg2" />
  <path
     style="fill:#000000"
     d="M 75.387644,96.767842 C 73.317636,95.139573 70.229135,93.538727 68.52431,93.210408 65.721547,92.670646 52.333432,71.720151 52.053313,67.435643 c -0.05665,-0.86639 3.286154,-3.478698 7.428441,-5.805129 l 7.531433,-4.229874 6.644244,12.301417 c 3.768419,6.977002 6.644244,14.432797 6.644244,17.225713 0,4.088226 0.615142,4.924294 3.623082,4.924294 4.060506,0 7.153929,-2.69151 7.403689,-5.939286 C 91.544173,83.107549 86.929612,75.829263 81.55326,66.143352 71.198543,47.488535 69.672159,40.867959 73.903266,32.962063 c 2.673776,-4.995996 7.144614,-8.067481 13.903965,-9.552083 4.865145,-1.068565 5.096468,-0.903945 5.096468,3.626916 0,3.959337 -0.692423,4.828933 -4.176158,5.244735 -2.358685,0.28152 -5.615065,2.442895 -7.482452,4.966367 -5.870255,6.193619 2.513754,16.633257 6.949141,25.069387 5.848127,11.123169 10.589761,18.272525 10.68689,23.571047 0.09144,4.987929 -3.722379,11.666716 -6.835622,12.86138 -4.941599,1.896268 -12.93683,0.944987 -16.657854,-1.98197 z M 2.6399695,90.623025 C -1.2310526,86.345596 -0.79156175,84.13108 6.7174111,70.077536 l 6.7536419,-12.639894 7.423635,4.082454 c 4.083001,2.245349 7.423637,4.855765 7.423637,5.800923 0,0.94516 -3.012672,7.028516 -6.694826,13.518571 C 15.817134,91.073716 14.290843,92.702098 10.122421,93.109942 6.966487,93.418723 4.3972446,92.564792 2.6399695,90.623025 z M 23.391773,57.56345 l -7.289431,-4.305085 3.8552,-8.663891 C 22.077903,39.829333 25.581857,29.550807 27.744107,21.753305 32.579918,4.3144142 34.096202,0.48738888 36.16975,0.48738888 c 0.86782,0 1.521506,3.15912992 1.288562,13.06002012 -0.01728,0.734482 -1.859474,1.775539 -1.886526,4.320864 -0.02723,2.562111 1.836693,3.870624 1.813174,5.001311 0.279698,6.761678 -0.480721,14.969394 0.09033,18.55638 0.197988,1.243647 1.231181,1.171417 3.27283,1.25331 3.231252,0.01209 3.537724,0.756931 2.974013,-10.450497 -0.306455,-6.092785 -0.116912,-7.535924 -0.258795,-9.227728 -0.06253,-0.745687 2.136394,-2.599069 2.052216,-5.067415 -0.07546,-2.212702 -1.655221,-3.447611 -1.703251,-4.479417 -0.290532,-6.2413629 -0.304753,-12.69812079 -0.0278,-12.82393752 2.543443,-1.1554376 4.469735,3.32700752 7.407169,15.60963952 2.287759,9.566072 7.006418,22.758829 12.676986,35.443193 0.38732,0.86639 -2.809445,3.545285 -7.103922,5.953104 -7.706741,4.320997 -7.830358,4.33634 -9.518808,1.181439 -2.390346,-4.466401 -12.000769,-4.499289 -13.414219,-0.0459 -1.273174,4.011418 -1.681935,3.964108 -10.439932,-1.208305 z"
     id="path3000"
     inkscape:connector-curvature="0"
     sodipodi:nodetypes="sssscsssssssssccssssscsssssscssssscscsssssssssss" />
</svg>
