<?xml version="1.0" encoding="UTF-8" standalone="no"?>
<svg
   xmlns:dc="http://purl.org/dc/elements/1.1/"
   xmlns:cc="http://creativecommons.org/ns#"
   xmlns:rdf="http://www.w3.org/1999/02/22-rdf-syntax-ns#"
   xmlns:svg="http://www.w3.org/2000/svg"
   xmlns="http://www.w3.org/2000/svg"
   height="100"
   width="100"
   version="1.1"
   id="svg2">
  <metadata
     id="metadata8">
    <rdf:RDF>
      <cc:Work
         rdf:about="">
        <dc:format>image/svg+xml</dc:format>
        <dc:type
           rdf:resource="http://purl.org/dc/dcmitype/StillImage" />
        <dc:title></dc:title>
      </cc:Work>
    </rdf:RDF>
  </metadata>
  <defs
     id="defs6" />
  <path
     id="path3011"
     d=""
     style="fill:#000000" />
  <path
     id="path3009"
     d=""
     style="fill:#000000" />
  <path
     id="path2989"
     d=""
     style="fill:#000000" />
  <path
     id="path2987"
     d=""
     style="fill:#000000" />
  <path
     id="path3813"
     d=""
     style="fill:#000000" />
  <path
     id="path3347"
     d="M 40.169865,93.660437 C 23.150428,92.860063 3.4421934,91.228095 2.3037162,90.524883 1.9917171,90.33216 1.8963876,87.227096 1.8963876,77.25626 c 0,-7.159366 0.099094,-13.116344 0.2202816,-13.237733 0.3034383,-0.304037 30.1001918,2.021769 51.0859638,3.987548 2.662412,0.24939 3.959333,-0.179919 3.959333,-1.310627 0,-0.818751 -1.438737,-2.305296 -2.555285,-2.640192 C 45.485495,61.319452 14.423131,53.721957 6.0787002,52.185874 3.6607628,51.74077 1.6266764,51.320805 1.5584834,51.252616 1.490349,51.184423 1.3314939,50.123192 1.2055919,48.89431 0.97687853,46.661931 0.97737107,46.660132 1.766475,46.834792 c 0.4343947,0.09615 5.369422,0.926237 10.966736,1.844646 25.086359,4.116173 52.644986,9.544403 68.019723,13.397855 9.572527,2.399218 18.227878,5.10866 18.719255,5.859823 0.427675,0.653767 0.26889,7.281772 -0.246938,10.308134 -0.662087,3.88442 -2.264523,7.17183 -4.456585,9.142679 -3.659132,3.289883 -12.699977,5.273082 -28.038336,6.150501 -5.143816,0.294247 -21.318,0.368544 -26.560465,0.122007 z M 89.496438,58.384526 C 53.516649,50.308947 7.6868589,41.417261 2.0432694,41.417261 1.5088192,41.417261 1.0689245,41.3059 1.0657347,41.169803 1.0622147,41.033702 0.9692208,39.920141 0.85834115,38.695227 0.67974936,36.722344 0.72222487,36.468101 1.2304064,36.468101 c 1.4440382,0 44.6753286,7.065865 62.5304266,10.220175 16.645847,2.940683 30.403677,5.596185 34.396632,6.639155 l 1.23729,0.323182 0,3.45169 c 0,1.89843 -0.111408,3.438439 -0.247454,3.422242 -0.136104,-0.0162 -4.478996,-0.979207 -9.650863,-2.140019 z M 95.765374,46.145294 C 94.585829,45.889094 88.943787,44.802421 83.227513,43.730469 50.905449,37.669236 23.451486,33.328573 6.7208402,31.634232 L 0.98708109,31.053553 1.2003147,28.228932 C 1.6360463,22.456861 3.3666123,17.498367 5.9478846,14.626041 7.4593886,12.944084 11.778744,10.847914 16.248944,9.6269489 28.811127,6.1957913 49.598794,5.5596321 76.46367,7.7842368 c 8.778568,0.7269268 21.964456,2.201643 22.251559,2.4886162 0.213737,0.213644 0.848443,19.212109 0.648074,19.398663 -0.07341,0.06837 -2.583348,-0.08162 -5.57759,-0.333284 -20.437812,-1.717959 -41.547059,-2.945292 -44.785106,-2.603905 -3.295405,0.347438 -4.277466,1.659945 -2.240624,2.994535 0.575108,0.376838 7.14156,1.615335 20.226783,3.814985 10.656368,1.791359 22.221244,3.776051 25.699732,4.410416 3.478477,0.634365 6.410858,1.153393 6.51639,1.153393 0.105544,0 0.191867,1.707457 0.191867,3.794351 0,4.36184 0.297293,4.096172 -3.629381,3.243287 z"
     style="fill:#000000" />
</svg>
