<?xml version="1.0" encoding="UTF-8" standalone="no"?>
<!-- Created with Inkscape (http://www.inkscape.org/) -->

<svg
   xmlns:dc="http://purl.org/dc/elements/1.1/"
   xmlns:cc="http://creativecommons.org/ns#"
   xmlns:rdf="http://www.w3.org/1999/02/22-rdf-syntax-ns#"
   xmlns:svg="http://www.w3.org/2000/svg"
   xmlns="http://www.w3.org/2000/svg"
   xmlns:sodipodi="http://sodipodi.sourceforge.net/DTD/sodipodi-0.dtd"
   xmlns:inkscape="http://www.inkscape.org/namespaces/inkscape"
   id="svg2"
   version="1.1"
   inkscape:version="0.91 r13725"
   width="100"
   height="100"
   sodipodi:docname="brand-man.svg">
  <metadata
     id="metadata8">
    <rdf:RDF>
      <cc:Work
         rdf:about="">
        <dc:format>image/svg+xml</dc:format>
        <dc:type
           rdf:resource="http://purl.org/dc/dcmitype/StillImage" />
        <dc:title></dc:title>
      </cc:Work>
    </rdf:RDF>
  </metadata>
  <defs
     id="defs6" />
  <sodipodi:namedview
     pagecolor="#ffffff"
     bordercolor="#666666"
     borderopacity="1"
     objecttolerance="10"
     gridtolerance="10"
     guidetolerance="10"
     inkscape:pageopacity="0"
     inkscape:pageshadow="2"
     inkscape:window-width="1920"
     inkscape:window-height="1056"
     id="namedview4"
     showgrid="false"
     inkscape:zoom="0.921875"
     inkscape:cx="-157.86518"
     inkscape:cy="0.20587351"
     inkscape:window-x="2560"
     inkscape:window-y="24"
     inkscape:window-maximized="1"
     inkscape:current-layer="svg2"
     showborder="true" />
  <path
     style="fill:#000000"
     d=""
     id="path3011"
     inkscape:connector-curvature="0" />
  <path
     style="fill:#000000"
     d=""
     id="path3009"
     inkscape:connector-curvature="0" />
  <path
     style="fill:#000000"
     d=""
     id="path2989"
     inkscape:connector-curvature="0" />
  <path
     style="fill:#000000"
     d=""
     id="path2987"
     inkscape:connector-curvature="0" />
  <path
     style="fill:#000000"
     d=""
     id="path3813"
     inkscape:connector-curvature="0" />
  <path
     style="fill:#000000"
     d="m 34.413916,92.905455 c -0.483409,-0.534166 -0.547989,-1.737816 -0.547989,-10.213218 0,-8.887262 0.0454,-9.648783 0.605521,-10.155681 0.545404,-0.49358 2.1539,-0.547991 16.200934,-0.547991 13.736161,0 15.657443,0.06201 16.115731,0.520328 0.449321,0.449322 0.520322,1.84298 0.520322,10.213206 0,8.969807 -0.04517,9.733781 -0.60552,10.240881 -0.545372,0.493555 -2.151977,0.547992 -16.173264,0.547992 -14.661266,0 -15.599653,-0.0352 -16.115735,-0.605517 z m 30.907836,-10.15568 0,-8.774526 -14.73457,0 -14.734572,0 0,8.774526 0,8.774512 14.734572,0 14.73457,0 0,-8.774512 z M 37.25508,90.462461 c 0.07326,-0.219782 0.530785,-0.629533 1.016721,-0.910562 0.48594,-0.28103 1.418533,-1.14422 2.072436,-1.918194 0.653907,-0.773986 1.457804,-1.407242 1.786448,-1.407242 0.37114,0 1.145453,-0.83446 2.043663,-2.2024 0.795367,-1.211325 1.528024,-2.326572 1.628123,-2.478333 0.14574,-0.220963 8.614964,-1.652692 8.812478,-1.489749 0.08604,0.07103 1.027737,5.665986 0.96655,5.74266 -0.03023,0.03787 -1.389803,-0.147808 -3.021301,-0.412623 -4.395683,-0.713488 -4.320106,-0.732956 -7.105281,1.8304 -1.988418,1.830057 -2.400864,2.368316 -2.069462,2.700719 0.73894,0.741177 0.445405,0.944922 -1.361318,0.944922 -1.755424,0 -1.773393,-0.01017 -1.611985,-0.910562 l 0.163229,-0.910562 -0.97227,0.910562 c -0.977776,0.915721 -2.600671,1.268888 -2.348031,0.510964 z m 19.303533,-1.007632 c -0.116816,-0.773986 -0.289052,-1.809268 -0.382757,-2.300637 -0.165223,-0.866405 -0.132164,-0.888071 1.093845,-0.71678 2.128814,0.297422 2.124416,0.292822 1.563668,1.63489 -0.482962,1.155884 -0.471996,1.249624 0.234092,2.001221 l 0.740791,0.788536 -1.518628,0 -1.518624,0 -0.212387,-1.40723 z m 1.320334,-3.304367 c -0.90657,-0.162676 -1.692621,-0.340092 -1.746785,-0.394249 -0.05416,-0.05413 -0.32613,-1.402757 -0.604379,-2.99687 -0.429557,-2.460988 -0.437305,-2.980236 -0.05135,-3.440664 2.55903,-3.052844 4.021984,-4.681202 4.205713,-4.681202 0.121619,0 0.717681,1.202685 1.324584,2.672637 l 1.103454,2.672636 -0.406853,2.734685 c -0.359232,2.414582 -0.510403,2.792871 -1.291464,3.231747 -0.685548,0.385202 -1.255517,0.43049 -2.532918,0.20128 z M 47.824273,85.70189 c 0.47334,-0.47335 0.811772,-0.477404 3.464871,-0.04155 l 2.940292,0.483046 -3.464872,0.04155 c -3.16181,0.03787 -3.418987,-0.0038 -2.940291,-0.483046 z m -5.667039,-0.01436 c 0.0074,-0.158876 0.473441,-0.81038 1.035639,-1.447765 l 1.022182,-1.158909 -0.621746,1.101574 c -0.650666,1.152822 -1.459133,2.000154 -1.436075,1.5051 z m 19.256284,-8.341075 c -1.215939,-2.973934 -1.228167,-3.040099 -0.561804,-3.040099 0.273169,0 0.496671,0.190377 0.496671,0.423081 0,0.649267 1.064035,1.398043 1.986684,1.398043 0.64381,0 0.849896,0.190212 0.927277,0.855871 0.08111,0.697668 -0.03511,0.850673 -0.628716,0.827775 -0.400515,-0.01538 -0.792957,0.158178 -0.87209,0.385812 -0.08507,0.244712 0.138084,0.413894 0.545937,0.413894 0.469076,0 0.689819,0.211916 0.689819,0.662228 0,0.470555 -0.220743,0.662228 -0.762651,0.662228 -0.640841,0 -0.931708,-0.413487 -1.821127,-2.58882 z m -50.725564,-21.913594 0,-7.615629 3.762499,0 3.7625,0 1.452545,1.575801 c 0.798898,0.866685 1.96081,2.16574 2.582025,2.886763 l 1.129479,1.310974 2.679354,-2.898796 2.679353,-2.898797 3.641229,0.0948 3.641229,0.09479 0,7.45007 0,7.450056 -3.807809,0 -3.807811,0 0,-2.566392 c 0,-1.411513 -0.07076,-2.566279 -0.157247,-2.566126 -0.08648,1.39e-4 -1.156152,0.991506 -2.377037,2.203034 l -2.21979,2.202781 -1.59633,-1.341751 c -0.87798,-0.737962 -1.957555,-1.729226 -2.399053,-2.20278 -0.441499,-0.473567 -0.925753,-0.86103 -1.076121,-0.86103 -0.150367,0 -0.273396,1.19201 -0.273396,2.648912 l 0,2.648913 -3.807809,0 -3.80781,0 0,-7.615617 z m 26.489113,7.283277 c 0,-0.182791 2.187209,-3.614077 4.860469,-7.625071 l 4.860469,-7.292731 4.152407,0.09225 4.152406,0.09225 4.728353,7.263047 c 2.600595,3.994665 4.728353,7.38445 4.728353,7.532843 0,0.14838 -1.836543,0.269796 -4.081207,0.269796 -3.925167,0 -4.110938,-0.03164 -4.858869,-0.827788 -0.750399,-0.798766 -0.925204,-0.827776 -4.986343,-0.827776 -4.123885,0 -4.219613,0.01665 -4.751068,0.827776 -0.530577,0.809757 -0.632345,0.827788 -4.673676,0.827788 -2.543666,0 -4.131294,-0.127719 -4.131294,-0.33234 z M 51.6758,55.92953 c -0.398148,-0.819503 -0.813282,-1.490016 -0.922524,-1.490016 -0.109242,0 -0.414058,0.558754 -0.677373,1.241682 -0.263318,0.682915 -0.529169,1.353428 -0.590783,1.490017 -0.0616,0.136575 0.568963,0.248334 1.401281,0.248334 l 1.513303,0 L 51.6758,55.92953 Z m 13.977066,-0.496668 0,-7.615629 3.627131,0 3.627132,0 5.146244,3.31114 c 2.830436,1.821137 5.221263,3.311141 5.312945,3.311141 0.09168,0 0.166699,-1.490004 0.166699,-3.311141 l 0,-3.31114 3.642253,0 3.642254,0 0,7.615629 0,7.615617 -3.890589,-0.01563 -3.890588,-0.01563 -4.635596,-3.269157 -4.635594,-3.269143 -0.09436,3.284811 -0.09436,3.284812 -3.961781,0 -3.961785,0 0,-7.615617 z M 0.56139802,60.827718 C 0.20032455,58.419922 0.65615452,51.218492 1.4009861,47.563549 3.4198358,37.656889 7.817864,29.473457 14.978174,22.300414 c 4.336923,-4.344643 7.822808,-6.913551 12.841749,-9.463705 7.127999,-3.6217768 13.85917,-5.1918476 22.270589,-5.1947067 9.562626,-0.00381 17.879182,2.2824156 25.661328,7.0526057 14.258054,8.739695 23.101908,23.677027 23.900273,40.367729 0.110678,2.313777 0.09605,4.908201 -0.03248,5.765381 l -0.233724,1.558533 -2.876957,-1.4e-4 -2.876959,-1.4e-4 -0.0097,-5.380458 C 93.61522,53.066834 93.45057,50.875528 93.007752,48.82799 89.183552,31.145299 76.125468,18.047732 58.611301,14.327539 c -4.775948,-1.014455 -12.265605,-1.014455 -17.041552,0 -9.81295,2.084376 -18.669132,7.322935 -24.799366,14.6692 C 9.6106513,37.57672 6.004697,47.97278 6.4488949,58.753863 l 0.1496599,3.632388 -2.9017141,0 -2.90171422,0 -0.23371576,-1.558533 z"
     id="path3449"
     inkscape:connector-curvature="0" />
</svg>
