<?xml version="1.0" encoding="UTF-8" standalone="no"?>
<!-- Created with Inkscape (http://www.inkscape.org/) -->

<svg
   xmlns:dc="http://purl.org/dc/elements/1.1/"
   xmlns:cc="http://creativecommons.org/ns#"
   xmlns:rdf="http://www.w3.org/1999/02/22-rdf-syntax-ns#"
   xmlns:svg="http://www.w3.org/2000/svg"
   xmlns="http://www.w3.org/2000/svg"
   xmlns:xlink="http://www.w3.org/1999/xlink"
   xmlns:sodipodi="http://sodipodi.sourceforge.net/DTD/sodipodi-0.dtd"
   xmlns:inkscape="http://www.inkscape.org/namespaces/inkscape"
   id="svg2"
   version="1.1"
   inkscape:version="0.91 r13725"
   width="100"
   height="100"
   sodipodi:docname="brand-unimog.svg">
  <metadata
     id="metadata8">
    <rdf:RDF>
      <cc:Work
         rdf:about="">
        <dc:format>image/svg+xml</dc:format>
        <dc:type
           rdf:resource="http://purl.org/dc/dcmitype/StillImage" />
        <dc:title></dc:title>
      </cc:Work>
    </rdf:RDF>
  </metadata>
  <defs
     id="defs6">
    <clipPath
       id="clipPath11958">
      <path
         id="path11960"
         d="m 462.047,30.898 167.008,0 0,42.52 -167.008,0 0,-42.52 z" />
    </clipPath>
    <linearGradient
       spreadMethod="pad"
       gradientTransform="matrix(0,3.4396057,-3.4396057,0,483.30507,48.505646)"
       gradientUnits="userSpaceOnUse"
       id="linearGradient11942"
       y2="0"
       x2="1"
       y1="0"
       x1="0">
      <stop
         offset="0"
         style="stop-color:#3f464d;stop-opacity:1"
         id="stop11944" />
      <stop
         offset="0.76118499"
         style="stop-color:#ffffff;stop-opacity:1"
         id="stop11946" />
      <stop
         offset="0.76118499"
         style="stop-color:#ffffff;stop-opacity:1"
         id="stop11948" />
      <stop
         offset="1"
         style="stop-color:#ffffff;stop-opacity:1"
         id="stop11950" />
    </linearGradient>
    <clipPath
       id="clipPath11898">
      <path
         id="path11900"
         d="m 462.047,30.898 167.008,0 0,42.52 -167.008,0 0,-42.52 z" />
    </clipPath>
    <radialGradient
       spreadMethod="pad"
       gradientTransform="matrix(19.988541,0,0,19.988541,483.30972,52.154846)"
       gradientUnits="userSpaceOnUse"
       id="radialGradient11886"
       fy="0"
       fx="0"
       r="1"
       cy="0"
       cx="0">
      <stop
         offset="0"
         style="stop-color:#cfd1cc;stop-opacity:1"
         id="stop11888" />
      <stop
         offset="1"
         style="stop-color:#c0c3c1;stop-opacity:1"
         id="stop11890" />
    </radialGradient>
    <linearGradient
       spreadMethod="pad"
       gradientTransform="matrix(3.2230377,-0.1125488,0.1125488,3.2230377,480.41757,61.834518)"
       gradientUnits="userSpaceOnUse"
       id="linearGradient11862"
       y2="0"
       x2="1"
       y1="0"
       x1="0">
      <stop
         offset="0"
         style="stop-color:#ffffff;stop-opacity:1"
         id="stop11864" />
      <stop
         offset="0.94000202"
         style="stop-color:#c0c3c1;stop-opacity:1"
         id="stop11866" />
      <stop
         offset="0.94000202"
         style="stop-color:#c0c3c1;stop-opacity:1"
         id="stop11868" />
      <stop
         offset="1"
         style="stop-color:#c0c3c1;stop-opacity:1"
         id="stop11870" />
    </linearGradient>
    <linearGradient
       spreadMethod="pad"
       gradientTransform="matrix(-1.7405396,-2.7321167,2.7321167,-1.7405396,492.76212,49.972794)"
       gradientUnits="userSpaceOnUse"
       id="linearGradient11838"
       y2="0"
       x2="1"
       y1="0"
       x1="0">
      <stop
         offset="0"
         style="stop-color:#ffffff;stop-opacity:1"
         id="stop11840" />
      <stop
         offset="0.89999402"
         style="stop-color:#c0c3c1;stop-opacity:1"
         id="stop11842" />
      <stop
         offset="0.89999402"
         style="stop-color:#c0c3c1;stop-opacity:1"
         id="stop11844" />
      <stop
         offset="1"
         style="stop-color:#c0c3c1;stop-opacity:1"
         id="stop11846" />
    </linearGradient>
    <linearGradient
       spreadMethod="pad"
       gradientTransform="matrix(1.6771393,-2.7368317,-2.7368317,-1.6771393,473.80818,50.101639)"
       gradientUnits="userSpaceOnUse"
       id="linearGradient11814"
       y2="0"
       x2="1"
       y1="0"
       x1="0">
      <stop
         offset="0"
         style="stop-color:#ffffff;stop-opacity:1"
         id="stop11816" />
      <stop
         offset="0.94000202"
         style="stop-color:#c0c3c1;stop-opacity:1"
         id="stop11818" />
      <stop
         offset="0.94000202"
         style="stop-color:#c0c3c1;stop-opacity:1"
         id="stop11820" />
      <stop
         offset="1"
         style="stop-color:#c0c3c1;stop-opacity:1"
         id="stop11822" />
    </linearGradient>
    <clipPath
       id="clipPath10694">
      <path
         id="path10696"
         d="m 462.047,30.898 167.008,0 0,42.52 -167.008,0 0,-42.52 z" />
    </clipPath>
    <linearGradient
       spreadMethod="pad"
       gradientTransform="matrix(-30.004471,30.004471,-30.004471,-30.004471,498.34721,37.11496)"
       gradientUnits="userSpaceOnUse"
       id="linearGradient10676"
       y2="0"
       x2="1"
       y1="0"
       x1="0">
      <stop
         offset="0"
         style="stop-color:#363d44;stop-opacity:1"
         id="stop10678" />
      <stop
         offset="0.5"
         style="stop-color:#5e6469;stop-opacity:1"
         id="stop10680" />
      <stop
         offset="0.5"
         style="stop-color:#5e6469;stop-opacity:1"
         id="stop10682" />
      <stop
         offset="0.97000098"
         style="stop-color:#8c9296;stop-opacity:1"
         id="stop10684" />
      <stop
         offset="1"
         style="stop-color:#8c9296;stop-opacity:1"
         id="stop10686" />
    </linearGradient>
    <linearGradient
       spreadMethod="pad"
       gradientTransform="matrix(29.938766,-29.938766,29.938766,29.938766,468.34724,67.126709)"
       gradientUnits="userSpaceOnUse"
       id="linearGradient10648"
       y2="0"
       x2="1"
       y1="0"
       x1="0">
      <stop
         offset="0"
         style="stop-color:#363d44;stop-opacity:1"
         id="stop10650" />
      <stop
         offset="0.24176"
         style="stop-color:#7a8084;stop-opacity:1"
         id="stop10652" />
      <stop
         offset="0.24176"
         style="stop-color:#7a8084;stop-opacity:1"
         id="stop10654" />
      <stop
         offset="0.5"
         style="stop-color:#5e6469;stop-opacity:1"
         id="stop10656" />
      <stop
         offset="0.97000098"
         style="stop-color:#8c9296;stop-opacity:1"
         id="stop10658" />
      <stop
         offset="1"
         style="stop-color:#8c9296;stop-opacity:1"
         id="stop10660" />
    </linearGradient>
    <clipPath
       id="clipPath10620">
      <path
         id="path10622"
         d="m 462.047,30.898 167.008,0 0,42.52 -167.008,0 0,-42.52 z" />
    </clipPath>
    <linearGradient
       spreadMethod="pad"
       gradientTransform="matrix(0,-39.799469,39.799469,0,492.75972,72.029831)"
       gradientUnits="userSpaceOnUse"
       id="linearGradient10598"
       y2="0"
       x2="1"
       y1="0"
       x1="0">
      <stop
         offset="0"
         style="stop-color:#3a4148;stop-opacity:1"
         id="stop10600" />
      <stop
         offset="0.166199"
         style="stop-color:#2e353d;stop-opacity:1"
         id="stop10602" />
      <stop
         offset="0.166199"
         style="stop-color:#2e353d;stop-opacity:1"
         id="stop10604" />
      <stop
         offset="0.5"
         style="stop-color:#131822;stop-opacity:1"
         id="stop10606" />
      <stop
         offset="0.83380097"
         style="stop-color:#363d44;stop-opacity:1"
         id="stop10608" />
      <stop
         offset="0.97000098"
         style="stop-color:#d7d9d2;stop-opacity:1"
         id="stop10610" />
      <stop
         offset="1"
         style="stop-color:#d7d9d2;stop-opacity:1"
         id="stop10612" />
    </linearGradient>
    <linearGradient
       spreadMethod="pad"
       gradientTransform="matrix(0,-36.695374,36.695374,0,472.77223,72.217331)"
       gradientUnits="userSpaceOnUse"
       id="linearGradient10568"
       y2="0"
       x2="1"
       y1="0"
       x1="0">
      <stop
         offset="0"
         style="stop-color:#e9ece6;stop-opacity:1"
         id="stop10570" />
      <stop
         offset="0.166199"
         style="stop-color:#363d44;stop-opacity:1"
         id="stop10572" />
      <stop
         offset="0.166199"
         style="stop-color:#363d44;stop-opacity:1"
         id="stop10574" />
      <stop
         offset="0.5"
         style="stop-color:#131822;stop-opacity:1"
         id="stop10576" />
      <stop
         offset="0.83380097"
         style="stop-color:#3f464d;stop-opacity:1"
         id="stop10578" />
      <stop
         offset="0.97000098"
         style="stop-color:#565d63;stop-opacity:1"
         id="stop10580" />
      <stop
         offset="1"
         style="stop-color:#565d63;stop-opacity:1"
         id="stop10582" />
    </linearGradient>
    <clipPath
       id="clipPath9896">
      <path
         id="path9898"
         d="m 462.047,30.898 167.008,0 0,42.52 -167.008,0 0,-42.52 z" />
    </clipPath>
    <linearGradient
       spreadMethod="pad"
       gradientTransform="matrix(29.938919,-29.938919,29.938919,29.938919,459.42224,58.196991)"
       gradientUnits="userSpaceOnUse"
       id="linearGradient9878"
       y2="0"
       x2="1"
       y1="0"
       x1="0">
      <stop
         offset="0"
         style="stop-color:#1d232c;stop-opacity:1"
         id="stop9880" />
      <stop
         offset="0.45890799"
         style="stop-color:#3a4148;stop-opacity:1"
         id="stop9882" />
      <stop
         offset="0.45890799"
         style="stop-color:#3a4148;stop-opacity:1"
         id="stop9884" />
      <stop
         offset="0.83380097"
         style="stop-color:#dcddd7;stop-opacity:1"
         id="stop9886" />
      <stop
         offset="1"
         style="stop-color:#dcddd7;stop-opacity:1"
         id="stop9888" />
    </linearGradient>
    <linearGradient
       spreadMethod="pad"
       gradientTransform="matrix(0,-42.339859,42.339859,0,493.92221,73.304825)"
       gradientUnits="userSpaceOnUse"
       id="linearGradient9848"
       y2="0"
       x2="1"
       y1="0"
       x1="0">
      <stop
         offset="0"
         style="stop-color:#e9ece6;stop-opacity:1"
         id="stop9850" />
      <stop
         offset="0.166199"
         style="stop-color:#5e6469;stop-opacity:1"
         id="stop9852" />
      <stop
         offset="0.166199"
         style="stop-color:#5e6469;stop-opacity:1"
         id="stop9854" />
      <stop
         offset="0.5"
         style="stop-color:#1d232c;stop-opacity:1"
         id="stop9856" />
      <stop
         offset="0.83380097"
         style="stop-color:#131822;stop-opacity:1"
         id="stop9858" />
      <stop
         offset="0.97000098"
         style="stop-color:#2e353d;stop-opacity:1"
         id="stop9860" />
      <stop
         offset="1"
         style="stop-color:#2e353d;stop-opacity:1"
         id="stop9862" />
    </linearGradient>
    <linearGradient
       spreadMethod="pad"
       gradientTransform="matrix(29.938766,-29.938766,29.938766,29.938766,468.34724,67.126709)"
       gradientUnits="userSpaceOnUse"
       id="linearGradient9818"
       y2="0"
       x2="1"
       y1="0"
       x1="0">
      <stop
         offset="0"
         style="stop-color:#fbfaf6;stop-opacity:1"
         id="stop9820" />
      <stop
         offset="0.166168"
         style="stop-color:#e9ece6;stop-opacity:1"
         id="stop9822" />
      <stop
         offset="0.166168"
         style="stop-color:#e9ece6;stop-opacity:1"
         id="stop9824" />
      <stop
         offset="0.39999399"
         style="stop-color:#b7b9bb;stop-opacity:1"
         id="stop9826" />
      <stop
         offset="0.83383203"
         style="stop-color:#2c353d;stop-opacity:1"
         id="stop9828" />
      <stop
         offset="0.97000098"
         style="stop-color:#3f464d;stop-opacity:1"
         id="stop9830" />
      <stop
         offset="1"
         style="stop-color:#3f464d;stop-opacity:1"
         id="stop9832" />
    </linearGradient>
    <linearGradient
       spreadMethod="pad"
       gradientTransform="matrix(29.938766,-29.938766,29.938766,29.938766,468.34724,67.126709)"
       gradientUnits="userSpaceOnUse"
       id="linearGradient9788"
       y2="0"
       x2="1"
       y1="0"
       x1="0">
      <stop
         offset="0"
         style="stop-color:#141d29;stop-opacity:1"
         id="stop9790" />
      <stop
         offset="0.166168"
         style="stop-color:#353c44;stop-opacity:1"
         id="stop9792" />
      <stop
         offset="0.166168"
         style="stop-color:#353c44;stop-opacity:1"
         id="stop9794" />
      <stop
         offset="0.5"
         style="stop-color:#a5a9ac;stop-opacity:1"
         id="stop9796" />
      <stop
         offset="0.83383203"
         style="stop-color:#d7d9d2;stop-opacity:1"
         id="stop9798" />
      <stop
         offset="0.95054603"
         style="stop-color:#fbfaf6;stop-opacity:1"
         id="stop9800" />
      <stop
         offset="1"
         style="stop-color:#fbfaf6;stop-opacity:1"
         id="stop9802" />
    </linearGradient>
    <linearGradient
       spreadMethod="pad"
       gradientTransform="matrix(-0.1005096,0.1740875,-0.1740875,-0.1005096,486.55632,53.9142)"
       gradientUnits="userSpaceOnUse"
       id="linearGradient9768"
       y2="0"
       x2="1"
       y1="0"
       x1="0">
      <stop
         offset="0"
         style="stop-color:#62686d;stop-opacity:1"
         id="stop9770" />
      <stop
         offset="1"
         style="stop-color:#4e575e;stop-opacity:1"
         id="stop9772" />
    </linearGradient>
    <clipPath
       id="clipPath9748">
      <path
         id="path9750"
         d="m 462.047,30.898 167.008,0 0,42.52 -167.008,0 0,-42.52 z" />
    </clipPath>
    <clipPath
       id="clipPath11958-5">
      <path
         id="path11960-1"
         d="m 462.047,30.898 167.008,0 0,42.52 -167.008,0 0,-42.52 z" />
    </clipPath>
    <linearGradient
       spreadMethod="pad"
       gradientTransform="matrix(0,3.4396057,-3.4396057,0,483.30507,48.505646)"
       gradientUnits="userSpaceOnUse"
       xlink:href="#linearGradient11942"
       id="linearGradient15978-5"
       y2="0"
       x2="1"
       y1="0"
       x1="0" />
    <clipPath
       id="clipPath11898-1">
      <path
         id="path11900-7"
         d="m 462.047,30.898 167.008,0 0,42.52 -167.008,0 0,-42.52 z" />
    </clipPath>
    <radialGradient
       spreadMethod="pad"
       gradientTransform="matrix(19.988541,0,0,19.988541,483.30972,52.154846)"
       gradientUnits="userSpaceOnUse"
       xlink:href="#radialGradient11886-2"
       id="radialGradient15976-2"
       fy="0"
       fx="0"
       r="1"
       cy="0"
       cx="0" />
    <radialGradient
       spreadMethod="pad"
       gradientTransform="matrix(19.988541,0,0,19.988541,483.30972,52.154846)"
       gradientUnits="userSpaceOnUse"
       id="radialGradient11886-2"
       fy="0"
       fx="0"
       r="1"
       cy="0"
       cx="0">
      <stop
         offset="0"
         style="stop-color:#cfd1cc;stop-opacity:1"
         id="stop11888-1" />
      <stop
         offset="1"
         style="stop-color:#c0c3c1;stop-opacity:1"
         id="stop11890-2" />
    </radialGradient>
    <linearGradient
       spreadMethod="pad"
       gradientTransform="matrix(3.2230377,-0.1125488,0.1125488,3.2230377,480.41757,61.834518)"
       gradientUnits="userSpaceOnUse"
       xlink:href="#linearGradient11862"
       id="linearGradient15974-5"
       y2="0"
       x2="1"
       y1="0"
       x1="0" />
    <linearGradient
       spreadMethod="pad"
       gradientTransform="matrix(-1.7405396,-2.7321167,2.7321167,-1.7405396,492.76212,49.972794)"
       gradientUnits="userSpaceOnUse"
       xlink:href="#linearGradient11838"
       id="linearGradient15972-0"
       y2="0"
       x2="1"
       y1="0"
       x1="0" />
    <linearGradient
       spreadMethod="pad"
       gradientTransform="matrix(1.6771393,-2.7368317,-2.7368317,-1.6771393,473.80818,50.101639)"
       gradientUnits="userSpaceOnUse"
       xlink:href="#linearGradient11814"
       id="linearGradient15970-2"
       y2="0"
       x2="1"
       y1="0"
       x1="0" />
    <clipPath
       id="clipPath10694-8">
      <path
         id="path10696-8"
         d="m 462.047,30.898 167.008,0 0,42.52 -167.008,0 0,-42.52 z" />
    </clipPath>
    <linearGradient
       spreadMethod="pad"
       gradientTransform="matrix(-30.004471,30.004471,-30.004471,-30.004471,498.34721,37.11496)"
       gradientUnits="userSpaceOnUse"
       xlink:href="#linearGradient10676"
       id="linearGradient15968-6"
       y2="0"
       x2="1"
       y1="0"
       x1="0" />
    <linearGradient
       spreadMethod="pad"
       gradientTransform="matrix(29.938766,-29.938766,29.938766,29.938766,468.34724,67.126709)"
       gradientUnits="userSpaceOnUse"
       xlink:href="#linearGradient10648"
       id="linearGradient15966-2"
       y2="0"
       x2="1"
       y1="0"
       x1="0" />
    <clipPath
       id="clipPath10620-0">
      <path
         id="path10622-3"
         d="m 462.047,30.898 167.008,0 0,42.52 -167.008,0 0,-42.52 z" />
    </clipPath>
    <linearGradient
       spreadMethod="pad"
       gradientTransform="matrix(0,-39.799469,39.799469,0,492.75972,72.029831)"
       gradientUnits="userSpaceOnUse"
       xlink:href="#linearGradient10598"
       id="linearGradient15964-0"
       y2="0"
       x2="1"
       y1="0"
       x1="0" />
    <linearGradient
       spreadMethod="pad"
       gradientTransform="matrix(0,-36.695374,36.695374,0,472.77223,72.217331)"
       gradientUnits="userSpaceOnUse"
       xlink:href="#linearGradient10568"
       id="linearGradient15962-5"
       y2="0"
       x2="1"
       y1="0"
       x1="0" />
    <clipPath
       id="clipPath9896-9">
      <path
         id="path9898-0"
         d="m 462.047,30.898 167.008,0 0,42.52 -167.008,0 0,-42.52 z" />
    </clipPath>
    <linearGradient
       spreadMethod="pad"
       gradientTransform="matrix(29.938919,-29.938919,29.938919,29.938919,459.42224,58.196991)"
       gradientUnits="userSpaceOnUse"
       xlink:href="#linearGradient9878"
       id="linearGradient15960-3"
       y2="0"
       x2="1"
       y1="0"
       x1="0" />
    <linearGradient
       spreadMethod="pad"
       gradientTransform="matrix(0,-42.339859,42.339859,0,493.92221,73.304825)"
       gradientUnits="userSpaceOnUse"
       xlink:href="#linearGradient9848"
       id="linearGradient15958-9"
       y2="0"
       x2="1"
       y1="0"
       x1="0" />
    <linearGradient
       spreadMethod="pad"
       gradientTransform="matrix(29.938766,-29.938766,29.938766,29.938766,468.34724,67.126709)"
       gradientUnits="userSpaceOnUse"
       xlink:href="#linearGradient9818"
       id="linearGradient15956-5"
       y2="0"
       x2="1"
       y1="0"
       x1="0" />
    <linearGradient
       spreadMethod="pad"
       gradientTransform="matrix(29.938766,-29.938766,29.938766,29.938766,468.34724,67.126709)"
       gradientUnits="userSpaceOnUse"
       xlink:href="#linearGradient9788"
       id="linearGradient15954-8"
       y2="0"
       x2="1"
       y1="0"
       x1="0" />
    <linearGradient
       spreadMethod="pad"
       gradientTransform="matrix(-0.1005096,0.1740875,-0.1740875,-0.1005096,486.55632,53.9142)"
       gradientUnits="userSpaceOnUse"
       xlink:href="#linearGradient9768"
       id="linearGradient15952-0"
       y2="0"
       x2="1"
       y1="0"
       x1="0" />
    <clipPath
       id="clipPath9748-2">
      <path
         id="path9750-4"
         d="m 462.047,30.898 167.008,0 0,42.52 -167.008,0 0,-42.52 z" />
    </clipPath>
    <linearGradient
       id="linearGradient5015">
      <stop
         offset="0"
         style="stop-color:#000000;stop-opacity:1"
         id="stop5017" />
      <stop
         offset="1"
         style="stop-color:#000000;stop-opacity:0"
         id="stop5019" />
    </linearGradient>
    <clipPath
       id="clp22">
      <path
         id="path947"
         d="M 0,8.9314 L 0,0 L 1,0 L 1,8.9314" />
    </clipPath>
    <clipPath
       id="clp21">
      <path
         id="path939"
         d="M 1064.1,42.561 L 1156.5,42.561 L 1156.5,76.736 L 1064.1,76.736 L 1064.1,42.561 z" />
    </clipPath>
    <linearGradient
       gradientUnits="userSpaceOnUse"
       xlink:href="#linearGradient5015"
       id="linearGradient5021"
       y2="66.170547"
       x2="1152.9564"
       y1="66.170547"
       x1="1066.9561" />
  </defs>
  <sodipodi:namedview
     pagecolor="#ffffff"
     bordercolor="#666666"
     borderopacity="1"
     objecttolerance="10"
     gridtolerance="10"
     guidetolerance="10"
     inkscape:pageopacity="0"
     inkscape:pageshadow="2"
     inkscape:window-width="1920"
     inkscape:window-height="1056"
     id="namedview4"
     showgrid="false"
     inkscape:zoom="0.65186407"
     inkscape:cx="841.45683"
     inkscape:cy="47.510756"
     inkscape:window-x="2560"
     inkscape:window-y="24"
     inkscape:window-maximized="1"
     inkscape:current-layer="g7437"
     showborder="true" />
  <path
     style="fill:#000000"
     d=""
     id="path3011"
     inkscape:connector-curvature="0" />
  <path
     style="fill:#000000"
     d=""
     id="path3009"
     inkscape:connector-curvature="0" />
  <path
     style="fill:#000000"
     d=""
     id="path2989"
     inkscape:connector-curvature="0" />
  <path
     style="fill:#000000"
     d=""
     id="path2987"
     inkscape:connector-curvature="0" />
  <path
     style="fill:#000000"
     d=""
     id="path3813"
     inkscape:connector-curvature="0" />
  <g
     id="layer1"
     transform="translate(-402.39284,-411.39037)">
    <g
       id="g7458"
       transform="translate(-289.36493,-153.90483)">
      <g
         id="g7432">
        <title
           id="title7434">background</title>
        <rect
           x="-1"
           y="-1"
           width="1002"
           height="1002"
           id="canvas_background"
           style="fill:none" />
      </g>
      <g
         id="g7437">
        <title
           id="title7439">Layer 1</title>
        <path
           style="fill:#000000"
           d="m 699.02537,620.53112 c -0.5959,-0.0122 -1.81546,-0.0602 -2.11714,-0.0834 -1.28885,-0.0989 -2.28233,-0.31271 -2.98698,-0.6428 -0.77936,-0.36507 -1.15516,-0.8047 -1.3123,-1.53518 -0.0633,-0.29427 -0.0635,-1.04192 -4.2e-4,-1.42379 0.10455,-0.63268 0.16334,-0.79975 1.26725,-3.60357 0.58163,-1.47725 1.06291,-2.69983 1.06952,-2.71685 0.01,-0.0244 0.41327,-0.031 1.90364,-0.031 1.0404,0 1.89163,0.004 1.89163,0.01 0,0.005 -0.35222,0.91636 -0.7827,2.02427 -0.99812,2.56876 -1.10218,2.84646 -1.24645,3.32674 -0.15837,0.52721 -0.2088,0.79004 -0.20901,1.08952 -2.1e-4,0.33318 0.0486,0.44361 0.30355,0.68725 0.15691,0.14991 0.21689,0.18993 0.35008,0.23362 0.22245,0.0729 0.48382,0.12401 0.80454,0.1571 0.3572,0.0368 5.47972,0.0177 5.93043,-0.0221 1.8782,-0.16614 2.51372,-0.31655 2.96614,-0.702 0.39974,-0.34056 0.79337,-0.91666 1.13,-1.65387 0.18128,-0.39703 0.1716,-0.37046 1.06518,-2.92188 l 0.80217,-2.29046 2.00155,-0.0151 c 1.10085,-0.009 2.86511,-0.0165 3.92058,-0.0184 l 1.91904,-0.003 3.49139,3.29513 c 1.92027,1.81232 3.52557,3.32785 3.56733,3.36785 l 0.0759,0.0727 1.22406,-3.3679 1.22407,-3.36791 1.88808,-1.1e-4 c 1.10241,-8e-5 1.88808,0.01 1.88808,0.0221 0,0.0188 -3.24407,9.36786 -3.39691,9.78954 l -0.0516,0.14238 -1.97144,-0.002 -1.97142,-0.002 -3.65086,-3.32038 c -3.13842,-2.85435 -3.6538,-3.31377 -3.67179,-3.27314 -0.0115,0.0259 -0.55855,1.53481 -1.21564,3.35294 l -1.19471,3.30569 -1.96325,0.006 -1.96326,0.006 0.0172,-0.0558 c 0.01,-0.0308 0.28881,-0.85162 0.62081,-1.82421 0.332,-0.97259 0.59991,-1.77208 0.59536,-1.77663 -0.004,-0.004 -0.0728,0.1115 -0.15171,0.25789 -0.77872,1.4451 -1.89065,2.3472 -3.46879,2.81421 -1.76161,0.52129 -3.73021,0.71662 -7.08076,0.70256 -0.66733,-0.003 -1.34704,-0.007 -1.51047,-0.0111 z m 59.61382,-0.0248 c -2.13321,-0.0349 -3.90282,-0.2395 -4.7914,-0.55392 -0.64191,-0.22715 -1.29717,-0.67166 -1.58529,-1.07542 -0.32592,-0.45673 -0.4064,-0.88613 -0.31336,-1.67194 0.0266,-0.22472 0.046,-0.41119 0.0432,-0.4144 -0.003,-0.003 -0.28828,0.78028 -0.63437,1.7411 -0.34607,0.96081 -0.63571,1.75743 -0.64365,1.77026 -0.009,0.0143 -0.75757,0.0208 -1.94722,0.017 l -1.93281,-0.006 1.18508,-3.25434 c 0.65181,-1.78988 1.1815,-3.25793 1.1771,-3.26233 -0.004,-0.004 -1.34871,0.72218 -2.98737,1.6146 -2.96213,1.61319 -2.97969,1.62231 -3.03128,1.57558 -1.74081,-1.57714 -3.64177,-3.27418 -3.64769,-3.2564 -0.004,0.013 -0.55229,1.51062 -1.21767,3.32803 l -1.20978,3.30438 -1.92485,0.006 c -1.53673,0.005 -1.92248,7e-5 -1.9131,-0.0248 0.006,-0.0171 0.83149,-2.24851 1.8334,-4.95869 1.00192,-2.71016 1.82918,-4.94708 1.83836,-4.97091 0.0157,-0.0408 0.1291,-0.0433 1.90213,-0.0429 l 1.88543,4.2e-4 1.85397,1.6972 c 1.2441,1.1389 1.86614,1.69253 1.89095,1.68301 0.0203,-0.007 1.40995,-0.77733 3.08801,-1.71005 l 3.05102,-1.69584 1.85157,0 c 1.75323,0 1.85069,0.002 1.83495,0.0434 -0.0146,0.0378 -1.19396,3.30527 -1.24016,3.4357 -0.01,0.0272 0.0659,-0.0916 0.16778,-0.26414 0.76684,-1.29804 1.60306,-2.03096 2.89054,-2.5335 1.10724,-0.4322 2.69294,-0.63053 5.65882,-0.70779 1.09489,-0.0285 5.04898,0.007 5.73233,0.0526 1.43827,0.0944 2.56687,0.32449 3.16902,0.646 0.72318,0.38615 1.04504,0.75367 1.17854,1.34579 0.0495,0.21977 0.0586,0.77012 0.0171,1.04618 -0.0127,0.0851 -0.0211,0.15476 -0.0186,0.15476 0.002,0 0.1108,-0.14206 0.24049,-0.31571 0.73806,-0.98816 1.57366,-1.67609 2.54533,-2.09553 0.96409,-0.41618 2.14832,-0.67088 3.63937,-0.78273 1.37078,-0.10284 6.51708,-0.0868 8.1466,0.0254 1.03663,0.0713 1.9897,0.2381 2.55741,0.44736 1.01191,0.37304 1.5806,1.00293 1.64343,1.8203 l 0.016,0.20762 -5.85362,2e-4 c -3.55023,1.5e-4 -6.0436,0.01 -6.33646,0.0249 -0.79222,0.0406 -1.25073,0.11116 -1.71351,0.26396 -0.34589,0.11421 -0.53515,0.22657 -0.76425,0.45372 -0.14947,0.14818 -0.21274,0.23575 -0.31314,0.43333 -0.33324,0.65581 -0.77143,1.80629 -0.9761,2.56283 -0.0724,0.26767 -0.088,0.57998 -0.0366,0.73459 0.0435,0.13096 0.16956,0.27178 0.30376,0.33926 0.29212,0.14693 1.04793,0.23573 2.44752,0.28758 0.89801,0.0332 5.1864,0.0327 5.65342,-8.4e-4 0.73021,-0.0523 1.31963,-0.16351 1.69487,-0.31973 0.15797,-0.0658 0.21646,-0.1079 0.36107,-0.26014 0.15347,-0.16156 0.57344,-0.75389 0.57344,-0.80878 0,-0.0116 -1.26916,-0.0241 -2.82035,-0.0276 l -2.82036,-0.006 0.36964,-1.00285 c 0.2033,-0.55157 0.39816,-1.07806 0.43302,-1.17 l 0.0633,-0.16714 4.7897,0 4.7897,0 -0.0116,0.0558 c -0.19055,0.90736 -0.6544,2.04732 -1.21617,2.98884 -0.75178,1.26002 -1.84987,2.11484 -3.33912,2.59934 -1.54872,0.50386 -3.42493,0.67002 -7.56719,0.6702 -0.94654,5e-5 -1.95496,-0.0111 -2.24095,-0.0249 -2.75665,-0.13215 -4.38051,-0.60642 -5.02868,-1.46869 -0.33451,-0.44499 -0.45751,-0.97617 -0.42246,-1.82437 0.0173,-0.42011 0.0199,-0.41742 -0.12368,-0.13825 -0.42217,0.82153 -0.98937,1.45713 -1.74226,1.95236 -0.31758,0.20888 -1.41526,0.75529 -1.72095,0.85665 -1.00762,0.3341 -3.17453,0.54639 -6.35137,0.62224 -0.9396,0.0224 -1.16164,0.0233 -2.07998,0.009 z m 4.66758,-2.53382 c 0.89887,-0.0139 1.74456,-0.0371 1.87935,-0.0515 0.86099,-0.0925 1.37775,-0.47625 1.73646,-1.28954 0.10274,-0.23301 0.63503,-1.81717 0.8283,-2.4653 0.17911,-0.60057 0.17229,-0.75877 -0.0408,-0.94632 -0.1226,-0.10793 -0.30325,-0.18562 -0.55284,-0.23774 -0.42781,-0.0894 -0.64868,-0.0947 -3.71426,-0.0908 -3.27958,0.004 -4.5336,0.0276 -4.89045,0.0911 -0.8739,0.15554 -1.3695,0.46388 -1.6332,1.01609 -0.22013,0.46099 -0.92452,2.2694 -1.02865,2.64093 -0.18374,0.65559 -0.0255,0.97113 0.58083,1.15799 0.69606,0.21451 2.04375,0.24905 6.83527,0.17518 z m -34.8434,2.32171 c 0.007,-0.0308 0.80988,-2.2677 1.78244,-4.97107 l 1.76829,-4.91519 1.94863,-0.006 c 1.84888,-0.006 1.94792,-0.004 1.93451,0.0372 -0.007,0.0239 -0.81938,2.26089 -1.80357,4.97106 l -1.78943,4.92759 -1.92751,0.006 -1.92752,0.006 0.0142,-0.0558 z"
           id="path7972"
           inkscape:connector-curvature="0" />
      </g>
    </g>
  </g>
</svg>
