<?xml version="1.0" encoding="UTF-8" standalone="no"?>
<!-- Created with Inkscape (http://www.inkscape.org/) -->

<svg
   xmlns:dc="http://purl.org/dc/elements/1.1/"
   xmlns:cc="http://creativecommons.org/ns#"
   xmlns:rdf="http://www.w3.org/1999/02/22-rdf-syntax-ns#"
   xmlns:svg="http://www.w3.org/2000/svg"
   xmlns="http://www.w3.org/2000/svg"
   xmlns:sodipodi="http://sodipodi.sourceforge.net/DTD/sodipodi-0.dtd"
   xmlns:inkscape="http://www.inkscape.org/namespaces/inkscape"
   id="svg2"
   version="1.1"
   inkscape:version="0.91 r13725"
   width="100"
   height="100"
   sodipodi:docname="brand-vw.svg">
  <metadata
     id="metadata8">
    <rdf:RDF>
      <cc:Work
         rdf:about="">
        <dc:format>image/svg+xml</dc:format>
        <dc:type
           rdf:resource="http://purl.org/dc/dcmitype/StillImage" />
        <dc:title></dc:title>
      </cc:Work>
    </rdf:RDF>
  </metadata>
  <defs
     id="defs6" />
  <sodipodi:namedview
     pagecolor="#ffffff"
     bordercolor="#666666"
     borderopacity="1"
     objecttolerance="10"
     gridtolerance="10"
     guidetolerance="10"
     inkscape:pageopacity="0"
     inkscape:pageshadow="2"
     inkscape:window-width="1920"
     inkscape:window-height="1056"
     id="namedview4"
     showgrid="false"
     inkscape:zoom="0.921875"
     inkscape:cx="26.584162"
     inkscape:cy="171.41757"
     inkscape:window-x="2560"
     inkscape:window-y="24"
     inkscape:window-maximized="1"
     inkscape:current-layer="svg2"
     showborder="true" />
  <path
     style="fill:#000000"
     d=""
     id="path3011"
     inkscape:connector-curvature="0" />
  <path
     style="fill:#000000"
     d=""
     id="path3009"
     inkscape:connector-curvature="0" />
  <path
     style="fill:#000000"
     d=""
     id="path2989"
     inkscape:connector-curvature="0" />
  <path
     style="fill:#000000"
     d=""
     id="path2987"
     inkscape:connector-curvature="0" />
  <path
     style="fill:#000000"
     d=""
     id="path3813"
     inkscape:connector-curvature="0" />
  <path
     style="fill:#000000;fill-opacity:1;fill-rule:evenodd;stroke:none"
     d="m 49.939563,2.4783596 c -26.301017,0 -47.7878828,21.4496174 -47.7878828,47.7899254 0,26.26137 21.4868658,47.747015 47.7878828,47.747015 26.300717,0 47.751101,-21.485645 47.751101,-47.747015 0,-26.340308 -21.450384,-47.787882 -47.751101,-47.787882 l 0,-0.00204 z m 0,6.0667133 c 22.934742,0.00112 41.684388,18.7486281 41.684388,41.7232121 0,22.935678 -18.74871,41.643521 -41.684388,41.643521 -22.933356,0 -41.6803024,-18.707843 -41.6803024,-41.643521 0,-22.974584 18.7455544,-41.7220927 41.6803024,-41.7232121 z m 0,5.9114181 c -3.090542,0 -6.104485,0.389133 -8.962145,1.132017 l 9.080659,25.0515 9.041834,-25.010633 c -2.936358,-0.78283 -6.027953,-1.172884 -9.160348,-1.172884 z m -17.80986,4.734448 c -3.873074,2.231035 -7.278193,5.165228 -10.096204,8.64951 l 14.953252,38.786914 5.478228,-14.168605 14.364767,0 5.476185,14.168605 15.108547,-39.254842 C 74.75238,24.160711 71.544681,21.421843 67.94354,19.309453 l -10.488528,28.882786 -14.795915,0 -10.529394,-29.0013 z M 83.444411,37.58724 66.417156,82.009721 c 11.430636,-5.987192 19.295376,-17.96541 19.295376,-31.741436 0,-4.462193 -0.781757,-8.728735 -2.268121,-12.681045 z m -67.281464,0.782604 c -1.329858,3.717401 -2.035178,7.711102 -2.035178,11.898441 0,13.463608 7.515094,25.282028 18.631287,31.349112 L 16.162947,38.369844 Z m 33.466026,21.682011 -9.24004,23.954221 -0.03678,0.741736 c 3.050952,0.862128 6.259277,1.291399 9.587409,1.291399 3.130011,0 6.144825,-0.391178 9.041834,-1.13406 L 58.864926,84.006076 49.628973,60.051855 Z"
     id="path14"
     inkscape:connector-curvature="0" />
</svg>
