<?xml version="1.0" encoding="UTF-8" standalone="no"?>
<!-- Created with Inkscape (http://www.inkscape.org/) -->

<svg
   xmlns:dc="http://purl.org/dc/elements/1.1/"
   xmlns:cc="http://creativecommons.org/ns#"
   xmlns:rdf="http://www.w3.org/1999/02/22-rdf-syntax-ns#"
   xmlns:svg="http://www.w3.org/2000/svg"
   xmlns="http://www.w3.org/2000/svg"
   xmlns:sodipodi="http://sodipodi.sourceforge.net/DTD/sodipodi-0.dtd"
   xmlns:inkscape="http://www.inkscape.org/namespaces/inkscape"
   id="svg2"
   version="1.1"
   inkscape:version="0.91 r13725"
   width="100"
   height="100"
   sodipodi:docname="brand-opel.svg">
  <metadata
     id="metadata8">
    <rdf:RDF>
      <cc:Work
         rdf:about="">
        <dc:format>image/svg+xml</dc:format>
        <dc:type
           rdf:resource="http://purl.org/dc/dcmitype/StillImage" />
        <dc:title></dc:title>
      </cc:Work>
    </rdf:RDF>
  </metadata>
  <defs
     id="defs6" />
  <sodipodi:namedview
     pagecolor="#ffffff"
     bordercolor="#666666"
     borderopacity="1"
     objecttolerance="10"
     gridtolerance="10"
     guidetolerance="10"
     inkscape:pageopacity="0"
     inkscape:pageshadow="2"
     inkscape:window-width="1920"
     inkscape:window-height="1056"
     id="namedview4"
     showgrid="false"
     inkscape:zoom="3.6875"
     inkscape:cx="160.33613"
     inkscape:cy="4.8807746"
     inkscape:window-x="2560"
     inkscape:window-y="24"
     inkscape:window-maximized="1"
     inkscape:current-layer="svg2"
     showborder="true" />
  <path
     style="fill:#000000"
     d=""
     id="path3011"
     inkscape:connector-curvature="0" />
  <path
     style="fill:#000000"
     d=""
     id="path3009"
     inkscape:connector-curvature="0" />
  <path
     style="fill:#000000"
     d=""
     id="path2989"
     inkscape:connector-curvature="0" />
  <path
     style="fill:#000000"
     d=""
     id="path2987"
     inkscape:connector-curvature="0" />
  <path
     style="fill:#000000"
     d=""
     id="path3813"
     inkscape:connector-curvature="0" />
  <path
     style="fill:#000000"
     d="m 47.455771,89.438347 c -0.1572,-0.01509 -0.708383,-0.06668 -1.224854,-0.114523 C 30.765611,87.891573 17.275884,77.007807 12.484404,62.096493 c -1.430004,-4.450195 -2.1137,-9.459224 -1.8836,-13.799821 0.04524,-0.853295 0.0609,-1.573772 0.03482,-1.60104 -0.02606,-0.02726 -2.1782323,-0.180687 -4.7825054,-0.340926 L 1.118011,46.063369 0.88364669,45.801077 C 0.69810273,45.593427 0.65804636,45.484835 0.69131265,45.279805 0.72878939,45.048922 2.6383129,42.287456 3.1436766,41.733277 3.5207912,41.319754 3.5710329,41.31511 7.6670526,41.31511 l 3.8207044,0 0.268919,-1.099994 c 1.224538,-5.008668 3.642557,-10.042072 6.861256,-14.282548 5.678407,-7.480988 13.846707,-12.721963 22.981626,-14.745523 2.719969,-0.602531 4.684707,-0.823962 7.791659,-0.878144 3.972771,-0.06928 6.787565,0.235817 10.378247,1.124922 14.576591,3.609364 25.986909,15.395902 29.122864,30.083089 0.656747,3.075895 0.820289,4.774204 0.820289,8.518533 0,2.979984 0.0034,3.04596 0.163305,3.07779 0.08983,0.0179 2.239264,0.160812 4.776531,0.317611 l 4.613233,0.28508 0.233738,0.261601 c 0.18469,0.206703 0.224947,0.315798 0.191844,0.519834 -0.05258,0.324021 -2.262959,3.405485 -2.660208,3.708567 l -0.283198,0.216062 -3.943768,0.02269 -3.943795,0.02269 -0.07749,0.303948 c -0.0426,0.167175 -0.103223,0.432555 -0.13467,0.589752 -0.03146,0.157186 -0.256603,0.963806 -0.500337,1.792501 -2.38741,8.117282 -7.422519,15.350467 -14.257588,20.481705 -5.889585,4.421453 -12.863087,7.080106 -20.288896,7.735191 -1.221721,0.107738 -5.267342,0.152483 -6.145556,0.06797 z m 4.980998,-5.580966 c 7.049379,-0.521998 13.353239,-3.022038 19.025776,-7.545416 1.312283,-1.046428 4.064201,-3.798326 5.110932,-5.11086 2.464708,-3.090635 4.23227,-6.188569 5.546973,-9.721913 0.337743,-0.90775 0.937221,-2.791472 0.937221,-2.945066 0,-0.04048 -10.912166,-0.07136 -25.246787,-0.07136 l -25.246762,0 -0.188991,-0.177552 c -0.210599,-0.197847 -0.253445,-0.604223 -0.08693,-0.824413 0.09067,-0.119846 7.738733,-5.439795 11.101578,-7.722172 0.705357,-0.478727 1.284095,-0.890237 1.286096,-0.914464 0.0055,-0.06738 -28.33379,-1.817593 -28.397559,-1.753781 -0.03074,0.03077 -0.05566,1.311341 -0.0554,2.845774 0,2.994115 0.07629,3.924699 0.499758,6.137765 1.681607,8.788065 6.666158,16.462158 14.125471,21.747236 1.81175,1.283675 4.741422,2.87806 6.768088,3.683335 4.795165,1.905293 9.962313,2.732584 14.820537,2.372837 z M 84.144063,51.889524 C 84.30063,49.943663 84.109975,46.604505 83.703942,44.180758 82.022019,34.14083 75.460819,25.031886 66.270106,19.977233 62.467641,17.885988 58.317694,16.574895 53.784081,16.032525 52.27257,15.8517 48.329643,15.827859 46.884164,15.99081 c -7.025613,0.791994 -13.118059,3.396398 -18.576682,7.941171 -1.132265,0.942715 -3.18646,3.014833 -4.208031,4.244788 -2.427782,2.922975 -4.332726,6.142794 -5.67151,9.586319 -0.423541,1.089394 -1.103131,3.181868 -1.103131,3.396514 0,0.152577 0.476703,0.155513 25.236971,0.155513 15.99999,0 25.290712,0.02878 25.383747,0.07849 0.248182,0.13283 0.366113,0.523589 0.23776,0.787752 -0.07695,0.158379 -1.946765,1.484225 -6.298597,4.466233 -3.404034,2.332549 -6.176007,4.254113 -6.159978,4.270151 0.02801,0.02796 4.549246,0.321437 19.9431,1.294391 3.907238,0.246944 7.269398,0.462701 7.471497,0.47944 0.202098,0.01673 0.496073,0.02679 0.653245,0.02246 l 0.285818,-0.0082 0.0657,-0.816564 z"
     id="path3417"
     inkscape:connector-curvature="0" />
</svg>
