<?xml version="1.0" encoding="UTF-8" standalone="no"?>
<!-- Created with Inkscape (http://www.inkscape.org/) -->

<svg
   xmlns:dc="http://purl.org/dc/elements/1.1/"
   xmlns:cc="http://creativecommons.org/ns#"
   xmlns:rdf="http://www.w3.org/1999/02/22-rdf-syntax-ns#"
   xmlns:svg="http://www.w3.org/2000/svg"
   xmlns="http://www.w3.org/2000/svg"
   xmlns:xlink="http://www.w3.org/1999/xlink"
   xmlns:sodipodi="http://sodipodi.sourceforge.net/DTD/sodipodi-0.dtd"
   xmlns:inkscape="http://www.inkscape.org/namespaces/inkscape"
   id="svg2"
   version="1.1"
   inkscape:version="0.91 r13725"
   width="100"
   height="100"
   sodipodi:docname="brand-porsche.svg">
  <metadata
     id="metadata8">
    <rdf:RDF>
      <cc:Work
         rdf:about="">
        <dc:format>image/svg+xml</dc:format>
        <dc:type
           rdf:resource="http://purl.org/dc/dcmitype/StillImage" />
        <dc:title></dc:title>
      </cc:Work>
    </rdf:RDF>
  </metadata>
  <defs
     id="defs6">
    <clipPath
       id="clipPath11958">
      <path
         id="path11960"
         d="m 462.047,30.898 167.008,0 0,42.52 -167.008,0 0,-42.52 z" />
    </clipPath>
    <linearGradient
       spreadMethod="pad"
       gradientTransform="matrix(0,3.4396057,-3.4396057,0,483.30507,48.505646)"
       gradientUnits="userSpaceOnUse"
       id="linearGradient11942"
       y2="0"
       x2="1"
       y1="0"
       x1="0">
      <stop
         offset="0"
         style="stop-color:#3f464d;stop-opacity:1"
         id="stop11944" />
      <stop
         offset="0.76118499"
         style="stop-color:#ffffff;stop-opacity:1"
         id="stop11946" />
      <stop
         offset="0.76118499"
         style="stop-color:#ffffff;stop-opacity:1"
         id="stop11948" />
      <stop
         offset="1"
         style="stop-color:#ffffff;stop-opacity:1"
         id="stop11950" />
    </linearGradient>
    <clipPath
       id="clipPath11898">
      <path
         id="path11900"
         d="m 462.047,30.898 167.008,0 0,42.52 -167.008,0 0,-42.52 z" />
    </clipPath>
    <radialGradient
       spreadMethod="pad"
       gradientTransform="matrix(19.988541,0,0,19.988541,483.30972,52.154846)"
       gradientUnits="userSpaceOnUse"
       id="radialGradient11886"
       fy="0"
       fx="0"
       r="1"
       cy="0"
       cx="0">
      <stop
         offset="0"
         style="stop-color:#cfd1cc;stop-opacity:1"
         id="stop11888" />
      <stop
         offset="1"
         style="stop-color:#c0c3c1;stop-opacity:1"
         id="stop11890" />
    </radialGradient>
    <linearGradient
       spreadMethod="pad"
       gradientTransform="matrix(3.2230377,-0.1125488,0.1125488,3.2230377,480.41757,61.834518)"
       gradientUnits="userSpaceOnUse"
       id="linearGradient11862"
       y2="0"
       x2="1"
       y1="0"
       x1="0">
      <stop
         offset="0"
         style="stop-color:#ffffff;stop-opacity:1"
         id="stop11864" />
      <stop
         offset="0.94000202"
         style="stop-color:#c0c3c1;stop-opacity:1"
         id="stop11866" />
      <stop
         offset="0.94000202"
         style="stop-color:#c0c3c1;stop-opacity:1"
         id="stop11868" />
      <stop
         offset="1"
         style="stop-color:#c0c3c1;stop-opacity:1"
         id="stop11870" />
    </linearGradient>
    <linearGradient
       spreadMethod="pad"
       gradientTransform="matrix(-1.7405396,-2.7321167,2.7321167,-1.7405396,492.76212,49.972794)"
       gradientUnits="userSpaceOnUse"
       id="linearGradient11838"
       y2="0"
       x2="1"
       y1="0"
       x1="0">
      <stop
         offset="0"
         style="stop-color:#ffffff;stop-opacity:1"
         id="stop11840" />
      <stop
         offset="0.89999402"
         style="stop-color:#c0c3c1;stop-opacity:1"
         id="stop11842" />
      <stop
         offset="0.89999402"
         style="stop-color:#c0c3c1;stop-opacity:1"
         id="stop11844" />
      <stop
         offset="1"
         style="stop-color:#c0c3c1;stop-opacity:1"
         id="stop11846" />
    </linearGradient>
    <linearGradient
       spreadMethod="pad"
       gradientTransform="matrix(1.6771393,-2.7368317,-2.7368317,-1.6771393,473.80818,50.101639)"
       gradientUnits="userSpaceOnUse"
       id="linearGradient11814"
       y2="0"
       x2="1"
       y1="0"
       x1="0">
      <stop
         offset="0"
         style="stop-color:#ffffff;stop-opacity:1"
         id="stop11816" />
      <stop
         offset="0.94000202"
         style="stop-color:#c0c3c1;stop-opacity:1"
         id="stop11818" />
      <stop
         offset="0.94000202"
         style="stop-color:#c0c3c1;stop-opacity:1"
         id="stop11820" />
      <stop
         offset="1"
         style="stop-color:#c0c3c1;stop-opacity:1"
         id="stop11822" />
    </linearGradient>
    <clipPath
       id="clipPath10694">
      <path
         id="path10696"
         d="m 462.047,30.898 167.008,0 0,42.52 -167.008,0 0,-42.52 z" />
    </clipPath>
    <linearGradient
       spreadMethod="pad"
       gradientTransform="matrix(-30.004471,30.004471,-30.004471,-30.004471,498.34721,37.11496)"
       gradientUnits="userSpaceOnUse"
       id="linearGradient10676"
       y2="0"
       x2="1"
       y1="0"
       x1="0">
      <stop
         offset="0"
         style="stop-color:#363d44;stop-opacity:1"
         id="stop10678" />
      <stop
         offset="0.5"
         style="stop-color:#5e6469;stop-opacity:1"
         id="stop10680" />
      <stop
         offset="0.5"
         style="stop-color:#5e6469;stop-opacity:1"
         id="stop10682" />
      <stop
         offset="0.97000098"
         style="stop-color:#8c9296;stop-opacity:1"
         id="stop10684" />
      <stop
         offset="1"
         style="stop-color:#8c9296;stop-opacity:1"
         id="stop10686" />
    </linearGradient>
    <linearGradient
       spreadMethod="pad"
       gradientTransform="matrix(29.938766,-29.938766,29.938766,29.938766,468.34724,67.126709)"
       gradientUnits="userSpaceOnUse"
       id="linearGradient10648"
       y2="0"
       x2="1"
       y1="0"
       x1="0">
      <stop
         offset="0"
         style="stop-color:#363d44;stop-opacity:1"
         id="stop10650" />
      <stop
         offset="0.24176"
         style="stop-color:#7a8084;stop-opacity:1"
         id="stop10652" />
      <stop
         offset="0.24176"
         style="stop-color:#7a8084;stop-opacity:1"
         id="stop10654" />
      <stop
         offset="0.5"
         style="stop-color:#5e6469;stop-opacity:1"
         id="stop10656" />
      <stop
         offset="0.97000098"
         style="stop-color:#8c9296;stop-opacity:1"
         id="stop10658" />
      <stop
         offset="1"
         style="stop-color:#8c9296;stop-opacity:1"
         id="stop10660" />
    </linearGradient>
    <clipPath
       id="clipPath10620">
      <path
         id="path10622"
         d="m 462.047,30.898 167.008,0 0,42.52 -167.008,0 0,-42.52 z" />
    </clipPath>
    <linearGradient
       spreadMethod="pad"
       gradientTransform="matrix(0,-39.799469,39.799469,0,492.75972,72.029831)"
       gradientUnits="userSpaceOnUse"
       id="linearGradient10598"
       y2="0"
       x2="1"
       y1="0"
       x1="0">
      <stop
         offset="0"
         style="stop-color:#3a4148;stop-opacity:1"
         id="stop10600" />
      <stop
         offset="0.166199"
         style="stop-color:#2e353d;stop-opacity:1"
         id="stop10602" />
      <stop
         offset="0.166199"
         style="stop-color:#2e353d;stop-opacity:1"
         id="stop10604" />
      <stop
         offset="0.5"
         style="stop-color:#131822;stop-opacity:1"
         id="stop10606" />
      <stop
         offset="0.83380097"
         style="stop-color:#363d44;stop-opacity:1"
         id="stop10608" />
      <stop
         offset="0.97000098"
         style="stop-color:#d7d9d2;stop-opacity:1"
         id="stop10610" />
      <stop
         offset="1"
         style="stop-color:#d7d9d2;stop-opacity:1"
         id="stop10612" />
    </linearGradient>
    <linearGradient
       spreadMethod="pad"
       gradientTransform="matrix(0,-36.695374,36.695374,0,472.77223,72.217331)"
       gradientUnits="userSpaceOnUse"
       id="linearGradient10568"
       y2="0"
       x2="1"
       y1="0"
       x1="0">
      <stop
         offset="0"
         style="stop-color:#e9ece6;stop-opacity:1"
         id="stop10570" />
      <stop
         offset="0.166199"
         style="stop-color:#363d44;stop-opacity:1"
         id="stop10572" />
      <stop
         offset="0.166199"
         style="stop-color:#363d44;stop-opacity:1"
         id="stop10574" />
      <stop
         offset="0.5"
         style="stop-color:#131822;stop-opacity:1"
         id="stop10576" />
      <stop
         offset="0.83380097"
         style="stop-color:#3f464d;stop-opacity:1"
         id="stop10578" />
      <stop
         offset="0.97000098"
         style="stop-color:#565d63;stop-opacity:1"
         id="stop10580" />
      <stop
         offset="1"
         style="stop-color:#565d63;stop-opacity:1"
         id="stop10582" />
    </linearGradient>
    <clipPath
       id="clipPath9896">
      <path
         id="path9898"
         d="m 462.047,30.898 167.008,0 0,42.52 -167.008,0 0,-42.52 z" />
    </clipPath>
    <linearGradient
       spreadMethod="pad"
       gradientTransform="matrix(29.938919,-29.938919,29.938919,29.938919,459.42224,58.196991)"
       gradientUnits="userSpaceOnUse"
       id="linearGradient9878"
       y2="0"
       x2="1"
       y1="0"
       x1="0">
      <stop
         offset="0"
         style="stop-color:#1d232c;stop-opacity:1"
         id="stop9880" />
      <stop
         offset="0.45890799"
         style="stop-color:#3a4148;stop-opacity:1"
         id="stop9882" />
      <stop
         offset="0.45890799"
         style="stop-color:#3a4148;stop-opacity:1"
         id="stop9884" />
      <stop
         offset="0.83380097"
         style="stop-color:#dcddd7;stop-opacity:1"
         id="stop9886" />
      <stop
         offset="1"
         style="stop-color:#dcddd7;stop-opacity:1"
         id="stop9888" />
    </linearGradient>
    <linearGradient
       spreadMethod="pad"
       gradientTransform="matrix(0,-42.339859,42.339859,0,493.92221,73.304825)"
       gradientUnits="userSpaceOnUse"
       id="linearGradient9848"
       y2="0"
       x2="1"
       y1="0"
       x1="0">
      <stop
         offset="0"
         style="stop-color:#e9ece6;stop-opacity:1"
         id="stop9850" />
      <stop
         offset="0.166199"
         style="stop-color:#5e6469;stop-opacity:1"
         id="stop9852" />
      <stop
         offset="0.166199"
         style="stop-color:#5e6469;stop-opacity:1"
         id="stop9854" />
      <stop
         offset="0.5"
         style="stop-color:#1d232c;stop-opacity:1"
         id="stop9856" />
      <stop
         offset="0.83380097"
         style="stop-color:#131822;stop-opacity:1"
         id="stop9858" />
      <stop
         offset="0.97000098"
         style="stop-color:#2e353d;stop-opacity:1"
         id="stop9860" />
      <stop
         offset="1"
         style="stop-color:#2e353d;stop-opacity:1"
         id="stop9862" />
    </linearGradient>
    <linearGradient
       spreadMethod="pad"
       gradientTransform="matrix(29.938766,-29.938766,29.938766,29.938766,468.34724,67.126709)"
       gradientUnits="userSpaceOnUse"
       id="linearGradient9818"
       y2="0"
       x2="1"
       y1="0"
       x1="0">
      <stop
         offset="0"
         style="stop-color:#fbfaf6;stop-opacity:1"
         id="stop9820" />
      <stop
         offset="0.166168"
         style="stop-color:#e9ece6;stop-opacity:1"
         id="stop9822" />
      <stop
         offset="0.166168"
         style="stop-color:#e9ece6;stop-opacity:1"
         id="stop9824" />
      <stop
         offset="0.39999399"
         style="stop-color:#b7b9bb;stop-opacity:1"
         id="stop9826" />
      <stop
         offset="0.83383203"
         style="stop-color:#2c353d;stop-opacity:1"
         id="stop9828" />
      <stop
         offset="0.97000098"
         style="stop-color:#3f464d;stop-opacity:1"
         id="stop9830" />
      <stop
         offset="1"
         style="stop-color:#3f464d;stop-opacity:1"
         id="stop9832" />
    </linearGradient>
    <linearGradient
       spreadMethod="pad"
       gradientTransform="matrix(29.938766,-29.938766,29.938766,29.938766,468.34724,67.126709)"
       gradientUnits="userSpaceOnUse"
       id="linearGradient9788"
       y2="0"
       x2="1"
       y1="0"
       x1="0">
      <stop
         offset="0"
         style="stop-color:#141d29;stop-opacity:1"
         id="stop9790" />
      <stop
         offset="0.166168"
         style="stop-color:#353c44;stop-opacity:1"
         id="stop9792" />
      <stop
         offset="0.166168"
         style="stop-color:#353c44;stop-opacity:1"
         id="stop9794" />
      <stop
         offset="0.5"
         style="stop-color:#a5a9ac;stop-opacity:1"
         id="stop9796" />
      <stop
         offset="0.83383203"
         style="stop-color:#d7d9d2;stop-opacity:1"
         id="stop9798" />
      <stop
         offset="0.95054603"
         style="stop-color:#fbfaf6;stop-opacity:1"
         id="stop9800" />
      <stop
         offset="1"
         style="stop-color:#fbfaf6;stop-opacity:1"
         id="stop9802" />
    </linearGradient>
    <linearGradient
       spreadMethod="pad"
       gradientTransform="matrix(-0.1005096,0.1740875,-0.1740875,-0.1005096,486.55632,53.9142)"
       gradientUnits="userSpaceOnUse"
       id="linearGradient9768"
       y2="0"
       x2="1"
       y1="0"
       x1="0">
      <stop
         offset="0"
         style="stop-color:#62686d;stop-opacity:1"
         id="stop9770" />
      <stop
         offset="1"
         style="stop-color:#4e575e;stop-opacity:1"
         id="stop9772" />
    </linearGradient>
    <clipPath
       id="clipPath9748">
      <path
         id="path9750"
         d="m 462.047,30.898 167.008,0 0,42.52 -167.008,0 0,-42.52 z" />
    </clipPath>
    <clipPath
       id="clipPath11958-5">
      <path
         id="path11960-1"
         d="m 462.047,30.898 167.008,0 0,42.52 -167.008,0 0,-42.52 z" />
    </clipPath>
    <linearGradient
       spreadMethod="pad"
       gradientTransform="matrix(0,3.4396057,-3.4396057,0,483.30507,48.505646)"
       gradientUnits="userSpaceOnUse"
       xlink:href="#linearGradient11942"
       id="linearGradient15978-5"
       y2="0"
       x2="1"
       y1="0"
       x1="0" />
    <clipPath
       id="clipPath11898-1">
      <path
         id="path11900-7"
         d="m 462.047,30.898 167.008,0 0,42.52 -167.008,0 0,-42.52 z" />
    </clipPath>
    <radialGradient
       spreadMethod="pad"
       gradientTransform="matrix(19.988541,0,0,19.988541,483.30972,52.154846)"
       gradientUnits="userSpaceOnUse"
       xlink:href="#radialGradient11886-2"
       id="radialGradient15976-2"
       fy="0"
       fx="0"
       r="1"
       cy="0"
       cx="0" />
    <radialGradient
       spreadMethod="pad"
       gradientTransform="matrix(19.988541,0,0,19.988541,483.30972,52.154846)"
       gradientUnits="userSpaceOnUse"
       id="radialGradient11886-2"
       fy="0"
       fx="0"
       r="1"
       cy="0"
       cx="0">
      <stop
         offset="0"
         style="stop-color:#cfd1cc;stop-opacity:1"
         id="stop11888-1" />
      <stop
         offset="1"
         style="stop-color:#c0c3c1;stop-opacity:1"
         id="stop11890-2" />
    </radialGradient>
    <linearGradient
       spreadMethod="pad"
       gradientTransform="matrix(3.2230377,-0.1125488,0.1125488,3.2230377,480.41757,61.834518)"
       gradientUnits="userSpaceOnUse"
       xlink:href="#linearGradient11862"
       id="linearGradient15974-5"
       y2="0"
       x2="1"
       y1="0"
       x1="0" />
    <linearGradient
       spreadMethod="pad"
       gradientTransform="matrix(-1.7405396,-2.7321167,2.7321167,-1.7405396,492.76212,49.972794)"
       gradientUnits="userSpaceOnUse"
       xlink:href="#linearGradient11838"
       id="linearGradient15972-0"
       y2="0"
       x2="1"
       y1="0"
       x1="0" />
    <linearGradient
       spreadMethod="pad"
       gradientTransform="matrix(1.6771393,-2.7368317,-2.7368317,-1.6771393,473.80818,50.101639)"
       gradientUnits="userSpaceOnUse"
       xlink:href="#linearGradient11814"
       id="linearGradient15970-2"
       y2="0"
       x2="1"
       y1="0"
       x1="0" />
    <clipPath
       id="clipPath10694-8">
      <path
         id="path10696-8"
         d="m 462.047,30.898 167.008,0 0,42.52 -167.008,0 0,-42.52 z" />
    </clipPath>
    <linearGradient
       spreadMethod="pad"
       gradientTransform="matrix(-30.004471,30.004471,-30.004471,-30.004471,498.34721,37.11496)"
       gradientUnits="userSpaceOnUse"
       xlink:href="#linearGradient10676"
       id="linearGradient15968-6"
       y2="0"
       x2="1"
       y1="0"
       x1="0" />
    <linearGradient
       spreadMethod="pad"
       gradientTransform="matrix(29.938766,-29.938766,29.938766,29.938766,468.34724,67.126709)"
       gradientUnits="userSpaceOnUse"
       xlink:href="#linearGradient10648"
       id="linearGradient15966-2"
       y2="0"
       x2="1"
       y1="0"
       x1="0" />
    <clipPath
       id="clipPath10620-0">
      <path
         id="path10622-3"
         d="m 462.047,30.898 167.008,0 0,42.52 -167.008,0 0,-42.52 z" />
    </clipPath>
    <linearGradient
       spreadMethod="pad"
       gradientTransform="matrix(0,-39.799469,39.799469,0,492.75972,72.029831)"
       gradientUnits="userSpaceOnUse"
       xlink:href="#linearGradient10598"
       id="linearGradient15964-0"
       y2="0"
       x2="1"
       y1="0"
       x1="0" />
    <linearGradient
       spreadMethod="pad"
       gradientTransform="matrix(0,-36.695374,36.695374,0,472.77223,72.217331)"
       gradientUnits="userSpaceOnUse"
       xlink:href="#linearGradient10568"
       id="linearGradient15962-5"
       y2="0"
       x2="1"
       y1="0"
       x1="0" />
    <clipPath
       id="clipPath9896-9">
      <path
         id="path9898-0"
         d="m 462.047,30.898 167.008,0 0,42.52 -167.008,0 0,-42.52 z" />
    </clipPath>
    <linearGradient
       spreadMethod="pad"
       gradientTransform="matrix(29.938919,-29.938919,29.938919,29.938919,459.42224,58.196991)"
       gradientUnits="userSpaceOnUse"
       xlink:href="#linearGradient9878"
       id="linearGradient15960-3"
       y2="0"
       x2="1"
       y1="0"
       x1="0" />
    <linearGradient
       spreadMethod="pad"
       gradientTransform="matrix(0,-42.339859,42.339859,0,493.92221,73.304825)"
       gradientUnits="userSpaceOnUse"
       xlink:href="#linearGradient9848"
       id="linearGradient15958-9"
       y2="0"
       x2="1"
       y1="0"
       x1="0" />
    <linearGradient
       spreadMethod="pad"
       gradientTransform="matrix(29.938766,-29.938766,29.938766,29.938766,468.34724,67.126709)"
       gradientUnits="userSpaceOnUse"
       xlink:href="#linearGradient9818"
       id="linearGradient15956-5"
       y2="0"
       x2="1"
       y1="0"
       x1="0" />
    <linearGradient
       spreadMethod="pad"
       gradientTransform="matrix(29.938766,-29.938766,29.938766,29.938766,468.34724,67.126709)"
       gradientUnits="userSpaceOnUse"
       xlink:href="#linearGradient9788"
       id="linearGradient15954-8"
       y2="0"
       x2="1"
       y1="0"
       x1="0" />
    <linearGradient
       spreadMethod="pad"
       gradientTransform="matrix(-0.1005096,0.1740875,-0.1740875,-0.1005096,486.55632,53.9142)"
       gradientUnits="userSpaceOnUse"
       xlink:href="#linearGradient9768"
       id="linearGradient15952-0"
       y2="0"
       x2="1"
       y1="0"
       x1="0" />
    <clipPath
       id="clipPath9748-2">
      <path
         id="path9750-4"
         d="m 462.047,30.898 167.008,0 0,42.52 -167.008,0 0,-42.52 z" />
    </clipPath>
    <linearGradient
       id="linearGradient5015">
      <stop
         offset="0"
         style="stop-color:#000000;stop-opacity:1"
         id="stop5017" />
      <stop
         offset="1"
         style="stop-color:#000000;stop-opacity:0"
         id="stop5019" />
    </linearGradient>
    <clipPath
       id="clp22">
      <path
         id="path947"
         d="M 0,8.9314 L 0,0 L 1,0 L 1,8.9314" />
    </clipPath>
    <clipPath
       id="clp21">
      <path
         id="path939"
         d="M 1064.1,42.561 L 1156.5,42.561 L 1156.5,76.736 L 1064.1,76.736 L 1064.1,42.561 z" />
    </clipPath>
    <linearGradient
       gradientUnits="userSpaceOnUse"
       xlink:href="#linearGradient5015"
       id="linearGradient5021"
       y2="66.170547"
       x2="1152.9564"
       y1="66.170547"
       x1="1066.9561" />
  </defs>
  <sodipodi:namedview
     pagecolor="#ffffff"
     bordercolor="#666666"
     borderopacity="1"
     objecttolerance="10"
     gridtolerance="10"
     guidetolerance="10"
     inkscape:pageopacity="0"
     inkscape:pageshadow="2"
     inkscape:window-width="1920"
     inkscape:window-height="1056"
     id="namedview4"
     showgrid="false"
     inkscape:zoom="0.65186407"
     inkscape:cx="-161.82336"
     inkscape:cy="-252.87638"
     inkscape:window-x="2560"
     inkscape:window-y="24"
     inkscape:window-maximized="1"
     inkscape:current-layer="g7458"
     showborder="true" />
  <path
     style="fill:#000000"
     d=""
     id="path3011"
     inkscape:connector-curvature="0" />
  <path
     style="fill:#000000"
     d=""
     id="path3009"
     inkscape:connector-curvature="0" />
  <path
     style="fill:#000000"
     d=""
     id="path2989"
     inkscape:connector-curvature="0" />
  <path
     style="fill:#000000"
     d=""
     id="path2987"
     inkscape:connector-curvature="0" />
  <path
     style="fill:#000000"
     d=""
     id="path3813"
     inkscape:connector-curvature="0" />
  <g
     id="layer1"
     transform="translate(-402.39284,-411.39037)">
    <g
       id="g7458"
       transform="translate(-289.36493,-153.90483)">
      <g
         id="g7432">
        <title
           id="title7434">background</title>
        <rect
           x="-1"
           y="-1"
           width="1002"
           height="1002"
           id="canvas_background"
           style="fill:none" />
      </g>
      <path
         style="fill:#000000"
         d="m 741.94357,585.19404 c -4.16877,0.0188 -8.19591,0.54756 -12.3753,1.59197 -1.68982,0.42228 -4.3654,1.26721 -5.08499,1.60575 l -0.38706,0.18208 -0.006,1.43423 -0.006,1.43423 0.0577,-1.27954 0.0577,-1.27936 0.43784,-0.24134 c 1.64049,-0.90377 6.68199,-2.13616 11.14364,-2.72402 5.16472,-0.68048 10.57255,-0.51448 16.42849,0.5043 2.41783,0.42062 5.22278,1.09185 6.44363,1.54185 0.50244,0.18518 0.49075,0.13293 0.62007,2.76068 l 0.0807,1.63985 0.0277,-2.19635 c 0.0213,-1.68912 -0.002,-2.2149 -0.10249,-2.27738 -0.47864,-0.29861 -3.69307,-1.16755 -5.7672,-1.55898 -4.10063,-0.77388 -7.88921,-1.15448 -11.56753,-1.13797 z m 0.22468,0.765 c -2.23331,0 -2.23719,0.002 -2.23719,0.96982 0,1.00657 0.0217,1.0197 1.81057,1.08 l 1.52039,0.0513 0,0.25623 0,0.25622 -1.43487,0.0644 c -0.78919,0.0354 -1.51559,0.07 -1.61424,0.0769 -0.12907,0.009 -0.17936,0.10051 -0.17936,0.32653 l 0,0.31403 1.87046,-0.0711 c 1.02876,-0.0391 1.92981,-0.11842 2.00242,-0.17616 0.0929,-0.0739 0.12327,-0.35051 0.10249,-0.93475 l -0.0294,-0.82969 -1.58862,-0.0513 c -1.57968,-0.0509 -1.58881,-0.0527 -1.6232,-0.29595 -0.0191,-0.13455 0.0271,-0.28371 0.1025,-0.33149 0.0754,-0.0478 0.81736,-0.0877 1.64882,-0.0885 l 1.51174,-0.002 0,-0.30747 0,-0.30747 -1.86245,0 z m -3.75005,0.10249 c -0.52923,0 -3.01419,0.30767 -3.25296,0.40275 -0.19502,0.0777 -0.20349,0.16222 -0.1744,1.74155 l 0.0305,1.66003 0.3283,-0.0317 c 0.31831,-0.0308 0.32966,-0.0486 0.37938,-0.59541 l 0.0513,-0.5637 0.51244,-0.0679 c 0.28186,-0.0374 0.77422,-0.0719 1.09426,-0.0769 0.50911,-0.008 0.60797,0.024 0.79014,0.25559 0.1145,0.14557 0.23617,0.35312 0.27048,0.46121 0.0476,0.14982 0.15827,0.19665 0.46553,0.19665 0.48518,0 0.49647,-0.0799 0.11098,-0.77893 -0.2878,-0.52189 -0.28788,-0.52312 -0.089,-0.76868 0.1703,-0.21032 0.1893,-0.34178 0.13132,-0.90768 -0.0812,-0.79228 -0.17529,-0.92691 -0.6481,-0.92691 z m 7.27925,0 c -0.80825,0 -0.84682,0.0768 -0.84682,1.68582 0,1.07389 0.0319,1.39021 0.15037,1.48851 0.0845,0.0701 0.85948,0.18798 1.76797,0.26873 0.88964,0.079 1.70983,0.16051 1.82257,0.18112 0.11274,0.0206 0.23957,0.0438 0.28186,0.0514 0.0422,0.008 0.0768,-0.14733 0.0768,-0.34462 0,-0.27328 -0.0427,-0.35882 -0.17935,-0.35889 -0.2952,-1.3e-4 -2.40838,-0.19847 -2.76726,-0.25974 l -0.3331,-0.0569 0,-0.97222 c 0,-0.77684 0.0314,-0.98433 0.1563,-1.03228 0.086,-0.033 0.80143,0.0169 1.58989,0.11099 0.78845,0.094 1.47914,0.14282 1.5348,0.10841 0.18602,-0.11496 0.10523,-0.46327 -0.12939,-0.55777 -0.26185,-0.10547 -2.33265,-0.3126 -3.1247,-0.3126 z m 4.06921,0.319 c -0.20665,0.0215 -0.20145,0.34936 -0.20145,1.73082 l 0,1.74235 0.35872,0 0.35871,0 0,-0.61495 c 0,-0.75199 -0.0629,-0.74268 1.97295,-0.29226 l 0.48683,0.10761 0,0.64858 c 0,0.53138 0.0324,0.65677 0.17936,0.69518 0.55852,0.14595 0.53808,0.20909 0.53808,-1.66067 0,-1.84694 -0.002,-1.85573 -0.52094,-1.85573 -0.17499,0 -0.1965,0.0785 -0.1965,0.71423 0,0.52373 -0.0342,0.70376 -0.12811,0.67532 -0.0705,-0.0214 -0.62392,-0.11952 -1.22989,-0.21828 l -1.10178,-0.17952 0,-0.68892 c 0,-0.6278 -0.0205,-0.69443 -0.2306,-0.75075 -0.12398,-0.0332 -0.21649,-0.0601 -0.28538,-0.053 z m -16.09731,0.31372 c -0.15642,-7.9e-4 -0.40807,0.0415 -0.88783,0.12699 -1.90767,0.33969 -2.61132,0.53847 -2.81129,0.79447 -0.16661,0.21328 -0.1798,0.37322 -0.1209,1.4693 0.0363,0.67644 0.10688,1.33955 0.15677,1.47364 0.10724,0.28823 0.10299,0.28851 2.32767,-0.18065 0.86337,-0.18208 1.5528,-0.38262 1.66547,-0.48459 0.16951,-0.1534 0.19233,-0.33396 0.19233,-1.52583 0,-1.22325 -0.0197,-1.36957 -0.20578,-1.53801 -0.0988,-0.0894 -0.16002,-0.13424 -0.31644,-0.13532 z m 8.92648,0.0847 c -1.50104,0 -1.63986,0.0153 -1.63986,0.18144 0,0.16629 0.13785,0.18139 1.6397,0.17936 1.49254,-0.002 1.63982,-0.0182 1.63985,-0.18144 3e-5,-0.16335 -0.14624,-0.17936 -1.63969,-0.17936 z m -4.71283,0.0705 c 0.13393,0.002 0.22431,0.0121 0.24582,0.0336 0.12168,0.12168 0.12167,0.69508 0,0.81609 -0.15324,0.15236 -2.27659,0.39201 -2.39797,0.27063 -0.14671,-0.14671 -0.13034,-0.73563 0.0237,-0.85532 0.15058,-0.11697 1.5481,-0.27242 2.12845,-0.26503 z m 8.17446,0.0373 c -0.23735,5.8e-4 -0.28442,0.0383 -0.28442,0.127 0,0.17705 0.11222,0.19938 1.94669,0.38786 0.59153,0.0608 1.09491,0.13005 1.11875,0.1539 0.11854,0.11854 0.32779,0.023 0.29755,-0.13596 -0.0396,-0.20833 -0.87491,-0.3801 -2.41494,-0.4966 -0.3103,-0.0235 -0.52123,-0.0365 -0.66363,-0.0362 z m -8.29457,0.13132 c -0.19101,-0.005 -0.48357,0.0259 -0.92016,0.0873 -0.78911,0.11106 -0.96442,0.16814 -0.99417,0.32428 -0.0302,0.15814 0.0121,0.18042 0.25511,0.13372 0.48933,-0.094 1.08922,-0.16732 1.54697,-0.18896 0.2848,-0.0135 0.43559,-0.068 0.43559,-0.15758 0,-0.12939 -0.0778,-0.19287 -0.32334,-0.19874 z m 16.67047,0.19858 -0.028,1.74298 c -0.0154,0.9587 -0.0123,1.75883 0.007,1.77806 0.0192,0.0192 0.93116,0.30986 2.02659,0.64586 1.09544,0.33599 2.02628,0.61355 2.06856,0.6167 0.12023,0.009 0.0901,-0.79403 -0.0327,-0.86989 -0.0602,-0.0373 -0.80972,-0.26225 -1.66548,-0.50012 l -1.55593,-0.43255 -0.0328,-0.3363 c -0.0193,-0.19708 0.008,-0.31102 0.0658,-0.27528 0.10573,0.0653 3.12437,0.98503 3.23311,0.98503 0.0358,0 0.0649,-0.18201 0.0649,-0.40435 l 0,-0.4042 -1.15303,-0.35697 c -0.63416,-0.19626 -1.38362,-0.42236 -1.66547,-0.50252 -0.43281,-0.12309 -0.51741,-0.18798 -0.54481,-0.41749 -0.0185,-0.15536 0.0181,-0.27176 0.0855,-0.27176 0.0649,0 0.78634,0.20754 1.60334,0.46121 0.81701,0.25366 1.50492,0.46121 1.52872,0.46121 0.0238,0 0.0433,-0.18364 0.0433,-0.40804 0,-0.35976 -0.0333,-0.41628 -0.28185,-0.47819 -0.15503,-0.0386 -1.06591,-0.28698 -2.0242,-0.55185 l -1.74235,-0.48154 z m -21.52053,0.33726 c 0.45229,-0.0109 0.45881,0.227 0.45881,0.97622 0,0.95892 0.0461,0.91919 -1.40861,1.21564 -0.56766,0.11568 -1.05784,0.21043 -1.08928,0.21043 -0.27167,0 -0.39079,-1.71906 -0.13388,-1.93228 0.0746,-0.0619 0.63192,-0.20834 1.23854,-0.32541 0.43106,-0.0832 0.72884,-0.13964 0.93442,-0.1446 z m -4.0684,0.14749 c -0.0998,0 -0.84006,0.21083 -1.64498,0.46857 -0.80493,0.25773 -1.68245,0.5381 -1.95021,0.62311 l -0.48684,0.15454 0,1.78542 c 0,1.97504 -0.0202,1.92502 0.66411,1.63906 0.33468,-0.13984 0.35139,-0.17225 0.38098,-0.73777 l 0.0311,-0.59173 1.71673,-0.5496 1.71672,-0.54962 0,-0.998 c 0,-1.0273 -0.0746,-1.24398 -0.42758,-1.24398 z m 4.20004,0.0147 c -0.13528,-0.002 -0.41906,0.0487 -1.0129,0.1499 -0.96791,0.16493 -1.2222,0.26779 -1.2222,0.49419 0,0.0886 0.24137,0.0718 0.8968,-0.0623 0.49323,-0.10093 1.02362,-0.19405 1.17864,-0.20691 0.19363,-0.0161 0.28185,-0.0807 0.28185,-0.20657 0,-0.1109 0.0131,-0.1661 -0.12219,-0.16831 z m 6.81821,0.12587 c -0.0339,-7.3e-4 -0.0341,0.0507 -0.0341,0.15359 0,0.11363 0.10243,0.27833 0.22772,0.36608 0.25605,0.17934 0.41847,0.18702 1.95982,0.0927 0.60065,-0.0368 1.09216,-0.10594 1.09216,-0.15374 0,-0.0478 -0.61645,-0.0868 -1.36985,-0.0868 -1.2306,0 -1.39724,-0.0217 -1.63985,-0.21251 -0.13441,-0.10574 -0.20198,-0.15862 -0.23589,-0.15935 z m -0.65658,0.0871 c -0.008,4.7e-4 -0.0167,0.002 -0.0263,0.006 -0.0661,0.022 -0.13487,0.11693 -0.15309,0.21091 -0.048,0.24729 0.1526,0.21047 0.21811,-0.04 0.0307,-0.11735 0.0165,-0.17962 -0.0388,-0.17632 z m 16.22831,0.54209 c -0.008,1.5e-4 -0.0126,0.002 -0.0146,0.003 -0.0836,0.0836 0.0181,0.12325 1.52472,0.59557 1.52169,0.47707 1.86059,0.55336 1.68598,0.37906 -0.11718,-0.11696 -2.95996,-0.98245 -3.19612,-0.97783 z m -27.11044,0.15421 c 0.0835,-8e-4 0.1281,0.15686 0.1281,0.45384 l 0,0.45545 -1.18296,0.36944 c -0.65063,0.20311 -1.24988,0.39479 -1.33158,0.42615 -0.1871,0.0718 -0.27665,-0.15391 -0.23429,-0.59029 0.0327,-0.337 0.0373,-0.33968 1.26272,-0.7256 0.67644,-0.21303 1.28755,-0.38807 1.35801,-0.38899 z m 9.60707,0.0496 -0.56305,0.0245 c -1.06174,0.0463 -1.43407,0.12812 -1.43407,0.31532 0,0.15736 0.0861,0.16476 0.92017,0.0785 1.03964,-0.10757 1.22726,-0.029 1.43535,0.60149 l 0,1.6e-4 c 0.10815,0.32768 0.11082,0.32874 0.69567,0.28233 0.3229,-0.0256 0.59985,-0.0574 0.61526,-0.0705 0.0154,-0.0131 -0.002,-0.10232 -0.0388,-0.1981 -0.0556,-0.14486 -0.15524,-0.16335 -0.59189,-0.11034 l -0.52478,0.0638 -0.25703,-0.49356 -0.25687,-0.49356 z m 12.60671,0.16655 c -0.14059,-5e-5 -0.15262,0.0462 -0.15262,0.13885 0,0.167 0.12267,0.20768 1.23918,0.4098 0.41761,0.0756 0.79399,0.14161 0.83626,0.14669 0.0423,0.005 0.0769,-0.083 0.0769,-0.1957 0,-0.11273 -0.0577,-0.20669 -0.12811,-0.20865 -0.0705,-0.002 -0.49708,-0.0702 -0.94804,-0.15166 -0.51378,-0.0928 -0.78294,-0.13927 -0.92354,-0.13933 z m -22.29161,0.006 c -0.1359,0.008 -0.45027,0.10468 -1.17769,0.32764 -0.77199,0.23663 -1.13785,0.398 -1.16055,0.51197 -0.0462,0.23196 0.0635,0.21547 1.32678,-0.20081 0.72006,-0.23728 1.1149,-0.41875 1.1149,-0.51246 0,-0.0845 0.002,-0.1324 -0.10344,-0.12634 z m 15.91876,0.36255 c -0.0387,0.004 -0.0922,0.0267 -0.15983,0.0705 -0.1774,0.11474 -0.68569,0.15529 -2.20355,0.17551 -1.8845,0.0251 -1.97295,0.0354 -1.97295,0.22789 0,0.19572 0.0594,0.19972 2.05942,0.14077 1.82551,-0.0538 2.07534,-0.0818 2.2002,-0.24647 0.17496,-0.23077 0.19282,-0.38118 0.0767,-0.36816 z m 0.59284,0.0286 c -0.1304,0 -0.0171,0.37868 0.15646,0.5227 0.0792,0.0658 0.89289,0.19965 1.80817,0.2977 2.20497,0.23621 2.43288,0.24124 2.43288,0.0527 0,-0.19433 -0.11401,-0.21569 -2.20356,-0.41253 -1.86707,-0.17588 -2.10106,-0.21663 -2.10106,-0.36512 0,-0.0526 -0.0418,-0.0955 -0.0929,-0.0955 z m -10.39274,0.57074 c -0.0272,0.003 -0.0741,0.0495 -0.14845,0.14125 -0.18618,0.22992 -1.20544,0.51348 -3.13446,0.87198 -0.70526,0.13106 -0.93855,0.14133 -1.05309,0.0463 -0.21555,-0.1789 -0.26415,-0.0641 -0.0826,0.19505 0.20441,0.29181 0.30087,0.28658 2.29372,-0.12379 1.4758,-0.3039 1.71637,-0.38151 1.92171,-0.62023 0.12909,-0.15008 0.23476,-0.34457 0.23476,-0.43222 0,-0.0451 -0.006,-0.0711 -0.0211,-0.0772 -0.003,-0.002 -0.006,-0.002 -0.0104,-7.9e-4 z m 21.07598,0.0898 c -0.008,2.1e-4 -0.0125,0.002 -0.0146,0.003 -0.10422,0.10422 0.0793,0.17358 1.63537,0.61767 1.80126,0.51405 1.69595,0.48943 1.56876,0.36689 -0.12884,-0.12413 -2.95252,-0.99434 -3.18955,-0.98793 z m -5.97057,0.0685 c -0.0911,0.005 -0.11018,0.0546 -0.11018,0.17424 0,0.16904 0.0773,0.21962 0.38434,0.25174 0.21138,0.0222 0.44198,0.048 0.51245,0.0575 0.0705,0.009 0.12811,-0.0749 0.12811,-0.1877 0,-0.13209 -0.0684,-0.20498 -0.19217,-0.20498 -0.10569,0 -0.3363,-0.0288 -0.51245,-0.0641 -0.069,-0.0138 -0.12359,-0.023 -0.16655,-0.026 -0.0161,-7.9e-4 -0.0305,-0.002 -0.0435,-7.9e-4 z m -13.66269,0.007 c -0.0651,-0.002 -0.16295,0.0107 -0.30939,0.0349 -0.52936,0.0876 -0.59409,0.12199 -0.53231,0.28297 0.0312,0.0812 0.21028,0.11255 0.50797,0.0889 0.37825,-0.0301 0.45993,-0.0727 0.45993,-0.24021 0,-0.11413 -0.0176,-0.16229 -0.1262,-0.16655 z m -6.37028,0.043 c -0.0415,-2e-4 -0.11179,0.0259 -0.19106,0.0745 -0.12683,0.0778 -0.93394,0.36478 -1.79359,0.63801 -0.95684,0.30413 -1.56299,0.54847 -1.56299,0.62983 0,0.20222 0.14336,0.17293 1.8655,-0.37954 1.49717,-0.48029 1.72169,-0.60182 1.72169,-0.93314 0,-0.0199 -0.0146,-0.0295 -0.0396,-0.0297 z m 12.79966,0.39909 -0.028,1.99552 c -0.0154,1.09756 -0.005,2.05472 0.0227,2.12716 0.0408,0.10609 1.71808,0.12666 8.63711,0.10555 l 8.58665,-0.0261 0.0305,-0.47018 c 0.0191,-0.29419 -0.0192,-0.51151 -0.10249,-0.58035 -0.30837,-0.25503 -3.04771,-1.1994 -4.85214,-1.67285 -3.0706,-0.80564 -7.47788,-1.40436 -10.70566,-1.45425 l -1.58861,-0.0245 z m -0.66619,0.0513 -0.94803,0.002 c -1.21615,0.002 -4.3188,0.32946 -6.22633,0.65786 -3.96012,0.68178 -7.1207,1.55443 -9.51835,2.6281 l -0.7554,0.33837 0.0652,6.36085 c 0.0358,3.49846 0.0925,6.90276 0.12604,7.56511 0.0335,0.66235 0.0858,1.20427 0.1161,1.20427 0.0303,0 0.0311,-3.38107 0.002,-7.51339 l -0.0533,-7.51338 1.19114,-0.47898 c 4.2524,-1.70996 9.62242,-2.79909 14.64322,-2.97 l 1.15303,-0.0392 0,4.38308 c 0,2.81151 0.0368,4.40588 0.10249,4.44651 0.0677,0.0419 0.10249,-1.48519 0.10249,-4.50367 l 0,-4.56678 z m 11.12203,0.11802 c -0.12293,0.002 -0.1555,0.038 -0.1555,0.12043 0,0.10384 0.15174,0.1933 0.43559,0.25687 0.62344,0.13962 0.69182,0.13684 0.69182,-0.0282 0,-0.19618 -0.0676,-0.22941 -0.64058,-0.31517 -0.15122,-0.0226 -0.25757,-0.0347 -0.33133,-0.0339 z m 1.50998,0.29371 c -0.0141,-7.9e-4 -0.0256,0.0845 -0.0256,0.18993 0,0.15605 0.21439,0.25392 1.15302,0.52671 0.63416,0.18429 1.6373,0.48636 2.22918,0.67115 1.2872,0.40187 1.2533,0.39688 1.21132,0.17888 -0.0251,-0.13013 -0.60096,-0.34903 -2.28795,-0.86941 -1.23995,-0.38249 -2.26586,-0.69623 -2.27995,-0.69726 z m -18.85768,1.5356 c -1.00063,0 -1.79767,0.72878 -1.9358,1.77005 -0.0759,0.57208 -0.11522,0.59966 -1.19722,0.84123 -0.9036,0.20174 -0.89065,0.20368 -0.88992,-0.12588 7.9e-4,-0.55459 0.2233,-1.0667 0.66108,-1.52359 0.49589,-0.51754 0.43514,-0.6343 -0.23622,-0.45352 -0.87706,0.23617 -1.27864,0.85671 -1.27921,1.97711 -1.9e-4,0.32413 -0.004,0.58995 -0.009,0.59077 -0.005,7.9e-4 -0.48731,0.1612 -1.07246,0.35647 -0.58517,0.19528 -1.10403,0.33024 -1.15303,0.29994 -0.30158,-0.18637 0.0839,-1.39867 0.64873,-2.04035 0.2282,-0.25925 0.39769,-0.48825 0.37665,-0.50894 -0.0929,-0.0914 -0.8581,0.26166 -1.1386,0.52527 -0.44954,0.42246 -0.59077,0.8423 -0.59077,1.75644 l 0,0.80695 -0.48875,0.26599 -0.48875,0.266 -0.17648,-0.30748 c -0.14645,-0.25516 -0.23163,-0.30199 -0.50028,-0.27528 -0.43013,0.0428 -0.58138,0.28955 -0.42742,0.69743 0.10955,0.29022 0.098,0.32185 -0.16895,0.45993 -0.35072,0.18134 -0.43881,0.38514 -0.31132,0.72047 0.11573,0.30438 0.54019,0.34727 0.90544,0.0914 0.21523,-0.15075 0.24936,-0.15017 0.42326,0.007 0.11865,0.10738 0.31685,0.15896 0.53183,0.13836 0.30512,-0.0292 0.34617,-0.0701 0.37521,-0.37265 0.018,-0.18688 -0.0226,-0.40644 -0.0902,-0.48779 -0.10274,-0.1238 0.0508,-0.22924 0.94116,-0.64745 1.43523,-0.67414 2.87415,-1.2027 4.29229,-1.57661 1.0715,-0.2825 1.33236,-0.31175 2.86974,-0.32076 1.57893,-0.009 1.72849,0.006 2.2548,0.23893 0.31004,0.13684 0.69321,0.33792 0.85147,0.4468 0.36237,0.24931 0.43838,0.17892 0.23381,-0.21668 -0.20214,-0.39088 -0.63172,-0.69794 -1.2893,-0.92145 -0.50483,-0.1716 -0.51219,-0.17994 -0.35455,-0.405 0.20487,-0.2925 0.67549,-0.53927 1.32725,-0.69613 l 0.51246,-0.12332 -0.38114,-0.16574 c -0.20958,-0.0912 -0.4996,-0.16575 -0.64457,-0.16575 -0.43484,0 -1.03921,0.37718 -1.3926,0.86925 l -0.33245,0.46313 -0.90704,0 -0.90706,0 0.066,-0.28184 c 0.1785,-0.76225 0.85445,-1.58292 1.42077,-1.72506 0.39709,-0.0997 0.20031,-0.2479 -0.32908,-0.2479 z m -9.52909,0.0166 c -0.0798,0.003 -0.24532,0.0673 -0.58869,0.19569 -0.32434,0.12136 -0.56755,0.27507 -0.56755,0.35872 0,0.18384 0.0191,0.18308 0.68269,-0.0261 0.39717,-0.12521 0.5472,-0.2235 0.5472,-0.35872 0,-0.11496 0.006,-0.17274 -0.0737,-0.1696 z m 10.46383,0.29851 c -0.0637,0.004 -0.18798,0.052 -0.4263,0.15149 -0.57035,0.23826 -1.25357,0.97364 -1.25182,1.34744 2e-4,0.0451 0.086,-0.0585 0.19056,-0.22996 0.25158,-0.41256 0.74932,-0.82283 1.19258,-0.98312 0.19732,-0.0714 0.35888,-0.16666 0.35888,-0.21171 0,-0.0425 -0.008,-0.0678 -0.0402,-0.0733 -0.007,-8e-4 -0.0146,-0.002 -0.0237,-8e-4 z m -3.42463,0.29978 c -0.13381,0 -1.02107,0.90577 -1.02107,1.04237 0,0.0556 0.2111,-0.11006 0.46922,-0.36816 0.25811,-0.25813 0.51177,-0.46923 0.5637,-0.46923 0.0519,0 0.0945,-0.0461 0.0945,-0.10249 0,-0.0563 -0.0479,-0.10249 -0.10633,-0.10249 z m -3.02765,0.72305 c -0.0321,-0.004 -0.13273,0.0483 -0.30266,0.15965 -0.28223,0.18493 -0.87136,0.94375 -0.86205,1.11044 0.003,0.0593 0.061,0.0157 0.12811,-0.097 0.0672,-0.11274 0.35067,-0.42406 0.63,-0.69182 0.32342,-0.31002 0.46017,-0.47425 0.4066,-0.48122 z m 8.83904,0.23172 c -0.40481,0.005 -0.92493,0.16393 -1.13108,0.37009 -0.25557,0.25557 -0.1551,0.27653 0.20242,0.0422 0.16294,-0.10676 0.4859,-0.17305 0.86749,-0.17824 0.64801,-0.009 0.79502,-0.10671 0.31772,-0.21154 -0.0759,-0.0167 -0.16313,-0.0237 -0.25655,-0.0226 z m -6.88018,0.3158 c -0.0312,0.007 -0.0706,0.0584 -0.0995,0.1342 -0.0556,0.14607 -0.0439,0.1578 0.0574,0.0574 0.07,-0.0695 0.10154,-0.15212 0.0699,-0.18368 -0.008,-0.008 -0.0174,-0.0104 -0.0278,-0.008 z m 10.50643,0.80327 0,2.24456 0,2.24455 8.59899,0 8.59899,0 0,-2.1781 0,-2.17504 -0.8835,-0.0688 c -0.24039,-0.0188 -1.31414,-0.0347 -2.86543,-0.0468 -1.55128,-0.012 -3.57459,-0.0195 -5.69561,-0.0197 l -7.75344,-6.4e-4 z m 0.082,0.082 7.67144,6.4e-4 c 2.12083,1.6e-4 4.14398,0.008 5.69498,0.0197 1.55098,0.012 2.63514,0.0291 2.85981,0.0466 l 0.80775,0.0627 0,2.0993 0,2.0961 -8.51699,0 -8.51699,0 0,-2.16256 0,-2.16255 z m -7.04225,0.41893 c -0.0824,-8e-4 -0.16571,-8e-4 -0.24982,4.8e-4 -0.44858,0.008 -0.92016,0.0506 -1.40909,0.13003 -0.81636,0.13252 -2.16981,0.46468 -2.76197,0.67788 -1.60744,0.57875 -3.3822,1.35887 -3.3822,1.48661 0,0.1046 0.22915,0.041 0.69519,-0.19282 0.78412,-0.39343 2.35851,-0.99297 3.40909,-1.29827 2.93609,-0.85323 5.16638,-0.78208 6.60987,0.21106 0.43645,0.30029 0.76483,0.34599 0.76483,0.10635 0,-0.0563 -0.0697,-0.0757 -0.15485,-0.0431 -0.0854,0.0328 -0.31503,-0.0629 -0.51246,-0.21347 -0.72601,-0.55375 -1.77183,-0.84878 -3.00859,-0.86477 z m -1.68597,2.38452 c -0.31205,0.007 -0.80209,0.19059 -1.08241,0.42645 -0.33505,0.28194 -0.73008,1.01368 -0.73008,1.3524 0,0.17334 -0.10745,0.24756 -0.53808,0.37121 -1.10649,0.31772 -1.10185,0.31744 -1.10178,0.0505 1.1e-4,-0.30136 0.52341,-1.42284 0.75236,-1.61231 0.26124,-0.21622 0.20596,-0.35149 -0.11178,-0.27337 -0.70506,0.17335 -1.09286,0.74075 -1.20924,1.76941 l -0.0705,0.6228 -0.66395,0.28217 c -0.55088,0.23412 -0.67951,0.25769 -0.75507,0.13836 -0.23196,-0.36637 -0.0133,-1.41472 0.38739,-1.85748 0.22365,-0.24715 0.14833,-0.28345 -0.24551,-0.11852 -0.51262,0.2147 -0.85458,0.89171 -0.88077,1.74412 l -0.0215,0.69997 -0.50043,0.23749 -0.50045,0.23766 -0.27272,-0.3267 c -0.21046,-0.25208 -0.32299,-0.31052 -0.49356,-0.25638 -0.30123,0.0956 -0.38666,0.425 -0.18865,0.7272 0.19752,0.30146 0.20155,0.35744 0.0263,0.35744 -0.0747,0 -0.24366,0.11474 -0.37553,0.2551 -0.2061,0.21939 -0.22342,0.29133 -0.12266,0.51246 0.13664,0.29993 0.55995,0.34899 0.908,0.10521 0.19997,-0.14006 0.23038,-0.13198 0.38402,0.10249 0.21328,0.32552 0.71769,0.35173 0.88142,0.0458 0.0853,-0.15942 0.0737,-0.28497 -0.0491,-0.53134 -0.0885,-0.17745 -0.12396,-0.35952 -0.0788,-0.40468 0.15515,-0.15515 2.34695,-1.0961 3.18618,-1.36778 1.30032,-0.42094 2.63657,-0.66183 3.67863,-0.66331 l 0.94804,-0.002 0,-0.46121 c 0,-0.2611 0.0479,-0.46121 0.11034,-0.46121 0.0607,0 0.24752,-0.13733 0.41525,-0.30507 0.16773,-0.16773 0.48707,-0.35947 0.70959,-0.42614 0.22252,-0.0667 0.40468,-0.15826 0.40468,-0.20354 0,-0.0453 -0.18758,-0.13283 -0.41685,-0.19457 -0.3574,-0.0962 -0.47868,-0.0823 -0.84988,0.0974 -0.37924,0.18358 -0.56836,0.39645 -0.97302,1.09537 -0.0366,0.063 -0.43047,0.1483 -0.8755,0.18945 l -0.80919,0.0748 0.0671,-0.34319 c 0.0947,-0.48478 0.56937,-1.12327 1.02523,-1.37898 0.30776,-0.17264 0.35208,-0.23126 0.21523,-0.28377 -0.0483,-0.0185 -0.11071,-0.026 -0.18272,-0.0244 z m 0.84683,0.30346 c -0.2006,-0.002 -0.63386,0.15027 -0.89007,0.34078 -0.18245,0.13567 -0.38586,0.34868 -0.45208,0.47322 -0.0856,0.16094 7.9e-4,0.11691 0.29994,-0.15213 0.23679,-0.21323 0.57968,-0.4084 0.78518,-0.44696 0.20066,-0.0377 0.36496,-0.10841 0.36496,-0.15709 0,-0.0392 -0.0411,-0.0571 -0.10793,-0.0578 z m -2.78055,0.081 c -0.18772,0.007 -1.00741,0.85183 -1.00457,1.04621 7.9e-4,0.065 0.0967,-0.0301 0.21283,-0.21138 0.1161,-0.18127 0.37723,-0.43234 0.5802,-0.55778 0.23648,-0.14616 0.31829,-0.24493 0.22771,-0.27512 -0.005,-0.002 -0.0101,-0.002 -0.0161,-0.002 z m -7.13945,0.37201 c -0.0104,0.002 -0.0161,0.01 -0.0161,0.0237 0,0.0563 0.0922,0.19473 0.20498,0.30747 0.21854,0.21854 0.80098,0.27706 1.11011,0.11162 0.11583,-0.062 0.25973,-0.0443 0.42887,0.0527 0.43149,0.24749 1.33077,-0.0236 1.33077,-0.40115 0,-0.0563 -0.0866,-0.0241 -0.19233,0.0716 -0.28393,0.25695 -0.88163,0.32626 -1.17208,0.13596 -0.15627,-0.1024 -0.29216,-0.12549 -0.38643,-0.0658 -0.26783,0.16953 -0.90175,0.10728 -1.11891,-0.10986 -0.0845,-0.0846 -0.15757,-0.13172 -0.1888,-0.12619 z m 12.52727,0.13836 c -0.0686,0.009 -0.21128,0.0579 -0.50813,0.15807 -0.56075,0.18915 -0.9663,0.42239 -0.9663,0.55553 0,0.048 0.1499,2.8e-4 0.3331,-0.10601 0.1832,-0.1063 0.52911,-0.24503 0.76868,-0.30811 0.23958,-0.0631 0.43559,-0.15895 0.43559,-0.21316 0,-0.0628 0.006,-0.0949 -0.0629,-0.0863 z m -7.97395,0.1198 c -0.0779,-0.002 -0.57235,0.73102 -0.57235,0.85499 0,0.0377 0.14174,-0.12706 0.31499,-0.36625 0.17327,-0.23917 0.29187,-0.45792 0.2636,-0.48619 -0.002,-0.002 -0.004,-0.002 -0.006,-0.002 z m 30.27741,1.09601 -5.20141,0.0266 -5.20142,0.0266 -0.0104,1.84483 c -0.006,1.01466 0.008,1.87943 0.0316,1.9217 0.0232,0.0422 2.36846,0.0769 5.21182,0.0769 l 5.16986,0 0,-1.94828 0,-1.94829 z m -24.19954,0.002 0.0336,5.35514 0.0336,5.35516 0.27848,0.82794 c 0.77486,2.30289 2.64972,3.97598 5.04672,4.50366 0.33822,0.0744 0.94515,0.13901 1.34888,0.14349 2.99651,0.0332 5.41371,-1.72406 6.40311,-4.65517 0.24168,-0.71598 0.24232,-0.72838 0.25559,-6.12383 l 0.0133,-5.40639 -6.70675,0 -6.70659,0 z m 0.52415,0.40836 6.17507,0.0264 6.17508,0.0264 0.0266,4.96777 c 0.0253,4.73182 0.0166,5.0064 -0.18448,5.78225 -0.36848,1.42151 -1.27301,2.71299 -2.43672,3.47925 -0.87431,0.57568 -1.63231,0.85265 -2.69952,0.98647 -0.46745,0.0586 -0.85128,0.10067 -0.85275,0.0934 -0.002,-0.007 -0.33116,-0.0517 -0.73265,-0.0985 -2.06673,-0.2411 -3.94439,-1.57749 -4.85358,-3.45443 -0.60573,-1.25044 -0.61703,-1.3767 -0.61703,-6.82669 l 0,-4.98234 z m 8.60571,0.30908 c -0.11115,0 -0.62554,1.63672 -0.55185,1.75595 0.053,0.0858 0.1093,0.0719 0.19794,-0.0493 0.15898,-0.21744 0.62684,-0.21893 0.74801,-0.002 0.0671,0.11988 0.11445,0.13286 0.16815,0.046 0.074,-0.11967 -0.44984,-1.75019 -0.56225,-1.75019 z m -6.29967,0.10249 c -0.26281,0 -0.47334,0.21797 -0.27448,0.28424 0.0758,0.0252 0.12074,0.28462 0.12074,0.69791 0,0.51624 0.0331,0.6577 0.15374,0.6577 0.12068,0 0.15374,-0.14146 0.15374,-0.6577 0,-0.41329 0.0448,-0.67263 0.12058,-0.69791 0.19886,-0.0663 -0.0115,-0.28424 -0.27432,-0.28424 z m 2.49902,0 c -0.28124,0 -0.31209,0.0275 -0.25768,0.2306 0.034,0.12684 0.0624,0.4958 0.0633,0.81993 7.9e-4,0.45489 0.0365,0.58932 0.15517,0.58932 0.1209,0 0.15374,-0.14235 0.15374,-0.66619 0,-0.3758 0.0447,-0.66619 0.10249,-0.66619 0.0563,0 0.10249,-0.0691 0.10249,-0.15374 0,-0.10377 -0.10388,-0.15373 -0.31948,-0.15373 z m 1.08816,0 c -0.26281,0 -0.47334,0.21797 -0.27448,0.28424 0.0758,0.0252 0.12074,0.28462 0.12074,0.69791 0,0.51624 0.0331,0.6577 0.15374,0.6577 0.12068,0 0.15374,-0.14146 0.15374,-0.6577 0,-0.41329 0.0448,-0.67263 0.12058,-0.69791 0.19886,-0.0663 -0.0115,-0.28424 -0.27432,-0.28424 z m 3.63843,0 0,0.81992 c 0,0.66049 0.0299,0.81993 0.15374,0.81993 0.0854,0 0.15373,-0.0911 0.15373,-0.20498 0,-0.28237 0.14758,-0.25669 0.35648,0.0621 0.20975,0.32011 0.4498,0.19312 0.27,-0.14285 -0.0842,-0.15728 -0.0744,-0.23476 0.0418,-0.33117 0.0834,-0.0692 0.15166,-0.24323 0.15166,-0.38691 0,-0.39544 -0.27757,-0.63608 -0.73345,-0.63608 l -0.39396,0 z m 1.79359,0 c -0.25053,0 -0.35872,0.0464 -0.35872,0.15373 0,0.0846 0.0461,0.15374 0.10249,0.15374 0.0578,0 0.1025,0.29039 0.1025,0.66619 0,0.52384 0.0328,0.66619 0.15373,0.66619 0.12089,0 0.15374,-0.14235 0.15374,-0.66619 0,-0.3758 0.0447,-0.66619 0.10249,-0.66619 0.0563,0 0.10249,-0.0691 0.10249,-0.15374 0,-0.10737 -0.10818,-0.15373 -0.35872,-0.15373 z m -13.47803,0.009 c -0.50135,-0.005 -1.0884,0.0436 -1.61808,0.15133 -1.47891,0.30072 -4.5309,1.50024 -4.5309,1.78078 0,0.0608 0.35969,-0.0701 0.79927,-0.29114 0.99746,-0.50151 3.03336,-1.19712 3.91531,-1.33766 0.83472,-0.133 1.89511,-0.13772 2.33903,-0.0104 0.24973,0.0716 0.32877,0.0657 0.29932,-0.0227 -0.0565,-0.16953 -0.55937,-0.26391 -1.20395,-0.27016 z m 9.31306,0.0227 c -0.11222,6.4e-4 -0.223,0.0585 -0.35344,0.18112 -0.32849,0.30861 -0.35249,1.11665 -0.0424,1.42671 0.39223,0.39222 0.83016,0.17247 0.9703,-0.48683 0.0678,-0.31903 0.0574,-0.3331 -0.24486,-0.3331 -0.33313,0 -0.42438,0.14128 -0.15742,0.24374 0.12445,0.0477 0.13469,0.10461 0.0477,0.26711 -0.13215,0.2469 -0.36463,0.26976 -0.45112,0.0444 -0.1893,-0.49331 0.021,-1.12193 0.34975,-1.04573 0.22554,0.0522 0.22074,-0.20744 -0.005,-0.27913 -0.0385,-0.0123 -0.076,-0.0184 -0.11339,-0.0183 z m -6.04152,0.0844 c -0.61504,0.018 -0.70138,0.63305 -0.0682,0.94244 0.59334,0.28991 0.46861,0.62709 -0.18592,0.50267 -0.27117,-0.0515 -0.28704,-0.0405 -0.16031,0.11291 l 3.2e-4,0 c 0.16313,0.19745 0.73532,0.22715 0.91505,0.0474 0.29152,-0.29151 0.033,-0.83157 -0.43959,-0.91826 -0.11208,-0.0206 -0.2187,-0.11432 -0.23685,-0.2085 -0.0245,-0.12744 0.0539,-0.17961 0.30636,-0.20386 0.43906,-0.0422 0.43872,-0.22797 -7.9e-4,-0.27016 -0.0457,-0.005 -0.089,-0.006 -0.13004,-0.005 z m 2.00722,0.0886 c -0.22884,0 -0.2158,1.19637 0.0158,1.45233 0.24615,0.27201 0.71255,0.24157 0.90977,-0.0594 0.19322,-0.2949 0.17204,-1.30158 -0.0288,-1.36778 -0.0929,-0.0306 -0.12811,0.12574 -0.12811,0.56867 0,0.64512 -0.14469,0.89702 -0.44824,0.78053 -0.12992,-0.0498 -0.16671,-0.20863 -0.16671,-0.7192 0,-0.51409 -0.0331,-0.65514 -0.15373,-0.65514 z m 6.87713,0.11402 c 0.0198,7.9e-4 0.042,0.003 0.0666,0.007 0.16892,0.024 0.2306,0.10137 0.2306,0.28906 0,0.18768 -0.0617,0.2649 -0.2306,0.28889 -0.19713,0.028 -0.23061,-0.0138 -0.23061,-0.28889 0,-0.24065 0.0256,-0.30291 0.16399,-0.29595 z m -1.35095,0.39844 c 0.0196,0 0.0597,0.0922 0.0892,0.20498 0.04,0.15301 0.003,0.20498 -0.14541,0.20498 -0.16723,0 -0.1814,-0.0327 -0.0892,-0.20498 0.0604,-0.11274 0.12578,-0.20498 0.14541,-0.20498 z m -10.83681,0.64424 c -0.0204,-0.002 -0.0523,0.003 -0.0958,0.0165 -0.0705,0.0217 -0.25421,0.067 -0.4082,0.10073 -0.66368,0.14529 -1.41101,1.25591 -1.41101,2.09674 0,0.26722 -0.0507,0.30355 -0.69181,0.49548 l -0.69182,0.20723 -0.0839,-0.21748 c -0.14261,-0.36964 0.0284,-1.06183 0.39811,-1.61119 l 0.35327,-0.52494 -0.26759,0.0671 c -0.79779,0.20022 -1.111,0.71823 -1.09474,1.81056 l 0.0117,0.77893 -0.56034,0.23221 c -0.3082,0.12774 -0.58894,0.20376 -0.62375,0.16894 -0.17336,-0.17336 -0.14153,-1.16473 0.0538,-1.67716 0.1696,-0.44491 0.17924,-0.53808 0.056,-0.53808 -0.30106,0 -0.72832,0.30637 -0.85548,0.61335 -0.12745,0.30769 -0.0979,1.30534 0.0536,1.8088 0.0513,0.17043 -0.0152,0.28045 -0.30106,0.49852 l -0.36673,0.27977 -0.29818,-0.31917 c -0.16395,-0.17549 -0.38557,-0.319 -0.4926,-0.319 -0.42998,0 -0.57595,0.47858 -0.27641,0.90624 0.0903,0.12894 0.14796,0.24539 0.12812,0.2588 -0.0199,0.0134 -0.16287,0.10368 -0.31789,0.20065 -0.3044,0.19044 -0.38675,0.64072 -0.15886,0.86861 0.1858,0.18581 0.41645,0.14914 0.7879,-0.1249 0.33102,-0.24423 0.3386,-0.24497 0.53231,-0.0513 0.3375,0.3375 1.01658,0.20891 1.01658,-0.19249 0,-0.0786 -0.0922,-0.27231 -0.20466,-0.4303 l -0.2045,-0.28714 0.48635,-0.31211 c 0.91018,-0.58387 2.66936,-1.35521 3.68039,-1.61376 0.56012,-0.14325 1.47516,-0.28519 2.05878,-0.31933 l 1.05053,-0.0613 0,-0.85931 c 0,-0.82558 -0.008,-0.85509 -0.20354,-0.75043 -0.11195,0.0599 -0.30667,0.28803 -0.4327,0.507 -0.2121,0.36853 -0.27133,0.40295 -0.79574,0.46249 -0.31163,0.0354 -0.69342,0.0892 -0.84844,0.11963 -0.24408,0.0479 -0.28185,0.0225 -0.28185,-0.18897 0,-0.39633 0.4995,-1.28234 0.93139,-1.65202 0.33075,-0.2831 0.45723,-0.43807 0.36864,-0.44792 z m 0.46265,0.19154 c -0.25665,0.0335 -1.35273,1.26784 -1.35273,1.55498 0,0.0578 0.15673,-0.11536 0.34831,-0.38483 0.19159,-0.26946 0.51682,-0.6289 0.72273,-0.79862 0.2059,-0.16973 0.35043,-0.33241 0.32124,-0.36161 -0.009,-0.009 -0.0225,-0.0122 -0.0396,-0.01 z m -2.66252,0.4974 c -0.11385,-0.004 -0.55754,0.46617 -0.71376,0.76788 -0.12213,0.23588 -0.0506,0.18815 0.30715,-0.20498 0.25649,-0.28185 0.44757,-0.53199 0.4247,-0.55569 -0.005,-0.005 -0.0105,-0.007 -0.0181,-0.007 z m 10.64479,0.29434 c -0.0985,3.9e-4 -0.3179,0.10576 -0.54319,0.29418 -0.67274,0.56265 -1.11931,0.76897 -1.47203,0.68044 -0.20127,-0.0506 -0.23784,-0.0305 -0.18688,0.10234 0.0349,0.0908 0.1045,0.16527 0.15485,0.16527 0.0503,0 0.0916,0.0461 0.0916,0.10249 0,0.0563 -0.0939,0.10249 -0.20866,0.10249 -0.22413,0 -0.6147,0.22652 -0.99192,0.57538 -0.29897,0.2765 -0.2951,0.34703 0.0187,0.34703 0.1828,0 0.23655,0.0426 0.19393,0.15374 -0.0665,0.17346 0.21817,0.21881 0.32172,0.0513 0.0698,-0.11287 0.492,-0.14008 0.59382,-0.0383 0.093,0.093 -0.18136,0.56069 -0.50349,0.8582 -0.1526,0.14092 -0.38852,0.49822 -0.52431,0.79399 -0.22226,0.48408 -0.2677,0.52658 -0.45448,0.42661 -0.11412,-0.0611 -0.28376,-0.24513 -0.37698,-0.409 -0.0932,-0.16386 -0.22935,-0.29818 -0.30251,-0.2985 -0.21991,-8e-4 -0.58164,0.46366 -0.93426,1.2001 -0.18311,0.38242 -0.39839,0.82577 -0.47835,0.98536 -0.18018,0.35959 -0.1885,0.6182 -0.0173,0.53839 0.0705,-0.0328 0.21107,-0.0887 0.31259,-0.12426 0.13968,-0.0489 0.16981,-0.1323 0.12363,-0.34256 -0.0407,-0.1855 -0.008,-0.32143 0.0972,-0.40916 0.0871,-0.0722 0.15838,-0.18771 0.15838,-0.2567 0,-0.19819 0.28695,-0.72158 0.50268,-0.91682 0.18929,-0.17129 0.20692,-0.16322 0.46201,0.21219 0.14587,0.21465 0.2652,0.47408 0.2652,0.57667 0,0.1151 0.11774,0.22773 0.30747,0.29387 0.38456,0.13406 0.39787,0.37017 0.0256,0.45448 -0.15501,0.0351 -0.42021,0.0968 -0.58932,0.13708 l -0.30747,0.0732 0,1.06975 0,1.06959 0.35647,0.34047 0.35664,0.34046 0.18145,-0.22421 c 0.24756,-0.30571 0.23021,-0.37122 -0.11723,-0.44071 -0.28315,-0.0566 -0.30262,-0.0944 -0.36945,-0.71839 -0.0388,-0.36225 -0.038,-0.76134 0.002,-0.88703 0.0635,-0.20022 0.11886,-0.21999 0.44631,-0.15902 0.95751,0.17829 1.22775,0.18238 1.45681,0.0219 0.21225,-0.14866 0.25206,-0.1461 0.50333,0.0328 0.36097,0.25704 1.1592,0.45167 1.53993,0.37553 0.43024,-0.086 0.61462,0.0143 0.61462,0.33453 0,0.15213 0.11338,0.43034 0.25206,0.61831 0.17693,0.2398 0.22537,0.39093 0.16223,0.50669 -0.12078,0.22143 -0.69026,0.74367 -1.13173,1.03772 -0.56958,0.37938 -1.04076,1.02745 -0.74306,1.02203 0.28604,-0.006 0.53117,-0.15373 0.55794,-0.33806 0.0218,-0.15057 0.32655,-0.38941 1.00505,-0.78774 0.90457,-0.53106 0.9759,-0.59673 1.00649,-0.92642 0.0467,-0.50305 0.14593,-0.55405 0.55522,-0.28458 0.19802,0.13038 0.4384,0.2833 0.53407,0.33967 0.16229,0.0956 0.16052,0.13336 -0.0267,0.5637 -0.11039,0.25366 -0.34954,0.59957 -0.53152,0.76868 -0.34914,0.32446 -0.82009,1.0001 -0.82009,1.17657 0,0.11809 0.14944,0.13029 0.48684,0.0399 0.15632,-0.0419 0.2306,-0.13948 0.2306,-0.30298 0,-0.17101 0.11187,-0.30567 0.38434,-0.46281 0.33813,-0.195 0.51401,-0.40601 1.14342,-1.37194 0.12953,-0.1988 0.11657,-0.26174 -0.12812,-0.62183 -0.35103,-0.51658 -0.34309,-0.78838 0.0405,-1.3862 0.17201,-0.26805 0.32329,-0.65166 0.33614,-0.85243 0.0343,-0.53487 0.18001,-0.63777 0.67275,-0.47514 0.22299,0.0736 0.4827,0.10415 0.57716,0.0679 0.15251,-0.0585 0.14674,-0.0862 -0.0517,-0.24693 l -0.22355,-0.18096 0.21315,-0.19297 c 0.1172,-0.10607 0.21314,-0.28506 0.21314,-0.3978 0,-0.19719 -0.008,-0.19802 -0.20113,-0.0229 -0.18866,0.17073 -0.51705,0.15871 -0.51566,-0.0189 3.6e-4,-0.0441 0.13872,-0.15877 0.30748,-0.2548 0.36123,-0.20555 0.40956,-0.41844 0.0762,-0.33581 -0.15981,0.0396 -0.26818,-0.004 -0.35296,-0.14109 -0.10126,-0.16414 -0.088,-0.22935 0.0769,-0.37858 0.19941,-0.18045 0.26083,-0.46269 0.12924,-0.59428 -0.0385,-0.0385 -0.12868,0.0691 -0.20018,0.23909 -0.1429,0.33987 -0.31633,0.40008 -0.4146,0.14397 -0.0684,-0.17814 0.19016,-0.6952 0.49579,-0.99176 0.19176,-0.18607 0.25226,-0.38702 0.1121,-0.37233 -0.0423,0.005 -0.28043,0.13198 -0.52927,0.28345 -0.34557,0.21037 -0.48136,0.37188 -0.57491,0.68381 l -0.12251,0.40837 -0.1494,-0.33486 c -0.17118,-0.38362 -0.28939,-0.33596 -0.28939,0.11673 0,0.19548 0.14778,0.52336 0.39652,0.87983 0.51978,0.74488 0.58547,0.97441 0.37201,1.30019 -0.17081,0.26068 -0.17127,0.26078 -0.39299,0.0591 -0.41491,-0.37745 -0.65479,-0.43238 -1.88679,-0.43238 -1.08339,0 -1.24197,-0.023 -1.4416,-0.20898 -0.42144,-0.39263 -0.20336,-1.43088 0.30059,-1.43088 0.11324,0 0.29516,0.0476 0.40419,0.10602 0.16944,0.0907 0.19826,0.0718 0.19826,-0.13084 0,-0.13036 -0.0718,-0.33961 -0.1595,-0.46489 -0.12814,-0.18295 -0.1321,-0.22773 -0.0197,-0.22773 0.077,0 0.2296,0.0676 0.33902,0.15038 0.10942,0.0827 0.23232,0.15194 0.2732,0.15374 0.12587,0.006 -0.12299,-0.53597 -0.30875,-0.6718 -0.2399,-0.17542 -0.0922,-0.29215 0.1832,-0.14477 0.40579,0.21718 0.34061,0.0138 -0.14781,-0.46088 -0.26506,-0.25761 -0.4636,-0.52457 -0.44119,-0.59318 0.0224,-0.0686 0.18827,-0.17349 0.36865,-0.23316 0.18036,-0.0597 0.296,-0.14038 0.25702,-0.17936 -0.10679,-0.10679 -0.7033,-0.0851 -1.02523,0.0373 -0.59578,0.22651 -0.96643,-0.11331 -0.58419,-0.53568 0.12383,-0.13682 0.12034,-0.2 0.0438,-0.1997 z m -17.29838,0.35295 c -0.061,-0.004 -0.0161,0.12071 0.13869,0.29178 0.18707,0.20671 0.65636,0.24621 0.96469,0.0812 0.1563,-0.0837 0.2475,-0.0602 0.42887,0.1105 0.17454,0.16427 0.31414,0.20352 0.57618,0.16191 0.35073,-0.0557 0.73041,-0.31841 0.73041,-0.50542 0,-0.0563 -0.0866,-0.0241 -0.19233,0.0716 -0.30851,0.2792 -0.84691,0.32085 -1.13476,0.0878 -0.21668,-0.17544 -0.27763,-0.18296 -0.51005,-0.0623 -0.28773,0.1494 -0.57371,0.10102 -0.85325,-0.14445 -0.0711,-0.0624 -0.12072,-0.0908 -0.14845,-0.0926 z m 4.39623,0.0655 c -0.0916,0.003 -0.42497,0.43502 -0.42727,0.56755 -7.9e-4,0.0563 0.10911,-0.0358 0.2447,-0.20498 0.13559,-0.16911 0.2246,-0.32993 0.19762,-0.35727 -0.004,-0.004 -0.009,-0.006 -0.015,-0.006 z m 12.1221,0.67934 c 0.0497,3.4e-4 0.11353,0.0183 0.18865,0.0583 0.12341,0.0657 0.27927,0.19273 0.34655,0.28216 0.17477,0.23237 0.27027,1.13103 0.16383,1.54185 -0.0947,0.36533 -0.30607,0.52907 -0.38066,0.29482 -0.024,-0.0752 -0.064,-0.47224 -0.089,-0.88237 -0.0313,-0.513 -0.10097,-0.80689 -0.22292,-0.94165 -0.17802,-0.19669 -0.15551,-0.35416 -0.006,-0.3531 z m 7.84824,0.066 0,2.44953 0,2.44954 5.16555,0 5.16554,0 0,-2.44954 0,-2.44953 -5.16554,0 -5.16555,0 z m 0.082,0.082 5.08355,0 5.08354,0 0,2.36754 0,2.36754 -5.08354,0 -5.08355,0 0,-2.36754 0,-2.36754 z m -15.02628,0.94916 c -0.65026,0.008 -1.79587,0.17214 -2.56516,0.38291 -0.87895,0.2408 -3.50584,1.46229 -3.50584,1.63024 0,0.0591 0.4993,-0.14562 1.10963,-0.45497 1.82234,-0.92366 3.16476,-1.29596 4.75718,-1.31924 0.91475,-0.0134 1.16164,-0.10892 0.5645,-0.2186 -0.0866,-0.0159 -0.21026,-0.0223 -0.36031,-0.0203 z m -8.90086,3.07953 c -0.006,7.9e-4 -0.0103,0.003 -0.0144,0.008 -0.0332,0.0332 0.0476,0.17558 0.17984,0.31628 0.27566,0.29344 0.59573,0.32391 1.03228,0.0982 0.27452,-0.14197 0.32738,-0.14197 0.53006,0 0.12385,0.0867 0.3326,0.15774 0.46377,0.15774 0.28036,0 0.84331,-0.27145 0.84331,-0.4066 0,-0.0516 -0.12683,-0.0275 -0.28185,0.0533 -0.36724,0.19158 -0.74409,0.18734 -1.02779,-0.0114 -0.20616,-0.1444 -0.24943,-0.1444 -0.45561,0 -0.34239,0.23983 -0.9683,0.20931 -1.1093,-0.0541 -0.0551,-0.10288 -0.12211,-0.16855 -0.16029,-0.16111 z m -0.85981,1.39981 0,0.26855 c 0,0.84187 0.47321,3.27157 0.73121,3.75421 0.0895,0.16745 0.46652,0.17936 5.678,0.17936 3.07018,0 5.58223,-0.023 5.58223,-0.0511 0,-0.028 -0.15574,-0.27018 -0.34607,-0.53808 -0.64324,-0.90534 -1.04727,-1.95945 -1.15879,-3.02364 l -0.0618,-0.58932 -5.21245,0 -5.21231,0 z m 24.82666,0 -0.0618,0.2306 c -0.034,0.12684 -0.0624,0.36975 -0.0633,0.53999 -0.002,0.27665 -0.28678,1.45105 -0.46681,1.91979 -0.11329,0.29495 0.0381,0.20277 0.20867,-0.12699 0.15317,-0.2962 0.42387,-1.47245 0.48379,-2.10219 l 0.0293,-0.30747 5.02205,-0.0529 5.02206,-0.0527 -5.08707,-0.0242 -5.08692,-0.0241 z m 2.5951,0.8473 c -0.35007,0.0108 -0.84722,0.17604 -1.12243,0.39251 -0.32006,0.25176 -0.64693,0.85421 -0.75843,1.39773 -0.0779,0.38007 -0.0908,0.38885 -0.84427,0.58244 -0.71289,0.18315 -0.79518,0.23386 -1.20555,0.74305 -0.24224,0.30057 -0.42092,0.54657 -0.39715,0.54657 0.0237,0 0.24497,-0.0713 0.49163,-0.15838 0.24666,-0.0871 0.90977,-0.28004 1.47347,-0.42871 0.90215,-0.23794 1.22133,-0.2703 2.66476,-0.27079 1.52333,-5.4e-4 1.68809,0.0182 2.3187,0.26534 0.69657,0.27298 1.24003,0.58946 1.78094,1.03709 0.16911,0.13995 0.32441,0.23766 0.34526,0.21715 0.13713,-0.13479 -0.15431,-0.82422 -0.5038,-1.19162 -0.22286,-0.23426 -0.40516,-0.46433 -0.40516,-0.51117 0,-0.1429 0.81264,-0.68335 1.13333,-0.75378 0.66689,-0.14648 0.0487,-0.51176 -0.72337,-0.42742 -0.38853,0.0424 -0.52884,0.12498 -0.89023,0.52398 l -0.42901,0.4737 -0.59573,-0.23957 c -0.32765,-0.13172 -0.60873,-0.30728 -0.62472,-0.39027 -0.044,-0.22834 0.66132,-0.99422 1.14133,-1.23918 0.37506,-0.19141 0.4008,-0.22586 0.21972,-0.29659 -0.11274,-0.0441 -0.41734,-0.0833 -0.67677,-0.0873 -0.66489,-0.0101 -1.08979,0.30432 -1.47474,1.09136 l -0.30827,0.63032 -0.64057,0.007 c -0.54512,0.006 -0.64022,-0.02 -0.63833,-0.17263 0.004,-0.34182 0.37731,-1.00266 0.75139,-1.3311 0.37104,-0.32578 0.37266,-0.33074 0.13228,-0.39107 -0.0606,-0.0152 -0.13349,-0.0209 -0.21428,-0.0184 z m 1.02107,0.12428 c -0.049,0.006 -0.1425,0.0441 -0.28201,0.12555 -0.33672,0.19666 -1.00072,0.9802 -1.00072,1.18089 0,0.0604 0.13824,-0.081 0.30731,-0.31436 0.16906,-0.2334 0.46827,-0.52857 0.66491,-0.65595 0.30982,-0.2007 0.41816,-0.34828 0.31051,-0.33613 z m 2.62441,0.49676 c -0.0453,5.6e-4 -0.10874,0.009 -0.19185,0.029 -0.41895,0.0987 -0.87072,0.3974 -1.12901,0.74675 -0.126,0.17042 -0.22899,0.34035 -0.22899,0.37762 0,0.0373 0.18174,-0.11973 0.40404,-0.34879 0.23284,-0.23994 0.5804,-0.4692 0.81992,-0.54097 0.37607,-0.11266 0.52213,-0.26602 0.32589,-0.26359 z m 2.2516,1.33142 c -0.0415,-4.3e-4 -0.10044,0.009 -0.17872,0.0274 -0.46321,0.10922 -1.26545,0.46899 -1.26545,0.56754 0,0.12515 0.14167,0.11231 0.27945,-0.0255 0.0635,-0.0635 0.35797,-0.17022 0.65451,-0.23701 0.29653,-0.0668 0.55815,-0.17828 0.58131,-0.24774 0.0188,-0.0564 -0.002,-0.084 -0.0711,-0.0847 z m -5.28341,1.21035 c -0.2073,-0.003 -0.42341,0.002 -0.6497,0.0127 -1.72525,0.0854 -4.65734,0.91372 -5.75118,1.62448 -0.75482,0.49048 -1.76891,0.85239 -2.92996,1.04572 l -0.81993,0.13661 -0.0264,7.29543 c -0.0173,4.81245 0.009,7.29559 0.0762,7.29559 0.0671,0 0.11152,-2.4863 0.12876,-7.19999 l 0.0264,-7.19998 0.42213,-0.0309 c 0.35361,-0.0259 0.43134,0.003 0.47738,0.17936 0.0649,0.24813 0.34642,0.27378 0.58949,0.0538 0.15481,-0.14011 0.18607,-0.14011 0.30235,0 0.0714,0.086 0.24569,0.15646 0.38738,0.15646 0.24482,0 0.25457,-0.022 0.19681,-0.44343 -0.0605,-0.44167 -0.0591,-0.44424 0.37041,-0.62937 0.23715,-0.10222 0.64554,-0.33738 0.90753,-0.52254 0.26198,-0.18516 0.63094,-0.38197 0.81993,-0.43734 0.18897,-0.0554 0.80899,-0.24159 1.37786,-0.41382 3.83901,-1.16228 5.65395,-1.02037 7.77858,0.60807 0.50103,0.38402 0.71821,0.4963 0.80055,0.41396 0.0823,-0.0823 0.0786,-0.11289 -0.0138,-0.11289 -0.0697,0 -0.43635,-0.23824 -0.8148,-0.52928 -1.17796,-0.90588 -2.20493,-1.2826 -3.65604,-1.30259 z m -27.1239,0.72849 0.11659,0.28713 c 0.0506,0.12455 0.23939,0.62168 0.41781,1.10065 0.1793,0.48134 0.54793,1.34561 0.82072,1.92475 l 0.50589,1.07408 7.25876,0 7.27381,0 0,-1.21964 0,-1.21964 -0.4106,0 c -0.5229,0 -1.40679,-0.26399 -2.22838,-0.61911 -0.82159,-0.35513 -1.58613,-0.80536 -1.87494,-1.15335 -0.0416,-0.0502 -0.11721,-0.0771 -0.28169,-0.0991 -0.16448,-0.0221 -0.42293,-0.0377 -0.83882,-0.0488 -0.83179,-0.0223 -2.29227,-0.0269 -4.87105,-0.0269 l -5.8881,0 z m 0.12171,0.082 5.76639,0 c 2.57868,0 4.0393,0.005 4.86881,0.0269 0.41475,0.0112 0.67196,0.0268 0.83017,0.048 0.15821,0.0212 0.2123,0.0496 0.22948,0.0703 0.31138,0.3752 1.078,0.81855 1.90553,1.17626 0.82753,0.35769 1.71089,0.62583 2.26089,0.62583 l 0.32861,0 0,1.13765 0,1.13765 -7.19182,0 -7.2067,0 -0.4838,-1.027 c -0.27152,-0.57644 -0.64033,-1.44154 -0.81801,-1.9185 -0.17854,-0.4793 -0.36628,-0.97377 -0.41876,-1.10289 l -0.0708,-0.17423 z m 24.47867,0.91889 c -0.68715,0 -1.39082,0.9432 -1.50117,2.01251 l -0.0557,0.54032 -0.62136,0.20978 c -0.42202,0.14253 -0.65499,0.1763 -0.72592,0.10538 -0.17763,-0.17764 -0.10508,-1.17995 0.11803,-1.63089 0.27439,-0.55459 0.0697,-0.5602 -0.51503,-0.0141 l -0.43158,0.40307 0.003,0.86653 0.003,0.8667 -0.58564,0.32188 -0.58564,0.32204 -0.13516,-0.27576 c -0.0744,-0.15163 -0.25945,-0.36747 -0.41125,-0.47978 -0.26136,-0.1934 -0.28986,-0.19515 -0.53807,-0.0325 -0.31816,0.20846 -0.34259,0.57491 -0.0555,0.83466 0.2046,0.18515 0.20474,0.18896 0.008,0.40019 -0.32196,0.34512 -0.36902,0.7246 -0.12059,0.97302 0.28529,0.28529 0.38573,0.27109 0.73649,-0.10441 0.16355,-0.17507 0.29739,-0.27348 0.29739,-0.21875 0,0.0548 0.0955,0.22092 0.21235,0.36945 0.26047,0.33114 0.6416,0.35109 0.85612,0.0449 0.14441,-0.20618 0.13967,-0.25555 -0.0551,-0.58564 l -0.21267,-0.36064 0.21363,-0.17295 c 0.36315,-0.29406 1.7471,-0.82052 2.96728,-1.12868 2.35177,-0.59395 4.44959,-0.26665 5.31607,0.82921 0.10771,0.13623 0.12533,0.12524 0.12811,-0.0801 0.004,-0.28575 -0.40774,-1.0147 -0.75987,-1.34551 -0.32637,-0.30661 -0.22533,-0.51502 0.4319,-0.89136 0.26673,-0.15272 0.50672,-0.29506 0.53327,-0.31627 0.11091,-0.0886 -0.28146,-0.22947 -0.64345,-0.23093 -0.33343,-0.002 -0.46001,0.0709 -0.87117,0.49724 l -0.48106,0.49884 -0.58933,-0.0503 c -0.44418,-0.0379 -0.58932,-0.0897 -0.58932,-0.21027 0,-0.34273 0.44502,-1.05253 0.84363,-1.34567 0.34135,-0.25104 0.3864,-0.32017 0.24421,-0.37473 -0.26498,-0.10169 -0.88318,0.0295 -1.11138,0.23589 -0.24634,0.22277 -0.5242,0.75261 -0.69582,1.3271 -0.11944,0.39983 -0.15549,0.43026 -0.5882,0.49515 -0.25354,0.0381 -0.5243,0.0935 -0.60165,0.12316 -0.10843,0.0416 -0.14061,-0.0722 -0.14061,-0.49661 0,-0.59784 0.23813,-1.16234 0.69582,-1.6493 l 0.26503,-0.28186 -0.25158,0 z m 0.90561,0.0644 c -0.006,-5.6e-4 -0.0114,-4.4e-4 -0.0183,3.3e-4 -0.0456,0.005 -0.12267,0.0392 -0.20963,0.0962 -0.25741,0.16867 -0.87437,1.02 -0.87437,1.20651 0,0.0564 0.14475,-0.11603 0.32173,-0.38322 0.17697,-0.26718 0.43064,-0.55723 0.5637,-0.64441 0.13305,-0.0872 0.24197,-0.2004 0.24197,-0.25158 0,-0.0144 -0.009,-0.0222 -0.0252,-0.0239 z m 2.15151,0.45129 c -0.21827,-0.004 -1.20509,0.92507 -1.20123,1.13092 0.002,0.0831 0.0722,0.0358 0.1627,-0.10922 0.14342,-0.2297 0.3074,-0.37102 1.01322,-0.87277 0.18243,-0.12968 0.18522,-0.14603 0.0253,-0.14893 z m -4.93158,0.14364 c -0.11658,0.0214 -0.57801,0.66881 -0.57539,0.8249 7.9e-4,0.0574 0.10305,-0.0571 0.22676,-0.25431 0.12372,-0.1973 0.27154,-0.39093 0.32845,-0.43014 0.0569,-0.0392 0.0742,-0.10033 0.0386,-0.13596 -0.005,-0.005 -0.0107,-0.006 -0.0184,-0.005 z m -2.75653,1.00586 c -0.0166,-0.005 -0.0752,0.0347 -0.18992,0.11498 -0.28063,0.19655 -0.71572,0.21822 -0.88975,0.0442 -0.0956,-0.0957 -0.15032,-0.0957 -0.24598,0 -0.17619,0.17619 -0.4943,0.1517 -0.73217,-0.0564 -0.20498,-0.17929 -0.17263,-0.0494 0.0638,0.25623 0.12589,0.16277 0.50785,0.1657 0.66843,0.005 0.0957,-0.0957 0.15033,-0.0957 0.24598,0 0.24761,0.2476 0.83836,0.12575 1.01802,-0.20995 0.0531,-0.0992 0.0783,-0.14913 0.0616,-0.15421 z m 9.73327,0.026 c -0.008,-7.1e-4 -0.0167,-5.2e-4 -0.0274,4.7e-4 -0.0568,0.006 -0.15727,0.0354 -0.30667,0.0979 -0.38148,0.15939 -0.96774,0.54387 -0.96774,0.63464 0,0.029 0.0346,0.0351 0.0768,0.0136 0.0423,-0.0215 0.34207,-0.16703 0.66619,-0.32348 0.44847,-0.21647 0.6728,-0.41255 0.55873,-0.42309 z m -3.56651,1.64465 c -0.11851,-5.3e-4 -0.25086,-2.7e-4 -0.40004,3.3e-4 -1.13415,0.005 -1.40786,0.0427 -2.38516,0.33309 -1.12866,0.33531 -2.43191,0.90529 -2.43191,1.06366 0,0.0486 0.18484,-0.006 0.41076,-0.12122 0.94326,-0.48122 2.78821,-1.01622 4.06633,-1.17913 1.08516,-0.13832 2.31112,0.29053 3.08946,1.0808 0.49458,0.50216 0.73521,0.61946 0.73521,0.35824 0,-0.0828 -0.0577,-0.129 -0.12811,-0.10266 -0.0705,0.0263 -0.33566,-0.16422 -0.58932,-0.42357 -0.25367,-0.25934 -0.69182,-0.59379 -0.97367,-0.74306 -0.41772,-0.22123 -0.56399,-0.26274 -1.39355,-0.26648 z m -19.98717,0.68077 c -2.66909,0.003 -3.88329,0.0311 -3.88329,0.0873 0,0.19551 1.54384,2.48783 2.32687,3.45491 l 0.76772,0.94804 5.5265,0 5.52666,0 -0.0277,-2.22918 -0.0275,-2.22917 -7.04624,-0.0264 c -1.22191,-0.005 -2.27328,-0.006 -3.16297,-0.006 z m 11.95076,0.0136 c -0.004,-7.3e-4 -0.008,-6e-4 -0.0111,3.2e-4 -0.004,7.9e-4 -0.008,0.003 -0.0112,0.006 -0.0269,0.0269 -0.0184,0.0981 0.0187,0.15822 0.10106,0.16352 0.16026,0.13176 0.091,-0.0488 -0.0255,-0.0666 -0.0604,-0.11114 -0.0874,-0.11627 z m -0.12203,1.68502 c -0.0701,0.006 0.004,0.13934 0.23909,0.32428 0.32572,0.25622 0.6269,0.27012 0.95013,0.0438 0.22446,-0.15723 0.24761,-0.15675 0.33901,0.006 0.054,0.0964 0.19795,0.21551 0.31997,0.26472 0.29582,0.11928 0.29686,0.1192 0.67003,-0.0109 0.31436,-0.1096 0.60426,-0.45717 0.48267,-0.57876 -0.0328,-0.0327 -0.0596,-0.007 -0.0596,0.0575 0,0.14372 -0.53311,0.42966 -0.80103,0.42966 -0.10794,0 -0.30863,-0.0884 -0.44584,-0.19633 -0.21765,-0.17121 -0.30407,-0.18166 -0.67804,-0.0818 -0.38446,0.10262 -0.46062,0.091 -0.73809,-0.11418 -0.14233,-0.10523 -0.23626,-0.14789 -0.27833,-0.14444 z m 6.78938,0.44999 c -0.1477,0.007 -0.42012,0.0921 -0.65146,0.2069 -0.38584,0.19146 -0.54258,0.35507 -0.79414,0.82874 -0.39153,0.73723 -0.41367,0.75734 -0.93219,0.84155 -0.41058,0.0667 -0.42829,0.0581 -0.49324,-0.23765 -0.0776,-0.35338 0.27912,-1.29508 0.54753,-1.44529 0.34661,-0.19397 0.013,-0.21421 -0.3616,-0.0219 -0.56376,0.28937 -0.77309,0.70134 -0.7421,1.46081 l 0.0253,0.61944 -0.42374,0.2527 -0.42389,0.2527 -0.16943,-0.32765 c -0.11649,-0.22521 -0.15436,-0.48378 -0.12139,-0.82681 0.057,-0.59315 -0.0736,-0.60483 -0.37025,-0.0331 -0.21274,0.40994 -0.19975,0.5115 0.17776,1.38619 0.0438,0.10164 -0.0592,0.25365 -0.30395,0.44856 l -0.37025,0.29482 -0.2495,-0.2692 c -0.26859,-0.28967 -0.53643,-0.34307 -0.73329,-0.14621 -0.19033,0.19034 -0.1476,0.37638 0.14973,0.65194 l 0.27272,0.25287 -0.22147,0.23572 c -0.26518,0.28226 -0.28738,0.63675 -0.0482,0.77061 0.24434,0.13674 0.49715,0.0165 0.78454,-0.37298 0.18495,-0.25069 0.26221,-0.29721 0.30571,-0.18384 0.032,0.0834 0.20235,0.2262 0.37841,0.31725 0.2499,0.12922 0.35223,0.13886 0.4665,0.0441 0.23173,-0.19232 0.17193,-0.46652 -0.16318,-0.7485 l -0.30956,-0.26039 0.54015,-0.40356 c 1.04249,-0.77885 2.25234,-1.24606 3.22671,-1.24606 0.60709,0 1.65871,0.3154 2.10074,0.63016 0.28351,0.20185 0.28602,0.20182 0.28602,0.002 0,-0.11074 -0.16449,-0.34561 -0.36545,-0.52206 l -0.36545,-0.32077 0.2194,-0.35487 c 0.12062,-0.19515 0.3807,-0.4879 0.57796,-0.6505 l 0.35855,-0.29562 -0.2567,-0.0644 c -0.14118,-0.0354 -0.36654,-0.0227 -0.50077,0.0283 -0.23981,0.0912 -0.83613,0.69703 -0.91297,0.92755 -0.0418,0.12537 -0.76399,0.054 -1.01337,-0.1001 -0.2177,-0.13454 0.29447,-1.02303 0.76659,-1.32982 0.35212,-0.22881 0.37019,-0.25989 0.16847,-0.28985 -0.0155,-0.002 -0.0342,-0.003 -0.0552,-0.002 z m -1.79135,0.0866 c -0.10619,0.0122 -0.34712,0.27947 -0.48715,0.55633 -0.1456,0.28787 -0.12832,0.27977 0.20146,-0.095 0.19843,-0.22548 0.34339,-0.42819 0.32221,-0.45032 -0.009,-0.009 -0.0214,-0.0128 -0.0366,-0.0111 z m 2.42727,0.20578 c -0.28435,0.002 -1.20426,0.83261 -1.20426,1.08801 0,0.047 0.13951,-0.0841 0.31019,-0.29114 0.17067,-0.20706 0.47046,-0.43431 0.66619,-0.50509 0.34958,-0.12641 0.47983,-0.29311 0.22788,-0.29178 z m -4.73667,0.75747 c -0.0313,0.007 -0.0706,0.0584 -0.0995,0.1342 -0.0556,0.14607 -0.0439,0.15781 0.0574,0.0574 0.07,-0.0695 0.10155,-0.15212 0.07,-0.18368 -0.008,-0.008 -0.0175,-0.0104 -0.0279,-0.008 z m 6.36516,0.01 c -0.16198,-0.004 -0.89001,0.57538 -1.07744,0.87212 -0.12022,0.19034 -0.0422,0.1508 0.30363,-0.15373 0.25603,-0.22548 0.55475,-0.46222 0.66379,-0.52607 0.10904,-0.0638 0.16956,-0.1464 0.13452,-0.18336 -0.006,-0.006 -0.0137,-0.009 -0.0245,-0.009 z m -3.13286,1.64753 c -0.21075,0.003 -0.44346,0.0191 -0.6324,0.0458 -0.69325,0.098 -2.19165,0.77914 -2.50302,1.13781 l -0.2029,0.23381 0.35872,-0.2282 c 0.9372,-0.59621 2.21044,-1.04221 2.97512,-1.04221 0.55954,0 1.34646,0.26784 1.84243,0.62712 0.42073,0.30478 0.45129,0.31189 0.58052,0.13516 0.075,-0.10259 0.13644,-0.23269 0.13644,-0.28906 0,-0.0563 -0.0651,-0.0135 -0.14461,0.0951 -0.13396,0.1832 -0.15822,0.18543 -0.3331,0.0313 -0.3264,-0.2878 -1.19566,-0.67112 -1.65619,-0.73025 -0.0608,-0.008 -0.1361,-0.0128 -0.22003,-0.0152 -0.063,-0.002 -0.13073,-0.002 -0.20098,-7.9e-4 z m -12.61936,0.0685 c -1.39533,0 -2.6638,0.009 -3.58365,0.0233 -0.45993,0.007 -0.83272,0.0157 -1.09089,0.0252 -0.12909,0.005 -0.22943,0.01 -0.29835,0.0149 -0.0344,0.002 -0.061,0.006 -0.0804,0.008 -0.01,0.002 -0.0174,0.003 -0.0255,0.006 -0.004,0.002 -0.008,0.002 -0.0142,0.006 -0.006,0.004 -0.0213,0.014 -0.0213,0.0372 0,0.0304 0.012,0.0436 0.0266,0.0658 0.0146,0.0222 0.0347,0.0484 0.0602,0.0794 0.0511,0.062 0.12395,0.14237 0.21428,0.23716 0.18064,0.1896 0.43071,0.43658 0.71054,0.70335 0.55968,0.53354 1.23793,1.14556 1.71577,1.53159 1.07187,0.86598 2.91128,2.09551 3.86182,2.58037 0.36625,0.18682 1.2841,0.57996 2.04614,0.87694 0.38066,0.14836 0.73524,0.2836 1.00024,0.3821 0.13251,0.0492 0.24264,0.0893 0.32253,0.11723 0.04,0.014 0.0722,0.025 0.0964,0.0327 0.0121,0.004 0.0222,0.007 0.0305,0.009 0.008,0.002 0.0126,0.004 0.0239,0.005 0.0157,7.3e-4 0.0281,-0.008 0.0336,-0.0138 0.006,-0.006 0.008,-0.0103 0.009,-0.0141 0.003,-0.008 0.005,-0.0137 0.006,-0.0208 0.003,-0.0142 0.006,-0.032 0.008,-0.0549 0.006,-0.0459 0.0101,-0.11173 0.0147,-0.19649 0.009,-0.16953 0.0174,-0.41389 0.0244,-0.71567 0.0139,-0.60357 0.0227,-1.43622 0.0227,-2.35249 l 0,-3.37195 -5.1143,0 z m 0,0.082 5.03231,0 0,3.28996 c 0,0.91574 -0.009,1.74796 -0.0226,2.35056 -0.007,0.3013 -0.0154,0.5452 -0.0245,0.71311 -0.005,0.084 -0.009,0.14907 -0.0141,0.19185 -7.9e-4,0.0102 -0.002,0.0144 -0.003,0.0219 -7.9e-4,-3.3e-4 -0.002,-4e-4 -0.002,-7.9e-4 -0.0228,-0.007 -0.0547,-0.018 -0.0942,-0.0319 -0.079,-0.0277 -0.18871,-0.0676 -0.32093,-0.11674 -0.26442,-0.0983 -0.6188,-0.2334 -0.99913,-0.38162 -0.75996,-0.29618 -1.68034,-0.69084 -2.0386,-0.87358 -0.93862,-0.47878 -2.78189,-1.71011 -3.84757,-2.57108 -0.47437,-0.38324 -1.15225,-0.9948 -1.71064,-1.52711 -0.2792,-0.26616 -0.52871,-0.51264 -0.70783,-0.70063 -0.0895,-0.094 -0.16156,-0.17342 -0.21043,-0.23268 -0.0215,-0.0261 -0.0365,-0.0465 -0.0482,-0.0638 0.014,-0.002 0.0251,-0.003 0.0457,-0.005 0.0669,-0.005 0.16676,-0.0101 0.2953,-0.0147 0.25708,-0.009 0.62952,-0.018 1.08913,-0.0252 0.91921,-0.0143 2.18739,-0.0233 3.58237,-0.0233 z m 6.69891,0.98471 c -0.0509,-0.007 -0.0388,0.0579 0.069,0.18784 0.0713,0.0859 0.17816,0.1563 0.23749,0.1563 0.0593,0 0.0191,-0.0864 -0.0894,-0.19185 -0.1,-0.0972 -0.17762,-0.14663 -0.21715,-0.15229 z m 1.60078,1.24718 c -0.0614,0.003 -0.13698,0.073 -0.26728,0.22789 -0.32605,0.38748 -0.6929,0.39493 -1.09073,0.0221 -0.25935,-0.24306 -0.28468,-0.25086 -0.18416,-0.0565 0.0641,0.12395 0.21866,0.2969 0.34351,0.38434 0.33419,0.23409 0.57023,0.19572 0.91424,-0.14829 0.28006,-0.28006 0.3215,-0.29281 0.46922,-0.14509 0.315,0.31499 0.65968,0.37715 0.93811,0.16927 0.14045,-0.10487 0.27564,-0.25105 0.30027,-0.32493 0.0246,-0.0739 -0.0967,-0.0297 -0.26952,0.098 -0.27985,0.2069 -0.34815,0.21829 -0.62424,0.10394 -0.1705,-0.0707 -0.36196,-0.19107 -0.42549,-0.26761 -0.0353,-0.0426 -0.0671,-0.0649 -0.10393,-0.0631 z m -26.30814,9.95556 -5.25105,0.0283 -5.2509,0.0282 -0.27416,0.25622 c -0.53484,0.49987 -0.56211,0.64423 -0.56211,2.97047 0,1.61042 0.0361,2.24739 0.14205,2.50094 0.14599,0.34939 0.57118,0.71705 0.93411,0.80792 0.11274,0.0282 2.4156,0.0567 5.11766,0.0632 4.76391,0.0116 4.92612,0.006 5.34907,-0.19921 0.32021,-0.15502 0.49378,-0.33028 0.65306,-0.65931 0.20327,-0.41989 0.21505,-0.58283 0.1856,-2.58181 -0.0349,-2.36966 -0.0808,-2.5671 -0.69118,-2.978 l -0.35215,-0.237 z m 43.80189,3.1e-4 -5.61138,0.028 c -5.42877,0.0272 -5.62035,0.0349 -5.88489,0.23317 -0.54563,0.40903 -0.59765,0.67787 -0.59765,3.08337 0,2.31671 0.0358,2.53247 0.49083,2.94422 0.11247,0.10177 0.33633,0.22445 0.4974,0.27272 0.16108,0.0483 2.72578,0.0917 5.6993,0.0966 l 5.40639,0.009 0,-0.71743 0,-0.71744 -5.20141,-0.002 c -2.86077,-7.9e-4 -5.26026,-0.0388 -5.33209,-0.0844 -0.0995,-0.0631 -0.1239,-0.50861 -0.10249,-1.86885 l 0.0282,-1.78606 5.30391,-0.0266 5.3039,-0.0264 0,-0.71905 0,-0.71903 z m -69.59132,0.005 0,3.33095 0,3.33095 0.71744,0 0.71743,0 0,-0.86748 0,-0.8675 5.09892,-0.0293 5.09893,-0.0293 0.33454,-0.23862 c 0.56061,-0.39986 0.63912,-0.66884 0.63912,-2.19202 0,-1.55637 -0.11894,-1.92591 -0.72384,-2.25032 -0.32633,-0.17501 -0.72672,-0.18736 -6.11598,-0.18736 l -5.76656,0 z m 28.59496,0 0,3.26273 c 0,1.79444 0.0306,3.29337 0.0682,3.33096 l 0,-4.9e-4 c 0.0376,0.0376 0.36042,0.0684 0.71744,0.0684 l 0.64921,0 0,-0.87437 0,-0.87422 4.43273,0.0286 c 4.24984,0.0276 4.44383,0.0373 4.70465,0.23381 0.37489,0.28248 0.52677,0.54467 0.59349,1.02491 l 0.057,0.40996 0.70559,0.0306 0.70575,0.0306 -0.0514,-0.45577 c -0.061,-0.54133 -0.51365,-1.26187 -0.97543,-1.55273 -0.36559,-0.23027 -0.42051,-0.35838 -0.1539,-0.3592 0.29329,-6.3e-4 0.82396,-0.3782 0.99416,-0.70735 0.11533,-0.223 0.15886,-0.61791 0.15886,-1.44448 0,-1.28649 -0.1126,-1.62647 -0.64569,-1.95149 -0.31524,-0.19222 -0.55636,-0.19968 -6.14432,-0.20049 l -5.81637,0 z m 15.5064,0 -0.34831,0.23269 c -0.51595,0.34467 -0.70671,0.80738 -0.70671,1.71463 0,0.86944 0.18185,1.34199 0.64777,1.68389 0.28103,0.20622 0.43421,0.21365 5.38077,0.26344 l 5.09157,0.0513 0,0.71743 0,0.71744 -5.45765,0.0266 -5.45764,0.0264 0,0.61414 0,0.61383 5.61138,0 c 6.25511,-1.9e-4 6.0721,0.0196 6.55734,-0.70671 0.19836,-0.29693 0.23268,-0.48273 0.23268,-1.26063 0,-1.04496 -0.13951,-1.41769 -0.64569,-1.72634 -0.31333,-0.19105 -0.54901,-0.20033 -5.2288,-0.20033 -3.18142,-2.5e-4 -4.97022,-0.0377 -5.09892,-0.1065 -0.1608,-0.0861 -0.19809,-0.21769 -0.19809,-0.69694 0,-0.32496 0.0553,-0.64626 0.12298,-0.71391 0.0925,-0.0925 1.45082,-0.12299 5.48327,-0.12299 l 5.36027,0 0,-0.5637 0,-0.5637 -5.6732,0 -5.67302,0 z m 27.3348,0 0,3.33559 0,3.33577 0.69181,-0.0305 0.69182,-0.0302 0.0285,-1.35801 0.0286,-1.358 4.50656,0 4.50672,0 0,1.38363 0,1.38363 0.71743,0 0.71744,0 0,-3.33096 0,-3.33095 -0.71456,0 -0.71439,0 -0.0286,1.358 -0.0285,1.358 -4.45836,0 -4.45835,0 -0.0286,-1.358 -0.0286,-1.358 -0.71439,0 -0.71439,0 z m 13.73378,0 0,3.33095 0,3.33095 6.45693,0 6.45692,0 0,-0.61495 0,-0.61493 -5.79073,0 -5.79074,0 0,-0.76869 0,-0.76868 5.79074,0 5.79073,0 0,-0.56274 0,-0.5629 -5.76511,-0.0264 -5.76511,-0.0266 0,-0.76868 0,-0.76869 5.76511,-0.0264 5.76511,-0.0264 0,-0.5629 0,-0.5629 -6.45692,0 -6.45693,0 z m -83.73507,1.43487 4.872,0 4.87201,0 -0.0294,0.99928 -0.0293,0.99929 -4.8427,0.0266 -4.84269,0.0267 0,-1.02603 0,-1.02587 z m 28.59496,0 4.85727,0 c 4.33473,0 4.86405,0.0176 4.91957,0.16222 0.11337,0.29546 0.0672,1.63665 -0.0607,1.76461 -0.0921,0.0921 -1.31047,0.12299 -4.85135,0.12299 -2.60054,0 -4.75899,-0.0306 -4.79657,-0.0682 -0.0376,-0.0376 -0.0682,-0.49879 -0.0682,-1.02491 l 0,-0.95669 z m -14.0925,0.0513 4.71459,0 4.71458,0 0.028,1.7289 c 0.0194,1.188 -0.009,1.77311 -0.0894,1.87046 -0.0968,0.11669 -0.91499,0.14128 -4.64028,0.13996 -2.48747,-7.9e-4 -4.5814,-0.0388 -4.65324,-0.0844 -0.0995,-0.0631 -0.1239,-0.50861 -0.1025,-1.86886 l 0.0282,-1.78607 z"
         id="path8087"
         inkscape:connector-curvature="0" />
    </g>
  </g>
</svg>
