<?xml version="1.0" encoding="UTF-8" standalone="no"?>
<svg
   xmlns:dc="http://purl.org/dc/elements/1.1/"
   xmlns:cc="http://creativecommons.org/ns#"
   xmlns:rdf="http://www.w3.org/1999/02/22-rdf-syntax-ns#"
   xmlns:svg="http://www.w3.org/2000/svg"
   xmlns="http://www.w3.org/2000/svg"
   xmlns:sodipodi="http://sodipodi.sourceforge.net/DTD/sodipodi-0.dtd"
   xmlns:inkscape="http://www.inkscape.org/namespaces/inkscape"
   version="1.1"
   viewBox="0 0 100 100"
   id="svg2"
   inkscape:version="0.48.4 r9939"
   width="100%"
   height="100%"
   sodipodi:docname="snowflake_grey.svg">
  <metadata
     id="metadata51">
    <rdf:RDF>
      <cc:Work
         rdf:about="">
        <dc:format>image/svg+xml</dc:format>
        <dc:type
           rdf:resource="http://purl.org/dc/dcmitype/StillImage" />
        <dc:title>remember-me-active</dc:title>
      </cc:Work>
    </rdf:RDF>
  </metadata>
  <defs
     id="defs49" />
  <sodipodi:namedview
     pagecolor="#ffffff"
     bordercolor="#666666"
     borderopacity="1"
     objecttolerance="10"
     gridtolerance="10"
     guidetolerance="10"
     inkscape:pageopacity="0"
     inkscape:pageshadow="2"
     inkscape:window-width="1920"
     inkscape:window-height="1018"
     id="namedview47"
     showgrid="false"
     inkscape:zoom="2.8284272"
     inkscape:cx="65.383784"
     inkscape:cy="15.251806"
     inkscape:window-x="1912"
     inkscape:window-y="-8"
     inkscape:window-maximized="1"
     inkscape:current-layer="svg2"
     inkscape:snap-bbox="true"
     fit-margin-top="0"
     fit-margin-left="0"
     fit-margin-right="0"
     fit-margin-bottom="0"
     units="px"
     showguides="true"
     inkscape:guide-bbox="true" />
  <title
     id="title3003">remember-me-active</title>
  <g
     id="g3023"
     transform="matrix(0.19545769,0,0,0.1954644,8.2313352,31.412013)" />
  <path
     style="fill:#000000"
     d="M 11.0412,98.063439 C 7.8993282,96.555696 7.2111642,93.249326 8.8578652,87.573346 9.7868022,84.371412 12.034824,79.310738 13.53672,77.040464 c 0.492358,-0.744252 1.992194,-2.571062 3.33297,-4.059575 l 2.437774,-2.70639 -0.640116,-3.879877 C 18.315283,64.26069 18.027231,61.234979 18.027231,59.670823 l 0,-2.843919 -1.313747,0.799563 c -0.722561,0.439764 -2.682438,2.228737 -4.355284,3.975495 -3.9807678,4.156659 -5.9588128,4.74879 -9.3864248,2.809857 -1.386017,-0.784046 -2.634276,-4.070795 -2.287678,-6.023608 0.339348,-1.911958 3.225121,-5.53153 6.88604,-8.63704 2.6561768,-2.253199 9.2624008,-5.923117 11.5194418,-6.399329 1.092382,-0.230481 1.40939,-0.643601 2.248009,-2.929582 l 0.976293,-2.661264 -1.855794,-2.060169 C 17.751486,32.696153 16.520649,30.778712 14.665728,26.677294 12.41614,21.703225 11.190032,16.546683 11.753934,14.431399 c 0.787925,-2.955631 2.626939,-4.4704155 5.424316,-4.4679745 2.083349,0.0018 4.276202,1.1526845 5.028926,2.6393105 0.255632,0.504872 0.835646,2.450633 1.288921,4.323914 0.820739,3.391931 3.316282,8.46498 4.917619,9.996752 0.822439,0.786712 0.9016,0.753566 3.497503,-1.464482 5.31927,-4.545007 11.245087,-6.786799 17.939819,-6.786799 6.694733,0 12.620552,2.241792 17.939822,6.786799 2.595901,2.218048 2.675063,2.251194 3.497499,1.464482 1.601341,-1.531772 4.09688,-6.604821 4.91762,-9.996752 0.453276,-1.873281 1.03329,-3.819042 1.288923,-4.323914 0.752725,-1.486626 2.945574,-2.6374915 5.028924,-2.6393105 2.797379,-0.0024 4.636393,1.5123435 5.424317,4.4679745 0.563901,2.115284 -0.662207,7.271826 -2.911794,12.245895 -1.854922,4.101418 -3.085758,6.018859 -5.79236,9.023533 l -1.855793,2.060169 0.976291,2.661264 c 0.838621,2.285981 1.155628,2.699101 2.248009,2.929582 2.257041,0.476212 8.863265,4.14613 11.519444,6.399329 3.660918,3.10551 6.546693,6.725082 6.886039,8.63704 0.346599,1.952813 -0.90166,5.239562 -2.287675,6.023608 -3.427612,1.938933 -5.405659,1.346802 -9.386428,-2.809857 -1.672843,-1.746758 -3.632721,-3.535731 -4.355285,-3.975495 l -1.313745,-0.799563 0,2.843919 c 0,1.564156 -0.286389,4.579776 -0.636418,6.701368 l -0.636413,3.857446 2.893626,3.275038 c 3.193938,3.614925 6.074553,8.983336 7.549068,14.068671 1.646006,5.67679 0.957833,8.982447 -2.183834,10.490093 -2.179081,1.045707 -2.988314,1.051237 -5.104991,0.03483 -1.925135,-0.924406 -2.587388,-2.126718 -4.025272,-7.3078 -0.922631,-3.324476 -3.388976,-8.242953 -4.133393,-8.242953 -0.192936,0 -1.013216,0.953821 -1.822838,2.119601 -4.010152,5.774223 -11.406315,11.15828 -15.32831,11.15828 -0.669003,0 -1.53812,-0.458543 -2.128837,-1.123163 C 55.133116,93.594992 55.102578,93.286064 53.962549,72.90438 53.326516,61.5333 52.703532,51.784078 52.578138,51.239446 c -0.316936,-1.376571 -2.054415,-2.492559 -3.346851,-2.149693 -2.145218,0.569094 -2.202564,0.948293 -3.35353,22.174114 -0.593912,10.952848 -1.178197,20.572677 -1.298412,21.377397 -0.449695,3.010365 -2.888805,3.973273 -6.275686,2.477502 -4.056553,-1.791523 -9.268817,-6.265646 -12.175961,-10.451649 -0.809624,-1.16578 -1.629903,-2.119601 -1.822841,-2.119601 -0.744416,0 -3.21076,4.918477 -4.133392,8.24297 -1.437883,5.181083 -2.100138,6.383395 -4.025271,7.307801 -2.11668,1.016389 -2.925912,1.010859 -5.104994,-0.03483 z M 34.097187,15.069878 c -0.678893,-1.869984 2.861669,-7.6571017 6.438234,-10.5234157 3.362928,-2.6951033 5.720645,-3.61192495 9.335612,-3.63024565 2.743355,-0.013903 3.529043,0.17575065 5.952668,1.43688935 3.381724,1.7596887 7.323044,5.7740322 8.851022,9.015019 1.940352,4.11567 1.278559,5.016584 -2.583959,3.517596 -7.898284,-3.065212 -17.816777,-3.010518 -24.892989,0.137268 -1.940939,0.863408 -2.79944,0.876391 -3.100588,0.04689 z"
     id="path3785"
     inkscape:connector-curvature="0" />
</svg>
