<?xml version="1.0" encoding="UTF-8" standalone="no"?>
<!-- Created with Inkscape (http://www.inkscape.org/) -->

<svg
   xmlns:dc="http://purl.org/dc/elements/1.1/"
   xmlns:cc="http://creativecommons.org/ns#"
   xmlns:rdf="http://www.w3.org/1999/02/22-rdf-syntax-ns#"
   xmlns:svg="http://www.w3.org/2000/svg"
   xmlns="http://www.w3.org/2000/svg"
   xmlns:sodipodi="http://sodipodi.sourceforge.net/DTD/sodipodi-0.dtd"
   xmlns:inkscape="http://www.inkscape.org/namespaces/inkscape"
   id="svg2"
   version="1.1"
   inkscape:version="0.91 r13725"
   width="100"
   height="100"
   sodipodi:docname="calculate.svg">
  <metadata
     id="metadata8">
    <rdf:RDF>
      <cc:Work
         rdf:about="">
        <dc:format>image/svg+xml</dc:format>
        <dc:type
           rdf:resource="http://purl.org/dc/dcmitype/StillImage" />
        <dc:title></dc:title>
      </cc:Work>
    </rdf:RDF>
  </metadata>
  <defs
     id="defs6" />
  <sodipodi:namedview
     pagecolor="#ffffff"
     bordercolor="#666666"
     borderopacity="1"
     objecttolerance="10"
     gridtolerance="10"
     guidetolerance="10"
     inkscape:pageopacity="0"
     inkscape:pageshadow="2"
     inkscape:window-width="2495"
     inkscape:window-height="1416"
     id="namedview4"
     showgrid="false"
     inkscape:zoom="2.6074563"
     inkscape:cx="108.14906"
     inkscape:cy="-11.37543"
     inkscape:window-x="65"
     inkscape:window-y="24"
     inkscape:window-maximized="1"
     inkscape:current-layer="svg2"
     showborder="true" />
  <path
     style="fill:#000000"
     d=""
     id="path3011"
     inkscape:connector-curvature="0" />
  <path
     style="fill:#000000"
     d=""
     id="path3009"
     inkscape:connector-curvature="0" />
  <path
     style="fill:#000000"
     d=""
     id="path2989"
     inkscape:connector-curvature="0" />
  <path
     style="fill:#000000"
     d=""
     id="path2987"
     inkscape:connector-curvature="0" />
  <path
     style="fill:#000000"
     d=""
     id="path3813"
     inkscape:connector-curvature="0" />
  <path
     style="fill:#000000"
     d="m 19.288369,0.400391 c -2.452081,0 -4.414905,1.9655346 -4.414905,4.4177823 l 0,90.7386537 c 0,2.452252 1.962824,4.417782 4.414905,4.417782 l 61.871974,0 c 2.452093,0 4.417782,-1.965689 4.417782,-4.417782 l 0,-90.7386537 c 0,-2.4520857 -1.965689,-4.4177823 -4.417782,-4.4177823 z m 3.767347,3.8997355 54.343037,0 c 2.153753,0 3.876711,1.8124765 3.876711,4.0724182 l 0,83.6270323 c 0,2.259939 -1.722958,4.072419 -3.876711,4.072419 l -54.343037,0 c -2.153753,0 -3.879591,-1.812337 -3.879591,-4.072419 l 0,-83.6270323 c 0,-2.2600861 1.725838,-4.0724182 3.879591,-4.0724182 z m 3.847931,7.9750315 c -1.359876,0 -2.452086,1.095083 -2.452086,2.454964 l 0,15.325531 c 0,1.359881 1.09221,2.454962 2.452086,2.454962 l 47.027074,0 c 1.359876,0 2.454964,-1.095081 2.454964,-2.454962 l 0,-15.325531 c 0,-1.359881 -1.095088,-2.454964 -2.454964,-2.454964 z m 28.406194,2.734133 c 1.723184,0 3.063261,0.378112 4.014859,1.136824 0.958041,0.758713 1.436138,1.814911 1.436138,3.171592 0,0.78443 -0.202182,1.520142 -0.607265,2.201697 -0.405069,0.675126 -1.259757,1.578794 -2.558572,2.716864 l -3.076619,2.702473 6.337431,0 0,2.728377 -10.464531,0 0,-2.728377 5.258168,-4.63939 c 0.469365,-0.424365 0.816804,-0.838235 1.041848,-1.24331 0.225044,-0.405074 0.333852,-0.829111 0.333852,-1.266335 0,-0.675127 -0.225589,-1.217462 -0.682094,-1.628968 -0.450087,-0.411504 -1.052243,-0.6159 -1.804527,-0.6159 -0.578678,0 -1.211514,0.123381 -1.899503,0.374144 -0.687991,0.244332 -1.423017,0.613625 -2.207453,1.102288 l 0,-3.165837 c 0.835869,-0.276478 1.661407,-0.483078 2.477988,-0.624533 0.81658,-0.147885 1.615847,-0.221609 2.40028,-0.221609 z m 13.492223,0 c 1.871063,0 3.270284,0.30659 4.196175,0.923848 0.932311,0.610828 1.398723,1.534154 1.398723,2.768669 0,0.842302 -0.221168,1.532086 -0.664826,2.072184 -0.443645,0.533673 -1.100558,0.912458 -1.968574,1.131069 0.970899,0.250762 1.708806,0.68582 2.21033,1.309504 0.507955,0.61726 0.762679,1.404831 0.762679,2.362866 0,1.427409 -0.547419,2.514961 -1.640479,3.260813 -1.09306,0.739425 -2.687185,1.110921 -4.783293,1.110921 -0.739426,0 -1.484621,-0.06204 -2.230476,-0.184194 -0.739428,-0.115733 -1.472263,-0.291657 -2.198818,-0.529558 l 0,-2.866521 c 0.694408,0.347207 1.382002,0.611424 2.06355,0.791458 0.68799,0.173604 1.363863,0.259023 2.026136,0.259023 0.983757,0 1.735566,-0.168635 2.256378,-0.509412 0.527241,-0.340778 0.791461,-0.83125 0.791461,-1.467797 0,-0.655836 -0.271507,-1.150716 -0.811606,-1.485065 -0.533672,-0.340779 -1.320567,-0.51229 -2.368622,-0.512291 l -1.487944,0 0,-2.388767 1.562773,0 c 0.932321,0 1.627203,-0.145249 2.083696,-0.434584 0.456518,-0.29577 0.684972,-0.743195 0.684972,-1.341163 0,-0.55296 -0.224045,-0.978527 -0.667704,-1.280726 -0.443659,-0.302201 -1.069206,-0.45473 -1.879355,-0.45473 -0.597968,0 -1.202336,0.06643 -1.813162,0.201463 -0.610836,0.135022 -1.2174,0.335011 -1.821795,0.598631 l 0,-2.719742 c 0.732987,-0.205753 1.458522,-0.357608 2.178671,-0.460485 0.720125,-0.102869 1.42669,-0.155414 2.12111,-0.155414 z m -28.132782,0.259022 3.531349,0 0,11.834476 3.27808,0 0,2.564329 -10.067362,0 0,-2.564329 3.27808,0 0,-9.307561 -3.3673,0.693606 0,-2.524035 z M 24.975364,38.243659 c -0.290632,0 -0.523803,0.233179 -0.523803,0.523802 l 0,5.853921 c 0,0.290623 0.233171,0.523802 0.523803,0.523802 l 21.993935,0 c 0.290632,0 0.523803,-0.233179 0.523803,-0.523802 l 0,-5.853921 c 0,-0.290623 -0.233171,-0.523802 -0.523803,-0.523802 z m 28.316976,0 c -0.290633,0 -0.523802,0.233179 -0.523802,0.523802 l 0,5.853921 c 0,0.290623 0.233169,0.523802 0.523802,0.523802 l 21.996813,0 c 0.290632,0 0.523803,-0.233179 0.523803,-0.523802 l 0,-5.853921 c 0,-0.290623 -0.233171,-0.523802 -0.523803,-0.523802 z M 38.979877,50.475303 c -0.29062,0 -0.523803,0.233179 -0.523803,0.523802 l 0,8.300251 c 0,0.290621 0.233183,0.523802 0.523803,0.523801 l 8.297373,0 c 0.29063,0 0.526679,-0.23318 0.526679,-0.523801 l 0,-8.300251 c 0,-0.290623 -0.23605,-0.523801 -0.526679,-0.523802 z m 14.004513,0 c -0.290622,0 -0.523801,0.233179 -0.523801,0.523802 l 0,8.300251 c 0,0.290621 0.233179,0.523802 0.523801,0.523801 l 8.297373,0 c 0.290632,0 0.523801,-0.23318 0.523801,-0.523801 l 0,-8.300251 c 0,-0.290623 -0.233169,-0.523801 -0.523801,-0.523802 z m -28.009026,0.04318 c -0.290632,-2e-6 -0.523803,0.233178 -0.523803,0.523802 l 0,8.297373 c 0,0.290623 0.233171,0.523801 0.523803,0.523801 l 8.297371,0 c 0.29062,0 0.523803,-0.233179 0.523803,-0.523801 l 0,-8.297373 c 0,-0.290624 -0.233183,-0.523802 -0.523803,-0.523802 z m 42.016418,0 c -0.290619,-2e-6 -0.52668,0.233178 -0.52668,0.523802 l 0,8.297373 c 0,0.290623 0.236061,0.523801 0.52668,0.523801 l 8.297371,0 c 0.290632,0 0.523803,-0.233179 0.523803,-0.523801 l 0,-8.297373 c 0,-0.290624 -0.233171,-0.523802 -0.523803,-0.523802 z m -28.011905,13.48934 c -0.29062,0 -0.523803,0.236058 -0.523803,0.526681 l 0,8.297372 c 0,0.290623 0.233183,0.523801 0.523803,0.523801 l 8.297373,0 c 0.29063,0 0.526679,-0.233178 0.526679,-0.523801 l 0,-8.297372 c 0,-0.290623 -0.236049,-0.526681 -0.526679,-0.526681 z m 14.004513,0 c -0.290622,0 -0.523801,0.236058 -0.523801,0.526681 l 0,8.297372 c 0,0.290623 0.233179,0.523801 0.523801,0.523801 l 8.297373,0 c 0.290632,0 0.523802,-0.233178 0.523801,-0.523801 l 0,-8.297372 c 0,-0.290623 -0.233169,-0.526681 -0.523801,-0.526681 z m -28.009026,0.04318 c -0.290632,0 -0.523803,0.236058 -0.523803,0.526681 l 0,8.294493 c 0,0.290625 0.233171,0.526681 0.523803,0.526681 l 8.297371,0 c 0.29062,0 0.523803,-0.236056 0.523803,-0.526681 l 0,-8.294493 c 0,-0.290623 -0.233183,-0.526681 -0.523803,-0.526681 z m 42.016418,0 c -0.290619,0 -0.52668,0.236058 -0.52668,0.526681 l 0,8.294493 c 0,0.290625 0.236061,0.526681 0.52668,0.526681 l 8.297371,0 c 0.290632,0 0.523803,-0.236056 0.523803,-0.526681 l 0,-8.294493 c 0,-0.290623 -0.233171,-0.526681 -0.523803,-0.526681 z M 38.979877,77.543221 c -0.29062,0 -0.523803,0.23318 -0.523803,0.523803 l 0,8.297371 c 0,0.290623 0.233183,0.523803 0.523803,0.523803 l 8.297373,0 c 0.29063,0 0.526679,-0.23318 0.526679,-0.523803 l 0,-8.297371 c 0,-0.290623 -0.236049,-0.523803 -0.526679,-0.523803 z m 14.004513,0 c -0.290622,0 -0.523801,0.23318 -0.523801,0.523803 l 0,8.297371 c 0,0.290623 0.233179,0.523803 0.523801,0.523803 l 8.297373,0 c 0.290632,0 0.523802,-0.23318 0.523801,-0.523803 l 0,-8.297371 c 0,-0.290623 -0.233169,-0.523803 -0.523801,-0.523803 z m -28.009026,0.04029 c -0.290632,0 -0.523803,0.23318 -0.523803,0.523803 l 0,8.297371 c 0,0.290623 0.233171,0.526681 0.523803,0.526681 l 8.297371,0 c 0.29062,0 0.523803,-0.236058 0.523803,-0.526681 l 0,-8.297371 c 0,-0.290623 -0.233183,-0.523803 -0.523803,-0.523803 z m 42.016418,0 c -0.290619,0 -0.52668,0.23318 -0.52668,0.523803 l 0,8.297371 c 0,0.290623 0.236061,0.526681 0.52668,0.526681 l 8.297371,0 c 0.290632,0 0.523803,-0.236058 0.523803,-0.526681 l 0,-8.297371 c 0,-0.290623 -0.233171,-0.523803 -0.523803,-0.523803 z"
     id="path4030"
     inkscape:connector-curvature="0"
     sodipodi:nodetypes="sssssssssssssssssssssssssssscsccccccccsscsccccsscscccscsccccscscsccscssscccssccccccccccccssssssssssssssssssssssssssssssssssssssssssssssssssssssssssssssssssssssssssssssssssssssssssssssssssssssssssssssssssssssssssssss" />
  <g
     style="font-style:normal;font-weight:normal;font-size:56.07156754px;line-height:125%;font-family:Sans;letter-spacing:0px;word-spacing:0px;fill:#000000;fill-opacity:1;stroke:none;stroke-width:1px;stroke-linecap:butt;stroke-linejoin:miter;stroke-opacity:1"
     id="text5053" />
  <rect
     style="fill:#010000;fill-opacity:0;stroke:none;stroke-width:2;stroke-miterlimit:4;stroke-dasharray:none;stroke-opacity:1"
     id="rect5057"
     width="53.423729"
     height="8.9491529"
     x="-145.08475"
     y="6.9830508"
     ry="4.4745765" />
  <g
     id="g6380"
     transform="translate(-118.68382,-40.899015)">
    <path
       inkscape:connector-curvature="0"
       id="path3011-7"
       d=""
       style="fill:#000000" />
    <path
       inkscape:connector-curvature="0"
       id="path3009-7"
       d=""
       style="fill:#000000" />
    <path
       inkscape:connector-curvature="0"
       id="path2989-1"
       d=""
       style="fill:#000000" />
    <path
       inkscape:connector-curvature="0"
       id="path2987-1"
       d=""
       style="fill:#000000" />
    <path
       inkscape:connector-curvature="0"
       id="path3813-5"
       d=""
       style="fill:#000000" />
    <g
       id="text5053-7"
       style="font-style:normal;font-weight:normal;font-size:56.07156754px;line-height:125%;font-family:Sans;letter-spacing:0px;word-spacing:0px;fill:#000000;fill-opacity:1;stroke:none;stroke-width:1px;stroke-linecap:butt;stroke-linejoin:miter;stroke-opacity:1" />
  </g>
</svg>
