<?xml version="1.0" encoding="UTF-8" standalone="no"?>
<svg
   xmlns:dc="http://purl.org/dc/elements/1.1/"
   xmlns:cc="http://creativecommons.org/ns#"
   xmlns:rdf="http://www.w3.org/1999/02/22-rdf-syntax-ns#"
   xmlns:svg="http://www.w3.org/2000/svg"
   xmlns="http://www.w3.org/2000/svg"
   xmlns:xlink="http://www.w3.org/1999/xlink"
   xmlns:sodipodi="http://sodipodi.sourceforge.net/DTD/sodipodi-0.dtd"
   xmlns:inkscape="http://www.inkscape.org/namespaces/inkscape"
   version="1.1"
   viewBox="0 0 100 100"
   id="svg2"
   inkscape:version="0.48.4 r9939"
   width="100%"
   height="100%"
   sodipodi:docname="calendar.svg">
  <metadata
     id="metadata51">
    <rdf:RDF>
      <cc:Work
         rdf:about="">
        <dc:format>image/svg+xml</dc:format>
        <dc:type
           rdf:resource="http://purl.org/dc/dcmitype/StillImage" />
        <dc:title>calendar</dc:title>
      </cc:Work>
    </rdf:RDF>
  </metadata>
  <defs
     id="defs49">
    <linearGradient
       inkscape:collect="always"
       xlink:href="#linearGradient3802-1"
       id="linearGradient3860"
       gradientUnits="userSpaceOnUse"
       gradientTransform="matrix(8.1388236,0,0,8.2087572,43.862514,-237.13826)"
       x1="54.909092"
       y1="98.909088"
       x2="56.909103"
       y2="57.63636" />
    <linearGradient
       inkscape:collect="always"
       id="linearGradient3802-1">
      <stop
         style="stop-color:#2d2d2d;stop-opacity:1"
         offset="0"
         id="stop3804-7" />
      <stop
         style="stop-color:#b0b0b0;stop-opacity:1"
         offset="1"
         id="stop3806-4" />
    </linearGradient>
  </defs>
  <sodipodi:namedview
     pagecolor="#ffffff"
     bordercolor="#666666"
     borderopacity="1"
     objecttolerance="10"
     gridtolerance="10"
     guidetolerance="10"
     inkscape:pageopacity="0"
     inkscape:pageshadow="2"
     inkscape:window-width="2479"
     inkscape:window-height="1410"
     id="namedview47"
     showgrid="false"
     inkscape:zoom="7.6266671"
     inkscape:cx="12.737031"
     inkscape:cy="30.635726"
     inkscape:window-x="81"
     inkscape:window-y="30"
     inkscape:window-maximized="1"
     inkscape:current-layer="svg2"
     inkscape:snap-bbox="true"
     fit-margin-top="0"
     fit-margin-left="0"
     fit-margin-right="0"
     fit-margin-bottom="0" />
  <title>calendar</title>
  <g
     id="_calendar"
     inkscape:label="Ebene 1"
     transform="matrix(0.21133389,0,0,0.19801484,-11.213905,-4.9809251)">
    <path
       id="calendar"
       d="m 421.9375,25.78125 c -9.30231,0.233345 -18.42045,5.575741 -22.96875,15.34375 l -2.375,5.09375 0,52.875 c -0.007,37.66681 0.31862,54.01676 1.15625,56.8125 2.07862,6.93782 9.83706,14.32067 17.8125,16.9375 1.37856,0.45224 5.34559,0.66849 8.8125,0.46875 11.05127,-0.63668 20.80428,-8.91833 23.09375,-19.59375 0.7066,-3.29479 1.09375,-22.67304 1.09375,-54.875 0,-55.60075 -0.0637,-56.36029 -6.65625,-64.0625 -5.37858,-6.283659 -12.73362,-9.18149 -19.96875,-9 z M 156.125,26.5625 c -3.28472,0.03588 -6.44903,0.484013 -8.65625,1.40625 -5.43147,2.26941 -10.94605,7.698 -13.53125,13.25 l -2.34375,5 0,53.78125 c -0.008,46.04259 0.18937,54.30072 1.5,57.4375 3.52175,8.42873 10.66672,14.66565 18.5625,16.1875 12.25863,2.36277 24.11749,-3.68296 29.3125,-14.90625 2.03605,-4.39868 2.09375,-5.8471 2.09375,-58.5 0,-52.719024 -0.0483,-54.10675 -2.09375,-58.5 -2.64327,-5.67724 -7.66352,-10.6774 -13.21875,-13.1875 -2.96299,-1.338812 -7.40179,-2.014884 -11.625,-1.96875 z m 221.4375,80.15625 -87.75,0.25 -87.75,0.25 -0.5,29.5 -0.5,29.5 -3.21875,6.5625 c -8.01452,16.3771 -22.82421,25.9684 -40.125,25.9375 -17.54934,-0.0314 -32.24782,-9.20845 -39.90625,-24.875 l -3.75,-7.625 -0.5,-29.5 -0.5,-29.5 -15,0.0625 c -13.13389,0.0569 -15.71631,0.3563 -20.78125,2.34375 -8.07606,3.16899 -16.7618,11.42428 -20.9375,19.90625 l -3.28125,6.65625 0,159.5 0,205.25 3.1875,6.6875 c 5.000418,10.55517 13.32927,17.75094 24.8125,21.40625 3.19309,1.01645 45.25356,1.24384 208.5,1.09375 l 204.5,-0.1875 6.71875,-3.1875 c 8.525,-4.03865 15.08636,-10.6 19.125,-19.125 l 3.15625,-6.6875 0,-205.21875 0,-159.5 -2.65625,-5.71875 c -1.47403,-3.14493 -4.80315,-7.96923 -7.375,-10.71875 -9.09165,-9.7197 -18.20779,-13.0625 -35.65625,-13.0625 l -10.8125,0 0,25.375 c 0,28.10556 -0.60762,33.26907 -5.03125,42.3125 -5.2364,10.70504 -14.09648,18.29455 -26.125,22.375 -5.25513,1.78271 -7.92023,2.07937 -15.625,1.6875 -8.13447,-0.41371 -10.16756,-0.93356 -16.625,-4.125 -12.60891,-6.23166 -22.0586,-18.39075 -24.5625,-31.59375 -0.55421,-2.92233 -1.03125,-16.73457 -1.03125,-30.6875 l 0,-25.34375 z M 185.6875,242.4375 c 13.4775,2.3e-4 26.45644,0.86659 38.90625,2.59375 12.44951,1.72761 23.0855,4.8806 31.9375,9.46875 8.85164,4.58857 15.36213,10.56507 19.53125,17.90625 4.16872,7.34157 6.24979,15.57345 6.25,24.75 -2.1e-4,5.5062 -0.77078,10.80097 -2.3125,15.875 -1.54214,5.07434 -3.89587,9.8152 -7.09375,14.1875 -3.19828,4.37258 -6.97244,8.21582 -11.3125,11.5625 -4.34044,3.34693 -8.57586,6.0426 -12.6875,8.09375 -4.11199,2.05139 -9.58464,4.37779 -16.4375,6.96875 7.19551,1.40361 12.82012,2.86365 16.875,4.375 4.05453,1.51157 8.138,3.70163 12.25,6.5625 4.11162,2.86108 7.58188,6.19871 10.4375,10.03125 2.85523,3.83272 4.97294,8.12478 6.34375,12.875 1.3704,4.75038 2.06229,9.82074 2.0625,15.21875 -2.1e-4,10.68825 -2.61582,20.58753 -7.8125,29.65625 -5.19707,9.0688 -12.82947,16.6019 -22.9375,22.59375 -10.10838,5.99187 -21.70354,10.28393 -34.78125,12.875 -13.07799,2.59107 -26.25093,3.875 -39.5,3.875 -12.90663,0 -25.19907,-0.63345 -36.90625,-1.875 -11.70731,-1.24156 -25.8448,-3.4799 -42.40625,-6.71875 -1.484844,-21.91617 -2.983947,-39.32582 -4.46875,-52.28125 25.47038,8.09716 48.50335,12.12504 69.0625,12.125 12.678,4e-5 22.92601,-2.38316 30.75,-7.1875 7.82375,-4.80423 11.71862,-11.27782 11.71875,-19.375 -1.3e-4,-7.88111 -3.96828,-13.64172 -11.90625,-17.3125 -7.9382,-3.6706 -20.30393,-5.49991 -37.09375,-5.5 -10.8507,9e-5 -20.78941,0.59377 -29.8125,1.78125 1.59899,-16.84189 2.90949,-33.41643 3.9375,-49.71875 8.22357,1.40364 16.85177,2.09389 25.875,2.09375 10.27945,1.4e-4 18.82898,-0.6333 25.625,-1.875 6.79581,-1.24141 11.95915,-3.66439 15.5,-7.28125 3.54061,-3.61656 5.31237,-7.50809 5.3125,-11.71875 -1.3e-4,-3.77849 -1.38931,-7.19566 -4.1875,-10.21875 -2.79844,-3.02275 -6.99723,-5.16452 -12.59375,-6.40625 -5.59675,-1.24138 -12.5685,-1.84357 -20.90625,-1.84375 -7.19576,1.8e-4 -14.85941,0.36945 -22.96875,1.125 -8.10948,0.75591 -19.12806,2.48864 -33.0625,5.1875 l 8.5625,-37.5625 c 0.68526,-3.34659 1.37715,-6.90863 2.0625,-10.6875 24.78505,-2.80678 47.5141,-4.21852 68.1875,-4.21875 z m 216.90625,4.21875 c 10.16522,0.21614 21.87569,0.31272 35.125,0.3125 12.56374,2.2e-4 25.39612,-0.0964 38.53125,-0.3125 l -3.40625,36.09375 -7.375,119.84375 -1.71875,44.0625 0,21.03125 c -9.70861,-0.21592 -21.5344,-0.3125 -35.46875,-0.3125 -16.21895,0 -29.70118,0.0966 -40.4375,0.3125 1.48474,-16.73402 3.37182,-43.77026 5.65625,-81.125 2.28425,-37.35457 3.59475,-64.06984 3.9375,-80.15625 -4.22613,2.48327 -8.31499,4.94602 -12.3125,7.375 -3.99768,2.42929 -12.69916,8.18138 -26.0625,17.25 0.68525,-9.17658 1.33511,-19.95075 1.90625,-32.3125 0.57103,-12.36141 0.84369,-21.45114 0.84375,-27.28125 5.82501,-3.13069 12.41417,-6.86884 19.78125,-11.1875 7.36692,-4.31825 11.87501,-7.05369 13.53125,-8.1875 1.65605,-1.13338 4.15636,-2.92292 7.46875,-5.40625 z"
       inkscape:connector-curvature="0" />
  </g>
</svg>
