<?xml version="1.0" encoding="UTF-8" standalone="no"?>
<svg
   xmlns:dc="http://purl.org/dc/elements/1.1/"
   xmlns:cc="http://creativecommons.org/ns#"
   xmlns:rdf="http://www.w3.org/1999/02/22-rdf-syntax-ns#"
   xmlns:svg="http://www.w3.org/2000/svg"
   xmlns="http://www.w3.org/2000/svg"
   xmlns:xlink="http://www.w3.org/1999/xlink"
   xmlns:sodipodi="http://sodipodi.sourceforge.net/DTD/sodipodi-0.dtd"
   xmlns:inkscape="http://www.inkscape.org/namespaces/inkscape"
   version="1.1"
   viewBox="0 0 100 100"
   id="svg2"
   inkscape:version="0.48.4 r9939"
   width="100%"
   height="100%"
   sodipodi:docname="car.svg">
  <metadata
     id="metadata51">
    <rdf:RDF>
      <cc:Work
         rdf:about="">
        <dc:format>image/svg+xml</dc:format>
        <dc:type
           rdf:resource="http://purl.org/dc/dcmitype/StillImage" />
        <dc:title>car</dc:title>
      </cc:Work>
    </rdf:RDF>
  </metadata>
  <defs
     id="defs49">
    <linearGradient
       inkscape:collect="always"
       xlink:href="#linearGradient3802-1"
       id="linearGradient3860"
       gradientUnits="userSpaceOnUse"
       gradientTransform="matrix(8.1388236,0,0,8.2087572,43.862514,-237.13826)"
       x1="54.909092"
       y1="98.909088"
       x2="56.909103"
       y2="57.63636" />
    <linearGradient
       inkscape:collect="always"
       id="linearGradient3802-1">
      <stop
         style="stop-color:#2d2d2d;stop-opacity:1"
         offset="0"
         id="stop3804-7" />
      <stop
         style="stop-color:#b0b0b0;stop-opacity:1"
         offset="1"
         id="stop3806-4" />
    </linearGradient>
  </defs>
  <sodipodi:namedview
     pagecolor="#ffffff"
     bordercolor="#666666"
     borderopacity="1"
     objecttolerance="10"
     gridtolerance="10"
     guidetolerance="10"
     inkscape:pageopacity="0"
     inkscape:pageshadow="2"
     inkscape:window-width="2479"
     inkscape:window-height="1410"
     id="namedview47"
     showgrid="false"
     inkscape:zoom="1.9066668"
     inkscape:cx="229.67126"
     inkscape:cy="-176.38047"
     inkscape:window-x="81"
     inkscape:window-y="30"
     inkscape:window-maximized="1"
     inkscape:current-layer="svg2"
     inkscape:snap-bbox="true"
     fit-margin-top="0"
     fit-margin-left="0"
     fit-margin-right="0"
     fit-margin-bottom="0" />
  <title>car</title>
  <path
     sodipodi:nodetypes="sscccccccscsssssssscsssssssccccccccccccsccsccsscsssssssssscsssscccsscccsssccccsssccssccccc"
     inkscape:connector-curvature="0"
     id="path3045"
     d="M 85.124061,99.361155 C 83.839316,99.180894 83.801559,99.04577 83.801559,94.628269 l 0,-4.000069 c -2.170104,0.06732 -1.693225,0.0835 -6.077784,0.222918 -4.328129,-0.194246 -4.285798,-0.258966 -9.1188,-1.724064 -6.594993,-2.733255 -6.630438,-2.772744 -18.345283,-2.584583 -14.295098,1.75e-4 -14.237081,0.106181 -17.824923,1.804216 -4.737947,1.676539 -4.889182,1.630579 -11.190477,1.970088 l -4.992084,0.09012 0,4.110773 c 0,3.720914 -0.03529,4.143086 -0.372077,4.451589 -0.331329,0.303396 -1.153139,0.340727 -7.5031777,0.340727 -6.3841644,0 -7.1603456,-0.03561 -7.41033695,-0.340454 C 0.73676503,98.689305 0.67746,95.988884 0.63131891,83.702277 0.58231531,70.651854 0.61401197,68.715627 0.88344064,68.299415 1.1410546,67.901471 1.1767919,67.143969 1.1012556,63.682579 1.0230656,60.09951 1.0603026,59.381099 1.3777698,58.348696 2.093632,56.020672 3.5414207,54.461592 6.271735,53.07852 7.1050531,52.656396 8.1479112,52.080324 8.5891975,51.798368 L 9.3915411,51.285713 8.091386,50.669992 C 7.3763022,50.331348 6.5165581,49.921273 6.1808456,49.758715 5.048203,49.210274 3.6368922,47.496837 3.3832459,46.981082 3.0199207,46.242317 2.4181792,44.894921 3.1266965,43.425671 c 0.5955593,-1.235013 5.794309,-1.902416 7.2802475,-2.086253 1.685347,-0.208507 2.996799,0.594161 2.996799,1.834175 0,0.271913 0.0037,1.912961 -1.155274,3.131078 l -0.889466,0.934734 0.617272,0.788837 0.617269,0.788839 0.667161,-0.64977 c 1.55016,-1.942242 3.243098,-4.11638 4.417207,-6.376492 2.360624,-4.631213 3.141434,-5.953625 4.389284,-7.433867 2.832019,-3.15631 7.443878,-6.40229 11.581005,-7.005588 6.519118,-0.984214 10.664907,-0.999307 15.434038,-1.000398 4.620168,0.0064 13.237166,0.298449 18.191156,1.198331 3.233285,0.64431 5.170216,1.75437 7.135144,3.544998 3.345653,2.583993 5.597073,6.525967 7.332748,9.730386 1.06148,1.740697 3.7148,6.66547 5.313275,7.61827 0.339455,0.183879 0.502157,0.110503 1.011346,-0.456104 0.718775,-0.799833 0.717748,-0.794723 0.262678,-1.308368 -0.858057,-0.989399 -1.622866,-2.401561 -1.678562,-3.712292 0,-0.624995 0.722236,-1.471266 1.375849,-1.612138 1.538221,-0.331531 5.885351,-0.39404 7.821821,1.22561 1.412907,1.836862 0.854003,4.835185 -0.252702,5.890587 -0.587031,0.557832 -1.106974,0.974114 -1.155428,0.925069 -0.04845,-0.04904 -0.719423,0.272927 -1.491038,0.715485 -0.771614,0.44256 -1.47441,0.806074 -1.561771,0.807808 -0.08737,0.0015 -0.288135,0.08599 -0.446162,0.187245 -0.242565,0.155414 -0.234008,0.238056 0.05494,0.530508 0.188242,0.190529 0.468529,0.365173 0.622858,0.388101 0.154331,0.02292 0.407685,0.148434 0.563009,0.27891 0.155326,0.130474 0.997684,0.601069 1.871907,1.045762 1.588147,0.807851 3.295267,2.256524 3.725822,3.161755 1.157073,2.432715 1.177763,2.591232 1.097902,8.411516 -0.02902,2.115282 0.03735,2.966529 0.276455,3.54575 0.273851,0.663386 0.314646,2.655817 0.314646,15.367332 0,14.06835 -0.01429,14.622969 -0.388571,15.090814 l -0.388571,0.485695 -6.478268,0.01743 c -3.563047,0.0095 -6.75294,-0.02111 -7.088652,-0.06819 z M 29.501379,74.224613 c 0.706916,-0.118112 1.331404,-1.106695 1.502654,-1.895856 0.240639,-1.108936 -0.800663,-3.245836 -3.029745,-3.565944 -9.762448,-0.752349 -13.94201,-5.276922 -17.329759,-4.955883 -4.5560904,0.725261 -4.2272094,8.438385 -0.293569,9.907666 3.932619,0.474795 2.388248,-0.22449 7.979469,-0.278775 6.612844,-0.0642 9.368295,1.089981 11.17095,0.788792 z m 60.228799,-0.334394 c 5.246066,-1.715282 2.542145,-10.934221 -2.063262,-9.535574 -4.026379,0.354816 -5.325647,3.890267 -16.193643,4.663722 -2.159671,0.832903 -2.320971,1.77925 -2.320971,3.008317 0,0.876291 0.434212,1.891778 0.958918,2.054965 2.250757,0.699993 3.284527,-0.323627 10.501625,-0.355496 6.241413,-0.02756 5.208965,0.143254 9.117333,0.164066 z m -9.77894,-23.906274 c 0.885428,-0.234972 1.555363,-0.137871 1.091289,-1.19926 -3.342304,-6.642072 -4.947363,-14.737897 -12.602342,-16.953606 -6.849121,-1.71637 -15.467514,-1.790673 -15.871486,-1.789294 -0.838452,0.0028 -2.611402,-0.213171 -2.194723,1.010272 0.327457,0.961465 3.156767,0.0066 3.290446,1.429006 0.149953,1.595551 -1.311919,1.491696 -4.225174,1.579483 -2.219712,0.110668 -4.54163,0.0508 -4.286052,-1.246234 -0.05553,-1.456966 2.796017,-0.869342 3.068104,-1.596431 0.392787,-1.049635 -1.055426,-1.155071 -1.244736,-1.147679 -3.620847,0.14142 -7.336336,0.492044 -11.368894,0.955362 -8.802829,1.508284 -14.076937,11.239642 -16.446277,17.511506 -0.120616,0.331214 -0.507017,1.090684 0.237769,1.190465 10.422844,2.571997 21.902394,3.372907 31.848494,3.316464 10.889202,-0.193868 19.489136,-1.744239 28.703582,-3.060054 z" />
</svg>
