<?xml version="1.0" encoding="UTF-8" standalone="no"?>
<!-- Created with Inkscape (http://www.inkscape.org/) -->

<svg
   xmlns:dc="http://purl.org/dc/elements/1.1/"
   xmlns:cc="http://creativecommons.org/ns#"
   xmlns:rdf="http://www.w3.org/1999/02/22-rdf-syntax-ns#"
   xmlns:svg="http://www.w3.org/2000/svg"
   xmlns="http://www.w3.org/2000/svg"
   xmlns:sodipodi="http://sodipodi.sourceforge.net/DTD/sodipodi-0.dtd"
   xmlns:inkscape="http://www.inkscape.org/namespaces/inkscape"
   id="svg2"
   version="1.1"
   inkscape:version="0.91 r13725"
   width="100"
   height="100"
   viewBox="0 0 100 100"
   sodipodi:docname="cardbox-stack.svg">
  <metadata
     id="metadata8">
    <rdf:RDF>
      <cc:Work
         rdf:about="">
        <dc:format>image/svg+xml</dc:format>
        <dc:type
           rdf:resource="http://purl.org/dc/dcmitype/StillImage" />
        <dc:title></dc:title>
      </cc:Work>
    </rdf:RDF>
  </metadata>
  <defs
     id="defs6" />
  <sodipodi:namedview
     pagecolor="#ffffff"
     bordercolor="#666666"
     borderopacity="1"
     objecttolerance="10"
     gridtolerance="10"
     guidetolerance="10"
     inkscape:pageopacity="0"
     inkscape:pageshadow="2"
     inkscape:window-width="2495"
     inkscape:window-height="1416"
     id="namedview4"
     showgrid="false"
     inkscape:zoom="11.313709"
     inkscape:cx="54.68342"
     inkscape:cy="52.299705"
     inkscape:window-x="65"
     inkscape:window-y="24"
     inkscape:window-maximized="1"
     inkscape:current-layer="g3370" />
  <g
     id="g3370"
     transform="matrix(0.68740329,0,0,0.68740329,32.791787,32.593507)">
    <path
       style="fill:#000000"
       d="m 27.549274,-40.803681 -7.96637,3.012829 c -4.381463,1.656963 -13.0230818,4.936465 -19.20069893,7.286978 l -11.23146307,4.274148 -0.09746,23.2168506 -0.09173,22.1045974 -5.205803,1.969375 c -4.381462,1.656964 -13.020213,4.936464 -19.197833,7.286978 l -11.234329,4.274148 -0.09746,23.21685 -0.09746,23.21685 17.635518,6.971648 c 11.795126,4.662239 18.157837,6.982441 19.212165,7.006048 1.1660776,0.02613 6.2179556,-1.789145 19.4070975,-6.971648 l 15.7836735,-6.203392 15.603077,6.168992 c 11.795125,4.662241 18.157836,6.982441 19.212165,7.006048 1.166076,0.02613 6.217825,-1.789145 19.407097,-6.971648 l 17.830449,-7.006048 0.0028,-23.277049 0.0028,-23.274182 -17.747317,-7.229646 -16.437266,-6.693585 0.0028,-21.6545362 0.0028,-23.2741828 -17.750183,-7.229645 -17.747317,-7.226778 z m -0.04586,2.797832 5.06247,2.049642 c 2.783794,1.12649 5.197424,2.174751 5.363468,2.330572 0.166045,0.15582 -7.106058,3.146942 -16.159201,6.647718 -9.053146,3.500776 -16.7255863,6.446678 -17.0507263,6.547387 -0.3251371,0.10071 -3.1281463,-0.813452 -6.2291898,-2.032441 -5.1182628,-2.011941 -5.5550945,-2.257777 -4.7299434,-2.668835 0.499942,-0.249051 8.296376,-3.246296 17.3259235,-6.662052 z m 18.320644,7.476175 6.641984,2.688901 c 3.652172,1.477777 6.63912,2.788921 6.63912,2.915365 0,0.126446 -7.31538,3.110859 -16.256668,6.630519 -8.941289,3.519663 -16.611476,6.383737 -17.044993,6.366789 -0.927106,-0.03622 -12.808223,-4.750866 -12.80811,-5.082539 4.1e-5,-0.124405 7.386172,-3.215979 16.414333,-6.871316 z m -53.8009443,8.367699 c 0.1746759,0 2.8813501,1.030629 6.014193,2.290439 l 5.6959966,2.290439 0.1117989,4.901939 c 0.069324,3.0626449 -0.097255,5.480618 0.063674,6.0746157 0.059505,0.2196363 0.2157674,-0.2275164 0.3095954,-0.2121304 0.136163,0.022315 0.2015497,0.4086868 0.3411295,0.4529282 0.093789,0.029729 0.2937177,-0.2567871 0.3783961,-0.2579979 0.1448811,-0.00205 0.2257125,-0.7692635 0.3290543,-0.7598804 0.1730935,0.015719 0.3255481,-0.1598621 0.4213944,-0.108931 0.092045,0.048903 0.1501546,0.4545427 0.252265,0.4787262 0.1010272,0.023929 0.2742793,-0.2090291 0.3898604,-0.1834643 0.08608,0.019045 0.1082338,0.3808487 0.2407978,0.4041956 0.1304065,0.022978 0.2666663,-0.2109284 0.3525951,-0.1863309 0.084206,0.024094 0.1596287,1.2327012 0.2604593,1.2199292 0.090374,0.060813 0.1834022,-0.4965207 0.324435,-0.467545 0.097342,0.019991 0.1213631,0.7757652 0.2804237,0.8144073 0.066975,0.00896 0.2222561,-0.2401843 0.3669288,-0.2035311 0.057835,0.014649 0.1215915,0.4944352 0.2121304,0.541794 0.044127,0.023084 0.2708009,-0.3022335 0.3984628,-0.2493972 0.1063081,0.043997 -0.00628,0.4586875 0.1347318,0.4959279 0.1798789,0.047506 0.2730582,-0.3895611 0.4070606,-0.3038641 0.099815,0.063831 0.1293425,0.4157568 0.1949317,0.5704599 0.069464,0.1638279 0.1738714,0.1273727 0.1891973,0.0602 0.094046,-0.4125352 0.1494709,-2.6420825 0.1494709,-5.6431427 0,-2.70948 0.1326931,-4.916843 0.2952615,-4.904807 0.162569,0.01206 3.488523,1.298588 7.390178,2.858032 l 7.094912,2.8350986 0.100337,20.3960854 c 0.05614,11.217253 -0.03327,20.375938 -0.197798,20.355951 -0.01118,-0.0013 -0.588857,-0.23333 -0.636392,-0.249397 L 9.4694272,25.275046 -8.0915575,18.125666 -8.1918905,-1.8146237 c -0.05614,-11.1911483 0.040323,-20.3473513 0.2150042,-20.3473513 z m 68.0108363,0 c 0.143762,0 0.213801,9.156388 0.157665,20.3473513 l -0.100336,20.3473517 -8.453698,3.333894 c -4.66146,1.765052 -11.579491,4.390985 -17.073658,6.481453 l -7.281245,2.772033 c -0.05417,-0.465507 -0.100326,-9.105901 -0.100326,-19.96609 0,-18.9157601 0.04765,-20.3069679 0.690858,-20.6454818 0.958822,-0.5046126 31.838696,-12.6705112 32.16074,-12.6705112 z m 1.65118,43.008075 5.059605,2.049641 c 2.783793,1.126491 5.197423,2.174752 5.363469,2.330572 0.166043,0.15582 -7.106061,3.146942 -16.159204,6.647719 -9.053144,3.500776 -16.725587,6.446678 -17.050724,6.547387 -0.32514,0.10071 -3.128149,-0.813451 -6.229192,-2.032441 -5.118262,-2.011939 -5.555094,-2.257779 -4.729942,-2.668836 0.03655,-0.01821 0.687597,-0.265771 0.799791,-0.312461 2.837374,-0.925059 7.764268,-2.776233 16.471665,-6.197658 l 8.989757,-3.53169 z m -70.5678726,0.212131 10.8215349,4.277014 c -0.8351374,0.520538 -7.6113242,3.296577 -15.9958043,6.538787 -9.053145,3.500776 -16.725589,6.446678 -17.050726,6.547387 -0.325139,0.10071 -3.128147,-0.813451 -6.229191,-2.032441 -5.118262,-2.011939 -5.555094,-2.257779 -4.729942,-2.668836 0.499941,-0.24905 8.296376,-3.246296 17.325922,-6.662052 z m 88.8885156,7.266911 6.63912,2.686034 c 3.652172,1.477778 6.639118,2.788918 6.639118,2.915365 0,0.126447 -7.31538,3.110856 -16.256668,6.630519 -8.941289,3.519663 -16.611476,6.383739 -17.044992,6.366788 -0.927107,-0.03622 -12.808223,-4.750864 -12.808109,-5.082537 4e-5,-0.124408 7.38617,-3.21598 16.414332,-6.871316 z m -70.2353436,0.09173 c 3.2407056,1.26896 5.9900426,2.326728 8.2387006,3.167628 2.910687,1.202095 5.268869,2.234066 5.268869,2.34204 0,0.126445 -7.315381,3.110858 -16.2566682,6.630519 -8.9412915,3.519663 -16.6114755,6.383739 -17.0449928,6.366788 -0.927108,-0.03622 -12.808223,-4.750864 -12.80811,-5.082537 4.2e-5,-0.124406 7.386172,-3.21598 16.4143334,-6.871316 z m -53.5744794,8.2731 c 0.174676,0 2.88136,1.030629 6.014194,2.290439 l 5.695997,2.290439 0.111798,4.901941 c 0.06931,3.062645 -0.151208,5.116931 0.0097,5.710927 0.05951,0.219636 0.246997,-0.591204 0.340826,-0.575818 0.13616,0.02232 0.235644,0.465512 0.375224,0.509754 0.09379,0.02973 0.17455,-0.44242 0.259228,-0.443631 0.144881,-0.002 0.342359,0.682285 0.445701,0.691666 0.173096,0.01572 0.237148,-0.368807 0.332995,-0.317877 0.09204,0.0489 0.150154,0.454533 0.252263,0.478727 0.101026,0.02393 0.27428,-0.209051 0.389862,-0.183464 0.08608,0.01904 0.108233,0.380839 0.240797,0.404194 0.130408,0.02298 0.250584,-0.452021 0.336523,-0.427424 0.0842,0.02409 0.130239,0.689595 0.23107,0.676821 0.09038,0.06081 0.319786,-0.593125 0.460819,-0.564149 0.09734,0.02 0.06741,0.488819 0.226464,0.52746 0.06698,0.009 0.21939,-0.243041 0.364063,-0.206398 0.05783,0.01465 0.121591,0.494426 0.21213,0.541794 0.04413,0.02308 0.273667,-0.302233 0.401329,-0.249397 0.106309,0.044 0.110135,0.271163 0.2512,0.308402 0.179879,0.04751 0.156591,-0.202034 0.290593,-0.116338 0.09982,0.06383 0.126455,0.06502 0.192064,0.219725 0.06946,0.163826 0.186783,0.03473 0.202109,-0.03245 -0.07473,-0.436645 0.18202,-1.414497 0.18202,-4.415558 0,-2.70948 0.132694,-4.916842 0.295263,-4.904807 0.162569,0.01206 3.488523,1.298587 7.390176,2.858032 l 7.094914,2.835098 0.100336,20.396086 c 0.05615,11.217252 -0.03041,20.378805 -0.194931,20.358818 -0.16452,-0.01999 -4.379838,-1.678501 -9.365286,-3.683622 -4.985445,-2.005117 -12.257548,-4.892191 -16.159202,-6.415523 l -7.092047,-2.769166 -0.103199,-20.347352 c -0.05614,-11.191148 0.04033,-20.347351 0.214993,-20.347349 z m 138.016851,0 c 0.143773,0 0.216667,9.156389 0.160532,20.347351 l -0.1032,20.347353 -16.351268,6.449922 c -8.993459,3.548615 -16.398259,6.452787 -16.454464,6.452787 -0.05622,0 -0.100337,-9.125981 -0.100337,-20.281419 0,-18.91576 0.04479,-20.306968 0.687992,-20.645482 0.958822,-0.504613 31.838697,-12.670512 32.160745,-12.670512 z m -70.900403,0.338264 -0.08026,18.810836 -0.09173,21.989933 -15.2275485,6.005593 c -8.9934615,3.548617 -16.3982708,6.452787 -16.4544666,6.452787 -0.056211,0 -0.1031981,-9.125981 -0.1031981,-20.281419 0,-18.91576 0.047648,-20.30697 0.6908581,-20.645482 0.9161777,-0.482173 28.4759501,-11.34338 31.2663451,-12.332248 z m 3.907219,0.02293 c 1.009609,0.361885 2.70158,1.006373 4.996539,1.929243 l 5.695998,2.290439 0.111797,4.901941 c 0.06932,3.062645 0.150612,7.787254 0.311534,8.38125 0.05951,0.219636 0.212901,-0.227506 0.306731,-0.21213 0.13616,0.02232 0.201548,0.408686 0.341129,0.452928 0.09379,0.02973 0.293727,-0.469858 0.378395,-0.471069 0.144886,-0.002 0.160386,0.489411 0.263731,0.498792 0.173095,0.01573 0.322681,-0.15986 0.418528,-0.10893 0.09204,0.0489 0.150157,0.454544 0.252263,0.478727 0.101026,0.02393 0.274279,0.0069 0.389862,0.03247 0.08608,0.01904 0.108226,0.380839 0.240796,0.404194 0.130408,0.02298 0.266658,-0.210928 0.352597,-0.186331 0.0842,0.02409 0.117033,0.44844 0.217863,0.435728 0.09038,0.06082 0.237366,-0.206697 0.378396,-0.177731 0.09734,0.02 0.02195,0.784305 0.181004,0.822956 0.06697,0.009 0.267712,-0.538537 0.412389,-0.501894 0.05783,0.01465 0.118724,0.494426 0.209264,0.541794 0.04412,0.02308 0.250929,-0.461346 0.378597,-0.40851 0.106307,0.044 0.107353,1.123555 0.248385,1.160794 0.17988,0.04751 0.261695,-0.554356 0.395697,-0.46866 0.09981,0.06383 0.04691,0.07767 0.112506,0.232371 0.06946,0.163822 0.20798,0.670036 0.223296,0.602861 0.09404,-0.412536 -0.01597,-5.971588 -0.01597,-8.972649 0,-2.70948 0.135561,-4.916863 0.298129,-4.904807 0.162569,0.01206 3.485658,1.298589 7.38731,2.858032 l 7.094914,2.835098 0.103198,20.396086 c 0.05615,11.217252 -0.03327,20.378805 -0.197798,20.358818 -0.16452,-0.01999 -4.37984,-1.678502 -9.365287,-3.683622 -4.985446,-2.005117 -12.254682,-4.892191 -16.156335,-6.415523 l -5.971195,-2.33057 0.0028,-22.044398 0.0028,-18.727705 z"
       id="path3338"
       inkscape:connector-curvature="0"
       sodipodi:nodetypes="cccccccccccccccccsccccccccccccsssssccccssccccscccscccccccccccccccscccscccccccccsscccccsssccsssscccccccssssccccssccccccsscscccccccccccccccccsccccccccscccccsccccscccssssccccsssccccccccccccccccccccccsccscccccsccccc" />
  </g>
</svg>
