<?xml version="1.0" encoding="UTF-8" standalone="no"?>
<svg
   xmlns:dc="http://purl.org/dc/elements/1.1/"
   xmlns:cc="http://creativecommons.org/ns#"
   xmlns:rdf="http://www.w3.org/1999/02/22-rdf-syntax-ns#"
   xmlns:svg="http://www.w3.org/2000/svg"
   xmlns="http://www.w3.org/2000/svg"
   xmlns:xlink="http://www.w3.org/1999/xlink"
   xmlns:sodipodi="http://sodipodi.sourceforge.net/DTD/sodipodi-0.dtd"
   xmlns:inkscape="http://www.inkscape.org/namespaces/inkscape"
   version="1.1"
   viewBox="0 0 100 100"
   id="svg2"
   inkscape:version="0.48.4 r9939"
   width="100%"
   height="100%"
   sodipodi:docname="tire-pressure-2.svg">
  <metadata
     id="metadata51">
    <rdf:RDF>
      <cc:Work
         rdf:about="">
        <dc:format>image/svg+xml</dc:format>
        <dc:type
           rdf:resource="http://purl.org/dc/dcmitype/StillImage" />
        <dc:title>remember-me-active</dc:title>
      </cc:Work>
    </rdf:RDF>
  </metadata>
  <defs
     id="defs49">
    <radialGradient
       inkscape:collect="always"
       xlink:href="#linearGradient4042"
       id="radialGradient4048"
       cx="1071.6101"
       cy="314.9259"
       fx="1071.6101"
       fy="314.9259"
       r="293.73334"
       gradientTransform="matrix(1,0,0,1.0022845,0,-0.71943396)"
       gradientUnits="userSpaceOnUse" />
    <linearGradient
       id="linearGradient4042">
      <stop
         style="stop-color:#3a3a3a;stop-opacity:1;"
         offset="0"
         id="stop4044" />
      <stop
         id="stop4050"
         offset="0.65937507"
         style="stop-color:#131313;stop-opacity:1;" />
      <stop
         style="stop-color:#505050;stop-opacity:1;"
         offset="0.89655095"
         id="stop4064" />
      <stop
         style="stop-color:#000000;stop-opacity:1;"
         offset="1"
         id="stop4046" />
    </linearGradient>
    <radialGradient
       inkscape:collect="always"
       xlink:href="#linearGradient4042-7"
       id="radialGradient3819"
       gradientUnits="userSpaceOnUse"
       gradientTransform="matrix(1,0,0,1.0022845,-771.125,-15.156934)"
       cx="1071.6101"
       cy="314.9259"
       fx="1071.6101"
       fy="314.9259"
       r="293.73334" />
    <linearGradient
       id="linearGradient4042-7">
      <stop
         style="stop-color:#3a3a3a;stop-opacity:1;"
         offset="0"
         id="stop4044-4" />
      <stop
         id="stop4050-0"
         offset="0.65937507"
         style="stop-color:#131313;stop-opacity:1;" />
      <stop
         style="stop-color:#505050;stop-opacity:1;"
         offset="0.89655095"
         id="stop4064-9" />
      <stop
         style="stop-color:#000000;stop-opacity:1;"
         offset="1"
         id="stop4046-4" />
    </linearGradient>
    <linearGradient
       id="linearGradient4042-8">
      <stop
         style="stop-color:#3a3a3a;stop-opacity:1;"
         offset="0"
         id="stop4044-2" />
      <stop
         id="stop4050-4"
         offset="0.65937507"
         style="stop-color:#131313;stop-opacity:1;" />
      <stop
         style="stop-color:#505050;stop-opacity:1;"
         offset="0.89655095"
         id="stop4064-5" />
      <stop
         style="stop-color:#000000;stop-opacity:1;"
         offset="1"
         id="stop4046-5" />
    </linearGradient>
    <linearGradient
       id="linearGradient5025">
      <stop
         id="stop5027"
         offset="0"
         style="stop-color:#ffffff;stop-opacity:1;" />
      <stop
         style="stop-color:#9e9e9e;stop-opacity:1;"
         offset="0.65937507"
         id="stop5029" />
      <stop
         id="stop5031"
         offset="0.89655095"
         style="stop-color:#e1e1e1;stop-opacity:1;" />
      <stop
         id="stop5033"
         offset="1"
         style="stop-color:#aaaaaa;stop-opacity:1;" />
    </linearGradient>
    <linearGradient
       id="linearGradient4042-71">
      <stop
         style="stop-color:#3a3a3a;stop-opacity:1;"
         offset="0"
         id="stop4044-1" />
      <stop
         id="stop4050-5"
         offset="0.65937507"
         style="stop-color:#131313;stop-opacity:1;" />
      <stop
         style="stop-color:#505050;stop-opacity:1;"
         offset="0.89655095"
         id="stop4064-2" />
      <stop
         style="stop-color:#000000;stop-opacity:1;"
         offset="1"
         id="stop4046-7" />
    </linearGradient>
    <linearGradient
       id="linearGradient5025-1">
      <stop
         id="stop5027-4"
         offset="0"
         style="stop-color:#ffffff;stop-opacity:1;" />
      <stop
         style="stop-color:#9e9e9e;stop-opacity:1;"
         offset="0.65937507"
         id="stop5029-2" />
      <stop
         id="stop5031-3"
         offset="0.89655095"
         style="stop-color:#e1e1e1;stop-opacity:1;" />
      <stop
         id="stop5033-2"
         offset="1"
         style="stop-color:#aaaaaa;stop-opacity:1;" />
    </linearGradient>
  </defs>
  <sodipodi:namedview
     pagecolor="#ffffff"
     bordercolor="#666666"
     borderopacity="1"
     objecttolerance="10"
     gridtolerance="10"
     guidetolerance="10"
     inkscape:pageopacity="0"
     inkscape:pageshadow="2"
     inkscape:window-width="1920"
     inkscape:window-height="1018"
     id="namedview47"
     showgrid="false"
     inkscape:zoom="4"
     inkscape:cx="46.727783"
     inkscape:cy="-21.228227"
     inkscape:window-x="1912"
     inkscape:window-y="-8"
     inkscape:window-maximized="1"
     inkscape:current-layer="svg2"
     inkscape:snap-bbox="true"
     fit-margin-top="0"
     fit-margin-left="0"
     fit-margin-right="0"
     fit-margin-bottom="0"
     units="px"
     showguides="true"
     inkscape:guide-bbox="true"
     borderlayer="true" />
  <title
     id="title3003">remember-me-active</title>
  <path
     style="fill:#000000;fill-opacity:1;stroke:none"
     d="m 78.841178,24.279726 -0.03125,6.388085 c 3.57451,0.16082 6.44826,2.99276 6.55471,6.55471 l 6.04262,0 c 0.01298,-7.510269 -5.845233,-12.915999 -12.56608,-12.942795 z"
     id="path4824-1"
     inkscape:connector-curvature="0"
     sodipodi:nodetypes="ccccc" />
  <path
     style="fill:#000000;fill-opacity:1;stroke:none"
     d="m 25.588757,17.75 c -1.037113,0.05829 -1.875,0.83625 -1.875,1.875 l 0,16.625 c 0,1.03875 0.83625,1.875 1.875,1.875 17.612739,1.57308 34.96473,1.325825 48.5,0 1.03875,0 1.875,-0.83625 1.875,-1.875 l 0,-16.625 c 0,-1.03875 -0.83625,-1.875 -1.875,-1.875 -18.227852,-1.920399 -31.46765,-1.929366 -48.5,0 z"
     id="rect5364"
     inkscape:connector-curvature="0"
     sodipodi:nodetypes="cssccsscc" />
  <path
     style="fill:#000000;fill-opacity:1;stroke:none"
     d="m 8.097515,37.191271 6.388085,0.03125 c 0.16082,-3.57451 2.99276,-6.44826 6.55471,-6.55471 l 0,-6.04262 C 13.530041,24.612211 8.124311,30.470424 8.097515,37.191271 z"
     id="path4824-1-7"
     inkscape:connector-curvature="0"
     sodipodi:nodetypes="ccccc" />
  <path
     style="fill:#000000;fill-opacity:1;stroke:none"
     d="M 1.864802,85.045455 C 1.923092,85.988285 2.701052,86.75 3.7398022,86.75 l 16.6249998,0 c 1.03875,0 1.875,-0.760227 1.875,-1.704545 1.57308,-16.011581 1.325825,-31.786119 0,-44.09091 0,-0.944318 -0.83625,-1.704545 -1.875,-1.704545 l -16.6249998,0 c -1.0387502,0 -1.8750002,0.760227 -1.8750002,1.704545 -1.92039899,16.570775 -1.92936599,28.606955 0,44.09091 z"
     id="rect5364-4"
     inkscape:connector-curvature="0"
     sodipodi:nodetypes="cssccsscc" />
  <path
     style="fill:#000000;fill-opacity:1;stroke:none"
     d="m 78.239802,85.045455 c 0.05829,0.94283 0.83625,1.704545 1.875,1.704545 l 16.625,0 c 1.03875,0 1.875,-0.760227 1.875,-1.704545 1.573078,-16.011581 1.325825,-31.786119 0,-44.09091 0,-0.944318 -0.83625,-1.704545 -1.875,-1.704545 l -16.625,0 c -1.03875,0 -1.875,0.760227 -1.875,1.704545 -1.920399,16.570775 -1.929366,28.606955 0,44.09091 z"
     id="rect5364-4-0"
     inkscape:connector-curvature="0"
     sodipodi:nodetypes="cssccsscc" />
  <path
     sodipodi:nodetypes="sscccccccscsssssssscsssssssccccccccccccsccsccsscsssssssssscsssscccsscccsssccccsssccssccccc"
     inkscape:connector-curvature="0"
     id="path3045"
     d="m 66.441641,86.717038 c -0.59979,-0.08626 -0.617418,-0.150852 -0.617418,-2.26381 l 0,-1.913292 c -1.013126,0.03217 -0.790492,0.03993 -2.83745,0.106618 -2.020613,-0.0929 -2.00085,-0.123871 -4.257167,-0.824648 -3.078913,-1.307349 -3.09546,-1.326244 -8.564607,-1.236236 -6.673754,7.9e-5 -6.646668,0.05084 -8.321673,0.862978 -2.21194,0.801919 -2.282544,0.779931 -5.224342,0.942324 l -2.330585,0.04308 0,1.966244 c 0,1.779759 -0.01648,1.981695 -0.173706,2.129253 -0.154684,0.145117 -0.538349,0.162977 -3.502905,0.162977 -2.980486,0 -3.342851,-0.01698 -3.459561,-0.162842 -0.107303,-0.134039 -0.134994,-1.425687 -0.156535,-7.302553 -0.02289,-6.242205 -0.0081,-7.168322 0.117704,-7.367413 0.120269,-0.19034 0.136954,-0.552667 0.101694,-2.208296 -0.0365,-1.713831 -0.01912,-2.057454 0.129092,-2.551266 0.334205,-1.113534 1.010114,-1.859265 2.284777,-2.520811 0.38904,-0.201903 0.875905,-0.47745 1.081923,-0.612309 l 0.374578,-0.245215 -0.606984,-0.294508 c -0.333843,-0.161976 -0.73522,-0.358121 -0.89195,-0.43588 -0.528779,-0.262321 -1.187659,-1.081886 -1.306075,-1.328584 -0.16962,-0.353353 -0.450548,-0.997837 -0.119772,-1.700605 0.278042,-0.590715 2.705108,-0.909955 3.398828,-0.997883 0.786815,-0.09976 1.399075,0.284195 1.399075,0.877317 0,0.130059 0.0017,0.914994 -0.539348,1.497635 l -0.415252,0.447093 0.288177,0.377319 0.288175,0.377318 0.311468,-0.310793 c 0.723702,-0.929007 1.514061,-1.968931 2.062202,-3.049974 1.10207,-2.215178 1.466597,-2.847708 2.049162,-3.555728 1.322147,-1.509713 3.47522,-3.062309 5.406664,-3.350869 3.043489,-0.470768 4.978975,-0.477988 7.205473,-0.478506 2.156954,0.0034 6.179852,0.142744 8.492653,0.573181 1.509479,0.308185 2.413747,0.839135 3.331085,1.695623 1.561938,1.235955 2.613027,3.121457 3.423338,4.654181 0.495557,0.8326 1.734277,3.188195 2.480534,3.643926 0.158478,0.08794 0.234435,0.05286 0.472153,-0.218153 0.335565,-0.382583 0.335086,-0.380131 0.122633,-0.625817 -0.400587,-0.473243 -0.757645,-1.148702 -0.783646,-1.775644 0,-0.298939 0.33718,-0.703722 0.642323,-0.771102 0.718128,-0.158579 2.747611,-0.188485 3.651665,0.586228 0.659623,0.878587 0.398697,2.312733 -0.117977,2.817546 -0.274057,0.266819 -0.516796,0.465933 -0.539418,0.442471 -0.02262,-0.0234 -0.335865,0.130553 -0.696099,0.342229 -0.360233,0.211688 -0.688338,0.385562 -0.729124,0.386395 -0.04078,9.39e-4 -0.134516,0.04116 -0.208293,0.08953 -0.113241,0.07435 -0.109246,0.113863 0.02565,0.253751 0.08788,0.09109 0.218735,0.174662 0.290786,0.185628 0.07206,0.01125 0.19033,0.07098 0.262844,0.13341 0.07252,0.06242 0.465775,0.287501 0.873911,0.500201 0.741434,0.386405 1.538415,1.079332 1.739422,1.512311 0.540187,1.163603 0.549845,1.23943 0.512562,4.023349 -0.01354,1.011772 0.01742,1.418939 0.129064,1.695981 0.127849,0.317318 0.146896,1.270326 0.146896,7.350431 0,6.72909 -0.0067,6.99438 -0.181408,7.218146 l -0.181405,0.232325 -3.02442,0.0079 c -1.663431,0.0045 -3.152651,-0.01012 -3.30938,-0.03262 z M 40.473854,74.69387 c 0.330028,-0.05646 0.621574,-0.529352 0.701524,-0.906817 0.112343,-0.530421 -0.373794,-1.55253 -1.414454,-1.705644 -4.557659,-0.359863 -6.508913,-2.524027 -8.090505,-2.370474 -2.127037,0.346907 -1.973499,4.036202 -0.137054,4.738981 1.835967,0.227107 1.114969,-0.107406 3.725264,-0.133342 3.087245,-0.0307 4.373645,0.521356 5.215225,0.377296 z m 28.118182,-0.159952 c 2.449157,-0.820442 1.186816,-5.229994 -0.963247,-4.561001 -1.879741,0.169714 -2.48631,1.860771 -7.560102,2.230734 -1.008254,0.398384 -1.083558,0.851033 -1.083558,1.438914 0,0.419146 0.202714,0.90486 0.447678,0.982924 1.05078,0.334818 1.5334,-0.1548 4.902747,-0.170039 2.913841,-0.01316 2.431836,0.06849 4.256482,0.07851 z M 64.026677,63.099204 c 0.413369,-0.112355 0.726132,-0.06591 0.509477,-0.57362 -1.560377,-3.177005 -2.309707,-7.049354 -5.883481,-8.109161 -3.197553,-0.820961 -7.221104,-0.856499 -7.4097,-0.855847 -0.391437,0.0012 -1.219148,-0.102009 -1.02462,0.48323 0.152876,0.459881 1.473756,0.0034 1.536165,0.683512 0.07,0.763173 -0.612478,0.713508 -1.972547,0.755492 -1.036287,0.05296 -2.120289,0.02429 -2.00097,-0.596091 -0.02594,-0.696885 1.305337,-0.415816 1.432362,-0.76359 0.183375,-0.502056 -0.492732,-0.552487 -0.581113,-0.548955 -1.690414,0.06759 -3.425011,0.23535 -5.307637,0.456956 -4.109654,0.721437 -6.571903,5.376091 -7.678044,8.376014 -0.05631,0.158423 -0.236704,0.521683 0.111004,0.569413 4.865968,1.23022 10.225265,1.613308 14.868663,1.586316 5.08369,-0.09279 9.098621,-0.834299 13.400441,-1.463669 z" />
</svg>
