<?xml version="1.0" encoding="UTF-8" standalone="no"?>
<!-- Created with Inkscape (http://www.inkscape.org/) -->

<svg
   xmlns:ns="http://ns.adobe.com/SaveForWeb/1.0/"
   xmlns:dc="http://purl.org/dc/elements/1.1/"
   xmlns:cc="http://creativecommons.org/ns#"
   xmlns:rdf="http://www.w3.org/1999/02/22-rdf-syntax-ns#"
   xmlns:svg="http://www.w3.org/2000/svg"
   xmlns="http://www.w3.org/2000/svg"
   xmlns:sodipodi="http://sodipodi.sourceforge.net/DTD/sodipodi-0.dtd"
   xmlns:inkscape="http://www.inkscape.org/namespaces/inkscape"
   version="1.1"
   width="66"
   height="100"
   viewBox="0 0 65.999996 100"
   id="svg2"
   xml:space="preserve"
   inkscape:version="0.48.4 r9939"
   sodipodi:docname="0.svg"><sodipodi:namedview
     pagecolor="#ffffff"
     bordercolor="#666666"
     borderopacity="1"
     objecttolerance="10"
     gridtolerance="10"
     guidetolerance="10"
     inkscape:pageopacity="0"
     inkscape:pageshadow="2"
     inkscape:window-width="2479"
     inkscape:window-height="1410"
     id="namedview46"
     showgrid="false"
     inkscape:zoom="5.65"
     inkscape:cx="-36.99115"
     inkscape:cy="50"
     inkscape:window-x="81"
     inkscape:window-y="30"
     inkscape:window-maximized="1"
     inkscape:current-layer="svg2"
     width="80px" /><defs
     id="defs3199" /><metadata
     id="metadata3113"><ns:sfw><ns:slices /><ns:sliceSourceBounds
         bottomLeftOrigin="true"
         height="273.306"
         width="646.966"
         y="282.154"
         x="-27.493" /></ns:sfw><rdf:RDF><cc:Work
         rdf:about=""><dc:format>image/svg+xml</dc:format><dc:type
           rdf:resource="http://purl.org/dc/dcmitype/StillImage" /><dc:title /></cc:Work></rdf:RDF></metadata><rect
     width="646.966"
     height="273.306"
     x="-1.6997947e-005"
     y="-173.30603"
     id="rect3195"
     style="fill:none" /><path
     inkscape:connector-curvature="0"
     d="m 62.602551,80.276776 c 0,4.105665 -1.573823,7.597925 -4.723065,10.472465 C 54.730244,93.58356 50.782918,95 46.039103,95 H 19.754986 C 15.191538,95 11.336791,93.58356 8.1875483,90.749241 4.9936133,87.874701 3.3974447,84.382441 3.3974447,80.276776 V 19.968874 c 0,-4.147326 1.5961686,-7.638148 4.7901036,-10.472465 C 11.427771,6.4997611 15.282521,5 19.754986,5 h 26.284117 c 3.238628,0 6.365523,0.8001596 9.377495,2.4019155 2.646448,1.6434158 4.676776,3.8815635 6.090981,6.7144455 0,0.04166 0.06864,0.103433 0.205905,0.185315 0,0.08332 0,0.247087 0,0.492737 0,0.781484 -0.272943,1.294334 -0.822026,1.539984 l -10.814047,9.117798 c -0.684757,0.534397 -1.32482,0.801595 -1.916999,0.801595 -1.278531,0 -1.916998,-0.678052 -1.916998,-2.03272 v -5.298004 c 0,-0.616282 -0.319235,-1.189466 -0.957703,-1.723864 -0.502793,-0.451077 -1.14126,-0.678053 -1.916999,-0.678053 H 22.082201 c -1.77973,0 -2.668795,0.801596 -2.668795,2.401916 v 59.323862 c 0,0.656505 0.250598,1.212451 0.753391,1.662091 0.456504,0.494175 1.094972,0.739825 1.916999,0.739825 h 21.902633 c 1.77973,0 2.668797,-0.801597 2.668797,-2.401916 V 35.371588 c 0,-0.08332 0.03353,-0.195371 0.10215,-0.339027 0.06864,-0.143655 0.10215,-0.317477 0.10215,-0.522905 0,-0.08188 0.296885,-0.430965 0.889065,-1.047246 L 61.711878,22.313328 c 0.228254,-0.206864 0.478851,-0.308858 0.753393,-0.308858 0.09098,0 0.13727,0.101992 0.13727,0.308858 v 57.963448 z"
     id="path3169" /></svg>