<?xml version="1.0" encoding="UTF-8" standalone="no"?>
<!-- Created with Inkscape (http://www.inkscape.org/) -->

<svg
   xmlns:ns="http://ns.adobe.com/SaveForWeb/1.0/"
   xmlns:dc="http://purl.org/dc/elements/1.1/"
   xmlns:cc="http://creativecommons.org/ns#"
   xmlns:rdf="http://www.w3.org/1999/02/22-rdf-syntax-ns#"
   xmlns:svg="http://www.w3.org/2000/svg"
   xmlns="http://www.w3.org/2000/svg"
   xmlns:sodipodi="http://sodipodi.sourceforge.net/DTD/sodipodi-0.dtd"
   xmlns:inkscape="http://www.inkscape.org/namespaces/inkscape"
   version="1.1"
   width="70"
   height="100"
   viewBox="0 0 69.999996 100"
   id="svg2"
   xml:space="preserve"
   inkscape:version="0.48.4 r9939"
   sodipodi:docname="K.svg"><sodipodi:namedview
     pagecolor="#ffffff"
     bordercolor="#666666"
     borderopacity="1"
     objecttolerance="10"
     gridtolerance="10"
     guidetolerance="10"
     inkscape:pageopacity="0"
     inkscape:pageshadow="2"
     inkscape:window-width="944"
     inkscape:window-height="1042"
     id="namedview46"
     showgrid="false"
     inkscape:zoom="6.4571429"
     inkscape:cx="1.3938055"
     inkscape:cy="50"
     inkscape:window-x="960"
     inkscape:window-y="43"
     inkscape:window-maximized="0"
     inkscape:current-layer="svg2"
     width="80px" /><defs
     id="defs3199" /><metadata
     id="metadata3113"><ns:sfw><ns:slices /><ns:sliceSourceBounds
         bottomLeftOrigin="true"
         height="273.306"
         width="646.966"
         y="282.154"
         x="-27.493" /></ns:sfw><rdf:RDF><cc:Work
         rdf:about=""><dc:format>image/svg+xml</dc:format><dc:type
           rdf:resource="http://purl.org/dc/dcmitype/StillImage" /><dc:title /></cc:Work></rdf:RDF></metadata><rect
     width="646.966"
     height="273.306"
     x="-1.6997947e-005"
     y="-173.30603"
     id="rect3195"
     style="fill:none" /><path
     inkscape:connector-curvature="0"
     d="m 62.383721,90.010852 c 0.780114,1.068795 1.169453,2.094493 1.169453,3.079971 C 63.553174,94.363602 62.363608,95 59.981602,95 h -9.120006 c -1.271456,0 -2.402119,-0.800162 -3.38624,-2.401919 l -19.03593,-32.40287 c -0.412325,-0.574622 -0.926654,-0.861932 -1.540114,-0.861932 -0.451116,0 -0.864877,0.287311 -1.231229,0.861932 l -4.807111,6.467357 c -0.780114,1.232562 -1.169453,2.505348 -1.169453,3.819792 v 22.115721 c 0,0.699606 -0.288771,1.254114 -0.862005,1.663533 C 18.335299,94.754346 17.760629,95 17.10407,95 H 9.0342719 C 8.2124945,95 7.5947247,94.754347 7.1852727,94.261614 6.6910568,93.605109 6.4468223,93.050601 6.4468223,92.598081 V 7.7107727 c 0,-0.5746209 0.2442345,-1.1909018 0.7384504,-1.8488428 C 7.5559345,5.287309 8.109054,4.9999986 8.848941,4.9999986 H 17.2894 c 0.695351,0 1.271457,0.2255387 1.722572,0.6780527 0.451116,0.452514 0.679547,1.0271348 0.679547,1.7252993 V 42.700876 c 0,0.657941 0.451116,1.047248 1.354784,1.169354 0.574669,0 1.212553,-0.389306 1.910776,-1.169354 L 50.37169,7.03272 c 0,-0.081884 0.03017,-0.1335993 0.09195,-0.1537111 0.06178,-0.020111 0.09195,-0.091939 0.09195,-0.2154828 0.900794,-1.1090184 1.869112,-1.6635275 2.896335,-1.6635275 h 6.529682 c 2.382006,0 3.571572,0.6162809 3.571572,1.8474062 0,0.8633679 -0.389339,1.8488427 -1.169453,2.9578612 L 37.185897,43.87023 c -0.244234,0.24565 -0.367788,0.534397 -0.367788,0.863368 0,0.04166 0.123554,0.267198 0.367788,0.678053 0,0.122106 0,0.195371 0,0.215482 0,0.02155 0,0.07183 0,0.153711 l 25.197824,44.230008 z"
     id="path3137" /></svg>