<?xml version="1.0" encoding="UTF-8" standalone="no"?>
<!-- Created with Inkscape (http://www.inkscape.org/) -->

<svg
   xmlns:ns="http://ns.adobe.com/SaveForWeb/1.0/"
   xmlns:dc="http://purl.org/dc/elements/1.1/"
   xmlns:cc="http://creativecommons.org/ns#"
   xmlns:rdf="http://www.w3.org/1999/02/22-rdf-syntax-ns#"
   xmlns:svg="http://www.w3.org/2000/svg"
   xmlns="http://www.w3.org/2000/svg"
   xmlns:sodipodi="http://sodipodi.sourceforge.net/DTD/sodipodi-0.dtd"
   xmlns:inkscape="http://www.inkscape.org/namespaces/inkscape"
   version="1.1"
   width="70"
   height="100"
   viewBox="0 0 69.999996 100"
   id="svg2"
   xml:space="preserve"
   inkscape:version="0.48.4 r9939"
   sodipodi:docname="V.svg"><sodipodi:namedview
     pagecolor="#ffffff"
     bordercolor="#666666"
     borderopacity="1"
     objecttolerance="10"
     gridtolerance="10"
     guidetolerance="10"
     inkscape:pageopacity="0"
     inkscape:pageshadow="2"
     inkscape:window-width="944"
     inkscape:window-height="1042"
     id="namedview46"
     showgrid="false"
     inkscape:zoom="6.4571429"
     inkscape:cx="1.3938055"
     inkscape:cy="50"
     inkscape:window-x="960"
     inkscape:window-y="43"
     inkscape:window-maximized="0"
     inkscape:current-layer="svg2"
     width="80px" /><defs
     id="defs3199" /><metadata
     id="metadata3113"><ns:sfw><ns:slices /><ns:sliceSourceBounds
         bottomLeftOrigin="true"
         height="273.306"
         width="646.966"
         y="282.154"
         x="-27.493" /></ns:sfw><rdf:RDF><cc:Work
         rdf:about=""><dc:format>image/svg+xml</dc:format><dc:type
           rdf:resource="http://purl.org/dc/dcmitype/StillImage" /><dc:title /></cc:Work></rdf:RDF></metadata><rect
     width="646.966"
     height="273.306"
     x="-1.6997947e-005"
     y="-173.30603"
     id="rect3195"
     style="fill:none" /><path
     inkscape:connector-curvature="0"
     d="M 63.368767,8.9405258 45.072545,87.238184 c -0.821721,2.381842 -1.807212,4.210602 -2.957908,5.481971 C 40.759947,94.240052 39.056168,95 37.001865,95 h -8.069242 c -2.095963,0 -3.799742,-0.759948 -5.115644,-2.279845 -1.475363,-1.35469 -2.401955,-3.182014 -2.769718,-5.481971 L 6.4459113,8.9405258 c 0,-0.081882 0,-0.132165 0,-0.1537137 0,-0.020115 0,-0.09194 0,-0.2154861 0,-0.1221084 0,-0.2255418 0,-0.3074274 0,-0.9854901 0.2470905,-1.7870994 0.7412724,-2.4019533 C 7.3926141,5.2873151 7.9442592,5 8.8478646,5 h 8.6251974 c 0.945267,0 1.560121,0.1637694 1.848872,0.4927455 0.285879,0.3289752 0.512858,0.841833 0.676627,1.5400089 L 33.059903,75.781497 c 0.162333,1.150697 0.780061,1.725327 1.845999,1.725327 0.821722,0 1.397788,-0.57463 1.725327,-1.725327 L 51.53857,7.0327544 C 51.662116,6.5400089 51.950867,6.0271511 52.403388,5.4927455 52.732364,5.1637694 53.183449,5 53.758079,5 h 7.208734 c 0.942394,0 1.642005,0.2873151 2.093091,0.8619453 0.328975,0.5344056 0.494181,1.1506968 0.494181,1.8488718 0,0.1221093 0,0.2255427 0,0.3074274 0,0.083322 0,0.1652067 0,0.2456541 0,0.1652067 -0.03017,0.2988081 -0.09194,0.4008051 -0.06178,0.1005597 -0.09338,0.1939374 -0.09338,0.2758221 z"
     id="path3159" /></svg>