<?xml version="1.0" encoding="UTF-8" standalone="no"?>
<!-- Created with Inkscape (http://www.inkscape.org/) -->

<svg
   xmlns:ns="http://ns.adobe.com/SaveForWeb/1.0/"
   xmlns:dc="http://purl.org/dc/elements/1.1/"
   xmlns:cc="http://creativecommons.org/ns#"
   xmlns:rdf="http://www.w3.org/1999/02/22-rdf-syntax-ns#"
   xmlns:svg="http://www.w3.org/2000/svg"
   xmlns="http://www.w3.org/2000/svg"
   xmlns:sodipodi="http://sodipodi.sourceforge.net/DTD/sodipodi-0.dtd"
   xmlns:inkscape="http://www.inkscape.org/namespaces/inkscape"
   version="1.1"
   width="70"
   height="100"
   viewBox="0 0 69.999996 100"
   id="svg2"
   xml:space="preserve"
   inkscape:version="0.48.4 r9939"
   sodipodi:docname="R.svg"><sodipodi:namedview
     pagecolor="#ffffff"
     bordercolor="#666666"
     borderopacity="1"
     objecttolerance="10"
     gridtolerance="10"
     guidetolerance="10"
     inkscape:pageopacity="0"
     inkscape:pageshadow="2"
     inkscape:window-width="944"
     inkscape:window-height="1042"
     id="namedview46"
     showgrid="false"
     inkscape:zoom="6.4571429"
     inkscape:cx="1.3938055"
     inkscape:cy="50"
     inkscape:window-x="960"
     inkscape:window-y="43"
     inkscape:window-maximized="0"
     inkscape:current-layer="svg2"
     width="80px" /><defs
     id="defs3199" /><metadata
     id="metadata3113"><ns:sfw><ns:slices /><ns:sliceSourceBounds
         bottomLeftOrigin="true"
         height="273.306"
         width="646.966"
         y="282.154"
         x="-27.493" /></ns:sfw><rdf:RDF><cc:Work
         rdf:about=""><dc:format>image/svg+xml</dc:format><dc:type
           rdf:resource="http://purl.org/dc/dcmitype/StillImage" /><dc:title /></cc:Work></rdf:RDF></metadata><rect
     width="646.966"
     height="273.306"
     x="-1.6997947e-005"
     y="-173.30603"
     id="rect3195"
     style="fill:none" /><path
     inkscape:connector-curvature="0"
     d="M 63.585881,92.411416 C 63.378794,94.13666 62.229751,95 60.132997,95 H 50.883122 C 50.637206,95 50.184203,94.814691 49.52699,94.444072 48.826635,94.158208 48.189555,93.480176 47.614314,92.411416 L 25.166972,56.067804 c -0.453003,-1.025666 -0.678784,-1.88757 -0.678784,-2.587148 v -8.748325 c 0,-1.930664 1.026805,-2.895997 3.083291,-2.895997 H 38.363 c 1.685457,0 3.123559,-0.739801 4.315746,-2.216529 1.110216,-1.560047 1.665323,-3.058322 1.665323,-4.497701 V 18.86085 c 0,-0.574603 -0.22722,-1.210975 -0.678785,-1.910554 -0.740622,-0.451063 -1.317301,-0.67803 -1.727161,-0.67803 H 23.436934 c -0.658651,0 -1.294292,0.287301 -1.911238,0.861903 -0.453002,0.821682 -0.678784,1.458054 -0.678784,1.910554 v 73.550565 c 0,0.65792 -0.22722,1.212412 -0.678784,1.663475 -0.453003,0.492721 -1.090082,0.739801 -1.912677,0.739801 H 9.0055759 c -0.822595,0 -1.4395404,-0.24708 -1.850838,-0.739801 C 6.6614687,93.602279 6.4141151,93.047788 6.4141151,92.595288 V 7.7106875 c 0,-0.5746023 0.2473536,-1.1908638 0.7406228,-1.8487836 C 7.5243301,5.2873007 8.079438,5 8.8200609,5 H 52.60453 c 2.342669,0 4.110097,0.6780312 5.303722,2.0326563 1.397836,1.5198237 2.096754,3.4705997 2.096754,5.8523277 v 22.23712 c 0,2.383164 -1.090082,4.681574 -3.267369,6.899539 -2.180164,1.807125 -5.325294,3.963322 -9.435391,6.467153 -3.329207,1.889005 -5.387132,3.16175 -6.166584,3.81967 -0.493269,0.410841 -0.740622,0.92511 -0.740622,1.539935 0,0.739801 0.349458,1.539935 1.048377,2.403275 L 62.534628,90.00814 c 0.04027,0.163761 0.163944,0.268627 0.369592,0.307412 0.455879,1.070197 0.681661,1.766904 0.681661,2.095864 z"
     id="path3151" /></svg>