<?xml version="1.0" encoding="UTF-8" standalone="no"?>
<!-- Created with Inkscape (http://www.inkscape.org/) -->

<svg
   xmlns:ns="http://ns.adobe.com/SaveForWeb/1.0/"
   xmlns:dc="http://purl.org/dc/elements/1.1/"
   xmlns:cc="http://creativecommons.org/ns#"
   xmlns:rdf="http://www.w3.org/1999/02/22-rdf-syntax-ns#"
   xmlns:svg="http://www.w3.org/2000/svg"
   xmlns="http://www.w3.org/2000/svg"
   xmlns:sodipodi="http://sodipodi.sourceforge.net/DTD/sodipodi-0.dtd"
   xmlns:inkscape="http://www.inkscape.org/namespaces/inkscape"
   version="1.1"
   width="70"
   height="100"
   viewBox="0 0 69.999996 100"
   id="svg2"
   xml:space="preserve"
   inkscape:version="0.48.4 r9939"
   sodipodi:docname="S.svg"><sodipodi:namedview
     pagecolor="#ffffff"
     bordercolor="#666666"
     borderopacity="1"
     objecttolerance="10"
     gridtolerance="10"
     guidetolerance="10"
     inkscape:pageopacity="0"
     inkscape:pageshadow="2"
     inkscape:window-width="944"
     inkscape:window-height="1042"
     id="namedview46"
     showgrid="false"
     inkscape:zoom="6.4571429"
     inkscape:cx="1.3938055"
     inkscape:cy="50"
     inkscape:window-x="960"
     inkscape:window-y="43"
     inkscape:window-maximized="0"
     inkscape:current-layer="svg2"
     width="80px" /><defs
     id="defs3199" /><metadata
     id="metadata3113"><ns:sfw><ns:slices /><ns:sliceSourceBounds
         bottomLeftOrigin="true"
         height="273.306"
         width="646.966"
         y="282.154"
         x="-27.493" /></ns:sfw><rdf:RDF><cc:Work
         rdf:about=""><dc:format>image/svg+xml</dc:format><dc:type
           rdf:resource="http://purl.org/dc/dcmitype/StillImage" /><dc:title /></cc:Work></rdf:RDF></metadata><rect
     width="646.966"
     height="273.306"
     x="-1.6997947e-005"
     y="-173.30603"
     id="rect3195"
     style="fill:none" /><path
     inkscape:connector-curvature="0"
     d="m 63.554154,71.466556 c 0,3.609077 -0.739894,7.05507 -2.216808,10.337982 -1.561679,2.878752 -3.676482,5.350509 -6.345847,7.418105 -2.916475,1.986764 -5.996732,3.465847 -9.240772,4.440085 C 42.136022,94.554715 38.481091,95 34.784495,95 30.307778,95 26.405736,94.656818 23.079805,93.966202 19.792665,93.520917 16.877627,92.404869 14.331817,90.620893 11.867899,89.163082 9.9369915,86.851572 8.5405317,83.689199 7.1440718,80.689908 6.4458419,76.838336 6.4458419,72.134484 c 0,-0.323328 0.2471101,-0.931695 0.7398939,-1.823683 0.4927836,-0.565823 1.0473448,-0.852281 1.6636836,-0.852281 h 9.1186526 c 0.69823,0 1.272905,0.224061 1.725461,0.669345 0.245674,0.446704 0.471234,1.074924 0.678117,1.88608 0.163782,2.027889 0.678117,3.586386 1.540129,4.68258 0.985567,1.337274 2.134917,2.310092 3.449485,2.919878 1.436687,0.728905 2.915038,1.175608 4.435054,1.337273 1.025794,0.242495 2.689478,0.364452 4.989613,0.364452 2.505583,0 4.271271,-0.06097 5.298503,-0.182936 1.971135,-0.404159 3.449485,-0.809737 4.435053,-1.215315 1.560242,-0.770031 2.649251,-1.662018 3.26559,-2.675963 0.902239,-1.256441 1.354796,-2.776649 1.354796,-4.560624 0,-2.878752 -1.316006,-5.533443 -3.943707,-7.966911 -2.547246,-2.349799 -6.529743,-5.22997 -11.9518,-8.634838 -4.312934,-2.554006 -7.352964,-4.478374 -9.118653,-5.778776 -2.505582,-1.863389 -4.785604,-3.8303 -6.83863,-5.897896 -2.340364,-2.392342 -4.065825,-4.925077 -5.174947,-7.60104 -1.354796,-2.715671 -2.032912,-5.817064 -2.032912,-9.304184 0,-3.892697 0.678116,-7.276294 2.032912,-10.156464 1.478351,-2.836208 3.429371,-5.208697 5.853063,-7.11463 2.54581,-1.8236818 5.462284,-3.1822264 8.747988,-4.0742137 C 29.628225,5.3857247 33.161039,5 37.308754,5 c 3.696596,0 6.962186,0.3247461 9.795333,0.9728199 3.285703,0.7700301 5.914841,1.9059318 7.885976,3.4048683 2.300135,1.5003548 4.127601,3.5878048 5.482397,6.2637678 1.272905,2.919877 1.910794,6.182935 1.910794,9.790593 0,0.608367 -0.24711,1.236587 -0.739894,1.884661 -0.576111,0.56866 -1.19245,0.852281 -1.849016,0.852281 h -8.071308 c -0.658003,0 -1.293019,-0.283621 -1.909358,-0.852281 -0.452556,-0.445285 -0.678115,-1.012527 -0.678115,-1.703143 0,-3.324038 -1.089009,-5.756086 -3.26559,-7.297566 -2.216809,-1.45923 -4.949387,-2.189553 -8.193427,-2.189553 -3.203812,0 -6.243842,0.791302 -9.118653,2.371071 -2.711028,1.703143 -4.065824,4.074213 -4.065824,7.114629 0,3.122666 1.314568,5.777358 3.943705,7.966911 2.504147,2.392342 6.489516,5.271095 11.9518,8.634838 1.807353,1.215316 3.471037,2.321437 4.991051,3.314111 1.518579,0.99409 2.894925,1.915859 4.127603,2.766721 2.587473,1.864808 4.867496,3.831719 6.83863,5.899315 2.340363,2.554006 4.065825,5.108012 5.174947,7.662019 1.35767,2.881587 2.034349,6.085086 2.034349,9.610493 z"
     id="path3153" /></svg>