<?xml version="1.0" encoding="UTF-8" standalone="no"?>
<!-- Created with Inkscape (http://www.inkscape.org/) -->

<svg
   xmlns:ns="http://ns.adobe.com/SaveForWeb/1.0/"
   xmlns:dc="http://purl.org/dc/elements/1.1/"
   xmlns:cc="http://creativecommons.org/ns#"
   xmlns:rdf="http://www.w3.org/1999/02/22-rdf-syntax-ns#"
   xmlns:svg="http://www.w3.org/2000/svg"
   xmlns="http://www.w3.org/2000/svg"
   xmlns:sodipodi="http://sodipodi.sourceforge.net/DTD/sodipodi-0.dtd"
   xmlns:inkscape="http://www.inkscape.org/namespaces/inkscape"
   version="1.1"
   width="66"
   height="100"
   viewBox="0 0 65.999996 100"
   id="svg2"
   xml:space="preserve"
   inkscape:version="0.48.4 r9939"
   sodipodi:docname="9.svg"><sodipodi:namedview
     pagecolor="#ffffff"
     bordercolor="#666666"
     borderopacity="1"
     objecttolerance="10"
     gridtolerance="10"
     guidetolerance="10"
     inkscape:pageopacity="0"
     inkscape:pageshadow="2"
     inkscape:window-width="944"
     inkscape:window-height="1042"
     id="namedview46"
     showgrid="false"
     inkscape:zoom="5.65"
     inkscape:cx="1.5929204"
     inkscape:cy="50"
     inkscape:window-x="960"
     inkscape:window-y="43"
     inkscape:window-maximized="0"
     inkscape:current-layer="svg2"
     width="80px" /><defs
     id="defs3199" /><metadata
     id="metadata3113"><ns:sfw><ns:slices /><ns:sliceSourceBounds
         bottomLeftOrigin="true"
         height="273.306"
         width="646.966"
         y="282.154"
         x="-27.493" /></ns:sfw><rdf:RDF><cc:Work
         rdf:about=""><dc:format>image/svg+xml</dc:format><dc:type
           rdf:resource="http://purl.org/dc/dcmitype/StillImage" /><dc:title /></cc:Work></rdf:RDF></metadata><rect
     width="646.966"
     height="273.306"
     x="-1.6997947e-005"
     y="-173.30603"
     id="rect3195"
     style="fill:none" /><path
     inkscape:connector-curvature="0"
     d="m 59.644451,34.998084 c 0,5.257782 -0.392178,9.837511 -1.169354,13.736313 -1.068795,4.395851 -2.67055,8.215643 -4.806703,11.459378 L 32.046846,92.596648 C 31.387468,93.500239 30.874619,94.07486 30.506861,94.320511 30.094571,94.773025 29.541499,95 28.843334,95 H 17.138306 c -2.134717,0 -3.202075,-0.739824 -3.202075,-2.218036 0,-1.067359 0.389306,-2.094494 1.169353,-3.081405 L 40.301275,53.355786 c 1.598882,-2.25826 2.852993,-5.052354 3.756584,-8.377972 0.821708,-3.285395 1.231125,-6.612451 1.231125,-9.97973 0,-5.338227 -0.800159,-9.218355 -2.401915,-11.641819 -1.76696,-2.627454 -5.092578,-3.941899 -9.979729,-3.941899 -4.436073,0 -7.577813,1.437988 -9.425219,4.31253 -1.807183,2.83288 -2.710774,6.590901 -2.710774,11.272625 0,2.957862 0.347646,5.298005 1.047246,7.023305 0.738388,1.889065 1.765523,3.202075 3.081405,3.941899 1.394892,0.905027 2.811333,1.437988 4.250758,1.601755 1.807182,0.328971 3.818356,0.492737 6.034956,0.492737 0.656505,0 0.988348,0.288747 0.988348,0.863369 0,0.206864 -0.06178,0.308859 -0.185315,0.308859 -0.123544,0.53296 -0.451077,1.334557 -0.988348,2.401915 -1.107582,1.7253 -1.969513,2.998085 -2.587231,3.819792 -1.027134,1.519872 -2.278371,2.772546 -3.756584,3.756585 -1.354669,1.150678 -2.89609,1.725299 -4.621389,1.725299 -3.367278,0 -6.282043,-0.801596 -8.74573,-2.403352 C 12.946446,57.053472 11.120589,55.040862 9.8075799,52.495291 8.4529111,49.90806 7.5263349,47.177175 7.035034,44.302634 6.5810835,41.59186 6.3555448,38.49178 6.3555448,34.999521 c 0,-9.403671 2.1160415,-16.714285 6.3466872,-21.930407 C 17.05355,7.6892257 23.790979,5 32.905904,5 c 9.567438,0 16.490183,2.4636871 20.759617,7.392498 3.986432,4.842618 5.97893,12.378771 5.97893,22.605586 z"
     id="path3187" /></svg>