<?xml version="1.0" encoding="UTF-8" standalone="no"?>
<!-- Created with Inkscape (http://www.inkscape.org/) -->

<svg
   xmlns:ns="http://ns.adobe.com/SaveForWeb/1.0/"
   xmlns:dc="http://purl.org/dc/elements/1.1/"
   xmlns:cc="http://creativecommons.org/ns#"
   xmlns:rdf="http://www.w3.org/1999/02/22-rdf-syntax-ns#"
   xmlns:svg="http://www.w3.org/2000/svg"
   xmlns="http://www.w3.org/2000/svg"
   xmlns:sodipodi="http://sodipodi.sourceforge.net/DTD/sodipodi-0.dtd"
   xmlns:inkscape="http://www.inkscape.org/namespaces/inkscape"
   version="1.1"
   width="70"
   height="100"
   viewBox="0 0 69.999996 100"
   id="svg2"
   xml:space="preserve"
   inkscape:version="0.48.4 r9939"
   sodipodi:docname="T.svg"><sodipodi:namedview
     pagecolor="#ffffff"
     bordercolor="#666666"
     borderopacity="1"
     objecttolerance="10"
     gridtolerance="10"
     guidetolerance="10"
     inkscape:pageopacity="0"
     inkscape:pageshadow="2"
     inkscape:window-width="944"
     inkscape:window-height="1042"
     id="namedview46"
     showgrid="false"
     inkscape:zoom="6.4571429"
     inkscape:cx="1.3938055"
     inkscape:cy="50"
     inkscape:window-x="960"
     inkscape:window-y="43"
     inkscape:window-maximized="0"
     inkscape:current-layer="svg2"
     width="80px" /><defs
     id="defs3199" /><metadata
     id="metadata3113"><ns:sfw><ns:slices /><ns:sliceSourceBounds
         bottomLeftOrigin="true"
         height="273.306"
         width="646.966"
         y="282.154"
         x="-27.493" /></ns:sfw><rdf:RDF><cc:Work
         rdf:about=""><dc:format>image/svg+xml</dc:format><dc:type
           rdf:resource="http://purl.org/dc/dcmitype/StillImage" /><dc:title /></cc:Work></rdf:RDF></metadata><rect
     width="646.966"
     height="273.306"
     x="-1.6997947e-005"
     y="-173.30603"
     id="rect3195"
     style="fill:none" /><path
     inkscape:connector-curvature="0"
     d="m 63.551999,16.950296 c 0,0.65792 -0.226968,1.170754 -0.679467,1.539935 -0.532944,0.574603 -1.169316,0.861904 -1.907681,0.861904 h -17.12603 c -1.725244,0 -2.587147,0.801571 -2.587147,2.401839 v 70.657442 c 0,0.86334 -0.225532,1.478164 -0.678031,1.848783 C 40.12258,94.752921 39.546541,95 38.849835,95 h -9.424918 c -1.685023,0 -2.525379,-0.86334 -2.525379,-2.588584 V 21.755411 c 0,-0.656484 -0.287301,-1.210976 -0.861904,-1.663475 -0.492721,-0.492722 -1.13053,-0.739801 -1.910553,-0.739801 H 9.0351446 c -1.7252442,0 -2.587148,-0.840356 -2.587148,-2.525378 V 7.401839 C 6.4479966,5.8001342 7.311337,5 9.0351446,5 H 60.841312 c 0.818808,0 1.436506,0.225531 1.845911,0.6780312 0.574602,0.5343804 0.864776,1.1075463 0.864776,1.7252442 v 9.5470206 z"
     id="path3155" /></svg>