<?xml version="1.0" encoding="UTF-8" standalone="no"?>
<!-- Created with Inkscape (http://www.inkscape.org/) -->

<svg
   xmlns:ns="http://ns.adobe.com/SaveForWeb/1.0/"
   xmlns:dc="http://purl.org/dc/elements/1.1/"
   xmlns:cc="http://creativecommons.org/ns#"
   xmlns:rdf="http://www.w3.org/1999/02/22-rdf-syntax-ns#"
   xmlns:svg="http://www.w3.org/2000/svg"
   xmlns="http://www.w3.org/2000/svg"
   xmlns:sodipodi="http://sodipodi.sourceforge.net/DTD/sodipodi-0.dtd"
   xmlns:inkscape="http://www.inkscape.org/namespaces/inkscape"
   version="1.1"
   width="70"
   height="100"
   viewBox="0 0 69.999996 100"
   id="svg2"
   xml:space="preserve"
   inkscape:version="0.48.4 r9939"
   sodipodi:docname="Q.svg"><sodipodi:namedview
     pagecolor="#ffffff"
     bordercolor="#666666"
     borderopacity="1"
     objecttolerance="10"
     gridtolerance="10"
     guidetolerance="10"
     inkscape:pageopacity="0"
     inkscape:pageshadow="2"
     inkscape:window-width="944"
     inkscape:window-height="1042"
     id="namedview46"
     showgrid="false"
     inkscape:zoom="6.4571429"
     inkscape:cx="1.3938055"
     inkscape:cy="50"
     inkscape:window-x="960"
     inkscape:window-y="43"
     inkscape:window-maximized="0"
     inkscape:current-layer="svg2"
     width="80px" /><defs
     id="defs3199" /><metadata
     id="metadata3113"><ns:sfw><ns:slices /><ns:sliceSourceBounds
         bottomLeftOrigin="true"
         height="273.306"
         width="646.966"
         y="282.154"
         x="-27.493" /></ns:sfw><rdf:RDF><cc:Work
         rdf:about=""><dc:format>image/svg+xml</dc:format><dc:type
           rdf:resource="http://purl.org/dc/dcmitype/StillImage" /><dc:title /></cc:Work></rdf:RDF></metadata><rect
     width="646.966"
     height="273.306"
     x="-1.6997947e-005"
     y="-173.30603"
     id="rect3195"
     style="fill:none" /><path
     inkscape:connector-curvature="0"
     d="M 63.552456,92.411374 C 63.345595,94.136646 62.197808,95 60.103349,95 H 29.61014 C 26.366456,95 23.388531,94.240076 20.6778,92.720228 17.638104,91.118498 15.196005,89.127469 13.347191,86.745702 11.252731,84.322278 9.5892306,81.467893 8.3581251,78.182551 7.0839231,74.856986 6.4475403,71.713859 6.4475403,68.757482 V 26.252015 c 0,-3.736413 0.8015841,-7.063415 2.4018777,-9.979569 1.478188,-2.587189 3.65453,-4.805191 6.529026,-6.6525678 2.54553,-1.5184116 5.523455,-2.7308421 8.93234,-3.6344196 C 27.636348,5.3289653 31.127115,5 34.783082,5 c 3.69619,0 7.227179,0.3289653 10.59584,0.9854586 3.367225,0.6981534 6.447144,1.9091475 9.239757,3.6344196 2.503871,1.6017298 4.681649,3.8197318 6.529026,6.6525678 1.60173,2.916154 2.401877,6.243156 2.401877,9.979569 V 53.84918 c 0,1.354648 -0.04166,2.628849 -0.123541,3.819732 -0.08332,1.190882 -0.143653,2.258224 -0.183876,3.202024 -0.452507,2.258224 -0.861918,3.963384 -1.231106,5.114044 -0.369188,0.780036 -0.739813,1.590238 -1.109001,2.432045 -0.369188,0.841806 -0.801583,1.695104 -1.292876,2.555585 -0.534388,0.781472 -1.139168,1.644826 -1.81721,2.588626 -0.678042,0.9438 -1.38625,1.970918 -2.124626,3.079919 -0.123542,0.123542 -0.21548,0.215479 -0.27725,0.27725 -0.06177,0.06177 -0.133597,0.133598 -0.21548,0.21548 -0.574612,0.738376 -0.861918,1.314424 -0.861918,1.723835 0,0.328965 0.06177,0.554501 0.183877,0.678042 0,0.20686 0.163764,0.5545 0.492729,1.04723 l 7.514485,9.425069 0.185312,0.185312 c 0.576049,0.903577 0.863355,1.64339 0.863355,2.218001 z M 49.13832,68.386858 V 26.250579 c 0,-3.079919 -1.53996,-5.481797 -4.619879,-7.207068 -2.998037,-1.848813 -6.139726,-2.772502 -9.425069,-2.772502 -3.325565,0 -6.467255,0.923689 -9.425069,2.772502 -3.20346,1.725271 -4.80519,4.127149 -4.80519,7.207068 v 42.505467 c 0,2.916154 0.636382,5.605337 1.909148,8.068985 1.149223,2.505307 3.038259,3.757961 5.667108,3.757961 h 8.747027 c 0.821695,0 1.334535,-0.512842 1.539959,-1.53996 0,-0.616271 -0.123542,-1.129112 -0.369188,-1.539959 L 28.932098,63.950855 c -0.452506,-0.45107 -0.678042,-1.088889 -0.678042,-1.910584 0,-0.739813 0.349077,-1.354648 1.04723,-1.847377 0.574611,-0.45107 1.376196,-0.678042 2.401877,-0.678042 h 5.481797 c 0.780035,0 1.396305,0.163764 1.848813,0.492729 0.532952,0.328966 1.170771,1.007008 1.909147,2.03269 l 5.483232,7.576256 c 0.574613,0.576048 1.087453,0.863354 1.53996,0.863354 0.781472,0.0014 1.172208,-0.695281 1.172208,-2.093023 z"
     id="path3149" /></svg>