<?xml version="1.0" encoding="UTF-8" standalone="no"?>
<!-- Created with Inkscape (http://www.inkscape.org/) -->

<svg
   xmlns:ns="http://ns.adobe.com/SaveForWeb/1.0/"
   xmlns:dc="http://purl.org/dc/elements/1.1/"
   xmlns:cc="http://creativecommons.org/ns#"
   xmlns:rdf="http://www.w3.org/1999/02/22-rdf-syntax-ns#"
   xmlns:svg="http://www.w3.org/2000/svg"
   xmlns="http://www.w3.org/2000/svg"
   xmlns:sodipodi="http://sodipodi.sourceforge.net/DTD/sodipodi-0.dtd"
   xmlns:inkscape="http://www.inkscape.org/namespaces/inkscape"
   version="1.1"
   width="70"
   height="100"
   viewBox="0 0 69.999996 100"
   id="svg2"
   xml:space="preserve"
   inkscape:version="0.48.4 r9939"
   sodipodi:docname="E.svg"><sodipodi:namedview
     pagecolor="#ffffff"
     bordercolor="#666666"
     borderopacity="1"
     objecttolerance="10"
     gridtolerance="10"
     guidetolerance="10"
     inkscape:pageopacity="0"
     inkscape:pageshadow="2"
     inkscape:window-width="944"
     inkscape:window-height="1042"
     id="namedview46"
     showgrid="false"
     inkscape:zoom="6.4571429"
     inkscape:cx="1.3938055"
     inkscape:cy="50"
     inkscape:window-x="960"
     inkscape:window-y="43"
     inkscape:window-maximized="0"
     inkscape:current-layer="svg2"
     width="80px" /><defs
     id="defs3199" /><metadata
     id="metadata3113"><ns:sfw><ns:slices /><ns:sliceSourceBounds
         bottomLeftOrigin="true"
         height="273.306"
         width="646.966"
         y="282.154"
         x="-27.493" /></ns:sfw><rdf:RDF><cc:Work
         rdf:about=""><dc:format>image/svg+xml</dc:format><dc:type
           rdf:resource="http://purl.org/dc/dcmitype/StillImage" /><dc:title /></cc:Work></rdf:RDF></metadata><rect
     width="646.966"
     height="273.306"
     x="-1.6997947e-005"
     y="-173.30603"
     id="rect3195"
     style="fill:none" /><path
     inkscape:connector-curvature="0"
     d="m 63.552911,92.412769 c 0,0.657942 -0.226975,1.272785 -0.678053,1.848843 C 62.422345,94.754349 61.847723,95 61.149559,95 H 9.0343153 C 7.3090161,95 6.4470847,94.138068 6.4470847,92.412769 V 7.4019155 C 6.4470847,5.8001594 7.3090161,5 9.0343153,5 H 57.20766 c 0.820271,0 1.456663,0.2255391 1.909178,0.6780528 0.57462,0.5746212 0.863367,1.1492415 0.863367,1.7252991 v 6.4673591 c 0,0.452513 -0.226975,1.027134 -0.678052,1.725299 -0.452514,0.452513 -1.088907,0.678052 -1.910615,0.678052 H 23.448682 c -1.7253,0 -2.587231,0.861931 -2.587231,2.587231 V 34.13759 c 0,0.534397 0.225538,1.150678 0.678052,1.848842 0.451078,0.452515 1.08747,0.678053 1.909179,0.678053 H 46.61165 c 0.656504,0 1.272786,0.287311 1.847406,0.863368 0.451077,0.698164 0.678053,1.334557 0.678053,1.909178 v 6.159936 c 0,1.725299 -0.84182,2.587231 -2.525459,2.587231 H 23.448682 c -1.7253,0 -2.587231,0.800159 -2.587231,2.401915 v 27.228412 c 0,0.576058 0.225538,1.212451 0.678052,1.910615 0.616281,0.574621 1.252674,0.861931 1.909179,0.861931 h 37.700877 c 0.696728,0 1.272786,0.226975 1.725299,0.678052 0.451078,0.616282 0.678053,1.254111 0.678053,1.910615 v 9.237031 z"
     id="path3125" /></svg>