<?xml version="1.0" encoding="UTF-8" standalone="no"?>
<!-- Created with Inkscape (http://www.inkscape.org/) -->

<svg
   xmlns:ns="http://ns.adobe.com/SaveForWeb/1.0/"
   xmlns:dc="http://purl.org/dc/elements/1.1/"
   xmlns:cc="http://creativecommons.org/ns#"
   xmlns:rdf="http://www.w3.org/1999/02/22-rdf-syntax-ns#"
   xmlns:svg="http://www.w3.org/2000/svg"
   xmlns="http://www.w3.org/2000/svg"
   xmlns:sodipodi="http://sodipodi.sourceforge.net/DTD/sodipodi-0.dtd"
   xmlns:inkscape="http://www.inkscape.org/namespaces/inkscape"
   version="1.1"
   width="70"
   height="100"
   viewBox="0 0 69.999996 100"
   id="svg2"
   xml:space="preserve"
   inkscape:version="0.48.4 r9939"
   sodipodi:docname="N.svg"><sodipodi:namedview
     pagecolor="#ffffff"
     bordercolor="#666666"
     borderopacity="1"
     objecttolerance="10"
     gridtolerance="10"
     guidetolerance="10"
     inkscape:pageopacity="0"
     inkscape:pageshadow="2"
     inkscape:window-width="944"
     inkscape:window-height="1042"
     id="namedview46"
     showgrid="false"
     inkscape:zoom="6.4571429"
     inkscape:cx="1.3938055"
     inkscape:cy="50"
     inkscape:window-x="960"
     inkscape:window-y="43"
     inkscape:window-maximized="0"
     inkscape:current-layer="svg2"
     width="80px" /><defs
     id="defs3199" /><metadata
     id="metadata3113"><ns:sfw><ns:slices /><ns:sliceSourceBounds
         bottomLeftOrigin="true"
         height="273.306"
         width="646.966"
         y="282.154"
         x="-27.493" /></ns:sfw><rdf:RDF><cc:Work
         rdf:about=""><dc:format>image/svg+xml</dc:format><dc:type
           rdf:resource="http://purl.org/dc/dcmitype/StillImage" /><dc:title /></cc:Work></rdf:RDF></metadata><rect
     width="646.966"
     height="273.306"
     x="-1.6997947e-005"
     y="-173.30603"
     id="rect3195"
     style="fill:none" /><path
     inkscape:connector-curvature="0"
     d="m 63.553174,92.596687 c 0,0.534388 -0.225536,1.088889 -0.678042,1.6635 C 62.422625,94.752917 61.848013,95 61.14986,95 h -8.377839 c -0.739813,0 -1.314424,-0.247083 -1.725272,-0.739813 -0.452507,-0.45107 -0.678041,-1.067341 -0.678041,-1.848813 0,-0.369188 -0.06178,-0.655057 -0.183877,-0.861917 0,-0.574612 -0.06177,-0.925126 -0.185312,-1.04723 L 22.402354,41.836922 c -0.369188,-0.574612 -0.821695,-0.861918 -1.354647,-0.861918 -0.903577,0 -1.354647,0.287306 -1.354647,0.861918 v 50.759765 c 0,0.65793 -0.226972,1.21243 -0.678042,1.6635 C 18.522288,94.752917 17.884469,95 17.104434,95 H 9.035448 C 8.2137534,95 7.597482,94.752917 7.1866347,94.260187 6.6939054,93.603693 6.4468221,93.049193 6.4468221,92.596687 V 7.7107307 c 0,-0.5746113 0.2470833,-1.1908827 0.7398126,-1.8488133 C 7.5558228,5.2873061 8.1103236,5 8.8501362,5 h 8.4396098 c 0.698153,0 1.272765,0.2255355 1.725272,0.678042 0.45107,0.4525065 0.678042,1.0271187 0.678042,1.7252721 0,0.3289653 0.06177,0.6579297 0.183875,0.9854586 0,0.4525065 0.04022,0.8001468 0.123541,1.0472301 L 47.597642,58.101307 c 0.369188,0.574612 0.883466,0.863354 1.539959,0.863354 0.820259,0 1.231107,-0.287306 1.231107,-0.863354 V 7.4033141 c 0,-0.6981534 0.225534,-1.2727656 0.678041,-1.7252721 C 51.415937,5.2269719 51.990549,5 52.772021,5 h 8.193963 c 0.861918,0 1.498301,0.2873061 1.909148,0.8619174 0.45107,0.6162714 0.678042,1.2325428 0.678042,1.8488133 V 92.596687 z"
     id="path3143" /></svg>