<?xml version="1.0" encoding="UTF-8" standalone="no"?>
<!-- Created with Inkscape (http://www.inkscape.org/) -->

<svg
   xmlns:ns="http://ns.adobe.com/SaveForWeb/1.0/"
   xmlns:dc="http://purl.org/dc/elements/1.1/"
   xmlns:cc="http://creativecommons.org/ns#"
   xmlns:rdf="http://www.w3.org/1999/02/22-rdf-syntax-ns#"
   xmlns:svg="http://www.w3.org/2000/svg"
   xmlns="http://www.w3.org/2000/svg"
   xmlns:sodipodi="http://sodipodi.sourceforge.net/DTD/sodipodi-0.dtd"
   xmlns:inkscape="http://www.inkscape.org/namespaces/inkscape"
   version="1.1"
   width="70"
   height="100"
   viewBox="0 0 69.999996 100"
   id="svg2"
   xml:space="preserve"
   inkscape:version="0.48.4 r9939"
   sodipodi:docname="G.svg"><sodipodi:namedview
     pagecolor="#ffffff"
     bordercolor="#666666"
     borderopacity="1"
     objecttolerance="10"
     gridtolerance="10"
     guidetolerance="10"
     inkscape:pageopacity="0"
     inkscape:pageshadow="2"
     inkscape:window-width="944"
     inkscape:window-height="1042"
     id="namedview46"
     showgrid="false"
     inkscape:zoom="6.4571429"
     inkscape:cx="1.3938055"
     inkscape:cy="50"
     inkscape:window-x="960"
     inkscape:window-y="43"
     inkscape:window-maximized="0"
     inkscape:current-layer="svg2"
     width="80px" /><defs
     id="defs3199" /><metadata
     id="metadata3113"><ns:sfw><ns:slices /><ns:sliceSourceBounds
         bottomLeftOrigin="true"
         height="273.306"
         width="646.966"
         y="282.154"
         x="-27.493" /></ns:sfw><rdf:RDF><cc:Work
         rdf:about=""><dc:format>image/svg+xml</dc:format><dc:type
           rdf:resource="http://purl.org/dc/dcmitype/StillImage" /><dc:title /></cc:Work></rdf:RDF></metadata><rect
     width="646.966"
     height="273.306"
     x="-1.6997947e-005"
     y="-173.30603"
     id="rect3195"
     style="fill:none" /><path
     inkscape:connector-curvature="0"
     d="m 63.552911,91.288762 c 0,0.649502 -0.226975,1.25646 -0.679489,1.82513 -0.451077,0.486417 -1.027135,0.728917 -1.722426,0.728917 h -5.790743 c -0.864804,0 -1.562968,-0.465146 -2.09593,-1.398274 -0.945251,-1.134501 -1.74541,-2.310129 -2.401915,-3.526881 -1.150678,-2.270421 -2.011172,-3.404922 -2.58723,-3.404922 -0.288747,0 -0.51285,0.18152 -0.679489,0.547397 -2.544135,3.040464 -5.4,5.291031 -8.560416,6.750284 C 35.748442,94.269664 32.032081,95 27.884755,95 21.437507,95 16.242935,92.851538 12.299599,88.554614 8.3979228,84.338523 6.4470848,79.047492 6.4470848,72.682939 V 19.046547 c 0,-4.094133 1.4365523,-7.479202 4.3125302,-10.1552071 C 13.470389,6.2975858 16.836231,5 20.862887,5 h 26.057622 c 3.737909,0 6.815004,0.9529812 9.239904,2.8575252 2.547007,2.1498808 3.818356,4.9053018 3.818356,8.2705168 v 6.933222 c 0,0.56725 -0.224102,1.195481 -0.676616,1.88469 -0.535834,0.44671 -1.169353,0.669356 -1.910615,0.669356 h -9.425219 c -0.698165,0 -1.274222,-0.222646 -1.725299,-0.669356 -0.451078,-0.445291 -0.676617,-1.073522 -0.676617,-1.88469 v -4.377758 c 0,-0.608376 -0.288747,-1.236607 -0.864804,-1.886109 -0.738387,-0.445291 -1.37478,-0.669355 -1.909178,-0.669355 H 28.745249 c -3.572706,0 -5.852514,0.911856 -6.837988,2.736985 -0.328971,0.32475 -0.616282,1.055086 -0.863369,2.189587 0,0.364459 -0.03017,0.831022 -0.09194,1.398273 -0.06178,0.568669 -0.09194,1.177046 -0.09194,1.825129 v 47.555465 c 0,2.756838 1.436553,4.946426 4.311094,6.567345 2.996648,1.581211 5.852515,2.371107 8.561852,2.371107 1.231125,0 2.772545,-0.161666 4.619952,-0.486416 2.011173,-0.404167 3.737909,-0.972836 5.174461,-1.703171 1.644853,-0.689209 2.957862,-1.581211 3.9419,-2.676005 1.110455,-1.134502 1.663528,-2.493067 1.663528,-4.074279 V 59.487268 c 0,-0.526125 -0.224103,-1.094793 -0.676617,-1.70317 -0.412291,-0.445292 -1.027135,-0.669356 -1.848843,-0.669356 H 34.22426 c -0.656505,0 -1.272785,-0.283625 -1.847407,-0.852294 -0.452513,-0.648084 -0.678052,-1.276314 -0.678052,-1.884691 v -6.263865 c 0,-0.445293 0.224102,-1.012544 0.678052,-1.703171 0.698165,-0.445291 1.314446,-0.669355 1.847407,-0.669355 h 26.737111 c 1.722426,0 2.587231,0.852293 2.587231,2.554046 v 42.99335 z"
     id="path3129" /></svg>