<?xml version="1.0" encoding="UTF-8" standalone="no"?>
<!-- Created with Inkscape (http://www.inkscape.org/) -->

<svg
   xmlns:ns="http://ns.adobe.com/SaveForWeb/1.0/"
   xmlns:dc="http://purl.org/dc/elements/1.1/"
   xmlns:cc="http://creativecommons.org/ns#"
   xmlns:rdf="http://www.w3.org/1999/02/22-rdf-syntax-ns#"
   xmlns:svg="http://www.w3.org/2000/svg"
   xmlns="http://www.w3.org/2000/svg"
   xmlns:sodipodi="http://sodipodi.sourceforge.net/DTD/sodipodi-0.dtd"
   xmlns:inkscape="http://www.inkscape.org/namespaces/inkscape"
   version="1.1"
   width="70"
   height="100"
   viewBox="0 0 69.999996 100"
   id="svg2"
   xml:space="preserve"
   inkscape:version="0.48.4 r9939"
   sodipodi:docname="O.svg"><sodipodi:namedview
     pagecolor="#ffffff"
     bordercolor="#666666"
     borderopacity="1"
     objecttolerance="10"
     gridtolerance="10"
     guidetolerance="10"
     inkscape:pageopacity="0"
     inkscape:pageshadow="2"
     inkscape:window-width="944"
     inkscape:window-height="1042"
     id="namedview46"
     showgrid="false"
     inkscape:zoom="6.4571429"
     inkscape:cx="1.3938055"
     inkscape:cy="50"
     inkscape:window-x="960"
     inkscape:window-y="43"
     inkscape:window-maximized="0"
     inkscape:current-layer="svg2"
     width="80px" /><defs
     id="defs3199" /><metadata
     id="metadata3113"><ns:sfw><ns:slices /><ns:sliceSourceBounds
         bottomLeftOrigin="true"
         height="273.306"
         width="646.966"
         y="282.154"
         x="-27.493" /></ns:sfw><rdf:RDF><cc:Work
         rdf:about=""><dc:format>image/svg+xml</dc:format><dc:type
           rdf:resource="http://purl.org/dc/dcmitype/StillImage" /><dc:title /></cc:Work></rdf:RDF></metadata><rect
     width="646.966"
     height="273.306"
     x="-1.6997947e-005"
     y="-173.30603"
     id="rect3195"
     style="fill:none" /><path
     inkscape:connector-curvature="0"
     d="m 63.553174,53.709052 c 0,5.838336 -0.287313,11.149138 -0.86194,15.932404 -0.699607,4.906642 -1.950855,9.183644 -3.758055,12.831009 -1.930744,3.932404 -4.846972,6.974238 -8.747247,9.122666 C 46.202336,93.866934 41.068051,95 34.784513,95 28.541199,95 23.450012,93.865517 19.506639,91.595131 15.604927,89.283621 12.750472,86.183644 10.944709,82.290948 9.0556251,78.722997 7.843164,74.548098 7.3101984,69.763413 6.7341354,64.452611 6.4468221,59.100686 6.4468221,53.709052 c 0,-5.51359 0.636399,-11.330654 1.9106325,-17.452612 0.5746257,-3.324036 1.6017705,-6.972819 3.0799964,-10.946348 1.436565,-3.810447 3.203541,-7.154338 5.298053,-10.034508 2.094513,-3.040415 4.681767,-5.5121711 7.761764,-7.4181038 C 27.412059,5.9529659 30.842578,5 34.784513,5 c 3.901712,0 7.371018,0.8919873 10.41079,2.6759628 3.243765,2.1087216 5.934453,4.6414562 8.070625,7.6010402 2.216621,3.244623 3.98216,6.588513 5.298054,10.034507 1.354681,3.648783 2.380389,7.297566 3.079996,10.946349 1.27136,5.795793 1.909196,11.612857 1.909196,17.451193 z m -14.415935,0.486411 c 0,-3.366581 -0.165205,-6.791303 -0.492742,-10.278422 -0.328974,-3.404869 -0.965372,-7.358545 -1.909196,-11.85819 -1.027144,-4.216025 -2.50537,-7.60104 -4.434678,-10.155046 -2.012627,-2.836209 -4.519434,-4.255731 -7.51611,-4.255731 -2.956452,0 -5.420161,1.419522 -7.392566,4.255731 -1.765539,2.473174 -3.203541,5.797211 -4.31257,9.973529 -1.027144,4.784684 -1.581658,8.736941 -1.663543,11.85819 -0.369197,3.729614 -0.554514,7.216733 -0.554514,10.459939 0,2.149846 0.03017,4.095485 0.09194,5.836917 0.06178,1.74285 0.153712,3.365162 0.277257,4.865516 0.328974,3.081542 0.903599,5.71638 1.725315,7.905933 1.067368,2.593713 2.483821,4.520917 4.250797,5.775939 1.972405,1.45923 4.49645,2.189554 7.576446,2.189554 3.161881,0 5.790796,-0.730324 7.885309,-2.189554 1.848859,-1.378397 3.327085,-3.404868 4.436113,-6.080832 0.698172,-1.945639 1.272798,-4.600331 1.725316,-7.965492 0.205428,-3.162373 0.307425,-6.608367 0.307425,-10.337981 z"
     id="path3145" /></svg>