<?xml version="1.0" encoding="UTF-8" standalone="no"?>
<!-- Created with Inkscape (http://www.inkscape.org/) -->

<svg
   xmlns:ns="http://ns.adobe.com/SaveForWeb/1.0/"
   xmlns:dc="http://purl.org/dc/elements/1.1/"
   xmlns:cc="http://creativecommons.org/ns#"
   xmlns:rdf="http://www.w3.org/1999/02/22-rdf-syntax-ns#"
   xmlns:svg="http://www.w3.org/2000/svg"
   xmlns="http://www.w3.org/2000/svg"
   xmlns:sodipodi="http://sodipodi.sourceforge.net/DTD/sodipodi-0.dtd"
   xmlns:inkscape="http://www.inkscape.org/namespaces/inkscape"
   version="1.1"
   width="66"
   height="100"
   viewBox="0 0 65.999996 100"
   id="svg2"
   xml:space="preserve"
   inkscape:version="0.48.4 r9939"
   sodipodi:docname="2.svg"><sodipodi:namedview
     pagecolor="#ffffff"
     bordercolor="#666666"
     borderopacity="1"
     objecttolerance="10"
     gridtolerance="10"
     guidetolerance="10"
     inkscape:pageopacity="0"
     inkscape:pageshadow="2"
     inkscape:window-width="2479"
     inkscape:window-height="1410"
     id="namedview46"
     showgrid="false"
     inkscape:zoom="5.65"
     inkscape:cx="1.5929204"
     inkscape:cy="50"
     inkscape:window-x="81"
     inkscape:window-y="30"
     inkscape:window-maximized="1"
     inkscape:current-layer="svg2"
     width="80px" /><defs
     id="defs3199" /><metadata
     id="metadata3113"><ns:sfw><ns:slices /><ns:sliceSourceBounds
         bottomLeftOrigin="true"
         height="273.306"
         width="646.966"
         y="282.154"
         x="-27.493" /></ns:sfw><rdf:RDF><cc:Work
         rdf:about=""><dc:format>image/svg+xml</dc:format><dc:type
           rdf:resource="http://purl.org/dc/dcmitype/StillImage" /><dc:title /></cc:Work></rdf:RDF></metadata><rect
     width="646.966"
     height="273.306"
     x="-1.6997947e-005"
     y="-173.30603"
     id="rect3195"
     style="fill:none" /><path
     inkscape:connector-curvature="0"
     d="M 62.601428,92.598047 C 62.601428,94.199827 61.734694,95 59.99963,95 H 6.0642128 c -1.7797575,0 -2.668837,-0.800173 -2.668837,-2.401953 v -11.95087 c 0,-1.231145 0.319238,-2.218072 0.9577157,-2.957908 0.3655288,-0.696739 1.1173375,-1.662117 2.2586163,-2.894698 2.0989962,-2.011207 5.7255502,-5.277979 10.8828552,-9.79457 2.189979,-1.970982 4.231512,-3.778193 6.126195,-5.420199 1.893087,-1.643442 3.593034,-3.203563 5.099842,-4.683235 2.782167,-2.627496 5.703204,-5.605517 8.761513,-8.932625 2.783762,-3.243786 5.020032,-6.384139 6.708806,-9.42537 1.642484,-3.038357 2.462928,-6.11981 2.462928,-9.241488 0,-2.996696 -1.094989,-5.050998 -3.284968,-6.160034 -2.054304,-1.149261 -4.838066,-1.723891 -8.351291,-1.723891 -3.557918,0 -6.343278,0.57463 -8.349694,1.723891 -2.189979,0.986927 -3.284969,3.039793 -3.284969,6.160034 0,1.027152 -0.183562,1.889097 -0.547495,2.588708 -0.593785,0.698176 -1.414228,1.047263 -2.462928,1.047263 H 10.035545 c -1.7334672,0 -2.600201,-0.863381 -2.600201,-2.587271 v -3.449218 c 0,-3.367332 0.7534038,-6.323803 2.2586163,-8.870851 C 10.926222,13.560551 12.956582,11.445912 15.785039,9.6803623 18.340545,8.0785805 21.261582,6.9293199 24.54655,6.2311449 27.603264,5.4094235 31.094142,5 35.019184,5 c 3.741481,0 7.163721,0.4094235 10.268321,1.2311449 3.012019,0.6162908 6.000095,1.7655513 8.965825,3.4492174 2.464525,1.6003437 4.493288,3.7164197 6.092675,6.3453527 1.505212,2.545611 2.258615,5.503519 2.258615,8.870851 0,4.969115 -0.684767,9.321938 -2.054302,13.059906 -1.367939,3.941962 -3.217929,7.536273 -5.54518,10.78006 -1.961724,2.834363 -4.494885,5.750611 -7.597888,8.748743 -2.783762,2.792702 -6.48055,6.098262 -11.088763,9.916679 -2.098997,1.848873 -3.91387,3.480822 -5.441428,4.897285 -1.529154,1.416463 -2.81888,2.598763 -3.86758,3.542593 -1.505211,1.561558 -2.258615,2.814251 -2.258615,3.758081 0,0.698177 0.365529,1.047264 1.09499,1.047264 h 34.155373 c 1.733467,0 2.601797,0.841833 2.601797,2.526936 v 9.423934 z"
     id="path3173" /></svg>