<?xml version="1.0" encoding="UTF-8" standalone="no"?>
<!-- Created with Inkscape (http://www.inkscape.org/) -->

<svg
   xmlns:ns="http://ns.adobe.com/SaveForWeb/1.0/"
   xmlns:dc="http://purl.org/dc/elements/1.1/"
   xmlns:cc="http://creativecommons.org/ns#"
   xmlns:rdf="http://www.w3.org/1999/02/22-rdf-syntax-ns#"
   xmlns:svg="http://www.w3.org/2000/svg"
   xmlns="http://www.w3.org/2000/svg"
   xmlns:sodipodi="http://sodipodi.sourceforge.net/DTD/sodipodi-0.dtd"
   xmlns:inkscape="http://www.inkscape.org/namespaces/inkscape"
   version="1.1"
   width="70"
   height="100"
   viewBox="0 0 69.999996 100"
   id="svg2"
   xml:space="preserve"
   inkscape:version="0.48.4 r9939"
   sodipodi:docname="AE.svg"><sodipodi:namedview
     pagecolor="#ffffff"
     bordercolor="#666666"
     borderopacity="1"
     objecttolerance="10"
     gridtolerance="10"
     guidetolerance="10"
     inkscape:pageopacity="0"
     inkscape:pageshadow="2"
     inkscape:window-width="944"
     inkscape:window-height="1042"
     id="namedview46"
     showgrid="false"
     inkscape:zoom="5.65"
     inkscape:cx="1.5929204"
     inkscape:cy="50"
     inkscape:window-x="960"
     inkscape:window-y="43"
     inkscape:window-maximized="0"
     inkscape:current-layer="svg2"
     width="80px" /><defs
     id="defs3199" /><metadata
     id="metadata3113"><ns:sfw><ns:slices /><ns:sliceSourceBounds
         bottomLeftOrigin="true"
         height="273.306"
         width="646.966"
         y="282.154"
         x="-27.493" /></ns:sfw><rdf:RDF><cc:Work
         rdf:about=""><dc:format>image/svg+xml</dc:format><dc:type
           rdf:resource="http://purl.org/dc/dcmitype/StillImage" /><dc:title /></cc:Work></rdf:RDF></metadata><rect
     width="646.966"
     height="273.306"
     x="-1.6997947e-005"
     y="-173.30603"
     id="rect3195"
     style="fill:none" /><path
     inkscape:connector-curvature="0"
     d="m 28.563628,12.207068 c 0,2.09446 -0.803019,3.819731 -2.40475,5.175815 -1.683612,1.354648 -3.676078,2.032689 -5.973089,2.032689 h -5.299356 c -2.298447,0 -4.309589,-0.678041 -6.0348607,-2.032689 -1.6017302,-1.396307 -2.4018774,-3.121578 -2.4018774,-5.175815 0,-1.970918 0.8001472,-3.6746418 2.4018774,-5.1126078 C 10.617067,5.6981534 12.628208,5 14.886433,5 h 5.299356 c 2.255351,0 4.25069,0.6981534 5.973089,2.0944602 1.601731,1.3560831 2.40475,3.0612438 2.40475,5.1126078 z m 34.495379,78.356929 c 0.123542,0.328965 0.185313,0.780036 0.185313,1.354648 C 63.24432,93.972881 61.928459,95 59.29961,95 h -6.529026 c -1.972354,0 -3.120141,-0.512841 -3.44767,-1.539959 L 46.918163,82.678888 C 46.71274,81.324241 45.852259,80.646199 44.330975,80.646199 H 24.311502 c -0.821696,0 -1.397744,0.165201 -1.725272,0.494166 -0.412284,0.328965 -0.698154,0.841806 -0.861918,1.538523 L 19.13425,93.460041 c 0,0.492729 -0.328965,0.903577 -0.98546,1.231105 C 17.69772,94.898007 16.998131,95 16.055767,95 H 10.079805 C 9.176228,95 8.4349788,94.836236 7.8632401,94.505834 7.1622138,94.013104 6.8145738,93.151187 6.8145738,91.918645 c 0,-0.08188 0,-0.153708 0,-0.21548 0,-0.06177 0,-0.152272 0,-0.275813 0,-0.247083 0,-0.420903 0,-0.524334 0,-0.100557 0,-0.214042 0,-0.337584 L 21.906751,27.116806 c 0.288743,-1.354647 1.15066,-2.381765 2.590063,-3.081355 1.107564,-0.656494 2.19358,-0.98546 3.262358,-0.98546 h 14.168489 c 1.354647,0 2.505307,0.163765 3.44767,0.49273 0.903578,0.328965 1.53996,1.190883 1.910584,2.587189 L 63.059007,90.563997 z M 43.654369,68.07944 36.445865,36.047709 c -0.328965,-1.027119 -1.007007,-1.53996 -2.034126,-1.53996 -1.107564,0 -1.745383,0.512841 -1.907711,1.53996 L 24.988106,68.07944 c 0,0.123542 0,0.196804 0,0.215479 0,0.02155 0,0.07326 0,0.153709 v 0.185312 c 0,1.231106 0.864791,1.847377 2.58719,1.847377 h 13.552218 c 1.683613,0.0014 2.526855,-0.800147 2.526855,-2.401877 z M 63.550301,12.207068 c 0,2.09446 -0.861918,3.819731 -2.587189,5.175815 -1.560071,1.354648 -3.490767,2.032689 -5.790651,2.032689 h -5.358254 c -2.340106,0 -4.270802,-0.678041 -5.79065,-2.032689 -1.722398,-1.354647 -2.587189,-3.081355 -2.587189,-5.175815 0,-2.0528 0.864791,-3.7565247 2.587189,-5.1126078 C 45.583628,5.6981534 47.514323,5 49.814207,5 h 5.358254 c 2.258224,0 4.18892,0.6981534 5.790651,2.0944602 1.725271,1.3560831 2.587189,3.0612438 2.587189,5.1126078 z"
     id="path3189" /></svg>