<?xml version="1.0" encoding="UTF-8" standalone="no"?>
<!-- Created with Inkscape (http://www.inkscape.org/) -->

<svg
   xmlns:ns="http://ns.adobe.com/SaveForWeb/1.0/"
   xmlns:dc="http://purl.org/dc/elements/1.1/"
   xmlns:cc="http://creativecommons.org/ns#"
   xmlns:rdf="http://www.w3.org/1999/02/22-rdf-syntax-ns#"
   xmlns:svg="http://www.w3.org/2000/svg"
   xmlns="http://www.w3.org/2000/svg"
   xmlns:sodipodi="http://sodipodi.sourceforge.net/DTD/sodipodi-0.dtd"
   xmlns:inkscape="http://www.inkscape.org/namespaces/inkscape"
   version="1.1"
   width="66"
   height="100"
   viewBox="0 0 65.999996 100"
   id="svg2"
   xml:space="preserve"
   inkscape:version="0.48.4 r9939"
   sodipodi:docname="6.svg"><sodipodi:namedview
     pagecolor="#ffffff"
     bordercolor="#666666"
     borderopacity="1"
     objecttolerance="10"
     gridtolerance="10"
     guidetolerance="10"
     inkscape:pageopacity="0"
     inkscape:pageshadow="2"
     inkscape:window-width="944"
     inkscape:window-height="1042"
     id="namedview46"
     showgrid="false"
     inkscape:zoom="5.65"
     inkscape:cx="1.5929204"
     inkscape:cy="50"
     inkscape:window-x="960"
     inkscape:window-y="43"
     inkscape:window-maximized="0"
     inkscape:current-layer="svg2"
     width="80px" /><defs
     id="defs3199" /><metadata
     id="metadata3113"><ns:sfw><ns:slices /><ns:sliceSourceBounds
         bottomLeftOrigin="true"
         height="273.306"
         width="646.966"
         y="282.154"
         x="-27.493" /></ns:sfw><rdf:RDF><cc:Work
         rdf:about=""><dc:format>image/svg+xml</dc:format><dc:type
           rdf:resource="http://purl.org/dc/dcmitype/StillImage" /><dc:title /></cc:Work></rdf:RDF></metadata><rect
     width="646.966"
     height="273.306"
     x="-1.6997947e-005"
     y="-173.30603"
     id="rect3195"
     style="fill:none" /><path
     inkscape:connector-curvature="0"
     d="m 59.644745,65.184833 c 0,3.818295 -0.553124,7.412492 -1.663681,10.779717 -1.31313,3.572648 -3.038587,6.776109 -5.174937,9.608945 -2.134912,2.875932 -4.927827,5.175815 -8.378743,6.89965 C 41.101461,94.158194 37.383322,95 33.277278,95 28.964352,95 25.309427,94.198417 22.311067,92.596687 18.77826,91.036615 15.923569,88.818615 13.746992,85.944119 11.241415,83.069623 9.4139523,79.8676 8.2646049,76.333738 6.9917027,73.131714 6.3552515,69.415412 6.3552515,65.184833 c 0,-6.488803 1.08757,-12.999153 3.2641467,-19.52818 2.0113578,-6.076518 4.6404898,-12.19757 7.8859608,-18.357408 2.99836,-5.13272 5.687832,-9.465292 8.071291,-12.997717 2.382023,-3.490767 3.98249,-5.7288799 4.80571,-6.7143385 C 31.245806,6.5600708 31.922485,5.8820288 32.415267,5.5544999 33.071832,5.1838754 33.524388,5 33.770061,5 h 8.256624 c 2.178013,0 3.265583,0.8619174 3.265583,2.5871895 0,0.6162705 -0.185331,1.2526533 -0.555996,1.9091475 -2.587469,4.107037 -4.835879,7.793172 -6.746669,11.056966 -1.909354,3.263795 -3.603204,6.088011 -5.08299,8.469777 -1.354792,2.424862 -2.393516,4.312461 -3.111858,5.667108 -0.718342,1.354648 -1.160841,2.156231 -1.324623,2.401878 0,0.123541 0,0.195367 0,0.215479 0,0.02012 0,0.05171 0,0.09194 0,0.123542 0,0.195368 0,0.214043 0,0.02299 0,0.07326 0,0.153708 0,0.328965 0.287337,0.494167 0.862011,0.494167 0.410892,-0.08332 0.955395,-0.195369 1.63351,-0.339021 0.678115,-0.143654 1.508518,-0.317473 2.494084,-0.522898 1.972568,-0.328965 3.963812,-0.494165 5.976607,-0.494165 3.943698,0 7.309849,0.739812 10.102763,2.218001 2.590342,1.274201 4.703704,3.286779 6.347271,6.037733 1.395021,2.50387 2.382023,5.399914 2.958133,8.685257 0.53301,2.7567 0.800234,6.534772 0.800234,11.338525 z m -14.353913,0 c 0,-2.465083 -0.226996,-4.805191 -0.679551,-7.023191 -0.656566,-2.710732 -1.416572,-4.887073 -2.278582,-6.530463 -0.57611,-0.90214 -1.828899,-1.518412 -3.758366,-1.847377 -1.849013,-0.370624 -3.676475,-0.5545 -5.483824,-0.5545 -1.889239,0 -3.77848,0.183876 -5.667719,0.5545 -2.012795,0.328965 -3.265584,0.945237 -3.758366,1.847377 -1.10912,2.381765 -1.849013,4.559544 -2.218241,6.530463 -0.452556,2.218 -0.678115,4.558108 -0.678115,7.023191 0,4.311025 0.964016,7.966992 2.896356,10.965029 2.011358,2.998037 5.153387,4.496337 9.426085,4.496337 4.353154,0 7.433404,-1.4983 9.24219,-4.496337 1.969694,-2.710731 2.958133,-6.365262 2.958133,-10.965029 z"
     id="path3181" /></svg>