<?xml version="1.0" encoding="UTF-8" standalone="no"?>
<!-- Created with Inkscape (http://www.inkscape.org/) -->

<svg
   xmlns:ns="http://ns.adobe.com/SaveForWeb/1.0/"
   xmlns:dc="http://purl.org/dc/elements/1.1/"
   xmlns:cc="http://creativecommons.org/ns#"
   xmlns:rdf="http://www.w3.org/1999/02/22-rdf-syntax-ns#"
   xmlns:svg="http://www.w3.org/2000/svg"
   xmlns="http://www.w3.org/2000/svg"
   xmlns:sodipodi="http://sodipodi.sourceforge.net/DTD/sodipodi-0.dtd"
   xmlns:inkscape="http://www.inkscape.org/namespaces/inkscape"
   version="1.1"
   width="70"
   height="100"
   viewBox="0 0 69.999996 100"
   id="svg2"
   xml:space="preserve"
   inkscape:version="0.48.4 r9939"
   sodipodi:docname="P.svg"><sodipodi:namedview
     pagecolor="#ffffff"
     bordercolor="#666666"
     borderopacity="1"
     objecttolerance="10"
     gridtolerance="10"
     guidetolerance="10"
     inkscape:pageopacity="0"
     inkscape:pageshadow="2"
     inkscape:window-width="944"
     inkscape:window-height="1042"
     id="namedview46"
     showgrid="false"
     inkscape:zoom="6.4571429"
     inkscape:cx="1.3938055"
     inkscape:cy="50"
     inkscape:window-x="960"
     inkscape:window-y="43"
     inkscape:window-maximized="0"
     inkscape:current-layer="svg2"
     width="80px" /><defs
     id="defs3199" /><metadata
     id="metadata3113"><ns:sfw><ns:slices /><ns:sliceSourceBounds
         bottomLeftOrigin="true"
         height="273.306"
         width="646.966"
         y="282.154"
         x="-27.493" /></ns:sfw><rdf:RDF><cc:Work
         rdf:about=""><dc:format>image/svg+xml</dc:format><dc:type
           rdf:resource="http://purl.org/dc/dcmitype/StillImage" /><dc:title /></cc:Work></rdf:RDF></metadata><rect
     width="646.966"
     height="273.306"
     x="-1.6997947e-005"
     y="-173.30603"
     id="rect3195"
     style="fill:none" /><path
     inkscape:connector-curvature="0"
     d="m 63.552456,32.226541 c 0,10.308534 -2.177779,18.131873 -6.529027,23.471453 -4.272238,5.379802 -11.457758,8.068985 -21.560869,8.068985 h -7.207067 c -1.725272,0 -2.58719,0.863354 -2.58719,2.587189 v 26.242519 c 0,0.657929 -0.226971,1.21243 -0.678041,1.6635 C 24.537755,94.752917 23.901373,95 23.079677,95 h -9.239756 c -0.821695,0 -1.437966,-0.247083 -1.848814,-0.739813 -0.492729,-0.656494 -0.739812,-1.210994 -0.739812,-1.6635 V 18.859635 c 0,-1.725272 -0.739813,-2.587189 -2.216565,-2.587189 H 8.8494176 c -1.6017301,0 -2.4018773,-0.801583 -2.4018773,-2.401878 V 7.4033132 c 0,-0.5746113 0.2873061,-1.1492235 0.8633544,-1.7252712 C 7.761965,5.2269719 8.3983475,5 9.2200422,5 H 40.389856 c 3.778072,0 6.981533,0.7383762 9.608945,2.216565 2.874495,1.519848 5.338143,3.572648 7.39238,6.159838 2.011141,2.628848 3.5511,5.543567 4.619878,8.747027 1.027119,3.203461 1.541397,6.572122 1.541397,10.103111 z m -14.414137,1.725271 c 0,-1.887599 -0.226971,-4.127148 -0.678041,-6.714337 -0.49273,-2.011142 -1.294313,-3.838407 -2.401877,-5.481797 -1.109001,-1.765494 -2.525418,-3.079919 -4.250691,-3.941836 -1.807154,-1.025682 -3.983495,-1.53996 -6.529025,-1.53996 h -6.83788 c -0.576048,0 -1.21243,0.225535 -1.910584,0.678042 -0.574612,0.657931 -0.861918,1.292877 -0.861918,1.910584 v 30.86096 c 0,0.49273 0.225535,1.130548 0.678042,1.910584 0.49273,0.452507 1.129112,0.676605 1.909148,0.676605 h 7.023192 c 2.176342,0 4.127149,-0.574611 5.85242,-1.725271 1.683613,-1.067341 3.161802,-2.567078 4.434566,-4.496337 1.109001,-1.765495 2.011141,-3.757961 2.710731,-5.975962 0.574612,-2.095897 0.861917,-4.148697 0.861917,-6.161275 z"
     id="path3147" /></svg>