<?xml version="1.0" encoding="UTF-8" standalone="no"?>
<!-- Created with Inkscape (http://www.inkscape.org/) -->

<svg
   xmlns:ns="http://ns.adobe.com/SaveForWeb/1.0/"
   xmlns:dc="http://purl.org/dc/elements/1.1/"
   xmlns:cc="http://creativecommons.org/ns#"
   xmlns:rdf="http://www.w3.org/1999/02/22-rdf-syntax-ns#"
   xmlns:svg="http://www.w3.org/2000/svg"
   xmlns="http://www.w3.org/2000/svg"
   xmlns:sodipodi="http://sodipodi.sourceforge.net/DTD/sodipodi-0.dtd"
   xmlns:inkscape="http://www.inkscape.org/namespaces/inkscape"
   version="1.1"
   width="66"
   height="100"
   viewBox="0 0 65.999996 100"
   id="svg2"
   xml:space="preserve"
   inkscape:version="0.48.4 r9939"
   sodipodi:docname="3.svg"><sodipodi:namedview
     pagecolor="#ffffff"
     bordercolor="#666666"
     borderopacity="1"
     objecttolerance="10"
     gridtolerance="10"
     guidetolerance="10"
     inkscape:pageopacity="0"
     inkscape:pageshadow="2"
     inkscape:window-width="944"
     inkscape:window-height="1042"
     id="namedview46"
     showgrid="false"
     inkscape:zoom="5.65"
     inkscape:cx="1.5929204"
     inkscape:cy="50"
     inkscape:window-x="960"
     inkscape:window-y="43"
     inkscape:window-maximized="0"
     inkscape:current-layer="svg2"
     width="80px" /><defs
     id="defs3199" /><metadata
     id="metadata3113"><ns:sfw><ns:slices /><ns:sliceSourceBounds
         bottomLeftOrigin="true"
         height="273.306"
         width="646.966"
         y="282.154"
         x="-27.493" /></ns:sfw><rdf:RDF><cc:Work
         rdf:about=""><dc:format>image/svg+xml</dc:format><dc:type
           rdf:resource="http://purl.org/dc/dcmitype/StillImage" /><dc:title /></cc:Work></rdf:RDF></metadata><rect
     width="646.966"
     height="273.306"
     x="-1.6997947e-005"
     y="-173.30603"
     id="rect3195"
     style="fill:none" /><path
     inkscape:connector-curvature="0"
     d="m 59.642164,66.723808 c 0,9.570005 -2.217966,16.654856 -6.652461,21.253112 C 48.637089,92.658494 41.655667,95 32.045439,95 23.502536,95 17.055495,93.007566 12.70288,89.024133 8.4723687,85.000479 6.357832,78.819192 6.357832,70.483145 c 0,-1.601705 0.8015706,-2.401839 2.401838,-2.401839 h 9.608791 c 1.601705,0 2.401839,0.923674 2.401839,2.772458 0,3.818234 0.902126,6.385271 2.710688,7.698237 1.930665,1.397721 4.783566,2.094427 8.563015,2.094427 4.352614,0 7.616357,-1.087435 9.7941,-3.263743 2.299848,-1.970886 3.449052,-5.070867 3.449052,-9.301379 0,-3.655909 -0.06034,-6.037637 -0.183872,-7.146619 -0.4525,-2.054204 -0.903563,-3.428941 -1.354625,-4.127083 -0.616262,-1.067325 -1.643364,-1.868895 -3.079871,-2.403276 -1.1923,-0.449626 -3.141639,-0.67803 -5.852327,-0.67803 h -8.070293 c -0.53438,0 -1.108983,-0.285865 -1.725244,-0.861904 -0.452499,-0.494158 -0.678031,-1.067324 -0.678031,-1.725244 v -5.852328 c 0,-0.655047 0.06177,-1.210975 0.183872,-1.662038 0.32896,-0.656483 0.739801,-1.292855 1.232523,-1.909117 L 44.423815,22.002489 c 0.574603,-0.573165 0.861904,-1.601704 0.861904,-3.079869 0,-0.698142 -0.225531,-1.272745 -0.678031,-1.725244 -0.534381,-0.451063 -1.107547,-0.678031 -1.725244,-0.678031 H 12.329388 c -1.561482,0 -2.341505,-0.86334 -2.341505,-2.587148 V 7.5871481 c 0,-0.8202447 0.225532,-1.4365062 0.678031,-1.8473472 C 11.076755,5.2456424 11.62981,5 12.329388,5 h 44.968398 c 1.560045,0 2.340069,0.8619039 2.340069,2.5871481 V 22.186362 c 0,0.656484 -0.04166,1.169317 -0.12354,1.539935 0,0.369183 -0.225531,0.821682 -0.67803,1.354626 L 42.327953,43.251292 c -0.206857,0.617698 -0.307413,0.905 -0.307413,0.863341 0,0.65792 0.389293,1.047214 1.169317,1.169317 3.449052,0.494157 6.550469,1.254069 9.302814,2.279735 2.052768,0.945221 3.654473,2.258188 4.805115,3.941774 0.985443,1.561482 1.663474,3.430377 2.032656,5.605247 0.208293,2.674775 0.311722,5.878185 0.311722,9.613102 z"
     id="path3175" /></svg>