<?xml version="1.0" encoding="UTF-8" standalone="no"?>
<!-- Created with Inkscape (http://www.inkscape.org/) -->

<svg
   xmlns:ns="http://ns.adobe.com/SaveForWeb/1.0/"
   xmlns:dc="http://purl.org/dc/elements/1.1/"
   xmlns:cc="http://creativecommons.org/ns#"
   xmlns:rdf="http://www.w3.org/1999/02/22-rdf-syntax-ns#"
   xmlns:svg="http://www.w3.org/2000/svg"
   xmlns="http://www.w3.org/2000/svg"
   xmlns:sodipodi="http://sodipodi.sourceforge.net/DTD/sodipodi-0.dtd"
   xmlns:inkscape="http://www.inkscape.org/namespaces/inkscape"
   version="1.1"
   width="70"
   height="100"
   viewBox="0 0 69.999996 100"
   id="svg2"
   xml:space="preserve"
   inkscape:version="0.48.4 r9939"
   sodipodi:docname="OE.svg"><sodipodi:namedview
     pagecolor="#ffffff"
     bordercolor="#666666"
     borderopacity="1"
     objecttolerance="10"
     gridtolerance="10"
     guidetolerance="10"
     inkscape:pageopacity="0"
     inkscape:pageshadow="2"
     inkscape:window-width="944"
     inkscape:window-height="1042"
     id="namedview46"
     showgrid="false"
     inkscape:zoom="5.65"
     inkscape:cx="1.5929204"
     inkscape:cy="50"
     inkscape:window-x="960"
     inkscape:window-y="43"
     inkscape:window-maximized="0"
     inkscape:current-layer="svg2"
     width="80px" /><defs
     id="defs3199" /><metadata
     id="metadata3113"><ns:sfw><ns:slices /><ns:sliceSourceBounds
         bottomLeftOrigin="true"
         height="273.306"
         width="646.966"
         y="282.154"
         x="-27.493" /></ns:sfw><rdf:RDF><cc:Work
         rdf:about=""><dc:format>image/svg+xml</dc:format><dc:type
           rdf:resource="http://purl.org/dc/dcmitype/StillImage" /><dc:title /></cc:Work></rdf:RDF></metadata><rect
     width="646.966"
     height="273.306"
     x="-1.6997947e-005"
     y="-173.30603"
     id="rect3195"
     style="fill:none" /><path
     inkscape:connector-curvature="0"
     d="m 28.63908,12.124172 c 0,2.070368 -0.793784,3.775796 -2.377091,5.116282 -1.664247,1.339066 -3.633796,2.00931 -5.904386,2.00931 H 15.1192 c -2.272011,0 -4.260019,-0.670244 -5.965447,-2.00931 C 7.570446,15.860208 6.7795026,14.15478 6.7795026,12.124172 6.7795026,10.175923 7.570446,8.4917957 9.153753,7.070369 10.898941,5.6901227 12.886949,5 15.1192,5 h 5.238403 c 2.22941,0 4.201798,0.6901227 5.904386,2.070369 1.583307,1.3404861 2.377091,3.026034 2.377091,5.053803 z m 34.584253,49.810981 c 0,4.668981 -0.282581,8.91054 -0.852003,12.727516 -0.732723,3.937678 -1.969549,7.327233 -3.713317,10.168666 -1.827548,3.125433 -4.711581,5.601925 -8.647838,7.428053 C 46.235798,94.085515 41.160695,95 34.786287,95 28.454479,95 23.420557,94.085515 19.68452,92.259388 15.788023,90.47302 12.965051,87.996529 11.219862,84.831335 9.3951546,81.907542 8.1966687,78.580467 7.6286661,74.844431 7.0606635,70.543232 6.7766631,66.239192 6.7766631,61.935153 c 0,-4.343799 0.6262227,-9.03124 1.8857682,-14.065162 0.6901227,-3.003314 1.7054267,-5.927107 3.0459137,-8.768539 1.378826,-3.045914 3.125433,-5.704166 5.236982,-7.977596 2.03061,-2.514831 4.586621,-4.54544 7.673715,-6.088987 3.285894,-1.461187 6.67545,-2.191069 10.167245,-2.191069 3.530135,0 6.960871,0.729882 10.292206,2.191069 3.084253,1.461186 5.743925,3.491796 7.976175,6.088987 2.19107,2.558851 3.934837,5.217103 5.236983,7.977596 1.256706,2.598611 2.272011,5.520984 3.045914,8.768539 1.256706,4.788261 1.885768,9.478541 1.885768,14.065162 z M 46.965681,76.549858 C 48.79323,72.49148 49.503232,67.346797 49.09853,61.11439 48.690989,54.881982 47.858865,49.676239 46.599319,45.49432 c -0.974124,-2.962133 -2.43531,-5.438624 -4.382139,-7.428053 -1.911328,-2.029189 -4.384979,-3.044494 -7.429473,-3.044494 -3.003314,0 -5.441464,1.015305 -7.307352,3.044494 -1.824709,1.909908 -3.247555,4.345219 -4.26002,7.307352 -1.339066,4.3438 -2.174029,9.620543 -2.499211,15.830231 -0.325181,6.211108 0.465763,11.428211 2.377091,15.649889 1.094825,2.15273 2.496371,3.673556 4.201799,4.566741 1.905648,1.137425 4.404859,1.704007 7.487693,1.704007 3.410855,0 6.006627,-0.566582 7.792995,-1.704007 1.748027,-1.015305 3.206374,-2.638372 4.384979,-4.870622 z M 63.223333,12.124172 c 0,2.070368 -0.852003,3.775796 -2.557431,5.116282 -1.542127,1.339066 -3.450615,2.00931 -5.724045,2.00931 h -5.296624 c -2.31319,0 -4.221679,-0.670244 -5.724045,-2.00931 -1.702588,-1.339065 -2.557431,-3.045914 -2.557431,-5.116282 0,-2.029189 0.854843,-3.7133169 2.557431,-5.053803 C 45.463314,5.6901227 47.371803,5 49.645233,5 h 5.296624 c 2.232249,0 4.140738,0.6901227 5.724045,2.070369 1.706847,1.3404861 2.557431,3.026034 2.557431,5.053803 z"
     id="path3191" /></svg>