<?xml version="1.0" encoding="UTF-8" standalone="no"?>
<!-- Created with Inkscape (http://www.inkscape.org/) -->

<svg
   xmlns:ns="http://ns.adobe.com/SaveForWeb/1.0/"
   xmlns:dc="http://purl.org/dc/elements/1.1/"
   xmlns:cc="http://creativecommons.org/ns#"
   xmlns:rdf="http://www.w3.org/1999/02/22-rdf-syntax-ns#"
   xmlns:svg="http://www.w3.org/2000/svg"
   xmlns="http://www.w3.org/2000/svg"
   xmlns:sodipodi="http://sodipodi.sourceforge.net/DTD/sodipodi-0.dtd"
   xmlns:inkscape="http://www.inkscape.org/namespaces/inkscape"
   version="1.1"
   width="70"
   height="100"
   viewBox="0 0 69.999996 100"
   id="svg2"
   xml:space="preserve"
   inkscape:version="0.48.4 r9939"
   sodipodi:docname="UE.svg"><sodipodi:namedview
     pagecolor="#ffffff"
     bordercolor="#666666"
     borderopacity="1"
     objecttolerance="10"
     gridtolerance="10"
     guidetolerance="10"
     inkscape:pageopacity="0"
     inkscape:pageshadow="2"
     inkscape:window-width="944"
     inkscape:window-height="1042"
     id="namedview46"
     showgrid="false"
     inkscape:zoom="5.65"
     inkscape:cx="1.5929204"
     inkscape:cy="50"
     inkscape:window-x="960"
     inkscape:window-y="43"
     inkscape:window-maximized="0"
     inkscape:current-layer="svg2"
     width="80px" /><defs
     id="defs3199" /><metadata
     id="metadata3113"><ns:sfw><ns:slices /><ns:sliceSourceBounds
         bottomLeftOrigin="true"
         height="273.306"
         width="646.966"
         y="282.154"
         x="-27.493" /></ns:sfw><rdf:RDF><cc:Work
         rdf:about=""><dc:format>image/svg+xml</dc:format><dc:type
           rdf:resource="http://purl.org/dc/dcmitype/StillImage" /><dc:title /></cc:Work></rdf:RDF></metadata><rect
     width="646.966"
     height="273.306"
     x="-1.6997947e-005"
     y="-173.30603"
     id="rect3195"
     style="fill:none" /><path
     inkscape:connector-curvature="0"
     d="m 29.126435,12.124171 c 0,2.070369 -0.886742,3.775797 -2.655808,5.116283 -1.599671,1.339065 -3.661862,2.009309 -6.188046,2.009309 h -5.245332 c -2.399507,0 -4.442549,-0.670244 -6.1247077,-2.009309 -1.6423884,-1.216945 -2.4628464,-2.923793 -2.4628464,-5.116283 0,-2.11013 0.820458,-3.7956767 2.4628464,-5.053802 C 10.63889,5.6901227 12.681932,5 15.037249,5 h 5.245332 c 2.483467,0 4.548604,0.6901227 6.188046,2.070369 1.770539,1.3404852 2.655808,3.026033 2.655808,5.053802 z m 34.423866,79.648155 c 0,0.690123 -0.229787,1.258125 -0.69378,1.704007 -0.50671,0.325182 -1.095908,0.488483 -1.769066,0.488483 h -8.463823 c -0.883796,0 -1.452371,-0.161882 -1.705726,-0.488483 -0.589198,-0.364942 -0.883797,-0.871884 -0.883797,-1.522246 v -3.896498 c 0,-0.445882 -0.296071,-0.670243 -0.886742,-0.670243 -0.337315,0 -0.69378,0.161881 -1.073812,0.487062 -2.948934,2.15273 -6.230764,3.858157 -9.852856,5.116283 C 34.851962,94.329757 31.335926,95 27.674063,95 23.755899,95 20.472597,94.431997 17.821207,93.294572 15.209589,92.361628 12.997153,90.839382 11.186843,88.727833 9.5444556,86.820764 8.3012487,84.628274 7.4616423,82.151783 6.7884837,79.878353 6.4511682,77.279742 6.4511682,74.357369 V 25.034868 c 0,-0.609183 0.2297871,-1.114704 0.6937803,-1.520827 0.3800322,-0.445881 0.9692298,-0.670242 1.7690652,-0.670242 h 9.7895173 c 0.757118,0 1.282977,0.22294 1.57905,0.670242 0.589197,0.325182 0.883795,0.771064 0.883795,1.339066 v 47.922374 c 0,2.760493 1.11653,4.972863 3.348115,6.637109 2.146153,1.704008 4.968409,2.557432 8.463823,2.557432 4.632565,0 8.440254,-1.297886 11.433378,-3.896498 2.906217,-2.679551 4.358589,-5.907225 4.358589,-9.681602 V 24.671347 c 0,-0.445882 0.293125,-0.893185 0.883796,-1.339066 0.419803,-0.325182 1.073813,-0.487062 1.959082,-0.487062 h 9.474296 c 1.642388,0 2.462846,0.609182 2.462846,1.826128 v 67.100978 z m 0,-79.648155 c 0,2.192489 -0.820458,3.897918 -2.462846,5.116283 -1.769066,1.339065 -3.812108,2.009309 -6.127654,2.009309 h -5.305724 c -2.315546,0 -4.358588,-0.670244 -6.127655,-2.009309 -1.766119,-1.339066 -2.652861,-3.045914 -2.652861,-5.116283 0,-2.029189 0.886742,-3.7133168 2.652861,-5.053802 C 45.338205,5.6901227 47.381248,5 49.654077,5 h 5.305724 c 2.233058,0 4.274627,0.6901227 6.127654,2.070369 1.642388,1.2595455 2.462846,2.943672 2.462846,5.053802 z"
     id="path3193" /></svg>