<?xml version="1.0" encoding="UTF-8" standalone="no"?>
<!-- Created with Inkscape (http://www.inkscape.org/) -->

<svg
   xmlns:ns="http://ns.adobe.com/SaveForWeb/1.0/"
   xmlns:dc="http://purl.org/dc/elements/1.1/"
   xmlns:cc="http://creativecommons.org/ns#"
   xmlns:rdf="http://www.w3.org/1999/02/22-rdf-syntax-ns#"
   xmlns:svg="http://www.w3.org/2000/svg"
   xmlns="http://www.w3.org/2000/svg"
   xmlns:sodipodi="http://sodipodi.sourceforge.net/DTD/sodipodi-0.dtd"
   xmlns:inkscape="http://www.inkscape.org/namespaces/inkscape"
   version="1.1"
   width="70"
   height="100"
   viewBox="0 0 69.999996 100"
   id="svg2"
   xml:space="preserve"
   inkscape:version="0.48.4 r9939"
   sodipodi:docname="B.svg"><sodipodi:namedview
     pagecolor="#ffffff"
     bordercolor="#666666"
     borderopacity="1"
     objecttolerance="10"
     gridtolerance="10"
     guidetolerance="10"
     inkscape:pageopacity="0"
     inkscape:pageshadow="2"
     inkscape:window-width="944"
     inkscape:window-height="1042"
     id="namedview46"
     showgrid="false"
     inkscape:zoom="6.4571429"
     inkscape:cx="1.3938055"
     inkscape:cy="50"
     inkscape:window-x="960"
     inkscape:window-y="43"
     inkscape:window-maximized="0"
     inkscape:current-layer="svg2"
     width="80px" /><defs
     id="defs3199" /><metadata
     id="metadata3113"><ns:sfw><ns:slices /><ns:sliceSourceBounds
         bottomLeftOrigin="true"
         height="273.306"
         width="646.966"
         y="282.154"
         x="-27.493" /></ns:sfw><rdf:RDF><cc:Work
         rdf:about=""><dc:format>image/svg+xml</dc:format><dc:type
           rdf:resource="http://purl.org/dc/dcmitype/StillImage" /><dc:title /></cc:Work></rdf:RDF></metadata><rect
     width="646.966"
     height="273.306"
     x="-1.6997947e-005"
     y="-173.30603"
     id="rect3195"
     style="fill:none" /><path
     inkscape:connector-curvature="0"
     d="m 63.552455,67.526376 c 0,8.583263 -2.463648,15.337824 -7.39238,20.266556 C 51.23278,92.598123 44.333129,95 35.46256,95 H 9.0361671 C 8.3782365,95 7.8036252,94.754353 7.310895,94.261624 6.7348473,93.687012 6.4475412,93.070741 6.4475412,92.41281 V 7.4033132 c 0,-0.5746113 0.2873061,-1.1492235 0.8633538,-1.7252712 C 7.7619651,5.2269719 8.3365773,5 9.0361671,5 H 35.46256 c 7.268838,0 13.037941,1.7051607 17.310179,5.112607 4.352683,3.57265 6.529026,8.890681 6.529026,15.954095 0,4.107038 -0.759924,7.638027 -2.278336,10.594404 -0.863354,1.478189 -1.889036,2.916155 -3.079919,4.312461 -1.192319,1.396307 -2.381765,2.772502 -3.572648,4.127149 l -0.183876,0.183876 c -0.369188,0.452507 -0.369188,0.780036 0,0.985459 l 0.183876,0.185313 c 0.49273,0.369188 1.200939,0.871973 2.124627,1.508355 0.923689,0.637819 1.87898,1.32448 2.86444,2.064293 2.258224,2.259661 3.961947,4.374232 5.112607,6.345151 1.149224,2.30132 1.825829,3.79962 2.03269,4.496336 0.698153,1.935005 1.047229,4.153007 1.047229,6.656877 z M 44.887629,28.28614 c 0,-3.612871 -1.254089,-6.529026 -3.757961,-8.747026 -2.546966,-2.176342 -5.646996,-3.265232 -9.301526,-3.265232 h -8.377839 c -1.725273,0 -2.58719,0.861918 -2.58719,2.58719 v 20.081243 c 0,0.534389 0.225536,1.15066 0.678042,1.848813 0.45107,0.452506 1.025681,0.678042 1.725272,0.678042 h 9.116214 c 8.33618,0 12.504988,-4.392907 12.504988,-13.18303 z m 4.25069,38.747507 c 0,-4.434567 -1.192319,-8.089097 -3.572648,-10.965029 -2.423425,-2.873058 -5.728879,-4.312461 -9.917798,-4.312461 h -12.19757 c -0.821695,0 -1.458078,0.288743 -1.909148,0.863354 -0.452506,0.821695 -0.678042,1.458078 -0.678042,1.909148 v 23.655329 c 0,0.369188 0.225536,0.945236 0.678042,1.725271 0.778599,0.452507 1.354647,0.678042 1.725272,0.678042 h 12.688862 c 3.943274,0 7.145298,-1.314424 9.608946,-3.943273 2.381765,-2.381766 3.574084,-5.585226 3.574084,-9.610381 z"
     id="path3119" /></svg>