<?xml version="1.0" encoding="UTF-8" standalone="no"?>
<!-- Created with Inkscape (http://www.inkscape.org/) -->

<svg
   xmlns:ns="http://ns.adobe.com/SaveForWeb/1.0/"
   xmlns:dc="http://purl.org/dc/elements/1.1/"
   xmlns:cc="http://creativecommons.org/ns#"
   xmlns:rdf="http://www.w3.org/1999/02/22-rdf-syntax-ns#"
   xmlns:svg="http://www.w3.org/2000/svg"
   xmlns="http://www.w3.org/2000/svg"
   xmlns:sodipodi="http://sodipodi.sourceforge.net/DTD/sodipodi-0.dtd"
   xmlns:inkscape="http://www.inkscape.org/namespaces/inkscape"
   version="1.1"
   width="70"
   height="100"
   viewBox="0 0 69.999996 100"
   id="svg2"
   xml:space="preserve"
   inkscape:version="0.48.4 r9939"
   sodipodi:docname="M.svg"><sodipodi:namedview
     pagecolor="#ffffff"
     bordercolor="#666666"
     borderopacity="1"
     objecttolerance="10"
     gridtolerance="10"
     guidetolerance="10"
     inkscape:pageopacity="0"
     inkscape:pageshadow="2"
     inkscape:window-width="944"
     inkscape:window-height="1042"
     id="namedview46"
     showgrid="false"
     inkscape:zoom="6.4571429"
     inkscape:cx="1.3938055"
     inkscape:cy="50"
     inkscape:window-x="960"
     inkscape:window-y="43"
     inkscape:window-maximized="0"
     inkscape:current-layer="svg2"
     width="80px" /><defs
     id="defs3199" /><metadata
     id="metadata3113"><ns:sfw><ns:slices /><ns:sliceSourceBounds
         bottomLeftOrigin="true"
         height="273.306"
         width="646.966"
         y="282.154"
         x="-27.493" /></ns:sfw><rdf:RDF><cc:Work
         rdf:about=""><dc:format>image/svg+xml</dc:format><dc:type
           rdf:resource="http://purl.org/dc/dcmitype/StillImage" /><dc:title /></cc:Work></rdf:RDF></metadata><rect
     width="646.966"
     height="273.306"
     x="-1.6997947e-005"
     y="-173.30603"
     id="rect3195"
     style="fill:none" /><path
     inkscape:connector-curvature="0"
     d="m 63.552193,92.598084 c 0,0.534398 -0.224103,1.088907 -0.676616,1.663528 C 62.424499,94.754349 61.848442,95 61.150277,95 h -8.563288 c -0.780048,0 -1.416441,-0.24565 -1.907741,-0.738388 -0.577494,-0.574621 -0.864804,-1.12913 -0.864804,-1.663528 V 36.602713 c 0,-0.28731 -0.2672,-0.512848 -0.800161,-0.678052 -0.494174,0 -0.903591,0.226975 -1.231124,0.678052 l -9.917958,20.883161 c -0.37063,1.150678 -1.354668,1.725299 -2.957861,1.725299 -1.354668,0 -2.25826,-0.574621 -2.710774,-1.725299 L 22.216837,36.602713 c -0.285873,-0.451077 -0.676615,-0.678052 -1.169353,-0.678052 -0.574621,0 -0.861931,0.226975 -0.861931,0.678052 v 55.995371 c 0,0.616281 -0.288747,1.170791 -0.864805,1.663528 C 18.869671,94.754349 18.251953,95 17.474779,95 H 9.0350338 C 8.213326,95 7.5956085,94.754349 7.1861911,94.261612 6.6920171,93.605108 6.4478032,93.050598 6.4478032,92.598084 V 7.7107739 c 0,-0.5746203 0.2442139,-1.1909016 0.7383879,-1.8488421 C 7.5568215,5.2873106 8.1098942,5 8.8497186,5 h 7.7602554 c 1.436552,0 2.525459,0.6780528 3.265284,2.032722 l 13.675977,32.217557 c 0.16233,0.574622 0.617717,0.861932 1.354669,0.861932 0.861931,0 1.374781,-0.28731 1.539984,-0.861932 L 50.182201,7.032722 C 50.838705,5.6780528 51.927612,5 53.447484,5 h 7.698483 c 0.738388,0 1.313009,0.2873106 1.725299,0.8619318 0.451079,0.6162804 0.676617,1.2325617 0.676617,1.8488421 V 92.598084 z"
     id="path3141" /></svg>