<?xml version="1.0" encoding="UTF-8" standalone="no"?>
<!-- Created with Inkscape (http://www.inkscape.org/) -->

<svg
   xmlns:ns="http://ns.adobe.com/SaveForWeb/1.0/"
   xmlns:dc="http://purl.org/dc/elements/1.1/"
   xmlns:cc="http://creativecommons.org/ns#"
   xmlns:rdf="http://www.w3.org/1999/02/22-rdf-syntax-ns#"
   xmlns:svg="http://www.w3.org/2000/svg"
   xmlns="http://www.w3.org/2000/svg"
   xmlns:sodipodi="http://sodipodi.sourceforge.net/DTD/sodipodi-0.dtd"
   xmlns:inkscape="http://www.inkscape.org/namespaces/inkscape"
   version="1.1"
   width="66"
   height="100"
   viewBox="0 0 65.999996 100"
   id="svg2"
   xml:space="preserve"
   inkscape:version="0.48.4 r9939"
   sodipodi:docname="4.svg"><sodipodi:namedview
     pagecolor="#ffffff"
     bordercolor="#666666"
     borderopacity="1"
     objecttolerance="10"
     gridtolerance="10"
     guidetolerance="10"
     inkscape:pageopacity="0"
     inkscape:pageshadow="2"
     inkscape:window-width="944"
     inkscape:window-height="1042"
     id="namedview46"
     showgrid="false"
     inkscape:zoom="5.65"
     inkscape:cx="1.5929204"
     inkscape:cy="50"
     inkscape:window-x="960"
     inkscape:window-y="43"
     inkscape:window-maximized="0"
     inkscape:current-layer="svg2"
     width="80px" /><defs
     id="defs3199" /><metadata
     id="metadata3113"><ns:sfw><ns:slices /><ns:sliceSourceBounds
         bottomLeftOrigin="true"
         height="273.306"
         width="646.966"
         y="282.154"
         x="-27.493" /></ns:sfw><rdf:RDF><cc:Work
         rdf:about=""><dc:format>image/svg+xml</dc:format><dc:type
           rdf:resource="http://purl.org/dc/dcmitype/StillImage" /><dc:title /></cc:Work></rdf:RDF></metadata><rect
     width="646.966"
     height="273.306"
     x="-1.6997947e-005"
     y="-173.30603"
     id="rect3195"
     style="fill:none" /><path
     inkscape:connector-curvature="0"
     d="m 59.643308,76.332301 c 0,1.725272 -0.780035,2.588626 -2.341543,2.588626 h -1.60173 c -1.683612,0 -2.525419,0.841807 -2.525419,2.525419 V 92.596687 C 53.174616,94.198417 52.312698,95 50.587427,95 H 41.162358 C 40.382323,95 39.807711,94.774465 39.437086,94.320522 38.98458,93.870888 38.759044,93.29484 38.759044,92.596687 V 81.446346 c 0,-0.49273 -0.225535,-1.107565 -0.678042,-1.847377 -0.452506,-0.45107 -1.027118,-0.678042 -1.725271,-0.678042 H 8.7585651 c -0.5343889,0 -1.1090007,-0.287305 -1.7252717,-0.863354 C 6.5807866,77.564844 6.3552515,76.990231 6.3552515,76.332301 V 65.367272 c 0,-1.272764 0.1221051,-2.423424 0.3691881,-3.449107 0.081882,-1.436528 0.5329524,-2.852947 1.3546471,-4.25069 L 38.263442,7.5871895 C 38.714512,6.6002936 39.330783,5.9236889 40.112255,5.5545008 40.768749,5.1838754 41.283027,5 41.652215,5 h 7.761567 c 2.134683,0 3.203461,0.8619174 3.203461,2.5871895 0,0.6981534 -0.165201,1.3359726 -0.49273,1.9091475 L 21.078241,61.425436 c -0.20686,0.821695 -0.307418,1.335973 -0.307418,1.53996 0,1.354647 0.801584,2.032688 2.401878,2.032688 h 13.18303 c 0.739812,0 1.314424,-0.225534 1.725271,-0.678041 0.45107,-0.698153 0.678042,-1.272765 0.678042,-1.725272 V 49.597054 c 0,-0.739813 0.225536,-1.374759 0.678042,-1.909148 0.698153,-0.451071 1.272765,-0.678042 1.725272,-0.678042 h 9.425069 c 1.725271,0 2.587189,0.863354 2.587189,2.58719 v 12.997717 c 0,0.698153 0.225535,1.274202 0.678042,1.725272 0.369188,0.45107 0.986896,0.678041 1.848813,0.678041 h 1.60173 c 0.369188,0 0.925125,0.225536 1.663502,0.678042 0.45107,0.45107 0.678042,1.027119 0.678042,1.723836 v 8.932339 z"
     id="path3177" /></svg>