<?xml version="1.0" encoding="UTF-8" standalone="no"?>
<!-- Created with Inkscape (http://www.inkscape.org/) -->

<svg
   xmlns:ns="http://ns.adobe.com/SaveForWeb/1.0/"
   xmlns:dc="http://purl.org/dc/elements/1.1/"
   xmlns:cc="http://creativecommons.org/ns#"
   xmlns:rdf="http://www.w3.org/1999/02/22-rdf-syntax-ns#"
   xmlns:svg="http://www.w3.org/2000/svg"
   xmlns="http://www.w3.org/2000/svg"
   xmlns:sodipodi="http://sodipodi.sourceforge.net/DTD/sodipodi-0.dtd"
   xmlns:inkscape="http://www.inkscape.org/namespaces/inkscape"
   version="1.1"
   width="70"
   height="100"
   viewBox="0 0 69.999996 100"
   id="svg2"
   xml:space="preserve"
   inkscape:version="0.48.4 r9939"
   sodipodi:docname="U.svg"><sodipodi:namedview
     pagecolor="#ffffff"
     bordercolor="#666666"
     borderopacity="1"
     objecttolerance="10"
     gridtolerance="10"
     guidetolerance="10"
     inkscape:pageopacity="0"
     inkscape:pageshadow="2"
     inkscape:window-width="944"
     inkscape:window-height="1042"
     id="namedview46"
     showgrid="false"
     inkscape:zoom="6.4571429"
     inkscape:cx="1.3938055"
     inkscape:cy="50"
     inkscape:window-x="960"
     inkscape:window-y="43"
     inkscape:window-maximized="0"
     inkscape:current-layer="svg2"
     width="80px" /><defs
     id="defs3199" /><metadata
     id="metadata3113"><ns:sfw><ns:slices /><ns:sliceSourceBounds
         bottomLeftOrigin="true"
         height="273.306"
         width="646.966"
         y="282.154"
         x="-27.493" /></ns:sfw><rdf:RDF><cc:Work
         rdf:about=""><dc:format>image/svg+xml</dc:format><dc:type
           rdf:resource="http://purl.org/dc/dcmitype/StillImage" /><dc:title /></cc:Work></rdf:RDF></metadata><rect
     width="646.966"
     height="273.306"
     x="-1.6997947e-005"
     y="-173.30603"
     id="rect3195"
     style="fill:none" /><path
     inkscape:connector-curvature="0"
     d="m 62.485698,91.108721 c 0,0.770031 -0.22406,1.398251 -0.670763,1.884661 -0.648073,0.567242 -1.215315,0.852281 -1.700307,0.852281 h -8.151264 c -0.770031,0 -1.316001,-0.283621 -1.63933,-0.852281 -0.567241,-0.567242 -0.853698,-1.134484 -0.853698,-1.703143 v -5.108012 c 0,-0.445285 -0.221225,-0.669346 -0.667927,-0.669346 -0.446704,0 -0.853699,0.182935 -1.215316,0.547388 -2.961002,2.756795 -6.062397,4.946348 -9.305601,6.567242 C 34.713541,94.208697 31.268965,95 27.944929,95 24.335852,95 21.17348,94.330655 18.459227,92.993382 16.065468,91.778067 13.93831,89.852281 12.074922,87.216024 10.493735,84.783975 9.2968548,82.068305 8.485699,79.067596 7.8376252,76.149137 7.5128793,72.887497 7.5128793,69.278421 V 7.6759628 c 0,-0.8111556 0.2212243,-1.4181048 0.6707634,-1.8251001 C 8.5466774,5.2836206 9.113919,5 9.88395,5 h 9.424723 c 0.731741,0 1.238004,0.222642 1.520208,0.6693453 0.567241,0.527535 0.853698,1.0933587 0.853698,1.7031429 V 68.792012 c 0,3.447411 1.072087,6.141809 3.220515,8.088867 2.027889,2.149847 4.744977,3.221933 8.148428,3.221933 4.66131,0 8.331364,-1.642164 11.007327,-4.926495 2.79792,-3.080123 4.196172,-7.012526 4.196172,-11.79721 V 7.3724882 c 0,-0.5672412 0.282202,-1.1344833 0.853698,-1.7031429 C 49.471754,5.2240604 50.099974,5 50.991962,5 h 9.124084 c 0.686362,0 1.255022,0.222642 1.700307,0.6693453 0.445285,0.4467024 0.670764,1.0139445 0.670764,1.7031429 V 91.108721 z"
     id="path3157" /></svg>