<?xml version="1.0" encoding="UTF-8" standalone="no"?>
<!-- Created with Inkscape (http://www.inkscape.org/) -->

<svg
   xmlns:ns="http://ns.adobe.com/SaveForWeb/1.0/"
   xmlns:dc="http://purl.org/dc/elements/1.1/"
   xmlns:cc="http://creativecommons.org/ns#"
   xmlns:rdf="http://www.w3.org/1999/02/22-rdf-syntax-ns#"
   xmlns:svg="http://www.w3.org/2000/svg"
   xmlns="http://www.w3.org/2000/svg"
   xmlns:sodipodi="http://sodipodi.sourceforge.net/DTD/sodipodi-0.dtd"
   xmlns:inkscape="http://www.inkscape.org/namespaces/inkscape"
   version="1.1"
   width="70"
   height="100"
   viewBox="0 0 69.999996 100"
   id="svg2"
   xml:space="preserve"
   inkscape:version="0.48.4 r9939"
   sodipodi:docname="W.svg"><sodipodi:namedview
     pagecolor="#ffffff"
     bordercolor="#666666"
     borderopacity="1"
     objecttolerance="10"
     gridtolerance="10"
     guidetolerance="10"
     inkscape:pageopacity="0"
     inkscape:pageshadow="2"
     inkscape:window-width="944"
     inkscape:window-height="1042"
     id="namedview46"
     showgrid="false"
     inkscape:zoom="6.4571429"
     inkscape:cx="1.3938055"
     inkscape:cy="50"
     inkscape:window-x="960"
     inkscape:window-y="43"
     inkscape:window-maximized="0"
     inkscape:current-layer="svg2"
     width="80px" /><defs
     id="defs3199" /><metadata
     id="metadata3113"><ns:sfw><ns:slices /><ns:sliceSourceBounds
         bottomLeftOrigin="true"
         height="273.306"
         width="646.966"
         y="282.154"
         x="-27.493" /></ns:sfw><rdf:RDF><cc:Work
         rdf:about=""><dc:format>image/svg+xml</dc:format><dc:type
           rdf:resource="http://purl.org/dc/dcmitype/StillImage" /><dc:title /></cc:Work></rdf:RDF></metadata><rect
     width="646.966"
     height="273.306"
     x="-1.6997947e-005"
     y="-173.30603"
     id="rect3195"
     style="fill:none" /><path
     inkscape:connector-curvature="0"
     d="M 62.84281,8.9418371 53.233865,92.905541 C 53.028442,94.301847 52.288629,95 51.017301,95 h -5.481797 c -1.231105,0 -2.034125,-0.698153 -2.401877,-2.094459 L 37.956376,73.562672 c -0.491293,-1.396306 -1.456641,-2.094459 -2.896044,-2.094459 -1.598857,0 -2.628849,0.698153 -3.078482,2.094459 l -5.667109,19.342869 c -0.288742,0.780035 -0.515713,1.231105 -0.679478,1.354646 C 25.349394,94.752917 24.835116,95 24.095304,95 h -6.529026 c -1.439402,0 -2.239549,-0.698153 -2.401877,-2.094459 L 7.1571857,8.9418371 c 0,-1.1908836 0.100557,-2.1763422 0.3059807,-2.9563776 C 7.7921317,5.3289653 8.4285142,5 9.3737504,5 h 9.7324866 c 1.518412,0 2.278336,0.8001468 2.278336,2.4018777 L 24.465928,60.68706 c 0,0.452506 0.224099,0.739813 0.679479,0.863355 0.328965,0.206859 0.777162,0.308853 1.354647,0.308853 0.448197,0 0.861918,-0.101994 1.231106,-0.308853 0.45107,-0.247084 0.676605,-0.532953 0.676605,-0.863355 l 3.265231,-17.986784 c 0,-0.739812 0.224099,-1.190883 0.676605,-1.354647 0.494166,-0.369188 1.169335,-0.5545 2.034126,-0.5545 h 2.587189 c 1.065905,0 1.683613,0.637818 1.848813,1.910584 l 2.401878,17.986783 c 0.205423,0.452508 0.494166,0.739813 0.861917,0.863355 0.247084,0.20686 0.656495,0.308854 1.231106,0.308854 0.574612,0 1.027119,-0.101994 1.354648,-0.308854 0.45107,-0.205424 0.679478,-0.49273 0.679478,-0.863355 l 6.714337,-53.65437 c 0,-0.6162714 0.2241,-1.1291121 0.679479,-1.5399594 0.24421,-0.3289653 0.69528,-0.4927302 1.354647,-0.4927302 h 6.343714 c 0.698153,0 1.333099,0.3289653 1.910584,0.9854595 0.328966,0.942363 0.491293,1.9278225 0.491293,2.9549412 z"
     id="path3161" /></svg>