<?xml version="1.0" encoding="UTF-8" standalone="no"?>
<!-- Created with Inkscape (http://www.inkscape.org/) -->

<svg
   xmlns:ns="http://ns.adobe.com/SaveForWeb/1.0/"
   xmlns:dc="http://purl.org/dc/elements/1.1/"
   xmlns:cc="http://creativecommons.org/ns#"
   xmlns:rdf="http://www.w3.org/1999/02/22-rdf-syntax-ns#"
   xmlns:svg="http://www.w3.org/2000/svg"
   xmlns="http://www.w3.org/2000/svg"
   xmlns:sodipodi="http://sodipodi.sourceforge.net/DTD/sodipodi-0.dtd"
   xmlns:inkscape="http://www.inkscape.org/namespaces/inkscape"
   version="1.1"
   width="70"
   height="100"
   viewBox="0 0 69.999996 100"
   id="svg2"
   xml:space="preserve"
   inkscape:version="0.48.4 r9939"
   sodipodi:docname="H.svg"><sodipodi:namedview
     pagecolor="#ffffff"
     bordercolor="#666666"
     borderopacity="1"
     objecttolerance="10"
     gridtolerance="10"
     guidetolerance="10"
     inkscape:pageopacity="0"
     inkscape:pageshadow="2"
     inkscape:window-width="944"
     inkscape:window-height="1042"
     id="namedview46"
     showgrid="false"
     inkscape:zoom="6.4571429"
     inkscape:cx="1.3938055"
     inkscape:cy="50"
     inkscape:window-x="960"
     inkscape:window-y="43"
     inkscape:window-maximized="0"
     inkscape:current-layer="svg2"
     width="80px" /><defs
     id="defs3199" /><metadata
     id="metadata3113"><ns:sfw><ns:slices /><ns:sliceSourceBounds
         bottomLeftOrigin="true"
         height="273.306"
         width="646.966"
         y="282.154"
         x="-27.493" /></ns:sfw><rdf:RDF><cc:Work
         rdf:about=""><dc:format>image/svg+xml</dc:format><dc:type
           rdf:resource="http://purl.org/dc/dcmitype/StillImage" /><dc:title /></cc:Work></rdf:RDF></metadata><rect
     width="646.966"
     height="273.306"
     x="-1.6997947e-005"
     y="-173.30603"
     id="rect3195"
     style="fill:none" /><path
     inkscape:connector-curvature="0"
     d="m 63.553436,92.227543 c 0,0.616261 -0.226968,1.25407 -0.679468,1.910553 C 62.299366,94.712699 61.661557,95 60.966288,95 h -9.242482 c -0.656483,0 -1.292856,-0.287301 -1.90768,-0.861904 -0.453937,-0.492721 -0.679468,-1.067324 -0.679468,-1.725244 v -36.83777 c 0,-0.656484 -0.224096,-1.292857 -0.676595,-1.909117 -0.453936,-0.451063 -1.027102,-0.678032 -1.725244,-0.678032 H 23.450486 c -1.725244,0 -2.587148,0.801571 -2.587148,2.401839 v 37.205516 c 0,0.65792 -0.226967,1.212412 -0.679468,1.663475 -0.451063,0.492722 -1.088871,0.738364 -1.90768,0.738364 H 9.033708 c -0.8216816,0 -1.4365064,-0.245642 -1.8459107,-0.738364 C 6.6936391,93.602279 6.44656,93.047787 6.44656,92.595288 V 7.7106875 c 0,-0.5746023 0.2470791,-1.1908638 0.7412373,-1.8487836 C 7.555543,5.2873016 8.1114709,5 8.8483987,5 H 18.45719 c 0.741237,0 1.31584,0.2255319 1.725244,0.6780312 0.451063,0.4524993 0.679468,1.0271025 0.679468,1.7252442 V 35.861904 c 0,0.53438 0.224095,1.150642 0.676594,1.848783 0.617698,0.57604 1.251197,0.86334 1.910554,0.86334 h 23.160793 c 0.494158,0 1.107546,-0.225531 1.848784,-0.67803 0.451063,-0.574603 0.676595,-1.149205 0.676595,-1.725244 V 7.4047118 c 0,-0.6981417 0.224094,-1.2727449 0.679466,-1.7252442 0.451064,-0.4510629 1.086,-0.6780312 1.907682,-0.6780312 h 9.242481 c 0.861904,0 1.498277,0.2255319 1.907681,0.6780312 0.451063,0.6162615 0.679467,1.1908638 0.679467,1.7252442 V 92.227543 z"
     id="path3131" /></svg>