<?xml version="1.0" encoding="UTF-8" standalone="no"?>
<!-- Created with Inkscape (http://www.inkscape.org/) -->

<svg
   xmlns:ns="http://ns.adobe.com/SaveForWeb/1.0/"
   xmlns:dc="http://purl.org/dc/elements/1.1/"
   xmlns:cc="http://creativecommons.org/ns#"
   xmlns:rdf="http://www.w3.org/1999/02/22-rdf-syntax-ns#"
   xmlns:svg="http://www.w3.org/2000/svg"
   xmlns="http://www.w3.org/2000/svg"
   xmlns:sodipodi="http://sodipodi.sourceforge.net/DTD/sodipodi-0.dtd"
   xmlns:inkscape="http://www.inkscape.org/namespaces/inkscape"
   version="1.1"
   width="70"
   height="100"
   viewBox="0 0 69.999996 100"
   id="svg2"
   xml:space="preserve"
   inkscape:version="0.48.4 r9939"
   sodipodi:docname="Z.svg"><sodipodi:namedview
     pagecolor="#ffffff"
     bordercolor="#666666"
     borderopacity="1"
     objecttolerance="10"
     gridtolerance="10"
     guidetolerance="10"
     inkscape:pageopacity="0"
     inkscape:pageshadow="2"
     inkscape:window-width="944"
     inkscape:window-height="1042"
     id="namedview46"
     showgrid="false"
     inkscape:zoom="6.4571429"
     inkscape:cx="1.3938055"
     inkscape:cy="50"
     inkscape:window-x="960"
     inkscape:window-y="43"
     inkscape:window-maximized="0"
     inkscape:current-layer="svg2"
     width="80px" /><defs
     id="defs3199" /><metadata
     id="metadata3113"><ns:sfw><ns:slices /><ns:sliceSourceBounds
         bottomLeftOrigin="true"
         height="273.306"
         width="646.966"
         y="282.154"
         x="-27.493" /></ns:sfw><rdf:RDF><cc:Work
         rdf:about=""><dc:format>image/svg+xml</dc:format><dc:type
           rdf:resource="http://purl.org/dc/dcmitype/StillImage" /><dc:title /></cc:Work></rdf:RDF></metadata><rect
     width="646.966"
     height="273.306"
     x="-1.6997947e-005"
     y="-173.30603"
     id="rect3195"
     style="fill:none" /><path
     inkscape:connector-curvature="0"
     d="M 63.550826,93.089476 C 63.550826,94.363638 62.871369,95 61.516765,95 H 8.3582567 C 7.0840959,95 6.4477338,94.301869 6.4477338,92.905607 V 79.537691 c 0,-0.451055 0.061767,-0.801557 0.1853064,-1.047196 C 7.1271906,77.668827 7.2478549,77.38153 7.003653,77.627169 L 44.885159,18.367916 c 0.205418,-0.410835 0.308844,-0.698131 0.308844,-0.863327 0,-0.820233 -0.389287,-1.231067 -1.169297,-1.231067 H 8.5449996 c -1.3976985,0 -2.0958294,-0.616251 -2.0958294,-1.848754 V 7.0326239 C 6.4491702,5.6780204 7.0855323,5 8.3596932,5 H 60.471005 c 1.274161,0 1.910523,0.6780204 1.910523,2.0326239 v 9.2394621 c 0,0.206853 -0.03017,0.390723 -0.09193,0.554482 -0.06177,0.165196 -0.09194,0.328955 -0.09194,0.492715 -0.20829,0.534371 -0.330391,0.821668 -0.370613,0.86189 l -38.007916,60.30645 c -0.120665,0.245637 -0.182434,0.532935 -0.182434,0.861889 0,0.821669 0.389287,1.232503 1.169298,1.232503 h 36.712208 c 1.354604,0 2.034061,0.616252 2.034061,1.847318 v 10.660143 z"
     id="path3167" /></svg>