<?xml version="1.0" encoding="UTF-8" standalone="no"?>
<!-- Created with Inkscape (http://www.inkscape.org/) -->

<svg
   xmlns:ns="http://ns.adobe.com/SaveForWeb/1.0/"
   xmlns:dc="http://purl.org/dc/elements/1.1/"
   xmlns:cc="http://creativecommons.org/ns#"
   xmlns:rdf="http://www.w3.org/1999/02/22-rdf-syntax-ns#"
   xmlns:svg="http://www.w3.org/2000/svg"
   xmlns="http://www.w3.org/2000/svg"
   xmlns:sodipodi="http://sodipodi.sourceforge.net/DTD/sodipodi-0.dtd"
   xmlns:inkscape="http://www.inkscape.org/namespaces/inkscape"
   version="1.1"
   width="70"
   height="100"
   viewBox="0 0 69.999996 100"
   id="svg2"
   xml:space="preserve"
   inkscape:version="0.48.4 r9939"
   sodipodi:docname="C.svg"><sodipodi:namedview
     pagecolor="#ffffff"
     bordercolor="#666666"
     borderopacity="1"
     objecttolerance="10"
     gridtolerance="10"
     guidetolerance="10"
     inkscape:pageopacity="0"
     inkscape:pageshadow="2"
     inkscape:window-width="944"
     inkscape:window-height="1042"
     id="namedview46"
     showgrid="false"
     inkscape:zoom="6.4571429"
     inkscape:cx="1.3938055"
     inkscape:cy="50"
     inkscape:window-x="960"
     inkscape:window-y="43"
     inkscape:window-maximized="0"
     inkscape:current-layer="svg2"
     width="80px" /><defs
     id="defs3199" /><metadata
     id="metadata3113"><ns:sfw><ns:slices /><ns:sliceSourceBounds
         bottomLeftOrigin="true"
         height="273.306"
         width="646.966"
         y="282.154"
         x="-27.493" /></ns:sfw><rdf:RDF><cc:Work
         rdf:about=""><dc:format>image/svg+xml</dc:format><dc:type
           rdf:resource="http://purl.org/dc/dcmitype/StillImage" /><dc:title /></cc:Work></rdf:RDF></metadata><rect
     width="646.966"
     height="273.306"
     x="-1.6997947e-005"
     y="-173.30603"
     id="rect3195"
     style="fill:none" /><path
     inkscape:connector-curvature="0"
     d="m 63.552455,67.402395 c 0,8.623622 -2.567142,15.421388 -7.699991,20.390422 C 50.677956,92.598084 43.696247,95 34.907339,95 24.845635,95 17.596726,92.598084 13.162048,87.792817 8.6857101,82.947326 6.447541,76.089226 6.447541,67.218516 V 20.215962 c 0,-4.558181 1.4983378,-8.274541 4.49645,-11.1505191 C 14.023987,6.3546687 17.67861,5 21.909295,5 h 30.492539 c 2.094512,0 3.921823,0.6780527 5.481934,2.0327215 1.396341,1.5198723 2.094512,3.4707105 2.094512,5.8525135 l -2.094512,16.755946 c -0.20543,1.396329 -0.821715,2.094494 -1.847424,2.094494 h -8.070625 c -1.60177,0 -2.401937,-0.861932 -2.401937,-2.587231 V 18.675978 c 0,-0.492737 -0.287313,-1.067359 -0.861939,-1.725299 -0.452518,-0.451078 -1.088917,-0.678053 -1.910632,-0.678053 H 26.898487 c -1.683654,0 -3.121656,0.576058 -4.311133,1.725299 -1.150689,1.068795 -1.725315,2.505347 -1.725315,4.31253 v 42.813567 c 0,4.928811 1.08748,8.768715 3.263876,11.519713 2.218058,2.628891 5.810908,3.943336 10.779988,3.943336 4.394453,0 7.885308,-1.376217 10.472562,-4.127215 2.503934,-2.669114 3.758055,-6.159936 3.758055,-10.472466 0,-1.478212 0.86194,-2.2166 2.587255,-2.2166 h 9.117881 c 1.067368,0 1.8072,0.349082 2.218057,1.047247 0.327537,0.736951 0.492742,1.598883 0.492742,2.584358 z"
     id="path3121" /></svg>