<?xml version="1.0" encoding="UTF-8" standalone="no"?>
<!-- Created with Inkscape (http://www.inkscape.org/) -->

<svg
   xmlns:ns="http://ns.adobe.com/SaveForWeb/1.0/"
   xmlns:dc="http://purl.org/dc/elements/1.1/"
   xmlns:cc="http://creativecommons.org/ns#"
   xmlns:rdf="http://www.w3.org/1999/02/22-rdf-syntax-ns#"
   xmlns:svg="http://www.w3.org/2000/svg"
   xmlns="http://www.w3.org/2000/svg"
   xmlns:sodipodi="http://sodipodi.sourceforge.net/DTD/sodipodi-0.dtd"
   xmlns:inkscape="http://www.inkscape.org/namespaces/inkscape"
   version="1.1"
   width="70"
   height="100"
   viewBox="0 0 69.999996 100"
   id="svg2"
   xml:space="preserve"
   inkscape:version="0.48.4 r9939"
   sodipodi:docname="L.svg"><sodipodi:namedview
     pagecolor="#ffffff"
     bordercolor="#666666"
     borderopacity="1"
     objecttolerance="10"
     gridtolerance="10"
     guidetolerance="10"
     inkscape:pageopacity="0"
     inkscape:pageshadow="2"
     inkscape:window-width="944"
     inkscape:window-height="1042"
     id="namedview46"
     showgrid="false"
     inkscape:zoom="6.4571429"
     inkscape:cx="1.3938055"
     inkscape:cy="50"
     inkscape:window-x="960"
     inkscape:window-y="43"
     inkscape:window-maximized="0"
     inkscape:current-layer="svg2"
     width="80px" /><defs
     id="defs3199" /><metadata
     id="metadata3113"><ns:sfw><ns:slices /><ns:sliceSourceBounds
         bottomLeftOrigin="true"
         height="273.306"
         width="646.966"
         y="282.154"
         x="-27.493" /></ns:sfw><rdf:RDF><cc:Work
         rdf:about=""><dc:format>image/svg+xml</dc:format><dc:type
           rdf:resource="http://purl.org/dc/dcmitype/StillImage" /><dc:title /></cc:Work></rdf:RDF></metadata><rect
     width="646.966"
     height="273.306"
     x="-1.6997947e-005"
     y="-173.30603"
     id="rect3195"
     style="fill:none" /><path
     inkscape:connector-curvature="0"
     d="m 63.552193,87.792817 c 0,2.05427 -0.676616,3.758021 -2.031286,5.11269 C 59.919152,94.303272 58.193853,95 56.346446,95 H 9.0350338 C 8.213326,95 7.5956086,94.754349 7.1861911,94.261612 6.6920171,93.605108 6.4478032,93.050598 6.4478032,92.598084 V 7.7107739 c 0,-0.5746212 0.2442139,-1.1909016 0.7383879,-1.848843 C 7.5568216,5.2873106 8.1098942,5 8.8497186,5 h 9.6090984 c 0.738388,0 1.313009,0.2255382 1.725299,0.6780528 0.451077,0.4525137 0.676617,1.0271349 0.676617,1.7252991 V 77.814525 c 0,0.576058 0.226975,1.212451 0.679489,1.910615 0.614844,0.574621 1.251236,0.861931 1.907741,0.861931 h 23.164406 c 0.4913,0 1.107581,-0.225539 1.845969,-0.678052 0.451077,-0.656505 0.679489,-1.231126 0.679489,-1.7253 v -9.117797 c 0,-0.656505 0.224102,-1.169354 0.676617,-1.539984 0.617716,-0.574622 1.254109,-0.863369 1.910614,-0.863369 h 9.239904 c 0.698164,0 1.335993,0.288747 1.910615,0.863369 0.451077,0.452513 0.676616,0.965363 0.676616,1.539984 v 18.726895 z"
     id="path3139" /></svg>