<?xml version="1.0" encoding="UTF-8" standalone="no"?>
<!-- Created with Inkscape (http://www.inkscape.org/) -->

<svg
   xmlns:ns="http://ns.adobe.com/SaveForWeb/1.0/"
   xmlns:dc="http://purl.org/dc/elements/1.1/"
   xmlns:cc="http://creativecommons.org/ns#"
   xmlns:rdf="http://www.w3.org/1999/02/22-rdf-syntax-ns#"
   xmlns:svg="http://www.w3.org/2000/svg"
   xmlns="http://www.w3.org/2000/svg"
   xmlns:sodipodi="http://sodipodi.sourceforge.net/DTD/sodipodi-0.dtd"
   xmlns:inkscape="http://www.inkscape.org/namespaces/inkscape"
   version="1.1"
   width="66"
   height="100"
   viewBox="0 0 65.999996 100"
   id="svg2"
   xml:space="preserve"
   inkscape:version="0.48.4 r9939"
   sodipodi:docname="5.svg"><sodipodi:namedview
     pagecolor="#ffffff"
     bordercolor="#666666"
     borderopacity="1"
     objecttolerance="10"
     gridtolerance="10"
     guidetolerance="10"
     inkscape:pageopacity="0"
     inkscape:pageshadow="2"
     inkscape:window-width="944"
     inkscape:window-height="1042"
     id="namedview46"
     showgrid="false"
     inkscape:zoom="5.65"
     inkscape:cx="1.5929204"
     inkscape:cy="50"
     inkscape:window-x="960"
     inkscape:window-y="43"
     inkscape:window-maximized="0"
     inkscape:current-layer="svg2"
     width="80px" /><defs
     id="defs3199" /><metadata
     id="metadata3113"><ns:sfw><ns:slices /><ns:sliceSourceBounds
         bottomLeftOrigin="true"
         height="273.306"
         width="646.966"
         y="282.154"
         x="-27.493" /></ns:sfw><rdf:RDF><cc:Work
         rdf:about=""><dc:format>image/svg+xml</dc:format><dc:type
           rdf:resource="http://purl.org/dc/dcmitype/StillImage" /><dc:title /></cc:Work></rdf:RDF></metadata><rect
     width="646.966"
     height="273.306"
     x="-1.6997947e-005"
     y="-173.30603"
     id="rect3195"
     style="fill:none" /><path
     inkscape:connector-curvature="0"
     d="m 59.644745,65.368709 c 0,10.226652 -2.156463,17.659254 -6.467953,22.299244 C 48.863866,92.555024 41.368684,95 30.68981,95 25.514873,95 21.756507,94.77446 19.414711,94.321958 16.374688,93.827795 13.972552,92.925653 12.206867,91.61123 10.357854,90.37868 8.8579556,88.264113 7.7100448,85.266076 6.8063704,82.760769 6.3552515,79.044468 6.3552515,74.115736 c 0,-1.601731 0.8016699,-2.403314 2.4021361,-2.403314 h 9.4260864 c 0.698228,0 1.272901,0.226972 1.725457,0.678042 0.574673,0.576049 0.86201,1.15066 0.86201,1.725272 0,2.916154 0.739893,4.681649 2.218241,5.29792 1.272902,0.821695 3.900598,1.231105 7.88596,1.231105 5.627492,0 9.404535,-1.210994 11.335439,-3.632983 2.053021,-2.423424 3.080251,-6.304926 3.080251,-11.643069 0,-3.449108 -0.122118,-5.789214 -0.369228,-7.021756 -0.205446,-1.930696 -0.718342,-3.655968 -1.540126,-5.175816 -0.863446,-1.641952 -2.054458,-2.896042 -3.573033,-3.756524 -1.354793,-0.903577 -3.409252,-1.356083 -6.160503,-1.356083 -1.438121,0 -2.711023,0.1652 -3.820142,0.494166 -1.396458,0.534389 -2.525692,1.04723 -3.387702,1.539959 -1.396457,0.616271 -2.382023,1.088889 -2.958134,1.414982 -1.43812,0.20686 -2.340358,0.308854 -2.711023,0.308854 H 8.7573876 c -1.6019029,0 -2.4021361,-0.863355 -2.4021361,-2.58719 V 7.5871888 c 0,-1.7252717 0.8016699,-2.5871893 2.4021361,-2.5871893 H 57.304386 c 1.560239,0 2.340359,0.8619176 2.340359,2.5871893 v 6.3451502 c 0,1.723835 -0.78012,2.587188 -2.340359,2.587188 H 23.173078 c -1.601904,0 -2.402137,0.801585 -2.402137,2.403315 v 20.388661 c 0,0.574611 0.389342,0.863354 1.170898,0.863354 0.820347,0 2.094686,-0.512841 3.820144,-1.53996 1.765685,-0.985459 3.634811,-1.847377 5.605942,-2.587189 2.216804,-0.574612 4.558599,-0.863354 7.022512,-0.863354 2.792915,0 5.153387,0.225534 7.085727,0.678042 1.929467,0.328965 4.147708,1.478188 6.653285,3.449107 2.011358,1.765494 3.83882,4.785078 5.482387,9.055881 1.354794,4.31246 2.032909,9.979569 2.032909,17.001325 z"
     id="path3179" /></svg>