<?xml version="1.0" encoding="UTF-8" standalone="no"?>
<!-- Created with Inkscape (http://www.inkscape.org/) -->

<svg
   xmlns:ns="http://ns.adobe.com/SaveForWeb/1.0/"
   xmlns:dc="http://purl.org/dc/elements/1.1/"
   xmlns:cc="http://creativecommons.org/ns#"
   xmlns:rdf="http://www.w3.org/1999/02/22-rdf-syntax-ns#"
   xmlns:svg="http://www.w3.org/2000/svg"
   xmlns="http://www.w3.org/2000/svg"
   xmlns:sodipodi="http://sodipodi.sourceforge.net/DTD/sodipodi-0.dtd"
   xmlns:inkscape="http://www.inkscape.org/namespaces/inkscape"
   version="1.1"
   width="70"
   height="100"
   viewBox="0 0 69.999996 100"
   id="svg2"
   xml:space="preserve"
   inkscape:version="0.48.4 r9939"
   sodipodi:docname="D.svg"><sodipodi:namedview
     pagecolor="#ffffff"
     bordercolor="#666666"
     borderopacity="1"
     objecttolerance="10"
     gridtolerance="10"
     guidetolerance="10"
     inkscape:pageopacity="0"
     inkscape:pageshadow="2"
     inkscape:window-width="944"
     inkscape:window-height="1042"
     id="namedview46"
     showgrid="false"
     inkscape:zoom="5.65"
     inkscape:cx="1.5929204"
     inkscape:cy="50"
     inkscape:window-x="960"
     inkscape:window-y="43"
     inkscape:window-maximized="0"
     inkscape:current-layer="svg2"
     width="80px" /><defs
     id="defs3199" /><metadata
     id="metadata3113"><ns:sfw><ns:slices /><ns:sliceSourceBounds
         bottomLeftOrigin="true"
         height="273.306"
         width="646.966"
         y="282.154"
         x="-27.493" /></ns:sfw><rdf:RDF><cc:Work
         rdf:about=""><dc:format>image/svg+xml</dc:format><dc:type
           rdf:resource="http://purl.org/dc/dcmitype/StillImage" /><dc:title /></cc:Work></rdf:RDF></metadata><rect
     width="646.966"
     height="273.306"
     x="-1.6997947e-005"
     y="-173.30603"
     id="rect3195"
     style="fill:none" /><path
     inkscape:connector-curvature="0"
     d="m 63.552193,72.700399 c 0,6.652673 -2.177759,12.01245 -6.528966,16.077893 C 52.545606,92.927055 47.063861,95 40.575117,95 H 9.0349691 C 8.3770448,95 7.7622155,94.712689 7.187609,94.138068 6.694884,93.398244 6.4478032,92.823624 6.4478032,92.412769 v -8.932482 c 0,-0.369193 0.2456443,-0.759936 0.7398058,-1.17079 0.5746065,-0.409417 1.3144125,-0.759936 2.2165446,-1.047246 1.2325314,-0.451078 2.0326704,-0.861932 2.4018554,-1.231126 0.451065,-0.247087 0.678036,-0.698164 0.678036,-1.354669 V 19.907103 c 0,-0.574621 -0.225534,-1.08747 -0.678036,-1.539984 -0.287304,-0.163767 -0.636377,-0.339027 -1.04722,-0.524341 C 10.347945,17.658899 9.8968784,17.423304 9.4041536,17.134557 8.5824662,16.92913 7.8426604,16.601596 7.187609,16.149082 6.694884,15.903432 6.4478032,15.492578 6.4478032,14.917957 V 7.403352 c 0,-0.4927375 0.2456443,-1.0673583 0.7398058,-1.7252993 C 7.5567936,5.2269753 8.1112892,5 8.8510946,5 H 43.347593 c 6.118122,0 10.964928,2.0542697 14.537544,6.159936 3.778037,4.311093 5.667056,9.508539 5.667056,15.585156 V 72.700399 z M 49.136753,72.515084 V 27.114286 c 0,-2.710775 -0.800139,-5.236233 -2.401855,-7.576377 -1.643375,-2.176377 -3.799585,-3.265283 -6.467195,-3.265283 H 29.426315 c -1.683597,0 -2.525394,0.861931 -2.525394,2.58723 v 59.138548 c 0,1.725299 0.840361,2.58723 2.525394,2.58723 h 10.841388 c 2.505284,0 4.619835,-0.698164 6.345091,-2.094492 1.682161,-1.518436 2.523959,-3.510935 2.523959,-5.976058 z"
     id="path3123" /></svg>