<?xml version="1.0" encoding="UTF-8" standalone="no"?>
<!-- Created with Inkscape (http://www.inkscape.org/) -->

<svg
   xmlns:ns="http://ns.adobe.com/SaveForWeb/1.0/"
   xmlns:dc="http://purl.org/dc/elements/1.1/"
   xmlns:cc="http://creativecommons.org/ns#"
   xmlns:rdf="http://www.w3.org/1999/02/22-rdf-syntax-ns#"
   xmlns:svg="http://www.w3.org/2000/svg"
   xmlns="http://www.w3.org/2000/svg"
   xmlns:sodipodi="http://sodipodi.sourceforge.net/DTD/sodipodi-0.dtd"
   xmlns:inkscape="http://www.inkscape.org/namespaces/inkscape"
   version="1.1"
   width="70"
   height="100"
   viewBox="0 0 69.999996 100"
   id="svg2"
   xml:space="preserve"
   inkscape:version="0.48.4 r9939"
   sodipodi:docname="F.svg"><sodipodi:namedview
     pagecolor="#ffffff"
     bordercolor="#666666"
     borderopacity="1"
     objecttolerance="10"
     gridtolerance="10"
     guidetolerance="10"
     inkscape:pageopacity="0"
     inkscape:pageshadow="2"
     inkscape:window-width="944"
     inkscape:window-height="1042"
     id="namedview46"
     showgrid="false"
     inkscape:zoom="6.4571429"
     inkscape:cx="1.3938055"
     inkscape:cy="50"
     inkscape:window-x="960"
     inkscape:window-y="43"
     inkscape:window-maximized="0"
     inkscape:current-layer="svg2"
     width="80px" /><defs
     id="defs3199" /><metadata
     id="metadata3113"><ns:sfw><ns:slices /><ns:sliceSourceBounds
         bottomLeftOrigin="true"
         height="273.306"
         width="646.966"
         y="282.154"
         x="-27.493" /></ns:sfw><rdf:RDF><cc:Work
         rdf:about=""><dc:format>image/svg+xml</dc:format><dc:type
           rdf:resource="http://purl.org/dc/dcmitype/StillImage" /><dc:title /></cc:Work></rdf:RDF></metadata><rect
     width="646.966"
     height="273.306"
     x="-1.6997947e-005"
     y="-173.30603"
     id="rect3195"
     style="fill:none" /><path
     inkscape:connector-curvature="0"
     d="m 63.550038,13.869274 c 0,0.576058 -0.225544,1.150679 -0.67807,1.725299 -0.410864,0.452515 -0.9855,0.678053 -1.725342,0.678053 H 26.895484 c -1.848889,0 -3.286914,0.698165 -4.311201,2.094493 -1.150708,1.35467 -1.725343,2.998085 -1.725343,4.928811 v 23.346848 c 0,0.534397 0.225544,1.150678 0.67807,1.848842 0.574635,0.574621 1.14927,0.861932 1.725342,0.861932 H 50.30613 c 0.780067,0 1.396363,0.226975 1.848889,0.678052 0.451089,0.699601 0.678069,1.335994 0.678069,1.910615 v 8.07055 c 0,1.725299 -0.841841,2.587231 -2.525522,2.587231 H 23.449109 c -1.725343,0 -2.587296,0.841819 -2.587296,2.525459 v 27.28731 C 20.861813,94.138068 19.998424,95 18.274517,95 H 9.0343805 C 7.3090378,95 6.4470848,94.138068 6.4470848,92.412769 V 16.272626 c 0,-3.038308 1.1492708,-5.707423 3.4492488,-8.0087796 C 12.154651,6.08747 15.810768,5 20.861813,5 h 39.980256 c 0.820292,0 1.436589,0.2255391 1.84889,0.6780528 0.574634,0.5343975 0.861952,1.1075814 0.861952,1.7252991 v 6.4659221 z"
     id="path3127" /></svg>