<?xml version="1.0" encoding="UTF-8" standalone="no"?>
<!-- Created with Inkscape (http://www.inkscape.org/) -->

<svg
   xmlns:ns="http://ns.adobe.com/SaveForWeb/1.0/"
   xmlns:dc="http://purl.org/dc/elements/1.1/"
   xmlns:cc="http://creativecommons.org/ns#"
   xmlns:rdf="http://www.w3.org/1999/02/22-rdf-syntax-ns#"
   xmlns:svg="http://www.w3.org/2000/svg"
   xmlns="http://www.w3.org/2000/svg"
   xmlns:sodipodi="http://sodipodi.sourceforge.net/DTD/sodipodi-0.dtd"
   xmlns:inkscape="http://www.inkscape.org/namespaces/inkscape"
   version="1.1"
   width="70"
   height="100"
   viewBox="0 0 69.999996 100"
   id="svg2"
   xml:space="preserve"
   inkscape:version="0.48.4 r9939"
   sodipodi:docname="J.svg"><sodipodi:namedview
     pagecolor="#ffffff"
     bordercolor="#666666"
     borderopacity="1"
     objecttolerance="10"
     gridtolerance="10"
     guidetolerance="10"
     inkscape:pageopacity="0"
     inkscape:pageshadow="2"
     inkscape:window-width="944"
     inkscape:window-height="1042"
     id="namedview46"
     showgrid="false"
     inkscape:zoom="6.4571429"
     inkscape:cx="1.3938055"
     inkscape:cy="50"
     inkscape:window-x="960"
     inkscape:window-y="43"
     inkscape:window-maximized="0"
     inkscape:current-layer="svg2"
     width="80px" /><defs
     id="defs3199" /><metadata
     id="metadata3113"><ns:sfw><ns:slices /><ns:sliceSourceBounds
         bottomLeftOrigin="true"
         height="273.306"
         width="646.966"
         y="282.154"
         x="-27.493" /></ns:sfw><rdf:RDF><cc:Work
         rdf:about=""><dc:format>image/svg+xml</dc:format><dc:type
           rdf:resource="http://purl.org/dc/dcmitype/StillImage" /><dc:title /></cc:Work></rdf:RDF></metadata><rect
     width="646.966"
     height="273.306"
     x="-1.6997947e-005"
     y="-173.30603"
     id="rect3195"
     style="fill:none" /><path
     inkscape:connector-curvature="0"
     d="m 63.551737,72.700755 c 0,6.857991 -1.663501,12.279452 -4.991939,16.262949 C 55.274455,92.988859 50.490812,95 44.208869,95 H 25.666148 C 19.260664,95 14.454038,93.05063 11.250577,89.147579 8.0485524,85.411167 6.4468222,79.92937 6.4468222,72.700755 v -6.037733 c 0,-0.90214 0.1853122,-1.641953 0.5559368,-2.216565 0.24421,-0.45107 0.9854592,-0.678042 2.2165648,-0.678042 h 9.0544452 c 0.903577,0 1.539959,0.287306 1.910584,0.861918 0.45107,0.657931 0.679478,1.334536 0.679478,2.032689 v 6.037733 c 0,5.257697 2.525419,7.88511 7.57482,7.88511 h 12.999153 c 2.502434,0 4.394344,-0.636383 5.667109,-1.909148 1.354647,-1.356084 2.031252,-3.347113 2.031252,-5.975962 V 18.861071 c 0,-1.725271 -0.841806,-2.587189 -2.525418,-2.587189 H 28.253338 c -0.821695,0 -1.459514,-0.225535 -1.907711,-0.678042 -0.453943,-0.698153 -0.679479,-1.272764 -0.679479,-1.725272 V 7.4033132 c 0,-0.5746113 0.28587,-1.1492235 0.861919,-1.7252712 C 26.898691,5.2269719 27.535073,5 28.438651,5 h 32.527333 c 1.722399,0 2.58719,0.8001468 2.58719,2.4018768 V 72.700755 z"
     id="path3135" /></svg>