<?xml version="1.0" encoding="UTF-8" standalone="no"?>
<!-- Created with Inkscape (http://www.inkscape.org/) -->

<svg
   xmlns:ns="http://ns.adobe.com/SaveForWeb/1.0/"
   xmlns:dc="http://purl.org/dc/elements/1.1/"
   xmlns:cc="http://creativecommons.org/ns#"
   xmlns:rdf="http://www.w3.org/1999/02/22-rdf-syntax-ns#"
   xmlns:svg="http://www.w3.org/2000/svg"
   xmlns="http://www.w3.org/2000/svg"
   xmlns:sodipodi="http://sodipodi.sourceforge.net/DTD/sodipodi-0.dtd"
   xmlns:inkscape="http://www.inkscape.org/namespaces/inkscape"
   version="1.1"
   width="60"
   height="100"
   viewBox="0 0 59.999996 100"
   id="svg2"
   xml:space="preserve"
   inkscape:version="0.48.4 r9939"
   sodipodi:docname="I.svg"><sodipodi:namedview
     pagecolor="#ffffff"
     bordercolor="#666666"
     borderopacity="1"
     objecttolerance="10"
     gridtolerance="10"
     guidetolerance="10"
     inkscape:pageopacity="0"
     inkscape:pageshadow="2"
     inkscape:window-width="1239"
     inkscape:window-height="1375"
     id="namedview46"
     showgrid="false"
     inkscape:zoom="4.52"
     inkscape:cx="1.3715478"
     inkscape:cy="50.44248"
     inkscape:window-x="1320"
     inkscape:window-y="30"
     inkscape:window-maximized="0"
     inkscape:current-layer="svg2"
     fit-margin-top="0"
     fit-margin-left="0"
     fit-margin-right="0"
     fit-margin-bottom="0" /><defs
     id="defs3199" /><metadata
     id="metadata3113"><ns:sfw><ns:slices /><ns:sliceSourceBounds
         bottomLeftOrigin="true"
         height="273.306"
         width="646.966"
         y="282.154"
         x="-27.493" /></ns:sfw><rdf:RDF><cc:Work
         rdf:about=""><dc:format>image/svg+xml</dc:format><dc:type
           rdf:resource="http://purl.org/dc/dcmitype/StillImage" /><dc:title /></cc:Work></rdf:RDF></metadata><rect
     width="646.966"
     height="273.306"
     x="-0.39838076"
     y="-173.74847"
     id="rect3195"
     style="fill:none" /><path
     inkscape:connector-curvature="0"
     d="m 51.061689,92.412769 c 0,0.657942 -0.224103,1.272785 -0.676616,1.848843 C 49.933995,94.754347 49.357938,95 48.659774,95 H 10.958898 C 9.236471,95 8.371666,94.138068 8.371666,92.412769 v -9.794413 c 0,-1.109019 0.698166,-1.7253 2.095931,-1.847406 l 11.274061,-1.232562 c 0.695292,0 1.047246,-0.287311 1.047246,-0.861932 V 19.045172 c 0,-0.451078 -0.226974,-0.863368 -0.679489,-1.231125 C 21.167037,17.239426 20.364005,16.85012 19.7075,16.643257 19.17454,16.397606 18.730644,16.160575 18.383,15.935036 18.035354,15.709498 17.737988,15.534238 17.4909,15.410694 17.039822,15.041501 16.811411,14.652195 16.811411,14.241341 V 7.4033519 c 0,-0.6162813 0.285874,-1.1909016 0.864804,-1.7252991 C 18.043973,5.2269755 18.599918,5 19.33687,5 h 20.577173 c 0.861933,0 1.498324,0.2255382 1.907741,0.6780528 0.574621,0.5746203 0.864805,1.1492415 0.864805,1.7252991 v 6.8379891 c 0,0.32897 -0.226976,0.718276 -0.679489,1.169353 -0.288747,0.123544 -0.606225,0.298804 -0.953871,0.524342 -0.350518,0.225539 -0.771429,0.46257 -1.26273,0.708221 -0.247086,0.08332 -1.007022,0.472625 -2.281245,1.17079 -0.57462,0.32897 -0.861931,0.738387 -0.861931,1.231125 v 59.631284 c 0,0.574621 0.285874,0.861932 0.861931,0.861932 l 11.521149,1.047246 c 1.35467,0.206864 2.031286,0.88348 2.031286,2.032722 v 9.794413 z"
     id="path3133" /></svg>