<?xml version="1.0" encoding="UTF-8" standalone="no"?>
<!-- Created with Inkscape (http://www.inkscape.org/) -->

<svg
   xmlns:ns="http://ns.adobe.com/SaveForWeb/1.0/"
   xmlns:dc="http://purl.org/dc/elements/1.1/"
   xmlns:cc="http://creativecommons.org/ns#"
   xmlns:rdf="http://www.w3.org/1999/02/22-rdf-syntax-ns#"
   xmlns:svg="http://www.w3.org/2000/svg"
   xmlns="http://www.w3.org/2000/svg"
   xmlns:sodipodi="http://sodipodi.sourceforge.net/DTD/sodipodi-0.dtd"
   xmlns:inkscape="http://www.inkscape.org/namespaces/inkscape"
   version="1.1"
   width="70"
   height="100"
   viewBox="0 0 69.999996 100"
   id="svg2"
   xml:space="preserve"
   inkscape:version="0.48.4 r9939"
   sodipodi:docname="A.svg"><sodipodi:namedview
     pagecolor="#ffffff"
     bordercolor="#666666"
     borderopacity="1"
     objecttolerance="10"
     gridtolerance="10"
     guidetolerance="10"
     inkscape:pageopacity="0"
     inkscape:pageshadow="2"
     inkscape:window-width="2479"
     inkscape:window-height="1410"
     id="namedview46"
     showgrid="false"
     inkscape:zoom="5.65"
     inkscape:cx="-27.787611"
     inkscape:cy="50"
     inkscape:window-x="81"
     inkscape:window-y="30"
     inkscape:window-maximized="1"
     inkscape:current-layer="svg2"
     width="80px" /><defs
     id="defs3199" /><metadata
     id="metadata3113"><ns:sfw><ns:slices /><ns:sliceSourceBounds
         bottomLeftOrigin="true"
         height="273.306"
         width="646.966"
         y="282.154"
         x="-27.493" /></ns:sfw><rdf:RDF><cc:Work
         rdf:about=""><dc:format>image/svg+xml</dc:format><dc:type
           rdf:resource="http://purl.org/dc/dcmitype/StillImage" /><dc:title /></cc:Work></rdf:RDF></metadata><rect
     width="646.966"
     height="273.306"
     x="-1.6997947e-005"
     y="-173.30603"
     id="rect3195"
     style="fill:none" /><path
     inkscape:connector-curvature="0"
     d="m 63.060174,89.147486 c 0.205426,0.780048 0.307422,1.416441 0.307422,1.910615 0,2.62889 -1.354669,3.941899 -4.06688,3.941899 h -6.52913 c -2.136153,0 -3.285395,-0.696728 -3.449162,-2.094493 L 46.920509,79.538388 C 46.427771,77.813089 45.52418,76.951157 44.209735,76.951157 H 24.128171 c -0.657942,0 -1.17079,0.183879 -1.539985,0.55451 -0.410853,0.534396 -0.6996,1.212449 -0.863368,2.032721 l -2.58723,13.367119 c 0,0.616281 -0.328971,1.130566 -0.986911,1.539984 C 17.452512,94.814685 16.816119,95 16.241499,95 H 10.081562 C 9.3819615,95 8.6435736,94.712689 7.8635256,94.138068 7.0418175,93.645331 6.6324003,92.619633 6.6324003,91.058101 c 0,-0.369195 0.1221066,-1.005587 0.3691935,-1.910615 L 21.908697,9.927374 C 22.194571,8.3672789 22.996167,7.1146049 24.310613,6.1693538 25.501514,5.3907422 26.650756,5 27.759774,5 h 14.352595 c 1.314444,0 2.401915,0.2255391 3.265282,0.6780528 0.902156,0.5746212 1.539985,1.5399837 1.909179,2.8946529 L 63.060174,89.147486 z M 43.655225,62.042617 36.324499,21.261772 c -0.369194,-1.272786 -1.007023,-1.910615 -1.910614,-1.910615 -0.945251,0 -1.581644,0.636393 -1.909178,1.910615 l -7.514605,40.780845 v 0.183879 c 0,0.123544 0,0.245651 0,0.369194 0,0.657941 0.225539,1.21245 0.678052,1.663528 0.409418,0.492737 0.985475,0.739825 1.7253,0.739825 h 13.736313 c 1.683639,0 2.525458,-0.985476 2.525458,-2.956426 z"
     id="path3117" /></svg>