<?xml version="1.0" encoding="UTF-8" standalone="no"?>
<!-- Created with Inkscape (http://www.inkscape.org/) -->

<svg
   xmlns:ns="http://ns.adobe.com/SaveForWeb/1.0/"
   xmlns:dc="http://purl.org/dc/elements/1.1/"
   xmlns:cc="http://creativecommons.org/ns#"
   xmlns:rdf="http://www.w3.org/1999/02/22-rdf-syntax-ns#"
   xmlns:svg="http://www.w3.org/2000/svg"
   xmlns="http://www.w3.org/2000/svg"
   xmlns:sodipodi="http://sodipodi.sourceforge.net/DTD/sodipodi-0.dtd"
   xmlns:inkscape="http://www.inkscape.org/namespaces/inkscape"
   version="1.1"
   width="66"
   height="100"
   viewBox="0 0 65.999996 100"
   id="svg2"
   xml:space="preserve"
   inkscape:version="0.48.4 r9939"
   sodipodi:docname="7.svg"><sodipodi:namedview
     pagecolor="#ffffff"
     bordercolor="#666666"
     borderopacity="1"
     objecttolerance="10"
     gridtolerance="10"
     guidetolerance="10"
     inkscape:pageopacity="0"
     inkscape:pageshadow="2"
     inkscape:window-width="944"
     inkscape:window-height="1042"
     id="namedview46"
     showgrid="false"
     inkscape:zoom="5.65"
     inkscape:cx="1.5929204"
     inkscape:cy="50"
     inkscape:window-x="960"
     inkscape:window-y="43"
     inkscape:window-maximized="0"
     inkscape:current-layer="svg2"
     width="80px" /><defs
     id="defs3199" /><metadata
     id="metadata3113"><ns:sfw><ns:slices /><ns:sliceSourceBounds
         bottomLeftOrigin="true"
         height="273.306"
         width="646.966"
         y="282.154"
         x="-27.493" /></ns:sfw><rdf:RDF><cc:Work
         rdf:about=""><dc:format>image/svg+xml</dc:format><dc:type
           rdf:resource="http://purl.org/dc/dcmitype/StillImage" /><dc:title /></cc:Work></rdf:RDF></metadata><rect
     width="646.966"
     height="273.306"
     x="-1.6997947e-005"
     y="-173.30603"
     id="rect3195"
     style="fill:none" /><path
     inkscape:connector-curvature="0"
     d="m 59.644745,19.600065 c 0,1.88765 -0.512856,4.003714 -1.540002,6.343885 -0.617724,1.232575 -1.292911,2.536978 -2.03418,3.91321 -0.738396,1.376233 -1.540001,2.92629 -2.401942,4.650172 -0.165205,0.206865 -0.308862,0.422351 -0.432406,0.646455 -0.123545,0.225542 -0.267202,0.422351 -0.429534,0.584683 L 35.003292,68.634442 c -1.478229,2.627484 -2.219497,5.318176 -2.219497,8.069203 v 15.892753 c 0,0.492743 -0.24709,1.068807 -0.738396,1.725318 -0.412296,0.451083 -0.965374,0.678061 -1.663546,0.678061 h -10.84178 c -1.601773,0 -2.404814,-0.801606 -2.404814,-2.403379 V 76.705082 c 0,-2.299945 0.06178,-3.860058 0.185317,-4.681775 0,-1.231139 0.347649,-2.361718 1.048694,-3.387427 L 41.654602,25.451206 v -0.185317 c 0.451083,-0.696735 0.676624,-1.785654 0.676624,-3.263883 0,-1.723881 -0.841829,-2.587259 -2.525486,-2.587259 H 23.173154 c -1.601774,0 -2.401942,0.863378 -2.401942,2.587259 v 5.667261 c 0,1.685095 -0.864814,2.525487 -2.587259,2.525487 H 8.7571932 c -1.5989002,0 -2.4019418,-0.840392 -2.4019418,-2.525487 V 7.587482 c 0,-0.6162876 0.2269777,-1.1909142 0.6794967,-1.725318 C 7.6495992,5.2889738 8.2242264,5.0002232 8.7571932,5.0002232 H 56.932504 c 0.614851,0 1.251251,0.2873133 1.907762,0.8619408 0.532967,0.4525191 0.803041,1.028583 0.803041,1.725318 v 12.012583 z"
     id="path3183" /></svg>