<?xml version="1.0" encoding="UTF-8" standalone="no"?>
<!-- Created with Inkscape (http://www.inkscape.org/) -->

<svg
   xmlns:ns="http://ns.adobe.com/SaveForWeb/1.0/"
   xmlns:dc="http://purl.org/dc/elements/1.1/"
   xmlns:cc="http://creativecommons.org/ns#"
   xmlns:rdf="http://www.w3.org/1999/02/22-rdf-syntax-ns#"
   xmlns:svg="http://www.w3.org/2000/svg"
   xmlns="http://www.w3.org/2000/svg"
   xmlns:sodipodi="http://sodipodi.sourceforge.net/DTD/sodipodi-0.dtd"
   xmlns:inkscape="http://www.inkscape.org/namespaces/inkscape"
   version="1.1"
   width="70"
   height="100"
   viewBox="0 0 69.999996 100"
   id="svg2"
   xml:space="preserve"
   inkscape:version="0.48.4 r9939"
   sodipodi:docname="X.svg"><sodipodi:namedview
     pagecolor="#ffffff"
     bordercolor="#666666"
     borderopacity="1"
     objecttolerance="10"
     gridtolerance="10"
     guidetolerance="10"
     inkscape:pageopacity="0"
     inkscape:pageshadow="2"
     inkscape:window-width="944"
     inkscape:window-height="1042"
     id="namedview46"
     showgrid="false"
     inkscape:zoom="6.4571429"
     inkscape:cx="1.3938055"
     inkscape:cy="50"
     inkscape:window-x="960"
     inkscape:window-y="43"
     inkscape:window-maximized="0"
     inkscape:current-layer="svg2"
     width="80px" /><defs
     id="defs3199" /><metadata
     id="metadata3113"><ns:sfw><ns:slices /><ns:sliceSourceBounds
         bottomLeftOrigin="true"
         height="273.306"
         width="646.966"
         y="282.154"
         x="-27.493" /></ns:sfw><rdf:RDF><cc:Work
         rdf:about=""><dc:format>image/svg+xml</dc:format><dc:type
           rdf:resource="http://purl.org/dc/dcmitype/StillImage" /><dc:title /></cc:Work></rdf:RDF></metadata><rect
     width="646.966"
     height="273.306"
     x="-1.6997947e-005"
     y="-173.30603"
     id="rect3195"
     style="fill:none" /><path
     inkscape:connector-curvature="0"
     d="m 63.026415,90.502155 c 0.451077,1.274221 0.679489,2.074381 0.679489,2.403351 C 63.705904,94.301836 62.964642,95 61.48643,95 h -9.794413 c -0.614845,0 -1.251237,-0.247087 -1.907742,-0.739824 -0.74126,-0.287311 -1.192338,-0.903592 -1.354668,-1.848843 L 35.924419,61.735195 c -0.165204,-0.451077 -0.555946,-0.678052 -1.169353,-0.678052 -0.821708,0 -1.292897,0.225539 -1.416441,0.678052 L 19.108138,92.905507 c -0.123543,0.32897 -0.57462,0.780048 -1.354668,1.354669 C 17.135752,94.752913 16.460573,95 15.719312,95 H 9.1901814 c -1.9307259,0 -2.8960893,-0.698164 -2.8960893,-2.094493 0,-0.287311 0.1034325,-0.636393 0.3088593,-1.047247 L 25.145968,50.215483 c 0.32897,-0.492738 0.4913,-1.109018 0.4913,-1.848843 0,-0.451077 -0.16233,-1.149242 -0.4913,-2.094493 L 9.5593758,8.2638464 C 9.4358319,7.8946529 9.3740604,7.4852348 9.3740604,7.0327211 9.3740604,6.0889064 9.6599346,5.5128488 10.235992,5.307422 10.68707,5.1019952 11.201355,5 11.775976,5 h 8.069114 c 1.644852,0 2.710774,0.6780528 3.203511,2.0327211 L 34.384436,32.412291 c 0.409417,0.576057 0.861931,0.863367 1.354668,0.863367 0.861932,0 1.374781,-0.28731 1.539984,-0.863367 L 49.660733,7.0327211 C 49.742614,6.7037504 50.07015,6.2526731 50.646207,5.6780528 51.220828,5.2269746 51.920429,5 52.742136,5 h 7.329291 c 1.601755,0 2.404788,0.6780528 2.404788,2.0327211 0,0.6981642 -0.165204,1.3345569 -0.494174,1.9091781 L 45.534954,45.410216 c -0.247087,0.739824 -0.37063,1.437989 -0.37063,2.094493 0,0.574621 0.123543,1.192338 0.37063,1.847406 l 17.491461,41.15004 z"
     id="path3163" /></svg>