<?xml version="1.0" encoding="UTF-8" standalone="no"?>
<!-- Created with Inkscape (http://www.inkscape.org/) -->

<svg
   xmlns:ns="http://ns.adobe.com/SaveForWeb/1.0/"
   xmlns:dc="http://purl.org/dc/elements/1.1/"
   xmlns:cc="http://creativecommons.org/ns#"
   xmlns:rdf="http://www.w3.org/1999/02/22-rdf-syntax-ns#"
   xmlns:svg="http://www.w3.org/2000/svg"
   xmlns="http://www.w3.org/2000/svg"
   xmlns:sodipodi="http://sodipodi.sourceforge.net/DTD/sodipodi-0.dtd"
   xmlns:inkscape="http://www.inkscape.org/namespaces/inkscape"
   version="1.1"
   width="66"
   height="100"
   viewBox="0 0 65.999996 100"
   id="svg2"
   xml:space="preserve"
   inkscape:version="0.48.4 r9939"
   sodipodi:docname="1.svg"><sodipodi:namedview
     pagecolor="#ffffff"
     bordercolor="#666666"
     borderopacity="1"
     objecttolerance="10"
     gridtolerance="10"
     guidetolerance="10"
     inkscape:pageopacity="0"
     inkscape:pageshadow="2"
     inkscape:window-width="2479"
     inkscape:window-height="1410"
     id="namedview46"
     showgrid="false"
     inkscape:zoom="5.65"
     inkscape:cx="-36.99115"
     inkscape:cy="50"
     inkscape:window-x="81"
     inkscape:window-y="30"
     inkscape:window-maximized="1"
     inkscape:current-layer="svg2"
     width="80px" /><defs
     id="defs3199" /><metadata
     id="metadata3113"><ns:sfw><ns:slices /><ns:sliceSourceBounds
         bottomLeftOrigin="true"
         height="273.306"
         width="646.966"
         y="282.154"
         x="-27.493" /></ns:sfw><rdf:RDF><cc:Work
         rdf:about=""><dc:format>image/svg+xml</dc:format><dc:type
           rdf:resource="http://purl.org/dc/dcmitype/StillImage" /><dc:title /></cc:Work></rdf:RDF></metadata><rect
     width="646.966"
     height="273.306"
     x="-1.6997947e-005"
     y="-173.30603"
     id="rect3195"
     style="fill:none" /><path
     inkscape:connector-curvature="0"
     d="M 59.643733,92.596648 C 59.643733,94.198403 58.863685,95 57.303589,95 H 8.7596152 C 7.1578593,95 6.3576996,94.198403 6.3576996,92.596648 v -9.425219 c 0,-1.683639 0.8015962,-2.526896 2.4019155,-2.526896 H 28.471986 c 0.698163,0 1.272785,-0.245651 1.725299,-0.739824 0.451077,-0.449642 0.678052,-1.005587 0.678052,-1.662092 V 24.032881 c 0,-0.205426 -0.06178,-0.369194 -0.183879,-0.492737 -0.123543,-0.123544 -0.349082,-0.185315 -0.678052,-0.185315 -0.247088,0 -0.442458,0 -0.586114,0 -0.143655,0 -0.298802,0 -0.461133,0 0.04022,-0.04022 -0.247087,0.185315 -0.863368,0.678052 l -8.008779,7.392498 c -0.08332,0.123543 -0.267198,0.288747 -0.554508,0.494174 -0.492738,0.53296 -0.903592,0.933759 -1.231127,1.200959 -0.328969,0.268634 -0.534397,0.442457 -0.61628,0.522903 -0.245651,0.123543 -0.821708,0.185317 -1.725299,0.185317 H 8.7596151 c -0.6579416,0 -1.2311258,-0.22554 -1.7252994,-0.678053 C 6.5818017,32.657941 6.356263,32.083319 6.356263,31.42538 v -7.392499 c 0,-0.656503 0.2873104,-1.231125 0.8633678,-1.723862 0.7786114,-0.494174 1.641979,-0.88348 2.587231,-1.170791 1.3963292,-0.492738 2.3616922,-1.005587 2.8960892,-1.538547 L 27.980685,5.7398248 C 28.390101,5.2456505 29.006383,5 29.828089,5 h 13.059698 c 1.601756,0 2.401915,0.8619311 2.401915,2.5872312 V 78.245491 c 0,1.600319 0.840383,2.401916 2.52546,2.401916 h 9.486991 c 1.560096,0 2.340144,0.843255 2.340144,2.526894 v 9.422347 z"
     id="path3171" /></svg>