<?xml version="1.0" encoding="UTF-8" standalone="no"?>
<!-- Created with Inkscape (http://www.inkscape.org/) -->

<svg
   xmlns:ns="http://ns.adobe.com/SaveForWeb/1.0/"
   xmlns:dc="http://purl.org/dc/elements/1.1/"
   xmlns:cc="http://creativecommons.org/ns#"
   xmlns:rdf="http://www.w3.org/1999/02/22-rdf-syntax-ns#"
   xmlns:svg="http://www.w3.org/2000/svg"
   xmlns="http://www.w3.org/2000/svg"
   xmlns:sodipodi="http://sodipodi.sourceforge.net/DTD/sodipodi-0.dtd"
   xmlns:inkscape="http://www.inkscape.org/namespaces/inkscape"
   version="1.1"
   width="70"
   height="100"
   viewBox="0 0 69.999996 100"
   id="svg2"
   xml:space="preserve"
   inkscape:version="0.48.4 r9939"
   sodipodi:docname="Y.svg"><sodipodi:namedview
     pagecolor="#ffffff"
     bordercolor="#666666"
     borderopacity="1"
     objecttolerance="10"
     gridtolerance="10"
     guidetolerance="10"
     inkscape:pageopacity="0"
     inkscape:pageshadow="2"
     inkscape:window-width="944"
     inkscape:window-height="1042"
     id="namedview46"
     showgrid="false"
     inkscape:zoom="6.4571429"
     inkscape:cx="1.3938055"
     inkscape:cy="50"
     inkscape:window-x="960"
     inkscape:window-y="43"
     inkscape:window-maximized="0"
     inkscape:current-layer="svg2"
     width="80px" /><defs
     id="defs3199" /><metadata
     id="metadata3113"><ns:sfw><ns:slices /><ns:sliceSourceBounds
         bottomLeftOrigin="true"
         height="273.306"
         width="646.966"
         y="282.154"
         x="-27.493" /></ns:sfw><rdf:RDF><cc:Work
         rdf:about=""><dc:format>image/svg+xml</dc:format><dc:type
           rdf:resource="http://purl.org/dc/dcmitype/StillImage" /><dc:title /></cc:Work></rdf:RDF></metadata><rect
     width="646.966"
     height="273.306"
     x="-1.6997947e-005"
     y="-173.30603"
     id="rect3195"
     style="fill:none" /><path
     inkscape:connector-curvature="0"
     d="M 63.244136,8.9445839 C 53.963017,38.471501 48.870683,54.119116 47.967134,55.883118 l -4.803601,9.426205 c -0.247075,0.656473 -0.370612,1.354604 -0.370612,2.094393 V 92.905607 C 42.792921,94.301869 42.113464,95 40.75886,95 H 30.473639 c -1.354605,0 -2.034061,-0.698131 -2.034061,-2.094393 V 67.402279 c 0,-0.69813 -0.185307,-1.396261 -0.553046,-2.094392 L 22.587344,55.881682 C 21.889213,54.608958 16.63312,38.962779 6.8190648,8.9431475 6.6955272,8.5739711 6.6337584,8.0611466 6.6337584,7.4032367 c 0,-0.6981309 0.2240919,-1.2727242 0.676584,-1.7252163 C 7.599075,5.2269647 8.2368744,5 9.2208651,5 h 7.5156819 c 1.06587,0 1.98953,0.3907233 2.772413,1.169298 0.86189,0.7397883 1.498252,1.6634475 1.90765,2.7724131 L 34.415349,50.766364 c 0.328954,0.781447 0.84178,1.170734 1.539911,1.170734 0.614814,0 1.065871,-0.389287 1.354603,-1.170734 L 51.230825,8.9417111 C 51.4779,7.8744038 52.049621,6.8889758 52.953168,5.985428 53.609642,5.3289545 54.636727,5 56.034425,5 H 60.8409 c 0.985427,0 1.601678,0.2872971 1.845881,0.8618904 0.451055,0.4108338 0.679457,1.0270854 0.679457,1.8487539 0,0.1221012 0,0.2370195 0,0.3390102 0,0.1034271 0,0.2154726 0,0.3390102 0,0.1221012 -0.02299,0.2255274 -0.06177,0.3074076 -0.04022,0.084753 -0.06034,0.1666323 -0.06034,0.2485116 z"
     id="path3165" /></svg>