<?xml version="1.0" encoding="UTF-8" standalone="no"?>
<!-- Created with Inkscape (http://www.inkscape.org/) -->

<svg
   xmlns:ns="http://ns.adobe.com/SaveForWeb/1.0/"
   xmlns:dc="http://purl.org/dc/elements/1.1/"
   xmlns:cc="http://creativecommons.org/ns#"
   xmlns:rdf="http://www.w3.org/1999/02/22-rdf-syntax-ns#"
   xmlns:svg="http://www.w3.org/2000/svg"
   xmlns="http://www.w3.org/2000/svg"
   xmlns:sodipodi="http://sodipodi.sourceforge.net/DTD/sodipodi-0.dtd"
   xmlns:inkscape="http://www.inkscape.org/namespaces/inkscape"
   version="1.1"
   width="66"
   height="100"
   viewBox="0 0 65.999996 100"
   id="svg2"
   xml:space="preserve"
   inkscape:version="0.48.4 r9939"
   sodipodi:docname="8.svg"><sodipodi:namedview
     pagecolor="#ffffff"
     bordercolor="#666666"
     borderopacity="1"
     objecttolerance="10"
     gridtolerance="10"
     guidetolerance="10"
     inkscape:pageopacity="0"
     inkscape:pageshadow="2"
     inkscape:window-width="944"
     inkscape:window-height="1042"
     id="namedview46"
     showgrid="false"
     inkscape:zoom="5.65"
     inkscape:cx="1.5929204"
     inkscape:cy="50"
     inkscape:window-x="960"
     inkscape:window-y="43"
     inkscape:window-maximized="0"
     inkscape:current-layer="svg2"
     width="80px" /><defs
     id="defs3199" /><metadata
     id="metadata3113"><ns:sfw><ns:slices /><ns:sliceSourceBounds
         bottomLeftOrigin="true"
         height="273.306"
         width="646.966"
         y="282.154"
         x="-27.493" /></ns:sfw><rdf:RDF><cc:Work
         rdf:about=""><dc:format>image/svg+xml</dc:format><dc:type
           rdf:resource="http://purl.org/dc/dcmitype/StillImage" /><dc:title /></cc:Work></rdf:RDF></metadata><rect
     width="646.966"
     height="273.306"
     x="-1.6997947e-005"
     y="-173.30603"
     id="rect3195"
     style="fill:none" /><path
     inkscape:connector-curvature="0"
     d="m 59.640728,65.861904 c 0,3.654472 -0.224096,6.754453 -0.676595,9.301379 -0.494158,2.997989 -1.624689,6.077858 -3.388719,9.241046 -1.765466,3.121528 -4.517812,5.688565 -8.254165,7.699674 C 43.706998,94.034667 38.901885,95 32.905907,95 27.075127,95 22.331783,94.034667 18.678747,92.104002 14.940958,90.133116 12.208722,87.566079 10.486351,84.404329 8.7194484,81.2828 7.5688067,78.204366 7.0358629,75.163283 6.5847998,72.288834 6.3592684,69.188852 6.3592684,65.861904 c 0,-2.87445 0.2240949,-5.277725 0.6765945,-7.20839 0.6981421,-2.423386 1.3359509,-4.065312 1.9105535,-4.928653 0.6148247,-1.312966 1.3546256,-2.401839 2.2165296,-3.263742 0.409404,-0.409405 0.871959,-0.831737 1.386229,-1.26269 0.512832,-0.432388 1.015609,-0.871959 1.509768,-1.324459 1.601705,-1.232522 2.401839,-2.319957 2.401839,-3.265179 0,-0.820245 -0.574603,-1.909117 -1.722372,-3.263742 -1.562919,-1.641927 -2.752346,-3.407394 -3.574028,-5.297835 -0.780023,-1.725245 -1.1693159,-4.517813 -1.1693159,-8.377706 0,-8.294389 1.7654659,-14.126604 5.2978359,-17.495212 C 18.866929,6.7252442 24.739368,5 32.910217,5 c 8.172284,0 14.126603,1.6620381 17.867266,4.9889862 3.529497,3.2450678 5.297836,8.9120858 5.297836,17.0024908 0,3.694695 -0.392166,6.428367 -1.169316,8.192396 -0.864777,1.889006 -2.013983,3.655909 -3.450489,5.297836 -1.274181,1.601705 -1.910553,2.814115 -1.910553,3.634361 0,0.86334 0.803007,1.950775 2.404712,3.263743 0.491284,0.494158 0.992625,0.966768 1.509768,1.416395 0.509959,0.452499 0.992625,0.883451 1.447998,1.292855 1.024229,1.354626 1.765466,2.505268 2.216529,3.449052 0.617698,1.068761 1.231087,2.772458 1.848784,5.113963 0.442444,1.728117 0.667976,4.12852 0.667976,7.209826 z m -14.352136,0 c 0,-4.683011 -0.988316,-8.439475 -2.957767,-11.273702 -2.013982,-2.87445 -5.154184,-4.312393 -9.426355,-4.312393 -4.309519,0 -7.390825,1.437943 -9.239609,4.312393 -1.930665,2.587148 -2.895997,6.345048 -2.895997,11.273702 0,4.763455 0.965332,8.417927 2.895997,10.964853 1.848784,2.54549 4.93009,3.818234 9.239609,3.818234 4.435932,0 7.577572,-1.272744 9.426355,-3.818234 1.970887,-2.546926 2.957767,-6.201398 2.957767,-10.964853 z M 41.652794,26.991477 c 0,-3.778011 -0.614825,-6.468589 -1.848783,-8.070294 -1.147769,-1.600268 -3.447616,-2.401838 -6.899541,-2.401838 -3.324076,0 -5.543478,0.903562 -6.65246,2.710687 -1.274182,1.643363 -1.907681,4.457481 -1.907681,8.439476 0,3.983432 0.633499,6.776001 1.907681,8.377706 1.150641,1.930664 3.36717,2.895996 6.65246,2.895996 3.367171,0 5.667018,-1.027101 6.899541,-3.081306 1.233958,-1.847347 1.848783,-4.805114 1.848783,-8.870427 z"
     id="path3185" /></svg>