<?xml version="1.0" encoding="UTF-8" standalone="no"?>
<!-- Created with Inkscape (http://www.inkscape.org/) -->

<svg
   xmlns:dc="http://purl.org/dc/elements/1.1/"
   xmlns:cc="http://creativecommons.org/ns#"
   xmlns:rdf="http://www.w3.org/1999/02/22-rdf-syntax-ns#"
   xmlns:svg="http://www.w3.org/2000/svg"
   xmlns="http://www.w3.org/2000/svg"
   xmlns:sodipodi="http://sodipodi.sourceforge.net/DTD/sodipodi-0.dtd"
   xmlns:inkscape="http://www.inkscape.org/namespaces/inkscape"
   id="svg2"
   version="1.1"
   inkscape:version="0.48.4 r9939"
   width="100"
   height="100"
   sodipodi:docname="checklist.svg">
  <metadata
     id="metadata8">
    <rdf:RDF>
      <cc:Work
         rdf:about="">
        <dc:format>image/svg+xml</dc:format>
        <dc:type
           rdf:resource="http://purl.org/dc/dcmitype/StillImage" />
        <dc:title />
      </cc:Work>
    </rdf:RDF>
  </metadata>
  <defs
     id="defs6" />
  <sodipodi:namedview
     pagecolor="#ffffff"
     bordercolor="#666666"
     borderopacity="1"
     objecttolerance="10"
     gridtolerance="10"
     guidetolerance="10"
     inkscape:pageopacity="0"
     inkscape:pageshadow="2"
     inkscape:window-width="1920"
     inkscape:window-height="1018"
     id="namedview4"
     showgrid="false"
     inkscape:zoom="5.2149125"
     inkscape:cx="33.547281"
     inkscape:cy="47.68862"
     inkscape:window-x="1912"
     inkscape:window-y="-8"
     inkscape:window-maximized="1"
     inkscape:current-layer="svg2"
     showborder="false" />
  <path
     style="fill:#000000"
     d=""
     id="path3011"
     inkscape:connector-curvature="0" />
  <path
     style="fill:#000000"
     d=""
     id="path3009"
     inkscape:connector-curvature="0" />
  <path
     style="fill:#000000"
     d=""
     id="path2989"
     inkscape:connector-curvature="0" />
  <path
     style="fill:#000000"
     d=""
     id="path2987"
     inkscape:connector-curvature="0" />
  <path
     style="fill:#000000"
     d=""
     id="path3813"
     inkscape:connector-curvature="0" />
  <path
     style="fill:#000000"
     d="M 49.90625 0.625 C 48.525258 0.60043135 47.062671 0.83209155 45.875 1.4375 C 43.282836 2.8227854 41.28912 5.5639037 41.03125 8.0625 L 40.90625 9.125 L 39.4375 9.15625 C 38.625494 9.170141 37.248677 9.180648 36.375 9.15625 C 35.029037 9.1186558 34.66772 9.1559673 34 9.53125 C 33.14935 10.009343 32.4375 11.175854 32.4375 12.09375 L 32.4375 12.625 L 28.03125 12.625 C 25.603799 12.62582 23.03731 12.733158 22.34375 12.84375 C 18.755333 13.415997 15.673653 16.242892 14.96875 19.65625 C 14.822484 20.364146 14.77679 31.49813 14.8125 56.65625 L 14.875 92.65625 L 15.34375 93.84375 C 16.246184 96.207464 18.537563 98.388962 20.9375 99.15625 C 21.990154 99.492767 23.45832 99.52235 49.625 99.53125 C 75.92115 99.541188 77.276559 99.529373 78.375 99.1875 C 80.981036 98.376403 83.531446 95.786381 84.3125 93.15625 C 84.591884 92.215416 84.625962 88.526516 84.625 56.1875 C 84.624234 30.993335 84.553884 20.075787 84.40625 19.53125 C 83.482139 16.123182 80.503079 13.365692 77.125 12.8125 C 76.494073 12.709174 73.970797 12.625588 71.5 12.625 L 67 12.625 L 66.875 11.625 C 66.607282 9.6785086 65.375368 9.0392468 62.15625 9.15625 C 61.441177 9.182782 60.335434 9.172278 59.6875 9.15625 L 58.5 9.125 L 58.28125 7.78125 C 57.862371 5.075111 56.044458 2.6591855 53.46875 1.375 C 52.58585 0.93635814 51.287242 0.64956865 49.90625 0.625 z M 49.28125 5.3125 C 51.040627 5.1108376 52.793672 6.2129996 53.5 8.0625 C 53.803692 8.8574983 53.805585 9.0846287 53.59375 10.03125 C 53.322239 11.244486 52.440918 12.401414 51.40625 12.875 C 48.853337 14.0435 46.177609 12.502961 45.71875 9.59375 C 45.466365 7.9936026 46.757134 6.0522699 48.5 5.46875 C 48.748578 5.385521 49.02991 5.3413089 49.28125 5.3125 z M 25.375 18.84375 C 26.013414 18.835274 26.806113 18.84375 27.875 18.84375 L 32.375 18.84375 L 32.46875 20.4375 C 32.564187 22.222359 32.846987 22.963326 33.65625 23.5625 C 34.199398 23.96457 34.326484 23.97854 49.53125 24.03125 C 64.672938 24.083661 64.86715 24.078615 65.5 23.6875 C 66.620559 22.994955 66.875 22.437404 66.875 20.53125 L 66.875 18.84375 L 71.4375 18.84375 C 75.788575 18.84375 76.054446 18.865328 76.875 19.28125 C 77.385005 19.539744 77.892596 19.972897 78.125 20.375 C 78.51565 21.049754 78.5 21.293737 78.5 56.1875 C 78.5 90.958026 78.509205 91.299895 78.125 91.9375 C 77.911598 92.291661 77.435966 92.767294 77.0625 93 L 76.375 93.4375 L 49.78125 93.46875 L 23.21875 93.53125 L 22.53125 93.125 C 21.37283 92.428377 21.038924 91.879881 20.90625 90.5625 C 20.84014 89.903275 20.81169 73.99822 20.84375 55.21875 C 20.901503 21.352264 20.892005 21.048489 21.28125 20.375 C 21.513671 19.972897 22.021262 19.539744 22.53125 19.28125 C 23.145797 18.969761 23.459757 18.869178 25.375 18.84375 z M 36.28125 41.15625 C 32.616559 41.15625 29.59375 44.147809 29.59375 47.8125 L 29.59375 73.84375 C 29.59375 77.508441 32.616559 80.5 36.28125 80.5 L 63.15625 80.5 C 66.820941 80.5 69.84375 77.508441 69.84375 73.84375 L 69.84375 47.8125 C 69.84375 44.147809 66.820941 41.15625 63.15625 41.15625 L 36.28125 41.15625 z M 36.28125 44.78125 L 63.15625 44.78125 C 64.864763 44.78125 66.1875 46.103987 66.1875 47.8125 L 66.1875 73.84375 C 66.1875 75.552263 64.864763 76.84375 63.15625 76.84375 L 36.28125 76.84375 C 34.572737 76.84375 33.25 75.552263 33.25 73.84375 L 33.25 47.8125 C 33.25 46.103987 34.572737 44.78125 36.28125 44.78125 z M 61.9375 48.59375 C 61.081179 48.59375 60.218646 48.906351 59.5625 49.5625 L 44.3125 64.84375 L 40.0625 59.75 C 38.869567 58.328318 36.765442 58.15082 35.34375 59.34375 C 33.922084 60.53668 33.744565 62.640819 34.9375 64.0625 L 41.46875 71.84375 C 42.151755 72.657717 43.143494 73.086048 44.125 73.0625 C 44.998989 73.07642 45.861493 72.732257 46.53125 72.0625 L 64.3125 54.3125 C 65.624801 53.0002 65.624801 50.874798 64.3125 49.5625 C 63.656354 48.906351 62.793807 48.59375 61.9375 48.59375 z "
     id="path4061" />
</svg>
