<?xml version="1.0" encoding="UTF-8" standalone="no"?>
<svg
   xmlns:dc="http://purl.org/dc/elements/1.1/"
   xmlns:cc="http://creativecommons.org/ns#"
   xmlns:rdf="http://www.w3.org/1999/02/22-rdf-syntax-ns#"
   xmlns:svg="http://www.w3.org/2000/svg"
   xmlns="http://www.w3.org/2000/svg"
   xmlns:sodipodi="http://sodipodi.sourceforge.net/DTD/sodipodi-0.dtd"
   xmlns:inkscape="http://www.inkscape.org/namespaces/inkscape"
   version="1.1"
   height="20"
   width="20"
   id="svg2"
   sodipodi:docname="checklist.svg"
   inkscape:version="0.92.1 r15371">
  <sodipodi:namedview
     pagecolor="#ffffff"
     bordercolor="#666666"
     borderopacity="1"
     objecttolerance="10"
     gridtolerance="10"
     guidetolerance="10"
     inkscape:pageopacity="0"
     inkscape:pageshadow="2"
     inkscape:window-width="828"
     inkscape:window-height="480"
     id="namedview6"
     showgrid="false"
     inkscape:zoom="11.8"
     inkscape:cx="10"
     inkscape:cy="10"
     inkscape:window-x="0"
     inkscape:window-y="0"
     inkscape:window-maximized="0"
     inkscape:current-layer="svg2" />
  <metadata
     id="metadata8">
    <rdf:RDF>
      <cc:Work
         rdf:about="">
        <dc:format>image/svg+xml</dc:format>
        <dc:type
           rdf:resource="http://purl.org/dc/dcmitype/StillImage" />
        <dc:title />
      </cc:Work>
    </rdf:RDF>
  </metadata>
  <defs
     id="defs6" />
  <path
     id="path4061"
     d="M 4.2755266,19.868612 C 3.795099,19.715014 3.3321284,19.276072 3.1514755,18.802895 L 3.0606884,18.565113 3.0504242,11.361009 C 3.0433182,6.3247675 3.0527928,4.0959064 3.0820626,3.9541973 3.2231725,3.2708993 3.8375058,2.7006012 4.5558479,2.5860468 4.6946872,2.5639078 5.2058667,2.545659 5.691802,2.5454943 l 0.8835231,-3.002e-4 0,-0.1042445 c 0,-0.1837477 0.1428175,-0.4181148 0.3131035,-0.5138211 0.1336667,-0.075126 0.2062964,-0.087308 0.4757366,-0.079781 0.1748963,0.00488 0.4509873,0.00663 0.6135383,0.00385 l 0.295546,-0.00507 0.02228,-0.2159433 c 0.05162,-0.5001777 0.452934,-1.04706427 0.971842,-1.32437555 0.475505,-0.24238559 1.1668185,-0.18932871 1.5203025,-0.013711 0.515614,0.25707276 0.879862,0.74243435 0.963715,1.28415885 l 0.04177,0.2698532 0.235829,0.00556 c 0.129705,0.0032 0.352947,0.00142 0.496092,-0.00389 0.644414,-0.023421 0.888863,0.1048288 0.942457,0.4944845 l 0.02792,0.2029094 0.899294,2.403e-4 c 0.494613,1.177e-4 1.002633,0.017148 1.128935,0.037832 0.676236,0.1107403 1.271021,0.6583893 1.456013,1.3406284 0.02955,0.1090077 0.04218,2.2992344 0.04234,7.3426917 1.93e-4,6.473737 -0.006,7.208108 -0.06188,7.396447 -0.156355,0.526509 -0.668291,1.046626 -1.189976,1.208994 -0.21989,0.06843 -0.487547,0.07168 -5.751602,0.06969 -5.238139,-0.0018 -5.532362,-0.0058 -5.7430867,-0.07307 z M 15.507677,18.635761 c 0.07476,-0.04658 0.170882,-0.142704 0.213602,-0.213601 0.07691,-0.127638 0.07767,-0.197755 0.07767,-7.158241 0,-6.9851561 -3.61e-4,-7.0301965 -0.07856,-7.1652711 -0.04653,-0.080495 -0.148862,-0.1715589 -0.250957,-0.2233051 -0.164261,-0.08326 -0.215508,-0.087382 -1.086522,-0.087382 l -0.914129,0 0,0.3398168 c 0,0.3815805 -0.0479,0.4926804 -0.272223,0.6313164 -0.126686,0.078294 -0.166023,0.079139 -3.1971395,0.068648 C 6.9556748,4.8171961 6.9296466,4.8164415 6.8209175,4.7359546 6.6589161,4.616009 6.6018586,4.4656583 6.5827537,4.108359 l -0.017145,-0.3203981 -0.899551,0 c -0.8558944,0 -0.9079157,0.00424 -1.0719451,0.087382 -0.1020887,0.051746 -0.2044281,0.1428107 -0.2509542,0.223305 -0.077917,0.1348214 -0.078651,0.1915764 -0.090212,6.9710891 -0.00643,3.75934 -7.207e-4,6.943132 0.012509,7.075097 0.026563,0.263718 0.097363,0.374183 0.3292611,0.513635 l 0.1359259,0.08174 5.3205556,-0.0099 5.32055,-0.0099 0.135926,-0.0847 z m -2.704554,-1.681978 c -0.04571,-0.01846 -0.2598,-0.264207 -0.475743,-0.546127 -0.318768,-0.416158 -0.392629,-0.537233 -0.392629,-0.643627 0,-0.236727 0.25918,-0.393356 0.447123,-0.27021 0.05336,0.03498 0.188229,0.185441 0.299693,0.334387 0.111462,0.148946 0.215811,0.270813 0.231882,0.270813 0.01607,0 0.241295,-0.28399 0.500492,-0.631089 0.259197,-0.347096 0.50621,-0.661669 0.548918,-0.699048 0.105608,-0.09243 0.321439,-0.08743 0.418572,0.0097 0.07672,0.07672 0.0944,0.141834 0.07845,0.288994 -0.01072,0.09855 -1.301888,1.813335 -1.411655,1.874745 -0.09858,0.05516 -0.132853,0.05676 -0.245098,0.01145 z M 5.4711516,16.450628 c -0.15476,-0.102022 -0.2132083,-0.220635 -0.2148415,-0.436011 -0.0018,-0.223826 0.1287285,-0.399014 0.3409363,-0.45795 0.089828,-0.02495 0.960324,-0.03982 2.3373831,-0.03992 2.4212475,-1.53e-4 2.3563675,-0.0064 2.5410065,0.245319 0.100126,0.136526 0.101627,0.394204 0.0032,0.544473 -0.147505,0.225119 -0.08343,0.219694 -2.5907915,0.219415 -2.211033,-2.4e-4 -2.3075196,-0.0032 -2.4168624,-0.07533 z m 7.2985774,-2.260323 c -0.04272,-0.02165 -0.248067,-0.266954 -0.456323,-0.545182 -0.295847,-0.395238 -0.378655,-0.533211 -0.378655,-0.630914 0,-0.17035 0.135784,-0.293934 0.322944,-0.293934 0.129659,0 0.160582,0.02264 0.327603,0.239956 0.101435,0.131977 0.219382,0.280738 0.262103,0.33058 l 0.07767,0.09062 0.485452,-0.648218 c 0.266997,-0.356518 0.519332,-0.680043 0.560739,-0.718941 0.207829,-0.195234 0.591916,0.0633 0.490466,0.330141 -0.05154,0.135531 -1.348345,1.838122 -1.4214,1.866158 -0.08682,0.0333 -0.178294,0.02645 -0.270602,-0.02025 z M 5.5430403,13.692388 C 5.4985773,13.674386 5.415566,13.604263 5.3585649,13.536526 5.222621,13.374963 5.2135513,13.094048 5.3391307,12.934404 5.508882,12.718596 5.488612,12.720275 7.9276415,12.720275 l 2.2480005,0 0.131959,0.08816 c 0.331913,0.22173 0.335731,0.633079 0.0079,0.849242 -0.102991,0.0679 -0.234142,0.07171 -2.4002705,0.06963 -1.2602385,-0.0011 -2.3277159,-0.01693 -2.3721755,-0.0349 z m 7.1772457,-2.282835 c -0.04261,-0.03738 -0.23678,-0.281332 -0.431501,-0.54212 -0.267254,-0.357934 -0.354034,-0.50354 -0.354034,-0.59402 0,-0.224103 0.26221,-0.3813556 0.458881,-0.2752003 0.03597,0.01943 0.161526,0.1674803 0.279008,0.3290213 0.117478,0.161542 0.223861,0.294203 0.236403,0.294802 0.01255,7.2e-4 0.24811,-0.298234 0.523486,-0.6640688 0.275375,-0.3658375 0.539653,-0.6906918 0.587285,-0.7218998 0.104909,-0.068741 0.28667,-0.037647 0.379491,0.064923 0.07026,0.077628 0.09101,0.2685093 0.03866,0.3553421 -0.06985,0.1158308 -1.19897,1.6135395 -1.29247,1.7143875 -0.116703,0.125877 -0.306251,0.143189 -0.425198,0.03883 z M 5.5021923,10.859829 C 5.3215778,10.748942 5.254934,10.630324 5.254934,10.419729 c 0,-0.157748 0.020246,-0.208215 0.1329244,-0.331175 L 5.520784,9.9434898 7.8364855,9.9328985 c 2.6410905,-0.012085 2.5295845,-0.02442 2.6709685,0.2952075 0.09492,0.214557 0.05407,0.397121 -0.127813,0.571407 l -0.119906,0.114893 -2.3179295,0.01004 c -2.2287826,0.0097 -2.3226062,0.0072 -2.4396132,-0.06463 z M 12.719402,8.6133531 C 12.676308,8.5759705 12.482133,8.330245 12.287901,8.0672899 12.012654,7.6946575 11.934751,7.5612192 11.934751,7.4623902 c 0,-0.2174656 0.226425,-0.3553886 0.445445,-0.2713436 0.0349,0.013404 0.169344,0.1634735 0.298793,0.333528 0.12945,0.1700508 0.248425,0.2945374 0.264389,0.2766374 0.01597,-0.017897 0.240488,-0.3150468 0.49894,-0.6603252 0.258453,-0.3452781 0.509468,-0.65548 0.55781,-0.6893405 0.227497,-0.1593453 0.48498,0.025276 0.463447,0.3323015 -0.0051,0.071425 -1.199707,1.6736539 -1.349684,1.8100867 -0.114918,0.1045367 -0.286618,0.1129858 -0.394489,0.01943 z M 5.5429117,8.0824056 C 5.3506401,7.9986917 5.254934,7.8459921 5.254934,7.6229331 c 0,-0.1730063 0.015972,-0.2094906 0.150775,-0.3442906 l 0.1507785,-0.1507749 2.317249,0 c 2.5228525,0 2.4575245,-0.00549 2.6050685,0.2196721 0.09846,0.1502688 0.09696,0.4079476 -0.0032,0.5444731 C 10.290655,8.1442479 10.360529,8.1376384 7.8958035,8.136027 6.1146397,8.134966 5.6384791,8.1240145 5.542923,8.0824051 Z M 10.370686,2.5945744 c 0.207124,-0.094804 0.385645,-0.325346 0.439996,-0.5682159 0.04241,-0.189498 0.03984,-0.2383635 -0.02096,-0.3975091 -0.161592,-0.4231308 -0.59679,-0.64850701 -0.9948805,-0.5152185 -0.348893,0.116811 -0.61249,0.5030084 -0.561967,0.8233315 0.09186,0.5823761 0.62675,0.8915265 1.1378015,0.657612 z"
     style="fill:#000000" />
</svg>
