<?xml version="1.0" encoding="UTF-8" standalone="no"?>
<svg
   xmlns:dc="http://purl.org/dc/elements/1.1/"
   xmlns:cc="http://creativecommons.org/ns#"
   xmlns:rdf="http://www.w3.org/1999/02/22-rdf-syntax-ns#"
   xmlns:svg="http://www.w3.org/2000/svg"
   xmlns="http://www.w3.org/2000/svg"
   xmlns:sodipodi="http://sodipodi.sourceforge.net/DTD/sodipodi-0.dtd"
   xmlns:inkscape="http://www.inkscape.org/namespaces/inkscape"
   version="1.1"
   viewBox="0 0 100 100"
   id="svg2"
   inkscape:version="0.48.4 r9939"
   width="100%"
   height="100%"
   sodipodi:docname="colloapse.svg">
  <metadata
     id="metadata51">
    <rdf:RDF>
      <cc:Work
         rdf:about="">
        <dc:format>image/svg+xml</dc:format>
        <dc:type
           rdf:resource="http://purl.org/dc/dcmitype/StillImage" />
        <dc:title>smartphone</dc:title>
      </cc:Work>
    </rdf:RDF>
  </metadata>
  <defs
     id="defs49" />
  <sodipodi:namedview
     pagecolor="#ffffff"
     bordercolor="#666666"
     borderopacity="1"
     objecttolerance="10"
     gridtolerance="10"
     guidetolerance="10"
     inkscape:pageopacity="0"
     inkscape:pageshadow="2"
     inkscape:window-width="1920"
     inkscape:window-height="1059"
     id="namedview47"
     showgrid="false"
     inkscape:zoom="3.8133336"
     inkscape:cx="24.584106"
     inkscape:cy="54.750188"
     inkscape:window-x="2560"
     inkscape:window-y="21"
     inkscape:window-maximized="1"
     inkscape:current-layer="svg2"
     inkscape:snap-bbox="true"
     fit-margin-top="0"
     fit-margin-left="0"
     fit-margin-right="0"
     fit-margin-bottom="0" />
  <title>smartphone</title>
  <path
     style="fill:#000000"
     d=""
     id="path5256"
     inkscape:connector-curvature="0" />
  <path
     style="fill:#000000"
     d="m 92.777361,2.7686079 c 6.865365,3.715061 7.140024,5.542022 7.140024,47.4933821 0,42.200712 -0.260223,43.874375 -7.39365,47.553265 -5.387453,2.778445 -78.948004,2.778445 -84.335462,0 C 1.054854,94.136365 0.79461896,92.462702 0.79461896,50.26199 0.79461896,8.0612779 1.054854,6.3876189 8.188273,2.7087259 13.507225,-0.03439012 87.694528,0.01812988 92.777361,2.7686559 z M 12.19375,12.202642 c -2.123805,2.118077 -2.123805,74.000622 0,76.118693 2.123791,2.118072 74.200719,2.118072 76.324518,0 2.123799,-2.118071 2.123799,-74.000616 0,-76.118693 -2.123799,-2.118064 -74.200727,-2.118064 -76.324518,0 z m 50.333744,34.887187 c 5.572124,7.770148 10.131132,14.998952 10.131132,16.064009 0,1.686442 -2.879596,1.936469 -22.302627,1.936469 -19.423017,0 -22.302621,-0.250027 -22.302621,-1.936469 0,-3.095892 20.015674,-30.19155 22.302621,-30.19155 1.184716,0 6.288943,5.924513 12.171495,14.127541 z"
     id="path5368"
     inkscape:connector-curvature="0" />
</svg>
