<?xml version="1.0" encoding="UTF-8" standalone="no"?>
<svg
   xmlns:dc="http://purl.org/dc/elements/1.1/"
   xmlns:cc="http://creativecommons.org/ns#"
   xmlns:rdf="http://www.w3.org/1999/02/22-rdf-syntax-ns#"
   xmlns:svg="http://www.w3.org/2000/svg"
   xmlns="http://www.w3.org/2000/svg"
   xmlns:xlink="http://www.w3.org/1999/xlink"
   xmlns:sodipodi="http://sodipodi.sourceforge.net/DTD/sodipodi-0.dtd"
   xmlns:inkscape="http://www.inkscape.org/namespaces/inkscape"
   version="1.1"
   viewBox="0 0 100 100"
   id="svg2"
   inkscape:version="0.48.4 r9939"
   width="100%"
   height="100%"
   sodipodi:docname="car.svg">
  <metadata
     id="metadata51">
    <rdf:RDF>
      <cc:Work
         rdf:about="">
        <dc:format>image/svg+xml</dc:format>
        <dc:type
           rdf:resource="http://purl.org/dc/dcmitype/StillImage" />
        <dc:title>customer</dc:title>
      </cc:Work>
    </rdf:RDF>
  </metadata>
  <defs
     id="defs49">
    <linearGradient
       inkscape:collect="always"
       xlink:href="#linearGradient3802-1"
       id="linearGradient3860"
       gradientUnits="userSpaceOnUse"
       gradientTransform="matrix(8.1388236,0,0,8.2087572,43.862514,-237.13826)"
       x1="54.909092"
       y1="98.909088"
       x2="56.909103"
       y2="57.63636" />
    <linearGradient
       inkscape:collect="always"
       id="linearGradient3802-1">
      <stop
         style="stop-color:#2d2d2d;stop-opacity:1"
         offset="0"
         id="stop3804-7" />
      <stop
         style="stop-color:#b0b0b0;stop-opacity:1"
         offset="1"
         id="stop3806-4" />
    </linearGradient>
  </defs>
  <sodipodi:namedview
     pagecolor="#ffffff"
     bordercolor="#666666"
     borderopacity="1"
     objecttolerance="10"
     gridtolerance="10"
     guidetolerance="10"
     inkscape:pageopacity="0"
     inkscape:pageshadow="2"
     inkscape:window-width="2479"
     inkscape:window-height="1410"
     id="namedview47"
     showgrid="false"
     inkscape:zoom="2.696434"
     inkscape:cx="360.41919"
     inkscape:cy="-103.51398"
     inkscape:window-x="81"
     inkscape:window-y="30"
     inkscape:window-maximized="1"
     inkscape:current-layer="svg2"
     inkscape:snap-bbox="true"
     fit-margin-top="0"
     fit-margin-left="0"
     fit-margin-right="0"
     fit-margin-bottom="0" />
  <title>customer</title>
  <path
     inkscape:connector-curvature="0"
     id="path3066"
     d="m 5.9467241,97.419014 c -2.4631,-4.399697 -4.33924,-7.983497 -4.73178,-9.038657 -0.52026001,-1.39841 -0.52345001,-3.67129 -0.008,-5.34186 0.67137,-2.1739 3.90792,-7.72921 11.8318249,-20.308431 7.22382,-11.467838 7.8854,-12.465223 9.09702,-13.71441 1.36341,-1.405656 1.56651,-1.514017 5.49577,-2.932575 8.32693,-3.006218 17.33321,-4.268752 26.56874,-3.724491 7.37772,0.434773 12.55808,1.494777 19.63494,4.017682 3.08186,1.098675 3.32562,1.226354 4.6295,2.424826 1.23869,1.138555 2.32522,2.684857 4.796145,6.825754 0.98997,1.65903 4.2104,6.913474 7.15651,11.676502 9.14342,14.782373 9.587116,15.672573 9.43941,18.938523 -0.0888,1.96304 -0.20449,2.22355 -4.27251,9.61924 l -2.16709,3.939797 c -61.309525,0.10041 -23.393355,-0.13458 -79.713195,0.002 l -6.4231249,0 z M 47.363429,38.315503 c -3.43363,-0.738641 -6.48308,-2.493161 -8.95819,-5.154122 -1.44925,-1.558108 -2.11615,-2.525878 -3.10062,-4.499502 -1.92282,-3.854792 -2.60475,-8.546571 -1.8685,-12.85562 1.25909,-7.3690514 5.93525,-13.0216118 12.48287,-15.08935176 1.25515,-0.39638 1.80478,-0.65284831 4.41101,-0.65284831 2.60624,0 3.22143,0.25647831 4.47658,0.65284831 6.54762,2.06773996 11.22376,7.72030036 12.48285,15.08935176 0.88757,5.194655 -0.34983,11.054276 -3.2205,15.250449 -1.48841,2.175663 -4.20385,4.602077 -6.39536,5.714655 -2.40012,1.21849 -3.88899,1.577634 -6.82702,1.646844 -1.49,0.03511 -3.0574,-0.01112 -3.48312,-0.10264 z"
     sodipodi:nodetypes="ssssssssssssscccscsssssssssscc" />
</svg>
