<?xml version="1.0" encoding="UTF-8" standalone="no"?>
<svg
   xmlns:dc="http://purl.org/dc/elements/1.1/"
   xmlns:cc="http://creativecommons.org/ns#"
   xmlns:rdf="http://www.w3.org/1999/02/22-rdf-syntax-ns#"
   xmlns:svg="http://www.w3.org/2000/svg"
   xmlns="http://www.w3.org/2000/svg"
   id="svg4708"
   version="1.1"
   width="48"
   viewBox="0 0 24 24"
   height="48"
   fill="#000000">
  <metadata
     id="metadata4714">
    <rdf:RDF>
      <cc:Work
         rdf:about="">
        <dc:format>image/svg+xml</dc:format>
        <dc:type
           rdf:resource="http://purl.org/dc/dcmitype/StillImage" />
        <dc:title></dc:title>
      </cc:Work>
    </rdf:RDF>
  </metadata>
  <defs
     id="defs4712" />
  <path
     id="path4706"
     fill="none"
     d="M0 0h24v24H0z" />
  <g
     transform="translate(0,-1)"
     id="g4604"
     style="fill:#000000">
    <path
       d="M 0,1 H 24 V 25 H 0 Z"
       id="path4487"
       style="fill:none" />
    <path
       style="opacity:1;fill:#000000;fill-opacity:0.98387098;stroke:none;stroke-width:0.09709064;stroke-miterlimit:4;stroke-dasharray:none;stroke-opacity:1"
       d="m 11.996358,1.407879 c 0.774371,0.00411 1.098356,0.5126807 1.106372,0.9870242 0.008,0.4743435 0,22.1700788 0,22.1700788 h -2.212743 c 0,0 -0.01001,-21.7265672 0,-22.1700788 0.01001,-0.4435116 0.34195,-0.9910821 1.106371,-0.9870242 z"
       id="rect4497" />
    <g
       id="g4535"
       transform="translate(0,2)">
      <path
         id="rect4499"
         d="M 2.6917923,1.3067812 H 10.182093 V 4.9344538 H 2.6917923 L 0.15094346,3.1793365 Z"
         style="opacity:1;fill:#000000;fill-opacity:1;stroke:none;stroke-width:0.16076906;stroke-miterlimit:4;stroke-dasharray:none;stroke-opacity:1" />
      <path
         id="rect4499-2"
         d="M 2.6917924,6.8101232 H 10.182093 V 10.437796 H 2.6917924 L 0.15094363,8.6826786 Z"
         style="opacity:1;fill:#000000;fill-opacity:1;stroke:none;stroke-width:0.16076906;stroke-miterlimit:4;stroke-dasharray:none;stroke-opacity:1" />
    </g>
    <path
       style="opacity:1;fill:#000000;fill-opacity:1;stroke:none;stroke-width:0.16076906;stroke-miterlimit:4;stroke-dasharray:none;stroke-opacity:1"
       d="m 21.300924,5.0423254 h -7.4903 v 3.6276731 h 7.4903 l 2.540849,-1.7551177 z"
       id="rect4499-2-8" />
  </g>
</svg>
