<?xml version="1.0" encoding="UTF-8" standalone="no"?>
<svg
   xmlns:dc="http://purl.org/dc/elements/1.1/"
   xmlns:cc="http://creativecommons.org/ns#"
   xmlns:rdf="http://www.w3.org/1999/02/22-rdf-syntax-ns#"
   xmlns:svg="http://www.w3.org/2000/svg"
   xmlns="http://www.w3.org/2000/svg"
   xmlns:sodipodi="http://sodipodi.sourceforge.net/DTD/sodipodi-0.dtd"
   xmlns:inkscape="http://www.inkscape.org/namespaces/inkscape"
   version="1.1"
   viewBox="0 0 100 100"
   id="svg2"
   inkscape:version="0.91 r13725"
   width="100%"
   height="100%"
   sodipodi:docname="eco-price.svg">
  <metadata
     id="metadata51">
    <rdf:RDF>
      <cc:Work
         rdf:about="">
        <dc:format>image/svg+xml</dc:format>
        <dc:type
           rdf:resource="http://purl.org/dc/dcmitype/StillImage" />
        <dc:title>remember-me-active</dc:title>
      </cc:Work>
    </rdf:RDF>
  </metadata>
  <defs
     id="defs49" />
  <sodipodi:namedview
     pagecolor="#ffffff"
     bordercolor="#666666"
     borderopacity="1"
     objecttolerance="10"
     gridtolerance="10"
     guidetolerance="10"
     inkscape:pageopacity="0"
     inkscape:pageshadow="2"
     inkscape:window-width="2479"
     inkscape:window-height="1410"
     id="namedview47"
     showgrid="false"
     inkscape:zoom="0.7071068"
     inkscape:cx="361.71722"
     inkscape:cy="-367.37108"
     inkscape:window-x="81"
     inkscape:window-y="30"
     inkscape:window-maximized="1"
     inkscape:current-layer="svg2"
     inkscape:snap-bbox="true"
     fit-margin-top="0"
     fit-margin-left="0"
     fit-margin-right="0"
     fit-margin-bottom="0"
     units="px"
     showguides="true"
     inkscape:guide-bbox="true"
     showborder="true" />
  <title
     id="title3003">remember-me-active</title>
  <g
     id="g3023"
     transform="matrix(0.19545769,0,0,0.1954644,8.2313352,31.412013)" />
  <g
     id="g7792"
     transform="matrix(0.88616432,0,0,0.88616432,-1492.3841,73.914796)" />
  <path
     inkscape:connector-curvature="0"
     style="font-style:normal;font-weight:normal;font-size:242.0990448px;line-height:125%;font-family:sans-serif;letter-spacing:0px;word-spacing:0px;fill:#000000;fill-opacity:1;stroke:none;stroke-width:1px;stroke-linecap:butt;stroke-linejoin:miter;stroke-opacity:1"
     d="m 13.343571,15.001186 c -1.676247,-8.41e-4 -3.3705747,0.07117 -5.0796628,0.211777 -4.4877505,0.604276 -9.7896138,2.53874 -6.9812216,2.547198 1.2621705,0.004 3.2652122,1.064336 4.1711404,2.208162 1.3358337,1.686628 1.7492952,2.997606 2.6793778,8.501975 1.4395969,8.51976 2.1964882,12.057133 3.5210762,16.452649 3.189346,10.583529 8.228701,17.097849 14.848852,19.195413 2.523482,0.799542 7.639256,0.78695 10.661004,-0.02657 1.159083,-0.312033 2.142665,-0.531795 2.186053,-0.488404 0.04337,0.04338 0.198822,1.035532 0.345424,2.204719 0.529818,4.225395 0.615755,9.790939 0.124505,16.212364 -0.267095,3.491367 -0.475185,13.556074 -0.326372,15.033485 0.03144,0.312108 0.468386,0.363665 1.050626,0.35678 0.815155,-0.0096 1.161398,-0.06329 1.305495,-0.715269 0.380354,-1.72091 -1.289068,-12.449859 0.286448,-15.572013 1.510952,-2.99419 4.827912,-8.549926 5.825392,-9.620837 0.701863,-1.310626 5.044311,-5.994797 6.836746,-7.010951 0.743584,1.435919 1.525482,2.746437 2.66513,4.117683 1.358975,1.635145 2.888063,3.021356 4.587323,4.158851 1.711393,1.152107 3.585026,2.061952 5.620646,2.729492 l 7.440643,-6.062367 c -2.287427,-0.19303 -4.304299,-0.692319 -6.050589,-1.497664 -1.718104,-0.803828 -3.177749,-1.928309 -4.378987,-3.373663 -1.528846,-1.839548 -2.337797,-3.800878 -2.426327,-5.883529 -0.07639,-2.068053 0.561559,-4.264829 1.913351,-6.590597 l 5.441793,6.547842 6.315432,-1.876987 -7.808177,-9.394767 c 0.260768,-0.236964 0.505425,-0.460887 0.734089,-0.671688 l 0.698711,-0.568986 1.300135,-1.059376 c 0.301088,-0.220846 0.592027,-0.421345 0.873144,-0.601416 l 8.973188,10.796119 6.260399,-1.942338 -9.809971,-11.803902 c 2.440279,-0.886489 4.690159,-1.078814 6.749297,-0.577343 2.087327,0.502977 3.901306,1.681668 5.442289,3.535814 1.201238,1.445355 2.03912,3.100777 2.513296,4.967138 0.490231,1.853293 0.600487,3.881668 0.331178,6.084489 l 7.440639,-6.062868 C 99.35535,47.355222 98.814102,45.359976 98.001683,43.475384 97.201397,41.605377 96.122116,39.852503 94.763141,38.217345 91.584106,34.392271 87.873214,32.016658 83.63043,31.090682 79.399782,30.17932 74.842722,30.77042 69.959364,32.863998 l -2.348201,-2.824814 -6.296759,1.899096 3.384968,4.072869 c -0.252928,0.181603 -0.513749,0.369888 -0.782733,0.564573 l -1.083446,0.882964 -1.05986,0.863321 c -0.228662,0.210802 -0.449251,0.415001 -0.661861,0.612722 l -1.783629,-2.146254 -6.297249,1.899097 3.949539,4.75193 c -3.022981,4.299625 -4.499559,8.613104 -4.430581,12.939934 0.05874,2.616724 0.496997,4.734262 1.68212,7.167053 -0.257212,0.18697 -0.71116,0.939608 -1.073125,1.215706 -4.430992,4.049901 -5.931384,5.503253 -10.313815,12.687174 -0.739751,1.285412 -1.017055,1.594111 -1.130125,1.257881 -0.08242,-0.245056 -0.07496,-4.011747 0.0167,-8.370297 0.21126,-10.044468 -0.02962,-12.96436 -1.534021,-18.616579 C 36.348391,37.622761 26.604838,28.41056 13.672775,20.688133 c -0.4151,-0.21705 -0.641518,-0.398952 -0.50315,-0.404388 0.473377,-0.01857 7.293075,3.561637 9.406074,4.938157 3.90515,2.544026 7.917828,6.082822 10.649701,9.391337 5.0492,6.367826 8.430791,16.68907 10.604498,26.09014 C 47.009385,60.929661 49.70352,45.05777 49.610239,42.160501 49.395794,34.256554 45.173573,26.944168 38.397931,22.07917 30.92,17.135118 22.395285,15.005591 13.343564,15.001158 Z"
     id="text4164"
     sodipodi:nodetypes="cccssssccssssssccsccccscccccccccccccsccccscccccccccccccccccscccscccccc" />
</svg>
