<?xml version="1.0" encoding="UTF-8" standalone="no"?>
<svg
   xmlns:dc="http://purl.org/dc/elements/1.1/"
   xmlns:cc="http://creativecommons.org/ns#"
   xmlns:rdf="http://www.w3.org/1999/02/22-rdf-syntax-ns#"
   xmlns:svg="http://www.w3.org/2000/svg"
   xmlns="http://www.w3.org/2000/svg"
   xmlns:sodipodi="http://sodipodi.sourceforge.net/DTD/sodipodi-0.dtd"
   xmlns:inkscape="http://www.inkscape.org/namespaces/inkscape"
   version="1.1"
   viewBox="0 0 100 100"
   id="svg2"
   inkscape:version="0.48.4 r9939"
   width="100%"
   height="100%"
   sodipodi:docname="email.svg">
  <metadata
     id="metadata51">
    <rdf:RDF>
      <cc:Work
         rdf:about="">
        <dc:format>image/svg+xml</dc:format>
        <dc:type
           rdf:resource="http://purl.org/dc/dcmitype/StillImage" />
        <dc:title>smartphone</dc:title>
      </cc:Work>
    </rdf:RDF>
  </metadata>
  <defs
     id="defs49" />
  <sodipodi:namedview
     pagecolor="#ffffff"
     bordercolor="#666666"
     borderopacity="1"
     objecttolerance="10"
     gridtolerance="10"
     guidetolerance="10"
     inkscape:pageopacity="0"
     inkscape:pageshadow="2"
     inkscape:window-width="1920"
     inkscape:window-height="1059"
     id="namedview47"
     showgrid="false"
     inkscape:zoom="3.8133336"
     inkscape:cx="99.760315"
     inkscape:cy="35.793954"
     inkscape:window-x="2560"
     inkscape:window-y="21"
     inkscape:window-maximized="1"
     inkscape:current-layer="svg2"
     inkscape:snap-bbox="true"
     fit-margin-top="0"
     fit-margin-left="0"
     fit-margin-right="0"
     fit-margin-bottom="0" />
  <title>smartphone</title>
  <path
     d="m 74.57398,77.376983 c -2.317156,5e-6 -4.441143,-0.299931 -6.371964,-0.89981 -1.930971,-0.67485 -3.552923,-1.687136 -4.865863,-3.036858 -1.699259,1.199754 -3.707391,2.099564 -6.024403,2.69943 -2.239906,0.599878 -4.595596,0.899816 -7.067087,0.89981 -3.784614,6e-6 -7.260229,-0.562375 -10.42685,-1.687143 C 36.728329,74.227658 34.025077,72.540513 31.708039,70.29098 29.46816,68.041469 27.730356,65.267058 26.494613,61.967737 25.258806,58.593472 24.64092,54.6943 24.640952,50.270206 c -3.2e-5,-3.674188 0.617854,-7.123459 1.853661,-10.347815 1.235743,-3.299259 3.012168,-6.148655 5.329281,-8.548195 2.394273,-2.399442 5.290618,-4.274045 8.689041,-5.623813 3.475569,-1.424641 7.414594,-2.136991 11.817098,-2.137049 4.247913,5.8e-5 8.071087,0.337485 11.469534,1.012285 3.398309,0.674914 6.101561,1.387263 8.109773,2.137049 l 0,34.86764 c -7.7e-5,2.099575 0.3861,3.561765 1.158538,4.386575 0.849516,0.749857 1.969436,1.124776 3.359763,1.124761 3.321059,1.5e-5 5.908459,-1.987064 7.762212,-5.96124 C 86.120659,57.131283 87.086108,51.357505 87.0862,43.85906 87.086108,39.210085 86.236514,34.898499 84.537415,30.92429 82.91537,26.875198 80.521058,23.388439 77.354473,20.463998 74.18772,17.53968 70.325927,15.252664 65.769084,13.602947 c -4.479751,-1.724568 -9.538699,-2.586884 -15.17686,-2.586954 -5.561039,7e-5 -10.697222,0.89988 -15.408567,2.69943 -4.634195,1.799685 -8.650458,4.386639 -12.048806,7.760862 -3.321172,3.374344 -5.947191,7.498469 -7.878064,12.372388 -1.853683,4.874015 -2.780513,10.385345 -2.780494,16.53401 -1.9e-5,6.448664 0.965429,12.109961 2.896347,16.983914 1.930874,4.798997 4.63413,8.810645 8.109773,12.03496 3.552818,3.224317 7.762174,5.661301 12.628076,7.310958 4.943049,1.649644 10.426795,2.474469 16.45125,2.474477 4.170679,-8e-6 7.839381,-0.262464 11.006121,-0.787335 3.243836,-0.44991 5.676765,-0.862323 7.298796,-1.237238 l 1.390245,9.448005 c -0.849671,0.224953 -1.969593,0.487382 -3.359763,0.787334 -1.313084,0.299922 -2.857803,0.562365 -4.634156,0.787335 -1.699259,0.299919 -3.55292,0.524872 -5.560985,0.674857 -2.008199,0.224924 -4.054947,0.337412 -6.140258,0.337428 C 45.378746,99.197362 38.620609,98.260061 32.28731,96.385473 26.031166,94.510855 20.54742,91.586476 15.836056,87.612323 11.201883,83.638161 7.4945619,78.576736 4.7140823,72.428029 2.0108163,66.279343 0.65918886,58.930901 0.6591961,50.382683 0.65918886,42.209447 2.0494341,35.048465 4.8299361,28.899717 7.6104155,22.676092 11.317736,17.53968 15.95191,13.49047 20.586039,9.3664132 25.876693,6.2920659 31.823894,4.2674173 37.848253,2.1679411 44.104356,1.1181637 50.592224,1.118082 c 6.719461,8.17e-5 13.014183,0.9748741 18.884185,2.9243829 5.869847,1.9496633 10.967416,4.7990609 15.292712,8.5481951 4.325116,3.67429 7.723493,8.210828 10.195144,13.609627 2.548682,5.398912 3.823075,11.547606 3.823178,18.446107 -1.03e-4,5.323909 -0.61799,10.010416 -1.853663,14.059531 -1.158639,4.049165 -2.819209,7.460943 -4.981717,10.235339 -2.162701,2.774426 -4.711484,4.87398 -7.646355,6.298671 -2.935056,1.424703 -6.178962,2.137053 -9.731728,2.137048 M 59.628826,65.117073 c -0.154553,-0.824808 -0.309006,-1.762109 -0.463413,-2.811908 -0.07731,-1.049757 -0.115921,-2.062043 -0.115844,-3.036859 l 0,-24.744776 c -1.544783,-0.374871 -3.552915,-0.562333 -6.024403,-0.562381 -2.626079,4.8e-5 -4.904536,0.412459 -6.835381,1.237238 -1.853712,0.824873 -3.398428,1.987125 -4.634153,3.486765 -1.235823,1.424739 -2.162655,3.149374 -2.780495,5.173908 -0.540695,1.949623 -0.811021,4.08667 -0.810977,6.411146 -4.4e-5,4.724028 1.04264,8.623204 3.128056,11.697531 2.085321,3.074368 5.329227,4.61154 9.731725,4.611528 1.390191,1.2e-5 2.819055,-0.07497 4.286595,-0.224953 1.544656,-0.224953 3.050753,-0.63735 4.518301,-1.237239"
     style="font-variant:normal;font-weight:500;font-stretch:normal;font-family:Ubuntu;-inkscape-font-specification:Ubuntu Medium"
     id="path5004"
     inkscape:connector-curvature="0" />
</svg>
