<?xml version="1.0" encoding="UTF-8" standalone="no"?>
<svg
   xmlns:dc="http://purl.org/dc/elements/1.1/"
   xmlns:cc="http://creativecommons.org/ns#"
   xmlns:rdf="http://www.w3.org/1999/02/22-rdf-syntax-ns#"
   xmlns:svg="http://www.w3.org/2000/svg"
   xmlns="http://www.w3.org/2000/svg"
   xmlns:sodipodi="http://sodipodi.sourceforge.net/DTD/sodipodi-0.dtd"
   xmlns:inkscape="http://www.inkscape.org/namespaces/inkscape"
   xml:space="preserve"
   enable-background="new 0 0 283.464 283.464"
   viewBox="0 0 283.464 283.464"
   height="283.464px"
   width="283.464px"
   y="0px"
   x="0px"
   id="Layer_1"
   version="1.1"
   sodipodi:docname="emoticon-neutral.svg"
   inkscape:version="0.92.1 r15371"><sodipodi:namedview
     pagecolor="#ffffff"
     bordercolor="#666666"
     borderopacity="1"
     objecttolerance="10"
     gridtolerance="10"
     guidetolerance="10"
     inkscape:pageopacity="0"
     inkscape:pageshadow="2"
     inkscape:window-width="1920"
     inkscape:window-height="1017"
     id="namedview7894"
     showgrid="false"
     inkscape:zoom="1.6651145"
     inkscape:cx="113.30659"
     inkscape:cy="202.16188"
     inkscape:window-x="-8"
     inkscape:window-y="-6"
     inkscape:window-maximized="1"
     inkscape:current-layer="g7848" /><metadata
     id="metadata6400"><rdf:RDF><cc:Work
         rdf:about=""><dc:format>image/svg+xml</dc:format><dc:type
           rdf:resource="http://purl.org/dc/dcmitype/StillImage" /><dc:title></dc:title></cc:Work></rdf:RDF></metadata><defs
     id="defs6398" /><g
     transform="matrix(0.2662861,0,0,0.2662861,4.7249626,5.3935152)"
     id="g6086"><g
       transform="matrix(1.1555964,0,0,1.1555964,-33.891722,-52.965707)"
       id="g7848"><g
         id="g8458"
         transform="matrix(0.9370719,0,0,0.9370719,-5.2176779,9.1135846)"><path
           id="path8456"
           d="M 512,20.48 C 240.538,20.48 20.48,240.538 20.48,512 c 0,271.462 220.058,491.52 491.52,491.52 271.411,0 491.52,-220.058 491.52,-491.571 C 1003.52,240.538 783.411,20.48 512,20.48 Z m 0,880.589 c -214.886,0 -389.12,-174.182 -389.12,-389.12 0,-214.886 174.182,-389.12 389.12,-389.12 214.886,0 389.12,174.182 389.12,389.12 0,214.938 -174.234,389.12 -389.12,389.12 z M 640,320.051 c -42.394,0 -76.8,40.09 -76.8,89.549 0,49.459 34.406,89.6 76.8,89.6 42.445,0 76.8,-40.09 76.8,-89.6 0,-49.51 -34.355,-89.549 -76.8,-89.549 z M 384.051,499.2 c 42.394,0 76.749,-40.09 76.749,-89.6 0,-49.51 -34.406,-89.6 -76.8,-89.6 -42.394,0 -76.8,40.09 -76.8,89.6 0,49.51 34.406,89.6 76.851,89.6 z M 665.6,627.2 H 358.4 c -21.197,0 -38.4,17.203 -38.4,38.4 0,21.197 17.203,38.4 38.4,38.4 h 307.2 c 21.197,0 38.4,-17.203 38.4,-38.4 0,-21.248 -17.152,-38.4 -38.4,-38.4 z"
           inkscape:connector-curvature="0" /></g></g></g></svg>