<?xml version="1.0" encoding="UTF-8" standalone="no"?>
<svg
   xmlns:dc="http://purl.org/dc/elements/1.1/"
   xmlns:cc="http://creativecommons.org/ns#"
   xmlns:rdf="http://www.w3.org/1999/02/22-rdf-syntax-ns#"
   xmlns:svg="http://www.w3.org/2000/svg"
   xmlns="http://www.w3.org/2000/svg"
   version="1.1"
   id="Layer_1"
   x="0px"
   y="0px"
   width="283.464px"
   height="283.464px"
   viewBox="0 0 283.464 283.464"
   enable-background="new 0 0 283.464 283.464"
   xml:space="preserve"><metadata
     id="metadata6400"><rdf:RDF><cc:Work
         rdf:about=""><dc:format>image/svg+xml</dc:format><dc:type
           rdf:resource="http://purl.org/dc/dcmitype/StillImage" /><dc:title></dc:title></cc:Work></rdf:RDF></metadata><defs
     id="defs6398" /><g
     id="g6086"
     transform="matrix(0.2662861,0,0,0.2662861,4.7249626,5.3935152)"><g
       id="g7848"
       transform="matrix(1.1555964,0,0,1.1555964,-33.891722,-52.965707)"><g
         transform="matrix(0.9370719,0,0,0.9370719,-5.2176779,9.1135846)"
         id="g8472"><path
           d="M 512,20.48 C 240.538,20.48 20.48,240.538 20.48,512 c 0,271.462 220.058,491.52 491.52,491.52 271.411,0 491.52,-220.058 491.52,-491.571 C 1003.52,240.538 783.411,20.48 512,20.48 Z m 0,880.589 c -214.886,0 -389.12,-174.182 -389.12,-389.12 0,-214.938 174.182,-389.069 389.12,-389.069 214.886,0 389.171,174.182 389.171,389.12 0,214.938 -174.285,389.069 -389.171,389.069 z M 384.051,499.2 c 42.394,0 76.749,-40.09 76.749,-89.6 0,-49.51 -34.406,-89.6 -76.8,-89.6 -42.394,0 -76.8,40.09 -76.8,89.6 0,49.51 34.406,89.6 76.851,89.6 z m 255.949,0 c 42.445,0 76.8,-40.09 76.8,-89.6 0,-49.51 -34.406,-89.6 -76.8,-89.6 -42.394,0 -76.8,40.141 -76.8,89.6 0,49.459 34.406,89.6 76.8,89.6 z m 94.259,81.203 c -18.586,-9.523 -41.728,-2.202 -51.61,16.384 -1.741,3.379 -44.493,81.562 -170.598,81.562 -125.491,0 -168.499,-77.466 -170.65,-81.51 -9.626,-18.688 -32.358,-26.317 -51.405,-16.845 -18.944,9.523 -26.624,32.563 -17.152,51.558 2.56,5.069 63.898,123.597 239.206,123.597 175.36,0 236.595,-118.579 239.104,-123.648 9.421,-18.79 1.843,-41.472 -16.896,-51.098 z"
           id="path8470" /></g></g></g></svg>