<?xml version="1.0" encoding="UTF-8" standalone="no"?>
<svg
   xmlns:dc="http://purl.org/dc/elements/1.1/"
   xmlns:cc="http://creativecommons.org/ns#"
   xmlns:rdf="http://www.w3.org/1999/02/22-rdf-syntax-ns#"
   xmlns:svg="http://www.w3.org/2000/svg"
   xmlns="http://www.w3.org/2000/svg"
   version="1.1"
   id="Layer_1"
   x="0px"
   y="0px"
   width="283.464px"
   height="283.464px"
   viewBox="0 0 283.464 283.464"
   enable-background="new 0 0 283.464 283.464"
   xml:space="preserve"><metadata
     id="metadata6400"><rdf:RDF><cc:Work
         rdf:about=""><dc:format>image/svg+xml</dc:format><dc:type
           rdf:resource="http://purl.org/dc/dcmitype/StillImage" /><dc:title></dc:title></cc:Work></rdf:RDF></metadata><defs
     id="defs6398" /><g
     id="g6086"
     transform="matrix(0.2662861,0,0,0.2662861,4.7249626,5.3935152)"><g
       id="g7848"
       transform="matrix(1.1555964,0,0,1.1555964,-33.891722,-52.965707)"><g
         transform="matrix(0.93702328,0,0,0.93702328,-5.2166821,9.1145876)"
         id="g8444"><path
           d="M 512.051,20.48 C 240.537,20.48 20.48,240.538 20.48,512 c 0,271.514 220.058,491.571 491.571,491.571 271.411,0 491.52,-220.058 491.52,-491.571 C 1003.52,240.538 783.411,20.48 512.051,20.48 Z M 512,901.069 c -214.886,0 -389.12,-174.182 -389.12,-389.12 0,-214.886 174.182,-389.12 389.12,-389.12 214.886,0 389.12,174.182 389.12,389.12 0,214.938 -174.234,389.12 -389.12,389.12 z M 640.051,499.2 c 42.394,0 76.8,-40.09 76.8,-89.6 0,-49.51 -34.406,-89.6 -76.8,-89.6 -42.394,0 -76.8,40.09 -76.8,89.6 0,49.51 34.355,89.6 76.8,89.6 z m -256,0 c 42.394,0 76.8,-40.09 76.8,-89.6 0,-49.51 -34.406,-89.6 -76.8,-89.6 -42.394,0 -76.8,40.09 -76.8,89.6 0,49.51 34.355,89.6 76.8,89.6 z M 512.102,576 c -175.309,0 -236.646,118.528 -239.206,123.597 -9.523,18.995 -1.792,42.035 17.152,51.558 5.53,2.714 11.366,4.045 17.152,4.045 14.08,0 27.648,-7.731 34.406,-21.197 0.41,-0.87 42.086,-81.203 170.496,-81.203 126.106,0 168.858,78.182 170.394,81.152 9.421,18.944 32.512,26.778 51.507,17.203 18.995,-9.421 26.675,-32.563 17.203,-51.507 C 748.697,694.579 687.411,576 512.102,576 Z"
           id="path8442" /></g></g></g></svg>