<?xml version="1.0" encoding="UTF-8" standalone="no"?>
<svg
   xmlns:dc="http://purl.org/dc/elements/1.1/"
   xmlns:cc="http://creativecommons.org/ns#"
   xmlns:rdf="http://www.w3.org/1999/02/22-rdf-syntax-ns#"
   xmlns:svg="http://www.w3.org/2000/svg"
   xmlns="http://www.w3.org/2000/svg"
   xmlns:sodipodi="http://sodipodi.sourceforge.net/DTD/sodipodi-0.dtd"
   xmlns:inkscape="http://www.inkscape.org/namespaces/inkscape"
   version="1.1"
   viewBox="0 0 100 100"
   id="svg2"
   inkscape:version="0.91 r13725"
   width="100%"
   height="100%"
   sodipodi:docname="eye-closed.svg">
  <metadata
     id="metadata51">
    <rdf:RDF>
      <cc:Work
         rdf:about="">
        <dc:format>image/svg+xml</dc:format>
        <dc:type
           rdf:resource="http://purl.org/dc/dcmitype/StillImage" />
        <dc:title>remember-me-active</dc:title>
      </cc:Work>
    </rdf:RDF>
  </metadata>
  <defs
     id="defs49" />
  <sodipodi:namedview
     pagecolor="#ffffff"
     bordercolor="#666666"
     borderopacity="1"
     objecttolerance="10"
     gridtolerance="10"
     guidetolerance="10"
     inkscape:pageopacity="0"
     inkscape:pageshadow="2"
     inkscape:window-width="1920"
     inkscape:window-height="1056"
     id="namedview47"
     showgrid="false"
     inkscape:zoom="2.8284272"
     inkscape:cx="128.66681"
     inkscape:cy="-27.85662"
     inkscape:window-x="2560"
     inkscape:window-y="24"
     inkscape:window-maximized="1"
     inkscape:current-layer="svg2"
     inkscape:snap-bbox="true"
     fit-margin-top="0"
     fit-margin-left="0"
     fit-margin-right="0"
     fit-margin-bottom="0"
     units="px"
     showguides="true"
     inkscape:guide-bbox="true" />
  <title
     id="title3003">remember-me-active</title>
  <g
     id="g3023"
     transform="matrix(0.19545769,0,0,0.1954644,8.2313352,31.412013)" />
  <path
     style="fill:#000000"
     d="m 50.71694,26.843689 c -5.57706,-0.174422 -11.75654,0.617022 -16.95466,2.601065 -3.79549,1.448683 -10.84251,4.093389 -14.49854,6.177161 -5.47944,3.123037 -11.5726305,6.21523 -14.3367505,12.648822 -0.85045,1.979455 3.733,-0.138696 5.8328095,-1.640165 C 41.86674,24.38761 60.39664,27.729024 84.38491,46.96283 c 2.09776,1.681988 7.92162,2.951159 6.81641,0.5 C 89.06789,42.731253 84.57506,40.846016 77.1271,36.255798 68.81594,31.133584 60.01204,27.134393 50.71694,26.843689 Z M 5.0020995,56.689392 c -0.43602,0.901126 0.97017,1.573701 1.82031,2.388672 2.01959,1.936037 2.08661,2.125962 -2.57617,7.707031 -3.25261996,3.893186 -4.77389,6.58163 -4.54688,8.361328 0.60199004,4.719238 3.99451,3.853042 9.85157,-2.623046 l 5.4570305,-6.230469 3.33593,1.966797 3.33399,1.96875 -3.18359,6.228515 c -3.66908,7.179824 -3.96528,9.65209 -1.36329,11.150391 2.88934,1.66376 4.19792,0.449714 7.88086,-7.050781 2.45001,-4.989556 3.87055,-6.722024 5.00391,-6.230469 0.87442,0.379221 2.94016,0.949488 4.54687,1.3125 2.07136,0.467995 2.79061,1.269878 2.42579,2.623047 -2.83499,10.516002 -2.35838,15.412109 1.51562,15.412109 2.52376,0 3.74251,-2.530374 4.69922,-9.673828 l 0.75781,-5.738281 5.15235,0 c 5.57669,0 5.42493,-0.09175 7.73242,12.625 0.52707,2.904683 1.82558,4.583016 3.48633,4.753906 0.1384,0.0137 0.27962,0.01772 0.42578,0.01172 0.43849,-0.01936 0.90952,-0.132314 1.39257,-0.339844 2.41369,-1.03699 2.58819,-3.341637 1.06055,-10.65625 -1.55951,-7.467178 -1.34756,-8.067581 2.88086,-9.181641 2.56703,-0.676332 3.06857,-0.04826 5.75977,5.574219 2.36042,4.931371 3.51304,6.066406 5.60937,6.066406 3.51836,0 3.88037,-3.649534 1.06055,-9.83789 -1.19198,-2.615905 -2.12305,-5.073534 -2.12305,-5.410156 0,-0.336619 1.95902,-1.723011 4.39649,-3.115235 l 4.39648,-2.458984 4.24414,5.410156 c 4.60293,5.916183 7.30164,6.864303 9.09375,3.115234 0.96855,-2.026191 0.48183,-3.267653 -3.03125,-7.86914 l -4.0918,-5.41211 c 0,0 1.73155,-1.735069 2.57618,-2.623047 0.48743,-0.512448 1.73706,-0.919881 1.4375,-1.560546 -1.46102,-3.124641 -7.80277,-1.835224 -10.33594,0.5 C 68.54744,73.097949 48.3368,75.638885 28.50014,66.292909 23.26456,64.010121 16.17816,59.812089 11.82632,56.564393 10.002969,55.203664 5.9930395,54.641412 5.0020995,56.689392 Z"
     id="path2995-6-7-5"
     inkscape:connector-curvature="0"
     sodipodi:nodetypes="sssssssssassscccccsscscsccssccssssssscccsccaascsa" />
</svg>
