<?xml version="1.0" encoding="UTF-8" standalone="no"?>
<svg
   xmlns:dc="http://purl.org/dc/elements/1.1/"
   xmlns:cc="http://creativecommons.org/ns#"
   xmlns:rdf="http://www.w3.org/1999/02/22-rdf-syntax-ns#"
   xmlns:svg="http://www.w3.org/2000/svg"
   xmlns="http://www.w3.org/2000/svg"
   id="svg10491"
   height="20"
   width="20"
   viewBox="0 0 100 100"
   version="1.1">
  <metadata
     id="metadata10497">
    <rdf:RDF>
      <cc:Work
         rdf:about="">
        <dc:format>image/svg+xml</dc:format>
        <dc:type
           rdf:resource="http://purl.org/dc/dcmitype/StillImage" />
        <dc:title></dc:title>
      </cc:Work>
    </rdf:RDF>
  </metadata>
  <defs
     id="defs10495" />
  <g
     transform="matrix(0.19545769,0,0,0.1954644,8.2313352,31.412013)"
     id="g3023" />
  <path
     id="path2995"
     d="m 61.214084,14.496018 c -1.660755,0.17089 -2.95932,1.850036 -3.486383,4.754719 -2.307495,12.716752 -2.153997,12.624601 -7.73068,12.624601 l -5.153785,0 -0.757909,-5.738454 c -0.956709,-7.143454 -2.175278,-9.673395 -4.699041,-9.673395 -3.873993,0 -4.350813,4.895847 -1.515819,15.411849 0.364815,1.353169 -0.353949,2.155298 -2.425312,2.623293 -1.606714,0.363012 -3.673036,0.932425 -4.547458,1.311646 -1.133357,0.491555 -2.552193,-1.240764 -5.002202,-6.23032 -3.682947,-7.500495 -4.992926,-8.713863 -7.882261,-7.050103 -2.601991,1.498301 -2.304832,3.969175 1.364236,11.148999 l 3.183222,6.230321 -3.334803,1.967471 -3.334803,1.96747 -5.45695,-6.230323 C 4.5770783,31.137705 1.1832971,30.271262 0.58131069,34.9905 0.3543016,36.770198 1.8761552,39.45906 5.1287688,43.352247 c 4.6627815,5.581068 4.5964784,5.769887 2.5768929,7.705924 -1.1347206,1.087775 -1.9705653,2.351238 -1.9705653,2.951206 0,1.832261 12.0382056,13.511221 18.4929976,17.871187 3.346671,2.260549 9.24055,5.273506 13.036045,6.722189 13.861638,5.290785 30.305298,2.723792 42.746106,-6.722189 7.646303,-5.805637 15.049927,-12.976426 16.370848,-15.739761 0.978497,-2.047007 0.713853,-2.771426 -1.515818,-4.918676 l -2.576894,-2.623293 4.092712,-5.410543 c 3.51308,-4.601487 4.000187,-5.843689 3.03164,-7.86988 -1.792106,-3.749069 -4.491986,-2.801022 -9.094917,3.115161 l -4.244295,5.410543 -4.395874,-2.459337 c -2.437472,-1.392224 -4.395878,-2.778542 -4.395878,-3.115161 0,-0.336622 0.93017,-2.794638 2.122147,-5.410543 2.819822,-6.188356 2.457292,-9.837351 -1.061073,-9.837351 -2.096326,0 -3.248116,1.134994 -5.608532,6.066365 -2.691207,5.622479 -3.193082,6.250831 -5.760114,5.574499 -4.228421,-1.11406 -4.439564,-1.714349 -2.880056,-9.181527 1.52764,-7.314613 1.352615,-9.620137 -1.061073,-10.65713 -0.644076,-0.276704 -1.265396,-0.384889 -1.818984,-0.327912 z m -3.789548,24.429421 c 12.463911,0.656164 24.208644,9.172462 31.377461,16.55954 0,1.781837 -12.538309,11.697203 -18.644577,14.756027 -3.826755,2.025093 -7.819369,3.060958 -11.823392,3.607028 6.857605,-2.871856 11.671809,-9.599828 11.671809,-17.37932 0,-8.107268 -5.259113,-14.936906 -12.581301,-17.543275 z m -14.400284,0.491868 c -6.663731,2.924426 -11.368644,9.440651 -11.368644,17.051407 0,6.883671 3.888345,12.775745 9.549662,16.067674 -11.774891,-3.307192 -22.126015,-10.770378 -27.133167,-18.1991 0,-1.523115 9.234749,-7.844381 15.309775,-10.493173 5.046704,-2.177994 9.284978,-3.659232 13.642374,-4.426808 z m -0.454746,5.410543 c 3.626218,0 6.669605,3.04897 6.669605,6.886145 0,3.837176 -3.043387,7.050101 -6.669605,7.050101 -3.626219,0 -6.518023,-3.212925 -6.518023,-7.050101 0,-3.837175 2.891804,-6.886145 6.518023,-6.886145 z"
     style="fill:#ffffff" />
</svg>
