<?xml version="1.0" encoding="UTF-8" standalone="no"?>
<svg
   xmlns:dc="http://purl.org/dc/elements/1.1/"
   xmlns:cc="http://creativecommons.org/ns#"
   xmlns:rdf="http://www.w3.org/1999/02/22-rdf-syntax-ns#"
   xmlns:svg="http://www.w3.org/2000/svg"
   xmlns="http://www.w3.org/2000/svg"
   xmlns:sodipodi="http://sodipodi.sourceforge.net/DTD/sodipodi-0.dtd"
   xmlns:inkscape="http://www.inkscape.org/namespaces/inkscape"
   version="1.1"
   viewBox="0 0 100 100"
   id="svg2"
   inkscape:version="0.48.4 r9939"
   width="100%"
   height="100%"
   sodipodi:docname="fax.svg">
  <metadata
     id="metadata51">
    <rdf:RDF>
      <cc:Work
         rdf:about="">
        <dc:format>image/svg+xml</dc:format>
        <dc:type
           rdf:resource="http://purl.org/dc/dcmitype/StillImage" />
        <dc:title>smartphone</dc:title>
      </cc:Work>
    </rdf:RDF>
  </metadata>
  <defs
     id="defs49" />
  <sodipodi:namedview
     pagecolor="#ffffff"
     bordercolor="#666666"
     borderopacity="1"
     objecttolerance="10"
     gridtolerance="10"
     guidetolerance="10"
     inkscape:pageopacity="0"
     inkscape:pageshadow="2"
     inkscape:window-width="1920"
     inkscape:window-height="1059"
     id="namedview47"
     showgrid="false"
     inkscape:zoom="5.3928681"
     inkscape:cx="70.765743"
     inkscape:cy="45.651013"
     inkscape:window-x="2560"
     inkscape:window-y="21"
     inkscape:window-maximized="1"
     inkscape:current-layer="svg2"
     inkscape:snap-bbox="true"
     fit-margin-top="0"
     fit-margin-left="0"
     fit-margin-right="0"
     fit-margin-bottom="0" />
  <title>smartphone</title>
  <path
     style="fill:#000000"
     d="M 24.260805,100.02301 C 13.94654,99.776879 14.47208,100.59176 14.471852,98.575956 l -0.652505,-63.940185 0.877528,-0.230565 c 0.836922,-0.2199 4.610187,-1.454602 5.365485,-1.755718 0.339013,-0.135154 0.36137,1.374774 0.412953,27.890266 l 0.05454,28.03315 c 0.40547,3.735266 -0.4429,4.919497 4.748972,4.763613 l 17.395694,0.05634 17.395694,0.05634 0.0035,-4.095053 c 0.0052,-5.983616 -0.132637,-10.649056 0.878658,-11.498576 1.050702,-0.882623 5.611053,-0.976217 13.209817,-0.980986 l 5.729733,-0.0037 0,-22.183315 c 0,-21.043756 0.01856,-22.175919 0.361333,-22.039302 0.75978,0.302816 4.530907,1.536791 5.372075,1.757832 l 0.881201,0.231559 -0.0553,21.893289 -0.05529,21.89329 C 76.241335,87.469711 74.187048,89.671224 61.825168,99.964052 49.494873,100.1791 35.120218,100.06461 24.260805,100.02301 z m 3.020762,-36.655833 c -0.355582,-0.356678 -0.355582,-15.71534 0,-16.072018 0.353195,-0.354283 11.333411,-0.354283 11.686605,0 0.321699,0.322692 0.321699,2.494054 0,2.816745 -0.17466,0.175199 -1.362749,0.248536 -4.026305,0.248536 l -3.77853,0 0,1.65691 0,1.65691 3.468815,0 c 2.422664,0 3.543539,0.07495 3.716588,0.248535 0.389013,0.390214 0.324815,2.784195 -0.07883,2.939565 -0.179632,0.06914 -1.852095,0.125717 -3.716588,0.125717 l -3.389984,0 0,3.188102 c 0,2.716071 -0.04836,3.206717 -0.326603,3.313817 -0.595233,0.229116 -3.297372,0.135768 -3.555168,-0.122819 z m 13.786944,-0.176422 c -0.18879,-0.353846 0.245152,-1.696859 2.593171,-8.025654 1.550946,-4.18038 2.918461,-7.720856 3.038919,-7.86772 0.152303,-0.185689 0.694542,-0.248775 1.780106,-0.207111 l 1.561084,0.05991 2.846161,7.654114 c 1.565387,4.209765 2.846158,7.802668 2.846158,7.984229 0,0.607272 -0.476314,0.827189 -1.791591,0.827189 -1.535639,0 -1.528693,0.0077 -2.562268,-2.847811 l -0.693433,-1.915805 -2.40355,0 -2.403547,0 -0.671975,1.915805 c -0.997487,2.843828 -1.001099,2.847811 -2.582426,2.847811 -1.129953,0 -1.364189,-0.06394 -1.556809,-0.424957 z m 8.471286,-7.592486 c 0,-0.291687 -1.138252,-3.372741 -1.246206,-3.373267 -0.06082,-2.07e-4 -0.397508,0.791672 -0.748193,1.759927 l -0.637607,1.760466 1.316004,0 c 0.723801,0 1.316002,-0.06621 1.316002,-0.147126 z m 9.126287,7.768908 c -0.136275,-0.136697 -0.247772,-0.398722 -0.247772,-0.582283 0,-0.183561 1.114976,-1.910591 2.477725,-3.837843 1.362748,-1.927254 2.477166,-3.599148 2.476483,-3.715324 -6.14e-4,-0.116177 -1.0692,-1.746995 -2.374485,-3.624036 -1.305285,-1.877045 -2.373247,-3.559325 -2.373247,-3.738403 0,-0.635356 0.475195,-0.822666 2.087067,-0.822666 l 1.591524,0 1.778368,2.705677 1.778366,2.705674 1.463773,-2.239672 c 2.103721,-3.218831 2.048586,-3.171679 3.708633,-3.171679 0.765852,0 1.53943,0.05657 1.719062,0.125718 0.739939,0.284814 0.315437,1.177197 -2.167686,4.556887 l -2.49429,3.394879 2.525685,3.567187 c 1.389126,1.96195 2.56898,3.733256 2.621897,3.936231 0.192246,0.737415 -0.320644,0.988189 -2.021067,0.988189 l -1.605022,0 -1.910536,-2.809593 c -1.527614,-2.24647 -1.959879,-2.754982 -2.156726,-2.537142 -0.135405,0.14985 -0.969536,1.414163 -1.853626,2.809594 l -1.607438,2.537141 -1.584458,0 c -0.957052,0 -1.682568,-0.09842 -1.83223,-0.248536 z M 8.3385272,31.852868 C 7.4387785,31.446461 5.6237563,29.352075 4.4387327,27.352829 2.6018919,24.253909 0.60472992,19.088147 0.60472992,17.43599 c 0,-2.311239 8.42835108,-8.2011066 16.41492808,-11.4710163 17.315687,-7.0894868 48.963452,-7.0894868 66.279141,0 7.986577,3.2699097 16.414928,9.1597773 16.414928,11.4710163 0,0.903124 -0.946921,3.939453 -1.920845,6.159239 -1.888051,4.303286 -4.499587,7.86605 -6.123649,8.354132 -2.336487,0.702186 -13.189917,-3.022305 -16.068825,-5.514217 -1.17652,-1.018366 -1.552822,-1.821084 -2.538298,-5.414629 -0.877151,-3.198546 -1.201971,-4.011816 -1.91799,-4.802199 -1.631644,-1.801099 -6.243377,-2.308404 -20.984892,-2.308404 -14.741513,0 -19.353247,0.507305 -20.984891,2.308404 -0.716019,0.790383 -1.040838,1.603653 -1.91799,4.802199 -0.45743,1.668016 -1.021152,3.405281 -1.252716,3.860586 -1.081526,2.1265 -6.36379,4.843181 -12.481922,6.419481 -2.982514,0.768427 -4.3759559,0.916902 -5.1831818,0.552286 z"
     id="path5258"
     inkscape:connector-curvature="0"
     sodipodi:nodetypes="cccssscccccsccssscccccssssscccsscscssssssscsssscccsssscscsscsscssscccsscscssscscscscsssssssssssssssss" />
  <path
     style="fill:#000000"
     d=""
     id="path5256"
     inkscape:connector-curvature="0" />
</svg>
