<?xml version="1.0" encoding="UTF-8" standalone="no"?>
<!-- Created with Inkscape (http://www.inkscape.org/) -->

<svg
   xmlns:dc="http://purl.org/dc/elements/1.1/"
   xmlns:cc="http://creativecommons.org/ns#"
   xmlns:rdf="http://www.w3.org/1999/02/22-rdf-syntax-ns#"
   xmlns:svg="http://www.w3.org/2000/svg"
   xmlns="http://www.w3.org/2000/svg"
   xmlns:sodipodi="http://sodipodi.sourceforge.net/DTD/sodipodi-0.dtd"
   xmlns:inkscape="http://www.inkscape.org/namespaces/inkscape"
   id="svg2"
   version="1.1"
   inkscape:version="0.91 r13725"
   width="100"
   height="100"
   sodipodi:docname="file-picture.svg">
  <metadata
     id="metadata8">
    <rdf:RDF>
      <cc:Work
         rdf:about="">
        <dc:format>image/svg+xml</dc:format>
        <dc:type
           rdf:resource="http://purl.org/dc/dcmitype/StillImage" />
        <dc:title></dc:title>
      </cc:Work>
    </rdf:RDF>
  </metadata>
  <defs
     id="defs6" />
  <sodipodi:namedview
     pagecolor="#ffffff"
     bordercolor="#666666"
     borderopacity="1"
     objecttolerance="10"
     gridtolerance="10"
     guidetolerance="10"
     inkscape:pageopacity="0"
     inkscape:pageshadow="2"
     inkscape:window-width="2479"
     inkscape:window-height="1410"
     id="namedview4"
     showgrid="false"
     inkscape:zoom="0.921875"
     inkscape:cx="-405.36986"
     inkscape:cy="287.43941"
     inkscape:window-x="81"
     inkscape:window-y="30"
     inkscape:window-maximized="1"
     inkscape:current-layer="svg2"
     showborder="true" />
  <path
     style="fill:#000000"
     d=""
     id="path3011"
     inkscape:connector-curvature="0" />
  <path
     style="fill:#000000"
     d=""
     id="path3009"
     inkscape:connector-curvature="0" />
  <path
     style="fill:#000000"
     d=""
     id="path2989"
     inkscape:connector-curvature="0" />
  <path
     style="fill:#000000"
     d=""
     id="path2987"
     inkscape:connector-curvature="0" />
  <path
     style="fill:#000000"
     d=""
     id="path3813"
     inkscape:connector-curvature="0" />
  <path
     style="fill:#000000"
     d="M 43.8125 0.71875 C 40.335647 0.71058893 35.65509 0.7339712 29.34375 0.75 L 7.34375 0.8125 C 6.1491004 0.82683708 5.9479335 1.0598878 5.21875 1.40625 C 3.0282581 2.4332251 1.2934557 4.6207993 0.71875 7.0625 C 0.48069107 8.0737853 0.40876436 16.13013 0.40625 50.25 C 0.40244075 96.644175 0.30508256 93.587359 1.8125 96.0625 C 2.6630679 97.45911 4.2310977 98.728525 5.8125 99.34375 C 6.8798841 99.759046 7.7925822 99.761536 37.529297 99.71875 C 37.717827 99.719021 37.782498 99.718482 37.96875 99.71875 C 67.705405 99.761516 68.618162 99.759049 69.685547 99.34375 C 71.266947 98.72853 72.834977 97.459108 73.685547 96.0625 C 75.192967 93.587367 75.095797 96.644178 75.091797 50.25 C 75.091363 43.987485 75.07827 40.932743 75.068359 37.25 L 75.09375 37.25 C 75.09265 35.581948 75.09375 33.919599 75.09375 32.25 L 75.09375 32.1875 L 75.03125 28.3125 C 74.9552 24.421626 74.93692 24.356126 74.25 22.90625 C 73.558301 21.446253 73.259375 21.084661 66.25 13.46875 C 65.07962 12.19709 62.408552 9.2698354 60.3125 6.96875 C 58.216447 4.6676644 56.055937 2.4608615 55.5 2.0625 C 53.997226 0.98567174 54.24306 0.74323321 43.8125 0.71875 z M 16.3125 6.4375 C 19.429594 6.423246 23.639585 6.4374906 29.3125 6.4375 L 50.28125 6.4375 L 50.28125 14.96875 C 50.28125 23.106051 50.29875 23.538766 50.71875 24.25 C 51.635609 25.802605 51.730999 25.8125 60.90625 25.8125 L 69.125 25.8125 L 69.125 31.875 C 69.125 31.996545 69.124801 32.067671 69.125 32.1875 L 69.125 37.25 L 69.138672 37.25 C 69.145926 40.809391 69.154297 43.680463 69.154297 50.09375 C 69.154297 87.222647 69.105697 92.179253 68.810547 92.75 C 68.238056 93.85709 68.629254 94.031029 53.09375 94.056641 L 53.09375 94.03125 C 49.070746 94.043163 45.21501 94.062349 37.779297 94.0625 C 37.749786 94.0625 37.747748 94.062502 37.71875 94.0625 C 35.455065 94.062332 34.711582 94.055696 32.992188 94.052734 L 32.992188 94.060547 C 6.7403994 94.064807 7.3641407 94.058485 6.6875 92.75 C 6.3923163 92.179253 6.34375 87.222647 6.34375 50.09375 C 6.34375 12.372572 6.378989 8.0342018 6.6875 7.59375 C 7.3157331 6.6967672 6.9612192 6.4802615 16.3125 6.4375 z "
     id="path4030" />
  <g
     style="font-style:normal;font-weight:normal;font-size:56.07156754px;line-height:125%;font-family:Sans;letter-spacing:0px;word-spacing:0px;fill:#000000;fill-opacity:1;stroke:none;stroke-width:1px;stroke-linecap:butt;stroke-linejoin:miter;stroke-opacity:1"
     id="text5053" />
  <rect
     style="fill:#010000;fill-opacity:0;stroke:none;stroke-width:2;stroke-miterlimit:4;stroke-dasharray:none;stroke-opacity:1"
     id="rect5057"
     width="53.423729"
     height="8.9491529"
     x="-145.08475"
     y="6.9830508"
     ry="4.4745765" />
  <path
     style="fill:#000000"
     d="m 58.313894,51.85962 a 6.1929978,6.0615248 0 0 0 -6.193015,6.061541 6.1929978,6.0615248 0 0 0 6.193015,6.061542 6.1929978,6.0615248 0 0 0 6.193014,-6.061542 6.1929978,6.0615248 0 0 0 -6.193014,-6.061541 z M 30.280006,63.302238 c -1.718605,0 -2.682466,0.973847 -12.885389,13.019931 l -8.9613013,10.579938 0,4.42349 58.6314703,0 0,-4.051466 -7.915073,-8.311726 c -4.384347,-4.604165 -8.44389,-8.371512 -9.02142,-8.371512 -0.577535,0 -2.017114,0.80888 -3.198803,1.797484 -1.181689,0.988615 -2.737703,1.808596 -3.457693,1.822173 -0.856872,0.01612 -3.156906,-1.863651 -6.657467,-5.441821 -3.083921,-3.152292 -5.850167,-5.466491 -6.534324,-5.466491 z"
     id="path6020"
     inkscape:connector-curvature="0" />
</svg>
