<?xml version="1.0" encoding="UTF-8" standalone="no"?>
<!-- Created with Inkscape (http://www.inkscape.org/) -->

<svg
   xmlns:dc="http://purl.org/dc/elements/1.1/"
   xmlns:cc="http://creativecommons.org/ns#"
   xmlns:rdf="http://www.w3.org/1999/02/22-rdf-syntax-ns#"
   xmlns:svg="http://www.w3.org/2000/svg"
   xmlns="http://www.w3.org/2000/svg"
   xmlns:sodipodi="http://sodipodi.sourceforge.net/DTD/sodipodi-0.dtd"
   xmlns:inkscape="http://www.inkscape.org/namespaces/inkscape"
   id="svg2"
   version="1.1"
   inkscape:version="0.48.4 r9939"
   width="100"
   height="100"
   sodipodi:docname="add-document.svg">
  <metadata
     id="metadata8">
    <rdf:RDF>
      <cc:Work
         rdf:about="">
        <dc:format>image/svg+xml</dc:format>
        <dc:type
           rdf:resource="http://purl.org/dc/dcmitype/StillImage" />
        <dc:title></dc:title>
      </cc:Work>
    </rdf:RDF>
  </metadata>
  <defs
     id="defs6" />
  <sodipodi:namedview
     pagecolor="#ffffff"
     bordercolor="#666666"
     borderopacity="1"
     objecttolerance="10"
     gridtolerance="10"
     guidetolerance="10"
     inkscape:pageopacity="0"
     inkscape:pageshadow="2"
     inkscape:window-width="1920"
     inkscape:window-height="1018"
     id="namedview4"
     showgrid="false"
     inkscape:zoom="7.375"
     inkscape:cx="44.983774"
     inkscape:cy="-29.655437"
     inkscape:window-x="1912"
     inkscape:window-y="-8"
     inkscape:window-maximized="1"
     inkscape:current-layer="svg2"
     showborder="false" />
  <path
     style="fill:#000000"
     d=""
     id="path3011"
     inkscape:connector-curvature="0" />
  <path
     style="fill:#000000"
     d=""
     id="path3009"
     inkscape:connector-curvature="0" />
  <path
     style="fill:#000000"
     d=""
     id="path2989"
     inkscape:connector-curvature="0" />
  <path
     style="fill:#000000"
     d=""
     id="path2987"
     inkscape:connector-curvature="0" />
  <path
     style="fill:#000000"
     d=""
     id="path3813"
     inkscape:connector-curvature="0" />
  <path
     style="fill:#000000"
     d="M 43.8125 0.71875 C 40.335647 0.71058893 35.65509 0.7339712 29.34375 0.75 L 7.34375 0.8125 C 6.1491004 0.82683708 5.9479335 1.0598878 5.21875 1.40625 C 3.0282581 2.4332251 1.2934557 4.6207993 0.71875 7.0625 C 0.48069107 8.0737853 0.40876436 16.13013 0.40625 50.25 C 0.40244075 96.644175 0.30508256 93.587359 1.8125 96.0625 C 2.6630679 97.45911 4.2310977 98.728525 5.8125 99.34375 C 6.8865688 99.761647 7.6798112 99.76237 37.96875 99.71875 L 53.09375 99.6875 L 53.09375 94.03125 C 49.054841 94.043207 45.21256 94.0625 37.71875 94.0625 C 5.4036076 94.0625 7.410628 94.148382 6.6875 92.75 C 6.3923163 92.179253 6.34375 87.222647 6.34375 50.09375 C 6.34375 12.372572 6.378989 8.0342018 6.6875 7.59375 C 7.3157331 6.6967672 6.9612192 6.4802615 16.3125 6.4375 C 19.429594 6.423246 23.639585 6.4374906 29.3125 6.4375 L 50.28125 6.4375 L 50.28125 14.96875 C 50.28125 23.106051 50.29875 23.538766 50.71875 24.25 C 51.635609 25.802605 51.730999 25.8125 60.90625 25.8125 L 69.125 25.8125 L 69.125 31.875 C 69.125 31.996545 69.124801 32.067671 69.125 32.1875 L 69.125 37.25 L 75.09375 37.25 C 75.092656 35.581948 75.09375 33.919599 75.09375 32.25 L 75.09375 32.1875 L 75.03125 28.3125 C 74.9552 24.421626 74.93692 24.356126 74.25 22.90625 C 73.558301 21.446253 73.259375 21.084661 66.25 13.46875 C 65.07962 12.19709 62.408552 9.2698354 60.3125 6.96875 C 58.216447 4.6676644 56.055937 2.4608615 55.5 2.0625 C 53.997226 0.98567174 54.24306 0.74323321 43.8125 0.71875 z M 71.65625 45.09375 C 68.749725 45.387897 66.5 47.855924 66.5 50.84375 L 66.5 66.65625 L 50.65625 66.65625 C 47.469249 66.65625 44.9375 69.219257 44.9375 72.40625 C 44.9375 75.593244 47.469249 78.15625 50.65625 78.15625 L 66.5 78.15625 L 66.5 93.96875 C 66.5 97.155737 69.031751 99.75 72.21875 99.75 C 75.405764 99.75 78 97.155737 78 93.96875 L 78 78.15625 L 93.8125 78.15625 C 96.9995 78.15625 99.5625 75.593244 99.5625 72.40625 C 99.5625 69.219257 96.9995 66.65625 93.8125 66.65625 L 78 66.65625 L 78 50.84375 C 78 47.656736 75.405764 45.09375 72.21875 45.09375 C 72.019563 45.09375 71.850018 45.07414 71.65625 45.09375 z "
     id="path4030" />
</svg>
