<?xml version="1.0" encoding="UTF-8" standalone="no"?>
<!-- Created with Inkscape (http://www.inkscape.org/) -->

<svg
   xmlns:dc="http://purl.org/dc/elements/1.1/"
   xmlns:cc="http://creativecommons.org/ns#"
   xmlns:rdf="http://www.w3.org/1999/02/22-rdf-syntax-ns#"
   xmlns:svg="http://www.w3.org/2000/svg"
   xmlns="http://www.w3.org/2000/svg"
   xmlns:sodipodi="http://sodipodi.sourceforge.net/DTD/sodipodi-0.dtd"
   xmlns:inkscape="http://www.inkscape.org/namespaces/inkscape"
   id="svg2"
   version="1.1"
   inkscape:version="0.91 r13725"
   width="100"
   height="100"
   sodipodi:docname="file-pdf.svg">
  <metadata
     id="metadata8">
    <rdf:RDF>
      <cc:Work
         rdf:about="">
        <dc:format>image/svg+xml</dc:format>
        <dc:type
           rdf:resource="http://purl.org/dc/dcmitype/StillImage" />
        <dc:title></dc:title>
      </cc:Work>
    </rdf:RDF>
  </metadata>
  <defs
     id="defs6" />
  <sodipodi:namedview
     pagecolor="#ffffff"
     bordercolor="#666666"
     borderopacity="1"
     objecttolerance="10"
     gridtolerance="10"
     guidetolerance="10"
     inkscape:pageopacity="0"
     inkscape:pageshadow="2"
     inkscape:window-width="2479"
     inkscape:window-height="1410"
     id="namedview4"
     showgrid="false"
     inkscape:zoom="2.6074563"
     inkscape:cx="248.57648"
     inkscape:cy="23.289041"
     inkscape:window-x="81"
     inkscape:window-y="30"
     inkscape:window-maximized="1"
     inkscape:current-layer="svg2"
     showborder="true" />
  <path
     style="fill:#000000"
     d=""
     id="path3011"
     inkscape:connector-curvature="0" />
  <path
     style="fill:#000000"
     d=""
     id="path3009"
     inkscape:connector-curvature="0" />
  <path
     style="fill:#000000"
     d=""
     id="path2989"
     inkscape:connector-curvature="0" />
  <path
     style="fill:#000000"
     d=""
     id="path2987"
     inkscape:connector-curvature="0" />
  <path
     style="fill:#000000"
     d=""
     id="path3813"
     inkscape:connector-curvature="0" />
  <path
     style="fill:#000000"
     d="M 43.8125 0.71875 C 40.335647 0.71058893 35.65509 0.7339712 29.34375 0.75 L 7.34375 0.8125 C 6.1491004 0.82683708 5.9479335 1.0598878 5.21875 1.40625 C 3.0282581 2.4332251 1.2934557 4.6207993 0.71875 7.0625 C 0.48069107 8.0737853 0.40876436 16.13013 0.40625 50.25 C 0.40244075 96.644175 0.30508256 93.587359 1.8125 96.0625 C 2.6630679 97.45911 4.2310977 98.728525 5.8125 99.34375 C 6.8798841 99.759046 7.7925822 99.761536 37.529297 99.71875 C 37.717827 99.719021 37.782498 99.718482 37.96875 99.71875 C 67.705405 99.761516 68.618162 99.759049 69.685547 99.34375 C 71.266947 98.72853 72.834977 97.459108 73.685547 96.0625 C 75.192967 93.587367 75.095797 96.644178 75.091797 50.25 C 75.091363 43.987485 75.07827 40.932743 75.068359 37.25 L 75.09375 37.25 C 75.09265 35.581948 75.09375 33.919599 75.09375 32.25 L 75.09375 32.1875 L 75.03125 28.3125 C 74.9552 24.421626 74.93692 24.356126 74.25 22.90625 C 73.558301 21.446253 73.259375 21.084661 66.25 13.46875 C 65.07962 12.19709 62.408552 9.2698354 60.3125 6.96875 C 58.216447 4.6676644 56.055937 2.4608615 55.5 2.0625 C 53.997226 0.98567174 54.24306 0.74323321 43.8125 0.71875 z M 16.3125 6.4375 C 19.429594 6.423246 23.639585 6.4374906 29.3125 6.4375 L 50.28125 6.4375 L 50.28125 14.96875 C 50.28125 23.106051 50.29875 23.538766 50.71875 24.25 C 51.635609 25.802605 51.730999 25.8125 60.90625 25.8125 L 69.125 25.8125 L 69.125 31.875 C 69.125 31.996545 69.124801 32.067671 69.125 32.1875 L 69.125 37.25 L 69.138672 37.25 C 69.145926 40.809391 69.154297 43.680463 69.154297 50.09375 C 69.154297 87.222647 69.105697 92.179253 68.810547 92.75 C 68.238056 93.85709 68.629254 94.031029 53.09375 94.056641 L 53.09375 94.03125 C 49.070746 94.043163 45.21501 94.062349 37.779297 94.0625 C 37.749786 94.0625 37.747748 94.062502 37.71875 94.0625 C 35.455065 94.062332 34.711582 94.055696 32.992188 94.052734 L 32.992188 94.060547 C 6.7403994 94.064807 7.3641407 94.058485 6.6875 92.75 C 6.3923163 92.179253 6.34375 87.222647 6.34375 50.09375 C 6.34375 12.372572 6.378989 8.0342018 6.6875 7.59375 C 7.3157331 6.6967672 6.9612192 6.4802615 16.3125 6.4375 z "
     id="path4030" />
  <g
     style="font-style:normal;font-weight:normal;font-size:56.07156754px;line-height:125%;font-family:Sans;letter-spacing:0px;word-spacing:0px;fill:#000000;fill-opacity:1;stroke:none;stroke-width:1px;stroke-linecap:butt;stroke-linejoin:miter;stroke-opacity:1"
     id="text5053" />
  <rect
     style="fill:#010000;fill-opacity:0;stroke:none;stroke-width:2;stroke-miterlimit:4;stroke-dasharray:none;stroke-opacity:1"
     id="rect5057"
     width="53.423729"
     height="8.9491529"
     x="-145.08475"
     y="6.9830508"
     ry="4.4745765" />
  <path
     style="fill:#000000"
     d="m 13.978088,60.833344 c -1.624,-0.99021 -2.82807,-3.00184 -2.82807,-4.724829 0,-3.60761 3.98029,-7.851294 10.14012,-10.811155 3.57866,-1.719583 4.16547,-2.168234 4.78741,-3.660305 0.38984,-0.93528 1.50613,-3.506893 2.48063,-5.7147 l 1.77183,-4.014191 -1.3957,-2.945349 c -1.27219,-2.684712 -1.3957,-3.342673 -1.3957,-7.435375 0,-3.96637 0.12046,-4.658901 1.03281,-5.938016 0.65549,-0.918994 1.70027,-1.647971 2.85981,-1.995377 1.60423,-0.480639 2.02579,-0.44095 3.45722,0.325485 3.61416,1.935141 4.54276,6.895898 2.56744,13.715794 l -1.08329,3.740116 1.67068,2.098301 c 0.91889,1.154066 2.56863,3.097018 3.66611,4.317673 l 1.9954,2.219373 4.11529,0.292114 c 7.29992,0.518163 11.26224,2.779653 11.68867,6.671305 0.28281,2.580907 -1.18762,4.83967 -3.69939,5.682699 -3.49501,1.173039 -7.49938,-0.485631 -12.33116,-5.107756 l -2.02051,-1.932845 -4.04102,0.633517 c -2.22256,0.34843 -5.04061,0.899428 -6.26232,1.22443 -2.14868,0.571602 -2.29547,0.718933 -4.49002,4.506736 -4.92771,8.505195 -8.81124,11.215085 -12.68624,8.852355 z m 5.77561,-7.797457 c 0.39059,-0.72057 0.3358,-0.761652 -0.45283,-0.33959 -1.03747,0.555237 -2.76282,2.631284 -2.76282,3.324397 0,0.572008 2.59159,-1.833547 3.21565,-2.984807 z m 34.29631,-5.65804 c -0.32589,-0.527305 -3.36906,-1.548143 -3.68204,-1.235152 -0.32553,0.325527 2.13634,1.611492 3.12704,1.633417 0.44674,0.0099 0.69649,-0.169331 0.555,-0.398265 z m -17.35648,-6.573078 c 0.25375,-0.247095 -2.17088,-3.337738 -2.61848,-3.337738 -0.33139,0 -1.82191,3.171464 -1.82191,3.876592 0,0.271538 4.12184,-0.228654 4.44039,-0.538854 z m -4.1552,-19.119036 c -0.004,1.234758 0.44234,1.831277 0.63208,1.301813 0.28739,-0.801933 0.1236,-1.874219 -0.0313,-2.737543 -0.1516,-1.009602 -0.58593,0.371023 -0.6008,1.43573 z"
     id="path5898-4"
     inkscape:connector-curvature="0"
     sodipodi:nodetypes="sssssscsssssscsscsssscssssssscsscssssccscc" />
  <path
     inkscape:connector-curvature="0"
     id="path5946"
     style="font-style:normal;font-variant:normal;font-weight:bold;font-stretch:normal;font-size:26.84814835px;line-height:125%;font-family:'DejaVu Sans Mono';-inkscape-font-specification:'DejaVu Sans Mono, Bold';text-align:start;letter-spacing:0px;word-spacing:0px;writing-mode:lr-tb;text-anchor:start;fill:#000000;fill-opacity:1;stroke:none;stroke-width:1px;stroke-linecap:butt;stroke-linejoin:miter;stroke-opacity:1"
     d="m 19.238512,70.255688 0,5.741938 1.586243,0 q 1.90087,0 2.661218,-0.642363 0.773458,-0.642363 0.773458,-2.228606 0,-1.586243 -0.773458,-2.228606 -0.760348,-0.642363 -2.661218,-0.642363 l -1.586243,0 z m -3.867287,-3.251143 5.309326,0 q 4.05082,0 5.820595,1.442039 1.782885,1.442039 1.782885,4.680073 0,3.238034 -1.782885,4.680073 -1.769775,1.442039 -5.820595,1.442039 l -1.442039,0 0,7.328181 -3.867287,0 0,-19.572405 z" />
  <path
     inkscape:connector-curvature="0"
     id="path5948"
     style="font-style:normal;font-variant:normal;font-weight:bold;font-stretch:normal;font-size:26.84814835px;line-height:125%;font-family:'DejaVu Sans Mono';-inkscape-font-specification:'DejaVu Sans Mono, Bold';text-align:start;letter-spacing:0px;word-spacing:0px;writing-mode:lr-tb;text-anchor:start;fill:#000000;fill-opacity:1;stroke:none;stroke-width:1px;stroke-linecap:butt;stroke-linejoin:miter;stroke-opacity:1"
     d="m 35.061615,70.491658 0,12.598179 1.048756,0 q 2.281043,0 3.251143,-1.42893 0.970099,-1.442039 0.970099,-4.889824 0,-3.421565 -0.970099,-4.850495 -0.9701,-1.42893 -3.251143,-1.42893 l -1.048756,0 z m -3.867287,-3.487113 4.142585,0 q 4.798058,0 6.908679,2.294153 2.110621,2.281044 2.110621,7.472385 0,5.204451 -2.110621,7.511714 -2.110621,2.294153 -6.908679,2.294153 l -4.142585,0 0,-19.572405 z" />
  <path
     inkscape:connector-curvature="0"
     id="path5950"
     style="font-style:normal;font-variant:normal;font-weight:bold;font-stretch:normal;font-size:26.84814835px;line-height:125%;font-family:'DejaVu Sans Mono';-inkscape-font-specification:'DejaVu Sans Mono, Bold';text-align:start;letter-spacing:0px;word-spacing:0px;writing-mode:lr-tb;text-anchor:start;fill:#000000;fill-opacity:1;stroke:none;stroke-width:1px;stroke-linecap:butt;stroke-linejoin:miter;stroke-opacity:1"
     d="m 60.126878,70.413001 -8.324499,0 0,4.221242 7.57726,0 0,3.408457 -7.57726,0 0,8.53425 -3.867287,0 0,-19.572405 12.191786,0 0,3.408456 z" />
</svg>
