<?xml version="1.0" encoding="UTF-8" standalone="no"?>
<!-- Created with Inkscape (http://www.inkscape.org/) -->

<svg
   xmlns:dc="http://purl.org/dc/elements/1.1/"
   xmlns:cc="http://creativecommons.org/ns#"
   xmlns:rdf="http://www.w3.org/1999/02/22-rdf-syntax-ns#"
   xmlns:svg="http://www.w3.org/2000/svg"
   xmlns="http://www.w3.org/2000/svg"
   xmlns:sodipodi="http://sodipodi.sourceforge.net/DTD/sodipodi-0.dtd"
   xmlns:inkscape="http://www.inkscape.org/namespaces/inkscape"
   id="svg2"
   version="1.1"
   inkscape:version="0.91 r13725"
   width="100"
   height="100"
   sodipodi:docname="file-calculation.svg">
  <metadata
     id="metadata8">
    <rdf:RDF>
      <cc:Work
         rdf:about="">
        <dc:format>image/svg+xml</dc:format>
        <dc:type
           rdf:resource="http://purl.org/dc/dcmitype/StillImage" />
        <dc:title></dc:title>
      </cc:Work>
    </rdf:RDF>
  </metadata>
  <defs
     id="defs6" />
  <sodipodi:namedview
     pagecolor="#ffffff"
     bordercolor="#666666"
     borderopacity="1"
     objecttolerance="10"
     gridtolerance="10"
     guidetolerance="10"
     inkscape:pageopacity="0"
     inkscape:pageshadow="2"
     inkscape:window-width="2495"
     inkscape:window-height="1416"
     id="namedview4"
     showgrid="false"
     inkscape:zoom="3.6875"
     inkscape:cx="125.63828"
     inkscape:cy="10.528138"
     inkscape:window-x="65"
     inkscape:window-y="24"
     inkscape:window-maximized="1"
     inkscape:current-layer="svg2"
     showborder="true" />
  <path
     style="fill:#000000"
     d=""
     id="path3011"
     inkscape:connector-curvature="0" />
  <path
     style="fill:#000000"
     d=""
     id="path3009"
     inkscape:connector-curvature="0" />
  <path
     style="fill:#000000"
     d=""
     id="path2989"
     inkscape:connector-curvature="0" />
  <path
     style="fill:#000000"
     d=""
     id="path2987"
     inkscape:connector-curvature="0" />
  <path
     style="fill:#000000"
     d=""
     id="path3813"
     inkscape:connector-curvature="0" />
  <path
     style="fill:#000000"
     d="M 21.779297 0.71679688 L 7.1660156 0.7578125 C 5.9713656 0.7721525 5.7701956 1.0052005 5.0410156 1.3515625 C 2.8505256 2.3785375 1.1157256 4.5661115 0.54101562 7.0078125 C 0.50662565 7.153902 0.47696651 7.5103496 0.44921875 8.0078125 C 0.18373166 9.0633156 0.17730095 9.8115321 0.38085938 10.28125 C 0.27202023 14.956983 0.23031541 25.729821 0.22851562 50.195312 C 0.22451562 96.589489 0.12734563 93.532673 1.6347656 96.007812 C 2.4853356 97.404423 4.0533656 98.673842 5.6347656 99.289062 C 5.6870317 99.309398 5.7544439 99.325367 5.8125 99.34375 C 5.8723496 99.362701 5.9271088 99.383419 6 99.400391 C 7.0711158 99.754176 9.3430839 99.759305 37.529297 99.71875 C 37.717827 99.719021 37.782498 99.718482 37.96875 99.71875 C 42.556945 99.72535 45.355499 99.727349 48.677734 99.730469 L 48.677734 94.041016 C 45.661703 94.050916 43.070876 94.0624 37.779297 94.0625 L 37.71875 94.0625 C 35.455065 94.062332 34.711581 94.055734 32.992188 94.052734 L 20.304688 93.980469 C 7.8787989 93.932359 7.0381217 93.717051 6.5097656 92.695312 C 6.2145856 92.124562 6.1660156 87.167958 6.1660156 50.039062 C 6.1660156 18.089905 6.1934669 10.16347 6.3886719 8.1953125 C 6.5398627 7.9781135 6.6567253 7.770298 6.6875 7.59375 C 7.3157331 6.6967672 6.9612192 6.4802615 16.3125 6.4375 C 19.429594 6.423246 23.639585 6.4374906 29.3125 6.4375 L 50.28125 6.4375 L 50.28125 14.96875 C 50.28125 23.106051 50.29875 23.538766 50.71875 24.25 C 51.635609 25.802605 51.730999 25.8125 60.90625 25.8125 L 69.125 25.8125 L 69.125 29.898438 L 75.056641 29.898438 L 75.03125 28.3125 C 74.9552 24.421626 74.93692 24.356126 74.25 22.90625 C 73.558301 21.446253 73.259375 21.084661 66.25 13.46875 C 65.07962 12.19709 62.408552 9.2698354 60.3125 6.96875 C 58.216447 4.6676644 56.055937 2.4608615 55.5 2.0625 C 53.997226 0.98567174 54.24306 0.74323321 43.8125 0.71875 C 40.335647 0.71058893 35.65509 0.7339712 29.34375 0.75 L 21.779297 0.77148438 L 21.779297 0.71679688 z M 54.591797 32.400391 C 52.927737 32.400391 51.595703 33.734265 51.595703 35.398438 L 51.595703 96.976562 C 51.595703 98.640738 52.927737 99.974609 54.591797 99.974609 L 96.580078 99.974609 C 98.244146 99.974609 99.578125 98.64063 99.578125 96.976562 L 99.578125 35.398438 C 99.578125 33.734375 98.244146 32.400391 96.580078 32.400391 L 54.591797 32.400391 z M 57.148438 35.046875 L 94.027344 35.046875 C 95.488949 35.046875 96.658203 36.276879 96.658203 37.810547 L 96.658203 94.5625 C 96.658203 96.096166 95.488949 97.326172 94.027344 97.326172 L 57.148438 97.326172 C 55.686833 97.326172 54.515625 96.096263 54.515625 94.5625 L 54.515625 37.810547 C 54.515625 36.276781 55.686833 35.046875 57.148438 35.046875 z M 59.759766 40.458984 C 58.836911 40.458984 58.095703 41.202142 58.095703 42.125 L 58.095703 52.525391 C 58.095703 53.448249 58.836911 54.191406 59.759766 54.191406 L 91.673828 54.191406 C 92.596683 54.191406 93.339844 53.448249 93.339844 52.525391 L 93.339844 42.125 C 93.339844 41.202142 92.596683 40.458984 91.673828 40.458984 L 59.759766 40.458984 z M 79.037109 42.314453 C 80.206516 42.314453 81.115935 42.571052 81.761719 43.085938 C 82.411876 43.600825 82.736328 44.317594 82.736328 45.238281 C 82.736328 45.77062 82.599121 46.269897 82.324219 46.732422 C 82.049326 47.190584 81.469308 47.803842 80.587891 48.576172 L 78.5 50.410156 L 82.800781 50.410156 L 82.800781 52.261719 L 75.699219 52.261719 L 75.699219 50.410156 L 79.267578 47.261719 C 79.586104 46.973731 79.821887 46.692866 79.974609 46.417969 C 80.127331 46.143073 80.201172 45.855308 80.201172 45.558594 C 80.201172 45.100432 80.04808 44.732386 79.738281 44.453125 C 79.432838 44.173865 79.024196 44.035156 78.513672 44.035156 C 78.120963 44.035156 77.6915 44.118887 77.224609 44.289062 C 76.757717 44.454873 76.258905 44.705487 75.726562 45.037109 L 75.726562 42.888672 C 76.293809 42.701045 76.854045 42.56084 77.408203 42.464844 C 77.96236 42.364485 78.504768 42.314453 79.037109 42.314453 z M 88.193359 42.314453 C 89.463121 42.314453 90.412677 42.522515 91.041016 42.941406 C 91.673712 43.355933 91.990234 43.982531 91.990234 44.820312 C 91.990234 45.391925 91.840142 45.860034 91.539062 46.226562 C 91.23799 46.588729 90.792188 46.845785 90.203125 46.994141 C 90.862008 47.164316 91.362775 47.45956 91.703125 47.882812 C 92.047839 48.301704 92.220703 48.836175 92.220703 49.486328 C 92.220703 50.455013 91.849207 51.19306 91.107422 51.699219 C 90.365637 52.201016 89.283813 52.453125 87.861328 52.453125 C 87.35953 52.453125 86.853817 52.411025 86.347656 52.328125 C 85.845857 52.249585 85.348532 52.130197 84.855469 51.96875 L 84.855469 50.023438 C 85.326716 50.259064 85.793339 50.43837 86.255859 50.560547 C 86.722751 50.67836 87.18142 50.736328 87.630859 50.736328 C 88.298468 50.736328 88.808669 50.621887 89.162109 50.390625 C 89.519911 50.159362 89.699219 49.826512 89.699219 49.394531 C 89.699219 48.94946 89.514966 48.613619 89.148438 48.386719 C 88.786271 48.155456 88.252259 48.039063 87.541016 48.039062 L 86.53125 48.039062 L 86.53125 46.417969 L 87.591797 46.417969 C 88.2245 46.417969 88.696069 46.319399 89.005859 46.123047 C 89.315667 45.922328 89.470703 45.618691 89.470703 45.212891 C 89.470703 44.837635 89.318659 44.548832 89.017578 44.34375 C 88.716497 44.138667 88.291981 44.035156 87.742188 44.035156 C 87.336388 44.035156 86.926245 44.080236 86.511719 44.171875 C 86.097186 44.263505 85.685553 44.399224 85.275391 44.578125 L 85.275391 42.732422 C 85.772819 42.592791 86.26519 42.489738 86.753906 42.419922 C 87.242606 42.350112 87.722103 42.314453 88.193359 42.314453 z M 69.101562 42.490234 L 71.498047 42.490234 L 71.498047 50.521484 L 73.722656 50.521484 L 73.722656 52.261719 L 66.890625 52.261719 L 66.890625 50.521484 L 69.115234 50.521484 L 69.115234 44.205078 L 66.830078 44.675781 L 66.830078 42.962891 L 69.101562 42.490234 z M 58.451172 58.082031 C 58.25394 58.082031 58.095703 58.240274 58.095703 58.4375 L 58.095703 62.410156 C 58.095703 62.607382 58.25394 62.765625 58.451172 62.765625 L 73.376953 62.765625 C 73.574185 62.765625 73.732422 62.607382 73.732422 62.410156 L 73.732422 58.4375 C 73.732422 58.240274 73.574185 58.082031 73.376953 58.082031 L 58.451172 58.082031 z M 77.667969 58.082031 C 77.470736 58.082031 77.3125 58.240274 77.3125 58.4375 L 77.3125 62.410156 C 77.3125 62.607382 77.470736 62.765625 77.667969 62.765625 L 92.595703 62.765625 C 92.792935 62.765625 92.951172 62.607382 92.951172 62.410156 L 92.951172 58.4375 C 92.951172 58.240274 92.792935 58.082031 92.595703 58.082031 L 77.667969 58.082031 z M 67.955078 66.382812 C 67.757854 66.382812 67.599609 66.541055 67.599609 66.738281 L 67.599609 72.371094 C 67.599609 72.568319 67.757854 72.726563 67.955078 72.726562 L 73.585938 72.726562 C 73.783169 72.726562 73.943359 72.568319 73.943359 72.371094 L 73.943359 66.738281 C 73.943359 66.541055 73.783168 66.382813 73.585938 66.382812 L 67.955078 66.382812 z M 77.458984 66.382812 C 77.261759 66.382812 77.103516 66.541055 77.103516 66.738281 L 77.103516 72.371094 C 77.103516 72.568319 77.261759 72.726563 77.458984 72.726562 L 83.089844 72.726562 C 83.287076 72.726562 83.445312 72.568319 83.445312 72.371094 L 83.445312 66.738281 C 83.445312 66.541055 83.287076 66.382813 83.089844 66.382812 L 77.458984 66.382812 z M 58.451172 66.412109 C 58.25394 66.412108 58.095703 66.570351 58.095703 66.767578 L 58.095703 72.398438 C 58.095703 72.595664 58.25394 72.753906 58.451172 72.753906 L 64.082031 72.753906 C 64.279255 72.753906 64.4375 72.595663 64.4375 72.398438 L 64.4375 66.767578 C 64.4375 66.570351 64.279255 66.412109 64.082031 66.412109 L 58.451172 66.412109 z M 86.964844 66.412109 C 86.767621 66.412108 86.607422 66.570351 86.607422 66.767578 L 86.607422 72.398438 C 86.607422 72.595664 86.767621 72.753906 86.964844 72.753906 L 92.595703 72.753906 C 92.792935 72.753906 92.951172 72.595663 92.951172 72.398438 L 92.951172 66.767578 C 92.951172 66.570351 92.792935 66.412109 92.595703 66.412109 L 86.964844 66.412109 z M 67.955078 75.566406 C 67.757854 75.566406 67.599609 75.726602 67.599609 75.923828 L 67.599609 81.554688 C 67.599609 81.751914 67.757854 81.910156 67.955078 81.910156 L 73.585938 81.910156 C 73.783169 81.910156 73.943359 81.751914 73.943359 81.554688 L 73.943359 75.923828 C 73.943359 75.726602 73.783169 75.566406 73.585938 75.566406 L 67.955078 75.566406 z M 77.458984 75.566406 C 77.261759 75.566406 77.103516 75.726602 77.103516 75.923828 L 77.103516 81.554688 C 77.103516 81.751914 77.261759 81.910156 77.458984 81.910156 L 83.089844 81.910156 C 83.287076 81.910156 83.445313 81.751914 83.445312 81.554688 L 83.445312 75.923828 C 83.445312 75.726602 83.287076 75.566406 83.089844 75.566406 L 77.458984 75.566406 z M 58.451172 75.595703 C 58.25394 75.595703 58.095703 75.755899 58.095703 75.953125 L 58.095703 81.582031 C 58.095703 81.779258 58.25394 81.939453 58.451172 81.939453 L 64.082031 81.939453 C 64.279255 81.939453 64.4375 81.779258 64.4375 81.582031 L 64.4375 75.953125 C 64.4375 75.755899 64.279255 75.595703 64.082031 75.595703 L 58.451172 75.595703 z M 86.964844 75.595703 C 86.767621 75.595703 86.607422 75.755899 86.607422 75.953125 L 86.607422 81.582031 C 86.607422 81.779258 86.767621 81.939453 86.964844 81.939453 L 92.595703 81.939453 C 92.792935 81.939453 92.951172 81.779258 92.951172 81.582031 L 92.951172 75.953125 C 92.951172 75.755899 92.792935 75.595703 92.595703 75.595703 L 86.964844 75.595703 z M 67.955078 84.751953 C 67.757854 84.751953 67.599609 84.910196 67.599609 85.107422 L 67.599609 90.738281 C 67.599609 90.935507 67.757854 91.09375 67.955078 91.09375 L 73.585938 91.09375 C 73.783169 91.09375 73.943359 90.935507 73.943359 90.738281 L 73.943359 85.107422 C 73.943359 84.910196 73.783169 84.751953 73.585938 84.751953 L 67.955078 84.751953 z M 77.458984 84.751953 C 77.261759 84.751953 77.103516 84.910196 77.103516 85.107422 L 77.103516 90.738281 C 77.103516 90.935507 77.261759 91.09375 77.458984 91.09375 L 83.089844 91.09375 C 83.287076 91.09375 83.445313 90.935507 83.445312 90.738281 L 83.445312 85.107422 C 83.445312 84.910196 83.287076 84.751953 83.089844 84.751953 L 77.458984 84.751953 z M 58.451172 84.779297 C 58.25394 84.779297 58.095703 84.93754 58.095703 85.134766 L 58.095703 90.765625 C 58.095703 90.962851 58.25394 91.123047 58.451172 91.123047 L 64.082031 91.123047 C 64.279255 91.123047 64.4375 90.962851 64.4375 90.765625 L 64.4375 85.134766 C 64.4375 84.93754 64.279255 84.779297 64.082031 84.779297 L 58.451172 84.779297 z M 86.964844 84.779297 C 86.767621 84.779297 86.607422 84.93754 86.607422 85.134766 L 86.607422 90.765625 C 86.607422 90.962851 86.767621 91.123047 86.964844 91.123047 L 92.595703 91.123047 C 92.792935 91.123047 92.951172 90.962851 92.951172 90.765625 L 92.951172 85.134766 C 92.951172 84.93754 92.792935 84.779297 92.595703 84.779297 L 86.964844 84.779297 z "
     id="path4030" />
  <g
     style="font-style:normal;font-weight:normal;font-size:56.07156754px;line-height:125%;font-family:Sans;letter-spacing:0px;word-spacing:0px;fill:#000000;fill-opacity:1;stroke:none;stroke-width:1px;stroke-linecap:butt;stroke-linejoin:miter;stroke-opacity:1"
     id="text5053" />
  <rect
     style="fill:#010000;fill-opacity:0;stroke:none;stroke-width:2;stroke-miterlimit:4;stroke-dasharray:none;stroke-opacity:1"
     id="rect5057"
     width="53.423729"
     height="8.9491529"
     x="-145.08475"
     y="6.9830508"
     ry="4.4745765" />
  <g
     id="g6380"
     transform="translate(-118.68382,-40.899015)">
    <path
       inkscape:connector-curvature="0"
       id="path3011-7"
       d=""
       style="fill:#000000" />
    <path
       inkscape:connector-curvature="0"
       id="path3009-7"
       d=""
       style="fill:#000000" />
    <path
       inkscape:connector-curvature="0"
       id="path2989-1"
       d=""
       style="fill:#000000" />
    <path
       inkscape:connector-curvature="0"
       id="path2987-1"
       d=""
       style="fill:#000000" />
    <path
       inkscape:connector-curvature="0"
       id="path3813-5"
       d=""
       style="fill:#000000" />
    <g
       id="text5053-7"
       style="font-style:normal;font-weight:normal;font-size:56.07156754px;line-height:125%;font-family:Sans;letter-spacing:0px;word-spacing:0px;fill:#000000;fill-opacity:1;stroke:none;stroke-width:1px;stroke-linecap:butt;stroke-linejoin:miter;stroke-opacity:1" />
  </g>
</svg>
