<?xml version="1.0" encoding="UTF-8" standalone="no"?>
<!-- Created with Inkscape (http://www.inkscape.org/) -->

<svg
   xmlns:dc="http://purl.org/dc/elements/1.1/"
   xmlns:cc="http://creativecommons.org/ns#"
   xmlns:rdf="http://www.w3.org/1999/02/22-rdf-syntax-ns#"
   xmlns:svg="http://www.w3.org/2000/svg"
   xmlns="http://www.w3.org/2000/svg"
   xmlns:sodipodi="http://sodipodi.sourceforge.net/DTD/sodipodi-0.dtd"
   xmlns:inkscape="http://www.inkscape.org/namespaces/inkscape"
   id="svg2"
   version="1.1"
   inkscape:version="0.91 r13725"
   width="100"
   height="100"
   sodipodi:docname="file-document-type.svg">
  <metadata
     id="metadata8">
    <rdf:RDF>
      <cc:Work
         rdf:about="">
        <dc:format>image/svg+xml</dc:format>
        <dc:type
           rdf:resource="http://purl.org/dc/dcmitype/StillImage" />
        <dc:title />
      </cc:Work>
    </rdf:RDF>
  </metadata>
  <defs
     id="defs6" />
  <sodipodi:namedview
     pagecolor="#ffffff"
     bordercolor="#666666"
     borderopacity="1"
     objecttolerance="10"
     gridtolerance="10"
     guidetolerance="10"
     inkscape:pageopacity="0"
     inkscape:pageshadow="2"
     inkscape:window-width="2495"
     inkscape:window-height="1416"
     id="namedview4"
     showgrid="false"
     inkscape:zoom="1.3037281"
     inkscape:cx="-606.78623"
     inkscape:cy="-106.14891"
     inkscape:window-x="65"
     inkscape:window-y="24"
     inkscape:window-maximized="1"
     inkscape:current-layer="text3493"
     showborder="true" />
  <path
     style="fill:#000000"
     d=""
     id="path3011"
     inkscape:connector-curvature="0" />
  <path
     style="fill:#000000"
     d=""
     id="path3009"
     inkscape:connector-curvature="0" />
  <path
     style="fill:#000000"
     d=""
     id="path2989"
     inkscape:connector-curvature="0" />
  <path
     style="fill:#000000"
     d=""
     id="path2987"
     inkscape:connector-curvature="0" />
  <path
     style="fill:#000000"
     d=""
     id="path3813"
     inkscape:connector-curvature="0" />
  <path
     style="fill:#000000"
     d="M 43.8125 0.71875 C 40.335647 0.71058893 35.65509 0.7339712 29.34375 0.75 L 7.34375 0.8125 C 6.1491004 0.82683708 5.9479335 1.0598878 5.21875 1.40625 C 3.0282581 2.4332251 1.2934557 4.6207993 0.71875 7.0625 C 0.48069107 8.0737853 0.40876436 16.13013 0.40625 50.25 C 0.40244075 96.644175 0.30508256 93.587359 1.8125 96.0625 C 2.6630679 97.45911 4.2310977 98.728525 5.8125 99.34375 C 6.8798841 99.759046 7.7925822 99.761536 37.529297 99.71875 C 37.717827 99.719021 37.782498 99.718482 37.96875 99.71875 C 67.705405 99.761516 68.618162 99.759049 69.685547 99.34375 C 71.266947 98.72853 72.834977 97.459108 73.685547 96.0625 C 75.192967 93.587367 75.095797 96.644178 75.091797 50.25 C 75.091363 43.987485 75.07827 40.932743 75.068359 37.25 L 75.09375 37.25 C 75.09265 35.581948 75.09375 33.919599 75.09375 32.25 L 75.09375 32.1875 L 75.03125 28.3125 C 74.9552 24.421626 74.93692 24.356126 74.25 22.90625 C 73.558301 21.446253 73.259375 21.084661 66.25 13.46875 C 65.07962 12.19709 62.408552 9.2698354 60.3125 6.96875 C 58.216447 4.6676644 56.055937 2.4608615 55.5 2.0625 C 53.997226 0.98567174 54.24306 0.74323321 43.8125 0.71875 z M 16.3125 6.4375 C 19.429594 6.423246 23.639585 6.4374906 29.3125 6.4375 L 50.28125 6.4375 L 50.28125 14.96875 C 50.28125 23.106051 50.29875 23.538766 50.71875 24.25 C 51.635609 25.802605 51.730999 25.8125 60.90625 25.8125 L 69.125 25.8125 L 69.125 31.875 C 69.125 31.996545 69.124801 32.067671 69.125 32.1875 L 69.125 37.25 L 69.138672 37.25 C 69.145926 40.809391 69.154297 43.680463 69.154297 50.09375 C 69.154297 87.222647 69.105697 92.179253 68.810547 92.75 C 68.238056 93.85709 68.629254 94.031029 53.09375 94.056641 L 53.09375 94.03125 C 49.070746 94.043163 45.21501 94.062349 37.779297 94.0625 C 37.749786 94.0625 37.747748 94.062502 37.71875 94.0625 C 35.455065 94.062332 34.711582 94.055696 32.992188 94.052734 L 32.992188 94.060547 C 6.7403994 94.064807 7.3641407 94.058485 6.6875 92.75 C 6.3923163 92.179253 6.34375 87.222647 6.34375 50.09375 C 6.34375 12.372572 6.378989 8.0342018 6.6875 7.59375 C 7.3157331 6.6967672 6.9612192 6.4802615 16.3125 6.4375 z "
     id="path4030" />
  <g
     style="font-style:normal;font-weight:normal;font-size:56.07156754px;line-height:125%;font-family:Sans;letter-spacing:0px;word-spacing:0px;fill:#000000;fill-opacity:1;stroke:none;stroke-width:1px;stroke-linecap:butt;stroke-linejoin:miter;stroke-opacity:1"
     id="text5053" />
  <rect
     style="fill:#010000;fill-opacity:0;stroke:none;stroke-width:2;stroke-miterlimit:4;stroke-dasharray:none;stroke-opacity:1"
     id="rect5057"
     width="53.423729"
     height="8.9491529"
     x="-145.08475"
     y="6.9830508"
     ry="4.4745765" />
  <g
     transform="matrix(-0.01082778,-0.99994138,0.99994138,-0.01082778,0,0)"
     style="font-style:normal;font-weight:normal;font-size:52.33477402px;line-height:125%;font-family:sans-serif;letter-spacing:0px;word-spacing:0px;fill:#000000;fill-opacity:1;stroke:none;stroke-width:1px;stroke-linecap:butt;stroke-linejoin:miter;stroke-opacity:1"
     id="text3493">
    <path
       d="m -83.500427,16.181423 0,5.078875 5.893412,0 0,4.088654 -5.893412,0 0,7.586369 q 0,1.245762 0.495111,1.692959 0.49511,0.431225 1.96447,0.431225 l 2.93872,0 0,4.088654 -4.90319,0 q -3.385917,0 -4.807363,-1.405475 -1.405475,-1.421446 -1.405475,-4.807363 l 0,-7.586369 -2.842892,0 0,-4.088654 2.842892,0 0,-5.078875 5.717727,0 z"
       style="font-style:normal;font-variant:normal;font-weight:bold;font-stretch:normal;font-size:32.70923233px;font-family:sans-serif;-inkscape-font-specification:'sans-serif Bold'"
       id="path7039" />
    <path
       d="m -76.44111,21.260298 5.717727,0 4.807362,12.138191 4.088654,-12.138191 5.717728,0 -7.522485,19.580819 q -1.133963,2.986634 -2.651237,4.168511 -1.501302,1.197848 -3.976854,1.197848 l -3.306061,0 0,-3.753257 1.788787,0 q 1.453388,0 2.108212,-0.463168 0.670795,-0.463168 1.038135,-1.661015 l 0.159713,-0.495111 -7.969681,-18.574627 z"
       style="font-style:normal;font-variant:normal;font-weight:bold;font-stretch:normal;font-size:32.70923233px;font-family:sans-serif;-inkscape-font-specification:'sans-serif Bold'"
       id="path7041" />
    <path
       d="m -47.03794,36.560808 0,9.391127 -5.717727,0 0,-24.691637 5.717727,0 0,2.619294 q 1.181877,-1.565188 2.619294,-2.299868 1.437418,-0.750652 3.30606,-0.750652 3.30606,0 5.430244,2.635266 2.124184,2.619294 2.124184,6.755862 0,4.136568 -2.124184,6.771833 -2.124184,2.619294 -5.430244,2.619294 -1.868642,0 -3.30606,-0.73468 -1.437417,-0.750651 -2.619294,-2.315839 z m 3.801171,-11.579196 q -1.8367,0 -2.826921,1.357561 -0.97425,1.341589 -0.97425,3.881027 0,2.539437 0.97425,3.896998 0.990221,1.34159 2.826921,1.34159 1.8367,0 2.794978,-1.34159 0.97425,-1.34159 0.97425,-3.896998 0,-2.555409 -0.97425,-3.896999 -0.958278,-1.341589 -2.794978,-1.341589 z"
       style="font-style:normal;font-variant:normal;font-weight:bold;font-stretch:normal;font-size:32.70923233px;font-family:sans-serif;-inkscape-font-specification:'sans-serif Bold'"
       id="path7043" />
    <path
       d="m -11.453871,30.156314 0,1.629073 -13.367982,0 q 0.207627,2.012385 1.453389,3.018577 1.245761,1.006192 3.481744,1.006192 1.804757,0 3.689371,-0.527053 1.900586,-0.543024 3.896999,-1.629073 l 0,4.40808 q -2.028356,0.766623 -4.056712,1.149934 -2.028355,0.399283 -4.056711,0.399283 -4.855277,0 -7.554427,-2.459581 -2.683179,-2.475552 -2.683179,-6.931546 0,-4.376138 2.635265,-6.883633 2.651236,-2.507495 7.282915,-2.507495 4.216424,0 6.739891,2.539438 2.539437,2.539437 2.539437,6.787804 z m -5.87744,-1.900585 q 0,-1.629073 -0.958278,-2.619294 -0.942307,-1.006192 -2.475553,-1.006192 -1.661015,0 -2.69915,0.942307 -1.038135,0.926336 -1.293676,2.683179 l 7.426657,0 z"
       style="font-style:normal;font-variant:normal;font-weight:bold;font-stretch:normal;font-size:32.70923233px;font-family:sans-serif;-inkscape-font-specification:'sans-serif Bold'"
       id="path7045" />
  </g>
</svg>
