<?xml version="1.0" encoding="UTF-8" standalone="no"?>
<!-- Created with Inkscape (http://www.inkscape.org/) -->

<svg
   xmlns:dc="http://purl.org/dc/elements/1.1/"
   xmlns:cc="http://creativecommons.org/ns#"
   xmlns:rdf="http://www.w3.org/1999/02/22-rdf-syntax-ns#"
   xmlns:svg="http://www.w3.org/2000/svg"
   xmlns="http://www.w3.org/2000/svg"
   xmlns:sodipodi="http://sodipodi.sourceforge.net/DTD/sodipodi-0.dtd"
   xmlns:inkscape="http://www.inkscape.org/namespaces/inkscape"
   id="svg2"
   version="1.1"
   inkscape:version="0.91 r13725"
   width="100"
   height="100"
   sodipodi:docname="file-estimate.svg">
  <metadata
     id="metadata8">
    <rdf:RDF>
      <cc:Work
         rdf:about="">
        <dc:format>image/svg+xml</dc:format>
        <dc:type
           rdf:resource="http://purl.org/dc/dcmitype/StillImage" />
        <dc:title></dc:title>
      </cc:Work>
    </rdf:RDF>
  </metadata>
  <defs
     id="defs6" />
  <sodipodi:namedview
     pagecolor="#ffffff"
     bordercolor="#666666"
     borderopacity="1"
     objecttolerance="10"
     gridtolerance="10"
     guidetolerance="10"
     inkscape:pageopacity="0"
     inkscape:pageshadow="2"
     inkscape:window-width="2495"
     inkscape:window-height="1416"
     id="namedview4"
     showgrid="false"
     inkscape:zoom="0.921875"
     inkscape:cx="539.87879"
     inkscape:cy="-258.07844"
     inkscape:window-x="65"
     inkscape:window-y="24"
     inkscape:window-maximized="1"
     inkscape:current-layer="svg2"
     showborder="true" />
  <path
     inkscape:connector-curvature="0"
     style="fill:#000000"
     d="m 43.553461,0.71876227 c -3.476853,-0.0082 -8.15741,0.01522 -14.46875,0.03125 l -22.0000004,0.0625 c -1.19465,0.01434 -1.395817,0.24738803 -2.125,0.59375003 -2.190492,1.026975 -3.925294,3.214549 -4.49999997,5.6562503 -0.238059,1.011285 -0.309986,9.0676304 -0.3125,43.1875004 -0.0038,46.394176 -0.101167,43.337359 1.40624997,45.812496 0.850568,1.39661 2.418598,2.66603 4,3.28125 1.067384,0.4153 1.980082,0.41779 31.7167974,0.375 0.18853,2.7e-4 0.253201,-2.6e-4 0.439453,0 29.736655,0.0428 30.649412,0.0403 31.716797,-0.375 1.5814,-0.61522 3.14943,-1.88464 4,-3.28125 1.50742,-2.475129 1.41025,0.58168 1.40625,-45.812496 -4.34e-4,-6.262515 -0.01353,-9.317257 -0.02344,-13 l 0.02539,0 c -0.0011,-1.668052 0,-3.330401 0,-5 l 0,-0.0625 -0.0625,-3.875 c -0.07605,-3.890874 -0.09433,-3.956374 -0.781247,-5.40625 -0.691699,-1.459997 -0.990625,-1.821589 -8,-9.4375 -1.17038,-1.27166 -3.841448,-4.1989154 -5.9375,-6.5000004 -2.096053,-2.3010863 -4.256563,-4.5078883 -4.8125,-4.9062503 -1.502774,-1.07682803 -1.25694,-1.31926703 -11.6875,-1.34375003 z m -27.5,5.71875033 c 3.117094,-0.01425 7.327085,-9e-6 13,0 l 20.96875,0 0,8.5312504 c 0,8.137301 0.0175,8.570016 0.4375,9.28125 0.916859,1.552605 1.012249,1.5625 10.1875,1.5625 l 8.21875,0 0,6.0625 c 0,0.121545 -1.99e-4,0.192671 0,0.3125 l 0,5.0625 0.01367,0 c 0.0073,3.559391 0.01563,6.430463 0.01563,12.84375 0,37.128897 -0.0486,42.085503 -0.34375,42.65625 -0.572491,1.10709 -0.181293,1.281029 -15.716797,1.306641 l 0,-0.02539 c -4.023004,0.01191 -7.87874,0.0311 -15.314453,0.03125 -0.02951,0 -0.03155,2e-6 -0.06055,0 -2.263685,-1.68e-4 -3.007168,-0.0068 -4.726562,-0.0098 l 0,0.0078 c -26.2517894,0.0043 -25.6280474,-0.002 -26.3046884,-1.310501 -0.295184,-0.570747 -0.34375,-5.527353 -0.34375,-42.65625 0,-37.721178 0.03524,-42.0595484 0.34375,-42.5000004 0.628233,-0.896983 0.273719,-1.113488 9.6250004,-1.15625 z"
     id="path4030-6" />
  <path
     style="fill:#000000"
     d=""
     id="path3011"
     inkscape:connector-curvature="0" />
  <path
     style="fill:#000000"
     d=""
     id="path3009"
     inkscape:connector-curvature="0" />
  <path
     style="fill:#000000"
     d=""
     id="path2989"
     inkscape:connector-curvature="0" />
  <path
     style="fill:#000000"
     d=""
     id="path2987"
     inkscape:connector-curvature="0" />
  <path
     style="fill:#000000"
     d=""
     id="path3813"
     inkscape:connector-curvature="0" />
  <path
     style="fill:#000000"
     d="m 24.218816,9.4140621 c -4.682141,0.381936 -14.3362185,5.5770649 -14.138669,7.3437499 -0.0424,0.487318 5.95966,13.151212 13.244138,28.419922 8.37742,17.55958 9.611326,21.939137 13.628906,28.566407 4.5534,4.87565 9.598338,9.204841 14.179688,13.769531 2.05383,1.8921 2.732982,2.103608 2.919921,-0.826172 L 53.900457,79.074219 C 53.867717,69.44392 53.384438,68.133553 53.138738,66.564453 49.346268,58.118773 48.621793,56.240158 40.748113,40.617188 36.361702,31.538048 31.553965,21.489962 26.484441,10.021484 26.115788,9.4957911 25.29931,9.3259231 24.218816,9.4140621 Z m -0.140625,3.2851569 c 0.423214,-0.0099 0.789253,0.05708 1.103516,0.21289 0.34949,0.17328 1.401693,2.700779 2.064453,4.636719 0.1739,0.40202 -3.410188,1.96529 -5.867188,3.21875 -6.079395,3.10148 -5.624475,3.1271 -7.234375,-0.40625 -1.23212,-2.70419 -0.89178,-3.148115 4.36719,-5.703125 2.505725,-1.195717 4.296762,-1.929156 5.566404,-1.958984 z M 51.7067,67.179125 c 0.764972,1.395822 0.784311,8.183474 0.789882,10.112049 0.01108,3.835598 0.616897,4.499729 -0.662366,4.391294 -0.871494,0.0758 -1.447482,0.222131 -1.945478,0.762844 -1.298929,1.41035 -1.868306,0.381716 -6.488571,-4.22285 -5.657112,-5.637888 -6.967714,-7.836231 -3.402054,-5.952931 3.27178,1.72808 3.480101,1.612663 3.832031,-0.716797 0.28764,-1.90388 0.95383,-2.332122 3.125,-1.226562 2.34474,1.19394 2.64561,0.785029 3.125,-1.738281 0.25908,-1.3637 0.939056,-1.408766 1.626556,-1.408766 z"
     id="path4030"
     inkscape:connector-curvature="0"
     sodipodi:nodetypes="scscccccccscscsscccscssssssc" />
  <g
     style="font-style:normal;font-weight:normal;font-size:56.07156754px;line-height:125%;font-family:Sans;letter-spacing:0px;word-spacing:0px;fill:#000000;fill-opacity:1;stroke:none;stroke-width:1px;stroke-linecap:butt;stroke-linejoin:miter;stroke-opacity:1"
     id="text5053" />
  <rect
     style="fill:#010000;fill-opacity:0;stroke:none;stroke-width:2;stroke-miterlimit:4;stroke-dasharray:none;stroke-opacity:1"
     id="rect5057"
     width="53.423729"
     height="8.9491529"
     x="-145.08475"
     y="6.9830508"
     ry="4.4745765" />
  <path
     style="fill:#000000"
     d=""
     id="path3011-2"
     inkscape:connector-curvature="0" />
  <path
     style="fill:#000000"
     d=""
     id="path3009-2"
     inkscape:connector-curvature="0" />
  <path
     style="fill:#000000"
     d=""
     id="path2989-6"
     inkscape:connector-curvature="0" />
  <path
     style="fill:#000000"
     d=""
     id="path2987-1"
     inkscape:connector-curvature="0" />
  <path
     style="fill:#000000"
     d=""
     id="path3813-0"
     inkscape:connector-curvature="0" />
  <g
     style="font-style:normal;font-weight:normal;font-size:56.07156754px;line-height:125%;font-family:Sans;letter-spacing:0px;word-spacing:0px;fill:#000000;fill-opacity:1;stroke:none;stroke-width:1px;stroke-linecap:butt;stroke-linejoin:miter;stroke-opacity:1"
     id="text5053-1"
     transform="translate(20.893503,-88.260759)" />
</svg>
