<?xml version="1.0" encoding="UTF-8" standalone="no"?>
<svg
   xmlns:dc="http://purl.org/dc/elements/1.1/"
   xmlns:cc="http://creativecommons.org/ns#"
   xmlns:rdf="http://www.w3.org/1999/02/22-rdf-syntax-ns#"
   xmlns:svg="http://www.w3.org/2000/svg"
   xmlns="http://www.w3.org/2000/svg"
   id="svg4708"
   version="1.1"
   width="48"
   viewBox="0 0 24 24"
   height="48"
   fill="#000000">
  <metadata
     id="metadata4714">
    <rdf:RDF>
      <cc:Work
         rdf:about="">
        <dc:format>image/svg+xml</dc:format>
        <dc:type
           rdf:resource="http://purl.org/dc/dcmitype/StillImage" />
        <dc:title></dc:title>
      </cc:Work>
    </rdf:RDF>
  </metadata>
  <defs
     id="defs4712" />
  <path
     id="path4706"
     fill="none"
     d="M0 0h24v24H0z" />
  <path
     id="path4596-9"
     d="m 12.363605,0.13317129 c -0.249247,-0.009018 -0.506636,-0.007002 -0.772477,0.005729 C 10.415597,0.19552247 10.135233,0.26196567 9.2093248,0.70167883 5.6004946,2.4155023 4.2752495,6.9522339 6.411045,10.280592 c 0.8499578,1.324534 2.611275,2.602266 3.867264,2.806077 l 0.403795,0.0819 v -1.331356 c 0,-1.288114 0.0696,-1.44286 0.457436,-1.830726 0.296682,-0.296676 0.573307,-0.4281853 0.944137,-0.4281853 0.370855,0 0.745988,0.1880752 1.04265,0.4847573 0.390476,0.389829 0.372587,0.466516 0.372587,1.809273 v 1.381093 L 14.29187,12.92572 C 16.087561,12.249815 17.504671,10.879603 18.180588,9.1647595 19.141473,6.726992 18.553457,3.8835079 16.705861,2.0359378 15.465991,0.7960416 14.10832,0.19530391 12.363605,0.13302488 Z m 0.913904,4.29252561 c 0.620756,0 1.108539,0.1818369 1.464,0.5442407 0.355461,0.3606608 0.533515,0.8522346 0.533515,1.4747278 0,0.6172872 -0.176861,1.1076749 -0.530592,1.4717975 -0.353722,0.3623985 -0.842699,0.5432732 -1.466924,0.5432732 -0.622487,0 -1.111252,-0.1808747 -1.464974,-0.5432732 -0.353729,-0.3641226 -0.530591,-0.8545103 -0.530591,-1.4717975 0,-0.6224932 0.176862,-1.114067 0.530591,-1.4747278 0.353722,-0.3624038 0.842487,-0.5442407 1.464975,-0.5442407 z m -4.1745006,0.00573 c 0.2548951,0 0.4969985,0.023341 0.7276108,0.070213 0.2306198,0.045079 0.4878938,0.1361127 0.7705268,0.2730986 v 0.907074 H 10.488982 C 10.440444,5.6453906 10.369013,5.5946249 10.275379,5.5286824 10.181741,5.461069 10.091907,5.4038475 10.005211,5.357021 9.9046449,5.3015553 9.786409,5.2535267 9.6511546,5.2136493 9.5176443,5.1737688 9.3757866,5.1541415 9.2249322,5.1541415 c -0.1768686,0 -0.3369298,0.026035 -0.4808531,0.078 C 8.6001621,5.2841379 8.4703323,5.3635998 8.3558913,5.4711023 8.246651,5.5751482 8.1606092,5.7077874 8.0964502,5.8690485 8.0339929,6.0285718 8.002812,6.2132436 8.002812,6.4230425 c 0,0.4282943 0.1132485,0.7560034 0.340399,0.9831539 0.2271442,0.2271506 0.5626692,0.3413804 1.0065573,0.3413804 0.038151,0 0.079761,-0.00127 0.1248477,-0.00255 0.046808,-0.00191 0.089617,-0.00382 0.1277716,-0.00796 V 6.9772656 H 8.8299119 V 6.2467309 h 1.7868361 v 1.9116772 c -0.173392,0.067624 -0.403466,0.1352608 -0.6895688,0.2028816 -0.2861025,0.065916 -0.5710177,0.098476 -0.8553825,0.098476 -0.6589066,0 -1.1750835,-0.1782722 -1.5478814,-0.5354637 C 7.1511164,7.5653665 6.9650411,7.070003 6.9650411,6.4388345 c 0,-0.6016734 0.18748,-1.085669 0.5637535,-1.4532672 0.3762671,-0.369336 0.9014396,-0.5539939 1.5742095,-0.5539939 z m 6.9649766,0.075114 H 17.1555 l -0.119968,2.7573075 h -0.847579 z m -2.788527,0.6505582 c -0.126579,0 -0.246219,0.022184 -0.358929,0.067316 -0.110972,0.045079 -0.212627,0.1193203 -0.306261,0.2233482 -0.08669,0.097086 -0.158114,0.2321454 -0.213603,0.4038005 -0.05374,0.1699236 -0.08095,0.3676045 -0.08095,0.5930109 0,0.2306197 0.02604,0.4270943 0.07803,0.5900869 0.05374,0.1612611 0.123975,0.2927195 0.210672,0.3950223 0.0867,0.102306 0.188133,0.1777269 0.304312,0.2262785 0.116172,0.048538 0.238416,0.073109 0.366733,0.073109 0.128309,0 0.250553,-0.024561 0.366726,-0.073109 0.116179,-0.050204 0.217616,-0.1271234 0.304312,-0.2311577 0.09711,-0.1179166 0.169712,-0.2569469 0.216525,-0.4164829 0.04681,-0.1612484 0.07022,-0.3499337 0.07022,-0.5666711 0,-0.2323565 -0.02718,-0.4300183 -0.08095,-0.5930109 C 14.102566,5.6856468 14.032327,5.5541884 13.945631,5.4536234 13.857192,5.349588 13.754567,5.2741587 13.638395,5.2273386 13.523954,5.1804665 13.404313,5.1571259 13.279466,5.1571259 Z m 2.807057,2.5359082 h 1.050455 v 0.6866459 h -1.050455 z m -4.104269,2.3642547 c -0.343239,0.02949 -0.658554,0.282273 -0.769553,0.662254 -0.06833,0.233934 -0.116562,1.923937 -0.106316,3.756074 0.01693,3.235654 0.0104,3.321984 -0.230177,3.015786 -0.74861,-0.952837 -0.8963677,-1.06899 -1.3586639,-1.06899 -0.2562806,0 -0.5811497,0.08439 -0.7217576,0.187268 -0.2421416,0.177047 -0.1981361,0.288077 0.8212458,2.090181 0.5922277,1.046959 1.2962757,2.303276 1.5654307,2.791444 0.659997,1.197032 1.469566,1.993328 2.294998,2.256969 1.890275,0.603713 3.903505,-0.479891 4.432967,-2.385715 0.07413,-0.2665 0.135293,-1.61293 0.135575,-2.99237 l 6.42e-4,-2.5086 -0.352102,-0.352106 c -0.279664,-0.27971 -0.437027,-0.334519 -0.768577,-0.268213 -0.33802,0.06761 -0.468439,0.01898 -0.686645,-0.258474 -0.288058,-0.366212 -1.104642,-0.485642 -1.288434,-0.188241 -0.05745,0.09299 -0.166544,-0.01603 -0.275054,-0.274074 -0.234473,-0.557675 -0.751162,-0.804408 -1.227963,-0.587157 -0.192038,0.0875 -0.377422,0.158985 -0.411597,0.158985 -0.03398,0 -0.05637,-0.77252 -0.04777,-1.716619 0.01519,-1.819744 -0.04796,-2.037808 -0.660311,-2.270615 -0.114216,-0.04348 -0.231838,-0.05764 -0.346246,-0.04777 z"
     style="fill:#000000;stroke-width:0.13708779" />
</svg>
