<?xml version="1.0" encoding="UTF-8" standalone="no"?>
<!-- Created with Inkscape (http://www.inkscape.org/) -->

<svg
   xmlns:dc="http://purl.org/dc/elements/1.1/"
   xmlns:cc="http://creativecommons.org/ns#"
   xmlns:rdf="http://www.w3.org/1999/02/22-rdf-syntax-ns#"
   xmlns:svg="http://www.w3.org/2000/svg"
   xmlns="http://www.w3.org/2000/svg"
   xmlns:sodipodi="http://sodipodi.sourceforge.net/DTD/sodipodi-0.dtd"
   xmlns:inkscape="http://www.inkscape.org/namespaces/inkscape"
   width="100"
   height="100"
   id="svg3993"
   version="1.1"
   inkscape:version="0.48.4 r9939"
   sodipodi:docname="ungroup.svg">
  <defs
     id="defs3995" />
  <sodipodi:namedview
     id="base"
     pagecolor="#ffffff"
     bordercolor="#666666"
     borderopacity="1.0"
     inkscape:pageopacity="0.0"
     inkscape:pageshadow="2"
     inkscape:zoom="1.4"
     inkscape:cx="362.1472"
     inkscape:cy="30.600109"
     inkscape:document-units="px"
     inkscape:current-layer="layer1"
     showgrid="false"
     inkscape:window-width="1920"
     inkscape:window-height="1058"
     inkscape:window-x="-8"
     inkscape:window-y="-8"
     inkscape:window-maximized="1"
     showborder="true" />
  <metadata
     id="metadata3998">
    <rdf:RDF>
      <cc:Work
         rdf:about="">
        <dc:format>image/svg+xml</dc:format>
        <dc:type
           rdf:resource="http://purl.org/dc/dcmitype/StillImage" />
        <dc:title></dc:title>
      </cc:Work>
    </rdf:RDF>
  </metadata>
  <g
     inkscape:label="Ebene 1"
     inkscape:groupmode="layer"
     id="layer1"
     transform="translate(0,-952.36218)">
    <path
       style="fill:#000000"
       d="M 71.875 0.375 C 71.721348 0.3257 71.554324 0.61437 71.3125 1.21875 C 70.840584 2.39818 69.310038 4.69378 68.25 5.84375 C 66.316275 7.94163 63.180264 9.71757 59.84375 10.5625 C 56.922787 11.30213 54.610519 11.50931 47.4375 11.71875 C 37.649258 12.00461 34.933287 12.46099 31.03125 14.46875 C 28.767537 15.63353 26.556892 17.81967 25.09375 20.21875 L 43.28125 58.75 C 43.795813 58.0016 44.412999 57.26175 45.375 56.28125 C 47.153435 54.46875 47.534362 54.1851 49.5 53.25 C 53.373548 51.407 55.850714 50.98755 64.59375 50.71875 C 71.608753 50.50315 72.952878 50.40435 75.5625 49.96875 C 79.94716 49.23685 83.044458 47.78216 85.65625 45.15625 C 87.299091 43.50458 88.766595 41.35088 89.40625 39.65625 C 89.659579 38.9851 90.260729 40.40393 78.25 14.28125 C 74.96118 7.12823 72.20592 1.068 72.125 0.8125 C 72.04415 0.55726 71.967191 0.40461 71.875 0.375 z M 18.78125 21.3125 C 18.195106 21.340202 17.595825 21.474148 17.03125 21.75 C 14.772949 22.853409 13.829096 25.592906 14.90625 27.90625 L 46.96875 96.78125 C 48.045904 99.094594 50.710449 100.07216 52.96875 98.96875 C 55.227051 97.865341 56.170904 95.094594 55.09375 92.78125 L 23.03125 23.9375 C 22.223384 22.202492 20.539681 21.229393 18.78125 21.3125 z "
       transform="translate(0,952.36218)"
       id="path4151" />
  </g>
</svg>
