<?xml version="1.0" encoding="UTF-8" standalone="no"?>
<!-- Created with Inkscape (http://www.inkscape.org/) -->

<svg
   xmlns:dc="http://purl.org/dc/elements/1.1/"
   xmlns:cc="http://creativecommons.org/ns#"
   xmlns:rdf="http://www.w3.org/1999/02/22-rdf-syntax-ns#"
   xmlns:svg="http://www.w3.org/2000/svg"
   xmlns="http://www.w3.org/2000/svg"
   xmlns:sodipodi="http://sodipodi.sourceforge.net/DTD/sodipodi-0.dtd"
   xmlns:inkscape="http://www.inkscape.org/namespaces/inkscape"
   id="svg2"
   version="1.1"
   inkscape:version="0.48.4 r9939"
   width="100"
   height="100"
   sodipodi:docname="gas-station.jpg">
  <metadata
     id="metadata8">
    <rdf:RDF>
      <cc:Work
         rdf:about="">
        <dc:format>image/svg+xml</dc:format>
        <dc:type
           rdf:resource="http://purl.org/dc/dcmitype/StillImage" />
        <dc:title></dc:title>
      </cc:Work>
    </rdf:RDF>
  </metadata>
  <defs
     id="defs6" />
  <sodipodi:namedview
     pagecolor="#ffffff"
     bordercolor="#666666"
     borderopacity="1"
     objecttolerance="10"
     gridtolerance="10"
     guidetolerance="10"
     inkscape:pageopacity="0"
     inkscape:pageshadow="2"
     inkscape:window-width="1920"
     inkscape:window-height="1058"
     id="namedview4"
     showgrid="false"
     inkscape:zoom="4.1222707"
     inkscape:cx="80.251283"
     inkscape:cy="35.780826"
     inkscape:window-x="-8"
     inkscape:window-y="-8"
     inkscape:window-maximized="1"
     inkscape:current-layer="svg2" />
  <path
     style="fill:#000000"
     d="m 84.977033,69.111182 5.816494,-2.791521 3.976195,8.970598 c 2.186911,4.933825 4.127443,9.333338 4.3123,9.776691 0.277638,0.665886 -3.963642,3.543719 -5.534919,3.415069 -2.555234,-5.655543 -6.652649,-14.324839 -8.57007,-19.370837 z m -3.532167,-3.365001 c -0.729448,-1.529667 -1.207906,-2.899574 -1.063251,-3.044237 0.519488,-0.51948 9.207605,-4.211922 9.394134,-3.99249 1.069783,1.258515 2.462301,5.078519 2.056745,5.642161 -0.556042,0.772796 -7.447584,4.175787 -8.456551,4.175787 -0.332642,0 -1.201628,-1.251546 -1.931077,-2.781221 z M 61.876982,64.881847 C 61.000952,64.143142 57.229522,56.515506 53.49602,47.931544 46.770587,32.4686 46.714575,32.287707 47.436618,28.360674 c 1.766612,-9.608269 1.464024,-9.146143 7.76203,-11.854345 6.379407,-2.743199 9.379561,-3.04238 12.973725,-1.293758 3.367134,1.63816 4.043872,2.785934 10.845536,18.394253 3.311039,7.598104 6.971353,15.941144 8.134039,18.540095 l 2.113969,4.725352 -10.699274,4.676334 C 67.254276,66.492913 64.451389,67.052702 61.876982,64.881847 z M 69.636201,57.63773 C 68.782705,52.865853 64.732909,42.725734 61.77266,41.849101 c -1.664621,-0.492952 -3.845348,0.610282 -3.845348,1.766789 0,0.552175 1.463226,4.361995 3.25162,8.46626 2.679038,6.148271 3.657509,7.632978 5.556662,8.431509 2.99881,1.260901 3.169308,-1.373627 2.900607,-2.875929 z m 4.666614,1.482729 c 1.737111,-1.051908 1.004838,-1.692275 -2.731382,-10.34112 -3.649576,-8.448308 -3.013204,-10.369066 -7.610717,-8.233887 -0.341358,0.158534 2.002364,1.483054 3.760147,5.233439 2.757875,5.884169 4.058736,9.898544 4.261321,12.963074 0.105481,1.595718 -0.487036,2.078677 2.320631,0.378494 z M 8.5996959,60.835143 C 3.3068696,59.895573 -0.35711484,54.414576 0.78545574,49.145744 1.0826376,47.775331 2.7202139,43.891126 4.4245157,40.514192 6.1288164,37.137257 8.1200106,32.474787 8.8493918,30.153144 l 1.3261472,-4.221168 0.915834,3.453683 c 0.503709,1.899526 2.613648,6.875735 4.688756,11.058254 2.314253,4.664521 3.772923,8.625421 3.772923,10.24506 0,6.464306 -5.097085,11.185775 -10.9533561,10.14617 z M 4.3456426,54.073833 C 3.7815045,52.455552 3.9380283,50.458052 4.331371,48.976866 l 0.7243456,-1.930258 c 0.1006754,-0.667647 -1.396662,0.901617 -1.7328586,1.301407 -1.8346151,2.181639 -1.5438718,4.047925 -0.2272234,6.19388 1.9767759,3.221872 2.204111,2.26889 1.250008,-0.468062 z M 40.978682,30.621447 c -0.175884,-0.16455 -1.701261,-0.489852 -3.389729,-0.722893 -9.400519,-1.297447 -9.727705,-1.406906 -9.309058,-3.114316 0.218435,-0.890867 0.63897,-3.473047 0.934514,-5.738188 l 0.537355,-4.118448 3.151109,0.470637 c 1.733112,0.258858 4.359899,0.650535 5.837308,0.870404 8.819986,1.312585 8.304137,0.686823 6.753809,8.192744 -0.775083,3.752601 -1.180485,4.459242 -2.558282,4.459242 -0.900482,0 -1.781149,-0.134632 -1.957026,-0.299182 z M 25.838289,25.681848 c -2.304095,-0.419872 -9.090029,-1.426704 -11.330996,-1.8202 -0.801947,-0.272908 -4.194388,-6.53826 -4.194388,-8.141244 0,-0.244353 0.980086,-0.01148 2.140907,0.183948 4.845257,0.779575 9.066857,1.598562 14.017063,2.385558 1.251953,0.196124 1.27901,0.686422 0.967887,2.970645 -0.616526,4.526452 -1.206904,4.603625 -1.600473,4.421293 z"
     id="path2987"
     inkscape:connector-curvature="0"
     sodipodi:nodetypes="ccssccscssssssssssscsssssssssssssssssscssssssccsscssscsssscccsccsc" />
</svg>
