<?xml version="1.0" encoding="UTF-8" standalone="no"?>
<!-- Created with Inkscape (http://www.inkscape.org/) -->

<svg
   xmlns:dc="http://purl.org/dc/elements/1.1/"
   xmlns:cc="http://creativecommons.org/ns#"
   xmlns:rdf="http://www.w3.org/1999/02/22-rdf-syntax-ns#"
   xmlns:svg="http://www.w3.org/2000/svg"
   xmlns="http://www.w3.org/2000/svg"
   xmlns:sodipodi="http://sodipodi.sourceforge.net/DTD/sodipodi-0.dtd"
   xmlns:inkscape="http://www.inkscape.org/namespaces/inkscape"
   id="svg2"
   version="1.1"
   inkscape:version="0.48.4 r9939"
   width="100"
   height="100"
   sodipodi:docname="gas-station.svg">
  <metadata
     id="metadata8">
    <rdf:RDF>
      <cc:Work
         rdf:about="">
        <dc:format>image/svg+xml</dc:format>
        <dc:type
           rdf:resource="http://purl.org/dc/dcmitype/StillImage" />
        <dc:title></dc:title>
      </cc:Work>
    </rdf:RDF>
  </metadata>
  <defs
     id="defs6" />
  <sodipodi:namedview
     pagecolor="#ffffff"
     bordercolor="#666666"
     borderopacity="1"
     objecttolerance="10"
     gridtolerance="10"
     guidetolerance="10"
     inkscape:pageopacity="0"
     inkscape:pageshadow="2"
     inkscape:window-width="1920"
     inkscape:window-height="1058"
     id="namedview4"
     showgrid="false"
     inkscape:zoom="2.0611354"
     inkscape:cx="46.212999"
     inkscape:cy="8.3619127"
     inkscape:window-x="-8"
     inkscape:window-y="-8"
     inkscape:window-maximized="1"
     inkscape:current-layer="svg2" />
  <path
     style="fill:#000000;fill-opacity:1"
     d="M 36.75 1.46875 C 27.698526 1.46875 19.911079 1.7235368 17.65625 1.78125 C 14.017971 1.897195 9.1305138 6.3603517 8.9375 10.625 L 8.84375 51.1875 L 8.75 91.75 C 5.7744262 91.866994 4.4445064 91.83895 1.25 91.90625 C 1.266478 93.338661 1.2512 94.876894 1.25 97.21875 L 1.25 99.25 L 36.78125 99.25 L 72.3125 99.25 L 72.3125 97.0625 C 72.3125 95.0232 72.30048 93.739237 72.34375 91.9375 C 69.540947 91.87482 67.431061 91.87614 64.90625 91.84375 L 64.90625 74.9375 L 64.90625 58.03125 L 65.3125 58.03125 C 66.823639 58.05387 69.354655 59.814716 69.9375 60.59375 C 73.898794 66.076548 71.992327 70.838167 73.25 78.46875 C 74.727816 87.176107 78.87325 91.65625 85.40625 91.65625 C 92.411768 91.65625 96.482291 86.797057 97.84375 76.8125 C 98.354498 73.066822 98.500184 67.451551 98.5 53 C 98.499798 37.174726 98.539126 37.654524 97.09375 34.9375 C 95.574537 32.081678 93.39311 29.458099 86.0625 21.84375 C 83.748838 19.440537 80.09665 15.754998 77.96875 13.65625 C 73.89303 9.6363678 73.844914 9.59375 72.09375 9.59375 C 69.709852 9.59375 68.030012 12.360823 69 14.6875 C 69.189987 15.143214 70.971153 17.093122 74.0625 20.21875 C 76.697709 22.883181 79.12616 25.372529 79.4375 25.71875 L 80 26.34375 L 80.09375 33.03125 L 80.1875 39.71875 L 80.875 41.125 C 81.842057 43.114868 83.078722 44.571785 87.375 48.75 L 91.125 52.375 L 91.125 59.625 C 91.122 71.460334 90.732177 76.404399 89.5625 80.125 C 88.93363 82.125356 88.214642 83.270108 87.25 83.875 C 86.751989 84.187269 86.394783 84.26808 85.28125 84.21875 C 83.637495 84.14593 83.120671 83.832663 82.21875 82.34375 C 80.637869 79.733994 79.645365 78.586782 79.21875 67.65625 C 78.73767 60.26903 75.921481 55.028233 71.625 52.5625 C 70.714759 52.030166 67.03564 50.64844 65.34375 50.625 L 64.90625 50.625 L 64.84375 31 C 64.786424 13.343937 64.753944 11.715155 64.46875 10.375 C 63.567704 6.1408944 60.23506 2.8289472 55.875 2.28125 C 54.871537 2.1551981 45.801474 1.46875 36.75 1.46875 z M 19.34375 8.09375 L 53.5 8.09375 C 55.744693 8.09375 57.5625 9.8803069 57.5625 12.125 L 57.5625 34.34375 C 57.5625 36.588443 55.744693 38.40625 53.5 38.40625 L 19.34375 38.40625 C 17.099057 38.40625 15.3125 36.588443 15.3125 34.34375 L 15.3125 12.125 C 15.3125 9.8803069 17.099057 8.09375 19.34375 8.09375 z "
     id="path3000" />
</svg>
