<?xml version="1.0" encoding="UTF-8" standalone="no"?>
<!-- Created with Inkscape (http://www.inkscape.org/) -->

<svg
   xmlns:dc="http://purl.org/dc/elements/1.1/"
   xmlns:cc="http://creativecommons.org/ns#"
   xmlns:rdf="http://www.w3.org/1999/02/22-rdf-syntax-ns#"
   xmlns:svg="http://www.w3.org/2000/svg"
   xmlns="http://www.w3.org/2000/svg"
   xmlns:sodipodi="http://sodipodi.sourceforge.net/DTD/sodipodi-0.dtd"
   xmlns:inkscape="http://www.inkscape.org/namespaces/inkscape"
   id="svg2"
   version="1.1"
   inkscape:version="0.48.4 r9939"
   width="100"
   height="100"
   sodipodi:docname="goods-receiption.svg">
  <metadata
     id="metadata8">
    <rdf:RDF>
      <cc:Work
         rdf:about="">
        <dc:format>image/svg+xml</dc:format>
        <dc:type
           rdf:resource="http://purl.org/dc/dcmitype/StillImage" />
        <dc:title></dc:title>
      </cc:Work>
    </rdf:RDF>
  </metadata>
  <defs
     id="defs6" />
  <sodipodi:namedview
     pagecolor="#ffffff"
     bordercolor="#666666"
     borderopacity="1"
     objecttolerance="10"
     gridtolerance="10"
     guidetolerance="10"
     inkscape:pageopacity="0"
     inkscape:pageshadow="2"
     inkscape:window-width="1920"
     inkscape:window-height="1018"
     id="namedview4"
     showgrid="false"
     inkscape:zoom="4"
     inkscape:cx="131.57809"
     inkscape:cy="5.4274225"
     inkscape:window-x="1912"
     inkscape:window-y="-8"
     inkscape:window-maximized="1"
     inkscape:current-layer="svg2" />
  <path
     style="fill:#000000;fill-opacity:1;stroke:none"
     d="M 5.5625 1.6875 C 5.3166683 1.6875451 5.1875 1.8426449 5.1875 2.15625 L 5.1875 16.65625 L 5.1875 17.25 L 5.1875 63.90625 L 5.1875 79 C 5.1875 79.418205 5.4645479 79.582453 5.84375 79.40625 L 15.15625 75.09375 C 15.535452 74.917547 15.875 74.44939 15.875 74.03125 L 15.875 58.9375 C 15.875 58.832973 15.84704 58.73055 15.8125 58.65625 L 15.8125 22.5 C 15.84704 22.42569 15.875 22.323274 15.875 22.21875 L 15.875 7.125 C 15.875 6.7068589 15.535452 6.2074531 15.15625 6.03125 L 5.84375 1.71875 C 5.7489484 1.674684 5.644443 1.6874845 5.5625 1.6875 z M 95.28125 1.6875 C 95.19931 1.6874845 95.126051 1.674684 95.03125 1.71875 L 85.6875 6.03125 C 85.308298 6.2074531 85 6.7068589 85 7.125 L 85 22.21875 C 85 22.323274 84.9967 22.42569 85.03125 22.5 L 85.03125 58.65625 C 84.9967 58.73055 85 58.832973 85 58.9375 L 85 74.03125 C 85 74.44939 85.308298 74.917547 85.6875 75.09375 L 95.03125 79.40625 C 95.410452 79.582453 95.65625 79.418206 95.65625 79 L 95.65625 63.90625 L 95.65625 17.25 L 95.65625 16.65625 L 95.65625 2.15625 C 95.65625 1.8426449 95.527081 1.6875451 95.28125 1.6875 z M 19.0625 5.6875 C 17.979145 5.9080645 17.1875 6.9121116 17.1875 8.0625 L 17.1875 73.125 C 17.1875 74.439729 18.247773 75.5 19.5625 75.5 L 38.15625 75.5 L 31.78125 97.21875 L 46.5 97.21875 L 54.75 97.21875 L 69.46875 97.21875 L 63.09375 75.5 L 81.28125 75.5 C 82.595978 75.5 83.65625 74.439729 83.65625 73.125 L 83.65625 8.0625 C 83.65625 6.7477714 82.595978 5.6875 81.28125 5.6875 L 19.5625 5.6875 C 19.398159 5.6875 19.217264 5.655995 19.0625 5.6875 z M 22.71875 8.6875 L 78.15625 8.6875 C 79.356157 8.6875 80.3125 9.675095 80.3125 10.875 L 80.3125 70.28125 C 80.3125 71.481155 79.356157 72.4375 78.15625 72.4375 L 22.71875 72.4375 C 21.518844 72.4375 20.5625 71.481155 20.5625 70.28125 L 20.5625 10.875 C 20.5625 9.675095 21.518844 8.6875 22.71875 8.6875 z M 25.1875 28.875 L 25.1875 41.59375 L 42.0625 41.59375 L 42.0625 28.875 L 25.1875 28.875 z M 25.1875 43.5625 L 25.1875 65.5625 L 48.1875 65.5625 L 48.1875 43.5625 L 25.1875 43.5625 z M 52.65625 43.5625 L 52.65625 65.5625 L 75.65625 65.5625 L 75.65625 43.5625 L 52.65625 43.5625 z M 25.1875 66.6875 L 25.1875 70.65625 L 28.5 70.65625 L 28.5 66.6875 L 25.1875 66.6875 z M 35.03125 66.6875 L 35.03125 70.65625 L 38.34375 70.65625 L 38.34375 66.6875 L 35.03125 66.6875 z M 44.875 66.6875 L 44.875 70.65625 L 48.1875 70.65625 L 48.1875 66.6875 L 44.875 66.6875 z M 52.65625 66.6875 L 52.65625 70.65625 L 55.96875 70.65625 L 55.96875 66.6875 L 52.65625 66.6875 z M 62.5 66.6875 L 62.5 70.65625 L 65.8125 70.65625 L 65.8125 66.6875 L 62.5 66.6875 z M 72.34375 66.6875 L 72.34375 70.65625 L 75.65625 70.65625 L 75.65625 66.6875 L 72.34375 66.6875 z M 40.6875 76.5625 L 41.65625 76.5625 L 59.5625 76.5625 L 60.5625 76.5625 L 66.125 94.75 L 54 94.75 L 47.1875 94.75 L 35.125 94.75 L 40.6875 76.5625 z M 17.21875 76.96875 C 16.38063 76.96875 15.6875 77.66188 15.6875 78.5 L 15.6875 91.84375 C 15.6875 92.68187 16.38063 93.375 17.21875 93.375 L 22.875 93.375 C 23.71312 93.375 24.375 92.68187 24.375 91.84375 L 24.375 78.5 C 24.375 77.66188 23.71312 76.96875 22.875 76.96875 L 17.21875 76.96875 z M 26.71875 76.96875 C 25.88063 76.96875 25.21875 77.66188 25.21875 78.5 L 25.21875 91.84375 C 25.21875 92.68187 25.88063 93.375 26.71875 93.375 L 31.125 93.375 L 33.90625 83.75 L 33.90625 78.5 C 33.90625 77.66188 33.21312 76.96875 32.375 76.96875 L 26.71875 76.96875 z M 68.375 76.96875 C 67.53688 76.96875 66.84375 77.66188 66.84375 78.5 L 66.84375 82.71875 L 69.90625 93.375 L 74.03125 93.375 C 74.86937 93.375 75.53125 92.68187 75.53125 91.84375 L 75.53125 78.5 C 75.53125 77.66188 74.86937 76.96875 74.03125 76.96875 L 68.375 76.96875 z M 77.875 76.96875 C 77.03688 76.96875 76.375 77.66188 76.375 78.5 L 76.375 91.84375 C 76.375 92.68187 77.03688 93.375 77.875 93.375 L 83.53125 93.375 C 84.36937 93.375 85.03125 92.68187 85.03125 91.84375 L 85.03125 78.5 C 85.03125 77.66188 84.36937 76.96875 83.53125 76.96875 L 77.875 76.96875 z M 43.15625 79.28125 C 42.738109 79.28125 42.40625 79.613109 42.40625 80.03125 C 42.40625 80.449391 42.738109 80.78125 43.15625 80.78125 L 57.71875 80.78125 C 58.136891 80.78125 58.46875 80.449391 58.46875 80.03125 C 58.46875 79.613109 58.136891 79.28125 57.71875 79.28125 L 43.15625 79.28125 z M 41.28125 84.9375 C 40.863109 84.9375 40.53125 85.269359 40.53125 85.6875 C 40.53125 86.105641 40.863109 86.4375 41.28125 86.4375 L 59.59375 86.4375 C 60.011891 86.4375 60.34375 86.105641 60.34375 85.6875 C 60.34375 85.269359 60.011891 84.9375 59.59375 84.9375 L 41.28125 84.9375 z M 39.34375 90.59375 C 38.925609 90.59375 38.5625 90.925609 38.5625 91.34375 C 38.5625 91.761891 38.925609 92.09375 39.34375 92.09375 L 61.53125 92.09375 C 61.949391 92.09375 62.3125 91.761891 62.3125 91.34375 C 62.3125 90.925609 61.949391 90.59375 61.53125 90.59375 L 39.34375 90.59375 z "
     id="rect4361-1-2-7-1" />
  <path
     style="fill:#000000"
     d=""
     id="path3011"
     inkscape:connector-curvature="0" />
  <path
     style="fill:#000000"
     d=""
     id="path3009"
     inkscape:connector-curvature="0" />
  <path
     style="fill:#000000"
     d=""
     id="path2989"
     inkscape:connector-curvature="0" />
  <path
     style="fill:#000000"
     d=""
     id="path2987"
     inkscape:connector-curvature="0" />
  <path
     style="fill:#000000"
     d=""
     id="path3813"
     inkscape:connector-curvature="0" />
</svg>
