<?xml version="1.0" encoding="UTF-8" standalone="no"?>
<svg
   xmlns:dc="http://purl.org/dc/elements/1.1/"
   xmlns:cc="http://creativecommons.org/ns#"
   xmlns:rdf="http://www.w3.org/1999/02/22-rdf-syntax-ns#"
   xmlns:svg="http://www.w3.org/2000/svg"
   xmlns="http://www.w3.org/2000/svg"
   xmlns:sodipodi="http://sodipodi.sourceforge.net/DTD/sodipodi-0.dtd"
   xmlns:inkscape="http://www.inkscape.org/namespaces/inkscape"
   fill="#000000"
   height="48"
   viewBox="0 0 24 24"
   width="48"
   version="1.1"
   id="svg4708"
   sodipodi:docname="goto-to-differend-directions-from-circle.svg"
   inkscape:version="0.92.1 r15371">
  <metadata
     id="metadata4714">
    <rdf:RDF>
      <cc:Work
         rdf:about="">
        <dc:format>image/svg+xml</dc:format>
        <dc:type
           rdf:resource="http://purl.org/dc/dcmitype/StillImage" />
        <dc:title></dc:title>
      </cc:Work>
    </rdf:RDF>
  </metadata>
  <defs
     id="defs4712" />
  <sodipodi:namedview
     pagecolor="#ffffff"
     bordercolor="#666666"
     borderopacity="1"
     objecttolerance="10"
     gridtolerance="10"
     guidetolerance="10"
     inkscape:pageopacity="0"
     inkscape:pageshadow="2"
     inkscape:window-width="1920"
     inkscape:window-height="1017"
     id="namedview4710"
     showgrid="false"
     inkscape:zoom="2.4583333"
     inkscape:cx="-28.246581"
     inkscape:cy="-9.1667654"
     inkscape:window-x="-8"
     inkscape:window-y="-6"
     inkscape:window-maximized="1"
     inkscape:current-layer="svg4708" />
  <path
     style="fill:#000000;stroke-width:0.16341199"
     d="M 10.781593,22.839476 C 8.8033644,22.190395 7.6210304,20.596237 7.6141464,18.568765 c -0.0054,-1.598515 0.86889,-3.085143 2.288216,-3.890738 0.2982376,-0.169277 0.2955846,-0.199351 -0.08086,-0.917185 -0.785916,-1.498661 -2.704862,-2.853591 -4.390593,-3.100101 l -0.6945,-0.101558 v 0.573873 c 0,0.651033 -0.5231479,1.300615 -0.9547279,1.18547 -0.148971,-0.03977 -1.06137,-0.643665 -2.0275392,-1.342044 -2.34341765,-1.6938904 -2.34757575,-1.7784784 -0.1634145,-3.3226474 0.8762997,-0.619522 1.7533967,-1.210861 1.9491097,-1.314075 0.661362,-0.3488 1.1965729,0.146668 1.1965729,1.107719 0,0.430849 0.05959,0.500974 0.425797,0.500974 0.721061,0 2.357845,0.488391 3.401319,1.014899 1.5063486,0.760067 3.1586226,2.5109254 3.8617946,4.0922154 0.489394,1.100509 0.636715,1.291169 1.12159,1.451472 0.711645,0.235275 1.910944,1.336666 2.312438,2.123664 1.399545,2.743336 -0.555923,6.107626 -3.653124,6.28502 -0.558275,0.03197 -1.19936,-0.0024 -1.424632,-0.07625 z m 1.85739,-2.696721 c 0.54458,-0.227545 1.085092,-1.066102 1.085092,-1.683417 0,-0.951278 -1.350295,-1.84792 -2.262494,-1.502372 -0.823798,0.31206 -1.169479,0.786871 -1.165533,1.600896 0.0042,0.830253 0.331007,1.375473 0.976843,1.628885 0.563024,0.220921 0.746166,0.215022 1.366086,-0.044 z m 1.115516,-8.306848 -0.657313,-1.191158 0.659247,-0.61098 C 14.70724,9.1525556 16.45284,8.3323236 17.892068,8.0904976 l 1.224604,-0.205776 v -0.540077 c 0,-0.617647 0.535622,-1.263628 0.954722,-1.151421 0.424878,0.113743 3.737325,2.541187 3.842823,2.816108 0.05204,0.13553 0.05391,0.352354 0.0042,0.481822 -0.106079,0.276444 -3.322788,2.6294964 -3.802947,2.7818944 -0.484408,0.153745 -0.998823,-0.433376 -0.998823,-1.139992 v -0.573873 l -0.694506,0.101558 c -1.07203,0.156767 -2.319244,0.78449 -3.205122,1.613123 l -0.805238,0.753201 z M 11.232041,8.7005416 10.619247,8.1589356 V 6.5012836 4.8436246 H 9.9909264 c -0.712817,0 -1.27615,-0.46609 -1.10437,-0.913734 0.221948,-0.578388 2.4828766,-3.65636896 2.7540146,-3.74926096 0.157287,-0.05391 0.414658,-0.05439 0.571945,-0.0012 0.327206,0.110854 2.818853,3.55627396 2.818853,3.89788096 0,0.395887 -0.578829,0.766214 -1.1976,0.766214 H 13.23384 l -0.003,1.674974 -0.003,1.674968 -0.639713,0.53109 c -0.351833,0.292097 -0.663035,0.528025 -0.691549,0.52429 -0.02853,-0.0036 -0.327605,-0.250529 -0.664638,-0.548411 z"
     id="path4663"
     inkscape:connector-curvature="0" />
</svg>
