<?xml version="1.0" encoding="UTF-8" standalone="no"?>
<svg
   xmlns:dc="http://purl.org/dc/elements/1.1/"
   xmlns:cc="http://creativecommons.org/ns#"
   xmlns:rdf="http://www.w3.org/1999/02/22-rdf-syntax-ns#"
   xmlns:svg="http://www.w3.org/2000/svg"
   xmlns="http://www.w3.org/2000/svg"
   xmlns:sodipodi="http://sodipodi.sourceforge.net/DTD/sodipodi-0.dtd"
   xmlns:inkscape="http://www.inkscape.org/namespaces/inkscape"
   fill="#000000"
   height="48"
   viewBox="0 0 24 24"
   width="48"
   version="1.1"
   id="svg4708"
   sodipodi:docname="goto-to-differend-directions.svg"
   inkscape:version="0.92.1 r15371">
  <metadata
     id="metadata4714">
    <rdf:RDF>
      <cc:Work
         rdf:about="">
        <dc:format>image/svg+xml</dc:format>
        <dc:type
           rdf:resource="http://purl.org/dc/dcmitype/StillImage" />
        <dc:title></dc:title>
      </cc:Work>
    </rdf:RDF>
  </metadata>
  <defs
     id="defs4712" />
  <sodipodi:namedview
     pagecolor="#ffffff"
     bordercolor="#666666"
     borderopacity="1"
     objecttolerance="10"
     gridtolerance="10"
     guidetolerance="10"
     inkscape:pageopacity="0"
     inkscape:pageshadow="2"
     inkscape:window-width="1920"
     inkscape:window-height="1017"
     id="namedview4710"
     showgrid="false"
     inkscape:zoom="1.2291667"
     inkscape:cx="202.84521"
     inkscape:cy="-87.381788"
     inkscape:window-x="-8"
     inkscape:window-y="-6"
     inkscape:window-maximized="1"
     inkscape:current-layer="svg4708" />
  <path
     inkscape:connector-curvature="0"
     style="fill:#000000;stroke-width:0.16267696"
     d="m 11.967526,0.40182456 c -0.103197,2.0906e-4 -0.205581,0.0139968 -0.283873,0.0408305 C 11.413741,0.53512925 9.1630893,3.599029 8.9421336,4.1748154 8.7711323,4.6204459 9.3310747,5.0847664 10.040685,5.0847664 h 0.626079 v 1.6497724 1.6507443 l 0.609549,0.5385825 c 0.335517,0.2965422 0.633646,0.5427756 0.662048,0.5463594 0.02838,0.00373 0.338047,-0.231271 0.688297,-0.5220552 l 0.63677,-0.5288604 0.003,-1.6672717 0.003,-1.6672713 h 0.596913 c 0.615987,0 1.19285,-0.369047 1.19285,-0.7631533 0,-0.3400704 -2.480918,-3.76957574 -2.806652,-3.87993012 -0.07831,-0.0264754 -0.181675,-0.040069 -0.284873,-0.0398599 z M 19.91599,6.4205286 C 19.534424,6.4771916 19.125617,7.036483 19.125617,7.5744941 V 8.112104 L 17.906515,8.3172321 C 16.473759,8.5579714 14.73591,9.3746006 13.789372,10.25185 l -0.656215,0.607607 0.654273,1.186047 0.654269,1.186048 0.802042,-0.749543 c 0.881896,-0.824905 2.123451,-1.449963 3.190659,-1.606025 l 0.691217,-0.101106 v 0.570663 c 0,0.703439 0.5123,1.288549 0.994526,1.135495 0.478,-0.151713 3.680027,-2.4945104 3.78563,-2.769712 0.04948,-0.1288856 0.04793,-0.3443599 -0.004,-0.4792803 -0.105025,-0.2736844 -3.402516,-2.6905074 -3.82549,-2.8037378 -0.05214,-0.013962 -0.105896,-0.015873 -0.160405,-0.00777 z M 4.0832282,6.4652465 c -0.1425359,-0.012359 -0.3001,0.022075 -0.4646968,0.1088831 -0.1948327,0.1027497 -1.0671219,0.6918061 -1.9394793,1.3085405 -2.17433758,1.5372243 -2.1705258,1.62105 0.1623525,3.3073229 0.9618231,0.695238 1.869924,1.296171 2.0182249,1.335762 0.4296388,0.114627 0.9507821,-0.53211 0.9507821,-1.180215 v -0.570663 l 0.6912129,0.101105 c 1.6781486,0.245401 3.588495,1.593747 4.3708756,3.085667 0.3747519,0.714605 0.3775869,0.744352 0.080685,0.912867 2.0865569,0.852443 2.4983639,1.498423 3.6281369,-0.170129 -0.482689,-0.159582 -0.62983,-0.349086 -1.117021,-1.444645 C 11.764292,11.685565 10.119914,9.9429982 8.6203406,9.1863496 7.5815602,8.6622089 5.9520902,8.1752929 5.2342725,8.1752929 c -0.3645589,0 -0.4238659,-0.069812 -0.4238659,-0.4987231 0,-0.7175453 -0.2995749,-1.1742413 -0.7271833,-1.2113233 z M 14.9307,15.962375 c -0.879472,0 -1.569021,0.266028 -2.068778,0.799123 -0.499754,0.530546 -0.749542,1.254182 -0.749542,2.169883 0,0.908049 0.249788,1.630349 0.749542,2.165995 0.499757,0.533097 1.189306,0.799124 2.068778,0.799124 0.881921,0 1.572914,-0.266027 2.072666,-0.799124 0.499757,-0.535646 0.749543,-1.257946 0.749543,-2.165995 0,-0.915701 -0.251225,-1.639337 -0.753431,-2.169883 -0.502206,-0.533096 -1.191755,-0.799123 -2.068778,-0.799123 z m -5.8971823,0.0078 c -0.9505137,0 -1.6917511,0.27138 -2.2233526,0.814678 -0.5316015,0.540749 -0.7971791,1.253681 -0.7971791,2.138773 0,0.928455 0.2626996,1.656472 0.7894017,2.184466 0.5267022,0.525445 1.2554948,0.788431 2.1864101,0.788431 0.4017637,0 0.8051664,-0.0489 1.2093802,-0.145826 0.404212,-0.09948 0.728164,-0.198007 0.973142,-0.297484 V 18.640705 H 8.6475661 v 1.07522 h 1.090775 v 1.117023 c -0.053895,0.0051 -0.1137078,0.0092 -0.1798519,0.01167 -0.063694,0.0025 -0.1220674,0.0039 -0.1759624,0.0039 -0.6271429,0 -1.1013637,-0.167498 -1.4222847,-0.501641 C 7.6393212,20.012716 7.479018,19.530292 7.479018,18.900269 c 0,-0.308635 0.044021,-0.580015 0.1322151,-0.814678 0.090641,-0.237216 0.2131444,-0.432206 0.3674801,-0.585247 0.1616854,-0.158143 0.3440002,-0.275404 0.5473319,-0.351925 0.2033313,-0.07652 0.4296697,-0.114717 0.6795466,-0.114717 0.2131305,0 0.4141124,0.02883 0.6027456,0.0875 0.1910826,0.05866 0.3576087,0.129338 0.4996957,0.210961 0.122488,0.06887 0.249775,0.153286 0.382062,0.252764 0.132288,0.09692 0.232779,0.171979 0.301374,0.225544 h 0.158463 V 16.47471 c -0.399314,-0.201504 -0.762038,-0.335186 -1.087858,-0.401505 -0.325821,-0.06887 -0.6684389,-0.10305 -1.0285563,-0.10305 z m 5.9010693,1.067442 c 0.176389,0 0.345789,0.03418 0.507473,0.10305 0.164139,0.06887 0.308651,0.180412 0.433591,0.333455 0.122487,0.14794 0.221539,0.341591 0.297486,0.581357 0.07595,0.239765 0.113741,0.530243 0.113741,0.872037 0,0.318837 -0.033,0.596906 -0.09916,0.834121 -0.06614,0.234664 -0.168071,0.439019 -0.305261,0.612467 -0.122486,0.153042 -0.265565,0.266289 -0.429698,0.34026 -0.164134,0.07142 -0.336883,0.106938 -0.51817,0.106938 -0.181281,0 -0.35403,-0.03552 -0.518164,-0.106938 -0.164138,-0.07142 -0.307212,-0.181992 -0.429698,-0.332483 -0.122492,-0.150476 -0.221544,-0.345099 -0.297486,-0.582315 -0.07349,-0.239765 -0.110829,-0.528904 -0.110829,-0.868147 0,-0.331591 0.03783,-0.622068 0.113746,-0.872037 0.07839,-0.252519 0.178882,-0.450184 0.301373,-0.593023 0.132287,-0.153042 0.276799,-0.263248 0.433586,-0.329565 0.159236,-0.06632 0.32864,-0.09916 0.507472,-0.09916 z"
     id="path4663-8"
     sodipodi:nodetypes="cccscccccccccssccccscccccccccssccccccccccscccccccssccscscscscsccscsccccccccscscccscccccccccccccscccscccsccccc" />
</svg>
