<?xml version="1.0" encoding="UTF-8" standalone="no"?>
<!-- Created with Inkscape (http://www.inkscape.org/) -->

<svg
   xmlns:dc="http://purl.org/dc/elements/1.1/"
   xmlns:cc="http://creativecommons.org/ns#"
   xmlns:rdf="http://www.w3.org/1999/02/22-rdf-syntax-ns#"
   xmlns:svg="http://www.w3.org/2000/svg"
   xmlns="http://www.w3.org/2000/svg"
   xmlns:sodipodi="http://sodipodi.sourceforge.net/DTD/sodipodi-0.dtd"
   xmlns:inkscape="http://www.inkscape.org/namespaces/inkscape"
   width="100"
   height="100"
   id="svg3993"
   version="1.1"
   inkscape:version="0.48.4 r9939"
   sodipodi:docname="Neues Dokument 15">
  <defs
     id="defs3995" />
  <sodipodi:namedview
     id="base"
     pagecolor="#ffffff"
     bordercolor="#666666"
     borderopacity="1.0"
     inkscape:pageopacity="0.0"
     inkscape:pageshadow="2"
     inkscape:zoom="2.8"
     inkscape:cx="-50.512208"
     inkscape:cy="-21.781686"
     inkscape:document-units="px"
     inkscape:current-layer="layer1"
     showgrid="false"
     inkscape:window-width="1920"
     inkscape:window-height="1058"
     inkscape:window-x="-8"
     inkscape:window-y="-8"
     inkscape:window-maximized="1" />
  <metadata
     id="metadata3998">
    <rdf:RDF>
      <cc:Work
         rdf:about="">
        <dc:format>image/svg+xml</dc:format>
        <dc:type
           rdf:resource="http://purl.org/dc/dcmitype/StillImage" />
        <dc:title></dc:title>
      </cc:Work>
    </rdf:RDF>
  </metadata>
  <g
     inkscape:label="Ebene 1"
     inkscape:groupmode="layer"
     id="layer1"
     transform="translate(0,-952.36218)">
    <path
       style="fill:#000000;fill-opacity:1;stroke:none"
       d="M 28.5625 10.75 C 26.581527 10.75006 24.668283 10.85404 22.84375 11.0625 C 21.019174 11.27108 19.383254 11.68349 17.90625 12.34375 C 16.429212 13.00412 15.12597 13.95381 14.03125 15.1875 C 12.936504 16.42131 12.146291 18.0746 11.625 20.125 C 11.242702 21.58469 11.00699 23.08202 10.9375 24.59375 C 10.867975 26.10557 10.843741 27.62364 10.84375 29.1875 L 10.84375 32.625 C 10.843741 34.2932 10.764002 35.89451 10.625 37.40625 C 10.485976 38.91806 10.177542 40.25942 9.65625 41.40625 C 9.1349394 42.55314 8.3412239 43.43346 7.28125 44.09375 C 6.2212647 44.75409 4.7516834 45.09378 2.875 45.09375 L 2.875 54.46875 C 4.7516834 54.46875 6.2212647 54.8224 7.28125 55.5 C 8.3412239 56.1777 9.1349394 57.07185 9.65625 58.21875 C 10.177542 59.36555 10.48598 60.70705 10.625 62.21875 C 10.764011 63.73055 10.843741 65.3319 10.84375 67 L 10.84375 70.4375 C 10.84375 72.0014 10.86799 73.51945 10.9375 75.03125 C 11.006997 76.54295 11.242702 78.0403 11.625 79.5 C 12.146291 81.5504 12.936504 83.2037 14.03125 84.4375 C 15.12597 85.6712 16.429212 86.62095 17.90625 87.28125 C 19.383254 87.94155 21.019174 88.354 22.84375 88.5625 C 24.668283 88.771 26.581527 88.875 28.5625 88.875 L 31.375 88.875 L 31.375 79.59375 L 30.375 79.59375 C 28.845819 79.59375 27.639691 79.48975 26.71875 79.28125 C 25.797759 79.07265 25.0664 78.60835 24.5625 77.84375 C 24.058551 77.07915 23.750119 75.91805 23.59375 74.40625 C 23.437334 72.89445 23.343727 70.8288 23.34375 68.1875 C 23.343727 65.2682 23.191263 62.78665 22.84375 60.71875 C 22.496194 58.65095 21.920804 56.8798 21.15625 55.4375 C 20.391654 53.9952 19.445474 52.8237 18.28125 51.9375 C 17.116994 51.0513 15.695898 50.33725 14.0625 49.78125 C 15.695898 49.22515 17.116994 48.51123 18.28125 47.625 C 19.445474 46.73881 20.391654 45.56729 21.15625 44.125 C 21.920804 42.68275 22.496194 40.95674 22.84375 38.90625 C 23.191257 36.85583 23.343727 34.35683 23.34375 31.4375 C 23.343727 28.79628 23.437343 26.71669 23.59375 25.1875 C 23.750118 23.65839 24.058551 22.51463 24.5625 21.75 C 25.0664 20.98548 25.797759 20.5037 26.71875 20.3125 C 27.639691 20.12139 28.845819 20.0313 30.375 20.03125 L 31.375 20.03125 L 31.375 10.75 L 28.5625 10.75 z M 34.1875 24.90625 L 34.1875 40.90625 L 96.5625 40.90625 L 96.5625 24.90625 L 34.1875 24.90625 z M 34.1875 58.71875 L 34.1875 74.71875 L 96.5625 74.71875 L 96.5625 58.71875 L 34.1875 58.71875 z "
       transform="translate(0,952.36218)"
       id="rect4001" />
  </g>
</svg>
