<?xml version="1.0" encoding="UTF-8" standalone="no"?>
<svg
   xmlns:dc="http://purl.org/dc/elements/1.1/"
   xmlns:cc="http://creativecommons.org/ns#"
   xmlns:rdf="http://www.w3.org/1999/02/22-rdf-syntax-ns#"
   xmlns:svg="http://www.w3.org/2000/svg"
   xmlns="http://www.w3.org/2000/svg"
   xml:space="preserve"
   enable-background="new 0 0 283.464 283.464"
   viewBox="0 0 283.464 283.464"
   height="283.464px"
   width="283.464px"
   y="0px"
   x="0px"
   id="Layer_1"
   version="1.1"><metadata
     id="metadata6400"><rdf:RDF><cc:Work
         rdf:about=""><dc:format>image/svg+xml</dc:format><dc:type
           rdf:resource="http://purl.org/dc/dcmitype/StillImage" /><dc:title></dc:title></cc:Work></rdf:RDF></metadata><defs
     id="defs6398" /><g
     transform="matrix(0.2662861,0,0,0.2662861,4.7249626,5.3935152)"
     id="g6086"><g
       transform="matrix(1.3433336,0,0,1.3433336,-170.80791,-173.255)"
       id="g6160"><path
         d="m 282,460 c 62,120 162,220 282,282 l 94,-94 c 12,-12 30,-16 44,-10 48,16 100,24 152,24 24,0 42,18 42,42 v 150 c 0,24 -18,42 -42,42 -400,0 -726,-326 -726,-726 0,-24 18,-42 42,-42 h 150 c 24,0 42,18 42,42 0,54 8,104 24,152 4,14 2,32 -10,44 z"
         id="path6158" /></g></g></svg>