<?xml version="1.0" encoding="UTF-8" standalone="no"?>
<!-- Created with Inkscape (http://www.inkscape.org/) -->

<svg
   xmlns:dc="http://purl.org/dc/elements/1.1/"
   xmlns:cc="http://creativecommons.org/ns#"
   xmlns:rdf="http://www.w3.org/1999/02/22-rdf-syntax-ns#"
   xmlns:svg="http://www.w3.org/2000/svg"
   xmlns="http://www.w3.org/2000/svg"
   xmlns:sodipodi="http://sodipodi.sourceforge.net/DTD/sodipodi-0.dtd"
   xmlns:inkscape="http://www.inkscape.org/namespaces/inkscape"
   id="svg2"
   version="1.1"
   inkscape:version="0.48.4 r9939"
   width="100"
   height="100"
   sodipodi:docname="Warndreieck.png">
  <metadata
     id="metadata8">
    <rdf:RDF>
      <cc:Work
         rdf:about="">
        <dc:format>image/svg+xml</dc:format>
        <dc:type
           rdf:resource="http://purl.org/dc/dcmitype/StillImage" />
        <dc:title></dc:title>
      </cc:Work>
    </rdf:RDF>
  </metadata>
  <defs
     id="defs6" />
  <sodipodi:namedview
     pagecolor="#ffffff"
     bordercolor="#666666"
     borderopacity="1"
     objecttolerance="10"
     gridtolerance="10"
     guidetolerance="10"
     inkscape:pageopacity="0"
     inkscape:pageshadow="2"
     inkscape:window-width="1920"
     inkscape:window-height="1058"
     id="namedview4"
     showgrid="false"
     inkscape:zoom="2.3177389"
     inkscape:cx="-59.63356"
     inkscape:cy="14.629498"
     inkscape:window-x="-8"
     inkscape:window-y="-8"
     inkscape:window-maximized="1"
     inkscape:current-layer="svg2" />
  <path
     style="fill:#000000"
     d="M 1.6759378,98.51482 C -0.33004018,96.508842 0.64760422,92.76563 4.9606126,85.938416 l 4.3357735,-6.863244 17.7372549,-0.0028 17.737256,-0.0028 0,-3.893085 0,-3.893085 L 25.4762,70.840637 C 9.1776017,70.466728 6.1055879,70.001924 5.6926804,67.847374 5.1971566,65.261717 43.169719,5.7908302 47.571144,2.2592433 48.887012,1.203432 50.842083,0.84868693 51.915747,1.4709209 c 3.56533,2.0662373 43.640981,64.2813311 43.132828,66.9325841 -0.426072,2.223072 -3.478395,2.059334 -19.946452,2.43717 -12.15515,0.278882 -17.529799,0.114522 -19.079885,0.47019 -0.602188,0.138173 -0.214827,2.396504 -0.214827,3.813947 0,1.464443 0.03928,3.872639 0.03928,3.872639 1.800249,0.08339 6.813226,0.141741 17.625669,0.414607 l 17.664935,0.445798 4.389379,6.30658 c 4.977835,7.15205 5.173555,12.409274 0.485181,13.031971 -2.135849,0.283678 -4.302585,-1.369655 -6.71523,-5.124096 l -3.56194,-5.542908 -35.445532,0 -35.445517,0 -3.56194,5.49874 C 7.9530689,99.166698 4.1187473,100.95764 1.6759378,98.51482 z M 80.014996,59.755633 C 76.025564,53.229939 52.083486,16.575684 51.128355,15.531475 50.247925,14.568947 27.377917,47.563282 20.474388,59.755633 c -0.876267,1.547594 5.526172,1.970806 29.814766,1.970806 24.336019,0 30.6738,-0.42019 29.725842,-1.970806 z M 47.453148,57.576557 c -1.863579,-1.86358 -1.228206,-6.502216 1.008186,-7.3604 3.177917,-1.219482 6.153582,1.256258 5.512297,4.5862 -0.584841,3.036845 -4.564608,4.730074 -6.520483,2.7742 z M 47.085916,42.30662 c -0.539638,-2.876508 -0.749159,-7.665567 -0.465599,-10.642353 0.399064,-4.18939 1.228049,-5.412338 3.668837,-5.412338 2.639903,0 3.231176,1.210548 3.631644,7.435396 0.770207,11.971799 -4.871281,19.086144 -6.834882,8.619295 z m -24.913591,56.2082 c -2.810244,-2.810234 -0.725557,-5.255482 4.480525,-5.255482 5.13693,0 5.391101,0.224984 3.56235,3.15329 -1.938469,3.103969 -5.983761,4.161302 -8.042875,2.102192 z m 48.205697,-2.051768 c -1.853992,-2.993533 -1.61368,-3.203714 3.663051,-3.203714 4.527557,0 5.542963,0.547055 5.121353,2.759128 -0.75679,3.970729 -6.422952,4.257494 -8.784404,0.444586 z"
     id="path2987"
     inkscape:connector-curvature="0"
     sodipodi:nodetypes="sscccccsssssssssscssscccssssssssssssssssssssssss" />
</svg>
