<?xml version="1.0" encoding="UTF-8" standalone="no"?>
<!-- Created with Inkscape (http://www.inkscape.org/) -->

<svg
   xmlns:dc="http://purl.org/dc/elements/1.1/"
   xmlns:cc="http://creativecommons.org/ns#"
   xmlns:rdf="http://www.w3.org/1999/02/22-rdf-syntax-ns#"
   xmlns:svg="http://www.w3.org/2000/svg"
   xmlns="http://www.w3.org/2000/svg"
   xmlns:sodipodi="http://sodipodi.sourceforge.net/DTD/sodipodi-0.dtd"
   xmlns:inkscape="http://www.inkscape.org/namespaces/inkscape"
   id="svg2"
   version="1.1"
   inkscape:version="0.48.4 r9939"
   width="100"
   height="100"
   sodipodi:docname="history-clock.svg">
  <metadata
     id="metadata8">
    <rdf:RDF>
      <cc:Work
         rdf:about="">
        <dc:format>image/svg+xml</dc:format>
        <dc:type
           rdf:resource="http://purl.org/dc/dcmitype/StillImage" />
        <dc:title></dc:title>
      </cc:Work>
    </rdf:RDF>
  </metadata>
  <defs
     id="defs6" />
  <sodipodi:namedview
     pagecolor="#ffffff"
     bordercolor="#666666"
     borderopacity="1"
     objecttolerance="10"
     gridtolerance="10"
     guidetolerance="10"
     inkscape:pageopacity="0"
     inkscape:pageshadow="2"
     inkscape:window-width="1920"
     inkscape:window-height="1018"
     id="namedview4"
     showgrid="false"
     inkscape:zoom="0.65186405"
     inkscape:cx="-109.52756"
     inkscape:cy="-120.89716"
     inkscape:window-x="1912"
     inkscape:window-y="-8"
     inkscape:window-maximized="1"
     inkscape:current-layer="svg2"
     showborder="true" />
  <path
     style="fill:#000000"
     d=""
     id="path3011"
     inkscape:connector-curvature="0" />
  <path
     style="fill:#000000"
     d=""
     id="path3009"
     inkscape:connector-curvature="0" />
  <path
     style="fill:#000000"
     d=""
     id="path2989"
     inkscape:connector-curvature="0" />
  <path
     style="fill:#000000"
     d=""
     id="path2987"
     inkscape:connector-curvature="0" />
  <path
     style="fill:#000000"
     d=""
     id="path3813"
     inkscape:connector-curvature="0" />
  <path
     style="fill:#000000"
     d="M 37.099352,0.13896394 C 36.097909,0.84669594 19.748111,17.375559 19.556563,17.873888 c -0.136992,0.356406 -0.09806,0.77999 0.117328,1.276658 0.179191,0.413189 4.124833,4.531744 8.884377,9.273729 8.090633,8.060776 8.608137,8.530446 9.399486,8.530446 0.478289,0 1.072474,-0.19015 1.385443,-0.443359 0.540702,-0.437467 0.548977,-0.50996 0.622528,-5.454838 0.08598,-5.780224 -0.310451,-5.160681 3.059087,-4.780793 7.272399,0.819883 12.837435,2.699523 18.63084,6.292711 7.232519,4.485742 12.901147,10.8361 16.827714,18.851464 2.150511,4.389877 3.75962,10.143089 4.361586,15.594454 0.256273,2.320774 1.218409,3.218257 2.75971,2.57427 1.237792,-0.517183 1.38596,-1.326093 1.214413,-6.629932 C 86.712719,59.670255 86.515355,57.565626 86.10016,55.292256 83.477762,40.933414 75.538294,28.75606 63.219321,20.198232 57.849991,16.46823 49.945783,13.162457 43.322192,11.876681 41.945801,11.609493 40.642482,11.340273 40.425928,11.278409 40.073817,11.177889 40.024735,10.625112 39.961686,6.0504539 l -0.0705,-5.11548796 -0.651275,-0.55978 c -0.735199,-0.63193 -1.466447,-0.71262 -2.140559,-0.236222 z M 14.995095,43.344876 c -1.809085,2.86976 -3.621591,7.590007 -4.498504,11.715264 -0.7609815,3.579896 -0.7536485,10.137721 0.01557,13.927239 3.083062,15.188461 14.898231,26.68276 29.95337,29.139936 6.39828,1.044281 12.887812,0.404414 18.923789,-1.86588 11.333093,-6.231782 17.872854,-11.276586 21.537813,-21.813734 l 0.428025,-1.592871 c 0.244049,-0.908212 -2.074541,-3.411183 -2.247293,-4.672296 -0.283364,-2.02416 -0.80077,-4.132885 -1.168662,-6.134798 -0.882767,-0.03624 -0.855487,-0.02397 -1.738762,-0.02397 l -0.04794,1.325561 c -0.04336,1.198836 -0.4808,4.038854 -0.937621,5.981209 C 72.392621,81.330566 61.114669,89.814718 48.89162,90.782332 40.024564,91.484282 31.99193,88.47794 25.731811,82.114413 19.610947,75.892437 16.538668,66.594964 17.82095,58.174184 c 0.533801,-3.505467 1.959693,-7.807128 3.3405,-10.07767 2.554871,-4.906345 4.388176,-6.947803 8.533285,-10.082012 0.0098,-0.100383 -4.390603,-3.985279 -5.31557,-4.812481 -4.634289,2.996721 -6.753228,6.04153 -9.38407,10.142855 z"
     id="path2998"
     inkscape:connector-curvature="0"
     sodipodi:nodetypes="sssssssssssssssscscsscsssccscccssssscccc" />
  <path
     style="fill:#000000"
     d="m 42.73766,67.807409 c -0.398431,-0.175154 -1.025157,-0.71262 -1.392725,-1.194374 l -0.668304,-0.87591 -0.0648,-10.579844 -0.0648,-10.579843 0.529041,-1.030947 c 0.684257,-1.333426 1.500948,-1.909425 2.897615,-2.04363 1.464707,-0.140741 2.604981,0.341713 3.461879,1.464721 l 0.66893,0.876679 0.06637,8.307159 0.06637,8.307174 9.719484,0.06756 9.719487,0.06756 0.891706,0.717454 c 1.138077,0.915678 1.58303,1.800501 1.565213,3.112533 -0.01758,1.294056 -0.550084,2.350916 -1.540458,3.057301 l -0.757895,0.540583 -12.186341,0.05204 c -9.906966,0.0423 -12.321839,-0.0069 -12.910761,-0.266336 z"
     id="path2998-1"
     inkscape:connector-curvature="0"
     sodipodi:nodetypes="cscccssscccccssscscc" />
</svg>
