<?xml version="1.0" encoding="UTF-8" standalone="no"?>
<svg
   xmlns:dc="http://purl.org/dc/elements/1.1/"
   xmlns:cc="http://creativecommons.org/ns#"
   xmlns:rdf="http://www.w3.org/1999/02/22-rdf-syntax-ns#"
   xmlns:svg="http://www.w3.org/2000/svg"
   xmlns="http://www.w3.org/2000/svg"
   xmlns:sodipodi="http://sodipodi.sourceforge.net/DTD/sodipodi-0.dtd"
   xmlns:inkscape="http://www.inkscape.org/namespaces/inkscape"
   version="1.1"
   viewBox="0 0 100 100"
   id="svg2"
   inkscape:version="0.48.4 r9939"
   width="100%"
   height="100%"
   sodipodi:docname="email.svg">
  <metadata
     id="metadata51">
    <rdf:RDF>
      <cc:Work
         rdf:about="">
        <dc:format>image/svg+xml</dc:format>
        <dc:type
           rdf:resource="http://purl.org/dc/dcmitype/StillImage" />
        <dc:title>smartphone</dc:title>
      </cc:Work>
    </rdf:RDF>
  </metadata>
  <defs
     id="defs49" />
  <sodipodi:namedview
     pagecolor="#ffffff"
     bordercolor="#666666"
     borderopacity="1"
     objecttolerance="10"
     gridtolerance="10"
     guidetolerance="10"
     inkscape:pageopacity="0"
     inkscape:pageshadow="2"
     inkscape:window-width="1920"
     inkscape:window-height="1059"
     id="namedview47"
     showgrid="false"
     inkscape:zoom="7.6266672"
     inkscape:cx="65.031102"
     inkscape:cy="40.106612"
     inkscape:window-x="2560"
     inkscape:window-y="21"
     inkscape:window-maximized="1"
     inkscape:current-layer="svg2"
     inkscape:snap-bbox="true"
     fit-margin-top="0"
     fit-margin-left="0"
     fit-margin-right="0"
     fit-margin-bottom="0" />
  <title>smartphone</title>
  <path
     style="fill:#000000"
     d="M 22.97905,99.259728 C 15.99885,98.160417 10.029638,94.75013 5.9105112,89.508252 3.3686501,86.273556 1.7295154,82.863155 0.77054036,78.813978 0.40905925,77.287659 0.33169369,76.300417 0.32769919,73.162984 0.32330468,69.710946 0.37398876,69.159862 0.87894752,67.169422 1.8357125,63.398058 3.2190756,60.451676 5.4946235,57.338634 6.0309888,56.604864 11.425536,51.094753 17.482506,45.093941 27.20117,35.465387 28.740218,34.023205 30.580588,32.82024 c 4.729757,-3.091618 9.285687,-4.454932 14.883006,-4.45358 7.148682,0.0018 13.259995,2.425248 18.307646,7.260143 1.647868,1.57841 3.994915,4.093671 4.14467,5.520675 0.18845,1.795734 -7.846575,8.435051 -8.376932,8.701354 -0.623879,0.313265 -1.511365,0.195074 -2.153852,-0.847131 -0.950212,-1.541377 -1.377131,-2.44905 -2.933048,-3.911226 -2.582065,-2.426501 -5.459786,-3.573063 -8.967924,-3.573063 -2.297414,0 -3.810695,0.362972 -6.109262,1.465351 -1.749388,0.839 -1.836325,0.919015 -12.667916,11.659558 -10.806921,10.716084 -10.914263,10.830698 -11.764184,12.561431 -2.613062,5.32109 -1.676798,11.107284 2.461208,15.210511 4.141256,4.106444 10.006695,5.036804 15.334662,2.432334 1.604654,-0.784402 2.115825,-1.208683 5.906131,-4.902216 3.218156,-3.382234 3.013801,-4.407465 5.910916,-3.478952 4.037663,1.294047 7.888306,1.993567 11.860043,1.649831 2.824115,0.272131 -1.295952,3.63062 -4.764538,7.602927 -9.137526,8.993835 -10.584184,10.136548 -15.056579,11.893198 -3.098013,1.216824 -5.462914,1.671286 -9.13562,1.755586 -1.823649,0.04187 -3.839631,-0.0065 -4.479965,-0.107243 z M 50.134772,71.200181 c -5.142551,-0.923419 -11.626375,-5.08687 -15.426361,-8.726686 -1.647867,-1.578412 -2.011026,-2.831641 -1.932492,-4.158754 0.07335,-1.239496 7.371578,-8.144289 7.901936,-8.410594 0.623878,-0.313266 1.289471,-0.594737 1.931957,0.517005 0.905844,1.567449 1.684178,2.911259 3.240093,4.373435 2.582065,2.426502 5.459787,3.573063 8.967924,3.573063 2.297413,0 3.810697,-0.362972 6.109261,-1.46535 1.749941,-0.839265 1.83286,-0.915629 12.660652,-11.659558 C 84.409593,34.504702 84.493045,34.415494 85.350968,32.668085 87.970236,27.333191 87.041541,21.579531 82.897982,17.470801 78.756728,13.364357 72.891287,12.433998 67.56332,15.038465 c -1.604655,0.784401 -2.115824,1.208685 -5.906132,4.902218 -2.16681,1.968331 -3.0138,4.407464 -5.910915,3.478951 -4.037663,-1.294048 -6.790233,-1.460456 -10.761972,-1.11672 -6.492138,1.489455 3.398643,-7.872334 3.666468,-8.136037 7.939022,-7.8141781 9.191978,-8.8975127 12.276321,-10.6144044 1.679046,-0.9346354 4.142699,-1.8551559 6.618934,-2.4731035 1.982137,-0.49464289 2.549887,-0.5456786 6.022259,-0.54133045 3.164029,0.00397 4.15964,0.0806759 5.698899,0.43911935 4.0835,0.9509146 7.52281,2.5762703 10.784929,5.0967662 4.753189,3.6725816 8.022158,8.8443828 9.479331,14.9971598 0.361482,1.526319 0.438845,2.513562 0.442842,5.650994 0.0044,3.452037 -0.0463,4.003123 -0.551249,5.993562 -0.956765,3.771363 -2.340128,6.717749 -4.615675,9.830789 -0.536367,0.73377 -5.930912,6.243881 -11.987882,12.244692 -9.718665,9.628554 -11.257712,11.070737 -13.098084,12.273701 -3.35391,2.192293 -6.618369,3.495234 -10.392078,4.147782 -2.198105,0.380094 -7.045061,0.373545 -9.194544,-0.01242 z"
     id="path5090"
     inkscape:connector-curvature="0"
     sodipodi:nodetypes="cssssssscsssssssssssccccsscssssssssssssccccsssssscssssss" />
</svg>
