<?xml version="1.0" encoding="UTF-8" standalone="no"?>
<!-- Created with Inkscape (http://www.inkscape.org/) -->

<svg
   xmlns:dc="http://purl.org/dc/elements/1.1/"
   xmlns:cc="http://creativecommons.org/ns#"
   xmlns:rdf="http://www.w3.org/1999/02/22-rdf-syntax-ns#"
   xmlns:svg="http://www.w3.org/2000/svg"
   xmlns="http://www.w3.org/2000/svg"
   xmlns:sodipodi="http://sodipodi.sourceforge.net/DTD/sodipodi-0.dtd"
   xmlns:inkscape="http://www.inkscape.org/namespaces/inkscape"
   id="svg2"
   version="1.1"
   inkscape:version="0.91 r13725"
   width="100"
   height="100"
   sodipodi:docname="invoice.svg">
  <metadata
     id="metadata8">
    <rdf:RDF>
      <cc:Work
         rdf:about="">
        <dc:format>image/svg+xml</dc:format>
        <dc:type
           rdf:resource="http://purl.org/dc/dcmitype/StillImage" />
        <dc:title />
      </cc:Work>
    </rdf:RDF>
  </metadata>
  <defs
     id="defs6" />
  <sodipodi:namedview
     pagecolor="#ffffff"
     bordercolor="#666666"
     borderopacity="1"
     objecttolerance="10"
     gridtolerance="10"
     guidetolerance="10"
     inkscape:pageopacity="0"
     inkscape:pageshadow="2"
     inkscape:window-width="2479"
     inkscape:window-height="1410"
     id="namedview4"
     showgrid="false"
     inkscape:zoom="7.375"
     inkscape:cx="-36.788947"
     inkscape:cy="11.139952"
     inkscape:window-x="81"
     inkscape:window-y="30"
     inkscape:window-maximized="1"
     inkscape:current-layer="svg2"
     showborder="false" />
  <path
     style="fill:#000000"
     d=""
     id="path3011"
     inkscape:connector-curvature="0" />
  <path
     style="fill:#000000"
     d=""
     id="path3009"
     inkscape:connector-curvature="0" />
  <path
     style="fill:#000000"
     d=""
     id="path2989"
     inkscape:connector-curvature="0" />
  <path
     style="fill:#000000"
     d=""
     id="path2987"
     inkscape:connector-curvature="0" />
  <path
     style="fill:#000000"
     d=""
     id="path3813"
     inkscape:connector-curvature="0" />
  <path
     style="fill:#000000"
     d="M 43.8125 0.71875 C 40.335647 0.71058893 35.65509 0.7339712 29.34375 0.75 L 7.34375 0.8125 C 6.1491004 0.82683708 5.9479335 1.0598878 5.21875 1.40625 C 3.0282581 2.4332251 1.2934557 4.6207993 0.71875 7.0625 C 0.48069107 8.0737853 0.40876436 16.13013 0.40625 50.25 C 0.40244075 96.644175 0.30508256 93.587359 1.8125 96.0625 C 2.6630679 97.45911 4.2310977 98.728525 5.8125 99.34375 C 6.8798841 99.759046 7.7925819 99.761536 37.529297 99.71875 C 37.717827 99.719021 37.782498 99.718482 37.96875 99.71875 C 67.705405 99.761516 68.618162 99.759049 69.685547 99.34375 C 71.266947 98.72853 72.834977 97.459108 73.685547 96.0625 C 75.192967 93.587367 75.095797 96.644178 75.091797 50.25 C 75.091363 43.987485 75.07827 40.932743 75.068359 37.25 L 75.09375 37.25 C 75.09265 35.581948 75.09375 33.919599 75.09375 32.25 L 75.09375 32.1875 L 75.03125 28.3125 C 74.9552 24.421626 74.93692 24.356126 74.25 22.90625 C 73.558301 21.446253 73.259375 21.084661 66.25 13.46875 C 65.07962 12.19709 62.408552 9.2698354 60.3125 6.96875 C 58.216447 4.6676644 56.055937 2.4608615 55.5 2.0625 C 53.997226 0.98567174 54.24306 0.74323321 43.8125 0.71875 z M 16.3125 6.4375 C 19.429594 6.423246 23.639585 6.4374906 29.3125 6.4375 L 50.28125 6.4375 L 50.28125 14.96875 C 50.28125 23.106051 50.29875 23.538766 50.71875 24.25 C 51.635609 25.802605 51.730999 25.8125 60.90625 25.8125 L 69.125 25.8125 L 69.125 31.875 C 69.125 31.996545 69.124801 32.067671 69.125 32.1875 L 69.125 37.25 L 69.138672 37.25 C 69.145926 40.809391 69.154297 43.680463 69.154297 50.09375 C 69.154297 87.222647 69.105697 92.179253 68.810547 92.75 C 68.238056 93.85709 68.629254 94.031029 53.09375 94.056641 L 53.09375 94.03125 C 49.070746 94.043163 45.21501 94.062349 37.779297 94.0625 L 37.71875 94.0625 C 35.455065 94.062332 34.711582 94.055696 32.992188 94.052734 L 32.992188 94.060547 C 6.7403979 94.064807 7.3641407 94.058485 6.6875 92.75 C 6.3923163 92.179253 6.34375 87.222647 6.34375 50.09375 C 6.34375 12.372572 6.378989 8.0342018 6.6875 7.59375 C 7.3157331 6.6967672 6.9612192 6.4802615 16.3125 6.4375 z M 29.044922 11.644531 C 26.056081 11.644531 23.540042 12.38191 21.498047 13.853516 C 19.46746 15.32512 18.013165 17.463215 17.134766 20.269531 L 14.927734 20.269531 L 13.421875 23.607422 L 16.605469 23.607422 C 16.594062 23.778539 16.581719 23.954195 16.570312 24.136719 L 16.570312 24.90625 L 16.570312 25.660156 C 16.581719 25.831274 16.594062 25.996541 16.605469 26.15625 L 14.927734 26.15625 L 13.421875 29.492188 L 17.134766 29.492188 C 17.99035 32.287095 19.440427 34.433314 21.482422 35.927734 C 23.535824 37.410747 26.056081 38.152344 29.044922 38.152344 C 30.322594 38.152344 31.549607 37.991294 32.724609 37.671875 C 33.911019 37.352457 35.045166 36.879381 36.128906 36.251953 L 36.128906 30.964844 C 35.170652 31.866059 34.172875 32.543689 33.134766 33 C 32.108065 33.444904 31.029762 33.667969 29.900391 33.667969 C 28.463009 33.667969 27.242167 33.320875 26.238281 32.625 C 25.245804 31.929125 24.464921 30.883938 23.894531 29.492188 L 29.011719 29.492188 L 30.533203 26.15625 L 23.193359 26.15625 C 23.181953 25.962318 23.16961 25.780492 23.158203 25.609375 L 23.158203 25.113281 L 23.158203 24.1875 C 23.16961 23.982159 23.188123 23.789947 23.210938 23.607422 L 31.646484 23.607422 L 33.117188 20.269531 L 23.894531 20.269531 C 24.407882 18.923412 25.172207 17.902907 26.1875 17.207031 C 27.214201 16.499749 28.451601 16.146484 29.900391 16.146484 C 31.029762 16.146484 32.120405 16.373767 33.169922 16.830078 C 34.219439 17.274982 35.204876 17.942224 36.128906 18.832031 L 36.128906 13.544922 C 35.045166 12.917494 33.911019 12.444418 32.724609 12.125 C 31.549607 11.805581 30.322594 11.644531 29.044922 11.644531 z M 14.609375 46.330078 C 13.951277 46.330078 13.421875 46.85948 13.421875 47.517578 C 13.421875 48.175676 13.951277 48.705078 14.609375 48.705078 L 62.476562 48.705078 C 63.134661 48.705078 63.664062 48.175676 63.664062 47.517578 C 63.664063 46.85948 63.134661 46.330078 62.476562 46.330078 L 14.609375 46.330078 z M 14.609375 51.427734 C 13.951277 51.427734 13.421875 51.959089 13.421875 52.617188 C 13.421875 53.275286 13.951277 53.804688 14.609375 53.804688 L 62.476562 53.804688 C 63.134661 53.804688 63.664062 53.275286 63.664062 52.617188 C 63.664063 51.959089 63.134661 51.427734 62.476562 51.427734 L 14.609375 51.427734 z M 14.609375 56.527344 C 13.951277 56.527344 13.421875 57.056745 13.421875 57.714844 C 13.421875 58.372942 13.951277 58.902344 14.609375 58.902344 L 62.476562 58.902344 C 63.134661 58.902344 63.664062 58.372942 63.664062 57.714844 C 63.664063 57.056745 63.134661 56.527344 62.476562 56.527344 L 14.609375 56.527344 z M 14.609375 61.625 C 13.951277 61.625 13.421875 62.154402 13.421875 62.8125 C 13.421875 63.470598 13.951277 64.001953 14.609375 64.001953 L 62.476562 64.001953 C 63.134661 64.001953 63.664062 63.470598 63.664062 62.8125 C 63.664063 62.154402 63.134661 61.625 62.476562 61.625 L 14.609375 61.625 z M 14.609375 66.724609 C 13.951277 66.724609 13.421875 67.254011 13.421875 67.912109 C 13.421875 68.570208 13.951277 69.099609 14.609375 69.099609 L 62.476562 69.099609 C 63.134661 69.099609 63.664062 68.570208 63.664062 67.912109 C 63.664063 67.254011 63.134661 66.724609 62.476562 66.724609 L 14.609375 66.724609 z M 14.609375 71.822266 C 13.951277 71.822266 13.421875 72.351667 13.421875 73.009766 C 13.421875 73.667864 13.951277 74.197266 14.609375 74.197266 L 62.476562 74.197266 C 63.134661 74.197266 63.664062 73.667864 63.664062 73.009766 C 63.664063 72.351667 63.134661 71.822266 62.476562 71.822266 L 14.609375 71.822266 z M 14.609375 84.814453 C 13.951277 84.814453 13.421875 85.343855 13.421875 86.001953 C 13.421875 86.660051 13.951277 87.189453 14.609375 87.189453 L 30.644531 87.189453 C 31.30263 87.189453 31.832031 86.660051 31.832031 86.001953 C 31.832031 85.343855 31.30263 84.814453 30.644531 84.814453 L 14.609375 84.814453 z M 41.648438 84.814453 C 40.990339 84.814453 40.460938 85.343855 40.460938 86.001953 C 40.460938 86.660051 40.990339 87.189453 41.648438 87.189453 L 57.683594 87.189453 C 58.341692 87.189453 58.871094 86.660051 58.871094 86.001953 C 58.871094 85.343855 58.341692 84.814453 57.683594 84.814453 L 41.648438 84.814453 z "
     id="path4030" />
</svg>
