<?xml version="1.0" encoding="UTF-8" standalone="no"?>
<svg
   xmlns:dc="http://purl.org/dc/elements/1.1/"
   xmlns:cc="http://creativecommons.org/ns#"
   xmlns:rdf="http://www.w3.org/1999/02/22-rdf-syntax-ns#"
   xmlns:svg="http://www.w3.org/2000/svg"
   xmlns="http://www.w3.org/2000/svg"
   xmlns:xlink="http://www.w3.org/1999/xlink"
   xmlns:sodipodi="http://sodipodi.sourceforge.net/DTD/sodipodi-0.dtd"
   xmlns:inkscape="http://www.inkscape.org/namespaces/inkscape"
   version="1.1"
   viewBox="0 0 100 100"
   id="svg2"
   inkscape:version="0.48.4 r9939"
   width="100%"
   height="100%"
   sodipodi:docname="workorder.svg">
  <metadata
     id="metadata51">
    <rdf:RDF>
      <cc:Work
         rdf:about="">
        <dc:format>image/svg+xml</dc:format>
        <dc:type
           rdf:resource="http://purl.org/dc/dcmitype/StillImage" />
        <dc:title>labour</dc:title>
      </cc:Work>
    </rdf:RDF>
  </metadata>
  <defs
     id="defs49">
    <linearGradient
       inkscape:collect="always"
       xlink:href="#linearGradient3802-1"
       id="linearGradient3860"
       gradientUnits="userSpaceOnUse"
       gradientTransform="matrix(8.1388236,0,0,8.2087572,43.862514,-237.13826)"
       x1="54.909092"
       y1="98.909088"
       x2="56.909103"
       y2="57.63636" />
    <linearGradient
       inkscape:collect="always"
       id="linearGradient3802-1">
      <stop
         style="stop-color:#2d2d2d;stop-opacity:1"
         offset="0"
         id="stop3804-7" />
      <stop
         style="stop-color:#b0b0b0;stop-opacity:1"
         offset="1"
         id="stop3806-4" />
    </linearGradient>
  </defs>
  <sodipodi:namedview
     pagecolor="#ffffff"
     bordercolor="#666666"
     borderopacity="1"
     objecttolerance="10"
     gridtolerance="10"
     guidetolerance="10"
     inkscape:pageopacity="0"
     inkscape:pageshadow="2"
     inkscape:window-width="2479"
     inkscape:window-height="1410"
     id="namedview47"
     showgrid="false"
     inkscape:zoom="3.8133336"
     inkscape:cx="61.873217"
     inkscape:cy="16.715679"
     inkscape:window-x="81"
     inkscape:window-y="30"
     inkscape:window-maximized="1"
     inkscape:current-layer="svg2"
     inkscape:snap-bbox="true"
     fit-margin-top="0"
     fit-margin-left="0"
     fit-margin-right="0"
     fit-margin-bottom="0" />
  <title>labour</title>
  <path
     inkscape:connector-curvature="0"
     id="path2996"
     d="m 45.654469,94.749438 c -4.313827,-2.799587 -8.124101,-5.341687 -8.467269,-5.649126 -0.511855,-0.45854 -0.442245,-2.156209 0.387456,-9.449788 0.556272,-4.889966 1.240601,-9.155371 1.520731,-9.478681 1.021789,-1.179312 11.110386,-0.295094 14.550938,1.275325 1.234691,0.563573 4.699626,3.648662 9.479441,8.440251 l 7.533446,7.552008 -1.841964,1.113796 c -1.013078,0.612587 -3.398387,1.86457 -5.300679,2.782191 -3.732182,1.800318 -6.661434,4.082681 -8.721048,6.795114 l -1.297733,1.709069 -7.843319,-5.090159 z m 41.247763,0.426391 C 84.966998,94.765674 83.752743,93.775753 75.006125,85.477529 69.648636,80.394697 63.323854,74.226255 60.951054,71.769884 l -4.314186,-4.466127 1.00403,-1.986666 c 1.921281,-3.801638 1.121595,-8.093583 -1.996646,-10.716094 -2.084226,-1.752882 -3.218451,-2.098814 -11.127983,-3.394 L 38.290083,50.187458 35.060177,47.280571 C 30.456228,43.137066 28.83503,42.459523 22.490334,42.027284 14.933991,41.512505 11.802913,40.310535 7.2991141,36.195627 3.1889452,32.440349 1.187255,28.580888 0.45536677,23.000185 0.15444081,20.705604 0.97957336,14.532781 1.5872157,14.532781 c 0.1740506,0 3.3279876,2.890188 7.0087471,6.422637 7.2394412,6.947748 7.7552902,7.215948 10.9196092,5.677377 4.106008,-1.996451 8.567856,-6.911863 9.252766,-10.193352 0.310834,-1.48925 0.11334,-1.732499 -6.764814,-8.3318864 L 14.918521,1.3097073 16.786084,0.81302153 c 2.961793,-0.78770489 8.844797,-0.60941693 12.121155,0.36734297 9.55518,2.8486173 15.357937,10.9853425 15.37424,21.5580245 0.0049,3.139851 1.387224,6.947987 2.980276,8.209962 0.667446,0.52873 0.646176,0.83087 -0.209923,2.98194 -2.227702,5.597389 0.902346,11.072529 6.883316,12.040436 1.644173,0.266075 1.836151,0.438739 1.836151,1.651386 0,3.148677 3.674503,7.288189 7.303796,8.228083 1.640969,0.424963 1.796015,0.603783 1.796015,2.071371 0,3.218766 2.588968,6.387803 6.205003,7.59526 1.292173,0.431472 1.457996,0.692521 1.457996,2.295278 0,2.308939 1.471243,5.073878 3.467875,6.517242 3.8207,2.761988 8.221258,2.432516 11.673185,-0.873984 l 2.024076,-1.938803 4.344354,4.243384 c 2.389401,2.333856 4.669617,4.989026 5.06715,5.900381 1.971271,4.519154 -0.187902,10.466808 -4.545519,12.521063 -2.729627,1.286794 -4.933875,1.572846 -7.662998,0.994441 z m 5.23355,-7.532681 c 2.250052,-2.739967 0.45159,-6.590153 -3.078332,-6.590153 -1.187401,0 -2.083757,0.348607 -2.895392,1.12605 -2.659856,2.547793 -0.75687,6.672872 3.078331,6.672872 1.485132,0 2.120625,-0.265301 2.895393,-1.208769 z M 27.052165,82.450782 c -2.610217,-1.811286 -4.909659,-3.796336 -5.421317,-4.680083 -1.016252,-1.755294 -0.929474,-4.081878 0.575242,-15.422638 0.943929,-7.114181 1.330876,-7.944289 4.255762,-9.129717 1.439543,-0.583428 2.561012,-0.473468 12.452373,1.221009 13.81358,2.366381 12.911765,2.148639 14.264164,3.444059 1.359732,1.302452 1.539918,3.695023 0.432734,5.745883 -1.198119,2.219298 -2.102281,2.422308 -9.172839,2.059567 -9.317948,-0.478033 -9.644411,-0.142239 -10.923217,11.235292 -0.841029,7.48263 -1.07111,8.730379 -1.603181,8.694229 -0.179806,-0.0122 -2.366684,-1.437635 -4.859721,-3.167601 z M 79.467091,71.696155 c -1.540309,-0.642846 -2.622547,-2.364573 -2.622547,-4.172221 0,-0.604646 1.562534,-3.328286 3.472298,-6.052513 2.851842,-4.068088 3.754974,-5.028544 5.054274,-5.375041 2.977942,-0.794172 5.841552,1.380937 5.841552,4.437069 0,0.540346 -1.528802,3.197181 -3.397333,5.904091 -2.5597,3.708172 -3.758174,5.042127 -4.860846,5.410323 -1.774837,0.592649 -1.695563,0.596099 -3.487398,-0.151708 z M 71.76212,61.335453 c -1.555241,-0.601911 -3.059511,-2.727054 -3.059511,-4.322278 0,-0.994986 0.954373,-2.833118 3.103476,-5.977332 3.73804,-5.468881 4.752597,-6.550619 6.485804,-6.915255 1.697455,-0.357118 4.530092,0.76422 5.268341,2.085542 1.281952,2.294435 0.804212,3.812996 -2.877548,9.146683 -4.183408,6.060409 -5.843285,7.173618 -8.920562,5.98264 z M 62.166593,50.80862 c -1.844359,-1.077248 -2.812072,-3.477397 -2.112578,-5.23969 0.779552,-1.963997 7.129275,-10.776128 8.137242,-11.292852 1.684131,-0.863345 4.170645,-0.554939 5.742915,0.712307 1.226291,0.988381 1.473562,1.519909 1.473562,3.167546 0,1.677695 -0.501865,2.709254 -3.28828,6.758885 -4.69375,6.821669 -6.516365,7.900971 -9.952861,5.893804 z M 51.882044,40.766312 c -1.21551,-1.040302 -1.509678,-1.648379 -1.509678,-3.120688 0,-1.51488 0.633098,-2.739159 3.689936,-7.135582 2.102075,-3.023256 4.20085,-5.529936 4.877221,-5.82513 2.032499,-0.887053 3.886016,-0.616343 5.553944,0.811162 1.257197,1.07598 1.553218,1.676025 1.553218,3.14842 0,1.493448 -0.635478,2.739693 -3.54984,6.961667 -1.952413,2.828412 -3.989046,5.437242 -4.525854,5.797397 -1.654129,1.109787 -4.381146,0.824387 -6.088947,-0.637246 z" />
</svg>
