<?xml version="1.0" encoding="UTF-8" standalone="no"?>
<svg
   xmlns:dc="http://purl.org/dc/elements/1.1/"
   xmlns:cc="http://creativecommons.org/ns#"
   xmlns:rdf="http://www.w3.org/1999/02/22-rdf-syntax-ns#"
   xmlns:svg="http://www.w3.org/2000/svg"
   xmlns="http://www.w3.org/2000/svg"
   xmlns:xlink="http://www.w3.org/1999/xlink"
   xmlns:sodipodi="http://sodipodi.sourceforge.net/DTD/sodipodi-0.dtd"
   xmlns:inkscape="http://www.inkscape.org/namespaces/inkscape"
   version="1.1"
   viewBox="0 0 100 100"
   id="svg2"
   inkscape:version="0.48.4 r9939"
   width="100%"
   height="100%"
   sodipodi:docname="M+S-Wheel_black.svg"
   inkscape:export-filename="C:\Users\jherwig\Desktop\Screenshots\Icons\M+S-Wheel.png"
   inkscape:export-xdpi="32"
   inkscape:export-ydpi="32">
  <metadata
     id="metadata51">
    <rdf:RDF>
      <cc:Work
         rdf:about="">
        <dc:format>image/svg+xml</dc:format>
        <dc:type
           rdf:resource="http://purl.org/dc/dcmitype/StillImage" />
        <dc:title>remember-me-active</dc:title>
      </cc:Work>
    </rdf:RDF>
  </metadata>
  <defs
     id="defs49">
    <radialGradient
       inkscape:collect="always"
       xlink:href="#linearGradient4042"
       id="radialGradient4048"
       cx="1071.6101"
       cy="314.9259"
       fx="1071.6101"
       fy="314.9259"
       r="293.73334"
       gradientTransform="matrix(1,0,0,1.0022845,0,-0.71943396)"
       gradientUnits="userSpaceOnUse" />
    <linearGradient
       id="linearGradient4042">
      <stop
         style="stop-color:#3a3a3a;stop-opacity:1;"
         offset="0"
         id="stop4044" />
      <stop
         id="stop4050"
         offset="0.65937507"
         style="stop-color:#131313;stop-opacity:1;" />
      <stop
         style="stop-color:#505050;stop-opacity:1;"
         offset="0.89655095"
         id="stop4064" />
      <stop
         style="stop-color:#000000;stop-opacity:1;"
         offset="1"
         id="stop4046" />
    </linearGradient>
    <radialGradient
       inkscape:collect="always"
       xlink:href="#linearGradient4042-7"
       id="radialGradient3819"
       gradientUnits="userSpaceOnUse"
       gradientTransform="matrix(1,0,0,1.0022845,-771.125,-15.156934)"
       cx="1071.6101"
       cy="314.9259"
       fx="1071.6101"
       fy="314.9259"
       r="293.73334" />
    <linearGradient
       id="linearGradient4042-7">
      <stop
         style="stop-color:#3a3a3a;stop-opacity:1;"
         offset="0"
         id="stop4044-4" />
      <stop
         id="stop4050-0"
         offset="0.65937507"
         style="stop-color:#131313;stop-opacity:1;" />
      <stop
         style="stop-color:#505050;stop-opacity:1;"
         offset="0.89655095"
         id="stop4064-9" />
      <stop
         style="stop-color:#000000;stop-opacity:1;"
         offset="1"
         id="stop4046-4" />
    </linearGradient>
    <linearGradient
       id="linearGradient4042-8">
      <stop
         style="stop-color:#3a3a3a;stop-opacity:1;"
         offset="0"
         id="stop4044-2" />
      <stop
         id="stop4050-4"
         offset="0.65937507"
         style="stop-color:#131313;stop-opacity:1;" />
      <stop
         style="stop-color:#505050;stop-opacity:1;"
         offset="0.89655095"
         id="stop4064-5" />
      <stop
         style="stop-color:#000000;stop-opacity:1;"
         offset="1"
         id="stop4046-5" />
    </linearGradient>
    <linearGradient
       id="linearGradient5025">
      <stop
         id="stop5027"
         offset="0"
         style="stop-color:#ffffff;stop-opacity:1;" />
      <stop
         style="stop-color:#9e9e9e;stop-opacity:1;"
         offset="0.65937507"
         id="stop5029" />
      <stop
         id="stop5031"
         offset="0.89655095"
         style="stop-color:#e1e1e1;stop-opacity:1;" />
      <stop
         id="stop5033"
         offset="1"
         style="stop-color:#aaaaaa;stop-opacity:1;" />
    </linearGradient>
  </defs>
  <sodipodi:namedview
     pagecolor="#ffffff"
     bordercolor="#666666"
     borderopacity="1"
     objecttolerance="10"
     gridtolerance="10"
     guidetolerance="10"
     inkscape:pageopacity="0"
     inkscape:pageshadow="2"
     inkscape:window-width="1920"
     inkscape:window-height="1018"
     id="namedview47"
     showgrid="false"
     inkscape:zoom="2.8284271"
     inkscape:cx="55.440225"
     inkscape:cy="67.215416"
     inkscape:window-x="1912"
     inkscape:window-y="-8"
     inkscape:window-maximized="1"
     inkscape:current-layer="svg2"
     inkscape:snap-bbox="true"
     fit-margin-top="0"
     fit-margin-left="0"
     fit-margin-right="0"
     fit-margin-bottom="0"
     units="px"
     showguides="true"
     inkscape:guide-bbox="true"
     borderlayer="true" />
  <title
     id="title3003">remember-me-active</title>
  <path
     style="font-size:179.57452393px;font-style:normal;font-weight:bold;line-height:125%;letter-spacing:0px;word-spacing:0px;fill:#000000;fill-opacity:1;stroke:none;font-family:Sans;-inkscape-font-specification:Sans Bold"
     d="M 30.0625 0.53125 C 14.280664 0.53125 1.46875 12.440536 1.46875 27.15625 C 1.46875 41.871964 14.280664 53.8125 30.0625 53.8125 C 45.844334 53.8125 58.625 41.871964 58.625 27.15625 C 58.625 12.440536 45.844334 0.53125 30.0625 0.53125 z M 30.03125 9.75 C 30.447447 9.7499219 30.859282 9.7934799 31.6875 9.875 C 34.41658 10.143626 36.276088 10.62857 38.375 11.625 C 39.249021 12.039931 40.820963 12.900963 41.03125 13.09375 C 41.094878 13.152077 41.388906 13.388941 41.6875 13.59375 C 42.494997 14.147634 44.131558 15.697896 44.90625 16.65625 C 45.810475 17.774872 46.605849 19.045212 47.125 20.15625 C 47.53686 21.037698 47.59375 21.19585 47.59375 21.28125 C 47.59375 21.330656 47.67711 21.47881 47.75 21.625 C 47.929102 21.984162 48.313109 23.421086 48.46875 24.25 C 48.874294 26.409736 48.763392 29.318266 48.1875 31.34375 C 48.108355 31.622108 48.01701 32.001928 47.96875 32.1875 C 47.920495 32.373073 47.82291 32.63506 47.75 32.78125 C 47.6771 32.92744 47.59375 33.075594 47.59375 33.125 C 47.59375 33.241825 47.421636 33.637655 46.78125 34.875 C 45.341976 37.655929 42.960919 40.12063 40.03125 41.875 C 38.720796 42.659741 36.185472 43.719887 34.90625 44 C 33.528242 44.301745 33.122173 44.366291 32.53125 44.4375 C 30.253914 44.711937 27.382941 44.557914 25.59375 44.0625 C 25.351648 43.99546 25.07887 43.9375 25 43.9375 C 24.878935 43.9375 23.741165 43.576976 23.125 43.34375 C 22.49001 43.103403 20.863584 42.32245 20.25 41.96875 C 18.469201 40.942206 16.449696 39.261712 15.3125 37.84375 C 15.010439 37.467113 14.69675 37.081719 14.625 37 C 14.55325 36.918281 14.5 36.831117 14.5 36.8125 C 14.5 36.793884 14.332868 36.591363 14.15625 36.34375 C 13.731936 35.748872 12.5 33.344157 12.5 33.125 C 12.5 33.075594 12.4479 32.92744 12.375 32.78125 C 12.302101 32.63506 12.20451 32.373073 12.15625 32.1875 C 12.107989 32.001928 11.987569 31.622108 11.90625 31.34375 C 11.325099 29.354592 11.209549 26.473244 11.625 24.21875 C 11.760239 23.484854 12.16169 22.021149 12.3125 21.71875 C 12.358771 21.625964 12.486245 21.301555 12.59375 21 C 12.701256 20.698444 12.84154 20.365983 12.90625 20.25 C 12.970959 20.134017 13.134949 19.856967 13.25 19.625 C 13.612113 18.894911 14.512862 17.529374 15.21875 16.65625 C 16.072347 15.600426 17.706684 14.059801 18.59375 13.46875 C 18.733005 13.375964 18.92332 13.21035 19.03125 13.125 C 19.787805 12.526734 22.120678 11.372883 23.5625 10.875 C 25.272861 10.284377 26.216184 10.093196 28.375 9.875 C 29.184564 9.79317 29.615053 9.750078 30.03125 9.75 z M 29.5625 12.625 C 28.960452 12.6326 27.982018 12.71073 27.65625 12.8125 C 27.506962 12.85914 27.091985 12.99393 26.71875 13.09375 C 26.345515 13.19358 25.98727 13.30911 25.9375 13.34375 C 25.887731 13.37839 25.749408 13.40461 25.625 13.4375 C 24.841525 13.644642 22.676879 14.769007 21.28125 15.6875 C 20.166743 16.420983 18.46875 17.908061 18.46875 18.15625 C 18.46875 18.37259 18.590714 18.460945 19.78125 19 C 20.278897 19.225326 20.75112 19.45176 20.84375 19.5 C 21.137528 19.653007 22.39102 20.022976 23.28125 20.21875 C 25.395926 20.683804 26.833199 20.29775 28.0625 18.9375 C 28.431391 18.529311 28.93709 17.699947 29.21875 17.0625 C 29.734148 15.896058 30.202689 14.141172 30.25 13.21875 C 30.27512 12.729127 30.26648 12.69563 30 12.625 C 29.92497 12.60511 29.763181 12.6225 29.5625 12.625 z M 35.75 13.65625 C 35.661486 13.64155 35.57659 13.65592 35.53125 13.6875 C 35.342489 13.818986 35.073526 14.845821 34.84375 16.25 C 34.298832 19.58 34.999589 21.481789 37.125 22.4375 C 37.977504 22.820833 38.356793 22.905954 39.5625 23.0625 C 40.638749 23.202238 41.81961 23.235287 43.15625 23.125 C 44.24839 23.034889 44.365699 22.954681 44.28125 22.59375 C 43.877219 20.867007 42.556098 18.891914 40.46875 16.9375 C 39.194871 15.744742 38.584376 15.292116 37.46875 14.59375 C 36.500411 13.987584 36.015542 13.700359 35.75 13.65625 z M 31.03125 21.40625 C 29.632077 21.40625 29.162319 23.210899 30.40625 23.8125 C 30.802964 24.004358 31.502588 23.954559 31.84375 23.71875 C 32.231349 23.450854 32.51471 22.956632 32.46875 22.59375 C 32.38659 21.94514 31.720225 21.40625 31.03125 21.40625 z M 72.09375 22.75 C 72.016685 22.749146 70.192294 24.442869 68.0625 26.5 C 66.829336 27.691101 65.934966 28.523872 65.28125 29.09375 C 65.19232 30.140063 65.054389 31.169804 64.875 32.1875 C 65.603941 31.954104 66.41092 31.298224 68.46875 29.375 L 71.09375 26.90625 L 71.9375 29.34375 C 73.668014 34.336912 78.553664 48.593891 78.78125 49.3125 C 79.031898 50.103887 85.327678 68.581038 85.5 69.03125 C 85.581083 69.243099 78.571255 69.3125 50.875 69.3125 L 16.125 69.3125 L 16.3125 68.84375 C 16.424913 68.580634 18.0488 65.065729 19.90625 61.03125 C 20.381534 59.998866 20.335173 60.120396 20.75 59.21875 C 19.962513 58.974308 19.199761 58.704771 18.4375 58.40625 C 15.727228 64.304691 12.53125 71.285854 12.53125 71.34375 C 12.53125 71.38968 29.724669 71.4375 50.71875 71.4375 L 88.875 71.4375 L 87.40625 67.125 C 86.587845 64.756934 84.562742 58.853071 82.90625 54 C 81.249704 49.146928 79.648865 44.470807 79.34375 43.59375 C 79.038586 42.716691 77.302246 37.66575 75.5 32.375 C 73.697805 27.08425 72.17076 22.750638 72.09375 22.75 z M 15.6875 22.8125 C 15.356877 22.910326 15.021953 24.507263 15.03125 25.96875 C 15.045955 28.290232 15.644037 30.974521 16.6875 33.1875 C 16.890484 33.617987 17.43116 34.576768 17.59375 34.8125 C 17.772567 35.071759 18.071681 34.927949 18.875 34.15625 C 20.500503 32.594731 21.414313 31.367323 21.90625 30.0625 C 22.136039 29.453 22.148421 28.118849 21.9375 27.625 C 21.501403 26.603911 20.892161 25.834538 19.78125 25 C 19.536917 24.816452 19.251649 24.611059 19.15625 24.53125 C 18.586846 24.0549 15.937267 22.738598 15.6875 22.8125 z M 25.1875 25.0625 C 25.09972 25.06111 24.99692 25.074383 24.90625 25.09375 C 24.78536 25.11957 24.65739 25.18952 24.53125 25.25 C 23.532801 25.72875 23.448543 26.877464 24.375 27.4375 C 24.80571 27.697852 25.291917 27.737015 25.71875 27.53125 C 26.075898 27.359071 26.190307 27.270458 26.375 26.9375 C 26.681443 26.385065 26.508276 25.749611 25.9375 25.34375 C 25.68886 25.166955 25.45084 25.066674 25.1875 25.0625 z M 35 26.84375 C 34.702296 26.85065 34.404574 26.9394 34.1875 27.09375 C 33.741261 27.411051 33.51522 27.967434 33.65625 28.40625 C 33.789869 28.822041 34.032652 29.134488 34.40625 29.3125 C 34.789505 29.495106 35.482281 29.429653 35.8125 29.1875 C 36.584305 28.621527 36.564829 27.637109 35.78125 27.0625 C 35.583925 26.917804 35.297705 26.836813 35 26.84375 z M 44.75 28.4375 C 43.717476 28.441218 41.964364 28.55538 41.28125 28.6875 C 38.509765 29.223538 37.259338 30.1385 36.78125 32.0625 C 36.420922 33.512569 36.823962 36.097979 37.75 38.375 C 37.877428 38.688343 38.3059 38.598556 39.15625 38.09375 C 39.502968 37.887928 40.53928 37.063116 40.8125 36.78125 C 40.92765 36.662457 41.195534 36.396269 41.40625 36.1875 C 42.99305 34.615422 44.967922 31.346869 45.5 29.4375 C 45.750179 28.539706 45.746619 28.533765 45.46875 28.46875 C 45.3547 28.442056 45.094175 28.436257 44.75 28.4375 z M 29.15625 30.28125 C 28.863423 30.260071 28.57183 30.33502 28.28125 30.53125 C 27.935543 30.764709 27.59375 31.261782 27.59375 31.59375 C 27.59375 31.867264 27.996657 32.455051 28.28125 32.625 C 28.67381 32.859413 29.410214 32.888033 29.8125 32.65625 C 29.974819 32.562731 30.1914 32.329492 30.28125 32.15625 C 30.753939 31.244878 30.034732 30.344792 29.15625 30.28125 z M 27.34375 34.78125 C 26.023779 34.78125 25.84408 34.841529 24.625 35.375 C 22.902638 36.128712 20.5625 37.749296 20.5625 38.1875 C 20.5625 38.405381 21.513086 39.107412 22.375 39.53125 C 23.935975 40.29885 26.043314 40.897436 28.0625 41.15625 C 28.435736 41.20409 28.976294 41.27543 29.25 41.3125 C 30.474824 41.478403 33.064167 41.384489 33.34375 41.15625 C 33.448622 41.070631 32.850692 39.585159 32.3125 38.59375 C 31.397824 36.908788 30.142015 35.517908 29.09375 35.03125 C 28.579266 34.792403 28.522482 34.78125 27.34375 34.78125 z M 25.65625 35.21875 C 25.67988 35.224611 25.67019 35.260217 25.65625 35.28125 C 25.628359 35.323317 25.54046 35.34375 25.46875 35.34375 C 25.281466 35.34375 25.319981 35.301505 25.53125 35.25 C 25.58105 35.23786 25.63262 35.212888 25.65625 35.21875 z M 24.4375 35.71875 C 24.444184 35.722813 24.3953 35.750655 24.3125 35.8125 C 24.215897 35.88465 24.11106 35.9375 24.0625 35.9375 C 23.94755 35.9375 23.973046 35.904218 24.25 35.78125 C 24.35665 35.733902 24.430804 35.714691 24.4375 35.71875 z M 37.375 36.625 C 37.38178 36.624512 37.41946 36.647082 37.46875 36.71875 C 37.525753 36.801686 37.55573 36.912507 37.53125 36.96875 C 37.49913 37.042556 37.473846 37.039871 37.46875 36.96875 C 37.46482 36.914553 37.43488 36.803731 37.40625 36.71875 C 37.381496 36.645312 37.368199 36.625444 37.375 36.625 z M 64.34375 39.875 C 63.491831 39.875 63.422003 39.926234 62.625 41.1875 C 62.163638 41.917565 61.72402 42.530613 61.65625 42.53125 C 61.631551 42.531548 61.535087 42.377298 61.4375 42.25 C 60.963503 43.152965 60.455086 44.02143 59.90625 44.875 L 60.0625 45.125 L 59.5 46 C 59.196442 46.485767 58.571984 47.478385 58.09375 48.21875 L 57.21875 49.5625 L 56.84375 48.96875 C 55.475353 50.535179 53.969666 51.953094 52.34375 53.25 C 53.685083 53.255491 54.781095 53.309321 54.78125 53.34375 C 54.781361 53.382053 54.138803 54.406184 53.34375 55.625 L 51.875 57.84375 L 49.4375 57.84375 C 47.093435 57.84375 46.998393 57.864411 46.625 58.375 C 46.271117 58.858938 46.259146 58.95148 46.59375 59.53125 C 46.949068 60.146907 47.026403 60.15625 48.625 60.15625 C 50.556188 60.15625 50.500302 60.08859 49.4375 61.65625 C 48.513856 63.018654 48.483817 63.105699 48.875 63.875 C 49.095926 64.309448 49.316733 64.40745 50 64.40625 C 50.796419 64.40486 50.90324 64.334882 51.6875 63.09375 C 52.704569 61.484287 52.791739 61.468713 53.6875 62.875 C 54.34265 63.903492 54.477883 64 55.28125 64 C 57.130495 64 56.951856 62.624737 54.6875 59.46875 C 54.376368 59.03512 54.445492 58.816558 55.6875 56.8125 C 56.428035 55.617627 57.08338 54.65995 57.15625 54.65625 C 57.294372 54.649091 60 58.720726 60 58.9375 C 60 59.005534 59.445522 59.906908 58.78125 60.9375 C 57.627553 62.727467 57.591422 62.832734 57.9375 63.34375 C 58.632989 64.370792 59.941416 64.123182 60.8125 62.78125 C 61.708662 61.400545 61.624473 61.37512 62.6875 63.03125 C 63.509233 64.311411 63.616905 64.40625 64.375 64.40625 C 65.877817 64.40625 66.138016 63.454438 65.09375 61.78125 C 64.024519 60.06808 64.000735 60.15745 65.875 60.15625 C 67.387286 60.154981 67.480395 60.134875 67.84375 59.5625 C 68.198611 59.005722 68.224404 58.92227 67.875 58.40625 C 67.503843 57.858182 67.410978 57.84375 65.0625 57.84375 C 63.424943 57.84375 62.603683 57.743279 62.4375 57.5625 C 62.084185 57.178163 59.75 53.575464 59.75 53.40625 C 59.749715 53.32778 61.056537 53.31655 62.625 53.375 L 65.46875 53.46875 L 66.625 55.28125 C 67.683094 56.943341 67.823625 57.10148 68.5625 57.15625 C 69.246626 57.206959 69.427538 57.094593 69.78125 56.53125 C 70.194299 55.873293 70.193637 55.876568 69.375 54.625 C 68.574671 53.401436 68.581833 53.35739 69.09375 53.34375 C 72.503246 53.252837 72.46964 53.276136 72.4375 52.90625 C 72.420227 52.706191 72.516234 52.53783 72.65625 52.5625 C 73.083308 52.637668 73.122844 51.896339 72.71875 51.34375 C 72.367103 50.86289 72.18219 50.8125 70.4375 50.8125 L 68.53125 50.8125 L 69.375 49.5 C 70.17131 48.212654 70.172149 48.155401 69.78125 47.5625 C 69.445674 47.053465 69.254946 46.97845 68.5625 47.03125 C 67.795167 47.089765 67.63169 47.207136 66.53125 48.9375 L 65.375 50.8125 L 62.5625 50.8125 C 61.023181 50.8125 59.75 50.74934 59.75 50.6875 C 59.75 50.625661 60.37936 49.634798 61.125 48.46875 L 62.46875 46.34375 L 65 46.34375 L 67.53125 46.34375 L 67.84375 45.6875 C 68.381323 44.524633 67.742821 43.91831 65.96875 43.90625 C 64.101145 43.89359 64.067733 43.849836 65.09375 42.28125 C 66.178476 40.622947 65.943204 39.875 64.34375 39.875 z M 77.71875 73.21875 C 75.593989 73.218776 73.78366 73.501261 72.28125 74.09375 C 70.778839 74.686293 69.642101 75.554771 68.84375 76.6875 C 68.0454 77.820275 67.625 79.042559 67.625 80.34375 C 67.625 82.365295 68.490207 84.06299 70.1875 85.46875 C 71.394435 86.467909 73.476512 87.314551 76.46875 88 C 78.794653 88.534436 80.283704 88.915888 80.9375 89.125 C 81.892987 89.438695 82.585265 89.794703 82.96875 90.21875 C 83.352192 90.642815 83.53125 91.177124 83.53125 91.78125 C 83.53125 92.722313 83.067753 93.515869 82.15625 94.21875 C 81.244725 94.921643 79.891592 95.281254 78.09375 95.28125 C 76.396457 95.281254 75.061992 94.883777 74.0625 94.09375 C 73.062987 93.303735 72.389376 92.059614 72.0625 90.375 L 66.625 90.875 C 66.989602 93.733028 68.126708 95.913343 70 97.40625 C 71.873291 98.89916 74.536094 99.656248 78.03125 99.65625 C 80.432582 99.656248 82.453196 99.340313 84.0625 98.71875 C 85.67174 98.09719 86.901148 97.15298 87.78125 95.875 C 88.661287 94.597028 89.124978 93.21387 89.125 91.75 C 89.124978 90.135109 88.735461 88.78541 88 87.6875 C 87.264496 86.589615 86.269976 85.726941 84.96875 85.09375 C 83.667482 84.460584 81.653147 83.842533 78.9375 83.25 C 76.221831 82.657501 74.516538 82.077312 73.8125 81.53125 C 73.259296 81.101404 72.96875 80.604152 72.96875 80 C 72.96875 79.337795 73.252844 78.801283 73.84375 78.40625 C 74.761534 77.790518 76.034385 77.468772 77.65625 77.46875 C 79.227786 77.468772 80.401711 77.768683 81.1875 78.34375 C 81.973269 78.918861 82.511091 79.843439 82.75 81.15625 L 88.3125 80.9375 C 88.224468 78.590691 87.316358 76.718296 85.5625 75.3125 C 83.808641 73.90675 81.188742 73.218776 77.71875 73.21875 z M 13.21875 73.65625 L 13.21875 99.1875 L 18.40625 99.1875 L 18.40625 79.09375 L 23.875 99.1875 L 29.25 99.1875 L 34.71875 79.09375 L 34.71875 99.1875 L 39.90625 99.1875 L 39.90625 73.65625 L 31.53125 73.65625 L 26.5625 91.0625 L 21.5625 73.65625 L 13.21875 73.65625 z M 51.53125 77.65625 L 51.53125 84.28125 L 44.28125 84.28125 L 44.28125 88.875 L 51.53125 88.875 L 51.53125 95.5 L 56.34375 95.5 L 56.34375 88.875 L 63.625 88.875 L 63.625 84.28125 L 56.34375 84.28125 L 56.34375 77.65625 L 51.53125 77.65625 z "
     id="path3865" />
  <g
     transform="matrix(0.19545769,0,0,0.1954644,-275.31849,1.0064212)"
     id="g3852" />
  <g
     id="g3916"
     transform="matrix(0.19538319,0,0,0.19588077,-275.2306,0.97450113)" />
  <g
     id="g3000"
     transform="matrix(0.09525181,0,0,0.08881719,-142.65438,-36.484605)"
     onmouseover="alert('wheel with rim + tire');">
    <g
       id="g3953"
       transform="translate(1375.7623,464.32613)" />
  </g>
</svg>
