<?xml version="1.0" encoding="UTF-8" standalone="no"?>
<svg
   xmlns:dc="http://purl.org/dc/elements/1.1/"
   xmlns:cc="http://creativecommons.org/ns#"
   xmlns:rdf="http://www.w3.org/1999/02/22-rdf-syntax-ns#"
   xmlns:svg="http://www.w3.org/2000/svg"
   xmlns="http://www.w3.org/2000/svg"
   xmlns:sodipodi="http://sodipodi.sourceforge.net/DTD/sodipodi-0.dtd"
   xmlns:inkscape="http://www.inkscape.org/namespaces/inkscape"
   version="1.1"
   viewBox="0 0 100 100"
   id="svg2"
   inkscape:version="0.48.4 r9939"
   width="100%"
   height="100%"
   sodipodi:docname="M+S-Tires_grey.svg">
  <metadata
     id="metadata51">
    <rdf:RDF>
      <cc:Work
         rdf:about="">
        <dc:format>image/svg+xml</dc:format>
        <dc:type
           rdf:resource="http://purl.org/dc/dcmitype/StillImage" />
        <dc:title>remember-me-active</dc:title>
      </cc:Work>
    </rdf:RDF>
  </metadata>
  <defs
     id="defs49" />
  <sodipodi:namedview
     pagecolor="#ffffff"
     bordercolor="#666666"
     borderopacity="1"
     objecttolerance="10"
     gridtolerance="10"
     guidetolerance="10"
     inkscape:pageopacity="0"
     inkscape:pageshadow="2"
     inkscape:window-width="1920"
     inkscape:window-height="1058"
     id="namedview47"
     showgrid="false"
     inkscape:zoom="5.6568543"
     inkscape:cx="47.624349"
     inkscape:cy="31.329915"
     inkscape:window-x="-8"
     inkscape:window-y="-8"
     inkscape:window-maximized="1"
     inkscape:current-layer="g3852"
     inkscape:snap-bbox="true"
     fit-margin-top="0"
     fit-margin-left="0"
     fit-margin-right="0"
     fit-margin-bottom="0"
     units="px"
     showguides="true"
     inkscape:guide-bbox="true" />
  <title
     id="title3003">remember-me-active</title>
  <g
     id="g3023"
     transform="matrix(0.19545769,0,0,0.1954644,8.2313352,31.412013)">
    <g
       id="g3852"
       transform="translate(-1450.6967,-155.55565)">
      <path
         style="fill:#000000;fill-opacity:1"
         d="m 1494.8696,357.5369 c 0,-0.44132 36.9076,-91.58257 41.4532,-102.36631 1.3944,-3.30806 7.8155,-19.14068 14.2691,-35.18362 l 11.7337,-29.16897 2.9297,2.81721 c 1.6113,1.54949 2.7093,3.17847 2.44,3.61999 -0.2693,0.44152 0.1382,0.73529 0.9057,0.65284 0.7674,-0.0825 7.1161,5.26325 14.1082,11.87935 6.9922,6.61611 13.0372,12.14231 13.4335,12.28046 0.3962,0.13816 7.8846,-19.05402 16.6409,-42.64927 8.7563,-23.59525 18.6183,-50.03601 21.9155,-58.75723 3.2973,-8.72124 9.0894,-24.222614 12.8713,-34.447499 13.2287,-35.765047 33.119,-88.5541276 33.8966,-89.9619926 0.4847,-0.8776676 1.5183,0.9951807 2.7055,4.9023106 9.0474,29.776634 44.2194,142.243551 44.8432,143.392031 0.5549,1.0216 6.1412,-4.37069 18.4097,-17.77054 9.6871,-10.58044 17.8997,-19.23359 18.2501,-19.22922 0.3504,0.004 7.3438,22.27222 15.5409,49.48409 8.1971,27.21188 16.0393,53.16695 17.4272,57.67793 1.3878,4.51098 8.688,28.62422 16.2225,53.58498 7.5344,24.96076 16.7447,55.34837 20.467,67.52802 l 6.768,22.14481 -173.6158,0 c -95.4886,0 -173.6157,-0.19322 -173.6157,-0.42937 z m 331.8928,-11.87332 c -0.7837,-2.31556 -29.4141,-97.35837 -30.5541,-101.4287 -1.0352,-3.69603 -23.2928,-77.1144 -31.1637,-102.79568 l -3.8544,-12.57607 -12.0093,12.69183 c -13.1428,13.88967 -14.904,15.19423 -20.5126,15.19423 -7.5449,0 -8.0683,-1.10369 -22.3015,-47.02356 -22.9664,-74.095546 -24.9283,-80.118928 -25.7776,-79.145826 -0.4586,0.52552 -2.0851,4.400241 -3.6142,8.610493 -1.5292,4.210247 -14.7616,39.641948 -29.4052,78.737123 -14.6437,39.09517 -29.7966,79.69399 -33.6731,90.21961 -7.8793,21.39436 -10.4347,25.15213 -17.1043,25.15213 -4.9345,0 -8.6229,-2.02344 -13.9602,-7.6585 -2.3744,-2.50695 -7.058,-6.97969 -10.408,-9.93944 l -6.0908,-5.38135 -4.9026,12.30982 c -6.3406,15.92055 -14.1824,35.28947 -33.0983,81.7516 -8.4481,20.75051 -15.7786,38.83542 -16.2901,40.18872 l -0.9299,2.46055 158.0562,0 c 125.9723,0 157.9624,-0.2775 157.5937,-1.36698 z m -166.5873,-26.57053 c -1.7793,-3.95674 -1.6761,-4.42381 2.525,-11.43105 4.8341,-8.06295 5.0339,-7.655 -3.7498,-7.655 -7.2709,0 -7.5844,-0.1117 -9.2005,-3.27826 -1.5219,-2.98193 -1.5131,-3.52562 0.096,-6.01464 1.6983,-2.62611 2.2173,-2.73638 12.8788,-2.73638 l 11.1093,0 6.575,-11.39768 c 3.6162,-6.26872 6.5744,-11.55887 6.5737,-11.75589 -7e-4,-0.19702 -5.8094,-0.35821 -12.9082,-0.35821 l -12.907,0 -5.7096,10.10029 c -5.2833,9.34617 -5.9623,10.10143 -9.0932,10.11554 -2.4155,0.0109 -3.8823,-0.75599 -5.1267,-2.68022 -2.3173,-3.58348 -2.2616,-3.97222 1.4949,-10.4274 1.7808,-3.06026 3.2378,-5.7885 3.2378,-6.06277 0,-0.27425 -3.764,-0.50177 -8.3645,-0.50556 -8.2116,-0.006 -8.3992,-0.0686 -10.2579,-3.37748 -1.7935,-3.19271 -1.7955,-3.53856 -0.037,-6.55451 1.7972,-3.08247 2.1241,-3.18395 10.258,-3.18395 9.6386,0 9.4222,0.28205 5.1638,-6.7303 -4.7935,-7.89337 -3.3234,-12.95399 3.7631,-12.95399 3.4017,0 3.9252,0.5206 7.9725,7.92839 7.002,12.81555 5.3844,11.87391 19.789,11.51947 l 12.6126,-0.31036 -6.1978,-10.93571 -6.1978,-10.93572 -11.5447,-0.3103 -11.5448,-0.3103 -1.6981,-3.32713 c -2.5595,-5.01506 0.023,-8.59424 6.2922,-8.71945 11.3987,-0.22771 11.2223,0.0192 6.1847,-8.65522 -4.0086,-6.90268 -4.0765,-7.19207 -2.3721,-10.11553 1.4113,-2.42072 2.5356,-3.00955 5.7462,-3.00955 3.7955,0 4.1865,0.35323 7.9604,7.19077 2.1828,3.95494 4.2888,6.87708 4.6799,6.49365 0.3911,-0.38342 2.1793,-3.21033 3.9738,-6.28203 3.9194,-6.70905 8.2564,-8.18557 11.4993,-3.91495 2.7919,3.67671 2.5227,4.8588 -3.406,14.95662 l -5.3715,9.14871 6.6019,11.44441 6.602,11.44444 3.9551,-6.92349 c 2.1752,-3.80793 5.0849,-8.96766 6.4658,-11.4661 l 2.5108,-4.5426 -5.6082,-9.92971 -5.6081,-9.92972 1.8988,-3.25696 c 3.3874,-5.81021 8.2674,-4.48781 12.5472,3.40004 1.9049,3.51084 3.7156,6.37991 4.0238,6.37571 0.3081,-0.004 2.2771,-3.07987 4.3755,-6.83482 3.6251,-6.48708 4.0183,-6.82719 7.8929,-6.82719 7.2749,0 8.3421,3.88769 3.4086,12.41683 -4.6667,8.06769 -4.5358,8.34561 3.9587,8.41073 8.0691,0.0619 10.94,3.14653 8.495,9.12751 l -1.3895,3.39885 -11.5113,0 -11.5113,0 -6.1662,10.90423 c -3.3913,5.99733 -6.1661,11.16445 -6.1661,11.4825 0,0.31805 5.7283,0.57827 12.7295,0.57827 l 12.7295,0 5.3816,-9.56875 c 5.0054,-8.89976 5.644,-9.59138 9.1341,-9.89234 3.1496,-0.27158 4.0447,0.17762 5.5711,2.79576 1.7778,3.04945 1.7356,3.27112 -1.8863,9.89234 l -3.7049,6.77299 8.5992,0 c 7.9354,0 8.7329,0.20686 10.3323,2.68015 1.8379,2.84215 1.6709,6.7713 -0.2714,6.3847 -0.6369,-0.12679 -1.0938,0.61137 -1.0152,1.64035 0.1453,1.90243 0.3044,1.87786 -15.2032,2.34545 -2.3283,0.0702 -2.2909,0.25139 1.3493,6.54462 3.7235,6.43718 3.7336,6.49094 1.8549,9.87502 -1.6086,2.89745 -2.4315,3.35714 -5.5431,3.09633 -3.3606,-0.28167 -4.0745,-1.05303 -8.8871,-9.60163 l -5.233,-9.29536 -12.971,-0.54678 c -7.134,-0.30073 -12.9699,-0.21652 -12.9686,0.18714 0,0.87032 10.4997,19.43412 12.1068,21.41088 0.7559,0.92977 4.6137,1.36697 12.0618,1.36697 10.6819,0 10.993,0.0709 12.681,2.88972 1.5893,2.65401 1.5877,3.14404 -0.02,6.00772 -1.6526,2.94387 -2.1573,3.11841 -9.0356,3.12493 -8.5247,0.008 -8.3312,-0.45795 -3.468,8.35336 4.7498,8.60572 3.5576,13.52497 -3.2778,13.52497 -3.448,0 -4.0198,-0.52394 -7.7573,-7.1082 -4.8351,-8.51798 -4.4024,-8.44918 -8.4787,-1.34782 -3.9618,6.90194 -9.9062,8.2531 -13.0696,2.97073 -1.5739,-2.62831 -1.4018,-3.18261 3.8456,-12.38894 3.0213,-5.30065 5.4932,-9.92381 5.4932,-10.27371 0,-1.11493 -12.2603,-22.15781 -12.8885,-22.12101 -0.3315,0.0195 -3.3584,5.06353 -6.7265,11.20911 -5.6491,10.30747 -6.0049,11.36123 -4.5898,13.59152 10.2991,16.23213 11.1191,23.28119 2.7082,23.28119 -3.6541,0 -4.2202,-0.45143 -7.2,-5.74126 -4.0744,-7.23294 -4.4152,-7.19201 -9.0411,1.08594 -3.5672,6.3835 -4.0669,6.82768 -7.6893,6.83482 -3.1079,0.007 -4.1218,-0.54326 -5.1266,-2.77774 z"
         id="path3854"
         inkscape:connector-curvature="0"
         sodipodi:nodetypes="ssscssssssssssssssssscssssscsssssssssscssscsscssscscscscscssscssssssscccccsssssscssscccsscccsscssssscccssscsssscssccssssscscsscscssssssscsssssccc" />
      <g
         transform="scale(0.97825451,1.0222289)"
         style="font-size:199.5272522px;font-style:normal;font-weight:normal;line-height:125%;letter-spacing:0px;word-spacing:0px;fill:#000000;fill-opacity:1;stroke:none;font-family:Sans"
         id="text3860">
        <path
           d="m 1531.1924,489.81732 0,-128.54309 38.8435,0 23.3237,87.68287 23.0606,-87.68287 38.9312,0 0,128.54309 -24.1128,0 0,-101.18603 -25.5157,101.18603 -24.9897,0 -25.428,-101.18603 0,101.18603 z"
           style="font-size:179.57452393000000000px;font-weight:bold;-inkscape-font-specification:Sans Bold;fill:#000000"
           id="path3865" />
        <path
           d="m 1709.364,471.31624 0,-33.40718 -33.6702,0 0,-23.06059 33.6702,0 0,-33.40718 22.4468,0 0,33.40718 33.7579,0 0,23.06059 -33.7579,0 0,33.40718 z"
           style="font-size:179.57452393000000000px;font-weight:bold;-inkscape-font-specification:Sans Bold;fill:#000000"
           id="path3867" />
        <path
           d="m 1779.598,447.99259 25.2527,-2.45512 c 1.5198,8.47605 4.6033,14.70153 9.2505,18.67645 4.6471,3.97498 10.9165,5.96246 18.808,5.96244 8.359,2e-5 14.6575,-1.76825 18.8956,-5.30482 4.238,-3.53651 6.357,-7.67221 6.357,-12.40712 0,-3.03963 -0.8915,-5.62628 -2.6743,-7.75994 -1.783,-2.13357 -4.8957,-3.98952 -9.3382,-5.56786 -3.0398,-1.05214 -9.9667,-2.92271 -20.7809,-5.6117 -13.9123,-3.4488 -23.6744,-7.6868 -29.286,-12.71402 -7.8915,-7.07301 -11.8372,-15.69515 -11.8372,-25.86645 0,-6.54688 1.8559,-12.67006 5.5678,-18.36956 3.7119,-5.69927 9.0606,-10.03956 16.046,-13.02091 6.9854,-2.98108 15.4175,-4.47169 25.2965,-4.47182 16.1336,1.3e-4 28.2777,3.53667 36.4322,10.60963 8.1545,7.07319 12.4363,16.51371 12.8456,28.32156 l -25.9541,1.13988 c -1.1108,-6.60534 -3.4928,-11.35483 -7.1462,-14.24847 -3.6535,-2.89342 -9.1337,-4.34019 -16.4405,-4.3403 -7.5408,1.1e-4 -13.4448,1.54917 -17.712,4.64719 -2.7474,1.98759 -4.1211,4.6473 -4.1211,7.97915 0,3.03976 1.286,5.64102 3.8581,7.80377 3.2734,2.74748 11.2233,5.61179 23.8497,8.59292 12.6263,2.9813 21.9645,6.06481 28.0147,9.25055 6.05,3.18587 10.7849,7.54079 14.2046,13.06474 3.4195,5.52408 5.1294,12.34872 5.1295,20.47396 -10e-5,7.36539 -2.0461,14.2631 -6.1378,20.69315 -4.092,6.43009 -9.8791,11.2088 -17.3612,14.33615 -7.4824,3.12736 -16.806,4.69103 -27.9709,4.69104 -16.2506,-1e-5 -28.7308,-3.75575 -37.4406,-11.26725 -8.7098,-7.51149 -13.9123,-18.45722 -15.6075,-32.83724 z"
           style="font-size:179.57452393000000000px;font-weight:bold;-inkscape-font-specification:Sans Bold;fill:#000000"
           id="path3869" />
      </g>
    </g>
  </g>
</svg>
