<?xml version="1.0" encoding="UTF-8" standalone="no"?>
<!-- Created with Inkscape (http://www.inkscape.org/) -->

<svg
   xmlns:dc="http://purl.org/dc/elements/1.1/"
   xmlns:cc="http://creativecommons.org/ns#"
   xmlns:rdf="http://www.w3.org/1999/02/22-rdf-syntax-ns#"
   xmlns:svg="http://www.w3.org/2000/svg"
   xmlns="http://www.w3.org/2000/svg"
   xmlns:sodipodi="http://sodipodi.sourceforge.net/DTD/sodipodi-0.dtd"
   xmlns:inkscape="http://www.inkscape.org/namespaces/inkscape"
   id="svg2"
   version="1.1"
   inkscape:version="0.48.4 r9939"
   width="100"
   height="100"
   sodipodi:docname="varnish.svg">
  <metadata
     id="metadata8">
    <rdf:RDF>
      <cc:Work
         rdf:about="">
        <dc:format>image/svg+xml</dc:format>
        <dc:type
           rdf:resource="http://purl.org/dc/dcmitype/StillImage" />
        <dc:title></dc:title>
      </cc:Work>
    </rdf:RDF>
  </metadata>
  <defs
     id="defs6" />
  <sodipodi:namedview
     pagecolor="#ffffff"
     bordercolor="#666666"
     borderopacity="1"
     objecttolerance="10"
     gridtolerance="10"
     guidetolerance="10"
     inkscape:pageopacity="0"
     inkscape:pageshadow="2"
     inkscape:window-width="1920"
     inkscape:window-height="1058"
     id="namedview4"
     showgrid="false"
     inkscape:zoom="0.57943472"
     inkscape:cx="-856.98935"
     inkscape:cy="119.2696"
     inkscape:window-x="-8"
     inkscape:window-y="-8"
     inkscape:window-maximized="1"
     inkscape:current-layer="svg2" />
  <path
     style="fill:#000000"
     d="m 33.237009,88.287438 c -0.494452,-0.494439 -0.899,-7.199623 -0.899,-14.9004 0,-21.030788 3.868397,-26.003912 20.227409,-26.003912 15.78783,0 20.227409,5.569995 20.227409,25.377766 0,6.687721 -0.368328,13.119349 -0.818522,14.292512 -0.691373,1.801696 -3.693782,2.133034 -19.328409,2.133034 -10.180442,0 -18.914448,-0.404548 -19.408887,-0.899 z M 66.050357,70.98177 c 0,-11.012705 -0.378522,-13.189215 -2.696988,-15.50768 -3.548143,-3.548158 -5.972493,-3.600668 -4.092921,-0.0886 0.767765,1.434581 1.395933,8.008489 1.395933,14.608679 0,12.214159 0.412855,13.798343 3.595989,13.798343 1.372146,0 1.797987,-3.034111 1.797987,-12.810692 z M 4.4737685,68.316242 C -0.96718876,64.50525 -0.73477583,59.939398 5.5289515,47.586047 12.92687,32.995828 15.661346,31.213025 30.652391,31.206242 44.624002,31.1995 45.605355,28.33426 32.879807,24.702011 26.197237,22.79462 19.199619,16.830312 21.244812,14.785119 c 0.954397,-0.954397 2.655266,-0.454618 5.427014,1.594621 2.220336,1.641562 6.898194,3.307168 10.395243,3.701333 5.489989,0.618797 6.844227,1.420018 9.916932,5.867216 1.957272,2.832808 4.072385,5.173578 4.700243,5.201734 0.627859,0.02818 3.890149,-2.368225 7.249517,-5.325256 7.223801,-6.358648 17.179112,-11.266923 27.073255,-13.34796 10.51151,-2.210896 13.75569,-1.97321 13.75569,1.007811 0,1.960845 -1.608511,2.83386 -7.343332,3.985568 -8.823681,1.772056 -19.140415,6.808613 -25.644983,12.519701 -3.702183,3.250558 -4.769516,5.212617 -4.769516,8.767719 l 0,4.580038 -9.439457,0 c -8.540457,0 -9.439458,-0.256861 -9.439458,-2.696988 0,-3.618252 -5.804444,-3.635013 -9.412272,-0.02724 -1.468388,1.468388 -5.406395,8.118688 -8.751132,14.778455 -3.344723,6.659753 -7.261411,12.740207 -8.703746,13.512125 -3.699175,1.979737 -8.4582395,1.742375 -11.7850415,-0.587809 z M 19.426098,51.341589 c 3.544692,-6.722916 6.045096,-12.623265 5.55647,-13.111905 -2.212973,-2.21296 -8.490415,3.77465 -13.069131,12.465734 -5.023882,9.536077 -5.3466306,12.869635 -1.246009,12.869635 1.541855,0 4.463893,-4.077967 8.75867,-12.223464 z"
     id="path3083"
     inkscape:connector-curvature="0" />
</svg>
