<?xml version="1.0" encoding="UTF-8" standalone="no"?>
<svg
   xmlns:dc="http://purl.org/dc/elements/1.1/"
   xmlns:cc="http://creativecommons.org/ns#"
   xmlns:rdf="http://www.w3.org/1999/02/22-rdf-syntax-ns#"
   xmlns:svg="http://www.w3.org/2000/svg"
   xmlns="http://www.w3.org/2000/svg"
   xmlns:sodipodi="http://sodipodi.sourceforge.net/DTD/sodipodi-0.dtd"
   xmlns:inkscape="http://www.inkscape.org/namespaces/inkscape"
   version="1.1"
   viewBox="0 0 110 100"
   id="svg2"
   inkscape:version="0.48.4 r9939"
   width="100%"
   height="100%"
   sodipodi:docname="open.svg">
  <metadata
     id="metadata51">
    <rdf:RDF>
      <cc:Work
         rdf:about="">
        <dc:format>image/svg+xml</dc:format>
        <dc:type
           rdf:resource="http://purl.org/dc/dcmitype/StillImage" />
        <dc:title>remember-me-active</dc:title>
      </cc:Work>
    </rdf:RDF>
  </metadata>
  <defs
     id="defs49" />
  <sodipodi:namedview
     pagecolor="#ffffff"
     bordercolor="#666666"
     borderopacity="1"
     objecttolerance="10"
     gridtolerance="10"
     guidetolerance="10"
     inkscape:pageopacity="0"
     inkscape:pageshadow="2"
     inkscape:window-width="1920"
     inkscape:window-height="1018"
     id="namedview47"
     showgrid="false"
     inkscape:zoom="2"
     inkscape:cx="297.51345"
     inkscape:cy="-113.92844"
     inkscape:window-x="1912"
     inkscape:window-y="-8"
     inkscape:window-maximized="1"
     inkscape:current-layer="svg2"
     inkscape:snap-bbox="true"
     fit-margin-top="0"
     fit-margin-left="0"
     fit-margin-right="0"
     fit-margin-bottom="0"
     units="px"
     showguides="true"
     inkscape:guide-bbox="true" />
  <title
     id="title3003">remember-me-active</title>
  <g
     id="g3023"
     transform="matrix(0.19545769,0,0,0.1954644,8.2313352,31.412013)" />
  <path
     style="fill:#000000"
     d="M 4.589591,73.786652 C 2.854166,72.91945 2.182011,72.195647 1.29307,70.236818 0.781139,69.108748 0.76165,68.353043 0.755917,49.409322 l -0.006,-19.656955 0.830886,-1.66275 c 0.867202,-1.735421 1.591005,-2.407576 3.549834,-3.296517 1.062608,-0.482225 1.80101,-0.531754 8.00807,-0.537154 4.381789,-0.0039 6.837529,0.09131 6.837529,0.264847 0,0.148936 0.243713,0.270793 0.541586,0.270793 0.297873,0 0.541586,-0.122098 0.541586,-0.271329 0,-0.178989 7.178111,-0.268662 21.0917,-0.263496 l 21.091695,0.0078 0.12769,0.667967 c 0.07206,0.376943 -0.03277,0.801142 -0.240621,0.973634 -0.477484,0.396278 -0.471075,0.780943 0.01302,0.780943 0.209727,0 0.727619,-0.54814 1.150871,-1.218085 l 0.769546,-1.218084 2.150404,-5.42e-4 c 1.92665,-5.42e-4 2.095709,0.03967 1.624759,0.385477 -0.506846,0.372156 -0.498254,0.396417 0.240253,0.678345 0.673872,0.257256 0.744495,0.389833 0.587768,1.103404 -0.1662,0.756705 -0.125039,0.811014 0.61464,0.811014 0.662198,0 0.872757,-0.177377 1.278408,-1.07695 0.395897,-0.877943 0.422388,-1.153159 0.143365,-1.489363 C 71.397049,24.293831 73.102851,24.25 87.753159,24.25 l 16.392491,0 1.68967,0.880078 c 1.72563,0.898798 1.86471,1.04582 2.42722,2.56573 0.17775,0.480301 0.55338,1.138697 0.83474,1.463099 0.47811,0.551275 0.51155,1.144632 0.51155,9.078378 0,8.250069 -0.015,8.488552 -0.53071,8.488552 -0.38657,0 -0.62093,0.301056 -0.8628,1.108378 -0.37151,1.239998 -0.16133,1.832482 0.80638,2.273052 0.58585,0.266725 0.58713,0.287718 0.58713,9.637606 l 0,9.370298 -0.83088,1.662749 c -0.86721,1.735421 -1.591,2.407577 -3.54983,3.296517 -1.04256,0.473122 -1.79383,0.531857 -6.870748,0.537154 -4.143796,0.0044 -5.790769,-0.08463 -6.031907,-0.325764 -0.261751,-0.261752 -0.443733,-0.261752 -0.862864,0 -0.720846,0.450175 -0.753282,0.431565 -0.604481,-0.34683 0.154788,-0.809723 -0.351354,-1.518489 -0.926714,-1.297701 -0.287845,0.110455 -0.379614,0.431128 -0.30537,1.067075 l 0.10614,0.909166 -34.721553,0 -34.721552,0 -0.304891,-0.92383 c -0.309157,-0.93676 -0.71637,-1.242515 -1.65481,-1.242515 -0.558676,0 -0.664031,0.435251 -0.259988,1.07409 0.607348,0.960289 -0.126204,1.092255 -6.071409,1.092255 l -5.745644,0 -1.662749,-0.830885 z m 44.036378,-0.880799 c 0.447345,-1.23711 0.410122,-1.647827 -0.19933,-2.199374 -0.629814,-0.569974 -1.100236,-0.351494 -1.100236,0.510982 0,0.370842 -0.274811,0.80992 -0.668278,1.067729 -1.069792,0.700954 -0.553549,1.3269 1.223163,1.483092 0.246644,0.02169 0.553483,-0.333673 0.744681,-0.862429 z m 3.022329,0.506124 c 0.457979,-0.551833 0.237588,-1.366975 -0.36959,-1.366975 -0.739761,0 -1.169114,0.792075 -0.721625,1.331268 0.440934,0.531294 0.673595,0.538906 1.091215,0.0357 z m 22.420291,0.05469 c -0.133859,-0.406456 -1.287624,-0.625533 -1.287624,-0.244495 0,0.284862 0.446814,0.526602 1.038039,0.561607 0.198584,0.01175 0.310895,-0.130943 0.249585,-0.317112 z m 2.618781,-0.925361 c 0.132045,-0.3441 0.248418,-0.376299 0.489321,-0.135396 0.378209,0.378208 1.290932,0.421521 1.290932,0.06127 0,-0.364258 -0.568501,-0.665886 -1.255038,-0.665886 -0.618489,0 -1.452895,0.547804 -1.452895,0.953853 0,0.423789 0.749279,0.251077 0.92768,-0.213835 z m 2.891533,-0.170324 c -0.34756,-0.34756 -0.700014,-0.07894 -0.442703,0.337404 0.09968,0.161274 0.305278,0.216556 0.456901,0.122848 0.184952,-0.114307 0.180281,-0.265773 -0.01418,-0.460252 z m 14.323933,-0.190583 c 0,-0.297873 -0.162477,-0.541587 -0.361057,-0.541587 -0.50933,0 -0.709035,0.260593 -0.53909,0.703459 0.22103,0.575993 0.900147,0.453868 0.900147,-0.161872 z M 24.257875,71.027207 c 0.05937,-0.308317 -0.164312,-0.566874 -0.650271,-0.751635 -0.954232,-0.362798 -1.306651,-0.0011 -0.759692,0.779875 0.486066,0.693957 1.27392,0.678175 1.409963,-0.02824 z m 30.226919,0.347514 c 0.797595,-0.303245 0.908872,-0.943059 0.230085,-1.322925 -0.368097,-0.205998 -0.564845,-0.09501 -0.947777,0.534673 -0.711706,1.170309 -0.602544,1.290205 0.717692,0.788252 z m 17.754584,-0.0067 c 0,-0.148936 -0.121856,-0.270793 -0.270793,-0.270793 -0.148936,0 -0.270793,0.121857 -0.270793,0.270793 0,0.148936 0.121857,0.270793 0.270793,0.270793 0.148937,0 0.270793,-0.121857 0.270793,-0.270793 z m 2.166346,-0.541586 c 0.297872,-0.297873 0.541586,-0.724373 0.541586,-0.947777 0,-0.480441 -0.130646,-0.500247 -0.830181,-0.12587 -0.361057,0.193232 -0.523785,0.193232 -0.523785,0 0,-0.365124 -0.729129,-0.363305 -0.955136,0.0024 -0.201253,0.325637 0.56602,1.61285 0.961378,1.61285 0.145503,0 0.508265,-0.243714 0.806138,-0.541586 z m 3.249519,0 c 0,-0.571126 -0.393972,-0.728716 -0.676983,-0.270794 -0.197463,0.319501 0.05867,0.81238 0.422171,0.81238 0.140147,0 0.254812,-0.243714 0.254812,-0.541586 z m 2.085873,-0.676984 c 0.02678,-0.944973 -0.252974,-1.157441 -0.945496,-0.718068 -0.260296,0.165147 -0.279204,0.404955 -0.0744,0.943631 0.398218,1.047385 0.987512,0.917057 1.019898,-0.225563 z M 51.881022,69.967566 c -0.107285,-0.729114 -0.638164,-0.941551 -0.866426,-0.34671 -0.212088,0.552695 0.01024,0.934784 0.543917,0.934784 0.265855,0 0.378751,-0.205858 0.322509,-0.588074 z M 15.522707,69.743259 c 0.343087,0 0.804542,-0.180751 1.025463,-0.401669 0.351572,-0.351574 5.70589,-0.40238 42.929869,-0.40735 30.481332,-0.0041 42.714401,-0.09052 43.185511,-0.305173 0.36153,-0.164723 0.79262,-0.596435 0.95798,-0.959358 0.21034,-0.461634 0.30065,-5.864462 0.30065,-17.984841 l 0,-17.324979 0.79893,0.413143 c 1.02066,0.527803 1.53799,0.523297 1.74463,-0.01519 0.29365,-0.765231 0.19066,-0.891388 -1.85435,-2.271343 -2.06084,-1.390649 -3.66793,-1.813437 -3.66793,-0.964949 0,0.346287 -3.301242,0.398851 -25.725357,0.409594 l -25.725355,0.01232 0,-0.786812 c 0,-0.467665 -0.17374,-0.853484 -0.428337,-0.95118 -0.653911,-0.25093 -0.729019,-0.206504 -0.584594,0.345781 0.07784,0.297681 -0.07946,0.692419 -0.377703,0.947777 -0.459357,0.393313 -2.306744,0.437626 -18.244969,0.437626 -14.001996,0 -17.73566,-0.07123 -17.742417,-0.338491 -0.01316,-0.521151 -1.311922,-1.880514 -1.616698,-1.692152 -0.148663,0.09188 -0.270298,0.586364 -0.270298,1.098851 0,0.88196 -0.05001,0.931795 -0.935035,0.931795 -1.433844,0 -2.238723,0.499215 -2.712015,1.682088 -0.484341,1.210481 -1.023826,1.234929 -1.229886,0.05573 -0.125513,-0.718255 -0.282099,-0.820741 -1.062265,-0.695262 -0.461099,0.07416 -0.591821,1.082529 -0.287063,2.21432 0.226522,0.84123 0.221796,1.212376 -0.01914,1.502677 -0.260148,0.31346 -0.209537,0.38552 0.270772,0.38552 0.3249,0 0.515414,-0.121857 0.423366,-0.270793 -0.21,-0.339785 -0.13827,-0.33802 0.894528,0.02202 l 0.839949,0.292806 0.01294,10.978366 c 0.01156,9.807481 -0.03108,10.941812 -0.399894,10.635721 -0.470856,-0.390774 -0.534698,-0.353415 -0.784093,0.458846 -0.145367,0.473447 -0.05959,0.606173 0.437483,0.676982 0.816403,0.116295 0.962607,0.919501 0.203509,1.118011 -0.619905,0.162107 -0.491138,0.73022 0.165511,0.73022 0.320411,0 0.390208,0.651616 0.390208,3.642968 0,2.09311 0.127909,3.923697 0.300654,4.302831 0.445966,0.978788 1.351615,1.261171 4.044779,1.261171 2.291405,0 2.424397,0.03156 2.424397,0.575436 0,0.500065 0.110839,0.553268 0.84623,0.406189 0.465425,-0.09308 1.126935,-0.169246 1.470019,-0.169246 z m 21.513554,-14.622833 0,-10.560936 2.572535,0 c 2.56351,0 2.572536,0.0024 2.572536,0.676984 0,0.37234 0.05283,0.676983 0.117403,0.676983 0.06457,0 0.754491,-0.396035 1.533152,-0.880078 1.315939,-0.818031 1.58284,-0.880078 3.785773,-0.880078 2.202683,0 2.452688,0.0581 3.540824,0.82287 0.779254,0.54768 1.440853,1.350915 1.978307,2.40182 0.695684,1.360303 0.82218,1.944314 0.913478,4.217388 0.07622,1.89771 -0.01715,3.06194 -0.332556,4.146927 -0.502706,1.72925 -2.027109,3.882858 -2.669501,3.77135 -0.237187,-0.04117 -0.50601,0.160689 -0.59738,0.448574 -0.391324,1.232949 -4.726301,1.85585 -6.821905,0.98025 -0.534683,-0.223405 -1.079124,-0.40619 -1.209871,-0.40619 -0.13075,0 -0.237724,1.157641 -0.237724,2.572536 l 0,2.572535 -2.572536,0 -2.572535,0 0,-10.560935 z m 11.120323,4.052372 c 0.715341,-0.382839 0.701025,-1.183161 -0.01779,-0.995184 -0.40172,0.105051 -0.541587,0.0083 -0.541587,-0.374607 0,-0.612426 -0.686393,-0.693548 -0.911208,-0.107694 -0.198812,0.518094 0.260676,1.757804 0.651514,1.757804 0.162414,0 0.531001,-0.126143 0.819082,-0.280319 z m -1.340583,-2.316479 c 2.171813,-1.098134 2.32365,-7.119584 0.208078,-8.251806 -0.765823,-0.409853 -2.596098,-0.411792 -3.831551,-0.0041 l -1.011196,0.333732 0,4.159949 0,4.159947 1.015474,0.105222 c 1.330172,0.137828 2.739093,-0.05798 3.619195,-0.502982 z m 4.286467,0.313178 c 0.252862,-0.304678 0.2242,-0.53743 -0.133385,-1.083173 -0.250497,-0.382306 -0.502365,-0.695104 -0.559702,-0.695104 -0.05734,0 -0.104253,0.487427 -0.104253,1.083172 0,1.131211 0.252626,1.351445 0.79734,0.695105 z m -30.529092,3.666229 c -1.900283,-0.656368 -3.200513,-1.75082 -4.224233,-3.555691 -0.806029,-1.421069 -0.840942,-1.611919 -0.840942,-4.596748 0,-3.356636 0.274876,-4.252796 1.89504,-6.17825 0.738328,-0.877454 3.048363,-2.125447 4.197807,-2.26786 0.607438,-0.07526 0.67031,0.0037 0.612039,0.768289 -0.03983,0.52268 0.07902,0.907406 0.307404,0.995046 0.583735,0.224 1.517696,-0.588906 1.517696,-1.320979 0,-0.599503 0.109804,-0.661629 1.16942,-0.661629 2.949694,0 5.645573,1.550592 7.062076,4.061899 0.804532,1.426348 0.840077,1.621119 0.840077,4.603484 0,2.982365 -0.03554,3.177136 -0.840077,4.603485 -1.008044,1.787154 -2.612737,3.087866 -4.50149,3.648765 -1.913709,0.568311 -5.400546,0.519939 -7.194817,-0.09981 z m 2.110845,-1.54057 c 0,-0.478202 -0.582953,-0.394923 -0.750322,0.107188 -0.05896,0.17686 0.08575,0.321566 0.321567,0.321566 0.235814,0 0.428755,-0.19294 0.428755,-0.428754 z m 2.166345,0.157961 c 0,-0.148936 -0.175593,-0.270793 -0.390207,-0.270793 -0.214614,0 -0.465521,0.121857 -0.557569,0.270793 -0.09204,0.148937 0.08355,0.270793 0.390207,0.270793 0.306663,0 0.557569,-0.121856 0.557569,-0.270793 z m -3.773303,-0.821905 c 0.288081,-0.154177 0.523785,-0.519748 0.523785,-0.81238 0,-0.563247 -0.395916,-0.716042 -0.676984,-0.261267 -0.09205,0.148936 -0.404914,0.270793 -0.695258,0.270793 -0.460113,0 -0.484468,0.06955 -0.189675,0.541587 0.39437,0.631486 0.361721,0.623271 1.038132,0.261267 z M 23.4966,58.083169 c 0,-0.157726 -0.121857,-0.211462 -0.270793,-0.119414 -0.148936,0.09205 -0.270793,0.221098 -0.270793,0.286776 0,0.06568 0.121857,0.119414 0.270793,0.119414 0.148936,0 0.270793,-0.129049 0.270793,-0.286776 z m 2.634599,-0.966561 c 1.060743,-0.661634 1.507955,-1.932234 1.511733,-4.295062 0.0057,-3.598346 -1.043843,-5.116562 -3.511468,-5.079258 -1.921543,0.02905 -2.756843,1.072193 -3.19758,3.993223 -0.209873,1.390962 0.259741,3.868666 0.898193,4.738881 0.921339,1.255798 2.85284,1.544331 4.299122,0.642216 z m 37.015184,3.932627 c -0.753306,-0.211097 -0.821644,-0.319027 -0.707867,-1.11798 0.124222,-0.872279 0.118421,-0.877631 -0.425581,-0.3928 -0.374342,0.333626 -0.610972,0.395331 -0.736587,0.192082 -0.101789,-0.164699 -0.430724,-0.221481 -0.730972,-0.126187 -0.679081,0.215533 -2.17807,-1.146603 -2.997423,-2.723768 -1.101324,-2.119929 -0.865534,-8.592605 0.295541,-8.112892 1.073194,0.443405 1.303016,0.412541 1.588156,-0.213273 0.189441,-0.415785 0.203022,-0.806791 0.03824,-1.101238 -0.316776,-0.566047 -0.770174,-0.595694 -0.770174,-0.05036 0,0.223405 -0.121856,0.406191 -0.270793,0.406191 -0.502189,0 -0.275929,-0.426752 0.744682,-1.40457 1.401958,-1.343175 2.697934,-1.975745 3.197824,-1.560874 0.486905,0.404097 1.202566,0.141243 1.202566,-0.441685 0,-0.391669 0.334854,-0.431869 2.77563,-0.33321 2.964284,0.119817 3.987149,0.459728 5.440663,1.808002 1.353368,1.255378 1.888163,2.645137 2.02008,5.249553 l 0.120016,2.369441 -5.962058,0 -5.962056,0 0.215489,0.955453 c 0.118521,0.525499 0.379865,1.158175 0.580768,1.405947 0.256066,0.315805 0.264074,0.389694 0.02678,0.247135 -0.473688,-0.284583 -0.422678,0.26076 0.09884,1.0567 0.500423,0.763745 0.916633,0.869218 0.916633,0.232294 0,-0.312246 0.133852,-0.377079 0.473887,-0.229529 0.260639,0.1131 0.883453,0.262905 1.38403,0.332901 0.59265,0.08288 0.789045,0.202113 0.562998,0.341815 -0.274506,0.169657 -0.251161,0.361035 0.111575,0.914642 0.252295,0.385052 0.638696,0.700092 0.858667,0.700092 0.488995,0 0.514125,-0.317509 0.06146,-0.77645 -0.449723,-0.455954 0.411725,-1.119102 1.453745,-1.119102 0.40752,0 1.559192,-0.426499 2.559272,-0.947777 1.00008,-0.521276 1.922863,-0.947775 2.050625,-0.947775 0.127766,0 0.2323,1.01353 0.2323,2.25229 l 0,2.252289 -1.557061,0.51718 c -1.708978,0.56764 -7.342049,0.799217 -8.8899,0.365463 z m 3.270942,-0.242152 c -0.09205,-0.148936 -0.282026,-0.270793 -0.422173,-0.270793 -0.140146,0 -0.254811,0.121857 -0.254811,0.270793 0,0.148937 0.189978,0.270793 0.422173,0.270793 0.232194,0 0.346858,-0.121856 0.254811,-0.270793 z m 1.489362,0.01598 c 0,-0.367536 -0.477822,-0.609022 -0.650911,-0.328962 -0.161839,0.261868 0.07265,0.583778 0.425251,0.583778 0.124113,0 0.22566,-0.114664 0.22566,-0.254811 z m -2.437139,-1.234546 c 0,-0.223405 -0.178961,-0.40619 -0.397692,-0.40619 -0.242249,0 -0.336766,0.158764 -0.241821,0.40619 0.08573,0.223404 0.264689,0.40619 0.397692,0.40619 0.133,0 0.241821,-0.182786 0.241821,-0.40619 z m 2.962992,-9.938809 c -0.327177,-1.1408 -0.782422,-1.562656 -1.977112,-1.8321 -1.928506,-0.434951 -4.021875,0.558673 -4.305764,2.04374 l -0.125326,0.655596 3.328463,0 3.32846,0 -0.248721,-0.867236 z m -6.153838,-1.890341 c -0.413642,-0.413641 -0.718858,-0.108422 -0.48944,0.489438 0.135462,0.353001 0.252899,0.387979 0.493803,0.147076 0.240906,-0.240906 0.239866,-0.392285 -0.0044,-0.636514 z m 1.024501,-1.033527 c 0,-0.148936 -0.121857,-0.270793 -0.270794,-0.270793 -0.148936,0 -0.270793,0.121857 -0.270793,0.270793 0,0.148936 0.121857,0.270793 0.270793,0.270793 0.148937,0 0.270794,-0.121857 0.270794,-0.270793 z m -1.353966,-0.661001 c 0,-0.214615 -0.113438,-0.460316 -0.252082,-0.546004 -0.321943,-0.198973 -0.645737,0.308101 -0.424902,0.665418 0.249011,0.402905 0.676984,0.327414 0.676984,-0.119414 z m 2.707931,-0.151379 c 0,-0.148936 -0.182785,-0.270793 -0.40619,-0.270793 -0.223404,0 -0.406189,0.121857 -0.406189,0.270793 0,0.148937 0.182785,0.270793 0.406189,0.270793 0.223405,0 0.40619,-0.121856 0.40619,-0.270793 z m 12.998075,6.76983 0,-8.123797 2.572535,0 c 2.56351,0 2.572535,0.0024 2.572535,0.676984 0,0.37234 0.05283,0.676983 0.117403,0.676983 0.06457,0 0.749415,-0.392878 1.521868,-0.873061 2.306674,-1.433907 5.812249,-1.378279 7.720196,0.122512 1.489501,1.171643 1.730561,2.266244 1.737108,7.887843 0.0052,4.413783 -0.04877,5.085348 -0.397483,4.951535 -0.452444,-0.173622 -0.845863,0.898135 -0.582048,1.585622 0.231246,0.602623 0.660367,0.493235 0.794371,-0.202489 0.07265,-0.377169 0.131402,-0.222424 0.154231,0.406191 l 0.03687,1.015473 -2.572536,0 -2.572536,0 0,-1.608777 c 0,-0.884827 0.121857,-1.68409 0.270794,-1.776138 0.148936,-0.09204 0.270793,-0.350143 0.270793,-0.573548 0,-0.223404 -0.10327,-0.342366 -0.229487,-0.264359 -0.126219,0.078 -0.306654,-1.380704 -0.400968,-3.241582 -0.09431,-1.860877 -0.297759,-3.619367 -0.4521,-3.907756 -0.566522,-1.058556 -3.104815,-1.219266 -4.81357,-0.30477 -0.593922,0.317859 -0.602913,0.407324 -0.602913,5.999799 l 0,5.677131 -2.572535,0 -2.572535,0 0,-8.123796 z m 12.456487,7.160038 c 0,-0.446828 -0.427972,-0.522319 -0.676983,-0.119415 -0.220834,0.357318 0.102958,0.864392 0.424902,0.665418 0.138643,-0.08569 0.252081,-0.331388 0.252081,-0.546003 z m 1.624759,0.422172 c 0,-0.148936 -0.121857,-0.270793 -0.270793,-0.270793 -0.148936,0 -0.270793,0.121857 -0.270793,0.270793 0,0.148936 0.121857,0.270793 0.270793,0.270793 0.148936,0 0.270793,-0.121857 0.270793,-0.270793 z m 0.0946,-1.480689 c 0.199769,-0.520598 -0.36019,-0.861434 -0.648594,-0.394787 -0.238352,0.385661 -0.09967,0.792303 0.270211,0.792303 0.124213,0 0.294483,-0.178883 0.378383,-0.397516 z m 0.389427,-3.011177 c 0.166145,-0.08886 -0.583738,-1.465584 -0.798288,-1.465584 -0.125027,0 -0.227325,0.502348 -0.227325,1.116329 0,1.020822 0.04054,1.085298 0.473888,0.753609 0.260639,-0.199496 0.508916,-0.381456 0.551725,-0.404354 z M 5.697587,34.376537 c 0.08999,-0.08998 0.323544,-0.0996 0.519021,-0.02137 0.21602,0.08644 0.151856,0.15061 -0.163605,0.163603 -0.285459,0.01175 -0.445398,-0.05224 -0.355416,-0.142226 z m 70.603689,35.095929 c 0,-0.148936 -0.121857,-0.270793 -0.270793,-0.270793 -0.148936,0 -0.270793,0.121857 -0.270793,0.270793 0,0.148936 0.121857,0.270793 0.270793,0.270793 0.148936,0 0.270793,-0.121857 0.270793,-0.270793 z M 5.353455,62.712163 c 0,-0.526964 -0.186985,-0.902923 -0.544145,-1.09407 -0.460958,-0.246698 -0.582477,-0.190397 -0.794881,0.368262 -0.137905,0.362718 -0.402042,0.709918 -0.586972,0.771561 -0.643711,0.214571 0.06872,0.7571 0.994204,0.7571 0.852341,0 0.931794,-0.06846 0.931794,-0.802853 z m -1.624759,-3.22589 c 0,-0.130698 -0.174629,-0.382565 -0.388069,-0.559702 C 3.03595,58.67371 2.803198,58.70237 2.257454,59.059955 1.875149,59.310453 1.56235,59.56232 1.56235,59.619658 c 0,0.05734 0.487428,0.104252 1.083173,0.104252 0.595745,0 1.083173,-0.106935 1.083173,-0.237637 z M 108.11948,52.25824 c 0,-0.283421 -0.21325,-0.55638 -0.47389,-0.606575 -0.47657,-0.09178 -0.68606,0.729182 -0.28772,1.127529 0.31992,0.319921 0.76161,0.0178 0.76161,-0.520954 z m -2.03095,-1.454523 c 0,-0.289082 -0.13248,-0.607478 -0.29438,-0.707547 -0.41408,-0.255908 -0.89328,0.29947 -0.69785,0.808759 0.23212,0.604903 0.99223,0.52737 0.99223,-0.101213 z m 0.14303,-2.461551 c 0.47372,-0.523462 0.47491,-0.572484 0.0245,-1.015475 -0.44792,-0.44054 -0.50154,-0.430964 -1.00146,0.178865 -0.40559,0.494774 -0.45669,0.730464 -0.22016,1.015475 0.4139,0.498713 0.61051,0.469339 1.19712,-0.178865 z M 4.212332,47.488992 c 1.127242,-1.466674 1.114604,-1.846328 -0.06147,-1.846328 -1.093257,0 -1.109624,0.0205 -1.352038,1.692457 -0.240559,1.659175 0.218187,1.709114 1.413503,0.153871 z m 102.611788,-4.362414 0.60019,-0.539965 -0.53249,-0.747822 c -0.29287,-0.4113 -0.5325,-0.951194 -0.5325,-1.19976 0,-0.284214 -0.17587,-0.418509 -0.47388,-0.361853 -0.36815,0.06999 -0.49243,0.414641 -0.55698,1.544639 -0.13364,2.339987 0.10935,2.551959 1.49566,1.304761 z M 5.135542,40.853119 c 0.873609,-0.83697 1.0272,-2.090409 0.290778,-2.373 -0.257798,-0.09892 -0.512392,-0.04886 -0.565766,0.11126 -0.195799,0.587402 -0.916854,1.093834 -1.557391,1.093834 -0.814741,0 -0.839101,0.448922 -0.06885,1.268815 0.750904,0.799298 0.973976,0.787459 1.901231,-0.100908 z m -0.05288,-4.29801 c 0,-0.06568 -0.121857,-0.119415 -0.270793,-0.119415 -0.148936,0 -0.270793,0.12905 -0.270793,0.286776 0,0.157726 0.121857,0.211463 0.270793,0.119414 0.148936,-0.09204 0.270793,-0.221097 0.270793,-0.286775 z M 2.645524,33.847177 c 0,-0.06568 -0.121857,-0.119415 -0.270794,-0.119415 -0.148936,0 -0.270793,0.12905 -0.270793,0.286776 0,0.157726 0.121857,0.211462 0.270793,0.119415 0.148937,-0.09205 0.270794,-0.221098 0.270794,-0.286776 z M 7.27199,29.095893 c -0.238555,-0.596376 -0.260828,-0.603176 -0.276609,-0.08444 -0.0095,0.310285 0.06407,0.645392 0.163363,0.74468 0.323428,0.323431 0.378437,0.0027 0.113246,-0.660234 z m 27.738963,0.119455 c 0.891181,-0.89118 -0.109541,-3.069796 -1.410074,-3.069796 -0.913275,0 -1.123989,0.774461 -0.366229,1.346041 0.46684,0.352139 0.568217,0.613706 0.419481,1.08233 -0.128825,0.405884 -0.07003,0.69788 0.171333,0.850808 0.518564,0.328578 0.675194,0.300913 1.185489,-0.209383 z m 58.62109,0.110238 c 0,-0.03822 0.109553,-0.451473 0.243449,-0.918341 l 0.243448,-0.848856 -1.123527,0.14322 c -0.617938,0.07877 -1.174778,0.18786 -1.237424,0.242425 -0.197135,0.171707 1.138648,1.451037 1.515066,1.451037 0.197444,0 0.358988,-0.03127 0.358988,-0.06949 z m -72.62674,-0.52626 c 0.307759,-0.30776 0.463081,-1.299808 0.203506,-1.299808 -0.300526,0 -1.475717,1.291297 -1.318381,1.448636 0.273269,0.273265 0.757412,0.208635 1.114875,-0.148828 z m 63.893658,-1.075775 c 0.484043,-0.146317 0.880078,-0.395472 0.880078,-0.553672 0,-0.380632 -0.842172,-1.007088 -1.353966,-1.007158 -0.612339,-8.1e-5 -1.967177,1.301145 -1.802251,1.730937 0.147003,0.383086 0.54433,0.353391 2.276139,-0.170107 z M 51.929887,27.364122 c 0,-0.223405 -0.182785,-0.40619 -0.406189,-0.40619 -0.422863,0 -0.537246,0.320267 -0.22566,0.63185 0.311583,0.311586 0.631849,0.197203 0.631849,-0.22566 z m -23.017422,-1.26054 c 0,-0.586917 -0.508585,-0.646067 -1.201098,-0.139686 -0.414831,0.303329 -0.440871,0.455897 -0.165605,0.970242 0.312049,0.583069 0.349847,0.589305 0.846666,0.139688 0.28602,-0.258845 0.520037,-0.695454 0.520037,-0.970244 z M 99.77952,25.285497 c 0.30116,-0.707704 0.28042,-0.764704 -0.27824,-0.764704 -1.466612,0 -2.356381,1.55505 -1.333451,2.330471 0.408041,0.309305 0.530331,0.278605 0.880081,-0.220919 0.2234,-0.31908 0.55263,-0.924263 0.73161,-1.344848 z m -9.126203,0.853602 c 0,-0.67056 -0.883496,-1.16808 -1.312481,-0.739094 -0.520415,0.520416 -0.361803,1.241305 0.297006,1.349884 0.80763,0.133109 1.015475,0.0081 1.015475,-0.61079 z m -72.605255,0.107178 c 0.493166,-0.345427 0.550173,-0.491078 0.263349,-0.672838 -0.549654,-0.348307 -0.657743,-0.300807 -0.993784,0.436717 -0.358313,0.786415 -0.150935,0.853456 0.730435,0.236121 z m 30.09072,-0.08247 c 0,-0.479042 -1.003245,-0.569178 -1.786826,-0.16054 l -0.785709,0.409748 1.286268,0.0016 c 0.707447,8.13e-4 1.286267,-0.111978 1.286267,-0.250876 z m 44.961197,-0.435921 c 0.429573,-0.517602 0.0086,-1.030181 -0.641224,-0.780807 -0.459885,0.176473 -0.597056,0.69183 -0.270942,1.017944 0.281884,0.281887 0.536311,0.215744 0.912166,-0.237137 z M 51.929887,25.587984 c 0,-0.157726 -0.121857,-0.211463 -0.270793,-0.119414 -0.148936,0.09204 -0.270793,0.221097 -0.270793,0.286775 0,0.06568 0.121857,0.119414 0.270793,0.119414 0.148936,0 0.270793,-0.129049 0.270793,-0.286775 z M 22.955014,25.197777 c 0,-0.223405 -0.114665,-0.406191 -0.254811,-0.406191 -0.341466,0 -0.586024,0.422869 -0.369679,0.639213 0.304964,0.304962 0.62449,0.185734 0.62449,-0.233022 z"
     id="path2995"
     inkscape:connector-curvature="0" />
</svg>
