<?xml version="1.0" encoding="UTF-8" standalone="no"?>
<svg
   xmlns:dc="http://purl.org/dc/elements/1.1/"
   xmlns:cc="http://creativecommons.org/ns#"
   xmlns:rdf="http://www.w3.org/1999/02/22-rdf-syntax-ns#"
   xmlns:svg="http://www.w3.org/2000/svg"
   xmlns="http://www.w3.org/2000/svg"
   xmlns:sodipodi="http://sodipodi.sourceforge.net/DTD/sodipodi-0.dtd"
   xmlns:inkscape="http://www.inkscape.org/namespaces/inkscape"
   version="1.1"
   viewBox="0 0 100 100"
   id="svg2"
   inkscape:version="0.91 r13725"
   width="100%"
   height="100%"
   sodipodi:docname="package-offer-favorite.svg">
  <metadata
     id="metadata51">
    <rdf:RDF>
      <cc:Work
         rdf:about="">
        <dc:format>image/svg+xml</dc:format>
        <dc:type
           rdf:resource="http://purl.org/dc/dcmitype/StillImage" />
        <dc:title>remember-me-active</dc:title>
      </cc:Work>
    </rdf:RDF>
  </metadata>
  <defs
     id="defs49" />
  <sodipodi:namedview
     pagecolor="#ffffff"
     bordercolor="#666666"
     borderopacity="1"
     objecttolerance="10"
     gridtolerance="10"
     guidetolerance="10"
     inkscape:pageopacity="0"
     inkscape:pageshadow="2"
     inkscape:window-width="1920"
     inkscape:window-height="1056"
     id="namedview47"
     showgrid="false"
     inkscape:zoom="5.6568544"
     inkscape:cx="34.427072"
     inkscape:cy="21.723294"
     inkscape:window-x="2560"
     inkscape:window-y="24"
     inkscape:window-maximized="1"
     inkscape:current-layer="svg2"
     inkscape:snap-bbox="true"
     fit-margin-top="0"
     fit-margin-left="0"
     fit-margin-right="0"
     fit-margin-bottom="0"
     units="px"
     showguides="true"
     inkscape:guide-bbox="true"
     showborder="true" />
  <title
     id="title3003">remember-me-active</title>
  <g
     id="g3023"
     transform="matrix(0.19545769,0,0,0.1954644,8.2313352,31.412013)" />
  <path
     style="fill:#000000"
     d="M 22.404297,9.3300781 C 21.850201,9.20185 21.001402,10.639231 19.025391,14.896484 c -1.588575,3.422813 -3.097125,6.227675 -3.353516,6.234375 -1.973969,0.051 -12.7280324,1.823753 -13.0566406,2.152344 -0.2284523,0.228434 0.5598659,1.272022 1.7519531,2.318359 1.1918856,1.046339 3.4845986,3.117791 5.09375,4.603516 l 2.9257815,2.701172 -1.222657,5.943359 c -0.672445,3.26821 -1.2226558,6.329271 -1.2226558,6.802735 1e-7,1.29543 0.4571078,1.123431 6.5937498,-2.47461 l 5.666016,-3.322265 5.666016,3.328125 c 3.116028,1.830802 5.962225,3.330078 6.324218,3.330078 0.36794,0 0.511859,-0.615168 0.326172,-1.394531 -0.182459,-0.766445 -0.812669,-3.853786 -1.40039,-6.861329 L 32.048828,32.789062 37.125,28.117188 C 39.917363,25.547756 42.073159,23.3174 41.916016,23.160156 41.758772,23.002913 38.636642,22.480702 34.976562,22 31.316586,21.519298 28.272391,21.05576 28.212891,20.96875 28.153583,20.881757 27.03356,18.440384 25.722656,15.544922 24.411552,12.64945 23.018499,9.9187447 22.626953,9.4765625 22.557384,9.397995 22.483453,9.3483964 22.404297,9.3300781 Z m 49.212891,9.4374999 c -0.702729,-1.2e-5 -1.405287,0.04067 -1.800782,0.121094 -0.766709,0.155863 -9.587982,3.198189 -9.541015,3.291016 0.01834,0.0377 2.679293,0.98809 5.912109,2.113281 l 5.876953,2.046875 0.466797,-0.150391 c 0.608263,-0.195694 10.469473,-3.609481 10.816406,-3.744141 0.233061,-0.09055 -0.327807,-0.308983 -4.52539,-1.767578 -2.635985,-0.915912 -5.066842,-1.720854 -5.402344,-1.789062 -0.395672,-0.08047 -1.100006,-0.121082 -1.802734,-0.121094 z m -14.34961,4.392578 -4.810547,1.671875 c -3.386565,1.177256 -4.908723,1.755147 -5.144531,1.949219 -0.489606,0.402374 -0.439976,0.77727 0.148438,1.130859 0.266026,0.159932 2.559415,1.012314 5.097656,1.892579 l 0.002,0 c 2.538063,0.880284 4.68162,1.599609 4.767578,1.599609 0.150382,0 11.490588,-3.89659 11.732422,-4.03125 0.06717,-0.03754 -2.557303,-1.000855 -5.833985,-2.140625 l -5.958984,-2.072266 z m 29.472656,0.269532 -5.628906,1.947265 c -3.096435,1.07125 -5.636935,1.986875 -5.658203,2.033203 -0.01489,0.04626 2.433141,0.940524 5.439453,1.988282 4.861409,1.694392 5.49862,1.894587 5.763672,1.802734 0.163675,-0.05674 2.140569,-0.73865 4.392578,-1.515625 2.251921,-0.776975 4.352852,-1.564527 4.669922,-1.748047 0.539408,-0.312274 0.571599,-0.357767 0.498047,-0.724609 -0.06159,-0.312627 -0.178196,-0.440501 -0.576172,-0.63086 -0.274445,-0.131216 -2.388723,-0.894067 -4.699219,-1.695312 l -4.201172,-1.457031 z m -14.287109,5.058593 c -0.196285,-0.02793 -11.40781,3.766702 -11.824219,4.001953 -0.176524,0.09987 8.585949,3.130972 9.417969,3.257813 0.903356,0.136994 2.155447,0.138955 3.076172,0.0039 C 73.998134,35.623758 83.55459,32.34987 83.355469,32.246088 83.096266,32.110627 72.681312,28.520709 72.453125,28.488275 Z m -27.191406,1.066407 c -0.534357,-10e-7 -0.70567,0.04259 -1.029297,0.259765 l -0.388672,0.261719 0.04102,6.197266 0.03906,17.578124 0.490234,0.560547 c 0.268951,0.308698 0.769985,0.724655 1.115235,0.923829 0.386279,0.223017 2.486449,1.002062 5.466797,2.027343 l 4.839844,1.664063 0.03711,-18.677735 c 0.03048,-5.769486 -2.71e-4,-7.318516 -0.148438,-7.394531 -0.102795,-0.05298 -1.158331,-0.430103 -2.345703,-0.83789 -7.722567,-2.652175 -7.441753,-2.5625 -8.117187,-2.5625 z m 52.5625,0 c -0.67508,-10e-7 -0.353739,-0.100473 -8.003907,2.527343 l -2.046874,0.703125 0,7.341797 0,18.722656 2.716796,-0.935547 c 1.494517,-0.515475 3.554163,-1.224789 4.578125,-1.576171 2.168888,-0.744552 2.93225,-1.153165 3.605469,-1.925782 l 0.488281,-0.560547 0.04102,-17.578124 0.04102,-6.197266 -0.388672,-0.259766 c -0.324425,-0.217888 -0.496539,-0.261718 -1.03125,-0.261718 z m -13.314453,4.363281 -0.56836,0.195312 c -9.346552,3.196568 -9.45577,3.239321 -10.271484,4.15625 -0.241657,0.27182 -0.51535,0.696266 -0.607422,0.941407 -0.238201,0.601097 -0.244617,22.910967 -0.01953,23.36914 0.08667,0.176482 0.292474,0.396423 0.458984,0.490234 l 0.01563,0 c 0.235897,0.133898 0.451276,0.164857 0.994141,0.142579 0.597009,-0.02465 1.342721,-0.251637 5.345703,-1.626953 l 4.652344,-1.597657 0,-7.34375 0,-18.726562 z m -25.621094,0.101562 0,18.72461 0,7.34375 4.566406,1.568359 0.002,0 c 3.974179,1.365023 4.646962,1.570312 5.181641,1.570312 0.74553,0 1.188611,-0.205549 1.408203,-0.652343 0.102263,-0.204825 0.15625,-2.299538 0.15625,-5.955078 0.0012,-6.114205 9.67e-4,-17.487555 -0.830078,-18.414063 -0.597807,-0.666432 -1.575139,-1.134116 -4.3125,-2.064453 -1.388177,-0.47189 -3.346383,-1.142877 -4.349609,-1.490234 l -1.822266,-0.63086 z M 39.554688,60.714844 c -2.285308,-0.0063 -4.36983,0.316384 -7.029297,0.412109 -6.883016,0.247734 -11.512197,1.555385 -21.779297,6.148438 -7.2905627,3.261502 -9.4523474,4.446695 -9.6582034,5.296875 -0.26460864,1.093564 5.125648,14.606818 6.1601563,15.443359 1.0551558,0.85326 2.0828669,0.495238 8.6113281,-2.992187 9.384303,-5.012832 10.764541,-5.499778 13.814453,-4.873047 1.371782,0.281905 7.826274,2.75767 14.341797,5.501953 6.5157,2.744308 13.068072,5.224378 14.5625,5.511718 2.669924,0.513336 2.854002,0.463678 10.599609,-2.941406 14.20805,-6.246038 23.387271,-12.412189 23.591797,-14.529297 0.0545,-0.563462 -0.211721,-1.441795 -0.591797,-1.953125 -0.651419,-0.876269 -0.948447,-0.888515 -5.140625,-0.197265 -2.446256,0.403372 -8.751092,2.599903 -11.388671,3.335937 -3.26977,0.912456 -3.90479,1.398123 -4.222657,2.142578 -2.246958,2.269605 -4.490748,1.21827 -9.580078,0.642578 -4.328469,-0.489629 -13.416872,-4.096888 -14.03125,-4.929687 -0.139128,-0.188625 0.291703,-0.133717 0.958985,0.121094 2.442977,0.932851 14.562053,2.35495 16.794921,1.970703 3.724372,-0.640867 5.14479,-4.000769 2.566407,-6.070313 C 67.548745,68.28546 63.878706,67.040414 59.980469,65.988281 56.082143,64.936134 50.593407,63.265624 47.783203,62.275391 44.32539,61.057017 41.839995,60.7211 39.554688,60.714844 Z"
     id="path7724-2"
     inkscape:connector-curvature="0" />
  <g
     id="g7792"
     transform="matrix(0.88616432,0,0,0.88616432,-1492.3841,73.914796)" />
</svg>
