<?xml version="1.0" encoding="UTF-8" standalone="no"?>
<svg
   xmlns:dc="http://purl.org/dc/elements/1.1/"
   xmlns:cc="http://creativecommons.org/ns#"
   xmlns:rdf="http://www.w3.org/1999/02/22-rdf-syntax-ns#"
   xmlns:svg="http://www.w3.org/2000/svg"
   xmlns="http://www.w3.org/2000/svg"
   xmlns:sodipodi="http://sodipodi.sourceforge.net/DTD/sodipodi-0.dtd"
   xmlns:inkscape="http://www.inkscape.org/namespaces/inkscape"
   version="1.1"
   viewBox="0 0 100 100"
   id="svg2"
   inkscape:version="0.48.4 r9939"
   width="100%"
   height="100%"
   sodipodi:docname="cancelled.svg">
  <metadata
     id="metadata51">
    <rdf:RDF>
      <cc:Work
         rdf:about="">
        <dc:format>image/svg+xml</dc:format>
        <dc:type
           rdf:resource="http://purl.org/dc/dcmitype/StillImage" />
        <dc:title>remember-me-active</dc:title>
      </cc:Work>
    </rdf:RDF>
  </metadata>
  <defs
     id="defs49" />
  <sodipodi:namedview
     pagecolor="#ffffff"
     bordercolor="#666666"
     borderopacity="1"
     objecttolerance="10"
     gridtolerance="10"
     guidetolerance="10"
     inkscape:pageopacity="0"
     inkscape:pageshadow="2"
     inkscape:window-width="1920"
     inkscape:window-height="1018"
     id="namedview47"
     showgrid="false"
     inkscape:zoom="5.6568543"
     inkscape:cx="68.342246"
     inkscape:cy="42.925038"
     inkscape:window-x="1912"
     inkscape:window-y="-8"
     inkscape:window-maximized="1"
     inkscape:current-layer="svg2"
     inkscape:snap-bbox="true"
     fit-margin-top="0"
     fit-margin-left="0"
     fit-margin-right="0"
     fit-margin-bottom="0"
     units="px"
     showguides="true"
     inkscape:guide-bbox="true" />
  <title
     id="title3003">remember-me-active</title>
  <g
     id="g3023"
     transform="matrix(0.19545769,0,0,0.1954644,8.2313352,31.412013)" />
  <path
     style="fill:#000000"
     d="M 4.8092061,75.288878 C 1.8876752,73.814323 0.78020343,71.671316 0.81352671,67.557068 l 0.0220897,-2.727356 0.57616749,1.323272 c 0.65415,1.502375 2.2095471,2.737973 2.2095471,1.755252 0,-0.29841 0.082327,-0.625716 0.1829472,-0.727345 0.349526,-0.353033 1.5642341,-3.504982 1.708242,-4.432581 0.2025927,-1.304959 -0.3621088,-1.173296 -0.6062897,0.141357 -0.1097564,0.590924 -0.2578278,1.169634 -0.3290485,1.286028 -0.1534362,0.250757 -1.240089,-0.383566 -1.240089,-0.723888 0,-0.129236 0.1134145,-0.164178 0.2520318,-0.07764 0.1386175,0.08653 0.4006429,-0.02354 0.582278,-0.244586 0.244055,-0.29702 0.2465318,-0.454173 0.00949,-0.602143 C 4.004478,62.41731 3.6712465,62.599598 3.440379,62.932509 2.8969703,63.716119 2.6639933,63.6955 2.2016191,62.822879 1.8709779,62.198868 1.8889528,62.034108 2.3429494,61.527414 c 0.4354031,-0.485943 0.7380739,-0.551328 1.8576788,-0.401318 0.7356402,0.09857 1.4096088,0.0614 1.4977084,-0.08256 C 5.7864361,60.899545 5.578988,60.765655 5.2373409,60.745989 4.895694,60.72632 4.3603502,60.645769 4.0476885,60.566992 3.7350267,60.488218 3.3193286,60.413867 3.1239151,60.401787 c -0.5083509,-0.03143 -0.4410376,-0.596146 0.07106,-0.596146 0.5462184,0 0.5462184,-0.403402 0,-0.86127 -0.322298,-0.270169 -0.4263569,-0.273743 -0.4263569,-0.01464 0,0.500398 -0.6592317,1.084602 -1.0684305,0.946834 -0.2187452,-0.07365 -0.3527595,0.156547 -0.3527595,0.605936 0,0.398586 -0.1279071,0.804549 -0.2842379,0.902136 -0.16915513,0.105588 -0.284238,-0.23626 -0.284238,-0.844325 0,-0.561968 0.11016998,-1.021759 0.2448222,-1.021759 0.1346521,0 0.1865607,-0.307833 0.1153527,-0.684073 -0.071209,-0.37624 0.010487,-0.771436 0.1815346,-0.878214 0.1710526,-0.106782 0.3110047,-0.437273 0.3110047,-0.734434 0,-0.685444 0.5212231,-1.023831 0.9343276,-0.606583 0.173976,0.175722 0.4284841,0.319493 0.5655743,0.319493 0.1370903,0 -0.1344665,-0.387571 -0.6034591,-0.86127 C 2.0591165,55.599772 1.5513338,55.2122 1.3997031,55.2122 c -0.40980768,0 -0.62075059,-0.750106 -0.62075059,-2.207371 0,-0.996584 0.092821,-1.263163 0.39856819,-1.144661 0.2192125,0.08497 0.4856857,0.06649 0.5921626,-0.04105 0.1064771,-0.107542 0.3108423,-0.211685 0.4541455,-0.231423 0.5345499,-0.07363 0.5740819,-0.114619 0.39414,-0.408694 C 2.4918626,50.972907 2.308346,50.983105 2.036081,51.211332 1.7248605,51.472212 1.5981603,51.438797 1.4533547,51.057654 1.3062326,50.670412 1.2190708,50.649081 1.0279866,50.953547 0.88703129,51.178143 0.78585702,50.221829 0.78330423,48.640775 0.77969523,46.40676 0.86414377,45.879753 1.2763682,45.56369 c 0.4737301,-0.363221 0.4737301,-0.381819 0,-0.390515 -0.6676675,-0.01226 -0.73834927,-2.305848 -0.07106,-2.305848 0.5304932,0 0.5280159,-0.270738 -0.00904,-0.987916 -0.22952453,-0.306502 -0.41731728,-0.848842 -0.41731728,-1.205197 0,-0.597744 0.0672042,-0.624257 0.86783398,-0.342356 1.0465472,0.36849 1.7786523,1.394704 1.5063339,2.111477 -0.1354565,0.356536 -0.093134,0.453426 0.1356708,0.310599 0.2121333,-0.132421 0.332541,0.0031 0.332541,0.374529 0,0.399485 -0.1337621,0.530266 -0.4263569,0.416864 -0.2971009,-0.115155 -0.426357,0.02094 -0.426357,0.448895 0,0.365748 0.2465405,0.706263 0.609552,0.841899 0.6029731,0.22529 0.6011151,0.235651 -0.1721601,0.959864 -0.4854159,0.454622 -0.665722,0.804524 -0.4756976,0.923143 0.1683079,0.105067 0.5857946,-0.133977 0.9277483,-0.531205 0.5644272,-0.655661 0.6534691,-0.678396 0.9660424,-0.246635 0.4688189,0.647579 1.8396086,0.824477 1.8396086,0.237395 0,-0.242253 -0.1598837,-0.455359 -0.3552973,-0.473574 -0.1954133,-0.01819 -0.5165984,-0.05051 -0.7137441,-0.07177 -0.449247,-0.04845 -1.2605417,-1.581484 -1.0333903,-1.952712 0.09265,-0.151415 -0.047464,-0.516282 -0.3113655,-0.810815 -0.6080207,-0.678599 -0.3354382,-1.70388 0.4373628,-1.645082 0.3053846,0.02323 0.5552449,0.230072 0.5552449,0.459635 0,0.229565 0.085551,0.33098 0.1901121,0.225368 0.2251177,-0.227375 1.2310777,0.630567 1.2310777,1.049938 0,0.159745 -0.084458,0.205139 -0.1876837,0.100872 -0.1032265,-0.104262 -0.3720868,0.07635 -0.5974679,0.401351 -0.4637519,0.668742 -0.3765772,0.853051 0.4325934,0.914617 0.5128617,0.03902 0.5690325,0.273604 0.6150026,2.568411 0.032169,1.605852 -0.058154,2.525471 -0.2480459,2.525471 -0.1642501,0 -0.2986364,-0.330602 -0.2986364,-0.734669 0,-0.447932 -0.118499,-0.660694 -0.3036156,-0.545141 -0.1669884,0.10424 -0.2390183,0.359555 -0.1600664,0.567365 0.078951,0.207809 -0.057645,0.455819 -0.3035507,0.551126 -0.4054015,0.157127 -0.4047319,0.220575 0.00718,0.6803 0.2745577,0.306426 0.39585,0.786765 0.3065893,1.214147 -0.1431872,0.685578 -0.1339176,0.683071 0.3040843,-0.08236 0.2484757,-0.434224 0.5163828,-0.789498 0.5953491,-0.789498 0.3294488,0 -0.00775,4.754501 -0.3630587,5.118992 -0.2048051,0.210104 -0.2912552,0.514576 -0.1921116,0.676603 0.1145269,0.187168 0.2693682,0.152556 0.4246168,-0.09492 0.1738532,-0.277129 0.2437881,-0.182431 0.242388,0.328212 -0.00238,0.873266 -1.0922176,2.343172 -1.3184018,1.77821 -0.082565,-0.206231 -0.4248592,-0.63448 -0.7606525,-0.95166 -0.5505463,-0.520031 -0.620263,-0.528879 -0.7095598,-0.09006 -0.054464,0.267643 0.073443,0.602679 0.284238,0.744521 0.2107954,0.141843 0.575125,0.383042 0.8096214,0.535991 0.3586709,0.233947 0.2997498,0.392168 -0.3711477,0.99664 -0.4386287,0.395196 -0.7368806,0.71854 -0.6627835,0.71854 0.074097,0 0.3370437,0.07842 0.5843262,0.174261 0.3240983,0.125616 0.4496039,0.002 0.4496039,-0.443222 0,-0.424523 0.1522183,-0.591118 0.4871123,-0.533123 0.3006073,0.05206 0.5288281,-0.135483 0.5960654,-0.489821 0.3528572,-1.859551 0.576213,-0.479917 0.5989506,3.699622 0.017012,3.126928 -0.075844,4.769533 -0.2696151,4.769533 -0.1973152,0 -0.1897211,0.199752 0.022844,0.60092 0.1751244,0.330507 0.2351438,0.944162 0.1333767,1.363677 -0.1782272,0.734713 -0.1689969,0.741646 0.2510292,0.188578 0.2398329,-0.315798 0.4401283,-0.433428 0.4451,-0.261401 0.015354,0.53113 1.3834734,0.979126 2.9901385,0.979126 0.843237,0 1.61221,0.129191 1.708828,0.28709 0.09661,0.157899 0.303577,0.287091 0.459907,0.287091 0.156331,0 0.205187,-0.129192 0.108568,-0.287091 -0.23628,-0.386144 5.119966,-0.382121 5.834981,0.0044 0.355259,0.192038 0.476177,0.461369 0.354451,0.789498 -0.163372,0.440397 -0.127757,0.451176 0.307758,0.09317 0.270881,-0.222672 0.426751,-0.577947 0.346377,-0.789497 -0.117857,-0.310218 0.627814,-0.384627 3.854688,-0.384627 3.439509,0 3.977867,0.06042 3.837212,0.430636 -0.145537,0.383072 0.130948,0.559209 0.733837,0.467489 0.112585,-0.01715 0.340918,0.225957 0.507419,0.540183 0.166498,0.314228 0.560548,0.571322 0.875666,0.571322 0.539026,0 0.528026,-0.05948 -0.185857,-1.004815 l -0.758796,-1.004815 1.872363,0 c 1.547545,0 1.843978,0.0747 1.708754,0.430636 -0.196116,0.516196 0.216512,0.567474 0.693077,0.08613 0.265289,-0.267949 0.341086,-0.267949 0.341086,0 0,0.18948 0.149813,0.344509 0.332917,0.344509 0.183103,0 0.543328,0.192332 0.800501,0.427405 0.257174,0.235074 0.970735,0.608544 1.585691,0.829934 1.12476,0.404926 1.174984,0.488842 0.829309,1.385622 -0.166542,0.432057 -0.0771,0.457435 0.75872,0.215319 0.52113,-0.150958 0.976317,-0.27447 1.011525,-0.27447 0.0352,0 -0.0096,0.193786 -0.09959,0.430635 -0.08999,0.236849 -0.034,0.430635 0.124428,0.430635 0.15842,0 0.221143,0.25838 0.139379,0.57418 -0.08176,0.315799 -0.293626,0.576157 -0.470807,0.578574 -0.177179,0.0022 -0.130286,0.12963 0.104206,0.282696 0.294227,0.192051 -0.305567,0.27966 -1.935381,0.282694 -1.498369,0.0028 -2.297716,-0.100242 -2.186601,-0.281828 0.113663,-0.185758 -0.05777,-0.196779 -0.488434,-0.03141 -0.364967,0.140152 -2.279713,0.274599 -4.254994,0.298771 -3.441044,0.04211 -3.611414,0.01636 -4.068914,-0.614553 l -0.477492,-0.6585 0.187589,0.645952 0.187589,0.645952 -9.21149,0 -9.2114885,0 -1.7453037,-0.880889 z M 33.182081,75.164953 c 0.194615,-0.236849 0.289892,-0.430635 0.211726,-0.430635 -0.07817,0 -0.301349,0.193786 -0.495963,0.430635 -0.194616,0.236848 -0.289893,0.430635 -0.211727,0.430635 0.07817,0 0.301349,-0.193787 0.495964,-0.430635 z m 2.945168,0 c 0.09866,-0.259687 0.0014,-0.430635 -0.244907,-0.430635 -0.246349,0 -0.343567,0.170948 -0.244909,0.430635 0.08999,0.236848 0.200196,0.430635 0.244909,0.430635 0.04472,0 0.154921,-0.193787 0.244907,-0.430635 z M 8.2401988,74.257094 C 8.0447849,74.177447 7.8759114,73.76778 7.8649239,73.346717 7.8470289,72.660916 7.8194852,72.640972 7.6006627,73.155323 7.4663075,73.471122 7.3473902,73.56039 7.3364028,73.353696 7.3253757,73.147002 7.1807976,73.062556 7.0150314,73.166031 6.849265,73.26951 6.3477538,73.201096 5.9005621,73.014005 5.4533707,72.826915 4.8535318,72.727917 4.5675876,72.794011 c -0.3162717,0.0731 0.1202296,0.315928 1.1144692,0.619975 0.8989027,0.274893 1.634369,0.619829 1.634369,0.766523 0,0.146695 0.2877907,0.256518 0.6395349,0.244053 0.3517442,-0.01246 0.4796521,-0.08782 0.2842381,-0.167468 z m 26.9315482,-0.09696 c 0,-0.157899 -0.120357,-0.28709 -0.267462,-0.28709 -0.147105,0 -0.346515,0.129191 -0.443133,0.28709 -0.09662,0.1579 0.02374,0.28709 0.267462,0.28709 0.243723,0 0.443133,-0.12919 0.443133,-0.28709 z m -8.444065,-1.04725 c 0.412569,-0.836686 0.430033,-1.002351 0.09183,-0.871271 -0.229675,0.08902 -0.569344,-0.02283 -0.754817,-0.248558 -0.185474,-0.225724 -0.439085,-0.346824 -0.563581,-0.269109 -0.124494,0.07771 -0.813491,-0.112905 -1.531103,-0.423596 -0.717611,-0.310689 -1.304746,-0.466245 -1.304746,-0.345677 0,0.120567 0.415696,0.377019 0.923773,0.569892 1.23309,0.468097 2.46571,1.527772 1.977801,1.700302 -0.28203,0.09973 -0.290436,0.223209 -0.03626,0.532552 0.480616,0.584915 0.630691,0.504113 1.197087,-0.644535 z m -4.675618,-0.348719 c -0.424203,-0.152629 -0.905024,0.430934 -0.670654,0.81396 0.139448,0.227895 0.318249,0.169297 0.580694,-0.190303 0.235028,-0.322035 0.269232,-0.559157 0.08995,-0.623657 z m 6.013734,0.708965 c 0,-0.06206 -0.191861,-0.187191 -0.426357,-0.27808 -0.234496,-0.09089 -0.426357,-0.04012 -0.426357,0.112829 0,0.152944 0.191861,0.278081 0.426357,0.278081 0.234496,0 0.426357,-0.05078 0.426357,-0.11283 z M 12.604436,72.515351 c -0.09445,-0.09539 -0.161629,0.07416 -0.149287,0.376806 0.01364,0.334444 0.08099,0.40247 0.171728,0.17345 0.08211,-0.207244 0.07201,-0.454859 -0.02244,-0.550256 z M 5.9473455,72.088305 C 5.743387,71.8823 5.6109974,71.865349 5.6109974,72.045244 c 0,0.383202 0.3361427,0.722717 0.5258402,0.531116 0.080771,-0.08158 -0.0045,-0.301204 -0.1894921,-0.488052 z m 13.7559155,0.224052 c 0.308393,-0.311489 0.32491,-0.464345 0.06753,-0.625009 -0.187386,-0.116975 -0.391152,-0.05981 -0.452814,0.127029 -0.06166,0.186839 -0.227628,0.267599 -0.368816,0.179463 -0.141188,-0.08813 -0.180533,0.04025 -0.08743,0.285301 0.209076,0.550312 0.325042,0.554888 0.841532,0.03322 z m 3.530491,0.142185 c 0,-0.14858 -0.127908,-0.349991 -0.284238,-0.447579 -0.156331,-0.09759 -0.284237,0.02398 -0.284237,0.270146 0,0.246169 0.127906,0.447579 0.284237,0.447579 0.15633,0 0.284238,-0.121565 0.284238,-0.270146 z m -6.96383,-0.591124 c -0.282956,-0.3158 -0.654524,-0.569883 -0.825709,-0.564629 -0.171183,0.0053 -0.0092,0.263636 0.359781,0.574179 0.868011,0.730384 1.124201,0.725133 0.465928,-0.0095 z M 3.6213315,71.576328 c 0,-0.1579 -0.127907,-0.287091 -0.284238,-0.287091 -0.1563309,0 -0.2842379,0.129191 -0.2842379,0.287091 0,0.157899 0.127907,0.28709 0.2842379,0.28709 0.156331,0 0.284238,-0.129191 0.284238,-0.28709 z M 12.8254,71.417871 c 0.09706,-0.255487 0.04941,-0.370725 -0.111709,-0.270145 -0.154541,0.09647 -0.280984,0.296965 -0.280984,0.445546 0,0.412959 0.203733,0.321959 0.392691,-0.175401 z M 6.4637112,71.128748 c 0,-0.06963 -0.127907,-0.1266 -0.2842379,-0.1266 -0.1563309,0 -0.284238,0.136816 -0.284238,0.304033 0,0.167219 0.1279071,0.224189 0.284238,0.126601 0.1563309,-0.09759 0.2842379,-0.234403 0.2842379,-0.304034 z m 8.6264338,0.02613 c 0.08806,-0.231793 0.03779,-0.4978 -0.111709,-0.591124 -0.149503,-0.09331 -0.271824,0.09633 -0.271824,0.421453 0,0.6932 0.158068,0.763131 0.383532,0.169685 z M 11.962318,70.84621 c -0.09257,-0.243659 -0.229274,-0.381445 -0.303781,-0.306191 -0.07451,0.07526 -0.05115,0.274613 0.05189,0.443017 0.280271,0.458042 0.444086,0.369058 0.25189,-0.136826 z M 4.5679996,70.30766 C 4.6531265,70.083597 4.50603,69.647861 4.2411212,69.339351 3.8296825,68.860201 3.7050561,68.837262 3.38622,69.182 c -0.3112166,0.336501 -0.2636475,0.495839 0.2862298,0.958757 0.8000249,0.673505 0.70949,0.656633 0.8955498,0.166903 z m 1.2054196,-1.602232 c 0,-0.3158 -0.1370434,-0.574181 -0.304541,-0.574181 -0.1674973,0 -0.3045407,0.258381 -0.3045407,0.574181 0,0.315798 0.1370434,0.574179 0.3045407,0.574179 0.1674976,0 0.304541,-0.258381 0.304541,-0.574179 z M 5.3267593,56.702518 c 0,-0.323174 -0.832533,-1.405004 -0.8436742,-1.096307 -0.00497,0.137759 -0.225453,0.07316 -0.4899583,-0.143546 -0.41452,-0.339613 -0.4477948,-0.334557 -0.2410044,0.03662 0.6135948,1.101371 1.5746369,1.835736 1.5746369,1.203231 z m -1.593828,-3.075463 c 0.2919712,-1.029729 0.6425878,-1.94198 0.7791478,-2.027226 0.1365601,-0.08524 0.1705682,-0.46777 0.075574,-0.850057 C 4.4926592,50.36749 4.5526575,49.655679 4.7209837,49.167973 4.9733256,48.43684 4.9409699,48.18793 4.5366019,47.749538 4.0638062,47.23696 4.0262805,47.259148 3.4929292,48.366662 c -0.4485485,0.93142 -0.675379,1.125237 -1.1986516,1.024204 -0.354975,-0.06855 -0.5777774,-0.0141 -0.4951167,0.121004 0.082661,0.135089 0.3150331,0.245616 0.516383,0.245616 0.6637236,0 1.5900252,1.058739 1.5900252,1.81736 0,0.409856 -0.255814,1.400712 -0.5684759,2.2019 -0.6379161,1.634645 -0.6558646,1.722541 -0.3517476,1.722541 0.1192001,0 0.4556139,-0.842506 0.7475854,-1.872232 z m 1.3095901,1.314996 c 0,-0.389657 -0.5015473,-0.645675 -0.6832271,-0.34876 -0.1698751,0.277621 0.076263,0.618905 0.4463622,0.618905 0.1302756,0 0.2368649,-0.121565 0.2368649,-0.270145 z m -2.4276689,-1.43336 c 0.090212,-0.147433 -0.1582577,-0.233354 -0.5521559,-0.190935 -0.9897173,0.106575 -1.26079511,0.45899 -0.3530598,0.45899 0.4076563,0 0.8150032,-0.120626 0.9052157,-0.268055 z M 2.3680402,47.247562 C 2.170922,47.048467 1.6316658,47.45299 1.6316658,47.799951 c 0,0.190369 0.1630906,0.168587 0.4332258,-0.05786 0.2382741,-0.199735 0.374691,-0.422274 0.3031486,-0.494535 z m 0.1163391,-2.657696 c 0,-0.157899 -0.127907,-0.287091 -0.2842379,-0.287091 -0.1563309,0 -0.284238,0.129192 -0.284238,0.287091 0,0.157899 0.1279071,0.287091 0.284238,0.287091 0.1563309,0 0.2842379,-0.129192 0.2842379,-0.287091 z m 36.9017037,31.32962 c 0.20742,-0.13282 0.335328,-0.486115 0.284239,-0.785103 -0.07429,-0.434772 0.106291,-0.562079 0.901946,-0.635852 0.547159,-0.05073 1.098292,-0.193987 1.224741,-0.318343 0.126452,-0.124356 -0.427581,-0.162292 -1.231181,-0.08431 l -1.461095,0.141803 0.197565,-1.330682 c 0.226905,-1.528295 -0.269929,-1.884178 -0.588053,-0.421224 -0.156178,0.718206 -0.250446,0.814379 -0.448272,0.457334 -0.158326,-0.285747 -0.47185,-0.393655 -0.852015,-0.293242 -0.525749,0.138865 -0.574368,0.07251 -0.386026,-0.526856 0.18918,-0.602041 0.160657,-0.639778 -0.233707,-0.309199 -0.635431,0.532649 -1.551419,-0.01536 -1.551419,-0.928171 l 0,-0.708886 3.801683,0 c 2.090925,0 3.801684,0.11035 3.801684,0.245224 0,0.134872 -0.150553,0.29591 -0.334563,0.357861 -0.374301,0.126021 -0.07104,0.796479 0.360257,0.796479 0.15201,0 0.35897,-0.226083 0.459909,-0.502408 0.100931,-0.276323 0.304507,-0.58444 0.45237,-0.684704 0.413128,-0.280127 1.306654,0.637613 1.127018,1.157556 -0.122304,0.354003 -0.07768,0.384494 0.193409,0.13215 0.26742,-0.248932 0.275097,-0.473939 0.03183,-0.933041 -0.305954,-0.577417 -0.256394,-0.605003 1.086933,-0.605003 0.86703,0 1.457529,0.1378 1.537781,0.358863 0.104218,0.28709 0.205597,0.28709 0.50689,0 0.207138,-0.197375 0.558556,-0.358863 0.780925,-0.358863 0.327166,0 0.336795,0.08217 0.05048,0.430635 -0.203956,0.248216 -0.231581,0.430636 -0.06522,0.430636 0.158747,0 0.362253,-0.193786 0.452239,-0.430636 0.229321,-0.603598 2.693349,-0.599315 2.922973,0.0051 0.177751,0.467859 0.948013,0.464908 1.327488,-0.0051 0.127489,-0.157899 0.150846,0.0036 0.05191,0.358863 -0.179996,0.646328 0.233527,0.907129 0.569009,0.358862 0.265499,-0.433896 0.710597,-0.343983 0.710597,0.143545 0,0.236849 0.127906,0.430635 0.284236,0.430635 0.447414,0 0.33676,-0.337072 -0.355296,-1.082291 l -0.639537,-0.688666 3.205126,0.08778 3.205126,0.08779 0.315388,1.063235 c 0.351585,1.185266 0.192284,1.893256 -0.485063,2.155785 -0.65374,0.253384 -1.162815,-0.340136 -0.736626,-0.858812 0.232482,-0.282934 0.251576,-0.629901 0.06233,-1.132639 -0.462397,-1.228407 -0.804313,-1.130492 -0.705544,0.202046 0.07915,1.067859 0.02038,1.236163 -0.394193,1.128699 -0.272797,-0.07072 -0.629851,0.107901 -0.811317,0.405859 -0.291185,0.478105 -0.240661,0.519788 0.497416,0.410375 0.486202,-0.07207 0.821519,0.0087 0.821519,0.197891 0,0.175823 0.269498,0.319675 0.598886,0.319675 0.379675,0 0.546117,0.138898 0.454719,0.379467 -0.0793,0.208706 0.09888,0.532777 0.395947,0.720157 0.894704,0.564359 0.614025,0.910006 -0.738956,0.910006 -0.703489,0 -1.279063,-0.0969 -1.279052,-0.215317 2.7e-5,-0.264092 -1.48746,-0.241736 -1.92096,0.02887 -0.172737,0.107836 -3.136776,0.179207 -6.586751,0.15862 -5.139827,-0.03068 -6.272684,-0.109315 -6.272684,-0.435441 0,-0.2189 -0.223836,-0.387801 -0.497416,-0.375335 -0.297154,0.01354 -0.35437,0.08097 -0.142118,0.167467 0.622196,0.253581 0.382223,0.671136 -0.385709,0.671136 -0.589285,0 -0.701738,-0.102871 -0.549224,-0.502407 0.105476,-0.276325 0.34088,-1.083765 0.523114,-1.794312 0.182234,-0.710548 0.443039,-1.372649 0.57957,-1.471338 0.136531,-0.09869 0.11588,-0.262048 -0.04589,-0.36303 -0.161766,-0.100981 -0.371808,0.108954 -0.466763,0.466521 -0.09496,0.357568 -0.386465,1.328371 -0.647802,2.157344 l -0.475158,1.507222 -1.43339,-0.0044 c -0.886009,-0.0026 -1.289371,-0.09661 -1.056261,-0.245888 z m 7.155183,-0.405923 c 0,-0.203015 -0.255814,-0.369117 -0.568476,-0.369117 -0.700641,0 -0.748198,0.361604 -0.07107,0.540332 0.273579,0.07221 0.529394,0.146281 0.568476,0.164598 0.03908,0.01831 0.07107,-0.1328 0.07107,-0.335813 z M 50.5188,75.66736 c -8.52e-4,-0.118424 -0.393598,-0.440544 -0.872465,-0.715822 -0.70215,-0.403631 -0.833649,-0.625898 -0.679399,-1.14836 0.188084,-0.637067 0.183831,-0.638295 -0.255448,-0.07367 -0.663863,0.853289 -0.562754,1.200344 0.406758,1.396193 0.484316,0.09783 0.792584,0.305111 0.69382,0.466522 -0.09776,0.159751 0.02168,0.29046 0.265398,0.29046 0.243723,0 0.442323,-0.0969 0.441336,-0.215318 z m 4.265367,-0.486399 c 0,-0.587082 -1.326095,-2.072738 -1.601956,-1.794712 -0.12602,0.127012 -0.04097,0.351118 0.188998,0.498013 0.229968,0.146895 0.331873,0.269063 0.226455,0.27148 -0.168462,0.0039 0.933659,1.421385 1.115443,1.434658 0.03908,0.0028 0.07107,-0.181395 0.07107,-0.409439 z m 1.882565,-0.02737 c -0.168135,-0.442553 0.180221,-1.267305 0.9369,-2.218164 0.353606,-0.444352 0.339464,-0.554225 -0.11449,-0.889491 -0.284856,-0.210385 -0.434272,-0.519225 -0.332032,-0.686315 0.124576,-0.203586 -0.03514,-0.198439 -0.484202,0.01563 -0.66703,0.317945 -0.667473,0.321552 -0.09724,0.787929 0.391268,0.320011 0.493478,0.597016 0.322443,0.873882 -0.137725,0.222947 -0.279019,0.596797 -0.313983,0.830781 -0.03497,0.233983 -0.198446,0.47083 -0.36329,0.526331 -0.414843,0.13967 -0.376619,0.83514 0.05558,1.011287 0.554622,0.22604 0.568481,0.2171 0.390315,-0.251851 z m -4.121771,-1.474339 c -0.335072,-0.581992 -0.415986,-0.39571 -0.141702,0.326231 0.09748,0.256572 0.237109,0.40602 0.310291,0.332103 0.07319,-0.07391 -0.0025,-0.370168 -0.168589,-0.658334 z m -2.59284,-0.07636 c 0,-0.14858 -0.127906,-0.349992 -0.284237,-0.447579 -0.156331,-0.09759 -0.284239,0.02397 -0.284239,0.270146 0,0.246168 0.127908,0.447579 0.284239,0.447579 0.156331,0 0.284237,-0.121565 0.284237,-0.270146 z m 0.426357,-0.878214 C 50.281864,72.566785 49.858613,72.452879 49.43793,72.47156 l -0.764879,0.03397 0.852714,0.219156 c 0.468993,0.120534 0.892239,0.23444 0.940548,0.253125 0.04831,0.01869 0.0088,-0.09523 -0.08783,-0.253125 z M 55.779,72.437593 c -0.09661,-0.157899 -0.328004,-0.285112 -0.514193,-0.282694 -0.203402,0.0026 -0.168345,0.115476 0.08783,0.282694 0.546056,0.356432 0.644453,0.356432 0.426358,0 z m 2.980147,-0.645952 c -0.0023,-0.197373 -0.129038,-0.552649 -0.28143,-0.789497 -0.212154,-0.329735 -0.263207,-0.245649 -0.217891,0.358863 0.05735,0.764977 0.50809,1.153716 0.499321,0.430634 z m 2.965474,4.05283 c -0.129334,-0.211365 -0.08388,-0.261005 0.121577,-0.132756 0.180486,0.112666 0.328156,0.06803 0.328156,-0.09919 0,-0.167218 -0.09594,-0.305041 -0.213177,-0.306274 -0.293795,-0.0031 -0.956422,-1.496118 -0.75421,-1.699386 0.08998,-0.09045 0.399164,0.128995 0.687066,0.487666 0.323858,0.403461 0.594817,0.535503 0.710598,0.346285 0.102923,-0.168209 0.03255,-0.493964 -0.15637,-0.723895 -0.287113,-0.349417 -0.209458,-0.418781 0.472946,-0.422456 0.449051,-0.0022 1.008317,-0.142268 1.242813,-0.310772 0.316869,-0.2277 0.09034,-0.266325 -0.882121,-0.15041 l -1.308478,0.155972 -0.325891,-1.09864 c -0.476985,-1.608005 -0.424347,-1.749745 0.649788,-1.749745 0.708876,0 1.022543,0.149138 1.147061,0.545388 0.14973,0.476489 0.277828,0.504808 1.013987,0.224151 0.463433,-0.176682 0.842606,-0.422107 0.842606,-0.54539 0,-0.123282 0.511629,-0.224149 1.136952,-0.224149 0.625324,0 1.136951,0.119965 1.136951,0.266583 0,0.488036 0.863192,1.146787 1.287297,0.982409 0.229972,-0.08913 0.418132,-0.40662 0.418132,-0.705527 0,-0.298904 0.191861,-0.543465 0.426357,-0.543465 0.234497,0 0.426357,0.186162 0.426357,0.413691 0,0.227531 0.14161,0.502092 0.314688,0.610133 0.211766,0.13219 0.251983,-0.0031 0.122967,-0.413692 -0.113746,-0.361988 -0.06833,-0.610132 0.111662,-0.610132 0.166867,0 0.303392,0.193786 0.303392,0.430636 0,0.23685 0.03198,0.519314 0.07107,0.627702 0.03908,0.108389 -0.358013,0.309367 -0.882442,0.446625 -0.92329,0.24165 -0.937655,0.267238 -0.453362,0.807745 0.275076,0.307005 0.704151,0.554266 0.953502,0.549463 0.369441,-0.0072 0.354973,-0.06646 -0.07816,-0.320632 -0.724696,-0.425261 9.6e-5,-0.895993 0.752963,-0.489029 0.491544,0.265708 0.498755,0.331825 0.08637,0.792072 -0.247467,0.27619 -0.449937,0.617679 -0.449937,0.758858 0,0.141183 0.37651,-0.159672 0.83669,-0.668559 0.460183,-0.508887 0.979357,-0.925251 1.153728,-0.925251 0.174369,0 0.24195,-0.122708 0.150181,-0.272686 -0.205184,-0.335322 0.710563,-0.846372 1.199389,-0.669345 0.220532,0.07987 0.293659,-0.03401 0.192623,-0.299949 -0.302136,-0.795253 2.208916,-1.031061 2.778557,-0.26093 0.202634,0.273953 0.741522,0.525372 1.197535,0.558706 0.456008,0.03334 0.925012,0.217347 1.042229,0.40891 0.131293,0.214566 0.249491,0.02595 0.307844,-0.491245 l 0.09472,-0.839546 2.926602,-0.08196 2.926602,-0.08196 -0.483323,0.745045 c -0.265826,0.409775 -0.55954,0.631021 -0.6527,0.491659 -0.09316,-0.139365 -0.38114,-0.332127 -0.639967,-0.428359 -0.405639,-0.150819 -0.424134,-0.0885 -0.134006,0.451575 0.761206,1.416974 1.192782,1.918451 1.65103,1.918451 0.26583,0 0.562379,0.12919 0.658996,0.287091 0.357073,0.58355 0.85363,0.259737 0.883032,-0.575835 0.02603,-0.740256 -0.03094,-0.810928 -0.40459,-0.501753 -0.372042,0.307846 -0.411083,0.266495 -0.270103,-0.286091 0.192355,-0.753967 -0.201135,-0.8789 -0.477458,-0.151592 -0.160892,0.423492 -0.22575,0.433782 -0.452412,0.07177 -0.41875,-0.66879 -0.324228,-0.853224 0.437295,-0.853224 0.390826,0 0.710594,-0.129189 0.710594,-0.287089 0,-0.157901 0.191861,-0.28709 0.426357,-0.28709 0.234496,0 0.426357,-0.138927 0.426357,-0.308728 0,-0.381927 1.756673,-0.247813 2.082364,0.158981 0.155572,0.194312 0.283216,0.172957 0.378227,-0.06328 0.107683,-0.267751 0.287846,-0.278495 0.723258,-0.04313 0.419899,0.226979 0.526761,0.22668 0.3874,-0.0012 -0.107946,-0.176417 0.112835,-0.455 0.50283,-0.63448 0.71325,-0.328239 1.323069,-1.340033 1.330794,-2.208019 0.0037,-0.420597 0.04285,-0.428737 0.279886,-0.05827 0.237453,0.371119 0.276134,0.363541 0.279887,-0.05483 0.0023,-0.267005 -0.123556,-0.565309 -0.279887,-0.662897 -0.433969,-0.270899 -0.338399,-1.209481 0.14212,-1.395725 0.234496,-0.09089 0.426356,-0.29444 0.426356,-0.45234 0,-0.157899 -0.19186,-0.212727 -0.426356,-0.121841 -0.311793,0.120848 -0.426357,-0.03586 -0.426357,-0.583189 0,-0.411644 0.127907,-0.748441 0.284237,-0.748441 0.156331,0 0.284238,0.193786 0.284238,0.430636 0,0.23685 0.191862,0.430634 0.426358,0.430634 0.259724,0 0.426357,-0.26742 0.426357,-0.684241 0,-0.61621 0.579043,-1.017585 1.492249,-1.034379 0.353478,-0.0065 0.239405,1.576587 -0.14212,1.972285 -0.286457,0.297103 -0.245152,0.349948 0.21318,0.272736 0.453136,-0.07633 0.581053,0.07897 0.630469,0.765504 0.0341,0.4737 -0.0089,0.698979 -0.09534,0.50062 -0.08652,-0.198359 -0.275295,-0.287015 -0.419472,-0.197013 -0.301073,0.188013 -1.110494,-0.541471 -1.110494,-1.000749 0,-0.169179 -0.136526,-0.307597 -0.303393,-0.307597 -0.174042,0 -0.226467,0.244799 -0.122965,0.57418 0.103499,0.32938 0.05107,0.57418 -0.122963,0.57418 -0.166869,0 -0.303394,0.20249 -0.303394,0.449981 0,0.328172 0.163522,0.39756 0.604071,0.256332 0.374208,-0.11996 0.537067,-0.08414 0.42799,0.09412 -0.25511,0.416917 0.545406,0.64943 0.922968,0.268079 0.175383,-0.177142 0.318876,-0.202896 0.318876,-0.05723 0,0.145661 0.223402,-0.05458 0.496452,-0.444989 0.273047,-0.390408 0.496884,-1.156723 0.497416,-1.702924 8.52e-4,-0.740737 0.163048,-1.075531 0.638814,-1.31753 0.350818,-0.178441 0.553336,-0.409801 0.450045,-0.514132 -0.103294,-0.104327 -0.05836,-0.189692 0.09987,-0.189692 0.162897,0 0.299822,0.840548 0.315681,1.937857 l 0.028,1.937858 -1.529365,0.7723 c -1.059573,0.535062 -1.569502,0.667345 -1.660019,0.430636 -0.08064,-0.210899 -0.324349,-0.0756 -0.636735,0.353501 -0.479623,0.658823 -0.517274,0.666329 -0.720094,0.143546 -0.165125,-0.42561 -0.218579,-0.334166 -0.23399,0.400293 -0.01103,0.523554 -0.152385,1.201805 -0.314217,1.507223 -0.202827,0.382785 -0.202827,0.555306 0,0.555306 0.161832,0 0.294237,-0.110029 0.294237,-0.244512 0,-0.134478 0.384833,-0.65124 0.855187,-1.14836 0.83649,-0.884079 2.555677,-1.298969 2.555677,-0.616758 0,0.157899 0.147731,0.287091 0.328293,0.287091 0.196419,0 0.139333,-0.210891 -0.14212,-0.525013 -0.632011,-0.705372 -0.604807,-0.762024 0.382952,-0.797462 0.795438,-0.02854 0.851776,0.03824 0.847714,1.004815 -0.0032,0.774175 -0.07387,0.926744 -0.279886,0.604748 -0.238308,-0.372455 -0.276121,-0.365993 -0.279887,0.04785 -0.0023,0.263164 0.152161,0.531177 0.343457,0.595584 0.240455,0.08096 0.05561,0.716573 -0.598854,2.059334 -0.741948,1.522234 -1.228507,2.122771 -2.250021,2.777095 -0.975868,0.625087 -1.359954,0.744849 -1.528581,0.476627 -0.12387,-0.197027 -0.227178,-0.245522 -0.22957,-0.10776 -0.0023,0.137761 -0.164236,0.123276 -0.35965,-0.03219 -0.552211,-0.43931 -1.918606,-0.700892 -1.918606,-0.367297 0,0.160908 0.192944,0.29256 0.428764,0.29256 0.357614,0 0.369855,0.09528 0.07375,0.574179 -0.274236,0.443525 -0.662852,0.57418 -1.707838,0.57418 -0.862699,0 -1.352817,-0.124812 -1.352817,-0.344507 0,-0.267951 -0.0758,-0.267951 -0.341084,0 -0.596048,0.602027 -1.008776,0.393307 -0.879923,-0.44499 0.11648,-0.757827 0.1035,-0.767142 -0.323652,-0.232219 -0.244755,0.306503 -0.445007,0.665424 -0.445007,0.797599 0,0.132176 -1.756463,0.204377 -3.90325,0.160446 l -3.903249,-0.07988 -0.0051,-0.717727 c -0.0028,-0.394749 -0.151788,-0.689842 -0.331167,-0.655768 -0.179478,0.0341 -0.268791,-0.159561 -0.1986,-0.430635 0.102431,-0.395607 -0.0572,-0.487025 -0.810807,-0.464321 -0.652476,0.01966 -0.939457,0.166547 -0.941976,0.482145 -0.002,0.249629 -0.08911,0.54022 -0.193595,0.645752 -0.104481,0.105532 -0.121144,0.373029 -0.03702,0.594441 0.08996,0.236813 -0.02538,0.402567 -0.280137,0.402567 -0.238194,0 -0.497595,-0.161488 -0.576446,-0.358862 -0.08566,-0.214383 -0.1524,-0.156591 -0.165803,0.143543 -0.01799,0.402501 -0.282838,0.502409 -1.331923,0.502409 -1.077299,0 -1.278889,-0.08052 -1.136952,-0.454116 0.0949,-0.249762 0.17253,-0.637334 0.17253,-0.86127 0,-0.248364 0.304845,-0.414251 0.781654,-0.425353 0.751349,-0.01748 0.756861,-0.02825 0.14212,-0.277837 -0.351746,-0.142804 -0.639537,-0.443769 -0.639537,-0.668814 0,-0.438243 0.740801,-0.857836 0.929098,-0.526244 0.06221,0.109553 0.09258,0.07 0.06751,-0.0879 -0.07103,-0.447109 -1.615307,-0.524735 -1.885177,-0.09477 -0.131818,0.21002 -0.241628,0.664906 -0.244021,1.010861 -0.0051,0.733265 -0.543716,1.174994 -0.840784,0.689504 -0.246778,-0.403303 -2.29139,-0.781453 -2.287295,-0.423033 0.0043,0.374776 2.235031,1.253621 2.712401,1.068597 0.249179,-0.09658 0.411327,0.01482 0.411327,0.28258 0,0.704918 -1.108864,0.905954 -1.607387,0.29142 -0.311436,-0.383911 -0.392005,-0.407079 -0.294572,-0.0847 0.09698,0.32087 -0.09336,0.46125 -0.687392,0.506967 -0.451828,0.03477 -0.840692,-0.06801 -0.864141,-0.228425 -0.02344,-0.160407 -0.05542,-0.453138 -0.07107,-0.650512 -0.01563,-0.197375 -0.220284,-0.516243 -0.45478,-0.708596 -0.29699,-0.243613 -0.318552,-0.352501 -0.07107,-0.358863 0.480643,-0.01235 0.451447,-0.484613 -0.04178,-0.675778 -0.255786,-0.09915 -0.443455,0.09115 -0.527415,0.534777 -0.07169,0.378773 -0.02092,0.620367 0.112835,0.536876 0.133749,-0.08349 0.243177,-0.01499 0.243177,0.152232 0,0.390689 -0.730903,0.39008 -1.454773,-0.0012 -0.310578,-0.167885 -0.781818,-0.25846 -1.047206,-0.20128 -0.271552,0.05851 0.168459,0.327088 1.006387,0.614283 0.818899,0.280678 1.54464,0.601409 1.612763,0.712736 0.06812,0.111328 -1.392063,0.233411 -3.244855,0.271291 -2.340784,0.04786 -3.431744,-0.03414 -3.575284,-0.268721 z M 87.033037,75.288656 C 86.78938,74.890451 86.61882,74.9647 86.61882,75.468983 c 0,0.246169 0.129994,0.366431 0.288874,0.267253 0.158881,-0.09918 0.215287,-0.300591 0.125343,-0.44758 z m -5.91911,-0.75546 c -0.279788,-0.282595 -0.975937,0.303248 -0.826801,0.695791 0.148054,0.38969 0.218424,0.380107 0.547591,-0.07458 0.20774,-0.28695 0.333383,-0.566498 0.27921,-0.621217 z m 3.134997,0.649641 c -0.102096,-0.268728 0.06087,-0.446901 0.467005,-0.510624 0.567592,-0.08905 0.540731,-0.142991 -0.298023,-0.59843 -1.351952,-0.734107 -2.346893,-1.080179 -2.346893,-0.816327 0,0.127312 0.319768,0.404324 0.710594,0.615588 0.445975,0.241072 0.710595,0.633323 0.710595,1.053328 0,0.423265 0.167872,0.669212 0.456767,0.669212 0.280442,0 0.396234,-0.159336 0.299955,-0.412747 z m 7.10073,-1.112675 c 0.462145,-0.912719 0.461878,-0.913633 -0.115809,-0.393838 -0.318464,0.286553 -0.643801,0.771195 -0.722973,1.076983 -0.206826,0.798839 0.295571,0.389661 0.838777,-0.683145 z m -15.135007,0.494705 c 0.222782,-0.58639 -0.02185,-0.978908 -0.610092,-0.978908 -0.391852,0 -0.378208,0.0702 0.08783,0.451926 0.30346,0.248555 0.391861,0.370125 0.196446,0.270146 -0.209264,-0.107064 -0.355297,0.0022 -0.355297,0.265799 0,0.583283 0.458391,0.577252 0.681108,-0.0089 z m -8.754364,-1.477438 c -0.06974,-0.07044 -0.385715,-0.04508 -0.702162,0.05637 -0.541949,0.173733 -0.547317,0.213377 -0.09248,0.682767 0.458086,0.472739 0.494136,0.469845 0.702162,-0.05637 0.120607,-0.305081 0.162222,-0.612326 0.09248,-0.682769 z m 27.531418,0.765782 c -0.08994,-0.146987 -0.363504,-0.267252 -0.607915,-0.267252 -0.361319,0 -0.378729,0.0799 -0.09315,0.427474 0.366993,0.446634 0.985841,0.3052 0.701053,-0.160222 z M 65.229873,73.41845 c -0.270865,-0.273584 -0.813913,0.169555 -0.612049,0.499451 0.119981,0.196082 0.278967,0.19113 0.483101,-0.01504 0.167347,-0.169028 0.225376,-0.387007 0.128948,-0.4844 z m 31.224766,-0.616009 c -0.09445,-0.09539 -0.161629,0.07417 -0.149288,0.376805 0.01364,0.334447 0.08098,0.402473 0.171726,0.173453 0.08211,-0.207246 0.07201,-0.454861 -0.02242,-0.550258 z M 68.42759,72.564199 c 0,-0.06964 -0.127907,-0.126602 -0.284238,-0.126602 -0.156331,0 -0.284238,0.136816 -0.284238,0.304035 0,0.167219 0.127907,0.224188 0.284238,0.126601 0.156331,-0.09759 0.284238,-0.234403 0.284238,-0.304034 z m 12.506471,0.143544 c 0,-0.167218 -0.127908,-0.224188 -0.284237,-0.1266 -0.156333,0.09759 -0.284239,0.234403 -0.284239,0.304033 0,0.06963 0.127906,0.126602 0.284239,0.126602 0.156329,0 0.284237,-0.136815 0.284237,-0.304035 z m 12.628503,-0.302975 c -0.08556,-0.139844 -0.58633,-0.254261 -1.112798,-0.254261 -0.664378,0 -0.985334,-0.145419 -1.049119,-0.475342 -0.08522,-0.440787 -0.120053,-0.441034 -0.479209,-0.0034 -0.333829,0.406777 -0.314206,0.495096 0.142119,0.639603 0.291185,0.09222 0.714216,0.264801 0.940069,0.383535 0.525323,0.276168 1.764356,0.04557 1.558938,-0.290137 z m 2.54467,-0.300114 c 0.23518,-1.187682 -0.02794,-1.407448 -0.693048,-0.57884 -0.427457,0.532538 -0.465548,0.747636 -0.188711,1.065667 0.521474,0.599076 0.684568,0.50903 0.881759,-0.486827 z m -30.126151,0.382765 c 0.07985,-0.130497 0.07328,-0.514981 -0.01461,-0.854411 -0.130458,-0.503869 -0.258367,-0.563854 -0.696884,-0.326809 -0.295405,0.159683 -0.537101,0.487195 -0.537101,0.727807 0,0.240614 0.127907,0.357634 0.284237,0.260046 0.156332,-0.09759 0.284238,-0.04061 0.284238,0.126602 0,0.359956 0.472336,0.406324 0.680111,0.06676 z m 22.911642,0.124439 c 0,-0.06206 -0.198504,-0.189766 -0.441121,-0.283802 -0.252949,-0.09804 -0.367042,-0.04992 -0.267463,0.112828 0.166923,0.272796 0.708584,0.403492 0.708584,0.170974 z m -14.922494,-0.74844 c -0.09661,-0.157899 -0.232076,-0.28709 -0.301015,-0.28709 -0.06894,0 -0.125343,0.129191 -0.125343,0.28709 0,0.157899 0.135457,0.287089 0.301014,0.287089 0.165557,0 0.221961,-0.12919 0.125344,-0.287089 z M 67.0064,71.145692 c 0,-0.394747 -0.127105,-0.717725 -0.282456,-0.717725 -0.221018,0 -0.23199,0.653199 -0.02291,1.363677 0.103414,0.351396 0.305365,-0.0758 0.305365,-0.645952 z m 9.664092,-0.01693 c 0,-0.06965 -0.127908,-0.126607 -0.284239,-0.126607 -0.156331,0 -0.284238,0.136816 -0.284238,0.304033 0,0.167219 0.127907,0.224189 0.284238,0.126601 0.156331,-0.09759 0.284239,-0.234402 0.284239,-0.304034 z m 16.201565,4.753923 c 0.234495,-0.153065 0.554263,-0.278296 0.710594,-0.278296 0.15633,0 0.09238,0.125231 -0.142119,0.278296 -0.234497,0.153064 -0.554264,0.278296 -0.710595,0.278296 -0.15633,0 -0.09238,-0.125232 0.14212,-0.278296 z M 77.807443,75.595588 c -0.22544,-0.140728 -0.345941,-0.320464 -0.267774,-0.399414 0.07815,-0.07895 0.326571,-0.0284 0.552012,0.112324 0.22544,0.140728 0.345941,0.320464 0.267774,0.399414 -0.07816,0.07895 -0.326571,0.0284 -0.552012,-0.112324 z m -4.832045,-1.739484 c 0,-0.325118 0.122321,-0.514768 0.271824,-0.42144 0.149505,0.09332 0.199771,0.35933 0.11171,0.591125 -0.225467,0.593446 -0.383534,0.523514 -0.383534,-0.169685 z M 37.44025,73.161895 c 0.409339,-0.498171 0.573876,-0.550019 0.573876,-0.180832 0,0.141006 -0.209951,0.337749 -0.466559,0.437206 -0.390112,0.151201 -0.407694,0.109191 -0.107323,-0.256374 z M 71.894222,71.10693 c -0.569969,-0.616277 -0.386656,-0.871247 0.654818,-0.910793 0.547159,-0.02078 0.994833,-2.88e-4 0.994833,0.04525 0,0.04567 -0.294669,0.341812 -0.654818,0.6581 -0.528308,0.463966 -0.720513,0.504043 -0.994833,0.207437 z M 68.45003,70.595436 c -0.01233,-0.30264 0.05483,-0.472203 0.149287,-0.376806 0.09445,0.09539 0.104542,0.343013 0.02242,0.550257 -0.09073,0.22902 -0.158087,0.160995 -0.171725,-0.173451 z M 2.39636,67.34175 C 2.3294969,67.223325 2.1235449,66.652303 1.9386888,66.072809 1.7538327,65.493318 1.4172689,64.863844 1.1907693,64.673981 0.63586817,64.208832 0.64670325,62.215046 1.2053082,61.998537 c 0.2568169,-0.09954 0.4263571,-0.0014 0.4263571,0.246386 0,0.559651 1.6991955,2.479022 2.0183007,2.279825 0.1405817,-0.08776 0.2556031,-0.03037 0.2556031,0.127534 0,0.157899 -0.1279071,0.366932 -0.2842379,0.46452 -0.156331,0.09759 -0.284238,0.03299 -0.284238,-0.143545 0,-0.176537 -0.122321,-0.244621 -0.2718242,-0.151293 -0.1495032,0.09332 -0.2000541,0.358587 -0.1123347,0.589474 0.087719,0.230885 0.2651552,0.353831 0.3943027,0.273212 0.4512135,-0.281662 0.6223217,0.497495 0.2595897,1.182066 -0.3557799,0.671452 -0.9646574,0.910397 -1.2104666,0.475034 z m 14.963466,-1.343369 c 0.09128,-0.240245 -0.03222,-0.54755 -0.275245,-0.684919 -0.349238,-0.197404 -0.414423,-0.631326 -0.313818,-2.088993 0.06984,-1.01191 0.229708,-2.150718 0.355261,-2.530682 0.163578,-0.49504 0.135028,-0.632634 -0.100729,-0.485464 -0.195451,0.122008 -0.329012,0.02369 -0.329012,-0.242197 0,-0.246168 0.159885,-0.457779 0.355297,-0.470244 0.284239,-0.01814 0.284239,-0.05162 0,-0.167469 -0.584441,-0.238193 -0.40803,-0.925616 0.5449,-2.123309 0.495108,-0.62228 0.824308,-1.208067 0.731553,-1.301749 -0.09276,-0.09368 -0.369025,0.221047 -0.613937,0.699407 -0.244911,0.478359 -0.55996,0.941323 -0.700105,1.028805 -0.145415,0.09078 -0.259781,-1.565327 -0.266388,-3.857508 -0.0064,-2.209115 0.0343,-4.016573 0.09038,-4.016573 0.05607,0 0.302941,0.203013 0.548603,0.451142 0.245663,0.248126 0.44666,0.320048 0.44666,0.159822 0,-0.160224 -0.249045,-0.467502 -0.553431,-0.682843 -0.464776,-0.328809 -0.550348,-0.722321 -0.534193,-2.456542 0.01054,-1.13576 0.09974,-2.081838 0.198134,-2.102392 0.09839,-0.02056 1.234129,-0.06816 2.523858,-0.105772 2.10155,-0.0613 2.344964,-0.01426 2.344964,0.453217 0,0.597702 1.176709,1.986649 1.68308,1.986649 0.231177,0 0.198246,-0.202711 -0.103656,-0.638061 -0.610402,-0.880214 -0.571878,-1.013226 0.4813,-1.661806 1.074573,-0.661753 2.202844,-0.749397 2.202844,-0.171113 0,0.486773 0.7687,0.830913 1.002505,0.448813 0.0924,-0.151003 0.08895,-0.403743 -0.0077,-0.561642 -0.240998,-0.393857 1.642645,-0.369078 2.516569,0.03309 0.651644,0.29989 0.672678,0.377272 0.33166,1.220134 -0.658457,1.627449 -0.770361,2.191843 -0.434586,2.191843 0.176092,0 0.241116,-0.12919 0.144499,-0.287091 -0.09662,-0.157899 -0.0346,-0.287089 0.137804,-0.287089 0.172411,0 0.282788,-0.161489 0.245289,-0.358862 -0.09403,-0.494884 0.316882,-1.650767 0.58684,-1.650767 0.42652,0 2.014565,2.354955 2.014565,2.987452 0,0.07979 -0.531582,-0.04436 -1.18129,-0.2759 -0.649708,-0.231529 -1.253563,-0.347964 -1.341898,-0.258742 -0.213396,0.215535 0.586937,0.705721 0.866902,0.530959 0.42092,-0.262753 1.940525,0.760332 1.940525,1.306471 0,0.298832 0.07387,0.737773 0.164164,0.975426 0.194293,0.511403 -0.444661,0.896318 -1.940652,1.169079 -1.054412,0.19225 -1.065938,0.184154 -1.070244,-0.751711 -0.0031,-0.666493 -0.07929,-0.826491 -0.257941,-0.541448 -0.139473,0.222529 -0.195928,0.556363 -0.125456,0.741856 0.0755,0.198717 -0.127816,0.327341 -0.494947,0.313122 -0.342694,-0.01326 -0.67307,0.120422 -0.734172,0.297096 -0.07042,0.203626 0.153184,0.2702 0.61077,0.181851 0.441883,-0.08532 0.721859,-0.0085 0.721859,0.198124 0,0.185626 0.128812,0.257092 0.286245,0.158815 0.157436,-0.09828 0.3627,0.02254 0.456143,0.268498 0.09344,0.245953 0.286485,0.374402 0.428986,0.285451 0.1425,-0.08895 0.190962,-0.273072 0.107694,-0.409149 -0.191644,-0.313201 0.05361,-0.456701 1.208011,-0.706777 0.902959,-0.195604 0.923774,-0.177642 0.923774,0.79727 0,1.677745 -1.077716,4.737596 -1.848244,5.247532 -0.378252,0.250328 -0.765973,0.70413 -0.861601,1.008452 -0.242476,0.771638 -2.201035,1.712578 -3.934957,1.89045 -1.019572,0.104599 -1.94312,-0.01755 -3.081211,-0.407483 l -1.625231,-0.556846 -0.0802,3.038543 -0.0802,3.038544 -2.238087,0.08449 c -1.905602,0.07193 -2.213491,0.01975 -2.07253,-0.351272 z m 1.077151,-0.814592 c -0.280719,-0.281423 -0.313367,-0.248449 -0.159115,0.160713 0.106747,0.283133 0.265675,0.442469 0.353189,0.354077 0.08751,-0.08839 1.78e-4,-0.320045 -0.194074,-0.51479 z m 0.844267,-1.279799 c -0.242018,-0.419923 -0.295297,-0.328483 -0.302418,0.51901 -0.0048,0.565809 0.08728,1.127263 0.204535,1.247677 0.337767,0.34689 0.423561,-1.201604 0.09789,-1.766687 z m 0.377445,-4.385443 0.476564,-1.004815 -0.582536,0.677755 c -0.320393,0.37277 -0.582535,0.878766 -0.582535,1.124437 0,0.562352 0.09677,0.450293 0.688507,-0.797377 z m 4.413272,0.259716 c -0.263013,-0.496376 -0.213963,-0.700152 0.280539,-1.165474 0.329607,-0.310158 0.533379,-0.671629 0.452829,-0.803272 -0.08056,-0.131643 0.18137,-0.322457 0.582051,-0.424028 0.923336,-0.234068 2.770922,-2.076945 2.50991,-2.503509 -0.133974,-0.218949 0.07826,-0.280375 0.667138,-0.193079 0.594332,0.08811 0.822768,0.0205 0.732611,-0.216794 -0.07205,-0.189652 -0.383547,-0.278115 -0.69221,-0.196587 -0.520701,0.137533 -0.556325,0.01473 -0.493578,-1.701738 0.0778,-2.128198 -0.552884,-3.569209 -1.836283,-4.19564 -0.794418,-0.387758 -1.095419,-1.105978 -0.340955,-0.813555 0.511914,0.19841 0.558738,-0.142366 0.08527,-0.620583 -0.529854,-0.535171 -0.795867,-0.410427 -0.795867,0.373216 0,0.564046 -0.144502,0.717726 -0.674858,0.717726 -0.371174,0 -1.221149,0.194676 -1.888837,0.432613 -0.881622,0.314177 -1.475034,0.359809 -2.167521,0.166688 -0.578541,-0.161345 -0.953544,-0.162124 -0.953544,-0.0019 0,0.145171 0.217443,0.263948 0.483205,0.263948 0.375827,0 0.407408,0.07656 0.142119,0.344507 -0.563269,0.568921 -0.385263,0.848587 0.29845,0.468899 1.146623,-0.636759 1.35013,-0.542181 1.35013,0.627479 0,0.915583 -0.108665,1.124129 -0.639534,1.227406 l -0.639537,0.124417 0.661272,0.03909 c 0.577344,0.03414 0.655017,0.175731 0.611995,1.115683 -0.0271,0.592123 -0.03688,1.798697 -0.02173,2.681272 0.02467,1.43713 0.104757,1.640223 0.767057,1.945016 0.57706,0.265563 0.669533,0.425503 0.420939,0.728048 -0.245077,0.29826 -0.138774,0.594689 0.460729,1.284748 0.911712,1.049434 1.078668,1.126728 0.638213,0.295475 z m -0.411852,-1.695167 c -0.09661,-0.157899 -0.04021,-0.287089 0.125344,-0.287089 0.165557,0 0.301013,0.12919 0.301013,0.287089 0,0.157901 -0.05641,0.28709 -0.125345,0.28709 -0.06894,0 -0.204394,-0.129189 -0.301012,-0.28709 z m 6.395355,0 c 0,-0.157899 -0.127908,-0.287089 -0.284239,-0.287089 -0.15633,0 -0.284238,0.12919 -0.284238,0.287089 0,0.157901 0.127908,0.28709 0.284238,0.28709 0.156331,0 0.284239,-0.129189 0.284239,-0.28709 z m -9.155942,-2.335968 c -0.07096,-0.215016 -0.199802,-0.08488 -0.300311,0.303325 -0.123637,0.477531 -0.08665,0.58962 0.124279,0.37658 0.165172,-0.166829 0.244387,-0.472786 0.176032,-0.679905 z M 31.63787,55.62111 c 0.536084,0.541461 0.81602,0.594325 0.495095,0.09349 -0.126475,-0.197373 -0.387662,-0.811029 -0.580417,-1.363678 -0.192753,-0.552648 -0.302214,-0.720139 -0.243243,-0.372206 0.142497,0.840763 -0.472943,1.66433 -1.070619,1.432678 -0.615074,-0.238395 -0.597761,0.07165 0.02995,0.536441 0.424132,0.314045 0.528649,0.283783 0.709393,-0.205391 0.192944,-0.522195 0.252179,-0.533088 0.659835,-0.121337 z M 19.905253,55.499287 c -0.10339,-0.399319 -0.0088,-0.57418 0.310848,-0.57418 0.25273,0 0.45951,-0.143195 0.45951,-0.318214 0,-0.191999 -0.268943,-0.250036 -0.678072,-0.146318 -0.429091,0.108775 -0.807163,0.01479 -1.029637,-0.255969 -0.193361,-0.235323 -0.507339,-0.42786 -0.69773,-0.42786 -0.248778,0 1.366608,2.115133 1.739292,2.277371 0.02445,0.01065 -0.02245,-0.239032 -0.104206,-0.55483 z M 17.72072,54.42868 c -0.09445,-0.0954 -0.16163,0.07416 -0.149288,0.376805 0.01364,0.334445 0.08098,0.402471 0.171727,0.17345 0.08211,-0.207243 0.07201,-0.454859 -0.02243,-0.550255 z m 3.318187,-0.974009 c -0.17538,-0.177139 -0.240967,-0.532414 -0.145749,-0.789497 0.150734,-0.406967 0.110643,-0.416079 -0.309953,-0.07046 -0.369879,0.303933 -0.407497,0.48894 -0.160534,0.789498 0.1774,0.215899 0.460373,0.392544 0.628827,0.392544 0.211403,0 0.207502,-0.09978 -0.01259,-0.322075 z m -3.43662,-2.457849 c -0.205184,-0.08293 -0.45034,-0.07273 -0.544789,0.02265 -0.09445,0.09539 0.07342,0.163252 0.373062,0.150786 0.331121,-0.01378 0.398472,-0.0818 0.171727,-0.173449 z M 29.20275,50.888899 c 0,-0.167217 -0.127908,-0.224188 -0.284238,-0.1266 -0.156331,0.09759 -0.284239,0.234404 -0.284239,0.304034 0,0.06963 0.127908,0.126601 0.284239,0.126601 0.15633,0 0.284238,-0.136816 0.284238,-0.304035 z m 3.268736,-0.557236 c -0.09661,-0.157899 -0.328006,-0.285111 -0.514193,-0.282693 -0.203404,0.0026 -0.168345,0.115475 0.08783,0.282693 0.546056,0.356432 0.644453,0.356432 0.426358,0 z M 19.538658,47.42896 c 0,-0.140407 -0.135456,-0.255287 -0.301013,-0.255287 -0.165557,0 -0.230918,0.114552 -0.145248,0.254561 0.08567,0.140008 -0.03468,0.414208 -0.267463,0.609333 -0.232776,0.195124 -0.418973,0.500442 -0.413772,0.67848 0.01091,0.373111 1.127496,-0.901537 1.127496,-1.287087 z m 2.700262,0.605983 c -0.09662,-0.157899 -0.328005,-0.285111 -0.514193,-0.282694 -0.203405,0.0026 -0.168347,0.115476 0.08783,0.282694 0.546057,0.356432 0.644454,0.356432 0.426358,0 z M 17.601102,46.53729 c -0.203958,-0.206004 -0.336347,-0.222954 -0.336347,-0.04306 0,0.383203 0.336142,0.722717 0.52584,0.531118 0.08077,-0.08158 -0.0045,-0.301204 -0.189493,-0.488054 z m 3.074509,0.05448 c -0.776617,-0.206464 -1.226088,-0.08311 -1.006254,0.276157 0.07698,0.125812 0.494769,0.157652 0.92841,0.07075 l 0.788438,-0.157999 -0.710594,-0.188911 z m 75.607301,16.407013 c 0,-0.471402 0.843728,-0.961336 1.330585,-0.772638 0.406569,0.157581 0.355874,0.255744 -0.31311,0.6063 -0.932367,0.488571 -1.017475,0.502486 -1.017475,0.166338 z m -3.221363,-0.226546 c -0.104218,-0.105262 -0.189492,-0.557432 -0.189492,-1.004816 0,-0.557391 0.144485,-0.81342 0.459046,-0.81342 0.42257,0 0.42257,-0.05622 0,-0.707625 -0.624278,-0.962326 -0.603469,-2.153605 0.03836,-2.196578 0.473729,-0.03172 0.473729,-0.03955 0,-0.164597 -0.395194,-0.104306 -0.494783,-0.436716 -0.484598,-1.617463 l 0.01281,-1.486172 0.41515,0.86127 c 0.39777,0.825217 0.409247,0.829594 0.274163,0.10462 -0.08905,-0.477956 0.02166,-0.892982 0.300585,-1.126794 0.397495,-0.333199 0.39384,-0.397129 -0.03659,-0.64043 -0.332644,-0.188025 -0.557608,-0.150902 -0.739201,0.121984 -0.165569,0.248802 -0.237913,-0.605179 -0.197809,-2.335097 0.03551,-1.531851 0.195916,-2.819809 0.365941,-2.938277 0.201747,-0.140565 0.184207,-0.212387 -0.05258,-0.215317 -0.229952,-0.0028 -0.355299,-0.451731 -0.355299,-1.272378 0,-0.745762 0.14633,-1.327616 0.355299,-1.412784 0.284238,-0.115844 0.284238,-0.149336 0,-0.167469 -0.231774,-0.01478 -0.355299,-0.501752 -0.355299,-1.400698 0,-0.757917 0.159885,-1.552014 0.355299,-1.764656 0.242886,-0.264306 0.248663,-0.326131 0.01825,-0.195418 -0.254841,0.144578 -0.341265,-1.241651 -0.354361,-5.684101 -0.0168,-5.703297 -0.232161,-7.341923 -0.964892,-7.341923 -0.157294,0 -0.201826,-0.085 -0.09896,-0.188902 0.102864,-0.103903 0.04456,-0.36228 -0.12955,-0.574181 -0.363968,-0.442953 -1.222383,-0.530973 -0.957564,-0.09819 0.107298,0.175357 -0.328659,0.28709 -1.120176,0.28709 -0.818389,0 -1.295846,-0.126934 -1.295846,-0.344509 0,-0.267949 -0.0758,-0.267949 -0.341087,0 -0.490597,0.49552 -17.522958,0.473479 -18.147631,-0.02349 -0.24178,-0.192353 -0.610178,-0.772375 -0.818662,-1.288936 -0.467196,-1.157575 -0.873517,-1.452788 -0.873517,-0.63465 0,0.337261 0.373881,0.99084 0.83085,1.452391 l 0.830848,0.839188 -1.15914,0 c -1.120954,0 -1.143034,-0.01797 -0.670213,-0.545679 0.279261,-0.311678 0.37187,-0.61875 0.215956,-0.716076 -0.150135,-0.09372 -0.346767,0.02386 -0.436965,0.261252 -0.09019,0.237407 -0.263484,0.415152 -0.38508,0.394986 -0.566319,-0.09389 -0.749231,0.06646 -0.363208,0.318426 0.301191,0.196597 -0.07431,0.278298 -1.27907,0.278298 -1.204758,0 -1.580261,-0.0817 -1.279072,-0.278298 0.284239,-0.185531 0.307924,-0.279762 0.07107,-0.282695 -0.195413,-0.0024 -0.355298,-0.262775 -0.355298,-0.578574 0,-0.3158 -0.142423,-0.574181 -0.316499,-0.574181 -0.189985,0 -0.266472,0.344276 -0.191347,0.86127 0.0985,0.677878 0.0189,0.861271 -0.373792,0.861271 -0.27442,0 -0.690806,-0.193786 -0.925302,-0.430635 -0.234496,-0.23685 -0.557587,-0.430636 -0.717981,-0.430636 -0.160388,0 -0.603101,-0.314604 -0.983799,-0.699124 -0.498586,-0.503591 -0.877759,-0.650107 -1.355717,-0.523865 -0.440385,0.116321 -0.526983,0.221237 -0.257498,0.31197 0.223324,0.07518 0.539791,0.246374 0.703265,0.380417 0.163471,0.134042 0.616987,0.497751 1.007815,0.808242 l 0.710595,0.564528 -0.639536,0.0095 c -0.351745,0.0053 -0.641494,-0.151936 -0.643888,-0.349311 -0.003,-0.245135 -0.07053,-0.259873 -0.213177,-0.0465 -0.324055,0.48471 -8.041204,0.542275 -8.37576,0.06248 -0.205914,-0.295308 -0.291953,-0.298697 -0.405531,-0.01596 -0.168496,0.419421 -5.213078,0.521261 -5.213078,0.10524 0,-0.46128 -1.539621,-0.560539 -2.325743,-0.149939 -0.923359,0.482259 -7.622587,0.584618 -7.622587,0.116449 0,-0.157899 -0.213177,-0.28709 -0.473731,-0.28709 -0.627662,0 -0.359745,-0.249846 0.392209,-0.365753 0.327005,-0.0504 0.766915,-0.227056 0.977575,-0.392561 0.210659,-0.165501 0.638833,-0.405557 0.951495,-0.533454 0.536329,-0.219391 0.538638,-0.239668 0.04087,-0.35858 -0.290184,-0.06931 -0.66751,0.01527 -0.838501,0.187975 -0.451505,0.456034 -1.334152,0.384841 -1.334152,-0.107607 0,-0.270216 0.16489,-0.357715 0.459159,-0.24366 0.370567,0.143626 0.419532,0.05186 0.253788,-0.475599 -0.158148,-0.503272 -0.116672,-0.6026 0.180376,-0.431947 0.307733,0.176796 0.315261,0.144806 0.03721,-0.158177 -0.255193,-0.278085 -0.264903,-0.481574 -0.03625,-0.759844 0.227237,-0.276552 0.226279,-0.380047 -0.0034,-0.380047 -0.443541,0 -1.459242,0.921211 -1.459242,1.323491 0,0.423703 -1.819242,0.325123 -2.359636,-0.127865 -0.216112,-0.181157 -0.483853,-0.237541 -0.594978,-0.125298 -0.111134,0.112241 -0.121233,-0.0087 -0.02245,-0.268635 0.287326,-0.756273 -0.890165,-0.301411 -1.682833,0.650071 -0.457478,0.549139 -0.853475,0.761392 -1.233329,0.661062 -0.682895,-0.180372 -1.668434,0.699712 -1.253202,1.119109 0.154165,0.155712 0.204603,0.482349 0.112092,0.725859 -0.110438,0.29068 -0.05399,0.371452 0.16433,0.235163 0.182898,-0.114173 0.332541,-0.07078 0.332541,0.09646 0,0.436263 -0.303088,0.375793 -0.913623,-0.182277 -0.499988,-0.457022 -0.520903,-0.457022 -0.347271,0 0.14825,0.390206 0.0168,0.48631 -0.66521,0.48631 -0.619336,0 -0.891545,-0.160567 -1.00318,-0.591742 -0.09376,-0.362163 0.0036,-0.652535 0.251086,-0.74844 0.222363,-0.08619 0.40145,-0.36896 0.397975,-0.628392 -0.0051,-0.378832 -0.102995,-0.347953 -0.497417,0.156854 -0.270103,0.345703 -0.841957,0.714757 -1.270786,0.820125 -0.42883,0.10536 -0.712525,0.301342 -0.630434,0.435501 0.0821,0.13416 0.337022,0.171153 0.566513,0.08221 0.22949,-0.08894 0.417254,-0.01871 0.417254,0.156081 0,0.473179 -1.0307,0.384113 -1.543006,-0.133336 -0.406055,-0.410128 -0.448477,-0.403602 -0.466638,0.07177 -0.01799,0.470745 -0.04435,0.465629 -0.264259,-0.05126 -0.141042,-0.331512 -0.252726,-0.403947 -0.264261,-0.17139 -0.01306,0.263297 -0.224946,0.16409 -0.611823,-0.286461 -0.579049,-0.674346 -0.600557,-0.677214 -0.994833,-0.132601 -0.221643,0.306158 -0.402988,0.661148 -0.402988,0.788869 0,0.267671 -2.677555,0.307491 -3.614621,0.05376 -0.658689,-0.178358 -1.094342,-1.039059 -0.968148,-1.912737 0.08572,-0.593381 -1.010863,-1.617436 -1.746941,-1.631418 -0.395646,-0.0075 -0.464814,0.143442 -0.324484,0.708174 0.134869,0.54275 0.06689,0.717725 -0.278823,0.717725 -0.251443,0 -0.45717,0.117759 -0.45717,0.261689 0,0.351575 0.693671,0.229025 1.225091,-0.216441 0.259226,-0.217295 0.496521,-0.25106 0.598073,-0.0851 0.238006,0.388963 -0.12292,1.218857 -0.443151,1.018959 -0.155461,-0.09705 -0.18931,0.142052 -0.08152,0.575829 0.115174,0.463471 0.06612,0.74178 -0.130726,0.74178 -0.173279,0 -0.315052,-0.181026 -0.315052,-0.402276 0,-0.389478 -1.946205,-1.746947 -2.174299,-1.516566 -0.253746,0.256291 0.275771,1.048094 0.816924,1.221574 0.765665,0.245451 0.127404,0.686637 -1.002375,0.692872 -0.631171,0.0035 -0.858122,-0.174327 -1.093697,-0.856875 C 10.052,26.928823 9.3041772,26.781101 9.3105268,27.723345 c 0.00344,0.522343 0.057077,0.563545 0.2798843,0.215317 0.1515446,-0.236848 0.2755334,-0.301445 0.2755334,-0.143544 0,0.451092 -0.4433528,1.041794 -0.727938,0.969867 -0.488864,-0.123555 -1.8108616,0.69719 -1.9775847,1.227755 -0.1486077,0.47292 -0.2140959,0.483939 -0.5942423,0.09998 -0.6081303,-0.614231 -0.6801003,-0.549183 -0.5548684,0.501526 0.061164,0.513174 0.2519483,0.900746 0.4239644,0.86127 0.2087958,-0.04792 0.3127566,0.749587 0.3127566,2.399208 0,2.01435 -0.074442,2.442128 -0.4028337,2.314847 -0.3930293,-0.152331 -0.8944697,0.602621 -0.5986898,0.901366 0.081846,0.08266 0.1488096,-0.0081 0.1488096,-0.201577 0,-0.193537 0.139052,-0.265082 0.3090041,-0.158991 0.2225138,0.1389 0.2225138,0.280248 0,0.504996 -0.4457539,0.450228 -0.3797859,0.780862 0.1173532,0.588179 0.3287704,-0.127426 0.4219538,0.05533 0.4071198,0.798506 -0.017561,0.87978 -0.045155,0.909643 -0.3166651,0.342726 -0.299441,-0.625239 -1.3695256,-1.128424 -1.3695256,-0.643994 0,0.143117 0.1918606,0.260213 0.4263569,0.260213 0.2344964,0 0.426357,0.125136 0.426357,0.278081 0,0.152941 -0.1918606,0.203716 -0.426357,0.112828 -0.3056237,-0.118455 -0.4263569,0.02887 -0.4263569,0.520248 0,0.50778 -0.2361878,0.775545 -0.9110196,1.032824 -0.836582,0.318891 -0.9766837,0.283839 -1.7128257,-0.428505 -0.4409478,-0.426693 -0.7432906,-0.929606 -0.6718735,-1.117585 0.1942176,-0.5112 -0.1524125,-0.724129 -0.586484,-0.360269 -0.64323621,0.539197 -0.53208392,-4.268595 0.1159663,-5.016019 0.4737301,-0.546375 0.4737301,-0.56497 0,-0.39048 -0.44885202,0.165327 -0.4974165,-0.05417 -0.4974165,-2.248038 0,-1.429444 0.11712179,-2.431256 0.284238,-2.431256 0.1563309,0 0.2842379,0.193786 0.2842379,0.430634 0,0.356802 0.089737,0.344498 0.5233879,-0.07177 0.6146434,-0.590004 0.5178677,-0.933043 -0.2632239,-0.933043 -0.5296097,0 -0.5358162,-0.04529 -0.1180447,-0.86127 0.2425254,-0.473697 0.6615083,-0.863248 0.9310727,-0.865665 0.3940049,-0.0036 0.4122982,-0.05417 0.093285,-0.258188 -0.5772145,-0.369156 0.7311041,-1.604796 2.6278395,-2.481865 1.4558498,-0.673197 1.7235405,-0.697003 7.456073,-0.663026 4.049527,0.024 6.012613,0.138084 6.154833,0.357681 0.14795,0.228442 0.210097,0.217823 0.213179,-0.03643 0.0031,-0.260182 0.707795,-0.358862 2.562495,-0.358862 1.800173,0 2.558141,0.102078 2.558141,0.344507 0,0.26795 0.0758,0.26795 0.341086,0 0.209186,-0.211284 1.115999,-0.32939 2.344963,-0.305411 1.102134,0.0215 1.684111,0.09787 1.293283,0.169721 -0.390827,0.07185 -0.912742,0.312825 -1.159808,0.535518 -0.31372,0.28277 -0.881868,0.361395 -1.88361,0.260681 -1.071037,-0.107683 -1.525587,-0.03323 -1.794385,0.293896 -0.320818,0.39044 -0.422659,0.382654 -0.935907,-0.07154 -0.520713,-0.460797 -0.559183,-0.463206 -0.40132,-0.02513 0.124488,0.345461 0.0019,0.510254 -0.426955,0.574179 -0.330856,0.04931 -0.660144,0.269133 -0.731755,0.488487 -0.07473,0.228917 -0.0018,0.318653 0.171276,0.210632 0.165809,-0.103501 0.381812,-0.05688 0.480006,0.103589 0.266596,0.435679 1.281937,0.352213 1.281937,-0.105392 0,-0.416014 0.833446,-0.740638 1.918605,-0.74729 0.351745,-0.0021 0.639537,0.125272 0.639537,0.283172 0,0.1579 -0.234497,0.287089 -0.521103,0.287089 -0.59323,0 -0.945416,0.267842 -0.757025,0.575723 0.252759,0.413078 1.6138,-0.09074 1.851633,-0.685413 0.205885,-0.514796 0.245938,-0.528396 0.261192,-0.08868 0.0099,0.285644 0.14801,0.438202 0.306891,0.339024 0.158881,-0.09918 0.225367,-0.284112 0.147746,-0.410965 -0.07762,-0.126852 0.677092,-0.63749 1.677138,-1.13475 l 1.818262,-0.904109 6.27689,0.02992 c 5.084778,0.02424 6.276892,0.103991 6.276892,0.419919 0,0.592872 -0.441967,0.745349 -1.255218,0.433046 -0.403948,-0.15512 -0.734448,-0.170049 -0.734448,-0.03317 0,0.540999 1.439981,0.610773 2.130665,0.103242 0.381618,-0.280421 0.697869,-0.602697 0.702784,-0.716167 0.005,-0.113467 0.192717,-0.135073 0.41734,-0.04802 0.547281,0.21212 0.262543,0.878014 -0.456669,1.067978 -0.861194,0.227467 -0.338685,0.770343 0.704571,0.732037 0.498849,-0.01831 0.685878,-0.09186 0.415621,-0.16342 -0.448173,-0.118677 -0.437225,-0.204098 0.124514,-0.971513 0.468273,-0.639732 0.844502,-0.841394 1.56973,-0.841394 0.614862,0 0.926328,0.127533 0.87643,0.358862 -0.09086,0.421238 0.899267,1.652757 1.323668,1.646371 0.181983,-0.0028 0.174213,-0.08393 -0.0206,-0.215317 -0.309791,-0.20893 -0.966324,-1.314672 -0.966324,-1.627498 0,-0.287068 3.144502,-0.172955 3.713781,0.134771 0.378982,0.204862 0.549789,0.204862 0.549789,0 0,-0.465876 1.419859,-0.347648 1.602639,0.133445 0.08999,0.236849 0.299737,0.430636 0.466116,0.430636 0.166378,0 0.549239,0.225531 0.850801,0.50118 0.444838,0.406609 0.536565,0.420155 0.486121,0.07177 -0.208228,-1.43809 -0.254487,-1.421653 3.98451,-1.415742 2.188632,0.003 3.979332,0.103501 3.979332,0.223207 0,0.396678 -0.632133,0.863977 -0.984165,0.727534 -0.508959,-0.197265 -0.376599,1.869077 0.141266,2.205364 0.346529,0.225029 0.351721,0.312715 0.0309,0.521696 -0.270871,0.17644 -0.291422,0.31002 -0.06906,0.448831 0.174124,0.108695 0.396978,-0.01395 0.495227,-0.272561 0.130406,-0.343239 0.377193,-0.419851 0.914048,-0.283759 0.723799,0.183484 0.727147,0.177204 0.211871,-0.397884 -0.287951,-0.321371 -0.604245,-0.57414 -0.702879,-0.561709 -1.197016,0.150869 -1.153861,-0.57182 0.10314,-1.727139 0.86356,-0.793706 1.17863,-0.906102 2.416023,-0.861867 1.387925,0.04962 1.42318,0.07271 1.431996,0.93838 0.01163,1.148279 0.588402,1.897036 1.443486,1.874126 0.673655,-0.01805 0.674139,-0.02027 0.05831,-0.270896 -0.707645,-0.287971 -1.226603,-1.124333 -1.226603,-1.976792 0,-0.572763 0.152758,-0.581338 10.651883,-0.598001 9.297769,-0.01475 10.631337,0.03718 10.490267,0.408487 -0.08889,0.233964 0.10846,0.808477 0.438544,1.276695 0.41313,0.586011 0.500521,0.913503 0.28043,1.05089 -0.236007,0.147323 -0.234832,0.252584 0.0044,0.401972 0.418757,0.26141 0.08087,1.161293 -0.436058,1.161293 -0.217768,0 -0.395946,0.175246 -0.395946,0.389432 0,0.246633 0.30702,0.378224 0.837281,0.358863 0.460504,-0.01682 0.729428,-0.14006 0.597604,-0.273884 -0.131821,-0.133824 -0.03591,-0.601913 0.213132,-1.040202 0.434376,-0.764452 0.421068,-0.834987 -0.32691,-1.732826 -0.428845,-0.514767 -0.740176,-1.14331 -0.69185,-1.396765 0.114814,-0.602137 1.076171,-0.797172 1.076171,-0.218326 0,0.239108 0.14161,0.52314 0.314688,0.631182 0.211766,0.13219 0.251983,-0.0031 0.122968,-0.413692 -0.177714,-0.565542 -0.08978,-0.610131 1.203219,-0.610131 1.61309,0 5.249475,1.61192 4.57965,2.030047 -0.272879,0.170342 -0.16822,0.312876 0.386018,0.525711 0.449419,0.172584 1.006211,0.77866 1.361437,1.481947 0.330566,0.654465 0.477105,1.11258 0.325641,1.01803 -0.27078,-0.169031 -0.619196,0.424081 -0.619196,1.054054 0,0.223597 0.103523,0.216471 0.341086,-0.02349 0.187597,-0.18948 0.44341,-0.344509 0.568476,-0.344509 0.389634,0 0.279094,13.900354 -0.113699,14.297084 -0.265287,0.26795 -0.265287,0.344508 0,0.344508 0.214759,0 0.341086,0.478484 0.341086,1.291904 0,1.532881 -0.500503,1.705344 -1.569139,0.540697 -0.510432,-0.556291 -0.62152,-0.879092 -0.428133,-1.244067 0.208028,-0.392604 -0.01042,-0.716493 -1.073633,-1.592273 -0.734132,-0.604675 -1.184897,-0.933436 -1.001698,-0.730578 0.183199,0.202859 0.256921,0.569305 0.163832,0.814326 -0.12395,0.326248 -0.04308,0.396591 0.302115,0.262798 0.305291,-0.118327 0.576561,0.01585 0.769941,0.380794 0.210247,0.396796 0.208571,0.563491 -0.0057,0.563491 -0.595582,0 -1.705428,-0.935648 -1.705428,-1.437752 0,-0.280745 -0.186367,-0.582681 -0.414149,-0.670966 -0.335561,-0.130059 -0.362523,-0.02336 -0.142078,0.562262 0.182178,0.483974 0.168776,0.917727 -0.04056,1.312808 -0.179283,0.338359 -0.192562,0.515074 -0.03113,0.414303 0.154827,-0.09665 0.484561,0.137289 0.732743,0.519862 0.256944,0.396087 0.789422,0.734959 1.23667,0.787031 0.47562,0.05538 0.822645,0.289623 0.879766,0.593855 0.119596,0.636998 -0.412728,0.647558 -1.033547,0.0205 -0.446662,-0.45115 -0.483125,-0.45039 -0.57129,0.01195 -0.06532,0.342483 -0.261325,0.440261 -0.639534,0.319018 -0.305145,-0.09783 -0.54536,-0.03986 -0.54536,0.131601 0,0.168542 0.127907,0.306436 0.284238,0.306436 0.156332,0 0.284238,0.193787 0.284238,0.430636 0,0.236849 0.127907,0.430635 0.284239,0.430635 0.15633,0 0.284238,0.189732 0.284238,0.421627 0,0.268641 0.165107,0.35763 0.455041,0.245255 0.250275,-0.097 0.555742,-0.0118 0.678817,0.189336 0.123076,0.201137 0.368069,0.275629 0.544427,0.165541 0.176359,-0.11009 0.252526,-0.311502 0.169261,-0.447579 -0.08327,-0.136078 -0.03024,-0.323045 0.117846,-0.415479 0.148079,-0.09244 0.349575,-0.03678 0.447768,0.123707 0.09819,0.160474 0.324475,0.291772 0.502846,0.291772 0.233601,0 0.228912,-0.09635 -0.01677,-0.344508 -0.569061,-0.574771 -0.386873,-1.090943 0.385064,-1.090943 l 0.726151,0 -0.08663,3.803944 c -0.07175,3.151008 -0.159794,3.803943 -0.512969,3.803943 -0.234497,0 -0.468793,0.302738 -0.520662,0.672749 -0.07942,0.566569 -8.52e-4,0.642812 0.497417,0.483064 0.536368,-0.171947 0.59172,-0.07508 0.59172,1.035432 0,0.772161 -0.09961,1.124288 -0.269378,0.95239 -0.516542,-0.522972 -1.720292,-3.034657 -1.720292,-3.58946 0,-0.307445 -0.127908,-0.55899 -0.284238,-0.55899 -0.156332,0 -0.284239,0.13165 -0.284239,0.292558 0,0.173523 -0.308149,0.214445 -0.757329,0.10058 -0.65059,-0.164928 -0.729358,-0.118353 -0.558851,0.330437 0.117174,0.308398 0.04898,0.627746 -0.166442,0.779505 -0.241327,0.170005 -0.1568,0.198255 0.249566,0.0834 0.505473,-0.142858 0.646517,-0.02638 0.79502,0.656527 0.150658,0.692817 0.295278,0.808041 0.873966,0.696306 0.602392,-0.11631 0.770248,0.0471 1.278449,1.244577 0.321754,0.758155 0.653552,1.967898 0.737325,2.688318 l 0.152314,1.309853 -0.585096,-0.717726 c -0.63474,-0.778627 -0.767604,-1.582615 -0.308858,-1.868978 0.322494,-0.20131 0.106807,-0.714831 -0.300232,-0.714831 -0.532182,0 -0.624554,1.432283 -0.140496,2.178459 0.485734,0.748765 0.418125,1.553711 -0.1305,1.553711 -0.165105,0 -0.421768,-0.322976 -0.570359,-0.717725 -0.40573,-1.07786 -0.664232,-0.86363 -0.466322,0.386458 0.09615,0.607301 0.104818,1.174887 0.01924,1.261301 -0.19085,0.192764 -1.893639,-0.626749 -2.166684,-1.042774 -0.108749,-0.165697 -0.292081,-0.205961 -0.407407,-0.08948 -0.115328,0.116484 -0.06136,0.361591 0.1199,0.544678 0.24043,0.242844 0.245113,0.4357 0.01731,0.712943 -0.345699,0.42072 -0.619647,0.47777 -0.905891,0.188652 z m 2.421943,-1.44017 c -0.205186,-0.08292 -0.450341,-0.07273 -0.544791,0.02265 -0.09445,0.0954 0.07342,0.163251 0.373063,0.150786 0.331123,-0.01379 0.398472,-0.08181 0.171728,-0.173448 z m 0.79942,-2.153876 c 0,-0.394223 -1.123401,-1.66927 -1.470736,-1.66927 -0.432684,0 -0.24047,0.674506 0.383329,1.345175 0.678115,0.729059 1.087407,0.851046 1.087407,0.324095 z m 1.58354,-6.672549 c 0.09525,-0.383311 0.04793,-0.922988 -0.105153,-1.199278 -0.371504,-0.670504 -1.401975,-0.726636 -1.567994,-0.08542 -0.08848,0.341749 -0.0034,0.45407 0.26485,0.35006 0.267162,-0.103545 0.452366,0.135865 0.571837,0.739206 0.211408,1.067653 0.597318,1.157813 0.836463,0.195424 z m -2.593018,-2.278665 c 0.774689,-0.72516 0.952681,-1.314803 0.369941,-1.225509 -0.623941,0.0956 -1.08082,0.499364 -0.899811,0.795184 0.09644,0.157615 -0.09334,0.357542 -0.421718,0.444281 -0.328393,0.08674 -0.597076,0.271828 -0.597076,0.41131 0,0.479192 0.824227,0.252855 1.548664,-0.425266 z m -1.264427,-9.799912 c -0.194614,-0.23685 -0.398123,-0.430636 -0.452239,-0.430636 -0.05412,0 -0.02475,0.193786 0.06521,0.430636 0.08999,0.23685 0.293493,0.430636 0.45224,0.430636 0.166368,0 0.138742,-0.182421 -0.06522,-0.430636 z M 4.5561634,38.925299 C 4.6949621,38.191935 4.678732,38.176927 4.3050612,38.69308 3.8483203,39.323978 3.792052,39.709335 4.1566719,39.709335 c 0.138106,0 0.3178775,-0.352816 0.3994915,-0.784036 z M 98.116246,39.46826 c -0.148514,-0.132593 -0.7177,-0.417817 -1.264858,-0.633828 -0.547158,-0.216016 -1.163461,-0.5593 -1.369562,-0.762859 -0.425411,-0.420165 -0.223007,-1.389306 0.452403,-2.166181 0.392188,-0.451106 0.392276,-0.502407 8.52e-4,-0.502407 -0.239761,0 -0.568957,0.355274 -0.731547,0.789498 -0.423164,1.130133 -0.709225,2.548185 -0.464092,2.300593 0.114503,-0.115646 0.351086,-0.01286 0.525749,0.228397 0.174665,0.241264 0.748368,0.493732 1.274894,0.561037 0.526527,0.06731 1.025143,0.190873 1.108036,0.274599 0.0829,0.08372 0.282885,0.152226 0.444428,0.152226 0.183319,0 0.192221,-0.09061 0.02368,-0.241075 z M 2.2712012,36.883976 C 1.9976221,36.593223 1.6716435,36.410941 1.5468041,36.478901 c -0.3192137,0.173773 0.3565268,0.933714 0.8302601,0.933714 0.2942516,0 0.2679446,-0.131367 -0.1058634,-0.528639 z m 1.8060955,-1.116148 c -0.094451,-0.09539 -0.1616294,0.07418 -0.1492876,0.376805 0.013637,0.334447 0.080991,0.402471 0.1717273,0.173452 0.082108,-0.207245 0.07201,-0.45486 -0.022441,-0.550257 z m -2.1613931,-0.07776 c 0,-0.1579 -0.1279071,-0.287091 -0.2842378,-0.287091 -0.156331,0 -0.2842382,0.129191 -0.2842382,0.287091 0,0.157899 0.1279072,0.287088 0.2842382,0.287088 0.1563307,0 0.2842378,-0.129189 0.2842378,-0.287088 z m 3.3826721,-1.453043 c -0.5508842,-0.343883 -0.685397,-0.07429 -0.2358882,0.47277 0.2741393,0.333631 0.4189298,0.367493 0.5015055,0.11728 0.06385,-0.193477 -0.055678,-0.459 -0.2656173,-0.59005 z m 93.2582393,0.256832 c 0,-0.131582 -0.263363,-0.23924 -0.585251,-0.23924 -0.321888,0 -0.519375,0.107661 -0.43886,0.23924 0.08051,0.131585 0.343879,0.239244 0.58525,0.239244 0.241375,0 0.438861,-0.107662 0.438861,-0.239244 z M 3.9099221,33.717066 c 0.00284,0.256329 0.077325,0.286376 0.2131783,0.08598 0.1148541,-0.169419 0.4326634,-0.391448 0.7062425,-0.493399 0.273579,-0.101949 0.4974164,-0.332433 0.4974164,-0.51218 0,-0.198656 -0.1950651,-0.245706 -0.4974164,-0.119987 -1.0624039,0.44176 -1.5093497,0.484748 -1.8727473,0.180129 -0.2840828,-0.238133 -0.3774701,-0.214126 -0.3774701,0.09704 0,0.227395 0.1065898,0.34691 0.2368652,0.265587 0.1302756,-0.08132 0.2368649,0.06937 0.2368649,0.334873 0,0.396543 0.076122,0.418919 0.4263569,0.125335 0.3437282,-0.288132 0.4272006,-0.281035 0.4307096,0.03662 z M 96.851388,31.613398 c 0,-0.463772 -0.08406,-0.546704 -0.316322,-0.312105 -0.173972,0.175719 -0.23038,0.459938 -0.125342,0.631597 0.294013,0.480498 0.441664,0.373689 0.441664,-0.319492 z M 3.6968513,30.881317 C 3.621865,30.683943 3.4547842,30.522455 3.3255632,30.522455 c -0.1292215,0 -0.2799029,-0.355274 -0.3348475,-0.789498 -0.082004,-0.648076 -0.123704,-0.583794 -0.2327928,0.358862 -0.1182281,1.021633 -0.066231,1.148361 0.4711877,1.148361 0.3664879,0 0.5504568,-0.141144 0.4677407,-0.358863 z m 1.3845283,-0.585021 c -0.2050609,-0.06903 -0.5079782,0.01097 -0.6731495,0.177799 -0.2109239,0.21304 -0.099948,0.250403 0.3728375,0.125527 0.3843478,-0.101514 0.5131909,-0.231653 0.300312,-0.303326 z M 95.047874,29.817112 c -0.09257,-0.243659 -0.304734,-0.443017 -0.47147,-0.443017 -0.210212,0 -0.205886,0.183582 0.01409,0.598769 0.352823,0.665873 0.721782,0.540228 0.457361,-0.155752 z m 2.940465,-0.172871 c 0,-0.148581 -0.127907,-0.270146 -0.284238,-0.270146 -0.15633,0 -0.284238,0.20141 -0.284238,0.447579 0,0.246168 0.127908,0.367733 0.284238,0.270145 0.156331,-0.09759 0.284238,-0.298998 0.284238,-0.447578 z M 7.1406402,28.928548 c 0.097067,-0.255487 0.049415,-0.370725 -0.1117089,-0.270145 -0.1545401,0.09648 -0.2809824,0.296966 -0.2809824,0.445546 0,0.412959 0.2037321,0.321959 0.3926911,-0.175401 z M 4.4658139,28.524038 C 4.6957826,28.377144 4.7978038,28.169955 4.6925275,28.063624 4.5872514,27.957287 4.294028,28.07944 4.0409208,28.335102 3.5408003,28.840243 3.7943131,28.952971 4.4658139,28.524038 z M 18.386542,28.096544 c -0.44098,-0.446979 -0.304781,-0.832316 0.157283,-0.444989 0.340231,0.2852 0.426357,0.285051 0.426357,-8.62e-4 0,-0.242329 0.267403,-0.304111 0.827004,-0.191067 0.925269,0.18691 1.303777,-0.285688 0.775745,-0.968583 -0.305409,-0.394982 -1.698412,-0.663664 -1.465252,-0.282617 0.06008,0.09818 0.0033,0.351612 -0.126145,0.56318 -0.187469,0.306374 -0.363362,0.264235 -0.864188,-0.207037 -0.375071,-0.352937 -0.541544,-0.734325 -0.412546,-0.945141 0.132998,-0.217355 0.09874,-0.280073 -0.08897,-0.162894 -0.167881,0.104793 -0.475435,0.02618 -0.683453,-0.174681 -0.67124,-0.648189 -1.777999,-1.266498 -2.652115,-1.481651 l -0.852715,-0.209886 0.627652,0.595106 c 0.345206,0.327435 0.721929,0.595233 0.83716,0.595233 0.444304,0 1.803925,1.569724 1.803925,2.082688 0,0.409167 0.137585,0.49571 0.568477,0.357577 0.675243,-0.216466 0.743742,0.212596 0.132502,0.829968 -0.391801,0.395734 -0.350144,0.434169 0.411196,0.379369 0.534288,-0.03845 0.74779,-0.161705 0.578089,-0.333713 z m 23.891155,-0.831447 c 0,-0.152192 -0.2528,-0.04563 -0.561775,0.236786 -0.308974,0.282424 -0.481311,0.644994 -0.382971,0.805713 0.185628,0.303362 0.944746,-0.534301 0.944746,-1.042499 z m 17.107573,1.051614 c -0.205186,-0.08293 -0.450342,-0.07273 -0.544791,0.02265 -0.09445,0.09539 0.07342,0.163251 0.373062,0.150786 0.331123,-0.01378 0.398474,-0.0818 0.171729,-0.173449 z m 11.59611,-0.753874 c 0.0024,-0.127742 -0.123556,-0.152415 -0.279886,-0.05483 -0.156331,0.09759 -0.282279,0.395892 -0.279888,0.662896 0.0037,0.418368 0.04243,0.425948 0.279888,0.05483 0.151544,-0.23685 0.277492,-0.535153 0.279886,-0.662898 z m 10.887752,0.375807 c 0.08588,-0.331703 0.0088,-0.574179 -0.182713,-0.574179 -0.182257,0 -0.491135,0.258381 -0.686395,0.574179 -0.308043,0.498205 -0.283866,0.574181 0.182713,0.574181 0.29869,0 0.603822,-0.255246 0.686395,-0.574181 z M 7.3164258,27.613628 c 0,0.197397 0.1341178,0.275181 0.29804,0.172856 0.4259645,-0.265903 -0.2329241,-1.003417 -0.7257838,-0.812391 -0.2123995,0.08232 -0.3670846,0.405725 -0.343745,0.718677 0.039831,0.534085 0.064799,0.538104 0.4069619,0.06547 0.21529,-0.29738 0.3645269,-0.356588 0.3645269,-0.144617 z m 1.4211895,0.164527 c 0,-0.06963 -0.1279067,-0.1266 -0.2842381,-0.1266 -0.1563314,0 -0.2842383,0.136816 -0.2842383,0.304034 0,0.167218 0.1279069,0.224188 0.2842383,0.1266 0.1563314,-0.09759 0.2842381,-0.234403 0.2842381,-0.304034 z m 45.9180537,-0.85681 -0.791404,-0.637378 0.60207,-0.608111 c 0.535996,-0.541375 0.547187,-0.608112 0.101965,-0.608112 -0.275059,0 -0.658603,0.25634 -0.852323,0.569647 -0.303355,0.490623 -0.244669,0.686469 0.423049,1.41178 0.426393,0.46317 0.89514,0.7673 1.041652,0.67584 0.146516,-0.09147 -0.08974,-0.45311 -0.525013,-0.803666 z M 5.3734792,26.42274 C 5.9343991,25.614697 5.9450065,25.552568 5.457773,25.929014 4.7774477,26.454648 4.21102,27.140413 4.1988468,27.453182 4.1835607,27.845938 4.7000689,27.39283 5.373479,26.42274 z m 17.5329418,0.04748 c -0.210795,-0.134926 -0.735009,-0.247301 -1.164917,-0.249719 -0.769262,-0.0044 -0.773052,0.0044 -0.238992,0.543714 0.298464,0.301459 0.778116,0.595824 1.065892,0.654146 0.624901,0.126645 0.883576,-0.598935 0.338017,-0.948141 z m 20.284901,-0.25218 c -0.204495,-1.407286 -0.629388,-1.299392 -0.629388,0.159822 0,1.085558 0.07267,1.283082 0.377921,1.027207 0.224185,-0.187926 0.326481,-0.670797 0.251467,-1.187029 z m 29.485626,0.857909 c 0.242313,-8.61e-4 0.82429,-0.316342 1.293283,-0.701238 l 0.852713,-0.69981 -0.994833,0.350907 c -1.440367,0.508064 -2.273904,1.02352 -2.273904,1.406176 0,0.248873 0.08724,0.246288 0.341087,-0.0101 0.187596,-0.18948 0.539341,-0.345152 0.781654,-0.345935 z m 19.058156,0.305461 c 0,-0.338726 -0.554363,-0.701074 -0.757969,-0.495428 -0.203603,0.205648 0.155145,0.765574 0.490506,0.765574 0.147104,0 0.267463,-0.121565 0.267463,-0.270146 z M 41.074781,26.790285 c -0.19526,-0.3158 -0.54809,-0.56398 -0.784064,-0.551515 -0.291765,0.01541 -0.31536,0.06899 -0.07375,0.167468 0.195413,0.07965 0.355298,0.327825 0.355298,0.551515 0,0.223692 0.192944,0.406712 0.428764,0.406712 0.357615,0 0.369853,-0.09528 0.07375,-0.57418 z m 8.872988,0.358862 c -0.0079,-0.392931 -0.530476,-1.062727 -0.69748,-0.894047 -0.223907,0.226155 0.132765,1.109365 0.448005,1.109365 0.139604,0 0.251869,-0.09689 0.249475,-0.215318 z m 2.665284,-0.215318 c 0.09866,-0.259686 0.0014,-0.430634 -0.244909,-0.430634 -0.246349,0 -0.343566,0.170948 -0.244907,0.430634 0.08999,0.23685 0.200193,0.430636 0.244907,0.430636 0.0447,0 0.154921,-0.193786 0.244909,-0.430636 z m 35.569075,-0.430634 c 0.282958,-0.315799 0.376113,-0.574181 0.207014,-0.574181 -0.169096,0 -0.365944,-0.226083 -0.437436,-0.502407 -0.07149,-0.276325 -0.144829,-0.08254 -0.162962,0.430635 -0.02729,0.772563 -0.145413,0.933043 -0.686719,0.933043 -0.359562,0 -0.807236,-0.155029 -0.994832,-0.344509 -0.237007,-0.239384 -0.341087,-0.246684 -0.341087,-0.02391 0,0.785502 1.732826,0.843841 2.416022,0.08135 z m 4.676898,-0.02457 c -0.174496,-0.329321 -0.386657,-0.528679 -0.471472,-0.443015 -0.234285,0.236638 0.140997,1.041784 0.485582,1.041784 0.210211,0 0.205885,-0.183582 -0.01409,-0.598769 z m -53.423711,0.02457 c 0.234497,-0.153066 0.29845,-0.278297 0.14212,-0.278297 -0.156331,0 -0.476097,0.125231 -0.710594,0.278297 -0.234496,0.153064 -0.29845,0.278297 -0.14212,0.278297 0.156331,0 0.4761,-0.125233 0.710594,-0.278297 z m 57.70031,-0.39992 c 0,-0.06206 -0.19186,-0.187191 -0.426357,-0.278081 -0.234496,-0.09089 -0.426356,-0.04012 -0.426356,0.11283 0,0.152944 0.19186,0.278081 0.426356,0.278081 0.234497,0 0.426357,-0.05078 0.426357,-0.11283 z M 8.2775926,25.483468 c 0.097062,-0.255486 0.049418,-0.370725 -0.111709,-0.270146 -0.1545407,0.09647 -0.2809828,0.296966 -0.2809828,0.445547 0,0.412958 0.2037322,0.32196 0.3926918,-0.175401 z m 38.0242994,-0.01437 c -0.669551,-0.473676 -1.09846,-0.387726 -0.767147,0.153728 0.103042,0.168404 0.464081,0.30619 0.802301,0.30619 l 0.614947,0 -0.650101,-0.459918 z m 1.944802,0.01234 c 0,-0.06963 -0.19941,-0.126601 -0.443134,-0.126601 -0.243721,0 -0.362789,0.131296 -0.264596,0.291771 0.162246,0.265151 0.70773,0.137847 0.70773,-0.16517 z m 4.800749,0.05503 c 0.244088,-0.297064 0.226338,-0.47319 -0.07297,-0.724092 -0.317207,-0.265901 -0.422657,-0.188174 -0.532566,0.392543 -0.150959,0.797613 0.106675,0.938675 0.605541,0.331549 z m 3.442152,0.105456 c 0,-0.157899 -0.120358,-0.287089 -0.267462,-0.287089 -0.147105,0 -0.346515,0.12919 -0.443133,0.287089 -0.09661,0.1579 0.02374,0.28709 0.267461,0.28709 0.243724,0 0.443134,-0.12919 0.443134,-0.28709 z M 70.509098,24.86456 c 0.424505,-0.860412 0.437352,-0.982555 0.07107,-0.675509 -0.387363,0.324709 -0.447141,0.274168 -0.447141,-0.37806 0,-0.414081 -0.127906,-0.752877 -0.284237,-0.752877 -0.362606,0 -0.362833,0.463595 -5.69e-4,1.147298 0.206635,0.389974 0.171714,0.64845 -0.128584,0.951764 -0.373017,0.37676 -0.31703,0.782773 0.105465,0.764776 0.09118,-0.0039 0.398996,-0.479713 0.684005,-1.057392 z m -50.503254,0.423549 c 0.398678,-0.651548 0.292426,-1.326347 -0.230595,-1.464495 -0.42542,-0.112364 -0.487424,-0.0133 -0.346544,0.553639 0.107825,0.433916 0.04828,0.690491 -0.160247,0.690491 -0.182503,0 -0.252774,0.129191 -0.156157,0.287091 0.238895,0.390418 0.631771,0.361081 0.893543,-0.06672 z M 58.366751,24.57131 c -0.09445,-0.09539 -0.161629,0.07418 -0.149288,0.376806 0.01364,0.334445 0.08098,0.40247 0.171726,0.173451 0.08211,-0.207245 0.07201,-0.454859 -0.02242,-0.550257 z m 26.388002,0.412927 c -0.07744,-0.203825 -0.500074,-0.507566 -0.939195,-0.674977 -0.769902,-0.29352 -0.787385,-0.280374 -0.489817,0.36835 0.326095,0.710922 1.694139,1.004465 1.429012,0.306627 z M 18.685945,24.375653 c 0,-0.420802 -0.175931,-0.62032 -0.546985,-0.62032 -0.334829,0 -0.592519,0.240598 -0.664386,0.62032 -0.09323,0.492595 0.01939,0.620319 0.546982,0.620319 0.491369,0 0.664389,-0.161543 0.664389,-0.620319 z m 23.875989,0.244513 c 0,-0.06963 -0.127906,-0.126602 -0.284237,-0.126602 -0.156333,0 -0.284239,0.136817 -0.284239,0.304035 0,0.167219 0.127906,0.224187 0.284239,0.1266 0.156331,-0.09759 0.284237,-0.234404 0.284237,-0.304033 z m 18.465247,0.232261 c -0.0057,-0.118425 -0.337407,-0.602889 -0.737301,-1.076587 -0.757284,-0.897052 -0.776525,-0.817486 -0.121507,0.502407 0.361693,0.728827 0.882684,1.077154 0.858808,0.57418 z m 32.55547,-0.358863 c -0.09661,-0.157899 -0.423936,-0.287089 -0.727372,-0.287089 -0.303434,0 -0.551699,0.12919 -0.551699,0.287089 0,0.1579 0.327317,0.287091 0.727371,0.287091 0.412531,0 0.651331,-0.124265 0.5517,-0.287091 z M 46.257028,24.062929 c -0.194614,-0.236848 -0.481752,-0.430635 -0.638083,-0.430635 -0.158557,0 -0.127777,0.190416 0.0696,0.430635 0.194616,0.23685 0.481751,0.430635 0.638084,0.430635 0.158555,0 0.127775,-0.190414 -0.0696,-0.430635 z m 22.810097,0.240501 c -0.195412,-0.07965 -0.515181,-0.07965 -0.710594,0 -0.195415,0.07965 -0.03552,0.144806 0.355297,0.144806 0.390827,0 0.550711,-0.06516 0.355297,-0.144806 z m 3.766153,-0.09695 c -0.09661,-0.1579 -0.296027,-0.287091 -0.443132,-0.287091 -0.147105,0 -0.267462,0.129191 -0.267462,0.287091 0,0.157899 0.19941,0.28709 0.443131,0.28709 0.243724,0 0.364082,-0.129191 0.267463,-0.28709 z m 7.248069,-0.752876 c 0,-0.321639 -0.533802,-0.03957 -0.686691,0.362847 -0.1497,0.394025 -0.108113,0.411784 0.253827,0.10839 0.238076,-0.199569 0.432864,-0.411627 0.432864,-0.471241 z M 38.86657,60.856263 C 38.319265,60.658468 37.578327,60.24427 37.220043,59.935821 l -0.65143,-0.56082 0.793815,-0.181352 c 0.728286,-0.166377 0.706733,-0.184154 -0.26112,-0.215317 -0.990969,-0.03191 -1.07457,-0.107618 -1.378754,-1.2486 -0.595009,-2.231873 0.339881,-5.098153 1.586642,-4.86449 0.352109,0.06599 0.447905,-0.03823 0.327199,-0.355937 -0.121223,-0.319067 0.05292,-0.504498 0.600943,-0.639922 0.424391,-0.104869 0.850793,-0.312505 0.947555,-0.46141 0.09677,-0.148905 0.835268,-0.265577 1.641118,-0.259272 0.805851,0.0063 1.400704,-0.09391 1.321899,-0.222702 -0.07881,-0.128791 0.749553,-0.323024 1.840797,-0.431633 1.632751,-0.162501 1.984083,-0.287203 1.984083,-0.70422 0,-1.413614 -3.083839,-2.536762 -5.400522,-1.966897 -0.547157,0.134593 -1.186694,0.283943 -1.421189,0.331889 -0.234497,0.04795 -0.650195,0.183532 -0.923774,0.301297 -0.985879,0.42439 -1.35013,-0.02716 -1.35013,-1.67367 0,-1.05493 0.125815,-1.606052 0.390016,-1.708456 0.599689,-0.232427 2.718226,-0.517189 4.337503,-0.583016 1.191259,-0.04843 1.434922,0.02098 1.328668,0.378497 -0.07655,0.257563 0.0091,0.217233 0.208193,-0.09796 0.293971,-0.465554 0.56291,-0.510097 2.052289,-0.339904 0.94269,0.107728 2.207566,0.395334 2.810832,0.639137 1.163958,0.470397 2.62929,1.972174 2.357581,2.416216 -0.08917,0.145742 0.03788,0.467007 0.282337,0.713924 0.353737,0.357287 0.44448,1.151932 0.44448,3.892387 0,2.03452 -0.132976,3.694408 -0.324999,4.056802 -0.243836,0.460188 -0.243836,0.640682 0,0.722776 0.198817,0.06694 0.324999,0.824643 0.324999,1.951581 l 0,1.842161 -2.591293,0 c -2.450924,0 -2.583245,-0.03109 -2.442707,-0.573893 0.22978,-0.887508 -0.244825,-0.94909 -1.422457,-0.184573 -1.607184,1.043383 -3.210918,1.502147 -3.521294,1.007307 -0.179737,-0.286562 -0.247284,-0.295602 -0.250465,-0.03352 -0.0054,0.448759 -0.705931,0.43964 -1.994288,-0.02595 z m 2.09164,-1.605666 c -0.24567,-0.274904 -0.718835,0.530353 -0.511111,0.86983 0.1649,0.269492 0.275372,0.219763 0.422761,-0.190303 0.109744,-0.305317 0.149495,-0.611105 0.08834,-0.679527 z m 9.643585,0.550567 c -0.08239,-0.31826 -0.282045,-0.661197 -0.443664,-0.762083 -0.161615,-0.100884 -0.229849,-0.06658 -0.151634,0.07625 0.0782,0.142821 0.221869,0.485759 0.319232,0.762083 0.24432,0.693386 0.459915,0.633841 0.276066,-0.07625 z m -10.882241,-0.54283 c 0,-0.143117 -0.255813,-0.192646 -0.568475,-0.110062 -0.312663,0.08259 -0.568476,0.19968 -0.568476,0.260214 0,0.06053 0.255813,0.110061 0.568476,0.110061 0.312662,0 0.568475,-0.117095 0.568475,-0.260213 z m 2.746388,-0.672831 c -0.07885,-0.197373 -0.143368,-0.03588 -0.143368,0.358864 0,0.394748 0.06452,0.556237 0.143368,0.358863 0.07885,-0.197375 0.07885,-0.520352 0,-0.717727 z m 2.085658,0.03789 c 0,-0.157899 -0.127906,-0.207246 -0.284238,-0.109659 -0.156332,0.09759 -0.284238,0.306621 -0.284238,0.46452 0,0.1579 0.127906,0.207247 0.284238,0.10966 0.156332,-0.09759 0.284238,-0.306622 0.284238,-0.464521 z m -4.445019,-0.683836 c 0.08998,-0.236849 0.03971,-0.430635 -0.111709,-0.430635 -0.151425,0 -0.275319,0.193786 -0.275319,0.430635 0,0.236849 0.05027,0.430634 0.111709,0.430634 0.06144,0 0.185332,-0.193785 0.275318,-0.430634 z m 5.672521,-0.695363 c 0.272333,-0.340346 0.255216,-0.374159 -0.09056,-0.178897 -0.346741,0.195809 -0.360014,0.168575 -0.07107,-0.145857 0.195412,-0.212642 0.355296,-0.931378 0.355296,-1.597188 0,-0.665808 0.136252,-1.256435 0.302785,-1.312504 0.373915,-0.12589 -0.657246,-1.381356 -1.134553,-1.381356 -0.186304,0 -0.261999,0.125403 -0.168216,0.278672 0.09379,0.153272 -0.122502,0.339613 -0.48064,0.414096 -0.795396,0.165415 -2.536721,0.447602 -2.925064,0.474009 -0.42823,0.02912 -0.973384,1.171166 -0.98476,2.062985 -0.0056,0.434224 0.253676,1.055894 0.576039,1.381491 0.493335,0.498286 0.878862,0.578714 2.435511,0.508107 1.19582,-0.05424 1.968075,-0.232202 2.18521,-0.503558 z m 2.655837,-1.242495 c -0.07885,-0.197374 -0.143368,-0.03589 -0.143368,0.358862 0,0.394749 0.06452,0.556238 0.143368,0.358863 0.07885,-0.197374 0.07885,-0.520351 0,-0.717725 z m -11.653757,-0.28709 c -0.07885,-0.197374 -0.143368,-0.03588 -0.143368,0.358862 0,0.394749 0.06452,0.556238 0.143368,0.358864 0.07885,-0.197375 0.07885,-0.520351 0,-0.717726 z m 3.509446,-2.365331 c -0.193187,-0.23511 -0.455823,-0.362193 -0.58364,-0.282408 -0.127816,0.07979 -0.312732,0.01377 -0.410926,-0.146706 -0.09819,-0.160476 -0.33087,-0.29092 -0.517056,-0.289881 -0.186187,0.0012 0.0452,0.258571 0.514192,0.572288 1.00973,0.675428 1.489904,0.746055 0.99743,0.146707 z m 2.058129,-1.772291 c -0.195415,-0.07965 -0.515183,-0.07965 -0.710596,0 -0.195414,0.07963 -0.03552,0.144806 0.355297,0.144806 0.390827,0 0.550711,-0.06516 0.355299,-0.144806 z m 4.655987,-1.681764 c -0.179492,-0.47245 -0.747716,-0.333194 -0.747716,0.183244 0,0.157899 0.127907,0.207246 0.284238,0.109659 0.15633,-0.09759 0.284238,-0.01909 0.284238,0.17445 0,0.193536 0.07975,0.271326 0.177234,0.172868 0.09747,-0.09845 0.09838,-0.386555 0.002,-0.640221 z m -4.448511,-2.872025 c -0.19775,-0.240665 -0.433543,-0.362831 -0.523988,-0.271478 -0.09045,0.09134 0.02371,0.28628 0.253684,0.433174 0.601722,0.38436 0.680345,0.337329 0.270304,-0.161696 z m -0.664822,-0.710787 c 0.350334,0 0.699859,-0.102773 0.776723,-0.228386 0.07686,-0.125614 -0.20338,-0.206868 -0.622763,-0.180566 -1.100424,0.06901 -1.109798,0.07346 -1.317414,0.624269 -0.151835,0.402831 -0.118422,0.431282 0.168556,0.143546 0.19686,-0.197374 0.644563,-0.358863 0.994898,-0.358863 z M 39.66597,45.645636 c 0.340054,-0.09062 0.293536,-0.1376 -0.159595,-0.161196 -0.49231,-0.02563 -0.631945,0.115398 -0.606563,0.61265 0.02336,0.457677 0.06988,0.504662 0.159593,0.161195 0.06965,-0.266614 0.342599,-0.542306 0.606565,-0.612649 z m 30.088065,15.404059 c -0.343038,-0.346478 -0.197625,-0.956966 0.227944,-0.956966 0.25738,0 0.353634,-0.167925 0.251043,-0.437962 -0.129437,-0.340695 -0.254898,-0.363774 -0.564887,-0.103924 -0.30887,0.258908 -0.514203,0.228272 -0.912961,-0.13622 -0.282955,-0.25864 -0.824162,-0.452663 -1.202679,-0.431161 -0.617903,0.0351 -0.626486,0.05133 -0.084,0.158839 0.657834,0.130367 2.006036,1.424127 1.751724,1.68099 -0.287433,0.290316 -1.645343,-0.212404 -1.645343,-0.60913 0,-0.214778 -0.159883,-0.328981 -0.355297,-0.253782 -0.195414,0.07519 -0.701918,-0.303042 -1.12556,-0.840523 -0.6732,-0.854096 -0.735879,-1.098332 -0.497416,-1.938148 0.362153,-1.275428 0.309294,-1.440752 -0.135434,-0.423584 l -0.362105,0.828204 -0.339255,-0.971749 c -0.442316,-1.266951 -0.723144,-4.295863 -0.486568,-5.247922 0.121996,-0.490939 0.379305,-0.747901 0.748908,-0.747901 0.311008,0 0.563061,-0.192776 0.563061,-0.430635 0,-0.236849 -0.19186,-0.430635 -0.426356,-0.430635 -0.562862,0 -0.551917,-0.05903 0.334517,-1.803855 0.718031,-1.41335 0.772454,-1.457267 0.9665,-0.779956 l 0.205626,0.717727 0.03325,-0.717727 c 0.0648,-1.398943 1.809982,-2.537054 4.217503,-2.750411 1.97538,-0.175058 2.345325,0.04057 2.395788,1.396366 0.04877,1.31019 0.51608,1.096727 0.51608,-0.235738 0,-0.939651 0.03007,-0.967881 0.701681,-0.6588 0.385927,0.177603 0.621979,0.453175 0.524558,0.612383 -0.100577,0.164362 -0.0353,0.200934 0.151032,0.08462 0.21711,-0.135526 0.328156,-1.316339 0.328156,-3.489438 l 0,-3.284591 2.5211,0 2.521097,0 0.04526,7.296088 0.04526,7.296088 -0.64775,-0.168625 c -0.575949,-0.149929 -0.604799,-0.115716 -0.260248,0.308637 0.213127,0.262495 0.500918,0.406465 0.639534,0.319933 0.138618,-0.08653 0.252033,0.690035 0.252033,1.725701 0,1.48241 -0.09071,1.883029 -0.426359,1.883029 -0.290632,0 -0.427741,-0.297018 -0.430709,-0.933043 -0.0031,-0.65886 -0.07887,-0.814147 -0.257939,-0.528441 -0.139473,0.222529 -0.195928,0.556364 -0.125457,0.741855 0.0755,0.198719 -0.127816,0.327343 -0.494946,0.313124 -0.342695,-0.01327 -0.67869,0.137447 -0.746657,0.334927 -0.07361,0.213863 0.03726,0.296719 0.274159,0.2049 0.466816,-0.180931 2.001504,0.553636 1.729876,0.827991 -0.101857,0.102871 -0.03597,0.187047 0.146418,0.187047 0.187043,0 0.331614,0.421703 0.331614,0.967307 l 0,0.96731 -1.477848,0.03363 c -0.897132,0.02041 -1.565566,-0.105859 -1.701076,-0.321355 -0.176549,-0.280754 -0.224139,-0.279942 -0.227581,0.0039 -0.0025,0.206366 -0.366706,0.358862 -0.857066,0.358862 -0.778527,0 -0.852714,-0.08404 -0.852714,-0.966097 0,-0.536396 -0.256843,-1.295897 -0.577457,-1.707586 L 74.37863,57.25176 74.956089,56.939612 c 0.489034,-0.264346 0.577457,-0.596343 0.577457,-2.168127 0,-1.252151 0.110966,-1.855984 0.341087,-1.855984 0.265286,0 0.265286,-0.07656 0,-0.344508 -0.187598,-0.18948 -0.332979,-0.932326 -0.323068,-1.650768 0.0148,-1.073295 0.06386,-1.191057 0.275075,-0.660307 0.31862,0.800636 0.843859,0.845307 0.843859,0.07177 0,-0.382786 0.189492,-0.574179 0.568475,-0.574179 0.678465,0 0.68955,-0.07912 0.156874,-1.119543 -0.226382,-0.442164 -0.808264,-0.997974 -1.293078,-1.23513 -0.961108,-0.470151 -2.309692,-0.368296 -2.109211,0.1593 0.07981,0.210038 -0.210563,0.316638 -0.801812,0.294357 -0.509815,-0.0192 -1.08991,0.09609 -1.289105,0.256231 -0.19919,0.160136 -0.44263,0.209885 -0.540973,0.110554 -0.266854,-0.269533 -1.4862,1.521213 -1.833858,2.693226 -0.167024,0.563074 -0.230849,1.85685 -0.141831,2.875061 0.225071,2.574411 0.272895,2.831107 0.500955,2.688745 0.110306,-0.06886 0.466624,0.216428 0.791807,0.633974 0.32518,0.417547 0.591235,0.63494 0.591235,0.483092 0,-0.436324 1.805221,-0.07836 2.241082,0.444387 0.362961,0.435317 0.38049,0.43367 0.225595,-0.02122 -0.09238,-0.271268 -0.04563,-0.569571 0.103882,-0.662896 0.149504,-0.09332 0.271825,-0.05263 0.271825,0.09043 0,0.14306 0.255519,0.557678 0.567817,0.921372 0.670542,0.780902 0.475662,1.130397 -1.084593,1.945063 -1.415332,0.738997 -2.815874,0.999352 -2.993773,0.55653 -0.106292,-0.264559 -0.145026,-0.261878 -0.162104,0.01122 -0.02427,0.388252 -0.380847,0.475341 -0.685662,0.167469 z m 7.21502,-2.185074 -0.664691,-0.637977 0.538361,0.76138 c 0.296099,0.418758 0.595208,0.705848 0.664688,0.637978 0.06948,-0.06787 -0.17278,-0.410494 -0.538358,-0.761381 z m 1.816837,0.680702 c 0.08761,-0.143175 -0.09671,-0.192701 -0.409581,-0.110062 -0.663692,0.1753 -0.747588,0.370378 -0.159287,0.370378 0.225269,0 0.481261,-0.117141 0.568868,-0.260316 z m -6.663208,-0.313864 c -0.55107,-0.359701 -0.852715,-0.359701 -0.852715,0 0,0.157899 0.287792,0.285112 0.639536,0.282695 0.517154,-0.0036 0.557948,-0.05765 0.213179,-0.282695 z m -1.522319,-0.980217 c -0.02964,-0.501168 -0.134713,-0.61462 -0.379394,-0.409646 -0.186121,0.155916 -0.268365,0.467824 -0.182767,0.693127 0.248598,0.654339 0.606937,0.473638 0.562161,-0.283481 z m -3.990714,-0.377481 c -0.09445,-0.09539 -0.161628,0.07418 -0.149287,0.376806 0.01364,0.334445 0.08098,0.402471 0.171726,0.173452 0.08211,-0.207246 0.07201,-0.45486 -0.02242,-0.550258 z m 10.919256,-1.649809 c -0.19775,-0.240667 -0.567723,-0.428828 -0.822159,-0.418142 -0.331421,0.01393 -0.281248,0.107781 0.176922,0.33096 0.351744,0.171343 0.639535,0.442511 0.639535,0.602598 0,0.160088 0.08219,0.208063 0.182623,0.106609 0.100446,-0.101448 0.02084,-0.381362 -0.176921,-0.622027 z m -1.539401,-0.934001 c -0.09445,-0.09539 -0.161629,0.07416 -0.149288,0.376806 0.01364,0.334445 0.08099,0.402471 0.171726,0.173451 0.08211,-0.207244 0.07201,-0.45486 -0.02242,-0.550257 z m -10.116178,0.137566 c 0.0023,-0.197375 0.08826,-0.68184 0.191412,-1.076589 0.155996,-0.597035 0.119487,-0.661484 -0.217063,-0.383276 -0.22252,0.183947 -0.532493,0.342912 -0.688824,0.353256 -0.156331,0.01032 -0.332808,0.168502 -0.392172,0.351463 -0.05937,0.182964 0.02465,0.249904 0.18667,0.14876 0.181182,-0.113102 0.237331,0.03731 0.145843,0.390672 -0.103486,0.399726 -0.0089,0.574576 0.310746,0.574576 0.25273,0 0.461254,-0.161488 0.463388,-0.358862 z m 1.275191,-0.502408 c -0.09661,-0.157901 -0.296029,-0.28709 -0.443133,-0.28709 -0.147104,0 -0.267462,0.129189 -0.267462,0.28709 0,0.1579 0.19941,0.287089 0.443132,0.287089 0.243724,0 0.364082,-0.129189 0.267463,-0.287089 z m 1.559886,-1.428988 c 0.245421,-0.463177 0.221093,-0.536821 -0.132119,-0.399922 -0.238115,0.09229 -0.432934,0.347764 -0.432934,0.567721 0,0.560776 0.212427,0.497693 0.565053,-0.167799 z m 11.25454,-2.087865 c 0.197488,-0.434224 0.237799,-0.789497 0.08959,-0.789497 -0.295484,0 -0.643635,0.817625 -0.916836,2.153175 -0.170588,0.833907 -0.165949,0.838467 0.146002,0.143544 0.177199,-0.394748 0.483764,-1.072998 0.681253,-1.507222 z m -13.240783,0.645952 c 0,-0.157899 -0.223837,-0.285111 -0.497416,-0.282694 -0.425093,0.0038 -0.435424,0.04486 -0.07107,0.282694 0.536416,0.350138 0.568477,0.350138 0.568477,0 z m -0.994832,-0.86127 c -0.09661,-0.157899 -0.232076,-0.28709 -0.301014,-0.28709 -0.06894,0 -0.125344,0.129191 -0.125344,0.28709 0,0.157899 0.135457,0.287091 0.301013,0.287091 0.165558,0 0.221962,-0.129192 0.125345,-0.287091 z m 2.002314,-1.127689 c -0.08967,-0.146534 0.09465,-0.349024 0.409581,-0.449982 0.314934,-0.10096 0.572603,-0.31787 0.572603,-0.482021 0,-0.164153 -0.191861,-0.224097 -0.426357,-0.133207 -0.234496,0.09089 -0.435348,0.0078 -0.446336,-0.184602 -0.02344,-0.410852 -0.499216,0.630972 -0.528518,1.157369 -0.01103,0.197374 0.115472,0.358862 0.281034,0.358862 0.165558,0 0.227652,-0.119889 0.137993,-0.266419 z m 5.064304,-3.322208 c 0.08998,-0.23685 0.119333,-0.430636 0.06521,-0.430636 -0.05411,0 -0.257625,0.193786 -0.452239,0.430636 -0.203955,0.248215 -0.23158,0.430634 -0.06521,0.430634 0.158746,0 0.362253,-0.193785 0.45224,-0.430634 z m -4.326337,-0.42433 c 0.681478,-0.312332 1.047189,-0.565299 0.812693,-0.562146 -0.417352,0.0056 -2.592668,1.094284 -2.233883,1.117986 0.100182,0.0066 0.739709,-0.243509 1.42119,-0.55584 z m 3.627524,-0.470467 C 71.915673,45.629835 71.368802,45.471812 70.87987,45.497081 l -0.888971,0.04594 0.908382,0.114632 c 0.652033,0.08227 0.863688,0.23227 0.750007,0.531489 -0.111997,0.294801 -0.02214,0.364059 0.306884,0.236534 0.360564,-0.13975 0.391833,-0.26969 0.138963,-0.577437 z m 7.287304,-0.09092 c -0.103043,-0.168404 -0.323377,-0.30619 -0.489621,-0.30619 -0.188479,0 -0.166914,0.164726 0.05728,0.437573 0.389843,0.474446 0.738259,0.368566 0.432341,-0.131383 z m -2.711947,-0.88037 c -0.556644,-0.363341 -0.932921,-0.363341 -0.710595,0 0.09661,0.157899 0.391958,0.285111 0.65631,0.282694 0.414211,-0.0038 0.421716,-0.04286 0.05429,-0.282694 z m -0.18145,-1.291906 c -0.172986,-0.455319 -0.671265,-0.597387 -0.671265,-0.191394 0,0.303603 0.310699,0.622029 0.606927,0.622029 0.125369,0 0.154321,-0.193785 0.06434,-0.430635 z m 1.152562,-0.533088 c -0.09857,-0.259449 -0.293441,-0.471727 -0.433048,-0.471727 -0.387848,0 -0.302065,0.796021 0.101472,0.941587 0.480453,0.173312 0.542521,0.08536 0.331578,-0.46986 z m 0.689391,-1.585968 c 0.278124,-0.178045 0.180053,-0.283063 -0.362083,-0.387739 -0.734828,-0.14188 -1.169317,0.101232 -0.816965,0.457121 0.24863,0.251124 0.721889,0.223274 1.179048,-0.06938 z m 1.608233,-0.03412 c -0.09661,-0.157899 -0.328005,-0.285112 -0.514193,-0.282695 -0.203402,0.0026 -0.168344,0.115476 0.08783,0.282695 0.546055,0.356431 0.644453,0.356431 0.426358,0 z m -1.989666,-2.00963 c -0.09661,-0.157899 -0.232075,-0.287091 -0.301015,-0.287091 -0.06894,0 -0.125342,0.129192 -0.125342,0.287091 0,0.157899 0.135457,0.28709 0.301014,0.28709 0.165557,0 0.221961,-0.129191 0.125343,-0.28709 z M 55.67726,53.513896 c 0.02845,-6.871426 0.05174,-7.158854 0.591692,-7.301472 0.613616,-0.162074 0.438495,-0.761288 -0.222491,-0.761288 -0.225269,0 -0.409581,-0.120328 -0.409581,-0.267393 0,-0.147067 1.147908,-0.27289 2.550903,-0.279606 l 2.5509,-0.0122 -0.01882,2.028751 c -0.01689,1.821271 -0.07211,2.014668 -0.539969,1.89109 -0.367611,-0.09709 -0.474749,-0.01548 -0.363631,0.276987 0.08665,0.228051 0.332887,0.346673 0.547209,0.263606 0.317747,-0.123157 0.389691,0.536342 0.389691,3.572116 0,2.210289 -0.111877,3.723161 -0.27532,3.723161 -0.151421,0 -0.203309,-0.226084 -0.115304,-0.502408 0.121545,-0.381634 0.09392,-0.409014 -0.114898,-0.113902 -0.427529,0.604199 -1.377209,-0.06374 -1.585382,-1.115062 -0.105968,-0.535155 -0.298813,-0.814034 -0.483284,-0.698882 -0.168823,0.105391 -0.233707,0.404627 -0.14418,0.664981 0.08953,0.260352 -0.151433,0.118094 -0.535464,-0.316131 -0.793359,-0.897049 -1.009744,-0.973952 -1.009744,-0.358862 0,0.23685 -0.127907,0.430636 -0.284238,0.430636 -0.156332,0 -0.284238,0.14301 -0.284238,0.317805 0,0.174792 0.201038,0.239885 0.446754,0.144647 0.253708,-0.09833 0.837117,0.126849 1.35013,0.521115 0.496856,0.381847 1.255121,0.782926 1.685031,0.891288 0.825189,0.207994 0.997112,0.663589 0.456472,1.209655 -0.244084,0.246532 -0.173197,0.288301 0.284239,0.167478 0.564427,-0.149082 0.60942,-0.05252 0.60942,1.307969 l 0,1.468933 -2.55276,0 -2.55276,0 0.02962,-7.153011 z m 1.467839,6.106981 c -0.186633,-0.07668 -0.263739,-0.357163 -0.171346,-0.623286 0.13108,-0.377559 0.08929,-0.410513 -0.190168,-0.150011 -0.397564,0.370581 -0.165109,0.970703 0.362321,0.93539 0.260982,-0.01748 0.260797,-0.05459 -8.52e-4,-0.162093 z m 2.358604,-1.172937 c -0.09445,-0.0954 -0.16163,0.07416 -0.149288,0.376806 0.01364,0.334444 0.08099,0.40247 0.171725,0.17345 0.08211,-0.207244 0.07201,-0.45486 -0.02242,-0.550256 z m -0.598085,-0.364844 c 0.09661,-0.157899 -0.0162,-0.287089 -0.25069,-0.287089 -0.234496,0 -0.505406,0.12919 -0.602023,0.287089 -0.09661,0.157901 0.0162,0.28709 0.250687,0.28709 0.234497,0 0.505407,-0.129189 0.602026,-0.28709 z m -1.007416,-8.046374 c -0.189467,-0.118273 -0.256597,-0.358673 -0.149177,-0.534229 0.118433,-0.19355 -0.02846,-0.319187 -0.373168,-0.319187 -0.312662,0 -0.647524,-0.12919 -0.744144,-0.287089 -0.217927,-0.356153 -0.710594,-0.37773 -0.710594,-0.03113 0,0.140783 0.345074,0.343445 0.766831,0.450361 0.604078,0.153134 0.679486,0.251138 0.355298,0.461759 -0.352606,0.22908 -0.354175,0.304668 -0.01091,0.527892 0.220317,0.143289 0.582785,0.189907 0.805483,0.103599 0.304477,-0.118012 0.319461,-0.210274 0.06042,-0.371976 z m 1.128902,-1.536773 C 58.678327,47.30686 58.6303,47.26096 58.338148,47.841519 c -0.24538,0.487612 -0.223716,0.693004 0.09908,0.939373 0.227216,0.173419 0.328832,0.453063 0.225807,0.621432 -0.170059,0.277923 0.381623,0.689249 0.632904,0.471879 0.05835,-0.05047 -0.06263,-0.668886 -0.268832,-1.374254 z m -1.969032,-0.760025 c 0,-0.143625 -0.191129,-0.18706 -0.424727,-0.09651 -0.233598,0.09054 -0.352665,0.282378 -0.264597,0.426307 0.184203,0.301037 0.689324,0.05938 0.689324,-0.329788 z m 0.906007,-0.762362 c -0.205185,-0.08292 -0.450341,-0.07273 -0.54479,0.02265 -0.09445,0.09539 0.07342,0.163252 0.373062,0.150785 0.331123,-0.01378 0.398473,-0.0818 0.171728,-0.173448 z m 17.569662,1.846881 c -1.11e-4,-0.276324 -0.192062,-0.502408 -0.426559,-0.502408 -0.618294,0 -0.52335,-0.481592 0.128908,-0.653876 0.697563,-0.184245 1.501825,0.390883 1.617536,1.156701 0.06985,0.462301 -0.05844,0.575444 -0.615725,0.542987 -0.465397,-0.0271 -0.704028,-0.211257 -0.70416,-0.543404 z m 20.464932,-1.937856 c 0,-0.157901 0.127907,-0.287091 0.284239,-0.287091 0.15633,0 0.284238,0.12919 0.284238,0.287091 0,0.157899 -0.127908,0.287088 -0.284238,0.287088 -0.156332,0 -0.284239,-0.129189 -0.284239,-0.287088 z M 3.3370935,44.463265 c 0,-0.06963 0.1279071,-0.206447 0.284238,-0.304035 0.1563308,-0.09759 0.2842379,-0.04061 0.2842379,0.126602 0,0.167219 -0.1279071,0.304034 -0.2842379,0.304034 -0.1563309,0 -0.284238,-0.05696 -0.284238,-0.126601 z M 94.675568,44.146849 c -0.09258,-0.243659 -0.08855,-0.523573 0.0089,-0.622027 0.09748,-0.09846 0.177234,-0.02827 0.177234,0.155924 0,0.184217 0.255815,0.334939 0.568476,0.334939 0.312662,0 0.568476,0.129191 0.568476,0.28709 0,0.463215 -1.138869,0.328999 -1.323104,-0.155926 z M 55.63688,42.132657 c 0,-0.246168 0.127909,-0.367734 0.284239,-0.270146 0.156331,0.09759 0.284238,0.04824 0.284238,-0.109661 0,-0.157899 -0.127907,-0.366932 -0.284238,-0.46452 -0.15633,-0.09759 -0.284239,-0.68657 -0.284239,-1.308848 l 0,-1.131416 2.558143,0 2.558142,0 0,1.13935 c 0,0.953881 -0.08097,1.113634 -0.497417,0.981378 -0.473731,-0.150449 -0.473731,-0.13826 0,0.255977 0.273579,0.227671 0.497417,0.625791 0.497417,0.884707 0,0.37425 -0.294795,0.470758 -1.437966,0.470758 -1.498901,0 -1.55242,-0.107662 -0.606533,-1.220133 0.234948,-0.276324 0.307023,-0.502407 0.160171,-0.502407 -0.146853,0 -0.493679,0.387571 -0.770719,0.86127 -0.404551,0.691723 -0.696387,0.86127 -1.482475,0.86127 -0.696986,0 -0.978763,-0.128854 -0.978763,-0.447579 z M 6.486151,41.599344 C 6.47381,41.296705 6.540988,41.12714 6.6354384,41.222539 c 0.094451,0.09539 0.1045474,0.343011 0.022442,0.550256 -0.090736,0.22902 -0.1580884,0.160993 -0.1717272,-0.173451 z M 5.5286397,41.144785 c -0.081764,-0.315798 -0.032728,-0.574179 0.1089678,-0.574179 0.1416951,0 0.2576275,0.05403 0.2576275,0.120064 0,0.06603 0.077638,0.324417 0.1725293,0.574179 0.094891,0.249766 0.045856,0.454117 -0.1089677,0.454117 -0.1548234,0 -0.3483943,-0.258381 -0.4301569,-0.574181 z m 0.2718497,-1.052664 c -0.1042201,-0.105261 -0.189492,-0.324889 -0.189492,-0.488053 0,-0.17989 0.1323896,-0.162941 0.3363481,0.04306 0.1849918,0.18685 0.2702631,0.406474 0.1894921,0.488054 -0.080771,0.08158 -0.2321278,0.0622 -0.3363482,-0.04306 z M 14.869111,28.584597 c 0.141485,-0.118425 0.352704,-0.344508 0.469378,-0.502408 0.121059,-0.163836 0.214001,-0.07139 0.216485,0.215318 0.0024,0.279279 -0.206039,0.502408 -0.469378,0.502408 -0.260551,0 -0.357969,-0.09689 -0.216485,-0.215318 z m 16.750341,-0.07066 c -0.09625,-0.157289 -0.583365,-0.254181 -1.082492,-0.215318 -0.735614,0.05728 -0.923847,-0.04476 -0.993768,-0.53875 -0.0519,-0.366669 0.105561,-0.683763 0.395327,-0.79607 0.388366,-0.150526 0.417381,-0.108508 0.149894,0.217021 -0.259467,0.315775 -0.232213,0.442239 0.12516,0.580753 0.690462,0.267612 0.748299,0.226041 0.552485,-0.397107 -0.11051,-0.351682 -0.05107,-0.57418 0.153375,-0.57418 0.183591,0 0.266161,-0.178046 0.183484,-0.39565 -0.08266,-0.217609 -0.02163,-0.525643 0.135678,-0.684519 0.390128,-0.394042 1.37501,-0.09831 1.37501,0.41287 0,0.227753 0.114598,0.342559 0.254655,0.255129 0.140061,-0.08743 0.555759,0.0018 0.923773,0.198376 0.529593,0.282824 0.650546,0.551899 0.58005,1.290381 -0.04899,0.513174 -0.217052,0.933043 -0.37348,0.933043 -0.156425,0 -0.244252,-0.407065 -0.19517,-0.904587 0.09453,-0.958211 -0.431296,-1.445202 -0.725195,-0.671632 -0.100708,0.265056 -0.05563,0.383858 0.107094,0.282281 0.317764,-0.198357 0.364722,0.165295 0.108449,0.839822 -0.190056,0.50025 -1.396959,0.621446 -1.674337,0.168137 z m 0.859706,-1.424024 c -0.0924,-0.151003 -0.355761,-0.201775 -0.585252,-0.112829 -0.587551,0.227728 -0.518314,0.387382 0.167999,0.387382 0.321888,0 0.509652,-0.12355 0.417253,-0.274553 z"
     id="path3824"
     inkscape:connector-curvature="0" />
</svg>
