<?xml version="1.0" encoding="UTF-8" standalone="no"?>
<!-- Created with Inkscape (http://www.inkscape.org/) -->

<svg
   xmlns:dc="http://purl.org/dc/elements/1.1/"
   xmlns:cc="http://creativecommons.org/ns#"
   xmlns:rdf="http://www.w3.org/1999/02/22-rdf-syntax-ns#"
   xmlns:svg="http://www.w3.org/2000/svg"
   xmlns="http://www.w3.org/2000/svg"
   xmlns:sodipodi="http://sodipodi.sourceforge.net/DTD/sodipodi-0.dtd"
   xmlns:inkscape="http://www.inkscape.org/namespaces/inkscape"
   id="svg2"
   version="1.1"
   inkscape:version="0.48.4 r9939"
   width="100"
   height="100"
   sodipodi:docname="Patch+.svg"
   inkscape:export-filename="C:\Users\jherwig\Desktop\Screenshots\Patch+.png"
   inkscape:export-xdpi="18.01"
   inkscape:export-ydpi="18.01">
  <metadata
     id="metadata8">
    <rdf:RDF>
      <cc:Work
         rdf:about="">
        <dc:format>image/svg+xml</dc:format>
        <dc:type
           rdf:resource="http://purl.org/dc/dcmitype/StillImage" />
        <dc:title />
      </cc:Work>
    </rdf:RDF>
  </metadata>
  <defs
     id="defs6" />
  <sodipodi:namedview
     pagecolor="#ffffff"
     bordercolor="#666666"
     borderopacity="1"
     objecttolerance="10"
     gridtolerance="10"
     guidetolerance="10"
     inkscape:pageopacity="0"
     inkscape:pageshadow="2"
     inkscape:window-width="1920"
     inkscape:window-height="1018"
     id="namedview4"
     showgrid="false"
     fit-margin-top="0"
     fit-margin-left="0"
     fit-margin-right="0"
     fit-margin-bottom="0"
     inkscape:zoom="3.6875"
     inkscape:cx="193.98567"
     inkscape:cy="63.795801"
     inkscape:window-x="1912"
     inkscape:window-y="-8"
     inkscape:window-maximized="1"
     inkscape:current-layer="text2990" />
  <path
     style="fill:#000000"
     d="M 30.014103,99.786913 C 28.632008,99.556488 25.757296,98.589185 23.924545,97.737857 15.976783,94.046058 7.0221326,85.187536 2.9031828,76.942162 -0.28585836,70.55829 -0.84186908,65.30546 1.2067642,60.915536 1.8069632,59.629398 3.314584,58.077064 30.463638,30.790934 57.537624,3.5802586 59.163516,1.9849547 60.487527,1.3318538 c 1.890697,-0.93263458 3.446778,-1.29882189 5.519212,-1.29882189 4.472287,0 9.347541,1.78743499 14.703074,5.39064669 8.442019,5.6798154 15.671651,14.4800954 18.251061,22.2161294 1.518006,4.552725 1.284116,8.617418 -0.668634,11.619789 C 97.915908,39.838208 85.027539,52.907584 68.757366,69.209261 46.336071,91.67395 39.659063,98.253675 38.855202,98.675747 c -2.263198,1.188307 -5.749938,1.626533 -8.841099,1.111166 z m 20.3602,-21.583426 c 0.492277,-0.628296 0.512214,-0.907284 0.119365,-1.66997 C 50.268357,76.096101 49.85457,75.831716 48.743892,75.415569 41.427009,72.674053 33.08463,65.649816 27.9197,57.88171 c -1.216314,-1.829348 -3.062627,-5.363026 -3.63394,-6.955035 -0.604924,-1.685672 -1.570019,-2.398707 -2.547371,-1.882061 -0.979531,0.517797 -0.986624,1.33044 -0.03242,3.713895 4.198193,10.486432 14.940528,21.148595 25.583248,25.392316 1.825088,0.727743 2.546515,0.740057 3.085086,0.05266 z m 1.220363,-6.949469 c 3.737302,-1.895481 1.639651,-7.665947 -2.451245,-6.743156 -2.783791,0.627948 -3.788892,3.761378 -1.8995,5.92177 1.163435,1.330319 2.754891,1.630773 4.350745,0.821386 z M 62.79457,63.995279 c 0.85959,-0.571102 1.594496,-1.933115 1.588057,-2.943223 -0.01004,-1.576678 -1.264178,-3.186654 -2.8073,-3.603813 -2.619364,-0.708106 -5.084488,1.808256 -4.376339,4.467279 0.253708,0.952618 1.646709,2.463358 2.425889,2.63095 0.94022,0.202223 2.42407,-0.05581 3.169693,-0.551193 z m -22.960608,0.273358 c 0.894344,-0.249363 1.858883,-1.027221 2.274651,-1.8344 0.347503,-0.674651 0.408618,-2.227652 0.117523,-2.986414 -1.120064,-2.919541 -5.264605,-3.132731 -6.611192,-0.340072 -0.536627,1.1129 -0.538946,2.195001 -0.007,3.29806 0.788957,1.636204 2.435633,2.362047 4.226083,1.862826 z m 12.162393,-3.60888 c 2.548793,-1.30543 2.523736,-5.123917 -0.04225,-6.438151 -1.186107,-0.607505 -2.844994,-0.475854 -3.867202,0.306904 -2.781555,2.129972 -1.336018,6.499364 2.159902,6.528702 0.580385,0.0049 1.269837,-0.151754 1.749555,-0.397455 z m 6.691402,-7.247437 c 1.855542,-0.515974 2.798981,-1.874469 2.65826,-3.827727 -0.259627,-3.603588 -4.91979,-4.620727 -6.701402,-1.462676 -1.153312,2.044319 -0.0462,4.607088 2.296166,5.315168 0.755644,0.228421 0.840812,0.227214 1.746976,-0.02476 z M 32.928038,53.021924 c 2.324336,-0.881663 3.021321,-4.036167 1.30013,-5.884297 -1.356325,-1.456354 -3.665415,-1.53021 -5.104479,-0.163265 -0.829989,0.788395 -1.131998,1.494689 -1.131998,2.647348 0,0.563068 0.12695,1.267717 0.282108,1.56589 0.306362,0.58874 1.180558,1.461252 1.817623,1.814119 0.513518,0.284436 2.110039,0.295809 2.836616,0.02021 z m 37.485835,-0.483656 c 2.935825,-1.950504 1.499869,-6.639288 -2.026479,-6.617058 -1.324151,0.0084 -2.177541,0.422275 -2.940163,1.426068 -0.493078,0.649004 -0.560268,0.90974 -0.560268,2.17405 0,1.274055 0.06526,1.522491 0.576706,2.195692 1.183828,1.558215 3.310015,1.910953 4.950204,0.821248 z m -26.603898,-0.02206 c 0.801047,-0.406583 1.745008,-1.602534 1.893935,-2.399516 0.430302,-2.302768 -1.323646,-4.51026 -3.583599,-4.51026 -2.308419,0 -4.069677,2.282215 -3.503462,4.539738 0.566995,2.260634 3.116382,3.424123 5.193126,2.370038 z m 34.048344,-1.905251 c 0.673794,-0.532094 0.676013,-1.146026 0.0106,-2.920892 C 74.829051,39.581949 67.447738,30.799309 59.08773,25.343267 c -3.382506,-2.207544 -7.693594,-4.229711 -9.017844,-4.229929 -1.231622,-2e-4 -1.799289,1.527988 -0.917622,2.470195 0.236429,0.252661 0.903844,0.627327 1.483149,0.832587 1.743137,0.617637 4.725474,2.190151 6.952509,3.665865 7.712851,5.110853 14.751949,13.517212 17.492937,20.890723 0.731206,1.967022 1.664266,2.517368 2.777484,1.638249 z M 50.775032,45.208859 c 1.727559,-0.497412 2.89075,-2.641095 2.408591,-4.438816 -0.891006,-3.321972 -5.391038,-3.646792 -6.818356,-0.492159 -0.655854,1.449559 -0.393266,2.858025 0.745973,4.001231 1.040722,1.044348 2.223396,1.344473 3.663792,0.929744 z m 12.509896,-3.903524 c 1.332109,-1.020063 1.821506,-2.773974 1.194447,-4.280658 -0.396909,-0.953689 -0.817735,-1.409757 -1.734178,-1.879329 -1.126096,-0.577008 -2.486461,-0.502948 -3.582761,0.19505 -2.306884,1.468764 -2.209577,4.948715 0.174738,6.248065 1.125016,0.613089 2.948121,0.482339 3.947754,-0.283128 z m -23.908916,-0.06582 c 2.074899,-1.062202 2.667157,-3.878696 1.174515,-5.585434 -0.840445,-0.960994 -1.548332,-1.290418 -2.772929,-1.290418 -2.07597,0 -3.586702,1.512612 -3.586702,3.591168 0,0.575488 0.12695,1.2903 0.282108,1.588472 0.362737,0.697076 1.278802,1.567878 1.917611,1.822858 0.793523,0.316737 2.23908,0.255414 2.985397,-0.126646 z m 11.949669,-6.687861 c 0.689631,-0.261591 1.601835,-1.106413 1.980627,-1.834323 0.684572,-1.315547 0.127262,-3.692244 -1.063205,-4.534102 -2.49278,-1.762826 -5.853771,-0.04651 -5.853771,2.989281 0,0.859053 0.525445,2.077185 1.134523,2.630153 0.941813,0.855045 2.640155,1.189634 3.801826,0.748991 z"
     id="path3007"
     inkscape:connector-curvature="0"
     inkscape:export-filename="C:\Users\jherwig\Desktop\Screenshots\Patch.png"
     inkscape:export-xdpi="90"
     inkscape:export-ydpi="90" />
  <g
     style="font-size:40px;font-style:normal;font-weight:normal;line-height:125%;letter-spacing:0px;word-spacing:0px;fill:#000000;fill-opacity:1;stroke:none;font-family:Sans"
     id="text2990">
    <path
       d="m 78.553787,97.614967 0,-11.162109 -11.25,0 0,-7.705078 11.25,0 0,-11.16211 7.5,0 0,11.16211 11.279297,0 0,7.705078 -11.279297,0 0,11.162109 z"
       style="font-size:60px;font-weight:bold;-inkscape-font-specification:Sans Bold"
       id="path2985" />
  </g>
</svg>
