<?xml version="1.0" encoding="UTF-8" standalone="no"?>
<!-- Created with Inkscape (http://www.inkscape.org/) -->

<svg
   xmlns:dc="http://purl.org/dc/elements/1.1/"
   xmlns:cc="http://creativecommons.org/ns#"
   xmlns:rdf="http://www.w3.org/1999/02/22-rdf-syntax-ns#"
   xmlns:svg="http://www.w3.org/2000/svg"
   xmlns="http://www.w3.org/2000/svg"
   xmlns:sodipodi="http://sodipodi.sourceforge.net/DTD/sodipodi-0.dtd"
   xmlns:inkscape="http://www.inkscape.org/namespaces/inkscape"
   id="svg2"
   version="1.1"
   inkscape:version="0.48.4 r9939"
   width="100"
   height="100"
   sodipodi:docname="Patch.svg">
  <metadata
     id="metadata8">
    <rdf:RDF>
      <cc:Work
         rdf:about="">
        <dc:format>image/svg+xml</dc:format>
        <dc:type
           rdf:resource="http://purl.org/dc/dcmitype/StillImage" />
        <dc:title></dc:title>
      </cc:Work>
    </rdf:RDF>
  </metadata>
  <defs
     id="defs6" />
  <sodipodi:namedview
     pagecolor="#ffffff"
     bordercolor="#666666"
     borderopacity="1"
     objecttolerance="10"
     gridtolerance="10"
     guidetolerance="10"
     inkscape:pageopacity="0"
     inkscape:pageshadow="2"
     inkscape:window-width="1920"
     inkscape:window-height="1058"
     id="namedview4"
     showgrid="false"
     fit-margin-top="0"
     fit-margin-left="0"
     fit-margin-right="0"
     fit-margin-bottom="0"
     inkscape:zoom="3.6875"
     inkscape:cx="114.54871"
     inkscape:cy="90.25956"
     inkscape:window-x="-8"
     inkscape:window-y="-8"
     inkscape:window-maximized="1"
     inkscape:current-layer="svg2" />
  <path
     style="fill:#000000"
     d="M 30.054821,99.786624 C 28.670851,99.555887 25.792239,98.587272 23.957001,97.734788 15.998456,94.037982 7.031659,85.167445 2.9071212,76.910887 -0.28624617,70.518356 -0.84301116,65.258401 1.2084013,60.862524 1.8094146,59.57464 3.3190806,58.0202 30.504965,30.69706 57.61568,3.4494765 59.243779,1.8520088 60.569584,1.198022 c 1.893263,-0.93389951 3.451455,-1.30058353 5.526701,-1.30058353 4.478353,0 9.360221,1.78985933 14.723021,5.39795843 8.45347,5.6875191 15.69291,14.4997361 18.275819,22.2462631 1.520065,4.558899 1.285855,8.629106 -0.669542,11.635551 -0.376841,0.579394 -13.282694,13.666498 -29.57494,29.990286 -22.451712,22.49516 -29.137778,29.083809 -29.94273,29.506454 -2.266268,1.189919 -5.757738,1.628739 -8.853092,1.112673 z m 20.38782,-21.612702 c 0.492945,-0.629148 0.51291,-0.908514 0.119532,-1.672235 -0.225621,-0.438009 -0.63997,-0.702752 -1.752154,-1.119464 -7.32681,-2.745235 -15.680506,-9.778999 -20.852442,-17.557641 -1.217965,-1.83183 -3.066783,-5.3703 -3.63887,-6.964468 -0.605746,-1.687959 -1.572149,-2.401961 -2.550828,-1.884615 -0.980859,0.518499 -0.987961,1.332245 -0.03247,3.718933 4.203889,10.500656 14.960798,21.17728 25.617955,25.426756 1.827564,0.728731 2.54997,0.741062 3.089272,0.05274 z m 1.222019,-6.958896 c 3.742371,-1.898051 1.641874,-7.676343 -2.45457,-6.7523 -2.787568,0.628798 -3.794033,3.766479 -1.902077,5.929801 1.165012,1.332124 2.758627,1.632985 4.356647,0.822499 z m 11.215099,-7.268584 c 0.860755,-0.571875 1.596658,-1.935737 1.590211,-2.947214 -0.01,-1.578817 -1.265894,-3.190976 -2.81111,-3.608702 -2.622917,-0.709067 -5.091385,1.810709 -4.382275,4.473338 0.254051,0.953911 1.648942,2.4667 2.429179,2.63452 0.941496,0.202497 2.427359,-0.05589 3.173995,-0.551942 z m -22.991757,0.27373 c 0.895556,-0.249701 1.861404,-1.028614 2.277735,-1.836888 0.347976,-0.675566 0.409174,-2.230674 0.117681,-2.990465 -1.121584,-2.923501 -5.271747,-3.136981 -6.620161,-0.340534 -0.537355,1.11441 -0.539676,2.197979 -0.007,3.302533 0.790027,1.638424 2.438936,2.365252 4.231815,1.865354 z m 12.178892,-3.613775 c 2.55225,-1.307201 2.527161,-5.130867 -0.04232,-6.446884 -1.187717,-0.608329 -2.848854,-0.4765 -3.872448,0.30732 -2.785329,2.132862 -1.337831,6.50818 2.162832,6.537557 0.581172,0.0049 1.271559,-0.151959 1.751928,-0.397993 z m 6.70048,-7.257267 c 1.858059,-0.516675 2.802778,-1.877013 2.661866,-3.83292 -0.25998,-3.608475 -4.926464,-4.626994 -6.710493,-1.464659 -1.154876,2.047091 -0.04625,4.613336 2.299281,5.322377 0.756667,0.228731 0.841952,0.227522 1.749346,-0.02479 z M 32.972709,52.958203 c 2.327489,-0.882858 3.025419,-4.041642 1.301892,-5.892278 -1.358164,-1.458328 -3.670385,-1.532286 -5.111402,-0.163486 -0.831115,0.789464 -1.133534,1.496715 -1.133534,2.650939 0,0.563832 0.127122,1.269437 0.28249,1.568014 0.306779,0.589539 1.18216,1.463234 1.820089,1.816579 0.514215,0.284822 2.112902,0.296211 2.840465,0.02023 z m 37.536689,-0.484312 c 2.939806,-1.953149 1.501902,-6.648293 -2.02923,-6.626033 -1.325947,0.0084 -2.180494,0.422848 -2.944151,1.428003 -0.493746,0.649884 -0.561028,0.910974 -0.561028,2.176999 0,1.275783 0.06534,1.524556 0.577488,2.198671 1.185435,1.560328 3.314507,1.913544 4.956921,0.82236 z m -26.63999,-0.02209 c 0.802133,-0.407135 1.747376,-1.604707 1.896505,-2.40277 0.430886,-2.305891 -1.325442,-4.516379 -3.588461,-4.516379 -2.311551,0 -4.075198,2.285311 -3.508215,4.545896 0.567764,2.263701 3.12061,3.428767 5.200171,2.373253 z m 34.094535,-1.907836 c 0.674707,-0.532815 0.67693,-1.14758 0.01061,-2.924852 C 74.930561,39.5 67.539234,30.705447 59.167885,25.242005 55.78079,23.031467 51.463854,21.006557 50.137807,21.006339 c -1.233292,-2.01e-4 -1.801729,1.530061 -0.918867,2.473546 0.23675,0.253004 0.90507,0.628177 1.485162,0.833714 1.745502,0.618476 4.731885,2.193122 6.96194,3.670839 7.723315,5.117784 14.771962,13.535546 17.516669,20.919058 0.732198,1.969691 1.666524,2.520783 2.781252,1.640471 z M 50.843914,45.134542 c 1.729902,-0.498087 2.89467,-2.644677 2.411858,-4.444838 -0.892214,-3.326477 -5.398351,-3.651737 -6.827605,-0.492825 -0.656744,1.451524 -0.393799,2.8619 0.746984,4.006656 1.042135,1.045766 2.226413,1.346297 3.668763,0.931007 z m 12.526867,-3.908818 c 1.333916,-1.021448 1.823977,-2.777738 1.196068,-4.286467 -0.397449,-0.954981 -0.818845,-1.411668 -1.736531,-1.881877 -1.127624,-0.577791 -2.489835,-0.50363 -3.587622,0.195315 -2.310013,1.470756 -2.212573,4.955428 0.174975,6.256539 1.126542,0.61392 2.952121,0.482993 3.95311,-0.28351 z m -23.941352,-0.06592 c 2.077715,-1.063643 2.670776,-3.883957 1.176108,-5.593009 -0.841583,-0.962299 -1.550431,-1.292169 -2.776689,-1.292169 -2.078786,0 -3.591568,1.514663 -3.591568,3.596039 0,0.576269 0.127122,1.292049 0.28249,1.590626 0.36323,0.698022 1.280537,1.570005 1.920212,1.825331 0.794601,0.317166 2.242118,0.255761 2.989447,-0.126818 z M 51.39531,34.462871 c 0.690568,-0.261947 1.604008,-1.107915 1.983313,-1.836811 0.685501,-1.317332 0.127437,-3.697254 -1.064646,-4.540253 -2.496162,-1.765218 -5.861712,-0.04657 -5.861712,2.993335 0,0.860217 0.526157,2.080003 1.136061,2.633721 0.943091,0.856205 2.643737,1.191247 3.806984,0.750008 z"
     id="path3007"
     inkscape:connector-curvature="0"
     inkscape:export-filename="C:\Users\jherwig\Desktop\Screenshots\Patch.png"
     inkscape:export-xdpi="90"
     inkscape:export-ydpi="90" />
</svg>
