<?xml version="1.0" encoding="UTF-8" standalone="no"?>
<!-- Created with Inkscape (http://www.inkscape.org/) -->

<svg
   xmlns:dc="http://purl.org/dc/elements/1.1/"
   xmlns:cc="http://creativecommons.org/ns#"
   xmlns:rdf="http://www.w3.org/1999/02/22-rdf-syntax-ns#"
   xmlns:svg="http://www.w3.org/2000/svg"
   xmlns="http://www.w3.org/2000/svg"
   xmlns:sodipodi="http://sodipodi.sourceforge.net/DTD/sodipodi-0.dtd"
   xmlns:inkscape="http://www.inkscape.org/namespaces/inkscape"
   id="svg2"
   version="1.1"
   inkscape:version="0.48.4 r9939"
   width="100"
   height="100"
   sodipodi:docname="payment-cash.svg">
  <metadata
     id="metadata8">
    <rdf:RDF>
      <cc:Work
         rdf:about="">
        <dc:format>image/svg+xml</dc:format>
        <dc:type
           rdf:resource="http://purl.org/dc/dcmitype/StillImage" />
        <dc:title></dc:title>
      </cc:Work>
    </rdf:RDF>
  </metadata>
  <defs
     id="defs6" />
  <sodipodi:namedview
     pagecolor="#ffffff"
     bordercolor="#666666"
     borderopacity="1"
     objecttolerance="10"
     gridtolerance="10"
     guidetolerance="10"
     inkscape:pageopacity="0"
     inkscape:pageshadow="2"
     inkscape:window-width="1920"
     inkscape:window-height="1058"
     id="namedview4"
     showgrid="false"
     showborder="false"
     inkscape:zoom="0.5"
     inkscape:cx="-667.23107"
     inkscape:cy="178.09474"
     inkscape:window-x="-8"
     inkscape:window-y="-8"
     inkscape:window-maximized="1"
     inkscape:current-layer="svg2" />
  <path
     style="fill:#000000"
     d="m 27.420591,97.408159 c 0.761204,-2.330398 -1.155636,-2.185665 -2.884004,-2.215105 -8.072728,-0.67879 -16.1279421,-1.573118 -24.20617311,-2.183899 0,2.128893 0,4.257771 0,6.386664 9.03006431,0 18.06011311,0 27.09017711,0 0,-0.662554 0,-1.325107 0,-1.98766 z M 26.092,92.318083 c 2.571001,-4.447307 8.270532,-3.349146 12.590887,-3.528664 4.648626,-0.153297 9.356162,0.127981 13.973172,-0.254371 7.922513,-1.789436 12.9145,-8.722673 18.984085,-13.506842 6.254964,-2.450333 1.83169,-12.443123 -3.906517,-8.249077 -5.091982,3.049614 -9.506957,7.2423 -14.972713,9.6125 -6.485597,0.984118 -13.109473,0.325878 -19.658138,0.51546 -2.131473,-2.245531 1.293979,-2.300458 2.833498,-2.109188 2.909677,-0.186505 5.958245,0.242274 8.780757,-0.33027 4.870522,-1.672424 2.456163,-9.287512 -2.511699,-7.970844 -7.634184,0.16533 -15.348877,-0.495176 -22.929088,0.462611 -7.863537,1.475997 -10.9367002,9.763484 -13.5202815,16.325605 -1.0710957,3.296498 -5.01338071,8.661713 1.3095582,7.620667 6.2400403,0.513444 12.4730473,1.246833 18.7142283,1.662251 l 0.312251,-0.249838 0,0 z M 51.659176,64.963112 C 58.122285,59.336199 64.941494,54.08595 71.244493,48.292051 66.512751,49.02061 61.866424,52.242648 56.889812,51.72622 51.535835,50.72121 49.924729,42.839138 54.510768,39.912288 57.333031,37.446125 63.306933,36.156412 64.471429,33.319383 55.20395,22.218479 45.932486,11.124184 36.589217,0.0969426 32.595395,1.0755757 28.994568,5.984664 25.25607,8.5954837 20.84633,12.393613 16.192033,15.875272 11.996034,19.891127 c 12.443075,15.128495 25.143739,30.003246 37.695953,45.048608 0.54565,0.937003 1.338419,0.842869 1.967189,0.02345 z M 40.187966,42.303865 c -5.951369,-1.389598 -8.774693,-8.919818 -5.532387,-13.999582 3.035815,-6.166861 12.916045,-7.638137 16.914899,-1.657171 4.346062,5.736158 -0.0094,14.496429 -6.781033,15.731292 -1.515298,0.283748 -3.097322,0.271638 -4.601479,-0.07454 z m 19.313103,6.973319 C 65.198302,47.28593 71.158,45.909583 76.647274,43.398197 c 3.142499,-4.379205 7.587696,-5.173788 12.399071,-2.798416 2.529639,1.166059 0.918267,-2.654136 1.368737,-3.976757 1.23e-4,-5.366606 2.49e-4,-10.733194 3.9e-4,-16.099799 -4.514798,0.19702 -8.667027,-2.198245 -13.042624,-3.037379 -4.512514,-1.823533 -9.372255,-1.787983 -14.058148,-0.728717 -2.746036,1.029294 -11.085075,0.197521 -6.049661,4.113523 2.712923,3.011594 5.099641,6.762937 8.166474,9.157154 5.30924,-1.59629 6.805427,4.648562 1.372206,5.740067 -3.990149,3.069365 -10.644732,3.938408 -12.487003,8.980418 -0.37618,2.940681 2.348964,5.186976 5.184321,4.528893 z m 37.695749,-4.482982 c 0.735279,-8.893784 1.753401,-17.774678 2.421033,-26.668915 -2.160303,0 -4.320606,0 -6.480893,0 0,8.986857 0,17.973714 0,26.960555 1.2691,-0.155017 3.028675,0.3388 4.05986,-0.29164 z"
     id="path2987"
     inkscape:connector-curvature="0" />
  <path
     style="fill:#000000;fill-rule:evenodd;stroke:none"
     d="m 23.388967,48.637061 c 2.27497,0.361565 4.573909,0.867504 6.70707,2.24196 0.486995,0.409424 1.211483,0.768887 1.288803,1.836591 -0.05734,0.852894 -0.114687,1.705788 -0.17203,2.558682 -0.431458,0.903255 -1.191771,1.107515 -1.828935,1.340673 -2.603637,0.715575 -5.244519,0.476721 -7.832689,0.0084 -1.976047,-0.434583 -3.983006,-0.948799 -5.803143,-2.328918 -0.35936,-0.339776 -0.934743,-0.780987 -0.903805,-1.572476 0.06205,-0.82083 0.09686,-1.648377 0.176483,-2.46488 0.329524,-0.936802 1.044452,-1.080267 1.604622,-1.33442 2.238882,-0.699478 4.523347,-0.56475 6.763625,-0.285565 z"
     id="path2990"
     inkscape:connector-curvature="0" />
  <path
     style="fill:#000000;fill-rule:evenodd;stroke:none"
     d="m 26.7355,59.3505 c 2.244074,-0.461142 4.537785,-0.847436 6.833438,-0.692734 0.541777,0.08955 1.301603,0.08122 1.57303,0.663978 0.10283,0.500389 0.205659,1.000779 0.308489,1.501168 -0.245898,0.638491 -0.935772,0.976941 -1.502445,1.295717 -2.359444,1.168126 -4.931018,1.805989 -7.494584,2.29828 -1.971498,0.332208 -3.987305,0.628316 -5.984431,0.378745 -0.406747,-0.08743 -1.038992,-0.169118 -1.155738,-0.626957 -0.0924,-0.483588 -0.212102,-0.963007 -0.286881,-1.449285 0.14214,-0.627666 0.79982,-0.918355 1.288925,-1.226489 2.013341,-1.052193 4.224557,-1.644731 6.420198,-2.142423 z"
     id="path2990-7"
     inkscape:connector-curvature="0" />
</svg>
