<?xml version="1.0" encoding="UTF-8" standalone="no"?>
<!-- Created with Inkscape (http://www.inkscape.org/) -->

<svg
   xmlns:dc="http://purl.org/dc/elements/1.1/"
   xmlns:cc="http://creativecommons.org/ns#"
   xmlns:rdf="http://www.w3.org/1999/02/22-rdf-syntax-ns#"
   xmlns:svg="http://www.w3.org/2000/svg"
   xmlns="http://www.w3.org/2000/svg"
   xmlns:sodipodi="http://sodipodi.sourceforge.net/DTD/sodipodi-0.dtd"
   xmlns:inkscape="http://www.inkscape.org/namespaces/inkscape"
   id="svg2"
   version="1.1"
   inkscape:version="0.48.4 r9939"
   width="100"
   height="100"
   sodipodi:docname="settings.svg">
  <metadata
     id="metadata8">
    <rdf:RDF>
      <cc:Work
         rdf:about="">
        <dc:format>image/svg+xml</dc:format>
        <dc:type
           rdf:resource="http://purl.org/dc/dcmitype/StillImage" />
        <dc:title></dc:title>
      </cc:Work>
    </rdf:RDF>
  </metadata>
  <defs
     id="defs6" />
  <sodipodi:namedview
     pagecolor="#ffffff"
     bordercolor="#666666"
     borderopacity="1"
     objecttolerance="10"
     gridtolerance="10"
     guidetolerance="10"
     inkscape:pageopacity="0"
     inkscape:pageshadow="2"
     inkscape:window-width="1920"
     inkscape:window-height="1058"
     id="namedview4"
     showgrid="false"
     inkscape:zoom="1.84375"
     inkscape:cx="64.933413"
     inkscape:cy="-69.128888"
     inkscape:window-x="-8"
     inkscape:window-y="-8"
     inkscape:window-maximized="1"
     inkscape:current-layer="svg2" />
  <path
     style="fill:#000000"
     d=""
     id="path3011"
     inkscape:connector-curvature="0" />
  <path
     style="fill:#000000"
     d=""
     id="path3009"
     inkscape:connector-curvature="0" />
  <path
     style="fill:#000000"
     d=""
     id="path2989"
     inkscape:connector-curvature="0" />
  <path
     style="fill:#000000"
     d=""
     id="path2987"
     inkscape:connector-curvature="0" />
  <path
     style="fill:#000000"
     d=""
     id="path3813"
     inkscape:connector-curvature="0" />
  <path
     style="fill:#000000"
     d="M 5.8054299,99.346628 C 4.2240276,98.731403 2.6735015,97.448744 1.8229336,96.052134 0.31551616,93.576993 0.41016899,96.653568 0.41397824,50.259393 0.4164926,16.139523 0.47205981,8.0702983 0.71011874,7.059013 1.2848244,4.6173123 3.031847,2.4258526 5.2223389,1.3988775 L 6.4660258,0.81578662 29.355061,0.75770505 c 25.24536,-0.0641152 24.129805,-0.12018616 26.133504,1.31558485 0.555937,0.3983615 2.725761,2.6070069 4.821814,4.9080925 2.096052,2.3010854 4.768596,5.2242336 5.938976,6.4958936 7.009375,7.615911 7.311726,7.972234 8.003425,9.432231 0.686922,1.449876 0.696262,1.515337 0.772308,5.406211 l 0.07694,3.938557 -2.826283,2.832582 c -1.55446,1.557918 -2.902041,2.832569 -2.99462,2.832569 -0.09252,0 -0.168322,-2.724967 -0.168322,-6.055479 l 0,-6.055491 -8.205881,0 c -9.175251,0 -9.263932,-0.0137 -10.180791,-1.566305 -0.419998,-0.711234 -0.440401,-1.141189 -0.440401,-9.27849 l 0,-8.5327082 -20.984953,-3.78e-5 C 6.6091177,6.4308774 7.5372156,6.3836452 6.6995714,7.5796223 6.3910604,8.0200741 6.3558972,12.369163 6.3558972,50.090341 c 0,37.128897 0.038848,42.095259 0.3340317,42.666006 0.723128,1.398382 -1.2707163,1.314 31.0444261,1.314 25.669142,0 29.499609,-0.04199 30.054815,-0.329041 1.363798,-0.705251 1.323632,-0.367824 1.323632,-11.118356 l 0,-9.807987 2.979206,-2.96964 2.979206,-2.96964 -0.06159,13.322087 -0.0616,13.322072 -0.699002,1.475498 c -0.857898,1.810912 -2.329008,3.322604 -3.992014,4.102117 l -1.254373,0.58798 -31.048148,0.04476 C 7.6655482,99.773817 6.8793981,99.764513 5.8053293,99.346616 z M 40.530907,84.117318 c -0.319889,-0.319888 -0.340908,-1.076268 -0.04904,-1.762246 0.118427,-0.278201 1.415695,-3.676689 2.882894,-7.5522 2.069489,-5.466454 2.821997,-7.208008 3.356147,-7.767213 l 0.688518,-0.720827 5.346683,5.343326 c 2.940675,2.938839 5.346672,5.450691 5.346672,5.58189 0,0.621573 -1.427474,1.377752 -5.652141,2.994116 -11.734448,4.489629 -11.416797,4.386138 -11.919792,3.883154 z M 55.239684,69.29732 49.84759,63.901858 66.360892,47.387449 C 75.443213,38.304525 82.930478,30.87304 82.999259,30.87304 c 0.251623,0 10.775925,10.395907 10.775925,10.64445 0,0.240813 -32.792404,33.175279 -33.032174,33.175279 -0.06122,0 -2.537685,-2.427947 -5.503326,-5.395449 z M 90.967645,33.706088 c -2.936915,-2.919429 -5.339844,-5.386435 -5.339844,-5.48227 0,-0.290848 1.320677,-1.306683 2.42894,-1.86829 0.574731,-0.291238 1.651553,-0.627218 2.392947,-0.746612 6.181261,-0.995458 10.668392,5.178259 7.846718,10.796091 -0.579056,1.152868 -1.616301,2.617566 -1.849911,2.612262 -0.07644,-0.0012 -2.541948,-2.391766 -5.47885,-5.311181 z"
     id="path4030"
     inkscape:connector-curvature="0" />
</svg>
