<?xml version="1.0" encoding="UTF-8" standalone="no"?>
<!-- Created with Inkscape (http://www.inkscape.org/) -->

<svg
   xmlns:dc="http://purl.org/dc/elements/1.1/"
   xmlns:cc="http://creativecommons.org/ns#"
   xmlns:rdf="http://www.w3.org/1999/02/22-rdf-syntax-ns#"
   xmlns:svg="http://www.w3.org/2000/svg"
   xmlns="http://www.w3.org/2000/svg"
   xmlns:sodipodi="http://sodipodi.sourceforge.net/DTD/sodipodi-0.dtd"
   xmlns:inkscape="http://www.inkscape.org/namespaces/inkscape"
   id="svg2"
   version="1.1"
   inkscape:version="0.91 r13725"
   width="100"
   height="100"
   sodipodi:docname="person-mechanic.svg">
  <metadata
     id="metadata8">
    <rdf:RDF>
      <cc:Work
         rdf:about="">
        <dc:format>image/svg+xml</dc:format>
        <dc:type
           rdf:resource="http://purl.org/dc/dcmitype/StillImage" />
        <dc:title></dc:title>
      </cc:Work>
    </rdf:RDF>
  </metadata>
  <defs
     id="defs6" />
  <sodipodi:namedview
     pagecolor="#ffffff"
     bordercolor="#666666"
     borderopacity="1"
     objecttolerance="10"
     gridtolerance="10"
     guidetolerance="10"
     inkscape:pageopacity="0"
     inkscape:pageshadow="2"
     inkscape:window-width="2495"
     inkscape:window-height="1416"
     id="namedview4"
     showgrid="false"
     inkscape:zoom="7.375"
     inkscape:cx="5.1696166"
     inkscape:cy="51.236134"
     inkscape:window-x="65"
     inkscape:window-y="24"
     inkscape:window-maximized="1"
     inkscape:current-layer="svg2"
     showborder="true" />
  <path
     style="fill:#000000"
     d=""
     id="path3011"
     inkscape:connector-curvature="0" />
  <path
     style="fill:#000000"
     d=""
     id="path3009"
     inkscape:connector-curvature="0" />
  <path
     style="fill:#000000"
     d=""
     id="path2989"
     inkscape:connector-curvature="0" />
  <path
     style="fill:#000000"
     d=""
     id="path2987"
     inkscape:connector-curvature="0" />
  <path
     style="fill:#000000"
     d=""
     id="path3813"
     inkscape:connector-curvature="0" />
  <g
     style="font-style:normal;font-weight:normal;font-size:56.07156754px;line-height:125%;font-family:Sans;letter-spacing:0px;word-spacing:0px;fill:#000000;fill-opacity:1;stroke:none;stroke-width:1px;stroke-linecap:butt;stroke-linejoin:miter;stroke-opacity:1"
     id="text5053" />
  <rect
     style="fill:#010000;fill-opacity:0;stroke:none;stroke-width:2;stroke-miterlimit:4;stroke-dasharray:none;stroke-opacity:1"
     id="rect5057"
     width="53.423729"
     height="8.9491529"
     x="-145.08475"
     y="6.9830508"
     ry="4.4745765" />
  <path
     style="fill:#000000"
     d="M 0.86262907,97.875443 C 1.9941183,90.74837 4.2290523,82.607613 6.0297953,79.054014 7.868605,75.425303 9.019101,74.624514 20.320592,69.107071 30.65943,64.059618 31.092641,63.798026 32.067166,62.014068 c 0.556507,-1.018732 1.061584,-1.852259 1.122384,-1.852259 0.0608,0 3.836203,2.705005 8.389784,6.011094 4.553581,3.306107 8.375939,6.011094 8.494129,6.011094 0.118199,0 3.957704,-2.717412 8.532249,-6.038731 4.574543,-3.3213 8.417245,-5.938823 8.53933,-5.816744 0.12208,0.12206 -0.490445,1.053181 -1.36119,2.069107 -0.870745,1.015924 -2.198243,3.104269 -2.949994,4.640737 -1.393124,2.847378 -1.524099,3.985547 -1.579961,13.72976 -0.0046,0.789676 -2.22058,3.274808 -8.910557,9.992486 l -8.904532,8.941423 -21.433084,0 -21.43308329,0 0.28998836,-1.826592 z M 55.081953,91.858464 c 4.286361,-4.313981 8.049164,-8.327091 8.361777,-8.918045 0.381,-0.720212 0.57324,-2.845739 0.583074,-6.446778 0.01403,-5.128687 0.07654,-5.502903 1.378978,-8.252177 2.381149,-5.026285 6.523295,-8.238771 12.123754,-9.402681 2.367242,-0.491976 6.212715,-0.246563 7.360204,0.469714 0.509399,0.317958 -0.527289,1.571938 -5.050075,6.108615 l -5.691057,5.70853 1.005247,3.764471 c 0.552889,2.070474 1.128772,3.888009 1.279748,4.038981 0.150973,0.151027 1.968515,0.726861 4.038975,1.279758 l 3.764467,1.005231 5.708533,-5.691059 c 4.536679,-4.522777 5.79066,-5.55947 6.108628,-5.050078 0.716269,1.147496 0.961676,4.992965 0.469704,7.360209 -1.164508,5.603284 -4.378532,9.746234 -9.402679,12.120255 -2.736521,1.293057 -3.147279,1.36245 -8.252177,1.394186 -6.466772,0.04025 -6.684597,0.13372 -11.379222,4.884912 l -3.428195,3.469527 -8.386529,0 -8.386536,0 7.793381,-7.843571 z m 14.992666,5.662328 c 1.173022,-1.199671 2.519573,-2.40796 2.992337,-2.685073 0.476869,-0.279519 3.442807,-0.607697 6.661667,-0.737099 5.467345,-0.219783 5.975668,-0.316648 8.810592,-1.678897 2.079695,-0.999346 3.828249,-2.290456 5.663778,-4.182045 1.460405,-1.505005 2.754798,-2.575349 2.87643,-2.378557 0.323419,0.523311 1.882695,8.493638 2.224687,11.371642 l 0.293664,2.471272 -15.827963,0 -15.827965,0 2.132773,-2.181243 z M 46.041107,63.579265 C 35.969564,61.049297 26.806246,47.092761 25.352397,32.068542 c -0.325054,-3.359158 0.254283,-3.600091 1.050767,-0.436977 1.11069,4.410973 3.280881,7.040994 5.809922,7.040994 0.750212,0 2.917344,-0.56689 4.815848,-1.259756 4.132907,-1.508321 9.634072,-2.608304 13.044529,-2.608304 3.410457,0 8.911621,1.099983 13.044525,2.608304 1.898508,0.692866 4.065639,1.259756 4.815852,1.259756 2.529042,0 4.699229,-2.630021 5.809925,-7.040994 0.806451,-3.20272 1.412774,-2.96237 1.075871,0.426483 -1.310404,13.181162 -8.520421,25.777671 -17.213944,30.074253 -2.602131,1.286045 -3.679152,1.568004 -6.507143,1.7036 -1.863896,0.08946 -4.139743,-0.02606 -5.057439,-0.256636 z M 31.227495,32.858855 C 30.517594,32.261506 29.802185,31.149445 29.6377,30.387587 29.473211,29.625731 28.967718,27.79364 28.514371,26.316252 27.778458,23.91802 27.569888,23.630085 26.568527,23.630085 l -1.12158,0 0.250431,-4.620188 C 26.450909,5.1081234 32.088068,0.88683621 49.934917,0.86000111 68.038936,0.83285631 73.665296,4.999435 74.443389,19.009897 l 0.256588,4.620188 -1.12648,0 c -1.029286,0 -1.203951,0.268842 -2.024479,3.115948 -1.235811,4.288075 -1.934016,5.757882 -3.097234,6.520049 -0.900743,0.59019 -1.261912,0.573247 -3.777604,-0.177261 -9.335325,-2.785128 -19.974329,-2.791795 -28.82349,-0.01822 -3.40977,1.068776 -3.083492,1.083733 -4.623195,-0.211838 z"
     id="path4622"
     inkscape:connector-curvature="0" />
</svg>
