<?xml version="1.0" encoding="UTF-8" standalone="no"?>
<!-- Created with Inkscape (http://www.inkscape.org/) -->

<svg
   xmlns:dc="http://purl.org/dc/elements/1.1/"
   xmlns:cc="http://creativecommons.org/ns#"
   xmlns:rdf="http://www.w3.org/1999/02/22-rdf-syntax-ns#"
   xmlns:svg="http://www.w3.org/2000/svg"
   xmlns="http://www.w3.org/2000/svg"
   xmlns:sodipodi="http://sodipodi.sourceforge.net/DTD/sodipodi-0.dtd"
   xmlns:inkscape="http://www.inkscape.org/namespaces/inkscape"
   id="svg2"
   version="1.1"
   inkscape:version="0.91 r13725"
   width="1000"
   height="1000"
   viewBox="0 0 1000 1000"
   sodipodi:docname="registration-plate-sticker.svg">
  <metadata
     id="metadata8">
    <rdf:RDF>
      <cc:Work
         rdf:about="">
        <dc:format>image/svg+xml</dc:format>
        <dc:type
           rdf:resource="http://purl.org/dc/dcmitype/StillImage" />
        <dc:title></dc:title>
      </cc:Work>
    </rdf:RDF>
  </metadata>
  <defs
     id="defs6" />
  <sodipodi:namedview
     pagecolor="#ffffff"
     bordercolor="#666666"
     borderopacity="1"
     objecttolerance="10"
     gridtolerance="10"
     guidetolerance="10"
     inkscape:pageopacity="0"
     inkscape:pageshadow="2"
     inkscape:window-width="2495"
     inkscape:window-height="1416"
     id="namedview4"
     showgrid="false"
     inkscape:zoom="0.64"
     inkscape:cx="366.36981"
     inkscape:cy="157.52979"
     inkscape:window-x="65"
     inkscape:window-y="24"
     inkscape:window-maximized="1"
     inkscape:current-layer="svg2" />
  <path
     style="color:#000000;font-style:normal;font-variant:normal;font-weight:normal;font-stretch:normal;font-size:medium;line-height:normal;font-family:sans-serif;text-indent:0;text-align:start;text-decoration:none;text-decoration-line:none;text-decoration-style:solid;text-decoration-color:#000000;letter-spacing:normal;word-spacing:normal;text-transform:none;direction:ltr;block-progression:tb;writing-mode:lr-tb;baseline-shift:baseline;text-anchor:start;white-space:normal;clip-rule:nonzero;display:inline;overflow:visible;visibility:visible;opacity:1;isolation:auto;mix-blend-mode:normal;color-interpolation:sRGB;color-interpolation-filters:linearRGB;solid-color:#000000;solid-opacity:1;fill:#000000;fill-opacity:1;fill-rule:nonzero;stroke:none;stroke-width:10;stroke-linecap:round;stroke-linejoin:miter;stroke-miterlimit:4;stroke-dasharray:none;stroke-dashoffset:0;stroke-opacity:1;color-rendering:auto;image-rendering:auto;shape-rendering:auto;text-rendering:auto;enable-background:accumulate"
     d="M 682.54688 42.214844 C 680.39985 42.201964 678.22344 42.204686 676.01953 42.222656 C 637.81634 42.534601 591.40713 47.417461 551.46875 55.611328 C 524.95751 61.050445 517.41699 63.014607 481.60547 73.824219 C 474.75051 75.893368 456.67696 82.790285 439.19922 89.695312 C 430.46035 93.147826 421.96668 96.575957 415.33789 99.339844 C 412.0235 100.72179 409.17688 101.93675 406.97461 102.91797 C 404.77233 103.89919 403.51822 104.41143 402.12109 105.3125 C 402.08539 105.3354 400.23316 106.3776 398.0918 107.48242 C 395.94963 108.58766 393.26626 109.93431 390.59375 111.23633 C 361.0298 125.63965 321.34411 150.1286 293.11523 171.36719 C 222.41431 224.56054 164.74679 289.46835 120.76953 365.36133 C 98.640804 403.5496 75.688727 456.19828 62.355469 499.33789 C 57.572414 514.81342 48.824868 549.25251 46.121094 563.31445 C 30.549071 644.30245 29.846854 724.65117 44.052734 802.92578 C 47.982278 824.57763 54.383381 852.12294 58.914062 866.68164 C 59.842509 869.66506 60.699784 872.61281 61.318359 874.90625 C 61.627647 876.05297 61.877429 877.04009 62.041016 877.75 C 62.204602 878.45991 62.253537 879.21832 62.222656 878.50586 C 62.284026 879.92177 62.482321 880.20682 62.699219 880.98242 C 62.916117 881.75803 63.198911 882.6664 63.550781 883.74219 C 64.254522 885.89376 65.232117 888.69335 66.416016 891.98242 C 68.783814 898.56056 71.976048 907.07787 75.367188 915.9082 C 82.149463 933.56886 89.59553 952.22035 93.085938 959.54883 C 97.4579 968.7285 101.39106 976.7408 105.24219 984.26172 L 106.63672 986.98242 L 147.3418 986.98242 L 143.33594 979.59766 C 135.07797 964.37395 127.43122 948.76808 120.41992 932.79102 L 117.99805 927.27148 L 157.22852 912.00781 L 205.98242 893.03711 L 199.51953 876.42773 L 193.06836 859.84961 L 144.3418 878.41016 L 105.04102 893.37891 L 103.32617 888.52148 C 97.285833 871.41283 93.256652 857.7947 87.009766 833.3457 C 76.231846 791.16321 69.67039 734.22421 69.953125 684.93555 C 70.019565 673.35335 70.850505 655.60628 71.890625 640.2207 C 72.410685 632.52791 72.984662 625.41049 73.533203 619.95312 C 73.774647 617.55103 74.007764 615.63373 74.228516 613.99219 C 75.428631 614.15253 76.543158 614.28377 78.035156 614.54297 C 82.810499 615.37251 88.923784 616.35716 91.882812 616.76758 C 94.475044 617.1271 107.46944 619.11001 120.36719 621.12109 C 133.29033 623.13616 146.68327 625.16524 150.48047 625.67773 C 152.19894 625.90968 153.94635 626.18892 155.31641 626.44141 C 156.68647 626.69389 158.18227 627.17108 157.4082 626.86719 C 158.72074 627.38248 160.28515 627.74664 162.05273 627.46094 C 163.82032 627.17523 165.55743 626.08548 166.60742 624.82031 C 168.70741 622.28997 169.06713 619.65976 169.38867 616.47656 C 169.66796 613.71166 170.51481 608.57448 171.15234 605.79102 C 171.56155 604.00436 171.82902 602.29193 171.93945 600.75391 C 171.99465 599.9849 172.01808 599.27143 171.95508 598.47461 C 171.89208 597.67779 172.28426 596.87242 170.60352 594.84766 C 169.1556 593.10335 168.54675 593.23888 167.86914 592.96289 C 167.19153 592.6869 166.53075 592.48246 165.80273 592.2832 C 164.34671 591.88469 162.65544 591.54156 160.86914 591.28711 C 153.64225 590.25771 137.01779 587.72687 121.62695 585.3418 C 106.23611 582.95673 91.600705 580.62446 89.71875 580.26367 C 88.072496 579.94807 86.485612 579.70239 85.142578 579.55078 C 84.471061 579.47498 83.868174 579.4221 83.273438 579.40039 C 82.854488 579.38509 82.463428 579.3286 81.708984 579.4707 C 81.616814 579.4617 81.549205 579.45813 81.359375 579.42773 C 80.968073 579.36513 80.381869 579.21213 79.832031 579.07422 L 80.478516 575.44727 C 82.492129 564.17796 91.206163 528.03014 94.603516 516.86523 C 113.45585 454.90989 140.19224 398.22786 174.50391 347.42383 C 181.71652 336.74437 187.06773 329.16466 190.6875 324.49414 C 191.96277 322.84869 192.71007 322.05097 193.50977 321.16211 C 194.51448 321.93745 195.54883 322.73787 196.98047 323.86523 C 200.73424 326.82121 205.75725 330.83168 211.12305 335.16797 C 221.88324 343.86362 232.23722 352.22934 234.14258 353.76758 C 241.32501 359.56609 248.05061 364.93311 253.13477 368.93555 C 255.67685 370.93676 257.80725 372.59596 259.39453 373.80859 C 260.18817 374.41491 260.84255 374.90841 261.36914 375.29297 C 261.89573 375.67752 261.93072 375.79627 262.92383 376.31836 C 265.41548 377.62827 267.13956 376.78813 268.10742 376.34766 C 269.07528 375.90719 269.72435 375.4229 270.375 374.88867 C 271.6763 373.82021 272.87705 372.51024 274.03906 370.96094 C 281.65714 360.80378 303.98698 335.5716 316.97656 322.5293 C 355.29815 284.05217 409.7279 245.99336 458.48828 223.57422 C 462.20528 221.86521 465.76991 220.19587 468.53711 218.87305 C 469.92071 218.21164 471.10279 217.63833 472.02148 217.18164 C 472.94018 216.72495 473.36933 216.54202 474.15234 216.05273 C 474.40237 215.89651 476.79161 214.67137 478.36133 214.00977 L 486.09766 210.75 L 467.10742 161.94336 L 451.69336 122.32812 L 458.99805 119.48633 L 466.30469 116.64258 L 481.71875 156.25586 L 500.65234 204.91211 L 508.49609 202.40625 C 510.29534 201.83197 512.70753 201.10134 513.55078 200.86719 C 515.27213 200.38922 522.46807 198.14958 530.92383 195.50781 C 535.13706 194.19149 539.04207 192.98479 541.92773 192.10547 C 543.37057 191.66581 544.5614 191.30649 545.39453 191.06055 C 545.8111 190.93758 546.14031 190.84322 546.34766 190.78516 C 546.39523 190.77185 546.40466 190.77052 546.4375 190.76172 C 546.36987 190.77479 546.32028 190.78607 546.05859 190.81836 C 546.32199 190.78579 546.32202 190.77515 546.47266 190.75195 C 546.49248 190.74672 546.53755 190.73379 546.54297 190.73242 C 546.54716 190.7313 546.54994 190.73477 546.56055 190.73633 C 547.06997 190.65243 547.15171 190.60224 547.57227 190.5 C 548.12483 190.36566 548.84829 190.18435 549.71094 189.96484 C 551.43623 189.52584 553.70701 188.93604 556.125 188.29688 C 593.78737 178.34118 646.39649 172.27529 690.61523 172.8457 C 706.64631 173.0525 739.48906 175.86731 756.88477 178.54102 C 760.95299 179.1663 764.70092 179.58177 767.62695 179.75 C 769.08997 179.8341 770.32315 179.86453 771.47266 179.79297 C 772.04741 179.75717 772.58029 179.71677 773.3418 179.52148 C 773.72255 179.42388 774.16751 179.30373 774.81445 178.94141 C 775.4614 178.57908 776.50901 177.89477 777.14258 176.31055 C 777.4936 175.43287 777.39773 175.49998 777.44141 175.30273 C 777.48511 175.10548 777.52491 174.91189 777.56836 174.68555 C 777.65526 174.23286 777.75781 173.65966 777.88086 172.94922 C 778.12695 171.52835 778.45104 169.57364 778.83594 167.19922 C 779.60573 162.45037 780.61579 156.03316 781.70117 149.0293 C 783.87194 135.02156 786.33782 118.68286 787.75 108.69531 C 788.51428 103.29032 789.51623 97.077357 790.37109 92.242188 C 790.64391 90.699095 790.85542 89.649296 791.08398 88.464844 C 792.40722 88.693809 793.70458 88.913329 795.33398 89.224609 C 859.10522 101.4074 922.0063 124.52318 979.97852 156.95898 L 987.41992 161.12305 L 987.41992 119.95312 L 984.74805 118.54688 C 917.29205 83.070039 841.30785 57.937434 771.08984 48.511719 C 763.87027 47.5426 748.49155 46.010219 734.59375 44.759766 C 727.64485 44.134539 721.09476 43.584145 716.16797 43.21875 C 713.70457 43.036053 711.65301 42.899275 710.12109 42.822266 C 709.35514 42.783756 708.72641 42.759576 708.18164 42.753906 C 707.90926 42.751106 707.66347 42.750405 707.36328 42.765625 C 707.12299 42.777784 707.05222 42.642267 706.25977 42.886719 C 706.00192 42.896305 705.62622 42.903398 705.13086 42.900391 C 704.03728 42.893791 702.53837 42.846741 700.99023 42.759766 C 695.16041 42.432276 688.98768 42.253468 682.54688 42.214844 z M 546.56055 190.73633 C 546.53248 190.74095 546.50472 190.74702 546.47266 190.75195 C 546.46274 190.75457 546.45041 190.75826 546.4375 190.76172 C 546.50255 190.74915 546.57396 190.7383 546.56055 190.73633 z M 706.36719 42.873047 C 706.49097 42.854671 706.50579 42.879611 706.5293 42.876953 C 706.5763 42.871653 706.5004 42.879066 706.37695 42.884766 C 706.36728 42.88521 706.33842 42.884333 706.32812 42.884766 C 706.33451 42.883685 706.36131 42.87392 706.36719 42.873047 z M 710.07617 209.85156 L 705.17383 209.94922 L 705.17383 210.69336 C 703.88425 211.09615 702.65518 211.59778 701.54883 212.21289 C 699.22611 213.50427 693.9426 216.33289 689.97656 218.40625 L 680.39453 223.41406 L 678.66406 236.51953 L 676.13867 255.64062 L 688.70508 250.43164 C 691.21272 249.39197 695.24865 247.36537 698.72461 245.54102 C 693.27604 280.56989 688.97806 308.54227 686.15039 327.42969 C 684.69751 337.13423 683.60516 344.61282 682.88477 349.78711 C 682.52457 352.37425 682.25731 354.38031 682.08203 355.83203 C 681.99443 356.55789 681.93081 357.14059 681.88672 357.62695 C 681.84262 358.11331 681.67647 357.9093 681.86914 359.44727 C 682.17722 361.90505 683.43378 362.65978 684.06836 363.13672 C 684.70294 363.61366 685.17618 363.83429 685.64844 364.04688 C 686.59296 364.47204 687.52613 364.76616 688.61328 365.06641 C 690.78759 365.66691 693.49979 366.21054 696.47852 366.63477 C 699.31679 367.039 701.90271 367.37394 703.83594 367.5918 C 704.80255 367.70072 705.59488 367.78064 706.24414 367.82812 C 706.56877 367.85192 706.83874 367.87019 707.20898 367.87109 C 707.39411 367.87153 707.5758 367.88007 708.02344 367.82227 C 708.24726 367.79337 708.52141 367.77747 709.13477 367.55469 C 709.44144 367.44329 709.85 367.28977 710.42969 366.85742 C 710.71953 366.64125 711.05482 366.34592 711.39062 365.91406 C 711.55854 365.69813 711.72554 365.44761 711.875 365.16211 C 712.02409 364.87732 712.25064 364.22071 712.25195 364.2168 C 712.46852 363.45976 712.37204 363.70668 712.38672 363.62305 C 712.40142 363.53945 712.41313 363.46336 712.42773 363.37305 C 712.45693 363.19241 712.49343 362.96409 712.53711 362.67969 C 712.62441 362.11087 712.74266 361.32273 712.88477 360.36523 C 713.16897 358.45024 713.54817 355.85845 713.95508 353.04297 C 714.76058 347.46964 716.46206 336.25879 717.72461 328.21094 C 718.99581 320.10802 722.32506 298.36466 725.13281 279.83789 C 727.93774 261.32991 731.12017 240.82977 732.17383 234.45898 C 733.24831 227.96226 734.20138 222.048 734.42773 220.17578 C 734.60261 218.72946 734.09844 216.49058 732.92383 215.12109 C 731.74922 213.75161 730.47868 213.18709 729.27734 212.74023 C 726.87467 211.84652 724.13211 211.39903 719.79102 210.75977 C 716.35741 210.25414 713.77666 209.93353 711.47461 209.86133 C 710.99439 209.84633 710.5298 209.84286 710.07617 209.85156 z M 773.61133 219.18555 L 772.19336 219.91992 L 760.55859 225.9668 L 746.67773 233.18164 L 744.69531 245.9707 C 744.24289 248.89046 743.90367 251.60492 743.71289 253.73438 C 743.61749 254.79909 743.55677 255.7026 743.54688 256.52539 C 743.54188 256.93679 743.5409 257.31338 743.5957 257.82812 C 743.6229 258.08551 743.6554 258.37218 743.78125 258.83398 C 743.90711 259.29579 743.94434 259.99862 745.13867 261.18359 C 746.71264 262.74522 747.98927 262.64862 748.64258 262.66602 C 749.29589 262.68342 749.64332 262.61182 749.94727 262.55273 C 750.55516 262.4345 750.93927 262.30117 751.36328 262.15234 C 752.2113 261.85469 753.10931 261.47297 754.17188 260.99023 C 756.29701 260.02477 758.99811 258.66915 761.90039 257.09766 C 762.904 256.55423 763.59399 256.22087 764.52539 255.73047 C 764.10554 258.23554 763.74809 260.57023 763.50391 262.36328 C 763.38127 263.26375 763.2868 264.02191 763.22461 264.65039 C 763.19351 264.96463 763.16985 265.2375 763.15625 265.55664 C 763.14925 265.71621 763.14254 265.88164 763.15234 266.14648 C 763.15304 266.16508 763.17853 266.24961 763.17773 266.26758 C 763.17673 266.28338 763.17771 266.25574 763.17578 266.27734 C 763.15858 266.47246 763.10968 266.88423 763.03711 267.38867 C 762.89199 268.39755 762.65178 269.81295 762.36328 271.29688 C 761.62885 275.07441 758.88707 292.58065 756.01953 311.47266 C 753.15656 330.3346 749.94435 351.04839 748.91016 357.33398 C 748.36922 360.62154 747.96727 363.64064 747.74805 365.97852 C 747.63844 367.14745 747.5703 368.12512 747.56641 369.02734 C 747.56441 369.47846 747.5644 369.88645 747.6543 370.50781 C 747.6991 370.81849 747.7449 371.17449 747.98828 371.80469 C 748.23168 372.43488 748.61731 373.75585 750.70898 374.67578 C 751.60687 375.07063 751.61361 374.99189 751.87695 375.05664 C 752.1403 375.12144 752.4113 375.18134 752.72656 375.24805 C 753.35708 375.38146 754.15081 375.53726 755.08789 375.71289 C 756.96205 376.06415 759.39724 376.49094 761.98242 376.91992 C 765.49585 377.50294 768.02467 377.83001 770.31445 377.76367 C 771.45934 377.73047 772.57983 377.62786 773.88281 377.10742 C 775.18579 376.58698 776.75656 375.34101 777.47461 373.72266 C 778.02501 372.48215 778.00515 372.12273 778.20703 371.19922 C 778.40891 370.27571 778.63946 369.09691 778.91406 367.5918 C 779.46326 364.58158 780.18634 360.27798 781.12305 354.45508 C 782.99646 342.80928 785.71683 325.1056 789.52539 299.85352 C 791.62338 285.94317 793.65015 272.64347 793.97656 270.61133 C 796.27837 256.28086 797.80703 246.09275 798.6582 239.25586 C 799.08379 235.83741 799.3413 233.27296 799.4375 231.31836 C 799.4856 230.34106 799.5027 229.5312 799.4375 228.68555 C 799.3723 227.83989 799.94686 227.02937 797.92578 224.80469 C 796.08132 222.77442 795.56224 223.17012 794.70898 222.87305 C 793.85573 222.57598 792.93529 222.32294 791.88672 222.07031 C 789.78958 221.56506 787.21734 221.0859 784.50586 220.70703 L 773.61133 219.18555 z M 541.29492 232.0293 C 536.92613 232.1176 532.4446 233.10867 527.875 234.88672 C 517.61608 238.87845 510.08902 246.11469 506.51172 255.16406 C 502.93442 264.21343 503.3262 274.84014 507.68555 285.41602 L 512.73633 297.66406 L 526.875 292.16211 L 540.78125 286.75195 L 536.83008 273.89258 C 535.50179 269.56943 535.4539 266.90199 535.75781 265.8418 C 536.06172 264.7816 536.29991 264.38464 538.60352 263.48828 C 540.56421 262.72538 541.11485 262.81002 542.98633 264.6582 C 544.85781 266.50638 547.20827 270.7033 549.03906 277.05469 C 550.03068 280.49478 550.44543 283.06467 550.3418 287.92188 C 550.23816 292.77907 549.5233 299.8057 548.11328 311.11719 C 547.16288 318.74158 545.22847 335.35218 543.80273 348.12891 C 542.53863 359.45727 541.86908 365.33784 541.9668 369.99414 C 542.0645 374.65044 543.16915 377.91987 544.77344 382.04297 C 545.69731 384.41736 546.61439 386.60369 547.38867 388.29883 C 547.77581 389.1464 548.11954 389.8617 548.46289 390.49609 C 548.63456 390.81329 548.7955 391.10296 549.04492 391.4707 C 549.29434 391.83844 548.77952 392.32959 551.37891 393.47266 C 553.56781 394.43527 553.71744 393.90286 554.05273 393.86328 C 554.38803 393.82368 554.56061 393.78298 554.72266 393.74609 C 555.04674 393.67239 555.28146 393.60355 555.55469 393.52148 C 556.10114 393.35736 556.74358 393.14404 557.54297 392.86914 C 559.14174 392.31935 561.33226 391.52908 564 390.54297 C 569.33548 388.57074 576.5597 385.82105 584.41992 382.75781 L 617.41406 369.89844 L 612.33203 355.33984 L 607.13281 340.44727 L 584.80664 349.13281 C 580.92035 350.64497 577.74363 351.76541 574.90234 352.74414 C 575.01815 351.65251 575.09545 350.91807 575.23438 349.61719 C 575.89469 343.43389 576.79981 335.04584 577.78906 325.94922 C 580.23671 303.44208 581.49286 291.98416 581.41797 283.81055 C 581.34307 275.63694 579.66303 270.76927 576.93359 263.70312 C 573.03675 253.61462 568.30624 245.75505 562.36328 240.27344 C 556.42032 234.79183 549.09626 231.87153 541.29492 232.0293 z M 480.06641 255.25781 C 479.72592 255.24516 479.4841 255.2837 479.24414 255.29883 C 477.48044 255.41016 476.16677 255.81218 474.3125 256.36133 C 472.45823 256.91048 470.33204 257.6366 468.16016 258.47656 L 468.1582 258.47656 L 458.0957 262.37109 L 449.86133 275.46289 L 441.16992 289.2832 L 446.07812 301.90039 L 453.43164 320.79688 L 461.10352 310.04688 C 462.5966 307.95403 465.50633 303.41933 467.95312 299.4375 C 467.96693 299.4151 467.97653 299.40131 467.99023 299.37891 C 469.04269 301.87879 470.0386 304.22693 471.49805 307.81055 C 475.68191 318.08384 481.34416 332.3363 487.46094 348.05664 C 493.5901 363.80881 499.24523 378.16551 503.42578 388.62109 C 505.51606 393.84889 507.23777 398.09872 508.47266 401.08008 C 509.0901 402.57076 509.5821 403.73806 509.95703 404.58984 C 510.14449 405.01574 510.29746 405.35551 510.45508 405.67773 C 510.53388 405.83885 510.60508 405.98456 510.74414 406.22461 C 510.81364 406.34463 510.88991 406.48265 511.08203 406.74414 C 511.27415 407.00563 511.04263 407.47101 513.125 408.38672 C 514.51282 408.9971 515.00711 408.83387 515.4082 408.82227 C 515.8093 408.81067 516.05508 408.77263 516.2793 408.73633 C 516.72773 408.66363 517.06489 408.58064 517.4375 408.48242 C 518.18271 408.28599 519.01316 408.02653 519.98633 407.70117 C 521.93266 407.05046 524.40194 406.14137 527.03516 405.09766 L 540.96289 399.57812 L 512.71875 326.95898 C 504.13346 304.88684 497.37905 287.83355 492.62695 276.2207 C 490.25091 270.41428 488.3783 265.97464 487.00391 262.89648 C 486.31671 261.35741 485.76208 260.16971 485.2793 259.23633 C 485.0379 258.76964 484.82662 258.37728 484.53516 257.92773 C 484.38942 257.70296 484.23632 257.46716 483.92773 257.11523 C 483.61914 256.76331 483.41872 256.10575 481.48438 255.52539 L 481.48242 255.52539 L 481.47852 255.52344 C 480.84604 255.33432 480.40689 255.27047 480.06641 255.25781 z M 919.83398 282.18359 C 919.51814 282.18242 919.19218 282.19777 918.85938 282.23242 L 918.85742 282.23242 L 914.37695 282.69727 L 914.37695 284.16602 C 913.77253 284.59321 913.13464 284.98055 912.60938 285.48438 C 910.89797 287.12588 909.18829 289.24199 906.76758 292.37305 C 903.66208 296.38985 901.70584 299.0702 900.50977 301.55273 C 900.21075 302.17337 899.93915 302.78616 899.74609 303.68164 C 899.55304 304.57712 899.25547 306.05156 900.38867 307.92383 C 901.52188 309.7961 903.96086 310.54611 905.19336 310.52539 C 906.0459 310.51107 906.60913 310.36615 907.11133 310.19922 C 907.18204 310.19488 907.1976 310.19154 907.30469 310.1875 C 907.76107 310.1703 908.49194 310.16593 909.36719 310.17773 C 911.11769 310.20183 913.47101 310.29262 915.91406 310.44531 C 917.00574 310.51351 917.87423 310.51451 918.90234 310.55664 C 916.60044 313.68766 914.45854 316.62902 909.26172 323.08203 C 900.70035 333.71287 889.95012 347.09901 885.35156 352.85352 C 862.81313 381.05748 852.39382 393.93714 850.37109 396.23242 C 849.5654 397.14669 848.69598 397.95443 847.91406 399.68164 C 847.13214 401.40885 847.25741 404.37836 848.19531 406.0918 C 850.07113 409.51867 852.52306 410.93281 857.1582 414.74609 C 859.15288 416.3871 861.00897 417.85832 862.45117 418.94922 C 863.17228 419.49467 863.77941 419.93989 864.32031 420.30664 C 864.59077 420.49001 864.82726 420.64862 865.17969 420.8457 C 865.3559 420.9442 865.54288 421.05203 865.94922 421.21094 C 866.35556 421.36984 866.66525 422.27563 869.49219 421.29297 L 869.49805 421.29102 L 869.50391 421.28906 C 870.82072 420.8275 870.84426 420.58456 871.03711 420.42773 C 871.22996 420.27091 871.32565 420.1773 871.41016 420.0957 C 871.57917 419.93251 871.67892 419.82468 871.78711 419.70703 C 872.00349 419.47174 872.21918 419.22368 872.48047 418.91797 C 873.00305 418.30655 873.6828 417.48772 874.5 416.48828 C 876.13439 414.48939 878.30527 411.78166 880.64258 408.82031 C 885.27006 402.95734 893.25096 392.94599 898.34375 386.61719 C 903.4546 380.26593 914.52469 366.48951 922.94727 355.99609 C 931.36708 345.50609 939.5385 335.33883 941.03711 333.48633 C 948.02175 324.85226 953.58081 317.817 957.39648 312.79102 C 959.30432 310.27803 960.76891 308.27713 961.80664 306.75586 C 962.3255 305.99522 962.73327 305.37369 963.0918 304.73242 C 963.27106 304.41179 963.44018 304.10485 963.63672 303.5918 C 963.83326 303.07875 964.7846 302.59406 963.67188 299.73438 C 963.07331 298.19599 962.84827 298.28933 962.60742 298.00586 C 962.36658 297.72239 962.14379 297.48789 961.89258 297.23047 C 961.39016 296.71562 960.78501 296.13735 960.06836 295.47266 C 958.63507 294.14326 956.77054 292.49439 954.75586 290.78711 C 951.30711 287.86457 948.91235 285.86574 945.63477 284.64844 C 942.35718 283.43113 939.14424 283.28144 934.05664 283.02734 C 928.27727 282.73868 921.93678 282.34493 920.74805 282.23047 L 920.74609 282.23047 C 920.45556 282.20252 920.14983 282.18477 919.83398 282.18359 z M 907.06836 310.20117 C 906.91666 310.22991 906.8821 310.21204 906.89258 310.21094 C 906.90055 310.21008 907.01356 310.20479 907.06836 310.20117 z M 981.74805 321.20117 L 976.79688 321.24805 L 976.79688 321.70703 C 974.07921 322.11357 971.3663 322.72201 968.69922 323.75977 C 964.67275 325.32646 961.10509 327.35762 957.43359 330.73828 C 953.7621 334.11895 949.86367 338.74881 944.02148 346.09375 C 930.22719 363.4363 910.25654 388.3313 906.97852 392.28516 C 901.21873 399.23248 897.36356 404.41335 894.77539 409.29688 C 892.18722 414.18039 890.98935 418.84344 890.7207 423.7207 C 890.21142 432.96637 894.06861 443.21581 900.46289 450.23242 C 907.94211 458.43953 919.30502 462.81756 930.97266 462.31641 C 934.33698 462.17191 937.48412 460.99684 940.83789 459.48438 C 944.19166 457.9719 947.46613 456.10782 950.0625 453.875 C 951.60779 452.54609 952.87756 450.99181 955.26367 448.23828 C 957.64979 445.48475 960.69746 441.87874 964.10742 437.78711 C 970.92735 429.60386 979.18402 419.49019 986.32812 410.54102 L 987.41992 409.17383 L 987.41992 358.31641 L 978.46289 369.91797 C 975.06057 374.32459 971.05033 379.42701 966.69922 384.82812 C 956.47763 397.51639 944.05429 412.96454 939.07617 419.17773 C 933.47431 426.16945 929.32199 429.80629 927.43359 430.62305 C 926.48939 431.03143 926.33963 430.97214 925.9082 430.83789 C 925.47678 430.70364 924.58168 430.20316 923.33594 428.90234 C 922.43062 427.95701 922.17615 427.42272 922.10156 427.1582 C 922.02696 426.89369 921.9529 426.63289 922.3125 425.56055 C 923.03171 423.41586 925.95227 418.84029 931.58398 411.77148 C 952.34665 385.7106 964.54836 370.54075 971.82227 361.97852 C 975.45922 357.6974 977.88889 355.05892 979.35742 353.67188 C 980.00345 353.06169 980.35123 352.87484 980.52734 352.76758 C 980.92016 352.77158 981.32067 352.75359 981.69727 352.80859 L 987.41992 353.64453 L 987.41992 321.25781 L 982.46875 321.20898 C 982.35747 321.20798 982.11638 321.19787 981.75 321.20117 L 981.74805 321.20117 z M 313.75781 390.17383 C 313.04495 390.20453 312.35261 390.39258 311.90625 390.56641 C 309.66603 391.43869 309.69104 391.9732 309.0332 392.63672 C 308.37499 393.30062 307.69829 394.06255 306.96094 394.93359 C 305.48623 396.67568 303.79948 398.83557 302.17969 401.01953 C 300.55989 403.20349 299.02203 405.38804 297.84961 407.21875 C 297.2634 408.1341 296.77424 408.94255 296.35938 409.75391 C 296.15193 410.15958 295.95917 410.54885 295.76367 411.13086 C 295.58623 411.65913 294.93311 412.22255 295.57031 414.26953 C 295.57716 414.37337 295.5847 414.45362 295.5918 414.64648 C 295.6132 415.22803 295.62183 416.12387 295.61133 417.19531 C 295.59043 419.33819 295.49928 422.21171 295.33984 425.21484 L 294.60938 438.92188 L 305.28711 447.55664 L 321.58008 460.73242 L 322.78516 438.84766 C 322.86566 437.38612 322.98165 436.39278 323.08203 435.0918 C 326.60037 437.78539 331.09504 441.30869 336.0957 445.33594 C 346.727 453.89778 365.56977 469.03924 377.97656 478.99219 C 401.80085 498.10445 405.78012 501.32954 409.74609 504.74023 L 416.08594 510.19141 L 425.65625 498.8418 C 429.13378 494.71783 431.96241 491.36643 432.65234 490.51367 C 433.79043 489.10721 433.89213 486.74043 433.55469 485.66797 C 433.21724 484.5955 432.83925 484.15616 432.53125 483.75586 C 431.91526 482.95525 431.35403 482.42992 430.50195 481.64453 C 428.79781 480.07375 425.99933 477.70648 421.10352 473.68555 C 411.31189 465.64369 393.2237 451.09475 360.11133 424.51367 C 341.58146 409.63876 331.19488 401.31774 325.17578 396.6582 C 322.16623 394.32843 320.27066 392.92344 318.82422 391.97461 C 317.37871 391.02639 316.30459 390.06531 313.76172 390.17383 L 313.75781 390.17383 z M 683.42773 405.43164 C 658.17205 405.35224 630.7879 408.82318 607.69922 415.34961 C 603.31448 416.58903 597.51959 418.14461 595.08203 418.74414 L 584.83398 421.26562 L 604.14844 470.9043 L 619.58594 510.57617 L 612.2793 513.41992 L 604.97266 516.26367 L 589.52148 476.55078 L 570.20312 426.9043 L 560.38281 432.19922 C 557.83737 433.57063 551.99818 436.57863 547.60352 438.78125 C 516.20301 454.51933 479.5962 485.29694 456.78711 515.01758 L 448.47852 525.8457 L 456.66602 532.25977 C 465.16332 538.91586 515.79389 579.64868 521.00586 584.00977 L 523.47656 586.07812 L 520.87891 590.17969 C 513.79495 601.35624 502.92537 625.95711 499.65039 638.33594 L 498.4043 643.04297 L 498.04688 643.00781 C 496.21781 642.81903 483.56357 640.96994 471.24414 639.03125 C 458.88421 637.08617 446.11394 635.11772 442.58984 634.61914 C 439.33511 634.15867 430.26301 632.75598 422.61914 631.5293 C 418.66811 630.89523 415.03049 630.45378 412.20508 630.24609 C 410.79237 630.14225 409.60711 630.09038 408.51367 630.12891 C 407.96695 630.14821 407.46694 630.17191 406.74219 630.32617 C 406.37981 630.40327 405.95866 630.49398 405.30664 630.81641 C 404.65463 631.13883 403.50478 631.75006 402.7832 633.48828 C 402.1732 634.95773 402.33998 634.93515 402.17383 635.71875 C 402.00767 636.50235 401.81542 637.49118 401.59961 638.65039 C 401.16798 640.96881 400.64824 643.96092 400.13672 647.11133 L 397.5 663.35156 L 410.81445 665.58984 C 422.5421 667.5625 443.0001 670.76001 470.61328 674.94141 C 477.0342 675.91371 483.02433 676.86249 487.48047 677.60352 C 489.3961 677.92207 490.85564 678.17773 492.10352 678.40234 C 492.22031 679.60733 492.32386 681.04738 492.28125 682.74609 C 491.83135 700.68409 494.68235 725.73598 498.9668 739.54102 L 499.12109 740.03711 L 458.9707 755.98633 L 409.90625 775.47656 L 416.34961 792.04102 L 422.79492 808.60352 L 472.12891 789.80664 L 512.66602 774.36133 L 514.78906 778.43555 C 521.26161 790.86274 533.62594 808.00519 543.34961 818.0293 C 545.46879 820.21395 547.40739 822.38613 548.74023 824.01953 C 548.98255 824.31649 549.06918 824.45675 549.26758 824.71289 C 549.02071 825.05866 548.81984 825.39046 548.54102 825.70508 C 547.1312 827.29588 543.41056 831.85686 538.14453 838.3418 C 532.87851 844.82674 526.26159 853.01992 519.74805 861.11914 C 513.2345 869.21836 506.82524 877.22041 501.96875 883.32227 C 499.5405 886.37319 497.50187 888.94843 496.02539 890.83203 C 495.28715 891.77383 494.69118 892.54058 494.24609 893.12305 C 493.80101 893.70551 493.78786 893.57348 493.1582 894.64648 C 492.56504 895.65734 492.10655 897.2052 492.25977 898.67969 C 492.41299 900.15417 493.03161 901.32513 493.65625 902.19336 C 494.90553 903.92982 496.31086 904.98289 498.25195 906.41797 C 499.49032 907.33351 500.65222 908.2433 501.45898 908.91406 C 501.78616 909.18609 501.99521 909.3723 502.16406 909.52539 C 502.39863 909.86087 502.58628 910.01947 502.72852 910.17188 C 502.97027 910.43091 503.16523 910.61305 503.37305 910.80078 C 503.78868 911.17624 504.24222 911.54965 504.77148 911.9707 C 505.83002 912.8128 507.16891 913.81321 508.61914 914.83789 L 517.51562 921.12891 L 523.7793 913.16602 L 523.7793 913.16406 C 526.87992 909.22133 561.71826 865.78865 566.9707 859.32227 C 568.56183 857.36341 571.99627 853.03348 574.69336 849.58984 C 575.64863 848.37015 576.43399 847.40557 577.21484 846.44336 C 578.5117 847.20361 579.9256 848.04002 581.61719 849.09375 C 593.76775 856.66259 612.22973 864.90003 626.5 869.14258 C 631.55177 870.64446 633.47288 871.37444 634.73633 871.87109 C 634.62373 872.47918 634.50755 873.1091 634.35742 873.98047 C 633.97375 876.20733 633.46782 879.28797 632.86914 883.02148 C 631.67177 890.48851 630.11047 900.55323 628.4707 911.43359 C 625.19591 933.16278 622.08448 953.55076 621.64844 956.19336 L 621.64844 956.19531 L 620 966.19727 L 630.65625 968.50781 C 632.3918 968.88414 634.03298 969.19533 635.36914 969.40625 C 636.03722 969.51171 636.61817 969.59201 637.17578 969.64453 C 637.45459 969.67083 637.71998 969.69221 638.07422 969.69531 C 638.28256 969.69731 638.52636 969.72753 638.93164 969.67383 C 639.15866 969.69483 639.43789 969.72203 639.85938 969.7793 C 640.89922 969.92069 642.35518 970.16307 643.86719 970.45703 C 646.2372 970.91781 647.96317 971.24189 650.08789 970.98828 C 651.15025 970.86148 652.43154 970.52646 653.62109 969.64258 C 654.81065 968.7587 655.64031 967.37501 655.98438 966.25586 C 656.39095 964.93332 656.36588 964.59019 656.59766 963.26172 C 656.82943 961.93325 657.11904 960.17735 657.45117 958.0957 C 658.11544 953.93242 658.94735 948.47547 659.79102 942.70508 C 662.63755 923.23584 665.31335 905.964 667.375 893.55273 C 668.40583 887.3471 669.28544 882.34942 669.94531 878.94727 C 670.08357 878.23444 670.16351 877.92184 670.28125 877.35547 C 670.34415 877.35546 670.36935 877.35352 670.43359 877.35352 C 672.65762 877.35552 675.66809 877.40292 678.87305 877.49414 C 692.88328 877.89261 713.21713 875.46962 727.01758 871.76953 L 731.45117 870.58008 L 747.4668 910.89453 L 766.95508 959.96094 L 783.5332 953.50977 L 800.14453 947.04492 L 781.11523 898.13477 L 765.40234 857.75391 C 766.80042 856.91617 769.71089 855.25236 772.54297 853.76367 C 782.73786 848.40468 798.66722 836.56128 809.25586 826.66406 C 811.68914 824.38967 814.06882 822.38116 815.79688 821.07812 C 815.93237 820.97596 815.96811 820.96438 816.0957 820.87109 C 817.24833 821.74685 818.6804 822.85024 820.49414 824.26953 C 824.48418 827.39181 829.81912 831.63122 835.51367 836.2168 C 857.23766 853.71019 869.8258 863.79097 877.22852 869.50391 C 880.92987 872.36037 883.30857 874.11313 885.06445 875.25586 C 885.94239 875.82723 886.6399 876.2528 887.52344 876.62891 C 888.40698 877.00501 889.77091 877.72922 892.0918 876.82617 C 893.5158 876.27208 893.59195 875.97355 893.93359 875.68164 C 894.27524 875.38973 894.56734 875.10898 894.88477 874.79102 C 895.51962 874.15508 896.22935 873.38417 897.03711 872.47266 C 898.65263 870.64964 900.62956 868.2825 902.65039 865.73242 L 912.89062 852.8125 L 904.1875 845.7832 C 901.47892 843.59423 890.97624 835.17751 880.77344 827.01953 C 849.32614 801.87485 841.51965 795.55288 838.14648 792.56836 L 838.14648 792.56641 L 837.85742 792.3125 L 840.39648 788.29297 C 847.9397 776.35346 856.11158 758.23357 860.53906 743.7207 L 863.08398 735.37695 L 866.26172 735.79688 C 870.07535 736.30174 887.07464 738.8588 903.5918 741.41992 C 920.12633 743.98374 937.91854 746.7275 943.18164 747.52539 L 956.98633 749.61719 L 959.23828 742.13672 C 960.15951 739.07767 960.86731 734.01017 961.46094 728.81055 C 961.91315 724.84947 962.21673 722.5432 961.9082 720.06836 C 961.75394 718.83094 961.35996 717.28045 960.1582 715.92578 C 958.95645 714.57112 957.29072 713.98191 956.24609 713.78125 C 953.68248 713.28881 943.93567 711.73711 931.52344 709.79102 C 919.11121 707.84492 904.37282 705.57069 892.95312 703.85352 C 877.71393 701.56201 870.37309 700.28233 868.70312 699.68359 C 868.73092 699.06583 868.80895 698.01175 868.9043 695.7793 C 869.68143 677.58389 866.78863 652.84613 861.97266 637.91016 L 861.93945 637.80664 L 902.17578 622.15039 L 951.46289 602.9707 L 945 586.36133 L 938.54883 569.7832 L 889.32812 588.53516 C 870.05735 595.87726 858.86615 600.06552 852.59961 602.16992 C 850.38252 602.91446 849.50742 603.10806 848.49219 603.36523 C 847.62896 601.78133 846.879 600.41212 845.6543 598.15039 C 839.27837 586.37571 828.67784 571.85464 818.8125 561.32031 C 816.34467 558.68514 814.16127 556.12677 812.73047 554.26172 C 812.55238 554.02958 812.51881 553.9516 812.36523 553.74219 C 812.53512 553.51573 812.62597 553.38643 812.81836 553.13281 C 814.13537 551.39662 815.95813 549.05095 818.04102 546.41016 C 822.20678 541.12856 827.42525 534.64745 831.86133 529.29297 C 833.04771 527.86097 834.21778 526.41226 835.16797 525.20703 C 836.11816 524.0018 836.69082 523.31519 837.30273 522.35547 C 837.16029 522.57888 837.96616 521.44783 838.85547 520.32031 C 839.74478 519.19279 840.87551 517.79295 842.00977 516.42383 C 848.54484 508.53551 864.22921 489.07063 867.07031 485.25195 C 868.0397 483.94899 868.95217 482.6628 869.19922 480.45703 C 869.44627 478.25126 867.80416 475.2098 866.01758 474.16016 C 866.47211 474.42719 864.91996 473.36612 863.45703 472.20117 C 861.9941 471.03622 860.16731 469.535 858.36914 468.00977 C 856.46636 466.3958 854.53116 464.83585 852.89062 463.58203 C 851.25009 462.32821 850.51985 461.60439 848.67578 460.73242 C 846.28262 459.60081 843.80208 460.45931 842.4707 461.25586 C 841.13933 462.05241 840.13574 462.98863 838.91406 464.22852 C 836.47071 466.70828 833.32891 470.47304 828.67383 476.29688 C 822.05207 484.58116 814.92913 493.46009 812.92578 495.92578 C 810.83122 498.5057 802.96233 508.31011 795.35938 517.8125 C 791.56505 522.55475 788.08507 526.87747 785.54297 530.01367 C 784.88291 530.82799 784.49468 531.30147 783.97266 531.94141 C 782.02973 530.82005 779.50123 529.33421 776.68359 527.64648 C 763.91196 519.99651 745.36493 511.95682 731.57422 508.11719 C 729.67878 507.58945 728.13847 507.12967 726.70703 506.69922 C 726.79173 506.1056 726.84234 505.71844 726.94531 505.01562 C 727.44897 501.57806 728.15306 496.94529 728.90234 492.125 C 730.40091 482.48442 732.11579 471.90362 732.68359 468.9668 C 732.99157 467.37386 733.24947 465.87893 733.42578 464.68164 C 733.51398 464.08299 733.58264 463.56667 733.62891 463.08203 C 733.65201 462.83971 733.67093 462.61475 733.67773 462.30469 C 733.68173 462.13511 733.75558 462.00547 733.73828 461.68164 C 733.72648 461.76484 733.7091 461.80188 733.6875 461.83203 C 733.6935 461.77903 733.70724 461.66451 733.71484 461.59961 C 733.69144 461.32604 733.64244 460.9896 733.32422 460.17188 C 733.6464 460.99996 733.71162 461.34288 733.7207 461.55078 C 733.7507 461.29668 733.7763 461.06836 733.82812 460.67383 C 733.97996 459.51759 734.21761 457.82717 734.51953 455.75781 C 735.12338 451.6191 735.98622 445.95219 736.95703 439.77734 C 737.93894 433.5319 738.73511 427.78654 739.23438 423.49219 C 739.484 421.34501 739.65954 419.57367 739.74805 418.19727 C 739.79225 417.50906 739.82034 416.9384 739.80664 416.32812 C 739.79964 416.02299 739.79394 415.72429 739.71094 415.2207 C 739.62794 414.71712 740.32641 413.82594 737.71875 411.85938 C 736.66333 411.06345 736.36929 411.10184 736.01367 410.98047 C 735.65805 410.8591 735.35979 410.77893 735.03711 410.69727 C 734.39175 410.53393 733.67073 410.38134 732.8125 410.2168 C 731.09603 409.88772 728.85942 409.51895 726.24609 409.125 C 721.01944 408.33709 714.314 407.45786 707.74023 406.73242 C 700.02739 405.8813 691.84645 405.45811 683.42773 405.43164 z M 295.53711 414.03906 C 295.54731 414.04392 295.55903 414.06291 295.56055 414.07812 C 295.5622 414.09486 295.56568 414.1958 295.56836 414.23438 C 295.54885 414.1385 295.52335 414.03251 295.53711 414.03906 z M 679.40039 536.53711 C 692.90451 536.58751 707.37804 538.17327 717.62695 540.83398 C 730.55119 544.18924 757.09476 556.27239 767.33203 563.40039 C 778.00067 570.8287 789.42656 581.36705 798.23242 591.92969 C 834.66783 635.63398 843.46425 694.90525 821.34375 747.92969 C 809.5592 776.17807 791.82399 797.97009 765.48633 816.45898 C 759.98679 820.31962 751.97254 824.47977 739.95508 829.55469 C 722.03819 837.12092 712.3067 839.72934 696.41211 841.27344 C 624.99911 848.21093 558.53536 805.29166 535.83789 737.62109 C 523.95639 702.1974 525.21077 665.98567 539.5 631.60547 C 550.45634 605.24428 563.83628 587.25403 585.52148 569.69727 C 600.01104 557.96625 604.67229 555.3985 626.68164 546.95703 C 646.06877 539.52133 647.69089 539.06508 662.04688 537.4082 C 667.31295 536.80042 673.26153 536.51418 679.40039 536.53711 z M 259.74023 581.63477 L 254.85547 581.74609 L 254.85547 582.07617 C 236.12494 584.19611 221.9548 596.04087 215.7793 611.07617 C 209.35063 626.72786 211.47093 645.95526 224.83789 660.58203 C 228.77963 664.89527 234.17392 668.56798 240.19531 671.25391 C 244.86387 673.33638 247.88786 674.68122 251.51367 674.70508 C 253.32658 674.71698 255.82244 674.03216 257.36523 672.18164 C 258.90803 670.33112 259.11581 668.30509 259.09375 666.69727 C 259.09575 666.81122 259.18905 665.26908 259.40039 663.64648 C 259.61172 662.02389 259.91401 660.05162 260.24609 658.19727 L 262.15625 647.52344 L 253.62695 643.0918 C 251.62467 642.05145 247.7602 638.84444 246.77148 637.57617 C 242.5323 632.13846 242.71879 626.04678 245.58008 621.0332 C 248.44137 616.01963 253.92424 612.42797 261.125 612.94727 C 263.51044 613.1193 265.13739 613.64165 268.4043 616.11328 C 271.6712 618.58491 276.20566 623.05307 282.87109 630.30859 C 300.18273 649.15281 319.44962 670.08615 327.53906 678.8418 C 331.27679 682.88733 333.75609 685.54727 337.35547 687.34961 C 340.95485 689.15195 344.66769 689.65284 350.6543 690.48242 C 352.69022 690.76454 354.5716 690.89212 356.23047 690.84766 C 357.0599 690.82546 357.80982 690.77827 358.71875 690.57812 C 359.17322 690.47804 359.67034 690.35877 360.37305 690.00195 C 361.07575 689.64513 362.25229 688.99834 362.97266 687.20312 C 363.297 686.39478 363.2253 686.41228 363.27148 686.20898 C 363.31768 686.00568 363.35898 685.80726 363.4043 685.57617 C 363.495 685.114 363.60076 684.53244 363.72656 683.81641 C 363.97816 682.38434 364.30586 680.4246 364.69141 678.05664 C 365.46251 673.32073 366.46261 666.96285 367.50781 660.10156 C 369.59375 646.4084 372.32094 628.52181 373.56641 620.35547 C 374.19702 616.22065 374.72094 612.35164 375.06445 609.39062 C 375.23621 607.91012 375.36207 606.66424 375.43555 605.66602 C 375.47225 605.16691 375.49901 604.73972 375.50391 604.29492 C 375.50591 604.07252 375.50592 603.85103 375.48242 603.54102 C 375.45932 603.231 375.55702 602.96646 375.08984 601.83008 L 375.08789 601.82812 L 375.08789 601.82617 C 374.15201 599.55429 373.09662 599.3653 372.49805 599.04492 C 371.89947 598.72454 371.44831 598.56718 370.98438 598.41406 C 370.05651 598.10782 369.10742 597.88439 368.02344 597.66211 C 365.85546 597.21755 363.22183 596.82348 360.58008 596.51172 C 357.93833 596.19995 355.32912 595.97577 353.18359 595.91406 C 352.11083 595.88326 351.18731 595.87787 350.19727 595.98438 C 349.70225 596.03768 349.21236 596.08248 348.39453 596.37305 C 347.98562 596.51834 347.47163 596.71213 346.77539 597.26562 C 346.07915 597.81912 345.10512 598.97387 344.86719 600.54297 C 344.76492 601.21697 343.36649 610.52383 341.73438 621.38867 C 340.30194 630.9242 338.99342 639.62927 338.27539 644.39258 C 336.13222 642.19896 334.65379 640.74253 330.77539 636.5918 C 324.73155 630.12357 317.19394 621.92897 309.89648 613.86328 C 300.40955 603.37762 295.1756 597.66415 290.71484 593.76172 C 286.25409 589.85929 282.49112 587.92619 277.42969 585.73047 C 270.51261 582.72976 265.66259 581.49828 259.74023 581.63477 z M 343.25977 774.8125 L 338.33008 774.88086 L 338.33008 775.20508 C 322.33833 776.98533 307.27653 786.19396 300.59375 801.81055 L 299.81445 803.63281 L 296.98828 802.46094 C 279.53095 795.22444 258.08891 802.72044 245.89844 819.28125 C 233.59748 835.99218 234.71865 860.51695 248.17969 877.19922 C 252.13492 882.10093 258.06865 885.96254 264.58789 888.85352 C 271.10713 891.74449 278.18108 893.60611 284.74414 893.51758 C 287.76433 893.47688 290.06061 893.47978 292.16211 893.24219 C 294.2636 893.00456 296.98687 892.58263 298.83203 889.82227 C 300.67719 887.0619 300.03237 884.40223 299.45898 882.36328 C 298.8856 880.32433 298.01575 878.18938 296.91211 875.36328 L 291.84961 862.4043 L 283.19922 862.17578 C 277.26205 862.01956 272.17617 858.5119 270.10938 853.38867 C 267.40654 846.68885 269.09578 840.22818 272.96094 835.83398 C 276.8261 831.43979 282.51532 829.27886 288.94727 831.4707 C 294.8653 833.48742 296.84027 835.44311 299.49414 842.26367 C 300.27154 844.26163 301.08091 846.04046 301.87695 847.48828 C 302.27497 848.21219 302.64214 848.83563 303.18359 849.52539 C 303.45432 849.87027 303.74038 850.23856 304.37109 850.73047 C 305.00181 851.22238 306.30233 852.31001 308.77344 851.76172 C 309.65464 851.5662 309.708 851.50063 310.27148 851.31445 C 310.83564 851.12806 311.55154 850.88385 312.39062 850.59375 C 314.06883 850.01355 316.22892 849.25174 318.49023 848.4375 L 331.47656 843.76172 L 327.01758 832.31055 L 327.01758 832.30859 C 324.72845 826.42437 324.75268 821.31122 326.34961 817.25195 C 327.94671 813.19227 331.112 809.94801 336.33398 807.89648 C 342.07377 805.64153 347.13075 805.7886 351.11914 807.53125 C 355.10753 809.2739 358.2435 812.62057 359.95312 817.96484 C 361.15181 821.7119 361.39171 824.1247 361.02344 826.23828 C 360.65517 828.35187 359.61269 830.54179 357.2168 833.66406 L 351.49805 841.11328 L 356.25977 853.48828 L 362.26562 869.10352 L 371.93555 862.59766 C 397.78992 845.2084 399.73325 807.66692 376.0625 786.7168 C 367.15548 778.83352 355.99166 775.03089 344.97852 774.81641 C 344.40263 774.80511 343.83077 774.8048 343.26172 774.8125 L 343.25977 774.8125 z M 454.99219 918.19141 C 453.05116 918.16251 450.89705 919.71488 450.25195 920.58203 C 449.60646 921.44973 449.49849 921.7988 449.36133 922.0332 C 449.57937 921.66058 448.57495 923.13621 447.4707 924.54297 C 446.36646 925.94973 444.96169 927.68739 443.57422 929.37109 C 442.57297 930.58612 441.69664 931.6102 440.83008 932.62695 C 440.69914 932.51725 440.61737 932.46099 440.48438 932.34766 C 439.19529 931.2492 437.90879 930.32725 436.63281 929.60156 C 435.99482 929.23872 435.37649 928.92115 434.58008 928.64844 C 433.78367 928.37572 432.86553 927.6694 430.39453 928.63086 C 428.17703 929.49369 428.28546 929.96391 427.69922 930.54883 C 427.11297 931.13374 426.52001 931.79284 425.87305 932.54492 C 424.57913 934.04909 423.10277 935.90343 421.68164 937.7793 C 420.26052 939.65517 418.90861 941.52997 417.86914 943.10938 C 417.34941 943.89906 416.91365 944.59735 416.53125 945.31836 C 416.34005 945.67886 416.15982 946.02655 415.96484 946.57617 C 415.76987 947.12579 414.89556 947.67682 415.98047 950.41602 C 416.73288 952.3165 417.04744 952.15934 417.42188 952.55469 C 417.79674 952.9505 418.1843 953.31764 418.62305 953.71289 C 419.50054 954.50339 420.56489 955.38265 421.71094 956.25781 C 421.75904 956.29461 421.72353 956.27074 421.76953 956.30664 C 421.64231 956.47823 421.68603 956.42531 421.55078 956.60352 C 420.49771 957.99065 419.06447 959.8408 417.39258 961.97266 C 414.04879 966.23636 409.74124 971.6385 405.48828 976.88086 C 404.89321 977.61438 404.42274 978.18306 403.91016 978.80664 L 397.19141 986.98242 L 437.33398 986.98242 L 438.83203 985.20117 C 441.64912 981.85295 444.34061 978.75085 446.32812 976.57227 C 446.49628 976.38796 446.56271 976.33099 446.7207 976.16016 C 447.16212 976.50123 447.45352 976.7186 447.96875 977.12109 C 450.57813 979.15954 454.0622 981.92894 457.76367 984.91797 C 458.14099 985.22266 458.48555 985.51108 458.91016 985.85742 L 460.28906 986.98242 L 508.11523 986.98242 L 497.25 978.10938 C 493.57538 975.10858 489.47298 971.78059 484.83008 968.06445 C 478.36677 962.89127 472.51698 958.14899 468.31836 954.69141 C 466.99617 953.60258 466.18263 952.91285 465.22461 952.10938 C 466.37234 950.62434 467.33609 949.30439 468.53125 947.8457 C 469.62603 946.50953 470.65127 945.29618 471.39648 944.45312 C 471.76909 944.03161 472.07922 943.69694 472.23828 943.53516 C 472.30268 943.46966 472.30801 943.46617 472.28711 943.48438 C 473.11675 942.93188 473.62391 942.38462 474.04102 941.85742 C 474.64255 941.09712 475.13041 940.30104 475.54883 939.34961 C 476.272 937.70522 476.1137 935.63529 475.58398 934.30273 C 475.05431 932.97018 474.34297 932.07572 473.55664 931.19922 C 471.98397 929.44622 469.92001 927.75214 466.91016 925.44922 C 463.90184 923.14747 461.91581 921.60191 460.39258 920.51172 C 458.87009 919.42205 458.22662 918.24194 454.99609 918.19141 L 454.99219 918.19141 z "
     id="path4446" />
</svg>
