<?xml version="1.0" encoding="UTF-8" standalone="no"?>
<svg
   xmlns:dc="http://purl.org/dc/elements/1.1/"
   xmlns:cc="http://creativecommons.org/ns#"
   xmlns:rdf="http://www.w3.org/1999/02/22-rdf-syntax-ns#"
   xmlns:svg="http://www.w3.org/2000/svg"
   xmlns="http://www.w3.org/2000/svg"
   xmlns:xlink="http://www.w3.org/1999/xlink"
   xmlns:sodipodi="http://sodipodi.sourceforge.net/DTD/sodipodi-0.dtd"
   xmlns:inkscape="http://www.inkscape.org/namespaces/inkscape"
   version="1.1"
   viewBox="0 0 100 100"
   id="svg2"
   inkscape:version="0.48.4 r9939"
   width="100%"
   height="100%"
   sodipodi:docname="remember-right.svg">
  <metadata
     id="metadata51">
    <rdf:RDF>
      <cc:Work
         rdf:about="">
        <dc:format>image/svg+xml</dc:format>
        <dc:type
           rdf:resource="http://purl.org/dc/dcmitype/StillImage" />
        <dc:title>remember-me</dc:title>
      </cc:Work>
    </rdf:RDF>
  </metadata>
  <defs
     id="defs49">
    <linearGradient
       inkscape:collect="always"
       xlink:href="#linearGradient3802-1"
       id="linearGradient3860"
       gradientUnits="userSpaceOnUse"
       gradientTransform="matrix(8.1388236,0,0,8.2087572,43.862514,-237.13826)"
       x1="54.909092"
       y1="98.909088"
       x2="56.909103"
       y2="57.63636" />
    <linearGradient
       inkscape:collect="always"
       id="linearGradient3802-1">
      <stop
         style="stop-color:#2d2d2d;stop-opacity:1"
         offset="0"
         id="stop3804-7" />
      <stop
         style="stop-color:#b0b0b0;stop-opacity:1"
         offset="1"
         id="stop3806-4" />
    </linearGradient>
  </defs>
  <sodipodi:namedview
     pagecolor="#ffffff"
     bordercolor="#666666"
     borderopacity="1"
     objecttolerance="10"
     gridtolerance="10"
     guidetolerance="10"
     inkscape:pageopacity="0"
     inkscape:pageshadow="2"
     inkscape:window-width="2479"
     inkscape:window-height="1410"
     id="namedview47"
     showgrid="false"
     inkscape:zoom="5.392868"
     inkscape:cx="110.16099"
     inkscape:cy="33.948622"
     inkscape:window-x="81"
     inkscape:window-y="30"
     inkscape:window-maximized="1"
     inkscape:current-layer="svg2"
     inkscape:snap-bbox="true"
     fit-margin-top="0"
     fit-margin-left="0"
     fit-margin-right="0"
     fit-margin-bottom="0"
     units="pc" />
  <title
     id="title10">remember-me</title>
  <g
     transform="matrix(0,-0.17439965,-0.19449366,0,87.512554,90.100064)"
     id="remember-me">
    <path
       inkscape:connector-curvature="0"
       id="hand"
       d="M 99.537556,448.16455 C 88.384672,445.22151 79.06993,439.81586 70.313053,431.20459 57.439322,418.54494 52.494319,409.35631 49.658408,392.82486 c -1.076946,-6.27786 -2.751836,-11.5126 -5.329007,-16.65537 -6.139709,-12.25186 -13.019062,-30.59767 -16.874203,-45 -5.586798,-15.44928 -3.606091,-31.8449 -3.59947,-48 0.01645,-40.14197 2.047033,-63.53268 7.89986,-91 0.29299,-1.375 0.812764,-3.85 1.155055,-5.5 0.887592,-4.27861 5.32941,-14.34296 10.297009,-23.33114 1.763974,-3.19166 9.543929,-10.77353 14.106248,-13.74707 5.903769,-3.84785 14.849562,-6.22023 26.338231,-6.98476 l 10.830098,-0.7207 2.425675,-5.1231 c 4.314506,-9.11239 14.654906,-19.24146 23.914126,-23.4254 8.99523,-4.06466 14.28854,-4.84066 34.64159,-5.07853 7.35122,-0.0859 7.66623,-0.18746 8.28991,-2.67239 1.00581,-4.00749 4.78586,-9.433809 10.75088,-15.433109 6.959,-6.99897 7.81447,-7.63641 14.10099,-10.50728 8.71366,-3.97925 16.34878,-5.47652 27.92673,-5.47652 l 10.7899,0 0,-20.5 c 0,-11.275 -0.17982,-20.5 -0.39959,-20.5 -0.21978,0 -3.25728,1.785861 -6.75,3.968581 -9.91483,6.196109 -27.53703,14.935949 -35.81924,17.764779 -16.6079,5.67252 -32.97816,2.60053 -45.03626,-8.45134 -4.01957,-3.68415 -6.83673,-7.50551 -9.58379,-12.999998 -3.75836,-7.51726 -3.88923,-8.122245 -3.84658,-17.782022 0.0504,-11.415388 1.67135,-17.322006 6.81058,-24.817242 10.0801,-14.701206 29.10707,-21.729031 46.70702,-17.251758 8.18196,2.081417 25.69577,10.284393 37.91786,17.759653 l 9.5,5.810379 0.61606,-15.056358 c 0.61437,-15.014975 0.62674,-15.077169 4.5,-22.628397 4.36068,-8.501484 9.74912,-13.802986 18.38394,-18.087336 4.98457,-2.473198 6.53087,-2.728941 16.5,-2.728941 10.12685,0 11.42389,0.223254 16.34021,2.81256 6.65455,3.50479 13.5417,9.776612 16.75292,15.256144 4.38864,7.488642 5.92653,16.651505 6.31876,37.647571 l 0.0881,4.716274 3.75,-2.171621 c 2.0625,-1.194391 3.975,-2.450176 4.25,-2.790633 1.21204,-1.500531 20.23076,-12.003921 27.5,-15.187306 13.38645,-5.862271 18.59097,-7.072953 28.33072,-6.590333 7.24498,0.359 9.81481,0.979324 15.64176,3.775721 8.93953,4.290151 16.13454,11.455737 20.59215,20.507945 3.25425,6.608524 3.43537,7.531138 3.43537,17.5 0,13.985333 -2.46559,20.775715 -10.76522,29.648038 -9.85845,10.53872 -25.56075,16.25151 -37.35685,13.59113 -14.97604,-3.37757 -28.84714,-9.47151 -44.37792,-19.496393 -4.675,-3.017641 -8.57597,-5.425459 -8.66882,-5.350705 -0.0928,0.07475 0.43902,12.959948 1.18195,28.633758 0.74292,15.67382 1.61333,37.94785 1.93424,49.497849 0.32091,11.55 0.83786,23.925 1.14878,27.5 l 0.56532,6.5 9.66926,3.88558 c 41.02838,16.4872 54.52753,38.78359 57.56072,75.88561 1.07872,13.19499 -0.0514,32.01979 -3.13477,46.00483 -2.86365,12.98839 -11.81907,29.56481 -15.29436,33.26409 -1.07928,1.14884 -1.96232,2.46344 -1.96232,2.92135 0,0.45791 -1.6875,2.86663 -3.75,5.35272 -2.0625,2.48609 -4.2,5.31183 -4.75,6.27943 -3.14315,5.52964 -33.26479,36.51904 -42.83438,44.06837 -12.78117,10.08292 -12.66552,9.91323 -12.66644,18.58542 -0.001,10.71792 -2.41449,21.3043 -7.01061,30.7526 -4.57614,9.40722 -6.46313,11.98935 -14.48857,19.82597 -7.16578,6.99718 -15.0973,11.83118 -25.40363,15.48267 l -7.59637,2.69136 -67.5,0.20865 c -63.7763,0.19714 -67.90186,0.10261 -74.784474,-1.71359 z M 240.3387,431.19098 c 3.01583,-0.70946 8.49152,-3.03227 12.1682,-5.16179 13.54688,-7.84629 22.29546,-20.25488 25.24572,-35.80737 -0.23098,-23.79863 1.25163,-23.47862 9.57788,-31.3778 18.14826,-14.3648 27.67228,-25.43114 38.16035,-37.12931 10.51383,-11.7269 16.83118,-19.24245 16.83118,-20.02351 0,-0.33391 1.8,-3.04368 4,-6.02171 2.2,-2.97803 4,-5.63901 4,-5.91329 0,-0.27429 1.34256,-2.77569 2.98348,-5.55868 7.19009,-11.64154 9.64364,-21.46795 10.00926,-44.97718 -0.26319,-18.63441 -1.5112,-29.74623 -5.79574,-38.00752 -4.28149,-8.25539 -9.12757,-18.43029 -16.88467,-23.55029 -3.19678,-2.11001 -7.02405,-4.65355 -8.50504,-5.6523 -2.2766,-1.53529 -16.9814,-7.84074 -18.28522,-7.84074 -0.23422,0 -0.56001,11.51464 -0.72397,25.58809 l -0.2981,25.5881 -2.80576,2.4119 c -3.58639,3.08295 -7.80317,3.08242 -11.38848,-10e-4 l -2.80576,-2.41377 -0.10351,-34.83666 c -0.0569,-19.16016 -0.40011,-41.36166 -0.76261,-49.33666 -0.3625,-7.975 -0.90115,-21.25 -1.197,-29.5 -1.05967,-29.549029 -2.53585,-59.929729 -2.93123,-60.326529 -0.55427,-0.55624 -44.63351,-0.37895 -45.19424,0.18179 -0.29078,0.29077 -0.49699,32.8423 -0.45824,72.336709 0.0463,47.23951 -0.28603,72.92262 -0.97145,75.06571 -1.93227,6.04162 -9.05313,7.22476 -13.95864,2.31924 l -2.92308,-2.92307 0,-48.07693 0,-48.076919 -10.479,0 c -14.15472,0 -21.17115,2.27946 -28.74861,9.339689 -4.00921,3.73554 -6.26092,6.90415 -8.15538,11.47622 l -2.61701,6.31592 0,47.39961 0,47.3996 -2.9663,3.03448 c -3.94886,4.03963 -8.14381,4.07822 -12.11062,0.1114 l -2.92308,-2.92307 0,-44.07693 0,-44.07692 -10.39466,0 c -18.66924,0 -29.35788,5.55374 -36.50842,18.96953 l -3.27026,6.13563 -0.27718,35.69742 c -0.15246,19.63358 -0.33846,36.24171 -0.41334,36.90695 -0.0749,0.66524 -1.36904,2.35274 -2.87592,3.75 -3.62715,3.36328 -8.492904,3.3987 -11.805676,0.0859 l -2.454545,-2.45452 0,-32.54546 0,-32.54545 -6.991199,0 c -14.730159,0 -25.760892,8.26174 -31.664105,23.71561 -6.378485,16.69808 -10.928442,55.50772 -11.75712,100.28439 -0.385528,20.83157 1.465042,36.14188 6.10398,50.5 12.010239,29.94583 16.339994,39.23744 19.308444,50.54571 1.627119,8.4821 4.140714,17.7733 8.71467,24.69128 6.746151,10.20337 18.51762,18.40811 30.840861,21.49616 7.2951,1.82806 126.58886,1.64028 134.46114,-0.21166 z M 183.32203,36.289424 c 7.83335,-3.084459 21.52396,-10.220651 26.75758,-13.947312 1.67814,-1.194941 3.43169,-2.188804 3.89679,-2.208584 0.4651,-0.01978 2.19563,-1.176281 3.84563,-2.570003 2.78302,-2.350761 2.87025,-2.619387 1.2061,-3.714037 -21.09452,-13.875618 -33.2949,-20.078906 -45.78227,-23.278023 -5.17111,-1.324775 -6.99399,-1.397923 -10.28264,-0.412617 -6.33001,1.896515 -10.43353,4.475111 -13.75443,8.643084 -4.80278,6.027835 -5.88676,8.815654 -5.88676,15.13976 0,8.035723 2.3038,14.129943 7.21772,19.092988 7.69371,7.770631 18.57102,8.850561 32.78228,3.254744 z m 196.82314,0.491711 c 9.07433,-5.728368 14.28979,-16.824258 12.21546,-25.988362 -1.37332,-6.067143 -2.28794,-7.786633 -6.79598,-12.776494 -4.19972,-4.64858 -7.26438,-6.394984 -13.78755,-7.856856 -4.05184,-0.908037 -5.8654,-0.733118 -12.35209,1.191368 -7.18038,2.130291 -19.81446,8.100912 -27.94005,13.203923 -2.01461,1.265213 -4.11293,2.483625 -4.66293,2.707582 -1.84557,0.751508 -11.46386,7.401059 -11.48203,7.938043 -0.0301,0.890593 18.95175,12.429409 27.98203,17.009865 16.6261,8.433307 28.39126,9.893747 36.82314,4.570931 z M 289.7894,15.527655 c -0.22974,-4.20301 -0.66802,-7.892147 -0.97396,-8.198083 -1.11036,-1.11036 -43.99765,-0.369726 -43.89341,0.758009 0.055,0.595051 0.1675,4.23191 0.25,8.08191 l 0.15,7 22.44254,0 22.44254,0 z m -1.90941,-35.108164 c -0.90917,-11.722958 -1.88682,-14.376646 -7.0499,-19.135809 -5.25728,-4.845987 -7.54788,-5.523176 -16.5126,-4.881754 -5.25779,0.376193 -7.52068,1.043221 -9.76568,2.878609 -5.31004,4.341187 -8.2812,9.440869 -8.803,15.109407 -0.2673,2.903751 -0.67647,7.417047 -0.90927,10.029547 l -0.42328,4.75 22.07116,0 22.07116,0 z" />
  </g>
</svg>
