<?xml version="1.0" encoding="UTF-8" standalone="no"?>
<svg
   xmlns:dc="http://purl.org/dc/elements/1.1/"
   xmlns:cc="http://creativecommons.org/ns#"
   xmlns:rdf="http://www.w3.org/1999/02/22-rdf-syntax-ns#"
   xmlns:svg="http://www.w3.org/2000/svg"
   xmlns="http://www.w3.org/2000/svg"
   xmlns:xlink="http://www.w3.org/1999/xlink"
   xmlns:sodipodi="http://sodipodi.sourceforge.net/DTD/sodipodi-0.dtd"
   xmlns:inkscape="http://www.inkscape.org/namespaces/inkscape"
   version="1.1"
   viewBox="0 0 100 100"
   id="svg2"
   inkscape:version="0.48.4 r9939"
   width="100%"
   height="100%"
   sodipodi:docname="remember-pin-active.svg">
  <metadata
     id="metadata51">
    <rdf:RDF>
      <cc:Work
         rdf:about="">
        <dc:format>image/svg+xml</dc:format>
        <dc:type
           rdf:resource="http://purl.org/dc/dcmitype/StillImage" />
        <dc:title>remember-me-active</dc:title>
      </cc:Work>
    </rdf:RDF>
  </metadata>
  <defs
     id="defs49">
    <radialGradient
       inkscape:collect="always"
       xlink:href="#linearGradient4042"
       id="radialGradient4048"
       cx="1071.6101"
       cy="314.9259"
       fx="1071.6101"
       fy="314.9259"
       r="293.73334"
       gradientTransform="matrix(1,0,0,1.0022845,0,-0.71943396)"
       gradientUnits="userSpaceOnUse" />
    <linearGradient
       id="linearGradient4042">
      <stop
         style="stop-color:#3a3a3a;stop-opacity:1;"
         offset="0"
         id="stop4044" />
      <stop
         id="stop4050"
         offset="0.65937507"
         style="stop-color:#131313;stop-opacity:1;" />
      <stop
         style="stop-color:#505050;stop-opacity:1;"
         offset="0.89655095"
         id="stop4064" />
      <stop
         style="stop-color:#000000;stop-opacity:1;"
         offset="1"
         id="stop4046" />
    </linearGradient>
    <radialGradient
       inkscape:collect="always"
       xlink:href="#linearGradient4042-7"
       id="radialGradient3819"
       gradientUnits="userSpaceOnUse"
       gradientTransform="matrix(1,0,0,1.0022845,-771.125,-15.156934)"
       cx="1071.6101"
       cy="314.9259"
       fx="1071.6101"
       fy="314.9259"
       r="293.73334" />
    <linearGradient
       id="linearGradient4042-7">
      <stop
         style="stop-color:#3a3a3a;stop-opacity:1;"
         offset="0"
         id="stop4044-4" />
      <stop
         id="stop4050-0"
         offset="0.65937507"
         style="stop-color:#131313;stop-opacity:1;" />
      <stop
         style="stop-color:#505050;stop-opacity:1;"
         offset="0.89655095"
         id="stop4064-9" />
      <stop
         style="stop-color:#000000;stop-opacity:1;"
         offset="1"
         id="stop4046-4" />
    </linearGradient>
    <linearGradient
       id="linearGradient4042-8">
      <stop
         style="stop-color:#3a3a3a;stop-opacity:1;"
         offset="0"
         id="stop4044-2" />
      <stop
         id="stop4050-4"
         offset="0.65937507"
         style="stop-color:#131313;stop-opacity:1;" />
      <stop
         style="stop-color:#505050;stop-opacity:1;"
         offset="0.89655095"
         id="stop4064-5" />
      <stop
         style="stop-color:#000000;stop-opacity:1;"
         offset="1"
         id="stop4046-5" />
    </linearGradient>
    <linearGradient
       id="linearGradient5025">
      <stop
         id="stop5027"
         offset="0"
         style="stop-color:#ffffff;stop-opacity:1;" />
      <stop
         style="stop-color:#9e9e9e;stop-opacity:1;"
         offset="0.65937507"
         id="stop5029" />
      <stop
         id="stop5031"
         offset="0.89655095"
         style="stop-color:#e1e1e1;stop-opacity:1;" />
      <stop
         id="stop5033"
         offset="1"
         style="stop-color:#aaaaaa;stop-opacity:1;" />
    </linearGradient>
    <linearGradient
       id="linearGradient4042-71">
      <stop
         style="stop-color:#3a3a3a;stop-opacity:1;"
         offset="0"
         id="stop4044-1" />
      <stop
         id="stop4050-5"
         offset="0.65937507"
         style="stop-color:#131313;stop-opacity:1;" />
      <stop
         style="stop-color:#505050;stop-opacity:1;"
         offset="0.89655095"
         id="stop4064-2" />
      <stop
         style="stop-color:#000000;stop-opacity:1;"
         offset="1"
         id="stop4046-7" />
    </linearGradient>
    <linearGradient
       id="linearGradient5025-1">
      <stop
         id="stop5027-4"
         offset="0"
         style="stop-color:#ffffff;stop-opacity:1;" />
      <stop
         style="stop-color:#9e9e9e;stop-opacity:1;"
         offset="0.65937507"
         id="stop5029-2" />
      <stop
         id="stop5031-3"
         offset="0.89655095"
         style="stop-color:#e1e1e1;stop-opacity:1;" />
      <stop
         id="stop5033-2"
         offset="1"
         style="stop-color:#aaaaaa;stop-opacity:1;" />
    </linearGradient>
  </defs>
  <sodipodi:namedview
     pagecolor="#ffffff"
     bordercolor="#666666"
     borderopacity="1"
     objecttolerance="10"
     gridtolerance="10"
     guidetolerance="10"
     inkscape:pageopacity="0"
     inkscape:pageshadow="2"
     inkscape:window-width="1920"
     inkscape:window-height="1018"
     id="namedview47"
     showgrid="false"
     inkscape:zoom="4"
     inkscape:cx="-12.231474"
     inkscape:cy="72.174351"
     inkscape:window-x="1912"
     inkscape:window-y="-8"
     inkscape:window-maximized="1"
     inkscape:current-layer="svg2"
     inkscape:snap-bbox="true"
     fit-margin-top="0"
     fit-margin-left="0"
     fit-margin-right="0"
     fit-margin-bottom="0"
     units="px"
     showguides="true"
     inkscape:guide-bbox="true"
     borderlayer="true" />
  <title
     id="title3003">remember-me-active</title>
  <path
     style="fill:#000000"
     d="m 0.13036206,99.638219 c 0,-0.334231 14.39020094,-22.657063 19.52419294,-30.286947 0.355392,-0.52817 0.927747,-0.397281 1.726295,0.394774 1.096253,1.087351 0.726691,1.899986 -4.487965,9.868684 -3.125423,4.776062 -5.560428,8.804956 -5.411119,8.953095 0.149309,0.14814 4.084231,-2.258432 8.744273,-5.347929 6.358248,-4.215378 8.753852,-5.441387 9.598935,-4.912505 0.619371,0.387629 1.230869,1.016521 1.358883,1.39755 0.128014,0.381031 -6.514376,5.012723 -14.760864,10.292654 C 0.89854337,99.937335 0.13036206,100.39189 0.13036206,99.638219 z M 45.27076,85.5761 C 29.476996,80.046829 15.360493,63.602534 13.790086,48.904312 c -0.760018,-7.113395 2.13027,-13.09709 7.49353,-15.513677 4.053047,-1.826229 11.205868,-1.824513 16.449303,0.0039 l 4.049124,1.411985 7.20295,-7.962386 7.202954,-7.962383 0.08764,-5.827187 c 0.07157,-4.7609387 0.392466,-6.2512094 1.753794,-8.1447301 1.873389,-2.6057382 6.415778,-4.70254991 10.187293,-4.70254991 7.207437,0 17.687194,5.56490691 23.78151,12.62833001 6.644675,7.701307 9.663337,18.668226 6.679582,24.267158 -2.388065,4.481129 -4.719102,5.588508 -11.875599,5.641596 l -6.31753,0.04686 -6.924241,7.630839 c -6.700601,7.384382 -6.892514,7.693932 -5.941996,9.584342 0.540235,1.074427 1.531704,4.081432 2.203275,6.682232 4.133995,16.009964 -7.407629,24.889148 -24.550867,18.887439 z m 15.649512,-3.065828 c 6.071251,-2.858396 7.438715,-9.721659 3.74782,-18.810363 -1.085762,-2.673672 -1.974119,-5.408524 -1.974119,-6.077449 0,-1.104777 2.325791,-3.957015 12.170176,-14.92494 l 3.316315,-3.694803 6.761752,0 c 6.397882,0 6.872978,-0.110335 8.828661,-2.050367 C 99.516534,31.252676 93.06103,16.872593 81.160793,8.8625187 72.713924,3.1769144 64.344902,2.7422046 61.1267,7.8218957 c -1.256622,1.9834867 -1.424716,3.1370983 -1.050441,7.2088573 0.415709,4.522425 0.30616,5.021176 -1.633773,7.437619 -5.195793,6.472095 -14.059887,15.506332 -15.587533,15.886739 -0.926181,0.230632 -3.713452,-0.277503 -6.193939,-1.129192 -8.713577,-2.991852 -14.726912,-1.51535 -17.769803,4.363161 -1.341239,2.591114 -1.628794,4.059657 -1.302377,6.651233 1.673782,13.288951 15.122822,28.719804 29.384864,33.71494 5.798842,2.030989 10.420908,2.21493 13.946574,0.555019 z"
     id="path4781"
     inkscape:connector-curvature="0" />
</svg>
