<?xml version="1.0" encoding="UTF-8" standalone="no"?>
<svg
   xmlns:dc="http://purl.org/dc/elements/1.1/"
   xmlns:cc="http://creativecommons.org/ns#"
   xmlns:rdf="http://www.w3.org/1999/02/22-rdf-syntax-ns#"
   xmlns:svg="http://www.w3.org/2000/svg"
   xmlns="http://www.w3.org/2000/svg"
   xmlns:sodipodi="http://sodipodi.sourceforge.net/DTD/sodipodi-0.dtd"
   xmlns:inkscape="http://www.inkscape.org/namespaces/inkscape"
   version="1.1"
   viewBox="0 0 100 100"
   id="svg2"
   inkscape:version="0.48.4 r9939"
   width="100%"
   height="100%"
   sodipodi:docname="remember-right-active.svg">
  <metadata
     id="metadata51">
    <rdf:RDF>
      <cc:Work
         rdf:about="">
        <dc:format>image/svg+xml</dc:format>
        <dc:type
           rdf:resource="http://purl.org/dc/dcmitype/StillImage" />
        <dc:title>remember-me-active</dc:title>
      </cc:Work>
    </rdf:RDF>
  </metadata>
  <defs
     id="defs49" />
  <sodipodi:namedview
     pagecolor="#ffffff"
     bordercolor="#666666"
     borderopacity="1"
     objecttolerance="10"
     gridtolerance="10"
     guidetolerance="10"
     inkscape:pageopacity="0"
     inkscape:pageshadow="2"
     inkscape:window-width="2479"
     inkscape:window-height="1410"
     id="namedview47"
     showgrid="false"
     inkscape:zoom="5.392868"
     inkscape:cx="-2.2116971"
     inkscape:cy="-3.8144327"
     inkscape:window-x="81"
     inkscape:window-y="30"
     inkscape:window-maximized="1"
     inkscape:current-layer="svg2"
     inkscape:snap-bbox="true"
     fit-margin-top="0"
     fit-margin-left="0"
     fit-margin-right="0"
     fit-margin-bottom="0"
     units="pc"
     showguides="true"
     inkscape:guide-bbox="true" />
  <title
     id="title3003">remember-me-active</title>
  <path
     style="fill:#000000;fill-opacity:1"
     d="M 28.125,81.367186 C 26.559497,81.331592 25.002332,81.171072 23.5,80.679686 20.698957,80.001532 17.132811,78.790967 14.75,77.710936 13.749808,77.257588 12.720952,76.96288 11.5,76.773436 8.2848723,76.274573 6.5246189,75.413043 4.0625,73.148436 2.3877326,71.608021 1.3223788,69.95408 0.75,67.992186 0.39677731,66.781472 0.36790923,66.054767 0.40625,54.835936 l 0.0625,-11.875 0.5,-1.34375 C 1.6789101,39.804208 2.6391478,38.408963 4,37.148436 c 1.5241074,-1.411747 2.0141817,-1.726265 3.84375,-2.53125 1.8375576,-0.808499 3.91552,-1.249822 6,-1.25 1.686616,-1.62e-4 1.632767,0.02957 3.59375,-2.21875 1.468235,-1.683378 7.487066,-6.978341 8.5625,-7.53125 0.188183,-0.09675 0.766494,-0.480935 1.25,-0.84375 0.483511,-0.362813 0.9422,-0.65625 1.03125,-0.65625 0.08906,0 0.339069,-0.153896 0.5625,-0.34375 0.719457,-0.611335 3.942696,-2.183759 6.46875,-2.6875 2.719889,-0.542334 6.371265,-0.752257 8.9375,-0.5625 7.215806,0.533565 11.574727,2.907734 14.78125,10.125 l 0.625,1.40625 -1.75,0.125 -11.8125,0.1875 -0.53125,0.3125 -0.34375,0.625 -0.25,0.71875 0.25,0.90625 0.84375,0.53125 13.625,-1.0625 0.03125,-0.03125 0.0625,0 c 0.474821,0.0019 1.25098,-0.09624 2.4375,-0.3125 2.210597,-0.402914 10.920418,-0.224437 13.96875,-0.09375 2.355436,0.100975 4.065451,0.0646 4.90625,0.03125 l -1.28125,2.375 0,7.90625 1.21875,2.46875 c -0.697014,-0.09014 -1.736387,-0.225955 -3.40625,-0.40625 -0.351738,-0.03798 -0.585581,-0.03958 -0.875,-0.0625 l -6.375,-0.90625 -18.25,-1 -0.84375,0.125 -0.59375,0.25 -0.4375,0.5625 -0.09375,0.75 0.3125,0.71875 0.875,0.78125 18.65625,0.71875 3.46875,0.6875 0.03125,0 0,0.4375 c 0,2.036667 -0.288592,3.404689 -1.0625,4.9375 -0.460674,0.912421 -0.6873,1.18896 -1.5,1.9375 l -6.25,0 -18.5,0.0625 -0.5625,0.53125 -0.5,0.625 -0.09375,0.65625 0.3125,0.53125 0.84375,0.84375 20.6875,-0.03125 c -0.0096,0.176413 -0.02759,0.373304 -0.03125,0.65625 -0.04626,3.580286 -0.178234,4.511409 -0.96875,6.09375 -0.342619,0.685803 -0.910983,1.402585 -1.5625,2.0625 l -5.625,-0.03125 -14.375,0.0625 -0.4375,0.34375 -0.625,0.78125 -0.15625,0.53125 0.34375,0.75 0.625,0.65625 12.90625,0.125 3.3125,-0.28125 -0.09375,1.53125 c -0.148692,2.020961 -0.626651,3.617724 -1.375,4.65625 -0.578312,0.802553 -2.035515,2.15845 -2.65625,2.46875 -1.748072,0.873845 -3.730371,1.656365 -4.5625,1.8125 -0.3209,0.06021 -0.795084,0.16721 -1.0625,0.21875 -5.341999,1.029567 -9.880466,1.3721 -17.6875,1.375 -1.570967,5.82e-4 -3.153247,0.09809 -4.71875,0.0625 z m 55.625,-18 c -0.89712,-0.03735 -1.24725,-0.191653 -2.34375,-0.6875 -1.068599,-0.483231 -1.814736,-0.980418 -2.53125,-1.6875 -2.149431,-2.12113 -2.759473,-4.98477 -1.65625,-7.90625 0.550167,-1.456916 2.263696,-4.568393 3.46875,-6.3125 0.264709,-0.383121 0.502085,-0.756978 0.78125,-1.1875 0.08851,-0.136501 0.199407,-0.293229 0.25,-0.375 0.04573,-0.07392 0.21875,-0.33684 0.21875,-0.34375 l 1.5,-2.53125 -0.09375,-7.84375 -1.3125,-2.40625 -0.5,-0.9375 -0.03125,0.0625 c -0.325609,-0.538957 -0.71637,-1.177602 -0.96875,-1.53125 -1.949697,-2.732006 -3.124362,-5.178076 -3.78125,-7.8125 -0.517406,-2.075042 0.60662,-4.828311 2.65625,-6.5625 1.725541,-1.459982 3.030057,-1.90625 5.75,-1.90625 1.938798,0 2.120988,0.05255 3.40625,0.625 1.760525,0.784134 3.16563,2.052456 4,3.625 0.543858,1.025014 0.64893,1.475543 0.71875,2.75 0.09386,1.713313 -0.141125,2.613951 -1.28125,4.96875 -0.619126,1.278724 -2.645668,4.630543 -2.9375,4.84375 -0.06622,0.04838 -0.367667,0.365772 -0.5625,0.75 l -0.3125,0.59375 -1.6875,3.125 -0.125,7.6875 1.40625,2.25 -0.09375,0 0.71875,1 1.1875,1.65625 c 1.453829,2.149976 3.032698,5.21697 3.4375,6.65625 0.870765,3.095992 -0.484581,6.445567 -3.34375,8.21875 -1.457719,0.904036 -2.592373,1.20995 -4.8125,1.21875 -0.469671,0.0019 -0.82596,0.01245 -1.125,0 z m 1.4375,-3.0625 c 1.229948,0 1.796421,-0.217648 2.96875,-1.0625 0.810612,-0.584178 1.287404,-1.292744 1.65625,-2.40625 0.191637,-0.578504 0.195151,-0.902856 -0.0625,-1.8125 -0.622183,-2.196643 -1.832641,-4.351781 -4.53125,-8.0625 -0.212893,-0.292739 -0.261561,-0.270811 -0.71875,0.21875 -0.27106,0.290248 -0.4962,0.60568 -0.5,0.6875 -0.0038,0.08182 -0.205102,0.3923 -0.4375,0.6875 -0.724784,0.92064 -2.118867,3.309541 -2.71875,4.6875 -1.088313,2.49989 -0.855026,4.427858 0.65625,5.78125 0.965242,0.864405 2.124669,1.28125 3.6875,1.28125 z m 3.75,-15.71875 1.09375,-2.09375 0.03125,-7.75 -1.28125,-2.1875 c 2.817332,0.04967 5.098678,0.0087 7.71875,0.875 1.065688,0.564883 2.09962,1.079403 2.78125,2.25 0.503581,0.864825 0.5625,1.093595 0.5625,2.875 0,1.753662 -0.05025,2.029421 -0.53125,2.90625 -0.833244,1.518943 -1.429198,2.238573 -3.1875,2.71875 -1.561319,0.426384 -2.672241,0.31163 -5.59375,0.375 l -1.59375,0.03125 z m -3.96875,-14.5625 c 0.104434,-0.0032 1.385091,-1.675347 1.53125,-2 0.04356,-0.09675 0.285188,-0.48936 0.53125,-0.84375 0.992465,-1.429364 2.14819,-3.643156 2.5625,-4.90625 0.374285,-1.141069 0.39535,-1.443495 0.21875,-2.15625 -0.284313,-1.147484 -0.595918,-1.698732 -1.5,-2.4375 -0.970456,-0.793007 -1.320028,-0.945921 -2.5,-1.1875 -1.782285,-0.364893 -3.948415,0.528742 -5.0625,2.125 -1.035211,1.483243 -0.733907,3.575321 0.90625,6.5 0.890835,1.58851 3.13929,4.91155 3.3125,4.90625 z"
     id="background"
     inkscape:connector-curvature="0" />
</svg>
