<?xml version="1.0" encoding="UTF-8" standalone="no"?>
<svg
   xmlns:dc="http://purl.org/dc/elements/1.1/"
   xmlns:cc="http://creativecommons.org/ns#"
   xmlns:rdf="http://www.w3.org/1999/02/22-rdf-syntax-ns#"
   xmlns:svg="http://www.w3.org/2000/svg"
   xmlns="http://www.w3.org/2000/svg"
   xmlns:sodipodi="http://sodipodi.sourceforge.net/DTD/sodipodi-0.dtd"
   xmlns:inkscape="http://www.inkscape.org/namespaces/inkscape"
   version="1.1"
   viewBox="0 0 100 100"
   id="svg2"
   inkscape:version="0.48.4 r9939"
   width="100%"
   height="100%"
   sodipodi:docname="paid.svg">
  <metadata
     id="metadata51">
    <rdf:RDF>
      <cc:Work
         rdf:about="">
        <dc:format>image/svg+xml</dc:format>
        <dc:type
           rdf:resource="http://purl.org/dc/dcmitype/StillImage" />
        <dc:title>remember-me-active</dc:title>
      </cc:Work>
    </rdf:RDF>
  </metadata>
  <defs
     id="defs49" />
  <sodipodi:namedview
     pagecolor="#ffffff"
     bordercolor="#666666"
     borderopacity="1"
     objecttolerance="10"
     gridtolerance="10"
     guidetolerance="10"
     inkscape:pageopacity="0"
     inkscape:pageshadow="2"
     inkscape:window-width="1920"
     inkscape:window-height="1018"
     id="namedview47"
     showgrid="false"
     inkscape:zoom="4"
     inkscape:cx="109.27781"
     inkscape:cy="31.868308"
     inkscape:window-x="1912"
     inkscape:window-y="-8"
     inkscape:window-maximized="1"
     inkscape:current-layer="svg2"
     inkscape:snap-bbox="true"
     fit-margin-top="0"
     fit-margin-left="0"
     fit-margin-right="0"
     fit-margin-bottom="0"
     units="px"
     showguides="true"
     inkscape:guide-bbox="true" />
  <title
     id="title3003">remember-me-active</title>
  <g
     id="g3023"
     transform="matrix(0.19545769,0,0,0.1954644,8.2313352,31.412013)" />
  <path
     style="fill:#000000"
     d="m 52.145148,99.097327 c -5.09808,-0.701549 -10.58442,-2.729993 -14.96543,-5.533118 -1.41597,-0.905989 -1.732,-1.027741 -3.23126,-1.244898 C 24.391408,90.935052 15.924608,85.89827 9.7998776,77.953666 6.2651076,73.368583 3.4863076,67.567994 2.0127376,61.698458 0.00750757,53.711181 -0.01657243,46.263119 1.9366376,38.172467 4.4949676,27.575462 11.169888,17.902176 19.637158,12.520878 c 4.68124,-2.9751208 9.80847,-4.8233225 15.0272,-5.4168233 1.15089,-0.1308844 1.57249,-0.2911526 2.90463,-1.1041955 11.24807,-6.86498541 24.19482,-7.4998551 35.61617,-1.7465108 11.10285,5.5928995 19.51459,16.3772056 23.26829,29.8312016 1.4906,5.342619 2.10419,9.919913 2.10419,15.697065 0,5.891966 -0.63463,10.521797 -2.18618,15.949007 -5.25184,18.370484 -18.97952,31.399537 -35.18812,33.397333 -2.66407,0.328358 -6.52456,0.315278 -9.03823,-0.03063 z m -9.34415,-11.91373 c 3.26043,-5.987136 2.97404,-5.463014 5.08988,-9.315337 0.98985,-1.802226 2.81663,-5.130493 4.05951,-7.39615 4.32325,-7.88088 5.71761,-10.340184 5.99491,-10.57357 0.63021,-0.530389 1.12351,-0.04724 4.62644,4.531196 1.91229,2.499431 4.00003,5.218499 4.63941,6.042374 0.63939,0.823875 2.10415,2.719724 3.25503,4.212997 1.15089,1.493273 3.164,4.105331 4.47359,5.804573 1.30958,1.699242 3.1249,4.043869 4.03403,5.210279 l 1.65297,2.120748 0.46398,-0.470511 c 0.41626,-0.422125 0.43712,-0.50899 0.20289,-0.844714 -0.36057,-0.516792 -6.55117,-8.754206 -10.97741,-14.606909 -6.70653,-8.86787 -9.80745,-13.032621 -10.06025,-13.511645 -0.33328,-0.631501 -0.11103,-1.841897 0.40449,-2.202938 0.23682,-0.165853 0.85406,-0.705248 1.37164,-1.198654 1.10505,-1.053434 1.78483,-1.171286 2.51063,-0.435261 0.25049,0.254014 1.6802,2.297318 3.17714,4.540675 3.31644,4.970095 6.00991,8.985726 7.94801,11.849471 0.80151,1.18432 1.97039,2.911649 2.59751,3.838509 0.62713,0.926859 1.87174,2.780577 2.76582,4.119374 3.50762,5.252332 3.44602,5.170847 3.72887,4.932797 0.77933,-0.6559 0.82581,-0.566582 -4.56746,-8.778409 -10.86062,-16.536455 -13.85654,-21.192446 -13.95385,-21.685816 -0.0666,-0.337704 0.0136,-0.649886 0.23787,-0.925762 0.22821,-0.280746 3.94461,-1.885456 11.41696,-4.929749 6.09324,-2.482431 12.65732,-5.15953 14.58684,-5.949111 l 3.50823,-1.435602 -0.0633,-0.649314 c -0.0348,-0.357125 -0.0913,-0.678559 -0.12564,-0.714305 -0.0343,-0.03574 -0.71208,0.183511 -1.50619,0.487231 -2.51245,0.960927 -21.78888,8.504322 -26.23809,10.267684 -1.14571,0.454081 -2.31407,0.825599 -2.59635,0.825599 -0.69822,0 -1.26968,-0.590357 -1.49606,-1.545527 -0.10363,-0.437265 -0.31447,-1.185506 -0.46852,-1.662756 -0.36329,-1.125451 -0.34881,-1.844643 0.0471,-2.34032 0.52711,-0.659905 -1.59989,0.04754 23.86106,-7.936182 4.01138,-1.257835 7.31452,-2.305668 7.34032,-2.328514 0.0258,-0.02284 -0.0573,-0.340136 -0.18465,-0.705085 l -0.23153,-0.663542 -3.69288,1.107019 c -2.03107,0.608863 -4.85612,1.449938 -6.27787,1.869058 -1.42176,0.419119 -3.66518,1.087084 -4.98538,1.484368 -5.83489,1.75587 -10.77402,3.237042 -11.54022,3.460738 -0.45699,0.13342 -1.43224,0.417949 -2.16722,0.632288 -1.74521,0.508945 -2.18596,0.497652 -2.54972,-0.06533 -0.31374,-0.485571 -0.32225,-0.260672 1.02814,-27.163503 0.2016,-4.016391 0.38702,-8.1029978 0.41204,-9.0813488 l 0.0455,-1.7788215 -0.58967,-0.057891 c -0.74619,-0.073254 -0.67045,-0.6144045 -1.16118,8.2966373 -0.2155,3.913406 -0.51074,9.137522 -0.65609,11.609148 -0.14534,2.471624 -0.3883,6.811011 -0.5399,9.643081 -0.48382,9.038502 -0.49055,9.088046 -1.30728,9.630727 -0.24271,0.161272 -0.7558,0.298907 -1.14021,0.305859 l -0.6989,0.01264 0.86723,0.236752 c 1.73142,0.472675 2.83326,1.515653 3.78667,3.58438 0.45732,0.992294 0.51329,1.322476 0.50653,2.988009 -0.007,1.613962 -0.0743,2.019213 -0.49076,2.935652 -0.64674,1.423201 -1.80767,2.659509 -3.06279,3.261641 -1.38316,0.663558 -3.2264,0.589902 -4.42404,-0.176785 -0.43087,-0.275825 -0.78339,-0.534564 -0.78339,-0.574979 0,-0.04042 0.35313,-0.284093 0.78473,-0.541507 0.92345,-0.550756 1.44629,-1.128121 2.01819,-2.228645 0.59344,-1.141974 0.61451,-4.139711 0.038,-5.403502 -0.42539,-0.932497 -1.5122,-2.106556 -2.36509,-2.554954 l -0.53972,-0.283756 0.44629,-0.341382 c 0.24547,-0.18776 0.8207,-0.436208 1.2783,-0.552104 1.7935,-0.45424 1.98997,-0.531405 1.09048,-0.428273 -1.88575,0.21621 -2.25196,-0.549731 -1.89885,-3.971575 0.73302,-7.103535 2.3767,-23.158114 2.85636,-27.899402 0.30214,-2.986547 0.61926,-6.0199055 0.70471,-6.7407966 0.0855,-0.72089 0.12993,-1.3402911 0.0988,-1.3764466 -0.0311,-0.036157 -0.35281,-0.1062235 -0.71491,-0.155708 -0.51497,-0.07038 -0.65836,-0.025379 -0.65836,0.206621 0,0.1631263 -0.28622,2.8873828 -0.63604,6.0539047 -0.34983,3.1665215 -0.89256,8.1587195 -1.20609,11.0937745 -0.31352,2.935054 -0.73118,6.811012 -0.92812,8.613238 -0.19694,1.802226 -0.53132,5.088364 -0.74307,7.302528 -0.44222,4.624091 -0.58633,5.323675 -1.17755,5.71651 -0.39816,0.264564 -0.56577,0.232983 -2.34656,-0.442151 -2.01198,-0.762776 -12.02057,-4.676399 -16.59694,-6.489837 -4.53914,-1.798688 -12.13015,-4.7582 -12.35166,-4.815553 -0.11558,-0.02992 -0.36854,0.298361 -0.56214,0.729527 l -0.35201,0.783934 2.70923,1.069716 c 1.49008,0.588347 4.28793,1.693333 6.21746,2.455526 1.92952,0.762193 4.8792,1.926038 6.55484,2.586319 1.67564,0.660284 4.66687,1.839975 6.64717,2.62154 1.9803,0.781566 4.80535,1.894799 6.27788,2.47385 1.47253,0.579054 2.86301,1.220152 3.08995,1.424664 0.63063,0.568303 0.71715,1.485533 0.26586,2.81844 -0.21317,0.629626 -0.44017,1.453455 -0.50443,1.830736 -0.12803,0.751715 -0.59838,1.370681 -1.18504,1.559504 -0.35458,0.114123 -3.08169,-1.028577 -9.60601,-4.025055 -1.06631,-0.48973 -2.3542,-1.079014 -2.86197,-1.309512 -2.07461,-0.941755 -4.71712,-2.14587 -6.3702,-2.902714 -8.68071,-3.974361 -12.59799,-5.731693 -12.64347,-5.67199 -0.14191,0.186298 -0.40615,1.661546 -0.30838,1.721717 0.0655,0.04032 3.36849,1.551891 7.33994,3.359042 3.97145,1.807148 7.66893,3.492984 8.21664,3.746295 0.5477,0.253314 1.74362,0.798768 2.65761,1.212121 0.91398,0.413353 3.53131,1.605835 5.81627,2.649962 7.21905,3.298783 7.01645,3.179942 7.01645,4.115688 0,0.310869 -1.937,4.507206 -4.72591,10.238251 -2.59925,5.341308 -5.02012,10.342889 -5.37972,11.114623 -0.3596,0.771737 -1.88889,3.963763 -3.39841,7.093395 -1.50952,3.129633 -2.74459,5.736789 -2.74459,5.793683 0,0.194385 0.80251,0.970183 1.00157,0.968229 0.10924,-0.0012 0.42118,-0.485567 0.6932,-1.076654 0.70645,-1.535096 9.78365,-20.205209 13.22204,-27.195287 l 2.90129,-5.898196 0.73858,-0.04989 c 0.63962,-0.04322 0.8591,0.05713 1.63824,0.748976 0.49482,0.439379 1.15953,1.023675 1.47715,1.298434 0.51658,0.446882 0.57641,0.604845 0.56732,1.497953 -0.009,0.881017 -0.1587,1.262554 -1.27359,3.245325 -0.69489,1.235812 -1.71756,3.089531 -2.2726,4.119374 -0.55505,1.029844 -1.23894,2.293743 -1.51977,2.808665 -0.98657,1.808984 -5.97664,11.069936 -7.06249,13.107102 -0.60381,1.132828 -1.16028,2.143947 -1.23659,2.246931 -0.0763,0.102986 -0.59945,1.071974 -1.16252,2.15331 -0.56307,1.081336 -1.48291,2.78578 -2.04409,3.78765 l -1.02032,1.821588 0.49211,0.372602 c 0.27065,0.204931 0.57519,0.37524 0.67674,0.378467 0.10156,0.0032 1.34324,-2.121669 2.75931,-4.721987 z m 2.99105,1.439077 c 4.8056,-0.970571 10.18214,-3.650548 14.28346,-7.119704 2.23709,-1.892266 6.27684,-6.318596 6.27766,-6.87839 3.7e-4,-0.271281 -9.08681,-9.863451 -9.34412,-9.863366 -0.14166,4.6e-5 -2.26097,3.455632 -3.78275,6.167872 -0.26346,0.469554 -1.34872,2.328283 -2.4117,4.130509 -1.06298,1.802228 -2.91498,4.961975 -4.11555,7.021663 -1.20058,2.059687 -2.50413,4.269445 -2.8968,4.910573 -0.39267,0.641129 -0.71394,1.239823 -0.71394,1.330434 0,0.09061 0.27004,0.252594 0.60009,0.359962 0.33005,0.10737 0.61198,0.203818 0.62651,0.214332 0.0145,0.01057 0.67924,-0.112734 1.47714,-0.273885 z m -6.36874,-3.09752 c 0.7691,-0.555358 1.16811,-1.254694 4.0409,-7.082323 2.75,-5.578557 5.78402,-12.292467 5.9836,-13.240976 0.14487,-0.688486 -0.21067,-1.674018 -0.79408,-2.201147 l -0.39414,-0.356119 -5.36322,11.009563 c -2.94977,6.055258 -5.44391,11.162467 -5.54254,11.349354 -0.14477,0.274315 -0.081,0.393892 0.33105,0.62053 0.70094,0.385554 1.0989,0.362918 1.73843,-0.09888 z m -5.32447,-4.625403 c 0.51596,-0.53583 0.98771,-1.456287 1.89535,-3.698074 2.61508,-6.458976 5.29931,-13.634807 7.15063,-19.115933 l 0.57874,-1.713438 -0.57508,-1.719859 c -0.47882,-1.431994 -0.67878,-1.790198 -1.19468,-2.140096 -0.53844,-0.365189 -2.587,-1.516334 -12.52911,-7.040457 -4.753,-2.640908 -8.17565,-4.165926 -8.50464,-3.78939 -0.53957,0.617553 -1.00091,5.994299 -0.84756,9.877931 0.43093,10.913357 4.10728,20.47509 10.81169,28.119929 1.98577,2.264313 2.1489,2.326194 3.21466,1.219387 z m 34.26113,-16.528685 c -1.21997,-1.536966 -2.37278,-2.878423 -2.56182,-2.981016 -0.60654,-0.329187 -1.60607,-0.216033 -2.13019,0.241153 l -0.49031,0.427687 0.71975,0.929835 c 0.39586,0.511409 1.75221,2.309426 3.01409,3.995595 l 2.29435,3.065759 0.68612,-1.442266 0.68612,-1.442266 z m 4.51626,-3.963337 c 0.0597,-0.3347 0.27456,-1.419173 0.47737,-2.409941 0.38694,-1.890317 0.89231,-6.641203 0.72455,-6.811332 -0.12582,-0.12759 -4.39014,1.89959 -4.81662,2.289736 -0.53179,0.486478 -0.3991,1.429487 0.383,2.721924 0.38837,0.641791 1.1985,1.986295 1.80028,2.987784 0.60178,1.001491 1.14559,1.823025 1.20847,1.825632 0.0629,0.0026 0.1632,-0.269104 0.22295,-0.603803 z m -25.9104,-13.071342 c 0,-0.109062 -0.09415,-0.245655 -0.195699,-0.182007 -0.10155,0.06365 -0.273028,0.219171 -0.273028,0.397169 0,0.04541 0.16044,0.170958 0.26198,0.170958 0.10156,0 0.206747,-0.277055 0.206747,-0.38612 z m 24.9688,-0.763563 c 0.9417,-0.323052 1.78464,-0.653524 1.8732,-0.73438 0.14157,-0.129258 -0.18523,-3.814535 -0.36663,-4.134416 -0.0373,-0.06584 -1.32089,0.271202 -2.85234,0.748978 -3.13482,0.977982 -3.30132,1.109993 -2.95577,2.343489 0.39116,1.39632 0.6116,1.813719 1.1,2.0829 0.72094,0.397341 1.31565,0.340393 3.20154,-0.306571 z m -28.7659,-1.974675 c 0.34803,-1.405016 0.26416,-2.093762 -0.3208,-2.634389 -0.63659,-0.588348 -15.88683,-7.092619 -17.947,-7.654452 -0.50777,-0.138475 -1.18303,-0.25277 -1.50058,-0.253993 -0.51419,-0.002 -0.61804,0.09507 -0.9493,0.887188 -0.20457,0.489176 -0.42575,1.147652 -0.49151,1.463283 l -0.11955,0.573874 2.26904,1.063874 c 1.24797,0.585133 5.88344,2.704451 10.30104,4.709596 6.88336,3.124358 8.06204,3.605424 8.2421,3.363943 0.11557,-0.154977 0.34802,-0.838493 0.51656,-1.518924 z m 4.71661,-0.532011 c -0.12846,-0.156966 -0.28163,-0.236643 -0.34039,-0.177062 -0.0588,0.05958 -0.0067,0.286153 0.142703,0.38196 0.39088,0.250684 0.464057,0.120573 0.197687,-0.204898 z m 20.86842,-6.187955 c 1.77719,-0.385264 3.30794,-0.769284 3.40167,-0.853377 0.24315,-0.218173 -1.2045,-4.135695 -2.49006,-6.738385 -0.98842,-2.001116 -3.39812,-5.842807 -4.50811,-7.18712 l -0.46382,-0.561733 -9.3e-4,0.580199 c -5.5e-4,0.319111 -0.0903,3.802163 -0.19964,7.740115 -0.1863,6.712092 -0.17859,7.182483 0.1233,7.520762 0.17712,0.198468 0.45349,0.324663 0.61417,0.280436 0.16069,-0.04423 1.74623,-0.395633 3.52342,-0.780897 z m -19.7813,-0.595126 c 0.3644,-0.7262 1.07731,-3.683175 2.50912,-10.407284 0.79474,-3.732326 2.5007,-12.511294 2.5007,-12.868795 0,-0.477629 -4.20722,-2.192243 -7.1454,-2.912042 -1.84777,-0.45267 -1.9014,-0.455234 -2.86197,-0.136848 -1.94702,0.645348 -5.94298,2.842562 -7.93299,4.362015 -4.26488,3.256422 -8.25739,8.036853 -10.76768,12.892703 -0.60758,1.175297 -0.67088,1.405746 -0.4481,1.631458 0.25108,0.254381 22.83037,8.058588 23.4746,8.113659 0.19788,0.01691 0.45341,-0.239805 0.67172,-0.674866 z m 8.78111,-3.360555 c 0.25166,-0.255208 0.54073,-0.730463 0.64236,-1.056122 0.32771,-1.050057 1.86423,-12.771912 1.86423,-14.221919 0,-0.544868 -0.13289,-0.74927 -0.8612,-1.324686 -0.92493,-0.730757 -1.16988,-0.821687 -1.16988,-0.434275 0,0.135367 -0.3739,3.92874 -0.8309,8.429716 -0.97104,9.563948 -0.95751,9.298128 -0.46654,9.167928 0.2004,-0.05315 0.57026,-0.305431 0.82193,-0.560642 z M 15.100623,18.074828 c -0.10156,0 -0.606525,0.511105 -0.606525,0.620171 0.183185,0.03249 0.633517,-0.345739 0.606525,-0.620171 z m 2.27679,-1.772694 c 0.30466,-0.237218 0.396475,-0.427784 0.261315,-0.385287 -0.506895,0.115168 -2.0425,1.537624 -2.05311,1.74229 0.02625,0.19119 0.276475,0.03136 0.606525,-0.280516 0.33005,-0.311882 0.88061,-0.839269 1.18527,-1.076487 z m 2.168845,-1.900952 c -0.10155,-0.0017 -0.517,0.296592 -0.92321,0.662967 -0.66891,0.603308 -0.37959,0.626289 0.30305,0.04573 0.343431,-0.205347 0.51475,-0.594164 0.62016,-0.708697 z"
     id="path3837"
     inkscape:connector-curvature="0"
     sodipodi:nodetypes="cssssssssssssscccsscssssscscscsssssssssccsscccssssscscccsssssssscsssssscsscssssssssccssssccsssssscsscccssssssssssssccscssssssscssccsscsssscsscccccsscssssssscssssscsscsssscsssssssscscsscccscscsssccscssssscssssssscsccsscssccsscssccsssssssssssscsscsssscscccsccsscscc" />
</svg>
