<?xml version="1.0" encoding="UTF-8" standalone="no"?>
<svg
   xmlns:dc="http://purl.org/dc/elements/1.1/"
   xmlns:cc="http://creativecommons.org/ns#"
   xmlns:rdf="http://www.w3.org/1999/02/22-rdf-syntax-ns#"
   xmlns:svg="http://www.w3.org/2000/svg"
   xmlns="http://www.w3.org/2000/svg"
   xml:space="preserve"
   enable-background="new 0 0 283.464 283.464"
   viewBox="0 0 283.464 283.464"
   height="283.464px"
   width="283.464px"
   y="0px"
   x="0px"
   id="Layer_1"
   version="1.1"><metadata
     id="metadata6400"><rdf:RDF><cc:Work
         rdf:about=""><dc:format>image/svg+xml</dc:format><dc:type
           rdf:resource="http://purl.org/dc/dcmitype/StillImage" /><dc:title></dc:title></cc:Work></rdf:RDF></metadata><defs
     id="defs6398" /><g
     transform="matrix(0.2662861,0,0,0.2662861,4.7249626,5.3935152)"
     id="g6086"><g
       transform="matrix(1.2192787,0,0,1.2192787,-112.33287,-109.79608)"
       id="g7834"><path
         d="m 768,686 c 68,0 124,56 124,124 0,68 -56,126 -124,126 -68,0 -124,-58 -124,-126 0,-10 0,-20 2,-28 L 344,606 c -24,22 -54,34 -88,34 -70,0 -128,-58 -128,-128 0,-70 58,-128 128,-128 34,0 64,12 88,34 L 644,244 c -2,-10 -4,-20 -4,-30 0,-70 58,-128 128,-128 70,0 128,58 128,128 0,70 -58,128 -128,128 -34,0 -64,-14 -88,-36 L 380,482 c 2,10 4,20 4,30 0,10 -2,20 -4,30 l 304,176 c 22,-20 52,-32 84,-32 z"
         id="path7832" /></g></g></svg>