<?xml version="1.0" encoding="UTF-8" standalone="no"?>
<svg
   xmlns:dc="http://purl.org/dc/elements/1.1/"
   xmlns:cc="http://creativecommons.org/ns#"
   xmlns:rdf="http://www.w3.org/1999/02/22-rdf-syntax-ns#"
   xmlns:svg="http://www.w3.org/2000/svg"
   xmlns="http://www.w3.org/2000/svg"
   xmlns:sodipodi="http://sodipodi.sourceforge.net/DTD/sodipodi-0.dtd"
   xmlns:inkscape="http://www.inkscape.org/namespaces/inkscape"
   version="1.1"
   viewBox="0 0 100 100"
   id="svg2"
   inkscape:version="0.48.4 r9939"
   width="100%"
   height="100%"
   sodipodi:docname="smartphone.svg">
  <metadata
     id="metadata51">
    <rdf:RDF>
      <cc:Work
         rdf:about="">
        <dc:format>image/svg+xml</dc:format>
        <dc:type
           rdf:resource="http://purl.org/dc/dcmitype/StillImage" />
        <dc:title>smartphone</dc:title>
      </cc:Work>
    </rdf:RDF>
  </metadata>
  <defs
     id="defs49" />
  <sodipodi:namedview
     pagecolor="#ffffff"
     bordercolor="#666666"
     borderopacity="1"
     objecttolerance="10"
     gridtolerance="10"
     guidetolerance="10"
     inkscape:pageopacity="0"
     inkscape:pageshadow="2"
     inkscape:window-width="1920"
     inkscape:window-height="1059"
     id="namedview47"
     showgrid="false"
     inkscape:zoom="3.8133336"
     inkscape:cx="99.760315"
     inkscape:cy="30.408063"
     inkscape:window-x="2560"
     inkscape:window-y="21"
     inkscape:window-maximized="1"
     inkscape:current-layer="svg2"
     inkscape:snap-bbox="true"
     fit-margin-top="0"
     fit-margin-left="0"
     fit-margin-right="0"
     fit-margin-bottom="0" />
  <title>smartphone</title>
  <path
     d="m 72.709821,99.924415 c 1.043861,-0.14948 1.978749,-0.466399 2.658187,-0.901109 1.426647,-0.91275 2.230945,-2.2849 2.457736,-4.192943 0.03254,-0.271899 0.04669,-13.863966 0.04669,-44.741565 0,-38.484745 -0.0086,-44.4168066 -0.0636,-44.8484112 C 77.723527,4.574205 77.682026,4.3812452 77.521362,3.9024685 77.2577,3.1168358 76.8942,2.52566 76.315524,1.9413391 75.434271,1.0515519 74.321033,0.55383855 72.665946,0.30966569 72.288357,0.25399805 70.552962,0.24087423 60.319572,0.21679783 c -23.534378,-0.055535 -32.882337,-0.0297095 -33.96351,0.0935313 -0.338335,0.0385391 -0.660587,0.0808297 -0.716167,0.0939414 -0.05558,0.0133771 -0.273038,0.0521937 -0.483306,0.0868488 -0.396198,0.0655708 -0.482238,0.0860526 -0.997416,0.23765438 -0.641736,0.18891776 -1.351781,0.52956269 -1.768723,0.84856909 -0.4801,0.3673304 -1.03055,1.0570531 -1.296834,1.6251019 -0.139045,0.2965246 -0.373702,0.9908237 -0.432731,1.2801469 -0.177037,0.8681752 -0.169702,-1.0989504 -0.17009,45.6762114 -4.37e-4,47.07574 -0.0087,44.795295 0.171354,45.626213 0.159158,0.733389 0.452601,1.450504 0.807939,1.97446 0.172471,0.254316 0.73696,0.808301 1.031812,1.012636 0.751098,0.520503 1.91661,0.952067 3.063468,1.134334 0.369524,0.05874 3.025574,0.06557 23.648596,0.06088 12.908533,-0.0027 23.349471,-0.02207 23.49595,-0.04295 z m -23.726139,-3.98873 c -0.479808,-0.05327 -1.076118,-0.216472 -1.503845,-0.411518 -0.702856,-0.320492 -1.474358,-0.973292 -1.9376,-1.639421 -0.941837,-1.354431 -1.089919,-3.186168 -0.380408,-4.705538 0.436279,-0.934348 1.371945,-1.858474 2.318008,-2.289382 1.53834,-0.700736 3.393007,-0.554468 4.764368,0.375734 0.435452,0.295373 0.980264,0.83346 1.279295,1.263525 1.101823,1.584447 1.101823,3.771214 0,5.355661 -1.02195,1.469654 -2.748988,2.249879 -4.539818,2.050939 z M 24.752233,82.343095 c -0.334108,-0.129138 -0.62104,-0.375453 -0.768102,-0.659477 l -0.132583,-0.256069 0,-33.850924 c 0,-28.89796 0.0087,-33.876121 0.0615,-34.023111 0.09231,-0.258573 0.446335,-0.603674 0.742839,-0.724221 l 0.250155,-0.10171 24.209441,0 24.209444,0 0.241653,0.122318 c 0.305298,0.154472 0.550596,0.386587 0.673269,0.637143 l 0.09561,0.195274 0,33.86955 0,33.869564 -0.123596,0.248629 c -0.182818,0.367651 -0.556327,0.637571 -1.002564,0.724516 -0.106251,0.02075 -10.92342,0.03452 -24.225625,0.03118 -22.831327,-0.0053 -24.043577,-0.0093 -24.231447,-0.08257 z"
     id="path4290"
     inkscape:connector-curvature="0"
     sodipodi:nodetypes="csssssssssscsssssssssscssssssssscscssscccsscccsssc" />
</svg>
