<?xml version="1.0" encoding="UTF-8" standalone="no"?>
<svg
   xmlns:dc="http://purl.org/dc/elements/1.1/"
   xmlns:cc="http://creativecommons.org/ns#"
   xmlns:rdf="http://www.w3.org/1999/02/22-rdf-syntax-ns#"
   xmlns:svg="http://www.w3.org/2000/svg"
   xmlns="http://www.w3.org/2000/svg"
   xmlns:sodipodi="http://sodipodi.sourceforge.net/DTD/sodipodi-0.dtd"
   xmlns:inkscape="http://www.inkscape.org/namespaces/inkscape"
   version="1.1"
   viewBox="0 0 100 100"
   id="svg2"
   inkscape:version="0.48.4 r9939"
   width="100%"
   height="100%"
   sodipodi:docname="sms.svg">
  <metadata
     id="metadata51">
    <rdf:RDF>
      <cc:Work
         rdf:about="">
        <dc:format>image/svg+xml</dc:format>
        <dc:type
           rdf:resource="http://purl.org/dc/dcmitype/StillImage" />
        <dc:title>sms</dc:title>
      </cc:Work>
    </rdf:RDF>
  </metadata>
  <defs
     id="defs49" />
  <sodipodi:namedview
     pagecolor="#ffffff"
     bordercolor="#666666"
     borderopacity="1"
     objecttolerance="10"
     gridtolerance="10"
     guidetolerance="10"
     inkscape:pageopacity="0"
     inkscape:pageshadow="2"
     inkscape:window-width="1920"
     inkscape:window-height="1059"
     id="namedview47"
     showgrid="false"
     inkscape:zoom="3.8133336"
     inkscape:cx="139.88269"
     inkscape:cy="30.408063"
     inkscape:window-x="2560"
     inkscape:window-y="21"
     inkscape:window-maximized="1"
     inkscape:current-layer="svg2"
     inkscape:snap-bbox="true"
     fit-margin-top="0"
     fit-margin-left="0"
     fit-margin-right="0"
     fit-margin-bottom="0" />
  <title
     id="title4887">sms</title>
  <path
     d="M 60.4375 0.1875 C 61.566502 2.8466952 64.008951 4.762145 67.4375 7.59375 C 68.990494 9.0593008 71.273961 11.473863 73.65625 12.71875 L 95.3125 12.71875 L 95.5625 12.84375 C 95.867798 12.998222 96.127327 13.249444 96.25 13.5 L 96.34375 13.6875 L 96.34375 47.5625 L 96.34375 81.40625 L 96.21875 81.65625 C 96.035932 82.023901 95.664987 82.319305 95.21875 82.40625 C 95.112499 82.427 84.270955 82.44084 70.96875 82.4375 C 48.137423 82.4322 46.93787 82.41702 46.75 82.34375 C 46.415892 82.214612 46.115812 81.971524 45.96875 81.6875 L 45.84375 81.4375 L 45.84375 56.3125 C 44.71162 56.519882 43.593816 56.756513 42.5 57.125 C 42.499709 92.654616 42.491819 95.022431 42.65625 95.78125 C 42.815408 96.514639 43.113412 97.226044 43.46875 97.75 C 43.641221 98.004316 44.205148 98.576915 44.5 98.78125 C 45.251098 99.301753 46.415642 99.723983 47.5625 99.90625 C 47.932024 99.96499 50.595728 99.97344 71.21875 99.96875 C 84.127283 99.96605 94.572271 99.95838 94.71875 99.9375 C 95.762611 99.78802 96.695562 99.46596 97.375 99.03125 C 98.801647 98.1185 99.585709 96.751793 99.8125 94.84375 C 99.84504 94.571851 99.875 80.971349 99.875 50.09375 C 99.875 11.609005 99.8675 5.6816046 99.8125 5.25 C 99.727193 4.5838182 99.691914 4.3850267 99.53125 3.90625 C 99.267588 3.1206173 98.891176 2.5218209 98.3125 1.9375 C 97.431247 1.0477128 96.311337 0.55667286 94.65625 0.3125 C 94.278661 0.25683236 92.54589 0.2428264 82.3125 0.21875 C 72.180846 0.19484194 65.783011 0.17996935 60.4375 0.1875 z M 71.3125 86.46875 C 72.351961 86.42228 73.392899 86.668624 74.25 87.25 C 74.685452 87.545373 75.232219 88.101185 75.53125 88.53125 C 76.633073 90.115697 76.633073 92.290553 75.53125 93.875 C 74.5093 95.344654 72.75958 96.13644 70.96875 95.9375 C 70.488942 95.88423 69.896477 95.726296 69.46875 95.53125 C 68.765894 95.210758 67.994492 94.541129 67.53125 93.875 C 66.589413 92.520569 66.446739 90.70687 67.15625 89.1875 C 67.592529 88.253152 68.522687 87.305908 69.46875 86.875 C 70.045627 86.612224 70.688824 86.496632 71.3125 86.46875 z "
     id="path4290" />
  <path
     d="m 62.297989,52.899367 c -3.1823,-0.75339 -6.6165,-1.80029 -7.6315,-2.32644 -1.4754,-0.76483 -2.9359,-0.71554 -7.2839,0.24578 -9.6391,2.13116 -20.2253,1.14245 -29.841,-2.78702 C 4.1455893,42.557367 -2.7584105,30.084767 2.3368893,20.563157 6.0216893,13.677187 16.002589,6.8970471 25.537889,4.8023571 c 4.904,-1.07729 16.9951,-1.06639 22.4608,0.0202 6.499,1.29205 14.4912,5.1808199 18.4977,9.0003599 9.2849,8.8517 9.358,18.24505 0.216,27.76478 -3.6205,3.77007 -3.5089,4.75877 0.9398,8.32748 2.531,2.03034 3.3572,4.51821 1.4652,4.41199 -0.5683,-0.032 -3.637,-0.67443 -6.8194,-1.42783 z m -39.2628,-18.21473 c 3.347,-3.19086 1.6894,-8.41858 -3.1117,-9.81381 -2.347,-0.68202 -1.6077,-2.00652 1.1199,-2.00652 1.124,0 2.2596,-0.53644 2.5235,-1.19207 0.8305,-2.06342 -1.3264,-3.53606 -5.1792,-3.53606 -4.3113,0 -6.9247,2.03573 -6.9247,5.39402 0,2.41109 1.4964,3.97637 5.2729,5.51541 2.9437,1.19963 2.1591,2.09293 -1.8382,2.09293 -2.5065,0 -3.0666,0.30301 -3.2863,1.77793 -0.3127,2.09985 1.952,3.21822 6.6709,3.29426 2.0502,0.033 3.6594,-0.48363 4.7529,-1.52609 z m 8.098,-0.99467 c 1.3887,-2.76216 2.0629,-2.7189 3.2212,0.20665 1.3611,3.43778 4.1042,3.19928 5.7245,-0.49771 1.2483,-2.84826 2.3707,-2.84086 2.9208,0.0192 0.4012,2.08631 2.8536,3.46884 4.0797,2.29996 0.7093,-0.67622 0.6832,-2.63892 -0.1047,-7.86252 -0.5774,-3.82873 -1.3776,-7.58191 -1.7782,-8.34037 -1.1076,-2.09732 -3.7158,-1.65132 -5.7603,0.98502 -1.0083,1.30024 -2.0552,2.36407 -2.3263,2.36407 -0.2711,0 -1.1521,-1.06383 -1.9577,-2.36407 -1.669,-2.69358 -4.9922,-3.22373 -6.1745,-0.98502 -1.0848,2.05419 -2.8814,14.94162 -2.2243,15.95529 0.939,1.44843 3.2233,0.51977 4.3798,-1.78052 z m 29.925,0.99467 c 2.8877,-2.75299 1.4038,-9.45627 -2.0934,-9.45627 -0.5558,0 -1.4736,-0.53191 -2.0396,-1.18203 -0.8777,-1.0082 -0.6456,-1.18203 1.5779,-1.18203 2.9225,0 4.1498,-1.71415 2.5463,-3.55614 -1.1719,-1.34621 -6.7482,-1.57557 -9.1025,-0.3744 -0.8716,0.44472 -1.8147,2.07543 -2.1316,3.68581 -0.494,2.5107 -0.2766,3.12744 1.6637,4.71855 1.2277,1.0067 2.9553,1.83036 3.8391,1.83036 0.886,0 1.6071,0.53678 1.6071,1.19632 0,0.91388 -0.8221,1.14645 -3.4821,0.98503 -2.8779,-0.17463 -3.5389,0.0531 -3.8095,1.31266 -0.4623,2.15154 2.0343,3.59819 6.2097,3.59819 2.4596,0 4.0732,-0.48769 5.2149,-1.57605 z"
     id="path2987"
     inkscape:connector-curvature="0"
     sodipodi:nodetypes="ssssssssssssssssssssssssssssssssssssssssssssssssssss" />
</svg>
