<?xml version="1.0" encoding="UTF-8" standalone="no"?>
<svg
   xmlns:dc="http://purl.org/dc/elements/1.1/"
   xmlns:cc="http://creativecommons.org/ns#"
   xmlns:rdf="http://www.w3.org/1999/02/22-rdf-syntax-ns#"
   xmlns:svg="http://www.w3.org/2000/svg"
   xmlns="http://www.w3.org/2000/svg"
   xmlns:sodipodi="http://sodipodi.sourceforge.net/DTD/sodipodi-0.dtd"
   xmlns:inkscape="http://www.inkscape.org/namespaces/inkscape"
   version="1.1"
   viewBox="0 0 100 100"
   id="svg2"
   inkscape:version="0.48.4 r9939"
   width="100%"
   height="100%"
   sodipodi:docname="sun_black.svg">
  <metadata
     id="metadata51">
    <rdf:RDF>
      <cc:Work
         rdf:about="">
        <dc:format>image/svg+xml</dc:format>
        <dc:type
           rdf:resource="http://purl.org/dc/dcmitype/StillImage" />
        <dc:title>remember-me-active</dc:title>
      </cc:Work>
    </rdf:RDF>
  </metadata>
  <defs
     id="defs49" />
  <sodipodi:namedview
     pagecolor="#ffffff"
     bordercolor="#666666"
     borderopacity="1"
     objecttolerance="10"
     gridtolerance="10"
     guidetolerance="10"
     inkscape:pageopacity="0"
     inkscape:pageshadow="2"
     inkscape:window-width="1920"
     inkscape:window-height="1058"
     id="namedview47"
     showgrid="false"
     inkscape:zoom="5.6568543"
     inkscape:cx="78.879812"
     inkscape:cy="28.633092"
     inkscape:window-x="-8"
     inkscape:window-y="-8"
     inkscape:window-maximized="1"
     inkscape:current-layer="g3023"
     inkscape:snap-bbox="true"
     fit-margin-top="0"
     fit-margin-left="0"
     fit-margin-right="0"
     fit-margin-bottom="0"
     units="px"
     showguides="true"
     inkscape:guide-bbox="true" />
  <title
     id="title3003">remember-me-active</title>
  <g
     id="g3023"
     transform="matrix(0.19545769,0,0,0.1954644,8.2313352,31.412013)">
    <path
       style="fill:#000000;fill-opacity:1"
       d="m 206.3607,349.89284 c -3.97017,-1.14361 -10.04168,-6.87154 -11.27081,-10.63299 -0.71707,-2.19446 -0.99991,-11.70998 -0.99991,-33.64054 0,-16.8193 -0.27852,-30.58054 -0.61894,-30.58054 -0.34038,0 -11.09935,9.52896 -23.90881,21.1755 -19.36851,17.6101 -23.90304,21.36535 -26.93144,22.30312 -13.75263,4.2586 -26.66445,-3.8353 -26.66445,-16.71489 0,-7.92168 0.0225,-7.9467 40.62553,-44.99602 l 37.49811,-34.2162 0,-47.74779 c 0,-27.21363 -0.31146,-47.74777 -0.72426,-47.74777 -0.39833,0 -17.7921,8.96455 -38.6528,19.92122 -20.86069,10.95665 -41.31409,21.67711 -45.45197,23.82323 -4.13789,2.14612 -7.70823,4.47253 -7.93409,5.16981 -0.38094,1.17601 -4.560106,15.31985 -16.95946,57.3973 -2.711067,9.20002 -6.064068,20.53294 -7.451121,25.18419 -1.591524,5.33698 -3.454668,9.7152 -5.050315,11.86769 -10.054832,13.56394 -34.193068,7.63127 -35.494806,-8.72386 -0.289537,-3.63769 0.883758,-8.42202 7.943732,-32.3919 4.555901,-15.46807 8.180428,-28.21741 8.054494,-28.33185 -0.21886,-0.1989 -24.313173,12.29732 -40.701289,21.10921 -19.4850226,10.4771 -24.795125,11.79689 -33.133224,8.23501 -12.103373,-5.17038 -15.084435,-20.86385 -5.524606,-29.08373 2.252229,-1.93656 56.983603,-31.05696 58.371082,-31.05696 0.404256,0 0.735006,-0.28205 0.735006,-0.62679 0,-0.68299 -1.997013,-1.20545 -37.4309854,-9.79291 -25.5703126,-6.197 -29.5976486,-7.70407 -33.1201016,-12.39399 -9.188923,-12.23447 0.127838,-28.48348 16.331685,-28.48348 1.794765,0 9.850729,1.6285 17.9021558,3.61888 8.0514272,1.99039 30.6823852,7.51951 50.2910072,12.28691 l 35.652028,8.66802 27.337698,-14.38294 c 15.03575,-7.91064 35.52842,-18.68072 45.53929,-23.93351 10.01086,-5.252802 18.20159,-9.758925 18.20159,-10.013594 0,-0.580248 -1.53134,-1.404203 -40.90243,-22.008301 C 114.14618,63.851698 95.604791,54.111642 90.715212,51.507811 L 81.825088,46.773578 38.769133,57.237983 c -23.680759,5.755423 -46.4187499,11.282176 -50.528853,12.281666 -11.621916,2.826214 -17.189853,2.234188 -23.238312,-2.470886 -10.829629,-8.424309 -8.998862,-23.791999 3.506254,-29.431933 3.445266,-1.55385 25.5351878,-7.182073 60.64451,-15.451426 4.108693,-0.967733 5.938526,0.195673 -26.0771,-16.5798808 C -26.105302,-9.7047081 -30.00989,-12.32922 -31.673216,-17.771363 c -3.963967,-12.969428 4.934032,-23.894233 19.461314,-23.894233 5.0212766,0 6.6716464,0.755909 40.225018,18.423774 13.265677,6.98517 24.224605,12.604754 24.353142,12.487949 0.128538,-0.116831 -3.453745,-12.723411 -7.960632,-28.014631 -9.163994,-31.092259 -9.483267,-33.204468 -5.948412,-39.353761 6.932287,-12.059646 26.626236,-12.825349 34.043178,-1.323598 1.370163,2.124768 6.155112,17.037566 14.032785,43.734639 14.925843,50.58301 14.967013,50.717518 15.721473,51.34672 1.21071,1.009702 90.37489,47.523601 91.09974,47.523601 0.42778,0 0.73559,-19.980767 0.73559,-47.747784 l 0,-47.747774 -37.49811,-34.216211 c -24.3702,-22.23732 -38.04554,-35.257278 -39.0618,-37.189958 -5.98283,-11.37755 3.52099,-25.57653 17.15648,-25.63227 8.75456,-0.0357 8.81495,0.005 34.48342,23.16098 13.06465,11.785926 24.01627,21.428944 24.33694,21.428944 0.32069,0 0.58665,-13.967321 0.59105,-31.038494 l 0.008,-31.03852 1.92887,-3.71717 c 7.31137,-14.09035 29.35529,-13.28537 36.06891,1.31714 1.05627,2.29743 1.25239,7.55921 1.25239,33.60051 0,16.982102 0.26794,30.876534 0.59542,30.876534 0.32746,0 11.27908,-9.672042 24.33694,-21.493464 19.80949,-17.93376 24.28348,-21.62688 27.01373,-22.29896 14.04923,-3.45846 26.1287,4.41403 26.1287,17.0287 0,7.97952 0.0451,7.92953 -40.5767,44.996028 l -37.49809,34.216211 0,47.747774 c 0,27.807832 0.30755,47.747784 0.73643,47.747784 1.74948,0 91.67211,-47.815067 92.03822,-48.939998 0.22232,-0.683114 6.14846,-20.8130205 13.16922,-44.733131 7.02075,-23.920084 13.70485,-45.271826 14.85353,-47.448272 7.07371,-13.40288 28.66599,-12.815658 35.55533,0.96694 2.62018,5.24182 2.01405,8.701549 -6.68638,38.165361 -4.51938,15.304718 -8.10857,27.924897 -7.97599,28.044873 0.23891,0.216207 25.78193,-12.9932 40.73151,-21.063991 18.4661,-9.969231 22.84505,-11.229807 31.15239,-8.967887 13.13831,3.577322 17.55897,21.132998 7.50544,29.80626 -1.23843,1.0683963 -14.76787,8.5187562 -30.06536,16.5563134 -32.02517,16.8265576 -30.18331,15.6526956 -26.07711,16.6198386 25.98387,6.120022 57.01464,13.826904 59.41713,14.756997 13.27458,5.139046 15.84289,21.484553 4.73364,30.126362 -6.04609,4.70322 -11.80387,5.314446 -23.34878,2.478611 -4.0494,-0.994652 -26.72116,-6.514399 -50.38174,-12.266098 L 345.69456,46.803638 325.72409,57.301762 c -10.98378,5.773964 -30.83009,16.180164 -44.10293,23.124883 -13.27281,6.944721 -25.0228,13.13801 -26.11107,13.762858 l -1.97867,1.1361 2.38768,1.125201 c 28.80544,14.909096 52.44217,27.480506 82.88321,43.411256 l 6.87116,3.59335 35.66739,-8.64802 c 19.61704,-4.75643 42.25492,-10.27758 50.30633,-12.26929 8.05142,-1.99165 16.10739,-3.62119 17.90215,-3.62119 16.20384,0 25.52061,16.24901 16.3317,28.48348 -2.95526,3.93471 -7.64842,6.20338 -17.95043,8.67717 -26.8407,6.44523 -52.14692,12.73293 -52.4858,13.04089 -0.50486,0.4588 -0.47027,0.48095 4.79342,3.06961 21.5425,10.59441 52.33896,27.44394 55.00012,30.09193 11.27509,11.21932 2.11215,29.68133 -14.7023,29.62308 -5.85682,-0.0202 -7.51308,-0.69804 -27.82877,-11.38759 -33.08891,-17.41048 -37.42512,-19.65074 -37.66043,-19.457 -0.13254,0.10911 3.45666,12.73706 7.97596,28.06212 8.69001,29.46812 9.29391,32.91182 6.68626,38.12857 -7.60859,15.22149 -31.67005,13.9111 -37.12277,-2.0217 -1.18293,-3.45658 -12.47807,-41.4694 -23.12774,-77.83455 -1.96297,-6.70282 -3.86619,-12.43037 -4.22942,-12.72789 -27.90494,-14.91428 -51.60144,-27.17495 -81.60537,-42.88121 -4.92617,-2.579 -9.25161,-4.6891 -9.61206,-4.6891 -0.36047,0 -0.65537,21.4865 -0.65537,47.74777 l 0,47.74779 37.49807,34.2162 c 40.58557,37.03345 40.54119,36.98425 40.59383,44.99602 0.0827,12.60516 -12.04044,20.50099 -26.14583,17.02872 -2.73026,-0.67211 -7.20423,-4.36521 -27.01373,-22.29897 -13.05784,-11.82142 -24.00949,-21.49348 -24.33693,-21.49348 -0.32747,0 -0.59902,13.96732 -0.60341,31.0385 l -0.008,31.03852 -1.92886,3.71718 c -4.30667,8.2999 -14.67326,12.0491 -25.05059,9.05987 z"
       id="path3821"
       inkscape:connector-curvature="0"
       sodipodi:nodetypes="cssssssscsssssssssscsssssssssscssssscssssssssscssssssscscssssccssssssscssssssscssssssssscsssccccsssssssscscssssccsscsssssscccc" />
  </g>
</svg>
