<?xml version="1.0" encoding="UTF-8" standalone="no"?>
<svg
   xmlns:dc="http://purl.org/dc/elements/1.1/"
   xmlns:cc="http://creativecommons.org/ns#"
   xmlns:rdf="http://www.w3.org/1999/02/22-rdf-syntax-ns#"
   xmlns:svg="http://www.w3.org/2000/svg"
   xmlns="http://www.w3.org/2000/svg"
   xmlns:xlink="http://www.w3.org/1999/xlink"
   xmlns:sodipodi="http://sodipodi.sourceforge.net/DTD/sodipodi-0.dtd"
   xmlns:inkscape="http://www.inkscape.org/namespaces/inkscape"
   version="1.1"
   viewBox="0 0 100 100"
   id="svg2"
   inkscape:version="0.48.4 r9939"
   width="100%"
   height="100%"
   sodipodi:docname="invoice.svg">
  <metadata
     id="metadata51">
    <rdf:RDF>
      <cc:Work
         rdf:about="">
        <dc:format>image/svg+xml</dc:format>
        <dc:type
           rdf:resource="http://purl.org/dc/dcmitype/StillImage" />
        <dc:title>sparkplug</dc:title>
      </cc:Work>
    </rdf:RDF>
  </metadata>
  <defs
     id="defs49">
    <linearGradient
       inkscape:collect="always"
       xlink:href="#linearGradient3802-1"
       id="linearGradient3860"
       gradientUnits="userSpaceOnUse"
       gradientTransform="matrix(8.1388236,0,0,8.2087572,43.862514,-237.13826)"
       x1="54.909092"
       y1="98.909088"
       x2="56.909103"
       y2="57.63636" />
    <linearGradient
       inkscape:collect="always"
       id="linearGradient3802-1">
      <stop
         style="stop-color:#2d2d2d;stop-opacity:1"
         offset="0"
         id="stop3804-7" />
      <stop
         style="stop-color:#b0b0b0;stop-opacity:1"
         offset="1"
         id="stop3806-4" />
    </linearGradient>
  </defs>
  <sodipodi:namedview
     pagecolor="#ffffff"
     bordercolor="#666666"
     borderopacity="1"
     objecttolerance="10"
     gridtolerance="10"
     guidetolerance="10"
     inkscape:pageopacity="0"
     inkscape:pageshadow="2"
     inkscape:window-width="2479"
     inkscape:window-height="1410"
     id="namedview47"
     showgrid="false"
     inkscape:zoom="7.6266672"
     inkscape:cx="104.47436"
     inkscape:cy="47.563457"
     inkscape:window-x="81"
     inkscape:window-y="30"
     inkscape:window-maximized="1"
     inkscape:current-layer="svg2"
     inkscape:snap-bbox="true"
     fit-margin-top="0"
     fit-margin-left="0"
     fit-margin-right="0"
     fit-margin-bottom="0" />
  <title>sparkplug</title>
  <path
     inkscape:connector-curvature="0"
     id="path3002"
     d="m 26.203443,97.579114 2.158609,-2.404503 -8.50376,-8.839763 c -4.677067,-4.861875 -8.57461,-9.402158 -8.661209,-10.089514 -0.356362,-2.828594 0.175773,-3.699551 2.260348,-3.699551 3.192452,0 5.758033,3.416843 5.442584,7.248428 -0.325347,3.951752 1.690242,5.938936 5.264955,5.190775 2.211598,-0.462877 3.354152,0.248117 7.677602,4.777601 2.793635,2.926773 5.321797,5.32141 5.618125,5.32141 0.296337,0 3.468983,-3.090019 7.050319,-6.866698 L 51.022543,81.350592 36.539098,66.170479 22.055655,50.990355 11.040121,62.487695 C 3.39931,70.462705 0.02458479,74.670697 0.02458479,76.223138 c 0,2.812544 19.61157221,23.760472 22.24469321,23.760472 0.976556,0 2.746927,-1.08202 3.934165,-2.404496 z M 58.55032,77.464485 C 60.181699,76.797167 58.254507,74.409381 43.601816,58.943336 34.350087,49.178048 26.449112,41.18827 26.044095,41.18827 c -0.405017,0 -0.736394,0.997032 -0.736394,2.215634 0,1.563741 4.614899,7.013137 15.684897,18.521149 13.1097,13.628416 15.992388,16.179742 17.557722,15.539432 z m 11.443027,-1.998631 c 2.338014,-0.984479 2.831401,-2.698911 3.3231,-11.547237 L 73.659718,57.741256 86.003773,44.79699 c 6.789229,-7.11934 12.344052,-13.724693 12.344052,-14.678559 0,-3.440536 -4.974584,-12.07327 -10.159066,-17.629724 C 82.944553,6.868266 74.88048,1.9913789 70.831107,1.9913789 c -1.325547,0 -6.103587,4.2961852 -14.068313,12.6495321 l -12.061031,12.649533 -7.202318,0.667171 c -3.961275,0.366952 -7.723337,1.004145 -8.360135,1.415988 -0.636797,0.411851 -1.491592,2.297515 -1.899538,4.190362 l -0.741733,3.441547 18.787596,19.72998 C 64.310947,76.715128 65.280696,77.450266 69.993347,75.465854 z M 62.005988,38.925747 c -8.339459,-8.763396 -8.612226,-9.186829 -6.938802,-10.771628 1.648076,-1.560782 1.886505,-1.491698 4.426428,1.2826 2.969015,3.242984 5.568167,3.781059 6.463976,1.338163 0.610063,-1.663664 -0.493957,-3.597452 -3.661623,-6.413671 -1.759808,-1.564563 -1.777272,-1.766721 -0.289295,-3.350354 1.495375,-1.591501 1.769022,-1.514891 4.915544,1.376154 1.934552,1.777491 3.921374,2.824822 4.737251,2.497195 1.992169,-0.799989 1.810871,-1.307157 -1.882011,-5.264731 l -3.287235,-3.52286 2.716578,-2.723576 c 2.58797,-2.594648 2.843329,-2.653699 5.394162,-1.247431 3.882779,2.140571 13.229827,12.472745 13.904315,15.369748 0.436265,1.873816 -0.0075,3.049684 -1.824327,4.835985 L 84.280205,34.691523 81.0944,31.460239 c -3.029848,-3.073086 -5.220461,-3.361222 -5.220461,-0.686651 0,0.675793 1.256449,2.488405 2.792111,4.02802 2.137575,2.14308 2.549727,3.104931 1.75817,4.103022 -1.505067,1.897758 -2.727183,1.620537 -5.613653,-1.273379 -4.823606,-4.836025 -7.668209,-0.397663 -3.007726,4.692877 2.074367,2.265775 2.286998,2.961099 1.289963,4.21828 -0.656612,0.827928 -1.466598,1.505318 -1.79998,1.505318 -0.333372,0 -4.512455,-4.104894 -9.286836,-9.121979 z m 33.298497,-23.86444 c 2.138026,-0.902802 1.213244,-3.809222 -2.380507,-7.4814802 -6.785034,-6.93325394 -10.509836,-3.2841214 -3.872129,3.7934652 2.237088,2.385347 4.295743,4.302183 4.574784,4.259634 0.279032,-0.04252 1.03407,-0.299777 1.677852,-0.571619 z M 99.903466,7.3224502 C 100.60582,5.407094 95.855958,0.03153433 93.461179,0.03153433 c -2.944481,0 -3.045005,2.84150027 -0.210065,5.93803507 2.888567,3.1551048 5.776143,3.7423527 6.652352,1.3528808 z" />
</svg>
