<?xml version="1.0" encoding="UTF-8" standalone="no"?>
<svg
   xmlns:dc="http://purl.org/dc/elements/1.1/"
   xmlns:cc="http://creativecommons.org/ns#"
   xmlns:rdf="http://www.w3.org/1999/02/22-rdf-syntax-ns#"
   xmlns:svg="http://www.w3.org/2000/svg"
   xmlns="http://www.w3.org/2000/svg"
   xmlns:xlink="http://www.w3.org/1999/xlink"
   xmlns:sodipodi="http://sodipodi.sourceforge.net/DTD/sodipodi-0.dtd"
   xmlns:inkscape="http://www.inkscape.org/namespaces/inkscape"
   version="1.1"
   viewBox="0 0 100 100"
   id="svg2"
   inkscape:version="0.48.4 r9939"
   width="100%"
   height="100%"
   sodipodi:docname="Summer-Wheel_black.svg">
  <metadata
     id="metadata51">
    <rdf:RDF>
      <cc:Work
         rdf:about="">
        <dc:format>image/svg+xml</dc:format>
        <dc:type
           rdf:resource="http://purl.org/dc/dcmitype/StillImage" />
        <dc:title>remember-me-active</dc:title>
      </cc:Work>
    </rdf:RDF>
  </metadata>
  <defs
     id="defs49">
    <radialGradient
       inkscape:collect="always"
       xlink:href="#linearGradient4042"
       id="radialGradient4048"
       cx="1071.6101"
       cy="314.9259"
       fx="1071.6101"
       fy="314.9259"
       r="293.73334"
       gradientTransform="matrix(1,0,0,1.0022845,0,-0.71943396)"
       gradientUnits="userSpaceOnUse" />
    <linearGradient
       id="linearGradient4042">
      <stop
         style="stop-color:#3a3a3a;stop-opacity:1;"
         offset="0"
         id="stop4044" />
      <stop
         id="stop4050"
         offset="0.65937507"
         style="stop-color:#131313;stop-opacity:1;" />
      <stop
         style="stop-color:#505050;stop-opacity:1;"
         offset="0.89655095"
         id="stop4064" />
      <stop
         style="stop-color:#000000;stop-opacity:1;"
         offset="1"
         id="stop4046" />
    </linearGradient>
    <radialGradient
       inkscape:collect="always"
       xlink:href="#linearGradient4042-7"
       id="radialGradient3819"
       gradientUnits="userSpaceOnUse"
       gradientTransform="matrix(1,0,0,1.0022845,-771.125,-15.156934)"
       cx="1071.6101"
       cy="314.9259"
       fx="1071.6101"
       fy="314.9259"
       r="293.73334" />
    <linearGradient
       id="linearGradient4042-7">
      <stop
         style="stop-color:#3a3a3a;stop-opacity:1;"
         offset="0"
         id="stop4044-4" />
      <stop
         id="stop4050-0"
         offset="0.65937507"
         style="stop-color:#131313;stop-opacity:1;" />
      <stop
         style="stop-color:#505050;stop-opacity:1;"
         offset="0.89655095"
         id="stop4064-9" />
      <stop
         style="stop-color:#000000;stop-opacity:1;"
         offset="1"
         id="stop4046-4" />
    </linearGradient>
    <linearGradient
       id="linearGradient4042-8">
      <stop
         style="stop-color:#3a3a3a;stop-opacity:1;"
         offset="0"
         id="stop4044-2" />
      <stop
         id="stop4050-4"
         offset="0.65937507"
         style="stop-color:#131313;stop-opacity:1;" />
      <stop
         style="stop-color:#505050;stop-opacity:1;"
         offset="0.89655095"
         id="stop4064-5" />
      <stop
         style="stop-color:#000000;stop-opacity:1;"
         offset="1"
         id="stop4046-5" />
    </linearGradient>
    <linearGradient
       id="linearGradient5025">
      <stop
         id="stop5027"
         offset="0"
         style="stop-color:#ffffff;stop-opacity:1;" />
      <stop
         style="stop-color:#9e9e9e;stop-opacity:1;"
         offset="0.65937507"
         id="stop5029" />
      <stop
         id="stop5031"
         offset="0.89655095"
         style="stop-color:#e1e1e1;stop-opacity:1;" />
      <stop
         id="stop5033"
         offset="1"
         style="stop-color:#aaaaaa;stop-opacity:1;" />
    </linearGradient>
    <linearGradient
       id="linearGradient4042-71">
      <stop
         style="stop-color:#3a3a3a;stop-opacity:1;"
         offset="0"
         id="stop4044-1" />
      <stop
         id="stop4050-5"
         offset="0.65937507"
         style="stop-color:#131313;stop-opacity:1;" />
      <stop
         style="stop-color:#505050;stop-opacity:1;"
         offset="0.89655095"
         id="stop4064-2" />
      <stop
         style="stop-color:#000000;stop-opacity:1;"
         offset="1"
         id="stop4046-7" />
    </linearGradient>
    <linearGradient
       id="linearGradient5025-1">
      <stop
         id="stop5027-4"
         offset="0"
         style="stop-color:#ffffff;stop-opacity:1;" />
      <stop
         style="stop-color:#9e9e9e;stop-opacity:1;"
         offset="0.65937507"
         id="stop5029-2" />
      <stop
         id="stop5031-3"
         offset="0.89655095"
         style="stop-color:#e1e1e1;stop-opacity:1;" />
      <stop
         id="stop5033-2"
         offset="1"
         style="stop-color:#aaaaaa;stop-opacity:1;" />
    </linearGradient>
  </defs>
  <sodipodi:namedview
     pagecolor="#ffffff"
     bordercolor="#666666"
     borderopacity="1"
     objecttolerance="10"
     gridtolerance="10"
     guidetolerance="10"
     inkscape:pageopacity="0"
     inkscape:pageshadow="2"
     inkscape:window-width="1920"
     inkscape:window-height="1018"
     id="namedview47"
     showgrid="false"
     inkscape:zoom="2.8284271"
     inkscape:cx="173.38177"
     inkscape:cy="125.22821"
     inkscape:window-x="1912"
     inkscape:window-y="-8"
     inkscape:window-maximized="1"
     inkscape:current-layer="svg2"
     inkscape:snap-bbox="true"
     fit-margin-top="0"
     fit-margin-left="0"
     fit-margin-right="0"
     fit-margin-bottom="0"
     units="px"
     showguides="true"
     inkscape:guide-bbox="true"
     borderlayer="true" />
  <title
     id="title3003">remember-me-active</title>
  <path
     style="fill:#000000;fill-opacity:1"
     d="M 30.5,1.84375 C 14.718164,1.84375 1.9375,13.784286 1.9375,28.5 1.9375,43.215714 14.718164,55.15625 30.5,55.15625 46.281835,55.15625 59.0625,43.215714 59.0625,28.5 59.0625,13.784286 46.281835,1.84375 30.5,1.84375 z m 42.40625,4.3125 C 71.629689,6.3000803 70.296341,7.2312936 69.3125,8.875 c -1.092861,1.825848 -2.545868,4.366742 -3.71875,6.4375 0.922426,2.630981 1.501432,5.396117 1.75,8.25 1.733049,0.07065 2.757546,-1.185425 5.84375,-6.53125 C 77.076609,10.294655 77.16777,10.06726 76.25,8.25 75.584007,6.931284 74.553909,6.225618 73.4375,6.15625 c -0.179423,-0.011148 -0.348884,-0.020547 -0.53125,0 z M 30.5,11.09375 c 0.416197,-7.8e-5 0.828031,0.04348 1.65625,0.125 2.729079,0.268626 4.588588,0.75357 6.6875,1.75 0.874021,0.414931 2.445963,1.275963 2.65625,1.46875 0.06363,0.05833 0.357655,0.295191 0.65625,0.5 0.807497,0.553884 2.444058,2.104145 3.21875,3.0625 0.904225,1.118622 1.699599,2.388962 2.21875,3.5 0.41186,0.881448 0.46875,1.0396 0.46875,1.125 0,0.04941 0.08336,0.19756 0.15625,0.34375 0.179102,0.359162 0.563109,1.796086 0.71875,2.625 0.405544,2.159736 0.294642,5.068266 -0.28125,7.09375 -0.07914,0.278358 -0.17049,0.658178 -0.21875,0.84375 -0.04825,0.185573 -0.14584,0.44756 -0.21875,0.59375 -0.0729,0.14619 -0.15625,0.29434 -0.15625,0.34375 0,0.116825 -0.172113,0.512655 -0.8125,1.75 -1.439274,2.780929 -3.820331,5.24563 -6.75,7 -1.310455,0.784741 -3.845778,1.844887 -5.125,2.125 -1.378008,0.301745 -1.784077,0.36629 -2.375,0.4375 -2.277337,0.274437 -5.148309,0.120414 -6.9375,-0.375 -0.242102,-0.06704 -0.51488,-0.125 -0.59375,-0.125 -0.121065,0 -1.258835,-0.360524 -1.875,-0.59375 -0.63499,-0.240348 -2.261416,-1.021299 -2.875,-1.375 -1.780799,-1.026543 -3.800304,-2.707038 -4.9375,-4.125 -0.302061,-0.376637 -0.61575,-0.76203 -0.6875,-0.84375 -0.07175,-0.08172 -0.125,-0.16888 -0.125,-0.1875 0,-0.01862 -0.167132,-0.221137 -0.34375,-0.46875 -0.424314,-0.594878 -1.65625,-2.999593 -1.65625,-3.21875 0,-0.04941 -0.0521,-0.19756 -0.125,-0.34375 -0.0729,-0.14619 -0.17049,-0.408177 -0.21875,-0.59375 -0.04826,-0.185572 -0.16868,-0.565392 -0.25,-0.84375 -0.581151,-1.989158 -0.696701,-4.870506 -0.28125,-7.125 0.135239,-0.733896 0.53669,-2.197601 0.6875,-2.5 0.04627,-0.09279 0.173745,-0.417195 0.28125,-0.71875 0.107506,-0.301556 0.24779,-0.634017 0.3125,-0.75 0.06471,-0.115983 0.228699,-0.393034 0.34375,-0.625 0.362113,-0.730089 1.262862,-2.095627 1.96875,-2.96875 0.853597,-1.055824 2.487935,-2.596449 3.375,-3.1875 0.139256,-0.09279 0.32957,-0.2584 0.4375,-0.34375 0.756554,-0.598266 3.089428,-1.752117 4.53125,-2.25 1.710361,-0.590623 2.653684,-0.781804 4.8125,-1 0.809564,-0.08183 1.240053,-0.124922 1.65625,-0.125 z m -0.46875,2.875 c -0.602047,0.0076 -1.580482,0.08573 -1.90625,0.1875 -0.149288,0.04664 -0.564265,0.18143 -0.9375,0.28125 -0.373235,0.09983 -0.73148,0.21536 -0.78125,0.25 -0.04977,0.03464 -0.188092,0.06086 -0.3125,0.09375 -0.783475,0.207142 -2.948122,1.331507 -4.34375,2.25 -1.114507,0.733483 -2.8125,2.220561 -2.8125,2.46875 0,0.21634 0.121964,0.304696 1.3125,0.84375 0.497647,0.225326 0.96987,0.45176 1.0625,0.5 0.293777,0.153007 1.54727,0.522975 2.4375,0.71875 2.114676,0.465054 3.551949,0.079 4.78125,-1.28125 0.368891,-0.408189 0.87459,-1.237553 1.15625,-1.875 0.515398,-1.166443 0.98394,-2.921328 1.03125,-3.84375 0.02512,-0.489623 0.01648,-0.52312 -0.25,-0.59375 -0.07503,-0.01989 -0.236818,-0.0025 -0.4375,0 z M 36.21875,15 C 36.130236,14.9853 36.04534,14.99967 36,15.03125 c -0.188761,0.131486 -0.457724,1.158321 -0.6875,2.5625 -0.544917,3.33 0.155839,5.231789 2.28125,6.1875 0.852504,0.383333 1.231793,0.468454 2.4375,0.625 1.07625,0.13974 2.25711,0.172787 3.59375,0.0625 1.09214,-0.09011 1.20945,-0.170319 1.125,-0.53125 -0.40403,-1.726743 -1.725152,-3.701836 -3.8125,-5.65625 -1.273879,-1.192758 -1.884373,-1.645384 -3,-2.34375 C 36.969161,15.331335 36.484292,15.04411 36.21875,15 z M 31.5,22.75 c -1.399173,0 -1.868931,1.804649 -0.625,2.40625 0.396714,0.191859 1.096337,0.142059 1.4375,-0.09375 0.387599,-0.267896 0.67096,-0.762118 0.625,-1.125 C 32.85534,23.28889 32.188975,22.75 31.5,22.75 z m 58.15625,0.40625 c -0.97001,0.07599 -5.07262,2.235788 -10.90625,5.78125 -3.18189,1.933827 -3.38385,5.41751 -0.40625,6.96875 1.47117,0.76644 2.47354,0.440636 7.625,-2.53125 6.20221,-3.578072 6.69227,-3.904232 7.1875,-4.875 1.31161,-2.571064 -0.6557,-5.566573 -3.5,-5.34375 z m -73.5,1 c -0.330623,0.09783 -0.66555,1.694763 -0.65625,3.15625 0.0147,2.321482 0.612787,5.005771 1.65625,7.21875 0.202984,0.430487 0.74366,1.389268 0.90625,1.625 0.178817,0.259259 0.477931,0.115449 1.28125,-0.65625 1.625503,-1.561519 2.539313,-2.788927 3.03125,-4.09375 0.22979,-0.6095 0.24217,-1.943651 0.03125,-2.4375 C 21.970152,27.94766 21.360911,27.178288 20.25,26.34375 20.005667,26.160202 19.7204,25.95481 19.625,25.875 19.055597,25.39865 16.406017,24.08235 16.15625,24.15625 z m 9.5,2.25 c -0.08778,-0.0014 -0.19058,0.01188 -0.28125,0.03125 -0.12089,0.02582 -0.24886,0.09577 -0.375,0.15625 -0.998448,0.47875 -1.082707,1.627464 -0.15625,2.1875 0.43071,0.260352 0.916917,0.299515 1.34375,0.09375 0.357147,-0.172179 0.471557,-0.260792 0.65625,-0.59375 0.306444,-0.552435 0.133277,-1.187889 -0.4375,-1.59375 -0.248639,-0.176794 -0.48666,-0.27705 -0.75,-0.28125 z m 9.8125,1.78125 c -0.297704,0.0069 -0.595426,0.09565 -0.8125,0.25 -0.44624,0.317301 -0.67228,0.873684 -0.53125,1.3125 0.133619,0.415791 0.376403,0.728238 0.75,0.90625 0.383255,0.182606 1.076031,0.117153 1.40625,-0.125 0.771806,-0.565974 0.752329,-1.550391 -0.03125,-2.125 -0.197324,-0.1447 -0.483546,-0.22565 -0.78125,-0.21875 z m 31.875,1.375 C 65.643474,48.282086 48.575635,63 27.75,63 27.359529,63 26.981514,62.979019 26.59375,62.96875 30.350072,69.660969 36.986193,74.844244 45.625,76.34375 47.623252,76.690614 51.972523,76.713132 54,76.375 74.129796,73.017862 83.483118,49.777126 71.1875,33.65625 70.018973,32.124186 68.732136,30.760746 67.34375,29.5625 z m -22.125,0.21875 c -1.032524,0.0037 -2.785637,0.11788 -3.46875,0.25 -2.771485,0.536038 -4.021912,1.451 -4.5,3.375 -0.360328,1.450069 0.04271,4.035479 0.96875,6.3125 0.127428,0.313344 0.555899,0.223556 1.40625,-0.28125 0.346717,-0.205822 1.38303,-1.030634 1.65625,-1.3125 0.11515,-0.118793 0.383034,-0.384981 0.59375,-0.59375 1.5868,-1.572078 3.561673,-4.840631 4.09375,-6.75 0.250179,-0.89779 0.246619,-0.90373 -0.03125,-0.96875 -0.11405,-0.02665 -0.374575,-0.03245 -0.71875,-0.03125 z M 29.625,31.625 c -0.292827,-0.02118 -0.58442,0.05377 -0.875,0.25 -0.345707,0.233459 -0.6875,0.730532 -0.6875,1.0625 0,0.273514 0.402907,0.861301 0.6875,1.03125 0.392561,0.234413 1.128964,0.263032 1.53125,0.03125 0.162319,-0.09352 0.3789,-0.326758 0.46875,-0.5 0.472689,-0.911372 -0.246519,-1.81146 -1.125,-1.875 z M 27,36.125 c -0.664547,0.04196 -0.99194,0.193647 -1.90625,0.59375 -1.722362,0.753712 -4.0625,2.374296 -4.0625,2.8125 0,0.217881 0.950586,0.919912 1.8125,1.34375 1.560975,0.7676 3.668314,1.366186 5.6875,1.625 0.373235,0.04784 0.913794,0.11918 1.1875,0.15625 1.224824,0.165903 3.814167,0.07199 4.09375,-0.15625 0.104872,-0.08562 -0.493058,-1.571091 -1.03125,-2.5625 -0.914675,-1.684962 -2.170485,-3.075843 -3.21875,-3.5625 -0.514484,-0.23885 -0.571268,-0.25 -1.75,-0.25 -0.329993,0 -0.590984,-0.01399 -0.8125,0 z m -0.875,0.4375 c 0.02363,0.0059 0.01394,0.04147 0,0.0625 -0.02789,0.04207 -0.11579,0.0625 -0.1875,0.0625 -0.187284,0 -0.148769,-0.04225 0.0625,-0.09375 0.0498,-0.01214 0.10137,-0.03715 0.125,-0.03125 z m -1.21875,0.5 c 0.0067,0.0041 -0.0422,0.0319 -0.125,0.09375 -0.0966,0.07215 -0.20144,0.125 -0.25,0.125 -0.11495,0 -0.08945,-0.03328 0.1875,-0.15625 0.10665,-0.04735 0.1808,-0.0666 0.1875,-0.0625 z m 12.9375,0.90625 c 0.0068,-4.9e-4 0.04446,0.02208 0.09375,0.09375 0.057,0.08294 0.08698,0.19376 0.0625,0.25 -0.03212,0.07381 -0.0574,0.07112 -0.0625,0 -0.0039,-0.0542 -0.03387,-0.16502 -0.0625,-0.25 -0.02475,-0.07344 -0.03805,-0.09326 -0.03125,-0.09375 z M 90.0625,46.125 c -3.422587,0.04331 -6.84155,0.262056 -7.375,0.59375 -2.58483,1.607212 -2.38641,5.242435 0.34375,6.5 1.2398,0.571077 13.99118,0.46411 14.875,-0.125 2.64864,-1.765458 2.44625,-5.111566 -0.375,-6.5625 C 96.91459,46.214109 93.485087,46.081694 90.0625,46.125 z M 79.96875,63.5625 c -3.37709,0 -4.97714,3.987508 -2.53125,6.3125 0.52407,0.498167 9.3735,5.710958 10.875,6.40625 3.26255,1.510782 6.56078,-2.035017 4.75,-5.125 C 92.48532,70.171334 92.32659,70.056874 86,66.40625 81.48083,63.798565 80.9943,63.5625 79.96875,63.5625 z m -61.4375,0.09375 -4.6875,2.71875 c -2.580041,1.488676 -5.147438,3.022596 -5.71875,3.40625 -2.574804,1.729066 -2.496254,5.019208 0.15625,6.4375 1.665143,0.890348 2.17924,0.706217 7.9375,-2.59375 2.776018,-1.590891 5.33389,-3.079667 5.6875,-3.34375 3.013131,-2.250244 1.719016,-6.625 -1.96875,-6.625 z m 48.5,12.53125 c -0.822844,0.04539 -1.631047,0.443522 -2.375,1.1875 -1.779236,1.779297 -1.582376,2.719823 1.78125,8.5625 4.013143,6.970894 4.098936,7.10798 5.84375,7.53125 2.227152,0.54029 4.52811,-1.4903 4.34375,-3.84375 -0.07599,-0.970042 -2.235909,-5.072414 -5.78125,-10.90625 -1.062467,-1.748281 -2.441093,-2.606901 -3.8125,-2.53125 z m -34.625,0.03125 c -0.878538,0.04387 -1.773465,0.423132 -2.5,1.1875 -0.49815,0.524089 -5.710978,9.373452 -6.40625,10.875 -0.959959,2.073182 0.405112,4.87221 2.5625,5.25 1.772543,0.3104 3.201486,-0.53579 4.46875,-2.65625 4.548801,-7.611313 5.6875,-9.822137 5.6875,-10.9375 0,-2.321825 -1.879716,-3.815275 -3.8125,-3.71875 z M 49.5,80.84375 c -1.278712,0.123812 -2.463857,0.939829 -3,2.34375 -0.522447,1.368055 -0.36371,13.86049 0.1875,14.6875 0.504258,0.75657 1.019598,1.21971 1.75,1.5625 1.754162,0.82326 3.827848,-0.02278 4.8125,-1.9375 0.63426,-1.23337 0.475864,-13.745563 -0.1875,-14.8125 -0.719455,-1.157153 -1.852907,-1.779343 -3,-1.84375 -0.184354,-0.01035 -0.379827,-0.01769 -0.5625,0 z"
     id="path3025"
     inkscape:connector-curvature="0"
     sodipodi:nodetypes="sssssssccsssssssccssscssccssssscsssssssssscscssssssssscccscssscssscccccssssssscssccsssssssscsssssssscccccsccssccssscscsssccsscsscsccssscscssssssccssssccsscccsccccccccssssssssssssccssssscssssssssssssssssssssss" />
</svg>
