<?xml version="1.0" encoding="UTF-8" standalone="no"?>
<svg
   xmlns:dc="http://purl.org/dc/elements/1.1/"
   xmlns:cc="http://creativecommons.org/ns#"
   xmlns:rdf="http://www.w3.org/1999/02/22-rdf-syntax-ns#"
   xmlns:svg="http://www.w3.org/2000/svg"
   xmlns="http://www.w3.org/2000/svg"
   xmlns:sodipodi="http://sodipodi.sourceforge.net/DTD/sodipodi-0.dtd"
   xmlns:inkscape="http://www.inkscape.org/namespaces/inkscape"
   version="1.1"
   viewBox="0 0 100 100"
   id="svg2"
   inkscape:version="0.48.4 r9939"
   width="100%"
   height="100%"
   sodipodi:docname="remember-right-active.svg">
  <metadata
     id="metadata51">
    <rdf:RDF>
      <cc:Work
         rdf:about="">
        <dc:format>image/svg+xml</dc:format>
        <dc:type
           rdf:resource="http://purl.org/dc/dcmitype/StillImage" />
        <dc:title>remember-me-active</dc:title>
      </cc:Work>
    </rdf:RDF>
  </metadata>
  <defs
     id="defs49" />
  <sodipodi:namedview
     pagecolor="#ffffff"
     bordercolor="#666666"
     borderopacity="1"
     objecttolerance="10"
     gridtolerance="10"
     guidetolerance="10"
     inkscape:pageopacity="0"
     inkscape:pageshadow="2"
     inkscape:window-width="1920"
     inkscape:window-height="1058"
     id="namedview47"
     showgrid="false"
     inkscape:zoom="5.6568543"
     inkscape:cx="29.402641"
     inkscape:cy="44.105354"
     inkscape:window-x="-8"
     inkscape:window-y="-8"
     inkscape:window-maximized="1"
     inkscape:current-layer="g3023"
     inkscape:snap-bbox="true"
     fit-margin-top="0"
     fit-margin-left="0"
     fit-margin-right="0"
     fit-margin-bottom="0"
     units="px"
     showguides="true"
     inkscape:guide-bbox="true" />
  <title
     id="title3003">remember-me-active</title>
  <g
     id="g3023"
     transform="matrix(0.19545769,0,0,0.1954644,8.2313352,31.412013)">
    <path
       style="fill:#000000;fill-opacity:1"
       d="m 206.11546,348.69263 c -3.73688,-1.75372 -6.42053,-4.1432 -9.00041,-8.01381 -2.8201,-4.23102 -3.65805,-68.17808 -0.98511,-75.17708 5.57311,-14.59299 25.25159,-16.0865 33.66502,-2.55503 3.3939,5.45847 4.20566,69.61682 0.96066,75.92673 -5.03767,9.79576 -15.66552,14.031 -24.64016,9.81919 z M 91.615463,318.49975 c -11.03762,-1.9328 -18.01521,-16.21448 -13.10387,-26.82093 3.55715,-7.68195 30.270897,-53.02261 32.819527,-55.70386 11.89471,-12.51367 32.28434,-4.34707 32.28434,12.93076 0,5.70622 -5.92835,17.07911 -29.20091,56.01874 -6.48357,10.84831 -13.73041,15.1633 -22.799087,13.57529 z m 236.499997,-0.2586 c -8.92681,-2.16548 -9.46681,-2.85891 -29.99884,-38.52215 -17.20897,-29.89126 -18.24051,-34.85346 -9.13759,-43.95638 10.14989,-10.14989 23.03174,-7.30595 31.729,7.00484 18.13866,29.84603 29.27083,50.76082 29.65961,55.7236 0.94321,12.04028 -10.85761,22.51419 -22.25218,19.75009 z M 0.615463,229.93134 c -13.570733,-7.25601 -13.987647,-24.14296 -0.814446,-32.9889 2.922945,-1.96278 16.114446,-9.80006 29.314446,-17.41616 l 24,-13.84746 7.15718,0 c 18.86734,0 25.54794,22.28233 10.13217,33.79463 -1.80914,1.35105 -14.909701,9.11566 -29.112353,17.25469 -29.460393,16.8827 -32.157802,17.75824 -40.676997,13.2032 z m 190.999997,0.70188 C 89.299723,212.87407 42.110411,94.25247 104.71128,12.17882 c 54.87604,-71.94591 162.93232,-71.94591 217.80836,0 62.9068,82.47474 15.08381,201.37236 -87.90418,218.54755 -10.37297,1.72989 -32.77655,1.68135 -43,-0.0931 z m 43.96162,-38.99494 c 45.29597,-10.41723 76.50447,-49.76597 76.50447,-96.45946 0,-76.92404 -81.57706,-123.49154 -148.87737,-84.98525 -40.97678,23.44512 -59.45044,77.25853 -41.58922,121.14864 13.96862,34.32491 42.8953,56.68652 80.5005,62.23046 6.07535,0.89566 26.21964,-0.26887 33.46162,-1.93439 z m 174.53838,38.64441 c -7.68195,-3.55715 -53.02261,-30.2709 -55.70386,-32.81953 -12.51367,-11.89471 -4.34707,-32.28434 12.93076,-32.28434 5.24695,0 7.73082,1.16813 30.85178,14.5091 32.36812,18.67667 33.17885,19.22101 36.13181,24.25986 9.26435,15.80842 -7.51865,34.0641 -24.21049,26.33491 z M -29.884537,112.5464 c -14.597212,-7.81048 -15.600653,-24.80276 -2,-33.86799 4.231018,-2.8201 68.178083,-3.65805 75.17708,-0.98511 14.59299,5.57311 16.0865,25.25159 2.555027,33.66502 -3.694351,2.29702 -4.08113,2.32289 -38.232107,2.55689 -30.06123,0.20598 -34.88598,0.0299 -37.5,-1.36881 z m 412.958627,-0.22151 c -13.96803,-6.43373 -14.9152,-25.10304 -1.69074,-33.32557 5.45847,-3.3939 69.61682,-4.20566 75.92673,-0.96066 14.43406,7.42301 15.35635,24.60845 1.80538,33.64057 -4.52178,3.0139 -69.69829,3.5673 -76.04137,0.64566 z M 50.363517,22.6862 C 43.358913,19.0878 5.925167,-2.58312 0.072005,-6.42825 c -20.285038,-13.32591 -4.88455,-43.60321 17.043458,-33.50737 7.558767,3.48011 53.00145,30.26346 55.70386,32.83115 16.25324,15.44297 -2.34823,40.12034 -22.455806,29.79067 z m 308.751943,1.02972 c -15.23395,-7.93618 -14.1905,-25.73617 2.08864,-35.62967 29.84603,-18.13866 50.76082,-29.27083 55.7236,-29.65961 14.55198,-1.13997 24.58537,14.23175 17.87489,27.38537 -2.5337,4.96647 -4.9554,6.61121 -36.68713,24.9167 -26.35585,15.20423 -31.47318,16.90833 -39,12.98721 z M 121.33847,-39.86631 c -8.21571,-1.41129 -9.79317,-3.46837 -31.240637,-40.73939 -14.73088,-25.59904 -15.71066,-28.84455 -11.23489,-37.21548 6.53839,-12.22859 23.523297,-13.99217 31.412927,-3.26167 3.05182,4.15072 30.64469,52.077547 32.26822,56.047584 5.37195,13.136076 -6.84459,27.635876 -21.20562,25.168956 z m 178.27699,0.02829 c -13.55957,-2.37432 -19.87114,-15.48545 -13.53106,-28.108265 2.56765,-5.112076 18.15469,-32.303525 26.72443,-46.620535 10.22684,-17.08543 27.76839,-18.70634 35.55663,-3.28559 4.69551,9.29714 4.25451,10.56667 -15.64295,45.03123 -17.62846,30.53441 -22.03283,34.9223 -33.10705,32.98316 z M 207.66263,-64.1261 c -4.65948,-1.485415 -10.67927,-7.708013 -11.97666,-12.380147 -2.09097,-7.529949 -1.39092,-67.771703 0.83791,-72.104773 7.37549,-14.33872 24.59053,-15.21513 33.59199,-1.71016 2.38349,3.57597 3.69572,66.397804 1.53955,73.704934 -2.99031,10.134012 -13.77408,15.747816 -23.99279,12.490146 z"
       id="path3025"
       inkscape:connector-curvature="0" />
  </g>
</svg>
