<?xml version="1.0" encoding="UTF-8" standalone="no"?>
<!-- Created with Inkscape (http://www.inkscape.org/) -->

<svg
   xmlns:dc="http://purl.org/dc/elements/1.1/"
   xmlns:cc="http://creativecommons.org/ns#"
   xmlns:rdf="http://www.w3.org/1999/02/22-rdf-syntax-ns#"
   xmlns:svg="http://www.w3.org/2000/svg"
   xmlns="http://www.w3.org/2000/svg"
   xmlns:sodipodi="http://sodipodi.sourceforge.net/DTD/sodipodi-0.dtd"
   xmlns:inkscape="http://www.inkscape.org/namespaces/inkscape"
   id="svg2"
   version="1.1"
   inkscape:version="0.48.4 r9939"
   width="100"
   height="100"
   sodipodi:docname="duration.svg">
  <metadata
     id="metadata8">
    <rdf:RDF>
      <cc:Work
         rdf:about="">
        <dc:format>image/svg+xml</dc:format>
        <dc:type
           rdf:resource="http://purl.org/dc/dcmitype/StillImage" />
        <dc:title></dc:title>
      </cc:Work>
    </rdf:RDF>
  </metadata>
  <defs
     id="defs6" />
  <sodipodi:namedview
     pagecolor="#ffffff"
     bordercolor="#666666"
     borderopacity="1"
     objecttolerance="10"
     gridtolerance="10"
     guidetolerance="10"
     inkscape:pageopacity="0"
     inkscape:pageshadow="2"
     inkscape:window-width="2479"
     inkscape:window-height="1410"
     id="namedview4"
     showgrid="false"
     inkscape:zoom="1.84375"
     inkscape:cx="116.265"
     inkscape:cy="87.447649"
     inkscape:window-x="81"
     inkscape:window-y="30"
     inkscape:window-maximized="1"
     inkscape:current-layer="svg2" />
  <path
     style="fill:#000000;fill-opacity:1"
     d="M 6.125 3.1875 C 4.3190253 3.1875 2.875 4.6315253 2.875 6.4375 L 2.875 68.5625 C 2.875 70.368475 4.3190253 71.8125 6.125 71.8125 L 9.78125 71.8125 C 11.587225 71.8125 13.0625 70.368475 13.0625 68.5625 L 13.0625 41.3125 L 70.125 41.3125 L 50.90625 52.40625 C 50.031119 52.911507 49.744743 54.031119 50.25 54.90625 L 51.6875 57.375 C 52.192757 58.250131 53.281119 58.567757 54.15625 58.0625 L 83.75 40.96875 C 85.33475 40.300681 86.4375 38.739612 86.4375 36.90625 C 86.4375 35.288215 85.573162 33.892951 84.28125 33.125 L 54.15625 15.75 C 53.281119 15.244743 52.192757 15.531119 51.6875 16.40625 L 50.25 18.90625 C 49.744743 19.781381 50.031119 20.900993 50.90625 21.40625 L 70.125 32.5 L 13.0625 32.5 L 13.0625 6.4375 C 13.0625 4.6315253 11.587225 3.1875 9.78125 3.1875 L 6.125 3.1875 z M 47.09375 62.875 C 37.429929 62.875 29.59375 70.711179 29.59375 80.375 C 29.59375 90.038821 37.429929 97.875 47.09375 97.875 C 56.757571 97.875 64.59375 90.038821 64.59375 80.375 C 64.59375 70.711179 56.757571 62.875 47.09375 62.875 z M 46.8125 68.28125 C 53.524223 68.28125 58.96875 73.725777 58.96875 80.4375 C 58.96875 87.149223 53.524223 92.59375 46.8125 92.59375 C 40.100777 92.59375 34.65625 87.149223 34.65625 80.4375 C 34.65625 73.725777 40.100777 68.28125 46.8125 68.28125 z M 46.78125 70.65625 C 45.660294 70.655408 44.751609 71.477933 44.75 72.53125 L 44.75 76.96875 C 44.75 83.249223 44.45286 82.785449 49.28125 84.0625 C 51.19413 84.568429 53.07149 84.9908 53.46875 85 C 54.93169 85.03369 55.9665 83.540076 55.40625 82.1875 C 55.04961 81.326486 54.46284 81.03161 51.4375 80.25 L 48.96875 79.625 L 48.90625 75.6875 L 48.84375 72.3125 L 48.84375 72.21875 C 48.843428 71.187497 47.732824 70.660379 46.78125 70.65625 z "
     id="path2993" />
  <path
     style="fill:#000000"
     d=""
     id="path3011"
     inkscape:connector-curvature="0" />
  <path
     style="fill:#000000"
     d=""
     id="path3009"
     inkscape:connector-curvature="0" />
  <path
     style="fill:#000000"
     d=""
     id="path2989"
     inkscape:connector-curvature="0" />
  <path
     style="fill:#000000"
     d=""
     id="path2987"
     inkscape:connector-curvature="0" />
  <path
     style="fill:#000000"
     d=""
     id="path3813"
     inkscape:connector-curvature="0" />
</svg>
