<?xml version="1.0" encoding="UTF-8" standalone="no"?>
<svg
   xmlns:dc="http://purl.org/dc/elements/1.1/"
   xmlns:cc="http://creativecommons.org/ns#"
   xmlns:rdf="http://www.w3.org/1999/02/22-rdf-syntax-ns#"
   xmlns:svg="http://www.w3.org/2000/svg"
   xmlns="http://www.w3.org/2000/svg"
   xmlns:xlink="http://www.w3.org/1999/xlink"
   xmlns:sodipodi="http://sodipodi.sourceforge.net/DTD/sodipodi-0.dtd"
   xmlns:inkscape="http://www.inkscape.org/namespaces/inkscape"
   version="1.1"
   viewBox="0 0 100 100"
   id="svg2"
   inkscape:version="0.48.4 r9939"
   width="100%"
   height="100%"
   sodipodi:docname="tire-pressure.svg">
  <metadata
     id="metadata51">
    <rdf:RDF>
      <cc:Work
         rdf:about="">
        <dc:format>image/svg+xml</dc:format>
        <dc:type
           rdf:resource="http://purl.org/dc/dcmitype/StillImage" />
        <dc:title>remember-me-active</dc:title>
      </cc:Work>
    </rdf:RDF>
  </metadata>
  <defs
     id="defs49">
    <radialGradient
       inkscape:collect="always"
       xlink:href="#linearGradient4042"
       id="radialGradient4048"
       cx="1071.6101"
       cy="314.9259"
       fx="1071.6101"
       fy="314.9259"
       r="293.73334"
       gradientTransform="matrix(1,0,0,1.0022845,0,-0.71943396)"
       gradientUnits="userSpaceOnUse" />
    <linearGradient
       id="linearGradient4042">
      <stop
         style="stop-color:#3a3a3a;stop-opacity:1;"
         offset="0"
         id="stop4044" />
      <stop
         id="stop4050"
         offset="0.65937507"
         style="stop-color:#131313;stop-opacity:1;" />
      <stop
         style="stop-color:#505050;stop-opacity:1;"
         offset="0.89655095"
         id="stop4064" />
      <stop
         style="stop-color:#000000;stop-opacity:1;"
         offset="1"
         id="stop4046" />
    </linearGradient>
    <radialGradient
       inkscape:collect="always"
       xlink:href="#linearGradient4042-7"
       id="radialGradient3819"
       gradientUnits="userSpaceOnUse"
       gradientTransform="matrix(1,0,0,1.0022845,-771.125,-15.156934)"
       cx="1071.6101"
       cy="314.9259"
       fx="1071.6101"
       fy="314.9259"
       r="293.73334" />
    <linearGradient
       id="linearGradient4042-7">
      <stop
         style="stop-color:#3a3a3a;stop-opacity:1;"
         offset="0"
         id="stop4044-4" />
      <stop
         id="stop4050-0"
         offset="0.65937507"
         style="stop-color:#131313;stop-opacity:1;" />
      <stop
         style="stop-color:#505050;stop-opacity:1;"
         offset="0.89655095"
         id="stop4064-9" />
      <stop
         style="stop-color:#000000;stop-opacity:1;"
         offset="1"
         id="stop4046-4" />
    </linearGradient>
    <linearGradient
       id="linearGradient4042-8">
      <stop
         style="stop-color:#3a3a3a;stop-opacity:1;"
         offset="0"
         id="stop4044-2" />
      <stop
         id="stop4050-4"
         offset="0.65937507"
         style="stop-color:#131313;stop-opacity:1;" />
      <stop
         style="stop-color:#505050;stop-opacity:1;"
         offset="0.89655095"
         id="stop4064-5" />
      <stop
         style="stop-color:#000000;stop-opacity:1;"
         offset="1"
         id="stop4046-5" />
    </linearGradient>
    <linearGradient
       id="linearGradient5025">
      <stop
         id="stop5027"
         offset="0"
         style="stop-color:#ffffff;stop-opacity:1;" />
      <stop
         style="stop-color:#9e9e9e;stop-opacity:1;"
         offset="0.65937507"
         id="stop5029" />
      <stop
         id="stop5031"
         offset="0.89655095"
         style="stop-color:#e1e1e1;stop-opacity:1;" />
      <stop
         id="stop5033"
         offset="1"
         style="stop-color:#aaaaaa;stop-opacity:1;" />
    </linearGradient>
    <linearGradient
       id="linearGradient4042-71">
      <stop
         style="stop-color:#3a3a3a;stop-opacity:1;"
         offset="0"
         id="stop4044-1" />
      <stop
         id="stop4050-5"
         offset="0.65937507"
         style="stop-color:#131313;stop-opacity:1;" />
      <stop
         style="stop-color:#505050;stop-opacity:1;"
         offset="0.89655095"
         id="stop4064-2" />
      <stop
         style="stop-color:#000000;stop-opacity:1;"
         offset="1"
         id="stop4046-7" />
    </linearGradient>
    <linearGradient
       id="linearGradient5025-1">
      <stop
         id="stop5027-4"
         offset="0"
         style="stop-color:#ffffff;stop-opacity:1;" />
      <stop
         style="stop-color:#9e9e9e;stop-opacity:1;"
         offset="0.65937507"
         id="stop5029-2" />
      <stop
         id="stop5031-3"
         offset="0.89655095"
         style="stop-color:#e1e1e1;stop-opacity:1;" />
      <stop
         id="stop5033-2"
         offset="1"
         style="stop-color:#aaaaaa;stop-opacity:1;" />
    </linearGradient>
  </defs>
  <sodipodi:namedview
     pagecolor="#ffffff"
     bordercolor="#666666"
     borderopacity="1"
     objecttolerance="10"
     gridtolerance="10"
     guidetolerance="10"
     inkscape:pageopacity="0"
     inkscape:pageshadow="2"
     inkscape:window-width="1920"
     inkscape:window-height="1018"
     id="namedview47"
     showgrid="false"
     inkscape:zoom="2"
     inkscape:cx="197.72975"
     inkscape:cy="9.1572338"
     inkscape:window-x="1912"
     inkscape:window-y="-8"
     inkscape:window-maximized="1"
     inkscape:current-layer="svg2"
     inkscape:snap-bbox="true"
     fit-margin-top="0"
     fit-margin-left="0"
     fit-margin-right="0"
     fit-margin-bottom="0"
     units="px"
     showguides="true"
     inkscape:guide-bbox="true"
     borderlayer="true" />
  <title
     id="title3003">remember-me-active</title>
  <path
     style="fill:#000000"
     d="m 48.037496,85.102624 c -2.030772,-1.597392 -5.007495,-5.743064 -6.614946,-9.212588 -2.820251,-6.087217 -3.037014,-6.244894 -6.186543,-4.500473 -7.435046,4.118021 -15.827226,0.868966 -19.139823,-7.410044 -1.5205,-3.8001 -2.958223,-5.402254 -4.847812,-5.402254 -2.302073,0 -2.6862647,-0.883508 -2.6862647,-6.177554 0,-4.956407 -0.7932916,-7.081046 -4.0131444,-10.748257 -7.2504944,-8.257848 -4.73807877,-19.995011 5.4025485,-25.238933 12.1688436,-6.292758 26.3607806,5.789349 22.7129526,19.33636 -0.784142,2.912044 -2.916125,6.467008 -4.737744,7.899888 -2.667792,2.098486 -3.312035,3.803778 -3.312035,8.766874 0,5.269807 -0.387228,6.161622 -2.67543,6.161622 -3.113384,0 -3.155495,0.158211 -1.190205,4.471539 3.310109,7.264888 12.75067,6.587135 17.8748,-1.283257 3.402143,-5.225515 6.077144,-7.108335 10.170953,-7.158887 3.823202,-0.04722 9.262752,4.888277 9.262752,8.404393 0,3.089908 -3.004641,2.839153 -5.040416,-0.420644 -0.918956,-1.471486 -2.537377,-2.67543 -3.596473,-2.67543 -1.550251,0 -1.658204,0.76722 -0.553733,3.93549 1.870473,5.365628 4.462549,7.2357 8.592543,6.199145 10.055014,-2.523653 9.664989,-32.558373 -0.455773,-35.09852 -4.332483,-1.087388 -7.985181,3.063595 -9.159815,10.409361 -0.456495,2.85479 -1.574838,5.190521 -2.485193,5.190521 -0.910355,0 -3.241309,1.247633 -5.179886,2.772521 l -3.524691,2.772521 0.01592,-5.78238 c 0.03211,-11.704536 5.247788,-25.487413 11.508374,-30.411982 3.158599,-2.484565 5.34805,-2.79355 19.794794,-2.79355 12.588458,0 16.917397,0.472093 19.238841,2.098098 3.40752,2.386711 2.780935,4.590476 -1.305182,4.590476 -2.301913,0 -2.483735,0.333211 -1.094973,2.006572 0.91592,1.103615 3.412417,2.006572 5.547771,2.006572 2.936685,0 4.20025,0.835885 5.187056,3.431372 1.934014,5.086942 1.643262,5.932632 -2.039721,5.932632 -2.080896,0 -3.344287,0.758043 -3.344287,2.006572 0,1.319682 1.320378,2.006572 3.857127,2.006572 2.869171,0 4.063723,0.770939 4.663728,3.009858 1.442924,5.384236 0.959048,6.354146 -3.169996,6.354146 -2.675429,0 -4.013144,0.668857 -4.013144,2.006572 0,1.337715 1.337715,2.006572 4.013144,2.006572 4.129044,0 4.61292,0.96991 3.169996,6.354145 -0.600005,2.23892 -1.794557,3.009859 -4.663728,3.009859 -2.536749,0 -3.857127,0.68689 -3.857127,2.006572 0,1.248529 1.263391,2.006572 3.344287,2.006572 3.682983,0 3.973735,0.84569 2.039681,5.932632 -0.986806,2.595487 -2.250371,3.431372 -5.187056,3.431372 -2.135354,0 -4.611264,0.878156 -5.502035,1.951458 -1.338076,1.612281 -0.977816,2.112519 2.072789,2.878174 l 3.692347,0.926715 -3.053628,2.472686 c -2.598899,2.104452 -5.494824,2.472685 -19.44648,2.472685 -14.797975,0 -16.752056,-0.282565 -20.085119,-2.904366 z m 28.736883,-3.748986 c 2.803609,-1.772499 -0.06876,-4.409763 -4.16844,-3.827202 -4.31195,0.61274 -5.139794,5.136919 -0.934889,5.109215 1.709359,-0.0107 4.005868,-0.58818 5.103329,-1.282013 z m 6.699757,-15.418942 c 0,-1.401417 -1.412038,-2.006572 -4.682002,-2.006572 -3.269963,0 -4.682001,0.605155 -4.682001,2.006572 0,1.401417 1.412038,2.006572 4.682001,2.006572 3.269964,0 4.682002,-0.605155 4.682002,-2.006572 z m 1.337715,-13.377148 c 0,-1.401417 -1.412038,-2.006572 -4.682002,-2.006572 -3.269963,0 -4.682002,0.605155 -4.682002,2.006572 0,1.401417 1.412039,2.006572 4.682002,2.006572 3.269964,0 4.682002,-0.605155 4.682002,-2.006572 z M 24.280256,38.124609 c 6.159642,-5.637786 1.599305,-17.003359 -6.822439,-17.003359 -8.8439936,0 -14.1515777,8.570806 -9.6048055,15.510041 4.1221685,6.291232 10.5471055,6.875292 16.4272445,1.493318 z m -6.688574,-3.843295 c -2.023293,-0.738967 -3.678715,-2.096052 -3.678715,-3.015731 0,-4.377364 4.048687,-3.635788 7.308016,1.338571 2.30416,3.516585 1.908116,3.699597 -3.629301,1.67716 z M 83.474136,39.1804 c 0,-1.401417 -1.412038,-2.006572 -4.682002,-2.006572 -3.269963,0 -4.682001,0.605155 -4.682001,2.006572 0,1.401417 1.412038,2.006572 4.682001,2.006572 3.269964,0 4.682002,-0.605155 4.682002,-2.006572 z M 78.123277,25.948274 c 0,-2.165948 -5.495573,-3.863147 -8.62299,-2.663029 -1.661629,0.637621 -1.799842,1.242188 -0.611362,2.674225 2.036818,2.454225 9.234352,2.44549 9.234352,-0.0107 z"
     id="path4807"
     inkscape:connector-curvature="0" />
</svg>
