<?xml version="1.0" encoding="UTF-8" standalone="no"?>
<svg
   xmlns:dc="http://purl.org/dc/elements/1.1/"
   xmlns:cc="http://creativecommons.org/ns#"
   xmlns:rdf="http://www.w3.org/1999/02/22-rdf-syntax-ns#"
   xmlns:svg="http://www.w3.org/2000/svg"
   xmlns="http://www.w3.org/2000/svg"
   xmlns:sodipodi="http://sodipodi.sourceforge.net/DTD/sodipodi-0.dtd"
   xmlns:inkscape="http://www.inkscape.org/namespaces/inkscape"
   version="1.1"
   viewBox="0 0 100 100"
   id="svg2"
   inkscape:version="0.48.4 r9939"
   width="100%"
   height="100%"
   sodipodi:docname="Rim.svg">
  <metadata
     id="metadata51">
    <rdf:RDF>
      <cc:Work
         rdf:about="">
        <dc:format>image/svg+xml</dc:format>
        <dc:type
           rdf:resource="http://purl.org/dc/dcmitype/StillImage" />
        <dc:title>remember-me-active</dc:title>
      </cc:Work>
    </rdf:RDF>
  </metadata>
  <defs
     id="defs49" />
  <sodipodi:namedview
     pagecolor="#ffffff"
     bordercolor="#666666"
     borderopacity="1"
     objecttolerance="10"
     gridtolerance="10"
     guidetolerance="10"
     inkscape:pageopacity="0"
     inkscape:pageshadow="2"
     inkscape:window-width="1920"
     inkscape:window-height="1018"
     id="namedview47"
     showgrid="false"
     inkscape:zoom="4"
     inkscape:cx="12.907893"
     inkscape:cy="10.834803"
     inkscape:window-x="1912"
     inkscape:window-y="-8"
     inkscape:window-maximized="1"
     inkscape:current-layer="svg2"
     inkscape:snap-bbox="true"
     fit-margin-top="0"
     fit-margin-left="0"
     fit-margin-right="0"
     fit-margin-bottom="0"
     units="px"
     showguides="true"
     inkscape:guide-bbox="true" />
  <title
     id="title3003">remember-me-active</title>
  <g
     id="g3023"
     transform="matrix(0.19545769,0,0,0.1954644,8.2313352,31.412013)" />
  <path
     style="fill:#000000"
     d="m 55.70832,99.405495 c 0.59849,-0.180441 1.422642,-0.267275 1.836708,-0.193517 1.37835,0.245523 0.998345,0.431856 -0.971879,0.476563 l -1.950455,0.04425 1.085626,-0.327303 z m -4.765303,-0.01767 c -2.511738,-0.312492 -2.453124,-0.29043 -2.453124,-0.923405 0,-0.562927 0.158334,-0.648339 2.216001,-1.195426 l 2.21599,-0.589185 1.259259,0.520596 1.259259,0.520596 -1.043899,0.160116 c -0.582518,0.08934 -1.112815,0.318756 -1.199841,0.519054 -0.230161,0.529716 -0.931781,1.137029 -1.273765,1.102534 -0.164146,-0.01651 -0.605097,-0.06825 -0.97988,-0.11488 z m -8.101752,-1.5074 C 41.908252,97.730093 40.9747,97.492543 40.76671,97.352546 c -0.208,-0.139997 -1.579999,-0.54718 -3.048897,-0.904848 -2.370395,-0.577176 -3.110605,-0.899746 -3.124765,-1.361704 -0.0081,-0.258284 3.411718,0.496245 6.68701,1.47546 1.80623,0.540016 3.611565,0.981843 4.011837,0.981843 0.534919,0 0.686198,0.08786 0.570873,0.331586 -0.181014,0.382575 -0.675977,0.383483 -3.021503,0.0056 z m 16.074387,0.048 c -0.487217,-0.125417 -0.885382,-0.288246 -0.884823,-0.361845 5.4e-4,-0.0736 0.562577,-0.321125 1.248917,-0.550064 1.103583,-0.368109 1.373953,-0.382506 2.337871,-0.124506 l 1.089972,0.291741 -0.907899,0.372754 c -1.346112,0.552661 -1.902937,0.624469 -2.884038,0.37192 z M 35.892995,97.277867 c -1.566592,-0.330382 -2.146504,-0.554692 -2.273587,-0.8794 -0.09386,-0.239742 -0.102793,-0.490867 -0.01995,-0.558055 0.156156,-0.126641 3.880307,1.042665 5.077959,1.594371 l 0.681424,0.313902 -0.681424,-0.01366 c -0.374783,-0.0076 -1.627771,-0.213227 -2.78442,-0.457159 z m 7.546831,-0.848495 c -1.353553,-0.422456 -1.369148,-0.43823 -1.269703,-1.283958 0.08907,-0.757341 0.209771,-0.883399 1.045029,-1.091302 0.84672,-0.210755 1.08364,-0.164827 2.291839,0.444291 1.492993,0.752699 1.467116,0.711093 1.048256,1.685559 -0.359931,0.837358 -1.045732,0.891383 -3.115421,0.24541 z M 29.20564,95.160754 c -1.403447,-0.574453 -1.976125,-0.92984 -1.976125,-1.226328 0,-0.240913 0.144092,-0.374398 0.340711,-0.315632 0.187391,0.056 1.150802,0.318636 2.140914,0.583618 1.300544,0.348064 1.882343,0.627988 2.096124,1.008524 0.236991,0.421835 0.213303,0.552447 -0.118938,0.655847 -0.228173,0.07101 -0.435495,0.123196 -0.460713,0.11597 -0.02522,-0.0073 -0.935105,-0.377126 -2.021973,-0.821999 z m 7.29122,-0.467598 c -1.408584,-0.298744 -1.788803,-0.470948 -1.855143,-0.840219 -0.06576,-0.365951 -0.60245,-0.616246 -2.530348,-1.180036 -2.36217,-0.690792 -3.519009,-1.385923 -3.519009,-2.114537 0,-0.485119 4.486613,0.954772 7.05101,2.262886 1.828911,0.932939 2.436715,1.138326 3.066396,1.036191 0.821658,-0.133275 0.882766,-0.05789 0.613556,0.756843 -0.190898,0.577703 -0.44147,0.584695 -2.826462,0.07887 z m 9.753589,-0.984869 -1.283721,-0.740203 0.749311,-0.582213 c 0.412122,-0.320217 1.115238,-0.64157 1.56249,-0.714115 0.685801,-0.111238 1.02183,0.01706 2.145293,0.819074 l 1.332104,0.950974 -1.337438,0.489778 c -0.7356,0.269376 -1.4605,0.49588 -1.610894,0.503343 -0.150383,0.0075 -0.851108,-0.319526 -1.557145,-0.726638 z m -16.976667,-0.06962 c -1.376691,-0.358624 -2.536168,-0.828018 -3.145194,-1.273276 -1.114257,-0.814632 -3.1786,-1.978248 -3.873456,-2.183366 -0.304774,-0.08996 -0.476996,-0.372359 -0.476996,-0.782127 l 0,-0.641317 2.044266,0.868757 c 1.124348,0.477816 2.044268,1.002753 2.044268,1.166524 0,0.163772 1.195896,0.79777 2.657547,1.408888 1.461651,0.611117 2.811906,1.316671 3.000567,1.567901 0.423376,0.563783 0.418897,0.56352 -2.251002,-0.131984 z m -7.610675,-1.73825 c -1.037699,-0.545166 -1.937598,-1.032469 -1.999774,-1.082894 -0.06218,-0.05042 0.20045,-0.258275 0.583613,-0.461887 0.690562,-0.366962 0.71463,-0.358148 2.749339,1.006832 1.128973,0.75737 2.052678,1.413393 2.052678,1.457829 0,0.04444 -0.337304,0.07865 -0.749564,0.07606 -0.417896,-0.0026 -1.584409,-0.443324 -2.636292,-0.995941 z M 36.942198,92.2341 c -1.096202,-0.56381 -1.267474,-0.743332 -1.107237,-1.160552 0.539947,-1.405926 0.573357,-1.427945 3.273449,-2.157482 l 2.646578,-0.715077 1.032885,0.907203 1.032885,0.907205 -1.333306,0.588534 c -0.750665,0.33135 -1.637931,0.961862 -2.030406,1.442845 -0.874755,1.07204 -1.708333,1.116466 -3.514848,0.187324 z m -5.692292,-1.958792 c -1.754349,-0.46415 -2.112408,-0.638366 -2.112408,-1.027792 0,-0.363525 -0.581936,-0.729606 -2.589406,-1.628934 -2.485721,-1.11358 -2.589405,-1.190242 -2.589405,-1.914572 l 0,-0.754544 1.430987,0.456989 c 3.616137,1.154819 4.22523,1.430724 5.519522,2.500201 0.749564,0.619365 1.685451,1.325026 2.079758,1.568137 0.523701,0.322891 0.670613,0.565633 0.545139,0.900706 l -0.171781,0.458691 -2.112406,-0.558882 z m 35.113692,0.195569 C 56.866159,89.077817 48.734641,81.883738 44.251712,70.90815 37.63883,54.717736 40.344531,34.449778 50.822888,21.684631 c 2.024491,-2.466308 5.391633,-5.450737 7.847242,-6.955304 2.279715,-1.396795 6.051059,-2.85482 8.551091,-3.305912 3.884745,-0.700938 8.910716,-0.182117 12.475974,1.287872 7.985176,3.292366 14.868388,11.736365 17.993591,22.073718 1.347842,4.458269 1.810098,7.508764 1.96492,12.966706 0.162182,5.717201 -0.126054,9.112287 -1.160293,13.666735 -3.372517,14.851527 -13.169236,26.324273 -24.520322,28.715274 -2.038469,0.429385 -5.835903,0.597596 -7.611493,0.337157 z M 73.243441,75.900721 C 84.649242,72.215209 91.385125,56.396816 87.727823,41.88594 86.263974,36.077932 83.363486,31.38883 79.322239,28.29699 76.014342,25.766221 72.170336,24.693899 68.376953,25.243697 c -8.778829,1.272374 -15.778506,10.053704 -17.45118,21.8931 -0.457309,3.236861 -0.195632,8.968988 0.548203,12.008698 2.236502,9.139543 7.641227,15.441555 14.647785,17.079606 1.825562,0.426791 5.284565,0.269241 7.12168,-0.32438 z M 65.32428,73.475354 c -4.283929,-1.150297 -8.310832,-4.697915 -10.444306,-9.201208 -0.403205,-0.851072 -0.921205,-1.921452 -1.151121,-2.378623 -0.229907,-0.457168 -0.337495,-0.89652 -0.239079,-0.976336 0.09844,-0.07982 0.178927,0.02164 0.178927,0.225474 0,0.203827 0.262818,0.543702 0.584046,0.755281 2.886592,1.901286 3.243928,2.405675 3.482945,4.916364 l 0.157835,1.657931 0.953983,-0.0621 c 1.423721,-0.09266 4.153751,-1.210667 5.604356,-2.295087 3.290622,-2.459963 5.749448,-6.924723 6.675864,-12.122081 0.421181,-2.362902 0.348621,-7.720746 -0.13486,-9.957785 C 70.167446,40.217981 68.635057,37.190502 66.402098,34.96735 64.98706,33.558529 63.576135,32.714028 61.48687,32.025365 l -1.495518,-0.492958 1.267922,-0.650557 c 1.146703,-0.588362 1.48941,-0.650556 3.584752,-0.650556 2.033714,0 2.513978,0.081 3.930065,0.66291 6.325888,2.599455 10.515624,10.21912 10.51423,19.12173 -8.15e-4,5.22469 -2.126268,11.032545 -5.578949,15.244602 -2.417893,2.949692 -5.722054,5.142622 -8.18265,5.430721 -1.967323,0.230346 -4.717163,-0.233187 -5.967505,-1.005924 l -1.120562,-0.692531 1.246922,0.95653 c 4.4784,3.435463 9.895146,3.336579 14.448031,-0.263756 10.591737,-8.375727 11.277416,-30.082672 1.227091,-38.846295 -1.71723,-1.497373 -3.2803,-2.357259 -5.143251,-2.829449 -1.443988,-0.365991 -0.497752,-0.413833 1.495528,-0.07561 6.48806,1.100899 11.636451,6.92086 13.764989,15.560521 0.750645,3.046808 0.669869,10.90187 -0.14283,13.891344 -2.2018,8.099142 -7.044661,14.088475 -12.820249,15.855223 -2.187111,0.669033 -5.204807,0.767255 -7.190606,0.234041 z M 62.108173,63.454777 c -1.643509,-0.491499 -3.263951,-2.417057 -3.256174,-3.869295 0.0071,-1.249476 1.035816,-2.591055 2.04652,-2.667859 1.151793,-0.08752 2.602877,0.626926 3.214427,1.582643 0.785022,1.226827 0.902484,3.387693 0.231037,4.250072 -0.610899,0.784609 -1.271617,0.992783 -2.23581,0.704439 z m -9.33314,-4.76565 c -1.215233,-5.183804 -1.186384,-9.527856 0.09284,-13.978565 0.679438,-2.363936 1.598383,-4.642207 1.872438,-4.642207 0.115193,0 0.695726,0.285687 1.290063,0.63486 1.184317,0.695783 2.490046,1.94929 3.195646,3.067852 0.438457,0.695065 0.43524,0.718438 -0.09895,0.718438 -0.303668,0 -0.552132,0.08787 -0.552132,0.195275 0,0.261622 0.983667,0.460433 2.31683,0.468264 1.572567,0.0092 2.075837,0.345593 0.771706,0.515757 -2.341138,0.305473 -4.723291,3.009507 -4.723738,5.362029 -5.4e-4,2.156149 1.122893,4.129793 2.831388,4.974712 l 0.848074,0.41941 -1.129255,8.85e-4 c -0.753047,4.41e-4 -1.181517,-0.109639 -1.286143,-0.330759 -0.185025,-0.391038 -2.489008,-0.470605 -2.774618,-0.09583 -0.29984,0.393469 0.127948,0.538731 1.536491,0.521737 1.232731,-0.01487 1.329662,0.02138 1.182047,0.442116 -0.368563,1.050465 -1.667798,2.212552 -3.268542,2.92351 l -1.65149,0.733499 -0.452667,-1.930933 z m 3.565899,-4.515575 c 0.172972,-0.740667 -2.425171,-1.395811 -3.162858,-0.797539 -0.485455,0.393719 -0.406584,0.569265 0.422485,0.940241 0.988868,0.442479 2.623592,0.35735 2.740373,-0.142702 z m -1.046719,-3.153171 c 0.451201,-0.440921 0.166477,-0.727542 -0.977131,-0.983631 -1.128502,-0.252708 -2.283797,0.01715 -2.283797,0.533486 0,0.690421 2.641854,1.055111 3.260928,0.450145 z m 0.787454,-3.066916 c 0.932433,-0.606722 -1.868336,-1.377597 -2.958105,-0.814178 -0.314265,0.162477 -0.339826,0.301167 -0.110489,0.599494 0.537748,0.699501 2.150149,0.812307 3.068594,0.214684 z m 2.427472,-2.1872 c -0.228756,-0.55656 -3.205021,-0.726937 -3.205021,-0.18347 0,0.261482 0.674043,0.396746 2.135123,0.428468 0.821027,0.01782 1.147222,-0.05688 1.069898,-0.244998 z m 7.158418,5.852342 c 0.133994,-1.146122 -0.277802,-3.067556 -0.971207,-4.531677 -0.152256,-0.321498 -0.02738,-0.386851 0.739295,-0.386851 2.333524,0 3.672826,2.372614 2.559328,4.533936 -0.321625,0.624291 -1.771955,1.651503 -2.336486,1.654845 -0.07675,4.42e-4 -0.07268,-0.571159 0.0092,-1.270253 z m -6.527831,-9.986915 c -0.28902,-0.234398 -0.609362,-0.87982 -0.711881,-1.434267 -0.247793,-1.340096 0.644369,-2.831246 2.298007,-3.840863 0.979778,-0.598195 1.350642,-0.704547 2.044271,-0.586234 1.280137,0.218359 2.346472,1.138894 2.346472,2.02563 0,0.763333 -0.952557,2.450683 -1.873914,3.319432 -1.038606,0.979297 -3.197153,1.250922 -4.102955,0.516302 z m -35.58588,47.127687 c -1.416394,-0.578127 -3.140403,-1.510881 -4.088534,-2.21205 -0.901684,-0.666818 -1.976731,-1.310311 -2.388991,-1.429977 -0.758386,-0.22014 -0.889188,-0.579109 -0.502871,-1.380064 0.202823,-0.420516 0.222094,-0.419041 0.72284,0.05526 0.282955,0.268013 0.789683,0.487297 1.126062,0.487297 0.33638,0 1.05184,0.170261 1.589912,0.378358 0.758957,0.293525 0.947639,0.479394 0.841507,0.828965 -0.113075,0.372445 0.253424,0.636584 2.112857,1.522754 3.251896,1.54979 3.510853,1.731592 3.253255,2.283951 -0.210849,0.452117 -0.285563,0.437138 -2.666037,-0.534498 z m -5.385865,-0.219348 c -0.764158,-0.06486 -1.192388,-0.269149 -1.703555,-0.81267 -0.760161,-0.808275 -0.848567,-1.234144 -0.342096,-1.647939 0.273339,-0.223321 0.232916,-0.247485 -0.204427,-0.122204 -0.426195,0.122087 -0.476785,0.09604 -0.231864,-0.119391 0.484287,-0.425974 1.284309,-0.09686 2.656373,1.092772 1.105807,0.95878 1.640275,1.840403 1.050745,1.733239 -0.112434,-0.02044 -0.663763,-0.07616 -1.225176,-0.123807 z M 32.643336,87.23231 c -0.803864,-0.443034 -1.496529,-0.82784 -1.539257,-0.855128 -0.04272,-0.02728 0.15678,-0.533703 0.443348,-1.125371 0.362936,-0.74935 0.717329,-1.120406 1.16796,-1.222887 1.434267,-0.326172 1.790584,-0.214122 2.624214,0.825221 l 0.815234,1.016412 -0.564511,1.083634 c -0.359004,0.689159 -0.732118,1.083634 -1.024955,1.083634 -0.253258,0 -1.118169,-0.362483 -1.922033,-0.805515 z m -6.095244,-2.484308 c -1.677649,-0.535776 -1.901136,-0.674201 -1.851263,-1.146651 0.0446,-0.422441 -0.287652,-0.745715 -1.554009,-1.512055 -0.911253,-0.551448 -1.646078,-1.175425 -1.692133,-1.436874 -0.05343,-0.303325 -0.31557,-0.4865 -0.762827,-0.533038 -0.374782,-0.03899 -0.834742,-0.232093 -1.022134,-0.429101 -0.4005,-0.421056 -0.450938,-1.297643 -0.08521,-1.480956 0.140524,-0.07043 1.416692,0.375124 2.83593,0.990129 2.17078,0.940678 2.739133,1.305075 3.580112,2.295375 0.777528,0.915584 1.244781,1.236738 2.102629,1.445183 1.078291,0.262009 1.099246,0.286158 0.937346,1.080238 -0.09109,0.446733 -0.166952,0.936586 -0.168601,1.088562 -0.004,0.364328 -0.09224,0.350598 -2.319837,-0.360812 z M 36.451001,83.84288 35.723718,82.536298 36.637237,81.9712 c 0.615867,-0.38097 1.2525,-0.563805 1.953845,-0.561125 0.947956,0.0037 1.120694,0.103635 1.945518,1.126435 0.497864,0.617356 0.865827,1.144746 0.817708,1.171982 -0.04815,0.02722 -0.639443,0.178158 -1.314056,0.335391 -0.674603,0.157232 -1.552127,0.473601 -1.950058,0.703036 -0.397921,0.229438 -0.765884,0.41387 -0.817708,0.409851 -0.05181,-0.004 -0.421487,-0.59527 -0.821485,-1.31389 z M 19.840047,83.339886 c -0.508137,-0.273814 -1.563265,-0.736727 -2.34473,-1.028692 -1.088728,-0.406762 -1.682646,-0.833537 -2.540876,-1.825805 -0.616017,-0.712227 -1.479173,-1.445581 -1.918125,-1.629673 -0.692682,-0.290504 -0.797543,-0.458051 -0.79392,-1.268531 0.0068,-1.523206 0.209523,-1.575549 2.254675,-0.582199 1.64299,0.798014 1.830276,0.960754 1.835465,1.594884 0.005,0.611986 0.286792,0.890429 2.11241,2.087376 1.158646,0.759653 2.339364,1.515115 2.623817,1.678801 0.385646,0.221915 0.470983,0.44692 0.335519,0.884649 -0.221213,0.714813 -0.385812,0.724199 -1.564235,0.08919 z m -9.34117,-1.270611 -0.7215098,-0.884229 0.7188548,-0.880978 0.718855,-0.880973 0.716818,0.494125 c 2.17646,1.500301 2.486879,1.801078 2.486879,2.409653 0,0.616934 -0.02475,0.626632 -1.599193,0.626632 -1.563761,0 -1.615179,-0.01959 -2.320704,-0.88423 z m 17.306654,-1.353824 -0.914377,-1.132768 0.489784,-1.311935 c 0.537655,-1.440163 0.546039,-1.445835 3.500872,-2.368613 l 2.055595,-0.641947 1.088119,1.530649 1.08812,1.53065 -1.064259,0.345356 c -0.834657,0.270852 -1.288179,0.650435 -2.102223,1.759504 -0.999447,1.361667 -1.078587,1.41429 -2.132609,1.418009 -1.018318,0.0036 -1.158402,-0.07512 -2.009022,-1.128905 z m -5.550399,-3.081051 -2.11241,-0.875856 0,-0.97693 c 0,-0.945769 -0.08711,-1.046163 -2.730794,-3.147394 l -2.730794,-2.17046 0.499768,-0.606167 0.499767,-0.606166 2.879809,1.520316 c 2.628383,1.387582 2.958247,1.63967 3.778258,2.887413 0.670449,1.020168 1.165545,1.477609 1.950946,1.802571 1.006236,0.416328 1.044376,0.471519 0.86774,1.255669 -0.188378,0.836285 -0.579811,1.823858 -0.714992,1.803909 -0.04119,-0.0061 -1.025473,-0.405185 -2.187298,-0.886905 z M 7.9002603,76.045459 C 7.6238176,75.528738 7.0783622,74.525524 6.6881389,73.816094 6.0122358,72.587299 6.0005231,72.502696 6.4407783,72.029339 c 0.7078131,-0.76103 1.6432129,-0.335389 3.0628255,1.3937 0.9944102,1.211194 1.1871432,1.613469 1.1239612,2.345959 -0.08499,0.985295 -0.353666,1.207613 -1.4654293,1.212572 -0.6342379,0.0028 -0.84201,-0.151308 -1.2618754,-0.936111 z M 14.146205,75.316604 C 11.731724,73.967098 11.518038,73.785547 10.983012,72.629105 10.63067,71.867529 10.068669,71.163461 9.5268184,70.804803 8.5823852,70.179665 8.5825308,70.183284 9.4090402,67.87093 9.52317,67.551626 9.8118945,67.660838 11.162284,68.534103 c 1.422004,0.919576 1.616882,1.139153 1.618845,1.824008 0.0019,0.680304 0.286357,1.007815 2.253162,2.594638 2.231531,1.8004 2.250088,1.824651 2.153106,2.813601 -0.0538,0.548649 -0.177466,0.997542 -0.274806,0.997537 -0.09734,-4e-6 -1.342213,-0.651282 -2.766386,-1.447283 z m 11.552466,-1.151786 c -0.399688,-0.05309 -0.839179,-0.512955 -1.430988,-1.497337 -0.469774,-0.781394 -0.854134,-1.493495 -0.854134,-1.582442 0,-0.08895 0.275365,-0.73766 0.611922,-1.441584 0.595286,-1.245068 0.651947,-1.289297 2.084405,-1.627024 1.755809,-0.413966 1.744359,-0.423157 2.207235,1.771458 0.356378,1.689669 0.121686,2.495817 -0.933339,3.205935 -0.234755,0.158007 -0.426827,0.463416 -0.426827,0.678686 0,0.442799 -0.41336,0.60453 -1.258274,0.492308 z m 3.989925,-5.198221 c -0.172577,-0.878704 -0.359872,-1.714696 -0.416216,-1.85776 -0.160752,-0.408185 1.644834,-1.397813 2.550326,-1.397813 1.391737,0 1.688228,0.178309 1.336747,0.803924 -0.245604,0.437184 -0.215269,0.671054 0.152572,1.176074 0.252525,0.346709 0.459141,0.933817 0.459141,1.30469 0,0.604237 -0.106214,0.690445 -1.022125,0.829547 -0.562179,0.08538 -1.41016,0.286577 -1.884405,0.447106 l -0.862266,0.291873 -0.313774,-1.597641 z m -10.81901,0.05283 c -1.92641,-1.073078 -1.950174,-1.09818 -1.650098,-1.742931 0.2934,-0.630408 0.223185,-0.726296 -1.932607,-2.639263 l -2.237068,-1.985087 0.8697,-0.55201 0.869701,-0.552013 1.518336,0.786972 c 0.835085,0.432835 1.771282,0.92105 2.080438,1.08492 0.309156,0.163871 0.836989,0.929446 1.172963,1.701277 0.513524,1.179716 0.76471,1.462827 1.576388,1.776739 0.53104,0.205379 0.909935,0.494832 0.841987,0.643228 -0.06795,0.148395 -0.286856,0.79206 -0.486463,1.430363 -0.199608,0.638303 -0.431727,1.155156 -0.515821,1.148561 -0.08409,-0.0066 -1.032449,-0.501933 -2.107456,-1.100754 z M 2.9746089,67.607699 2.6242662,65.946645 3.95599,64.536038 c 1.2889847,-1.365335 1.3505958,-1.399267 1.9197412,-1.057305 0.324629,0.19505 0.8017639,0.922559 1.0652103,1.624175 0.4747203,1.264284 0.47374,1.278038 -0.1892014,2.65269 l -0.6663963,1.381816 -1.3801961,0.06567 -1.3801971,0.06567 -0.3503417,-1.661056 z M 11.07423,66.706267 C 9.1226978,65.318811 8.7146449,64.912972 8.5692128,64.21485 8.3575786,63.198926 8.244424,63.057303 7.1487003,62.436936 L 6.2839969,61.947367 6.9675764,60.955449 c 0.3759699,-0.545554 0.7341377,-0.991919 0.795931,-0.991919 0.1138183,0 2.7678086,1.480774 3.2229746,1.798237 0.144328,0.100662 0.09817,0.318358 -0.110786,0.522555 -0.382868,0.374145 -0.380626,0.376663 2.69675,3.027473 l 1.204618,1.037641 -0.474258,1.00714 c -0.260841,0.553925 -0.569439,1.007138 -0.685774,1.007138 -0.116333,0 -1.260595,-0.745851 -2.542802,-1.657447 z M 22.627937,65.25242 c -0.77332,-0.381404 -0.849801,-0.520936 -0.849801,-1.550348 0,-0.812868 0.202347,-1.423162 0.719012,-2.168584 l 0.719013,-1.037361 2.892525,-0.487614 c 1.59089,-0.268185 3.015183,-0.487678 3.165096,-0.487757 0.161453,-8.8e-5 0.23521,0.536055 0.180929,1.315167 l -0.09165,1.315312 -1.323734,0.35658 c -0.986141,0.265643 -1.736615,0.71454 -2.942667,1.760159 l -1.618929,1.403576 -0.849802,-0.41913 z m -5.694562,-4.421882 c -1.873648,-0.8391 -1.941521,-0.897831 -1.680665,-1.45427 0.318942,-0.680343 0.118002,-0.929014 -2.141042,-2.649633 l -1.492599,-1.136852 0.922857,-0.680392 c 0.507571,-0.374217 1.002288,-0.68331 1.099371,-0.686874 0.09708,-0.0036 1.29298,0.550437 2.657547,1.231116 l 2.481033,1.237593 0,1.0853 c 0,1.058891 0.02639,1.09386 1.084577,1.437247 l 1.084577,0.35195 -0.815534,0.961325 c -0.448544,0.528731 -0.912754,1.010058 -1.031579,1.069618 -0.118824,0.05955 -1.094669,-0.285199 -2.168543,-0.766128 z M 2.5157281,61.249039 C 2.0162683,61.053143 1.9102985,60.795863 1.8343056,59.594651 1.751128,58.27984 1.7958674,58.145723 2.4257403,57.821792 2.8005222,57.629049 3.3551382,57.22807 3.6582179,56.930726 c 0.4954053,-0.486025 0.625627,-0.513067 1.2894632,-0.267764 1.3124691,0.484988 1.4698347,2.075414 0.3484482,3.521627 -1.0856631,1.400142 -1.5101663,1.562658 -2.7804012,1.06445 z M 9.7005529,59.285346 C 7.8291567,58.317126 7.6045506,58.127808 7.6045506,57.51865 c 0,-0.514212 -0.2636866,-0.874252 -1.0704721,-1.461643 l -1.0704721,-0.779372 0.9590807,-1.082679 0.9590796,-1.082681 1.2240907,0.712944 c 1.5061546,0.877224 1.5496026,0.932997 1.1405923,1.464154 -0.2915584,0.378629 -0.1035949,0.628937 1.6252453,2.164302 1.075214,0.954884 1.948568,1.785893 1.940788,1.846684 -0.0077,0.06079 -0.352047,0.326278 -0.765037,0.589973 l -0.75089,0.479442 -2.0960031,-1.084428 z M 21.913477,58.294472 c -1.012155,-0.228496 -1.10706,-0.319068 -1.33954,-1.278371 -0.287911,-1.188033 -0.0011,-1.796153 1.37767,-2.921568 0.60243,-0.491714 1.206136,-0.736242 2.044267,-0.828024 0.654156,-0.07163 1.276885,-0.06005 1.383842,0.02576 0.106957,0.0858 0.268994,0.701792 0.360082,1.368852 l 0.165616,1.21284 -1.451302,1.333213 -1.451302,1.333213 -1.089333,-0.245922 z m 6.235957,-3.442895 c 0.09369,-0.379942 0.170356,-1.104201 0.170356,-1.609465 0,-0.800744 0.0969,-0.948326 0.754867,-1.149747 0.415176,-0.127095 1.212441,-0.187758 1.771698,-0.134807 l 1.016835,0.09627 0,1.606114 0,1.606113 -0.851781,0.138162 c -0.468478,0.07599 -1.342402,0.138161 -1.942054,0.138161 -1.07574,0 -1.088005,-0.0092 -0.919921,-0.690806 z M 0.51775763,53.483042 c 0,-1.141604 0.0312209,-1.18934 1.09498357,-1.674221 0.6763225,-0.308277 1.3080399,-0.837812 1.6522209,-1.384961 0.5274558,-0.838509 0.5891157,-0.868817 1.1537098,-0.567088 0.3589465,0.191827 0.7291944,0.745171 0.9297593,1.389552 0.3203637,1.02927 0.3016291,1.110797 -0.4831673,2.102668 -0.8393155,1.060776 -1.4977513,1.299911 -3.5979415,1.306727 -0.72407908,0.0023 -0.74956477,-0.03752 -0.74956477,-1.172677 z M 16.24913,53.836228 c -1.501248,-0.74664 -1.554921,-0.803763 -1.1208,-1.192804 0.521905,-0.467711 0.605055,-0.346218 -1.759706,-2.571188 -1.62444,-1.528411 -1.625716,-1.39288 0.02812,-2.983561 l 0.630235,-0.606166 2.069304,1.711452 c 1.600421,1.323658 2.151742,1.947619 2.433124,2.753698 0.288866,0.827525 0.534644,1.097248 1.192994,1.309233 0.456047,0.146844 0.882855,0.301646 0.948462,0.344001 0.188885,0.121945 -2.245273,2.059371 -2.561015,2.038395 -0.156178,-0.01036 -0.993501,-0.371756 -1.860716,-0.80306 z M 9.4770757,52.492891 C 7.6796518,51.483198 7.6690813,51.471132 7.5139857,50.252392 7.3823357,49.217889 7.2219793,48.936987 6.4843572,48.448742 L 5.6106642,47.870429 6.5158428,46.566821 C 7.0136901,45.849836 7.4592,45.22429 7.5058633,45.176719 c 0.067705,-0.06903 1.6477694,0.882029 2.9071347,1.749828 0.120474,0.08301 0.009,0.508149 -0.247705,0.944743 -0.5258565,0.894331 -0.6051089,0.74017 1.493849,2.905855 l 1.192618,1.230531 -0.64748,0.771083 c -0.356114,0.424097 -0.708808,0.76168 -0.783765,0.750188 -0.07495,-0.0115 -0.949503,-0.477719 -1.9434393,-1.036056 z M 21.162628,50.95544 c -0.41728,-0.674669 -0.147576,-1.93779 0.756103,-3.54111 1.141474,-2.02522 1.275418,-2.10001 4.815749,-2.688931 l 2.403018,-0.399735 0,1.621547 c 0,1.79047 -0.105589,1.909366 -1.944041,2.189084 -0.713642,0.108577 -1.450993,0.534501 -2.712798,1.567021 -1.284612,1.051184 -1.924529,1.417918 -2.474136,1.417918 -0.407745,0 -0.787497,-0.07461 -0.843895,-0.165794 z M 1.3378336,47.773759 c 0.0056,-1.243099 0.3705349,-2.842271 0.6488772,-2.843836 0.5444771,-0.0031 1.529305,-1.705887 1.529305,-2.644259 0,-0.741947 0.1179747,-0.944031 0.6702575,-1.148112 0.5367396,-0.198337 0.8082218,-0.174361 1.3628439,0.120363 0.6163707,0.327539 0.6925885,0.51634 0.6925885,1.715637 0,1.15762 -0.1385252,1.532537 -0.9826322,2.659485 C 4.6710867,46.418042 3.841734,47.167479 3.1940611,47.49907 1.5561273,48.337646 1.3351207,48.370351 1.3378336,47.773759 z M 16.510129,46.275741 14.649233,45.42802 15.501962,44.64036 16.354691,43.8527 14.891049,42.236851 c -0.805003,-0.888716 -1.552928,-1.738177 -1.662056,-1.887692 -0.116523,-0.159647 0.252171,-0.766511 0.893306,-1.470369 l 1.091721,-1.198523 1.897623,1.429525 1.897624,1.429526 0.188397,1.630513 c 0.179528,1.553779 0.226404,1.64126 0.996024,1.858849 0.544754,0.154014 0.740201,0.320136 0.600469,0.510376 -0.319253,0.434652 -2.296398,2.604347 -2.363589,2.593775 -0.03275,-0.0052 -0.896947,-0.390845 -1.920439,-0.85709 z m -6.9357097,-1.959374 -1.709811,-1.26373 0.00621,-1.457877 C 7.8759076,40.420245 7.7725744,40.060183 7.3394124,39.742264 6.8081036,39.352305 6.8150105,39.332315 7.924044,38.050071 8.5413033,37.336407 9.1256815,36.7525 9.2226596,36.7525 c 0.096981,0 0.6966268,0.429958 1.3325504,0.955463 l 1.156226,0.955464 -0.535957,0.552593 -0.535958,0.552593 1.440902,1.998491 1.440904,1.998494 -0.93675,0.914599 c -0.515212,0.503032 -1.018568,0.911293 -1.118571,0.90725 -0.100004,-0.0041 -0.951235,-0.576029 -1.8916325,-1.27108 z M 22.391416,42.309116 c -0.797892,-0.553955 -0.885849,-0.734403 -0.885849,-1.817372 l 0,-1.202351 1.976125,-1.376621 c 1.749309,-1.218615 2.109085,-1.376893 3.134543,-1.378975 1.308105,-0.0026 1.304487,-0.01121 0.766748,1.813318 -0.297594,1.009722 -0.719303,1.593812 -2.1027,2.912343 -0.951747,0.907123 -1.791777,1.652772 -1.866734,1.656999 -0.07495,0.0042 -0.534916,-0.269076 -1.022133,-0.607341 z m 6.950508,-2.388505 c -0.552047,-0.12236 -0.562457,-0.340678 -0.108322,-2.271743 l 0.335058,-1.424737 1.329183,-0.274998 c 1.113481,-0.230371 1.454478,-0.22245 2.10126,0.0488 0.868586,0.364281 0.858162,0.302869 0.409394,2.412493 l -0.329168,1.547402 -1.630205,0.03426 c -0.896612,0.01883 -1.844852,-0.01332 -2.1072,-0.07147 z M 1.9834044,38.383866 c 0.2610828,-1.416827 0.3143109,-1.493205 1.271772,-1.824822 0.6072681,-0.21033 1.2237914,-0.662472 1.5715688,-1.15255 C 5.141502,34.96295 6.0349679,34.168235 6.8122253,33.64046 L 8.2254217,32.680872 8.0320365,34.219308 C 7.8682495,35.522278 7.65926,35.977661 6.6665774,37.194614 5.4576198,38.676705 5.5874068,38.605109 2.0001866,39.768752 1.7972753,39.834582 1.7922648,39.421136 1.9834004,38.383866 z M 18.234739,37.495863 c -0.674608,-0.429711 -1.270604,-0.816769 -1.324437,-0.86013 -0.05383,-0.04335 0.160815,-0.373479 0.476995,-0.733597 0.316181,-0.360118 0.574874,-0.712992 0.574874,-0.784166 0,-0.07118 -0.568263,-0.848412 -1.262807,-1.727191 l -1.262806,-1.597787 1.179011,-0.823533 1.179013,-0.823537 0.697074,0.438198 c 0.383391,0.241008 1.157035,0.696212 1.719208,1.011561 0.986203,0.55321 1.022133,0.619316 1.022133,1.880616 0,1.220657 0.05405,1.332194 0.815984,1.683818 0.448791,0.207113 0.815025,0.426307 0.813852,0.487098 -0.0051,0.261737 -2.794944,2.651628 -3.083401,2.641318 -0.174973,-0.0063 -0.870085,-0.362957 -1.544693,-0.792668 z M 11.61641,35.696067 c -1.422476,-1.165814 -1.55874,-1.362645 -1.55874,-2.251592 0,-0.681303 -0.1698448,-1.120726 -0.5650541,-1.461903 l -0.5650552,-0.487807 1.2124583,-1.055754 1.21246,-1.055755 1.328721,0.622169 c 0.730796,0.34219 1.381107,0.658384 1.445135,0.702651 0.06403,0.04427 -0.212811,0.359178 -0.615196,0.699806 l -0.73161,0.619319 1.248094,1.582112 1.248093,1.582115 -0.882943,0.891065 c -0.485619,0.490087 -0.958246,0.891065 -1.050283,0.891065 -0.09203,0 -0.868773,-0.574871 -1.72608,-1.277491 z m 12.819273,-1.950629 c -0.639937,-0.275692 -0.747926,-0.459293 -0.738367,-1.255354 0.01061,-0.88346 0.100086,-0.98562 1.703557,-1.945109 1.683063,-1.007111 1.710145,-1.014132 4.931487,-1.278366 1.781524,-0.14613 3.283669,-0.229568 3.338109,-0.185419 0.05446,0.04414 -0.125922,0.616877 -0.400802,1.272726 l -0.499778,1.192458 -2.033303,0.227757 c -1.602398,0.179491 -2.261663,0.372628 -3.110895,0.911361 -2.117029,1.34299 -2.351874,1.421023 -3.190008,1.059946 z M 5.396705,31.17708 c 1.136325,-2.257087 2.1165803,-3.266348 3.6904924,-3.79969 0.5703761,-0.193279 1.0833966,-0.351417 1.1400456,-0.351417 0.05665,0 0.102997,0.422389 0.102997,0.938645 0,0.880859 -0.130281,1.040956 -2.1161767,2.60046 -1.1638966,0.914 -2.5062774,1.887096 -2.9830682,2.162439 L 4.3641031,33.228141 5.396705,31.17708 z m 16.092478,-0.676482 c -2.045593,-1.295421 -1.970571,-1.208402 -1.505768,-1.746591 0.237532,-0.275034 0.431876,-0.568474 0.431876,-0.652084 0,-0.08361 -0.490624,-0.655407 -1.090275,-1.270653 -0.599652,-0.615249 -1.090277,-1.212195 -1.090277,-1.326545 0,-0.244698 1.568844,-1.352499 1.915381,-1.352499 0.130978,0 0.974614,0.373035 1.874747,0.828965 l 1.636605,0.828967 0.01233,1.125066 c 0.01071,0.977706 0.100677,1.15772 0.686905,1.374343 l 0.67458,0.249274 -1.450481,1.112553 c -0.797765,0.611907 -1.499959,1.109391 -1.56043,1.105525 -0.06048,-0.0039 -0.301305,-0.128213 -0.535185,-0.276321 z m -7.730987,-1.650901 c -1.187342,-0.791877 -1.240004,-0.876071 -1.177037,-1.881769 0.05248,-0.838052 -0.03138,-1.077823 -0.411079,-1.175449 -0.722695,-0.185816 -0.597386,-0.383429 0.886714,-1.398341 l 1.36371,-0.932584 1.08941,0.49657 c 0.599177,0.273115 1.089412,0.569434 1.089412,0.658485 0,0.08905 -0.335167,0.359925 -0.744816,0.601938 l -0.744816,0.440026 1.267966,1.324206 1.267965,1.324206 -1.052304,0.685837 c -0.578768,0.377213 -1.173775,0.68584 -1.322239,0.68584 -0.148462,0 -0.829262,-0.373034 -1.512886,-0.828965 z m 12.720222,-2.016241 -0.887382,-0.615457 1.023667,-0.877802 c 1.682181,-1.442483 3.770212,-2.393896 5.084842,-2.316916 0.614165,0.03597 1.207433,0.110888 1.31837,0.166496 0.110948,0.0556 -0.155168,0.67448 -0.591354,1.375269 -0.738251,1.186081 -0.930928,1.326651 -2.787073,2.03334 -1.096695,0.417544 -2.056926,0.779727 -2.133842,0.80485 -0.07692,0.02513 -0.539168,-0.231279 -1.027228,-0.56978 z M 6.2417057,26.491471 c 0,-0.02745 0.194957,-0.513947 0.4332363,-1.081101 0.3752074,-0.893067 0.5727866,-1.065097 1.4750844,-1.284344 0.6565944,-0.159543 1.6271291,-0.732829 2.6246326,-1.55035 1.962227,-1.608176 2.458487,-1.674532 2.324755,-0.310846 -0.08579,0.874832 -0.25551,1.095898 -1.501093,1.955248 -0.772401,0.532894 -1.6557589,1.076624 -1.9630174,1.20829 -0.645295,0.276521 -3.3935979,1.137473 -3.3935979,1.063103 z m 28.4446383,-0.06831 -1.129103,-0.08346 0.57749,-1.440544 0.57749,-1.440543 0.960467,0.143047 c 0.528251,0.07867 1.537356,0.241986 2.242457,0.362913 l 1.282001,0.219865 -0.725502,1.199707 c -0.796066,1.3164 -0.634068,1.271932 -3.7853,1.03901 z m -11.30433,-2.535929 -1.15984,-0.681401 0.605782,-0.39783 0.605782,-0.397829 -0.797838,-1.427056 -0.797838,-1.427056 1.27455,-1.018134 1.27455,-1.018137 1.296149,1.067243 c 1.188197,0.978356 1.27251,1.117667 1.012323,1.67268 -0.506038,1.079445 -0.358041,1.885054 0.397596,2.16428 0.374782,0.138491 0.681423,0.318446 0.681423,0.399903 0,0.181502 -2.142214,1.424726 -2.774818,1.610353 -0.280008,0.08216 -0.908701,-0.130411 -1.617821,-0.547016 z m -6.725972,-0.866735 c -1.570436,-0.971218 -1.773688,-1.518336 -0.857789,-2.30902 l 0.561773,-0.484969 -0.720429,-0.459593 -0.72043,-0.459595 0.908221,-0.643364 c 0.499522,-0.353849 1.314121,-0.918898 1.81022,-1.255663 l 0.901996,-0.6123 0.953553,0.749107 0.953553,0.749106 -0.724469,0.505847 c -0.997347,0.696379 -1.211182,1.991547 -0.424177,2.569177 0.753852,0.553295 0.714845,0.75226 -0.336532,1.716596 l -0.885929,0.812583 -1.419561,-0.877912 z m -6.859701,-0.51964 c -0.013946,-0.266065 2.52187,-3.671762 3.62597,-4.869825 0.448186,-0.486326 1.550862,-1.500549 2.450392,-2.253829 1.355166,-1.134833 1.721102,-1.332447 2.134847,-1.152865 0.475375,0.206332 0.467033,0.268434 -0.173838,1.294123 -0.653387,1.04572 -8.0134112,7.439678 -8.037371,6.982396 z m 19.924977,-1.119875 c -0.520994,-0.183458 -0.8605,-0.441617 -0.788084,-0.599256 0.06997,-0.152321 0.282077,-0.628056 0.471343,-1.057189 0.288231,-0.653518 0.763694,-0.976646 2.927456,-1.989517 l 2.583342,-1.209275 2.971909,-0.110529 c 1.63454,-0.06079 2.971623,-0.0738 2.971287,-0.02892 -2.75e-4,0.04489 -0.431585,0.657002 -0.95834,1.360256 l -0.957729,1.278645 -1.688523,0.158937 c -1.378483,0.129754 -2.1236,0.377207 -4.058104,1.347697 -1.303276,0.653819 -2.412265,1.184867 -2.464419,1.180108 -0.05216,-0.0047 -0.506716,-0.153692 -1.010138,-0.33096 z m -2.341767,-4.19289 c -0.532258,-0.526797 -0.967743,-1.013122 -0.967743,-1.080725 0,-0.06761 0.369336,-0.277809 0.820748,-0.467128 0.887191,-0.37208 0.894866,-0.513334 0.129059,-2.375214 l -0.34101,-0.829088 1.325742,-0.789268 c 1.421959,-0.846547 1.436838,-0.845509 3.003383,0.209469 l 0.985672,0.663794 -0.636329,1.113888 -0.636328,1.113888 0.639765,0.557432 0.639764,0.557432 -1.997489,1.141665 -1.997489,1.141665 -0.967745,-0.95781 z m -6.417047,-1.323784 -0.922571,-0.771964 0.636769,-0.918861 c 0.485545,-0.700645 0.568548,-1.007453 0.349507,-1.291908 -0.237913,-0.308963 -0.04583,-0.524403 1.118183,-1.254112 2.01519,-1.263309 2.001099,-1.259845 3.028948,-0.744651 l 0.932143,0.467222 -0.963551,0.716148 c -0.95723,0.711451 -0.961398,0.722626 -0.635575,1.703626 l 0.327976,0.987477 -1.316209,0.939494 c -0.723915,0.516722 -1.387497,0.939494 -1.474629,0.939494 -0.08714,0 -0.573577,-0.347384 -1.080991,-0.771965 z m 13.63486,-1.938967 c -0.483023,-0.350024 -0.835858,-0.662812 -0.784075,-0.695082 0.05182,-0.03228 1.335189,-0.771257 2.852003,-1.642191 l 2.757841,-1.583517 1.966559,0 1.966549,0 -1.317283,1.209716 c -1.014012,0.931209 -1.921168,1.455799 -3.940315,2.278599 l -2.623033,1.068883 -0.878246,-0.636408 z m 9.278811,-0.124026 -1.479179,-0.376316 1.479179,-1.286403 1.47918,-1.286402 1.362837,0.269405 c 0.749566,0.148173 1.45486,0.33548 1.567325,0.416237 0.207379,0.14892 -2.411663,2.678138 -2.74754,2.6533 -0.100472,-0.0075 -0.848257,-0.182847 -1.661802,-0.389821 z m -27.9447,-0.935131 c 1.344578,-1.108054 5.924075,-3.2881826 7.597816,-3.6170383 0.72691,-0.1428229 0.763364,-0.1235967 0.41364,0.2181574 -1.184756,1.1577599 -6.429033,3.8314159 -8.420309,4.2928729 l -0.94042,0.217932 1.349273,-1.111924 z m 16.908633,-2.085877 -1.039966,-0.708098 0.985515,-0.4939737 c 1.032447,-0.517499 1.265051,-1.1686555 0.715149,-2.0019858 -0.229357,-0.3475632 -0.06942,-0.5100202 1.054577,-1.0708992 l 1.324949,-0.661181 1.428088,0.6614742 1.428088,0.6614739 -0.710975,0.601847 c -0.873228,0.7392032 -0.908572,1.257227 -0.09772,1.4318949 0.576878,0.1242621 0.556651,0.1569311 -0.340712,0.5503791 -0.524698,0.230052 -1.573433,0.7150266 -2.330532,1.0777216 l -1.376538,0.659446 -1.03996,-0.708099 z M 26.818496,9.5606368 25.751705,8.6746089 26.365339,8.3260296 C 26.751141,8.1068723 26.92373,7.8362899 26.830185,7.5972547 26.713453,7.2989717 27.084324,7.0718648 28.551567,6.5431449 30.317361,5.9068437 30.465766,5.888098 31.210605,6.2072753 l 0.78887,0.3380442 -0.918801,0.195458 c -0.91518,0.1946884 -0.918124,0.1995861 -0.747345,1.2436777 0.171042,1.0457015 0.168482,1.0499177 -1.065295,1.7552146 -0.680213,0.3888472 -1.2696,0.7069952 -1.309749,0.7069952 -0.04015,0 -0.553054,-0.398713 -1.139789,-0.8860282 z M 40.491759,8.0532562 C 40.070027,7.6753116 40.080441,7.6209012 40.65394,7.2063038 40.991018,6.9626204 41.983001,6.5475166 42.858336,6.283851 44.201954,5.8791343 45.025118,5.8044588 48.142778,5.8044588 l 3.6929,0 -1.028945,0.6631723 c -0.930906,0.5999777 -1.218409,0.6631724 -3.017147,0.6631724 -1.534556,0 -2.494199,0.1513118 -4.205932,0.6631722 -2.614512,0.7818184 -2.517857,0.7737129 -3.091895,0.2592805 z M 24.307381,7.0337298 c 1.397765,-0.9255273 5.888011,-2.855828 6.161741,-2.6488548 0.387699,0.2931503 -1.142996,1.2562102 -3.551503,2.2344791 -3.936152,1.5987565 -4.544876,1.6953916 -2.610238,0.4143757 z M 39.018127,5.8764297 c -0.791475,-0.4477651 -0.774435,-0.6544131 0.0681,-0.8259191 0.748956,-0.1524527 0.831013,-0.3747727 0.386765,-1.0479769 -0.378091,-0.5729656 -0.283401,-0.6358595 1.444813,-0.9596381 1.294471,-0.2425159 1.54892,-0.2250659 2.529523,0.1734711 1.048083,0.4259646 1.066548,0.4517028 0.476996,0.6651525 -0.666398,0.2412723 -0.781917,0.5924629 -0.31851,0.9682922 0.211309,0.1713787 -0.23406,0.4029481 -1.573056,0.8179125 -2.154037,0.6675479 -2.198217,0.6706068 -3.014673,0.2087058 z M 55.440402,5.7714971 C 54.540921,5.6716551 53.625173,5.5629093 53.405405,5.5298396 53.180528,5.4960036 53.598869,5.1610729 54.362147,4.763839 l 1.356342,-0.7058734 1.905227,0.3916837 c 1.838866,0.3780433 1.881488,0.4019539 1.223794,0.6865878 -0.374783,0.1621972 -0.926732,0.4123284 -1.226553,0.5558473 -0.378661,0.1812546 -1.044581,0.2055061 -2.180555,0.079413 z M 33.089743,5.534846 C 31.354448,5.0944357 31.408686,5.1386488 32.068249,4.7021642 c 0.337647,-0.2234521 0.551246,-0.5393584 0.474665,-0.7020139 -0.271898,-0.5774436 4.740138,-1.426257 5.160953,-0.8740358 0.08184,0.1074713 -0.214515,0.3174882 -0.658692,0.4667042 -0.69201,0.2324678 -0.766383,0.3337766 -0.519598,0.7077602 0.351675,0.5329297 0.407144,0.4882056 -1.255279,1.0122159 -1.039736,0.3277357 -1.556708,0.3803799 -2.180555,0.2220512 z m 13.28221,-1.4138415 c -0.516015,-0.1860493 0.684121,-0.8771692 2.03578,-1.1723503 0.907136,-0.1981026 6.078676,-0.304259 6.078676,-0.1247771 0,0.026446 -0.467804,0.2991587 -1.039572,0.606028 -0.887246,0.4761891 -1.456378,0.5768458 -3.884114,0.6869421 -1.564485,0.07095 -3.00034,0.07282 -3.19077,0.00416 z m 28.55713,-0.3658629 c 0,-0.1544719 -1.347679,-0.7194186 -2.994832,-1.2554374 C 70.287087,1.9636855 68.980269,1.4919915 69.0302,1.4514956 c 0.10262,-0.083222 3.902457,0.7994654 6.171453,1.433604 1.822202,0.509267 2.213232,1.1508997 0.701406,1.1508997 -0.60586,0 -0.973976,-0.1061514 -0.973976,-0.2808577 z M 67.735037,3.0459687 C 66.851538,2.638864 65.870284,2.0538482 65.554492,1.7459338 65.052657,1.2566254 64.636901,1.1541629 62.254627,0.93268899 60.755495,0.79331879 59.467611,0.62664455 59.392648,0.5623019 c -0.165469,-0.1420443 3.41575,0.0900601 6.405371,0.41514057 1.905695,0.20721793 2.261269,0.31835443 2.820863,0.88167273 0.352174,0.3545119 1.333428,0.9348158 2.180555,1.2895642 l 1.540237,0.6449969 -1.499132,-0.00376 C 69.647033,3.7869263 69.013943,3.6352626 67.735037,3.0459674 z M 60.358388,2.3928634 C 58.261917,1.6812149 58.09374,1.6601139 55.315865,1.7601745 l -2.873726,0.1035129 0.86941,-0.4498896 c 1.245151,-0.64432047 4.59115,-0.66829278 8.100643,-0.058037 1.485532,0.258315 2.7844,0.4696635 2.886369,0.4696635 0.10197,0 0.325107,0.2486895 0.49588,0.5526435 0.270381,0.4812832 0.245237,0.5526437 -0.194756,0.5526437 -0.277873,0 -0.857857,0.044629 -1.288852,0.099177 -0.499809,0.063256 -1.569157,-0.1674694 -2.952445,-0.6370252 z M 45.014643,2.6609126 C 44.302253,2.3822704 44.232767,2.1462526 44.810216,1.966542 45.035084,1.896559 45.21907,1.6869647 45.21907,1.5007766 c 0,-0.1861883 0.153316,-0.3404946 0.340702,-0.3429029 0.187396,-0.00241 1.161891,-0.1007042 2.16555,-0.21843513 1.126965,-0.13219393 2.065119,-0.135878 2.453125,-0.00963 0.345557,0.11243273 0.505621,0.21389223 0.355716,0.22546553 -0.149915,0.011573 -0.517287,0.1710203 -0.816384,0.3543267 -0.425905,0.2610245 -0.465504,0.3725313 -0.182663,0.5143044 0.236167,0.1183703 -0.255356,0.306616 -1.420189,0.5439153 -2.037318,0.4150431 -2.260079,0.4217323 -3.100284,0.093096 z M 39.018127,2.5748046 C 38.291486,2.3123733 38.74455,2.0974278 40.331226,1.951841 41.240826,1.86838 42.160747,1.7454122 42.375496,1.6785797 42.966657,1.4946003 42.842955,1.9975004 42.231801,2.2627692 41.5868,2.5427234 39.492375,2.7460843 39.018127,2.5748046 z"
     id="path3850"
     inkscape:connector-curvature="0" />
</svg>
