<?xml version="1.0" encoding="UTF-8" standalone="no"?>
<svg
   xmlns:dc="http://purl.org/dc/elements/1.1/"
   xmlns:cc="http://creativecommons.org/ns#"
   xmlns:rdf="http://www.w3.org/1999/02/22-rdf-syntax-ns#"
   xmlns:svg="http://www.w3.org/2000/svg"
   xmlns="http://www.w3.org/2000/svg"
   xmlns:sodipodi="http://sodipodi.sourceforge.net/DTD/sodipodi-0.dtd"
   xmlns:inkscape="http://www.inkscape.org/namespaces/inkscape"
   version="1.1"
   viewBox="0 0 100 100"
   id="svg2"
   inkscape:version="0.48.4 r9939"
   width="100%"
   height="100%"
   sodipodi:docname="colloapse.svg">
  <metadata
     id="metadata51">
    <rdf:RDF>
      <cc:Work
         rdf:about="">
        <dc:format>image/svg+xml</dc:format>
        <dc:type
           rdf:resource="http://purl.org/dc/dcmitype/StillImage" />
        <dc:title>smartphone</dc:title>
      </cc:Work>
    </rdf:RDF>
  </metadata>
  <defs
     id="defs49" />
  <sodipodi:namedview
     pagecolor="#ffffff"
     bordercolor="#666666"
     borderopacity="1"
     objecttolerance="10"
     gridtolerance="10"
     guidetolerance="10"
     inkscape:pageopacity="0"
     inkscape:pageshadow="2"
     inkscape:window-width="1920"
     inkscape:window-height="1059"
     id="namedview47"
     showgrid="false"
     inkscape:zoom="3.8133336"
     inkscape:cx="24.584106"
     inkscape:cy="54.750188"
     inkscape:window-x="2560"
     inkscape:window-y="21"
     inkscape:window-maximized="1"
     inkscape:current-layer="svg2"
     inkscape:snap-bbox="true"
     fit-margin-top="0"
     fit-margin-left="0"
     fit-margin-right="0"
     fit-margin-bottom="0" />
  <title>smartphone</title>
  <path
     style="fill:#000000"
     d=""
     id="path5256"
     inkscape:connector-curvature="0" />
  <path
     style="fill:#000000"
     d="M 7.934643,97.80884 C 1.069278,94.093779 0.79461896,92.266818 0.79461896,50.315458 0.79461896,8.1147461 1.054842,6.4410831 8.188269,2.7621931 c 5.387453,-2.77844499 78.948004,-2.77844499 84.335462,0 7.133419,3.67889 7.393654,5.352553 7.393654,47.5532649 0,42.200712 -0.260235,43.874371 -7.393654,47.553264 -5.318952,2.743118 -79.506255,2.690598 -84.589088,-0.05993 z m 80.583611,-9.434034 c 2.123805,-2.118077 2.123805,-74.000622 0,-76.118693 -2.123791,-2.118072 -74.200719,-2.118072 -76.324518,0 -2.123799,2.118071 -2.123799,74.000616 0,76.118693 2.123799,2.118064 74.200727,2.118064 76.324518,0 z M 38.18451,53.487619 C 32.612386,45.717471 28.053378,38.488667 28.053378,37.42361 c 0,-1.686442 2.879596,-1.936469 22.302627,-1.936469 19.423017,0 22.302621,0.250027 22.302621,1.936469 0,3.095892 -20.015674,30.19155 -22.302621,30.19155 -1.184716,0 -6.288943,-5.924513 -12.171495,-14.127541 z"
     id="path5368"
     inkscape:connector-curvature="0" />
</svg>
