<?xml version="1.0" encoding="UTF-8" standalone="no"?>
<!-- Created with Inkscape (http://www.inkscape.org/) -->

<svg
   xmlns:dc="http://purl.org/dc/elements/1.1/"
   xmlns:cc="http://creativecommons.org/ns#"
   xmlns:rdf="http://www.w3.org/1999/02/22-rdf-syntax-ns#"
   xmlns:svg="http://www.w3.org/2000/svg"
   xmlns="http://www.w3.org/2000/svg"
   xmlns:sodipodi="http://sodipodi.sourceforge.net/DTD/sodipodi-0.dtd"
   xmlns:inkscape="http://www.inkscape.org/namespaces/inkscape"
   id="svg2"
   version="1.1"
   inkscape:version="0.48.4 r9939"
   width="100"
   height="100"
   sodipodi:docname="varnish.svg">
  <metadata
     id="metadata8">
    <rdf:RDF>
      <cc:Work
         rdf:about="">
        <dc:format>image/svg+xml</dc:format>
        <dc:type
           rdf:resource="http://purl.org/dc/dcmitype/StillImage" />
        <dc:title />
      </cc:Work>
    </rdf:RDF>
  </metadata>
  <defs
     id="defs6" />
  <sodipodi:namedview
     pagecolor="#ffffff"
     bordercolor="#666666"
     borderopacity="1"
     objecttolerance="10"
     gridtolerance="10"
     guidetolerance="10"
     inkscape:pageopacity="0"
     inkscape:pageshadow="2"
     inkscape:window-width="1920"
     inkscape:window-height="1058"
     id="namedview4"
     showgrid="false"
     inkscape:zoom="3.2777778"
     inkscape:cx="142.7945"
     inkscape:cy="-13.770408"
     inkscape:window-x="-8"
     inkscape:window-y="-8"
     inkscape:window-maximized="1"
     inkscape:current-layer="svg2" />
  <path
     style="fill:#000000"
     d="M 75.8125 0.75 C 74.802267 0.75 73.96875 1.5483202 73.96875 2.53125 C 73.96875 3.5141798 74.802267 4.3125 75.8125 4.3125 C 76.822733 4.3125 77.65625 3.5141798 77.65625 2.53125 C 77.65625 1.5483202 76.822733 0.75 75.8125 0.75 z M 84.625 2.125 C 83.612284 2.125 82.78125 2.9247845 82.78125 3.9375 C 82.78125 4.9502155 83.612284 5.78125 84.625 5.78125 C 85.637716 5.78125 86.4375 4.9502155 86.4375 3.9375 C 86.4375 2.9247845 85.637716 2.125 84.625 2.125 z M 41.21875 3.0625 L 41.21875 10.28125 C 41.21875 15.72071 40.663088 17.46875 39.03125 17.46875 C 37.522829 17.46875 36.875 18.980351 36.875 22.5 L 36.875 27.5625 L 48.40625 27.5625 L 59.9375 27.5625 L 59.9375 22.5 C 59.9375 19.728276 59.282869 17.46875 58.5 17.46875 C 55.952219 17.46875 51.28125 12.577163 51.28125 9.90625 C 51.28125 8.4735508 52.249618 6.9245842 53.4375 6.46875 C 57.875466 4.7657435 55.368124 3.0625 48.40625 3.0625 L 41.21875 3.0625 z M 68.03125 4.75 C 67.021017 4.75 66.1875 5.5483202 66.1875 6.53125 C 66.1875 7.5141798 67.021017 8.3125 68.03125 8.3125 C 69.041483 8.3125 69.875 7.5141798 69.875 6.53125 C 69.875 5.5483202 69.041483 4.75 68.03125 4.75 z M 75.90625 7.625 C 74.896017 7.625 74.09375 8.4233202 74.09375 9.40625 C 74.09375 10.38918 74.896017 11.1875 75.90625 11.1875 C 76.916483 11.1875 77.75 10.38918 77.75 9.40625 C 77.75 8.4233202 76.916483 7.625 75.90625 7.625 z M 59.84375 7.65625 C 58.833517 7.65625 58.03125 8.4545702 58.03125 9.4375 C 58.03125 10.42043 58.833517 11.21875 59.84375 11.21875 C 60.853983 11.21875 61.6875 10.42043 61.6875 9.4375 C 61.6875 8.4545702 60.853983 7.65625 59.84375 7.65625 z M 84.71875 9.8125 C 83.706034 9.8125 82.90625 10.643534 82.90625 11.65625 C 82.90625 12.668966 83.706034 13.5 84.71875 13.5 C 85.731466 13.5 86.5625 12.668966 86.5625 11.65625 C 86.5625 10.643534 85.731466 9.8125 84.71875 9.8125 z M 68.125 10.8125 C 67.114767 10.8125 66.3125 11.61082 66.3125 12.59375 C 66.3125 13.57668 67.114767 14.375 68.125 14.375 C 69.135233 14.375 69.96875 13.57668 69.96875 12.59375 C 69.96875 11.61082 69.135233 10.8125 68.125 10.8125 z M 76.125 14.84375 C 75.114767 14.84375 74.28125 15.64207 74.28125 16.625 C 74.28125 17.60793 75.114767 18.40625 76.125 18.40625 C 77.135233 18.40625 77.9375 17.60793 77.9375 16.625 C 77.9375 15.64207 77.135233 14.84375 76.125 14.84375 z M 84.6875 17.28125 C 83.674784 17.28125 82.84375 18.081034 82.84375 19.09375 C 82.84375 20.106466 83.674784 20.9375 84.6875 20.9375 C 85.700216 20.9375 86.5 20.106466 86.5 19.09375 C 86.5 18.081034 85.700216 17.28125 84.6875 17.28125 z M 48.65625 32.875 C 42.355456 32.99411 35.906447 35.065205 32.03125 38.9375 L 27.53125 43.4375 L 27.09375 71.5 L 26.625 99.53125 L 48.3125 99.53125 L 70 99.53125 L 70 73.5625 C 70 58.574025 69.97318 45.028888 69.875 43.5625 C 69.78271 42.183961 65.972047 39.778888 63.28125 37.34375 C 60.089722 34.455457 55.108026 32.992932 49.90625 32.875 C 49.48825 32.8655 49.076303 32.8671 48.65625 32.875 z M 48.71875 54.59375 C 50.092001 54.59565 52.652517 54.67002 54.125 54.9375 C 55.086039 55.129008 55.634709 55.46777 56.21875 56 C 57.213184 56.768044 57.890364 57.922545 58.40625 58.875 C 58.721759 59.392389 59.524884 60.873048 60 61.15625 C 60.100944 61.21091 60.129898 61.16841 60.28125 61 C 60.49489 60.762265 60.510231 60.777672 60.375 60.625 C 60.119953 60.33092 59.891554 59.92084 59.875 59.53125 C 59.875 59.345481 60.086969 59.073122 60.28125 59.03125 C 60.738451 58.93271 62.018168 58.924839 62.59375 59.40625 C 63.013708 59.952223 62.860207 60.842552 62.53125 61.15625 C 62.356767 61.322056 62.201898 61.452078 62.1875 61.4375 C 62.17305 61.42292 61.979344 61.52471 61.75 61.65625 C 61.520656 61.787794 61.307209 61.874485 61.28125 61.875 C 61.25522 61.875447 61.20323 61.9074 61.15625 61.9375 C 61.08421 61.98369 61.07029 62.00683 61.15625 62.09375 C 61.21225 62.15038 61.297878 62.211935 61.34375 62.21875 C 61.38966 62.22555 61.485081 62.24247 61.53125 62.28125 C 61.57747 62.32004 61.802649 62.461573 62.0625 62.59375 C 62.534545 62.833868 63.059524 63.262187 63.1875 63.53125 C 63.531421 64.254329 63.523737 64.301281 63.5 66.03125 C 63.4915 66.659978 63.52278 66.921589 63.59375 67.09375 C 63.67514 67.29093 63.6875 67.87799 63.6875 71.65625 C 63.6875 75.837802 63.67379 76.017193 63.5625 76.15625 L 63.4375 76.3125 L 61.53125 76.3125 C 60.472201 76.3154 59.506036 76.29522 59.40625 76.28125 C 59.024374 76.22767 59.03125 76.18802 59.03125 74.875 L 59.03125 73.6875 C 58.386229 73.7075 58.521978 73.70856 57.21875 73.75 C 55.932291 73.69226 55.936516 73.685475 54.5 73.25 C 52.539767 72.437591 52.54451 72.412823 49.0625 72.46875 C 44.813549 72.468803 44.816424 72.49528 43.75 73 C 42.341738 73.498319 42.310443 73.492837 40.4375 73.59375 L 38.9375 73.625 L 38.9375 74.84375 C 38.9375 75.949722 38.9437 76.064554 38.84375 76.15625 C 38.74525 76.24643 38.481178 76.28125 36.59375 76.28125 C 34.696176 76.28125 34.480555 76.24683 34.40625 76.15625 C 34.33793 76.07296 34.32621 75.276963 34.3125 71.625 C 34.29794 67.746006 34.29479 67.18621 34.375 67.0625 C 34.45161 66.944217 34.46002 66.716332 34.4375 65.6875 C 34.41423 64.622499 34.4369 64.400612 34.53125 64.09375 C 34.744029 63.401789 35.157214 62.942342 35.96875 62.53125 C 36.216434 62.405782 36.525087 62.240055 36.65625 62.15625 L 36.90625 62 L 36.53125 61.8125 C 36.318704 61.711843 36.068536 61.579567 35.96875 61.53125 C 35.632097 61.368237 35.2004 60.872048 35.125 60.71875 C 35.017012 60.499166 34.820701 60.092957 35.03125 59.65625 C 35.208263 59.289165 36.777083 59.085891 37.21875 59.03125 C 37.719686 58.96927 38.09375 59.225181 38.09375 59.59375 C 38.09375 59.67456 38.09438 60.137938 37.75 60.5 L 37.5 60.78125 L 37.6875 61.03125 L 37.875 61.25 L 38.0625 61.0625 C 38.523249 60.485205 39.026022 59.828027 39.375 59.15625 C 40.076655 57.77971 40.316601 57.408725 40.6875 56.96875 C 41.529266 56.030595 42.895324 55.054319 44.125 54.875 C 46.062687 54.582461 47.301211 54.594074 48.71875 54.59375 z M 49.40625 55.71875 C 47.704362 55.71135 46.052474 55.821628 44.6875 55.96875 C 42.071025 56.417059 40.516738 59.323306 39.8125 61.1875 C 39.77669 61.28595 39.653636 61.501592 39.875 61.53125 C 42.972987 62.295727 46.387455 62.516776 49.34375 62.5 C 52.58036 62.44238 55.13617 61.984852 57.875 61.59375 C 58.138176 61.5239 58.356693 61.56548 58.21875 61.25 C 57.225314 59.275769 56.744057 56.877327 54.46875 56.21875 C 52.882428 55.861613 51.108138 55.726102 49.40625 55.71875 z M 37.28125 65.71875 C 35.92704 65.93432 36.018265 68.219535 37.1875 68.65625 C 38.356397 68.797375 37.900612 68.57864 39.5625 68.5625 C 41.528046 68.54342 42.339189 68.902022 42.875 68.8125 C 43.085112 68.77739 43.292853 68.484564 43.34375 68.25 C 43.41526 67.920389 43.100053 67.282645 42.4375 67.1875 C 39.535799 66.963878 38.288191 65.623327 37.28125 65.71875 z M 60.4375 65.84375 C 60.3568 65.84635 60.273055 65.84905 60.1875 65.875 C 58.990731 65.980461 58.60531 67.020104 55.375 67.25 C 54.733083 67.497563 54.65625 67.790932 54.65625 68.15625 C 54.65625 68.41671 54.812797 68.732746 54.96875 68.78125 C 55.637742 68.989309 55.917347 68.665722 58.0625 68.65625 C 59.917635 68.64805 59.619568 68.71256 60.78125 68.71875 C 62.24309 68.24078 61.648001 65.804117 60.4375 65.84375 z "
     id="path3013" />
</svg>
