<?xml version="1.0" encoding="UTF-8" standalone="no"?>
<svg
   xmlns:dc="http://purl.org/dc/elements/1.1/"
   xmlns:cc="http://creativecommons.org/ns#"
   xmlns:rdf="http://www.w3.org/1999/02/22-rdf-syntax-ns#"
   xmlns:svg="http://www.w3.org/2000/svg"
   xmlns="http://www.w3.org/2000/svg"
   xmlns:sodipodi="http://sodipodi.sourceforge.net/DTD/sodipodi-0.dtd"
   xmlns:inkscape="http://www.inkscape.org/namespaces/inkscape"
   version="1.1"
   viewBox="0 0 100 100"
   id="svg2"
   inkscape:version="0.92.1 r15371"
   width="100%"
   height="100%"
   sodipodi:docname="version-tag.svg">
  <metadata
     id="metadata51">
    <rdf:RDF>
      <cc:Work
         rdf:about="">
        <dc:format>image/svg+xml</dc:format>
        <dc:type
           rdf:resource="http://purl.org/dc/dcmitype/StillImage" />
        <dc:title>remember-me-active</dc:title>
      </cc:Work>
    </rdf:RDF>
  </metadata>
  <defs
     id="defs49" />
  <sodipodi:namedview
     pagecolor="#ffffff"
     bordercolor="#666666"
     borderopacity="1"
     objecttolerance="10"
     gridtolerance="10"
     guidetolerance="10"
     inkscape:pageopacity="0"
     inkscape:pageshadow="2"
     inkscape:window-width="2560"
     inkscape:window-height="1361"
     id="namedview47"
     showgrid="false"
     inkscape:zoom="7.6266671"
     inkscape:cx="17.812635"
     inkscape:cy="61.388793"
     inkscape:window-x="-9"
     inkscape:window-y="-9"
     inkscape:window-maximized="1"
     inkscape:current-layer="svg2"
     inkscape:snap-bbox="true"
     fit-margin-top="0"
     fit-margin-left="0"
     fit-margin-right="0"
     fit-margin-bottom="0"
     units="pc" />
  <title
     id="title3003">remember-me-active</title>
  <path
     style="fill:#000000;stroke-width:0.06208074"
     d="M 24.992112,0.63388484 C 11.302482,0.63108378 5.6896526,0.64956672 5.3125012,0.69888059 4.1162191,0.85491625 3.2167461,1.3049607 2.3337395,2.1893117 1.4507045,3.0736347 1.00206,3.9737516 0.84778864,5.1702577 0.79917605,5.5474931 0.78900699,11.160266 0.81213602,24.849869 c 0.0310552,18.387696 0.0369618,19.175407 0.14841861,19.741553 0.47233577,2.399566 1.49401607,4.73251 2.81314967,6.423307 0.4705425,0.603083 46.7790717,46.833555 47.1785867,47.099028 0.69894,0.464466 1.560079,0.788943 2.339789,0.881634 1.266481,0.150491 2.705901,-0.24209 3.712961,-1.012578 0.512316,-0.391966 41.095626,-41.06836 41.341175,-41.43599 0.108508,-0.162476 0.293071,-0.497902 0.410072,-0.745341 0.742715,-1.570689 0.620407,-3.505676 -0.315376,-4.989723 C 98.108106,50.283949 51.81761,4.0483813 51.037048,3.4641442 50.310189,2.9200918 49.815938,2.6157496 48.983293,2.1996174 47.653089,1.5347859 46.194302,1.0381996 44.733779,0.75295585 44.167463,0.64236992 43.379837,0.63758133 24.992112,0.63388484 Z M 24.610536,14.70075 c 0.471019,0.0028 0.947835,0.03655 1.427731,0.107422 3.536789,0.522461 6.551394,3.042862 7.711833,6.447558 0.3867,1.134562 0.47508,1.723615 0.474575,3.165768 0,1.434705 -0.07454,1.932327 -0.459425,3.083888 -1.158198,3.465631 -4.243345,6.008013 -7.899288,6.509641 -0.638285,0.08759 -2.11743,0.07575 -2.742581,-0.02184 -4.299351,-0.671946 -7.606846,-4.061688 -8.174758,-8.377757 -0.104004,-0.790232 -0.04063,-2.440451 0.1233,-3.209511 0.975139,-4.574767 4.985382,-7.718609 9.538613,-7.705055 z m 40.082096,16.405216 5.81619,5.714453 -9.776747,7.51662 4.258716,4.184257 9.776626,-7.51648 5.81619,5.714565 -9.776626,7.516507 5.134755,5.04503 -6.014679,4.612655 -5.134755,-5.045169 -5.559501,4.246733 5.134755,5.045029 -6.01468,4.612628 -5.134755,-5.045142 -9.944445,7.638715 -5.475472,-5.379812 9.94444,-7.638714 -4.915765,-4.829795 -9.94444,7.638576 -5.499723,-5.403672 9.968803,-7.614715 -4.599437,-4.519179 6.01468,-4.612515 4.599325,4.519039 5.535231,-4.270592 -4.575047,-4.495152 5.990303,-4.63643 4.599432,4.519039 z m -10.315831,17.508833 -5.535243,4.270592 4.915768,4.829935 5.559501,-4.246733 z"
     id="path6631"
     inkscape:connector-curvature="0" />
</svg>
