<?xml version="1.0" encoding="UTF-8" standalone="no"?>
<!-- Created with Inkscape (http://www.inkscape.org/) -->

<svg
   xmlns:dc="http://purl.org/dc/elements/1.1/"
   xmlns:cc="http://creativecommons.org/ns#"
   xmlns:rdf="http://www.w3.org/1999/02/22-rdf-syntax-ns#"
   xmlns:svg="http://www.w3.org/2000/svg"
   xmlns="http://www.w3.org/2000/svg"
   xmlns:sodipodi="http://sodipodi.sourceforge.net/DTD/sodipodi-0.dtd"
   xmlns:inkscape="http://www.inkscape.org/namespaces/inkscape"
   id="svg2"
   version="1.1"
   inkscape:version="0.91 r13725"
   width="100"
   height="100"
   sodipodi:docname="warehouse-goods-receiption.svg">
  <metadata
     id="metadata8">
    <rdf:RDF>
      <cc:Work
         rdf:about="">
        <dc:format>image/svg+xml</dc:format>
        <dc:type
           rdf:resource="http://purl.org/dc/dcmitype/StillImage" />
        <dc:title></dc:title>
      </cc:Work>
    </rdf:RDF>
  </metadata>
  <defs
     id="defs6" />
  <sodipodi:namedview
     pagecolor="#ffffff"
     bordercolor="#666666"
     borderopacity="1"
     objecttolerance="10"
     gridtolerance="10"
     guidetolerance="10"
     inkscape:pageopacity="0"
     inkscape:pageshadow="2"
     inkscape:window-width="2495"
     inkscape:window-height="1416"
     id="namedview4"
     showgrid="false"
     inkscape:zoom="0.70710678"
     inkscape:cx="777.3872"
     inkscape:cy="-352.4716"
     inkscape:window-x="65"
     inkscape:window-y="24"
     inkscape:window-maximized="1"
     inkscape:current-layer="svg2"
     showborder="true" />
  <path
     style="fill:#000000"
     d=""
     id="path3011"
     inkscape:connector-curvature="0" />
  <path
     style="fill:#000000"
     d=""
     id="path3009"
     inkscape:connector-curvature="0" />
  <path
     style="fill:#000000"
     d=""
     id="path2989"
     inkscape:connector-curvature="0" />
  <path
     style="fill:#000000"
     d=""
     id="path2987"
     inkscape:connector-curvature="0" />
  <path
     style="fill:#000000"
     d=""
     id="path3813"
     inkscape:connector-curvature="0" />
  <g
     style="font-style:normal;font-weight:normal;font-size:56.07156754px;line-height:125%;font-family:Sans;letter-spacing:0px;word-spacing:0px;fill:#000000;fill-opacity:1;stroke:none;stroke-width:1px;stroke-linecap:butt;stroke-linejoin:miter;stroke-opacity:1"
     id="text5053" />
  <path
     style="fill:#000000"
     d="M 43.585938 17.107422 L 22.632812 30.953125 L 1.0761719 45.402344 C 0.80212986 58.800266 0.86279254 72.193126 1.0039062 86.269531 L 7.2246094 86.269531 L 13.447266 86.269531 L 13.490234 68.623047 L 13.533203 50.972656 L 27.962891 41.685547 C 35.898966 36.576916 42.73161 32.249505 43.148438 32.068359 C 43.565269 31.887215 50.707998 36.187244 59.019531 41.623047 L 74.130859 51.505859 L 74.130859 51.527344 L 85.341797 51.527344 C 85.344906 49.370538 85.353516 47.252934 85.353516 45.074219 L 70.724609 34.853516 C 62.842046 29.345451 53.340252 23.347366 49.878906 21.132812 L 43.585938 17.107422 z M 18.716797 55.662109 L 18.716797 69.498047 L 32.552734 69.498047 L 32.552734 55.662109 L 18.716797 55.662109 z M 18.716797 72.435547 L 18.716797 86.269531 L 32.552734 86.269531 L 32.552734 72.435547 L 18.716797 72.435547 z M 35.744141 72.435547 L 35.744141 86.269531 L 49.578125 86.269531 L 49.578125 72.435547 L 35.744141 72.435547 z "
     id="path5009" />
  <g
     id="g5102"
     transform="matrix(1,0,0,1.022611,127.18958,89.952488)">
    <path
       inkscape:connector-curvature="0"
       id="path3011-5"
       d=""
       style="fill:#000000" />
    <path
       inkscape:connector-curvature="0"
       id="path3009-2"
       d=""
       style="fill:#000000" />
    <path
       inkscape:connector-curvature="0"
       id="path2989-5"
       d=""
       style="fill:#000000" />
    <path
       inkscape:connector-curvature="0"
       id="path2987-4"
       d=""
       style="fill:#000000" />
    <path
       inkscape:connector-curvature="0"
       id="path3813-7"
       d=""
       style="fill:#000000" />
    <path
       sodipodi:nodetypes="sccccscscsscscsccccsscccsssscccssscccsssssssssss"
       inkscape:connector-curvature="0"
       id="path4627"
       d="m -51.902025,-31.677505 c -1.763614,-0.0013 -3.963876,0.01346 -6.730502,0.02671 l -13.140504,0.05342 -0.05342,8.519962 c -0.05883,7.782169 -0.03205,8.535813 0.347209,8.813752 0.319403,0.234095 3.38506,0.293792 13.354171,0.293792 11.56928,0 12.977724,-0.05087 13.327462,-0.400625 0.346855,-0.34685 0.382558,-1.306029 0.3205,-8.519961 -0.06664,-7.746595 -0.08223,-8.162991 -0.534166,-8.493253 -0.299883,-0.219512 -1.599909,-0.289961 -6.890753,-0.293792 z m 12.232421,10.202587 c -1.241881,0.0062 -2.055931,0.08471 -2.296917,0.213667 -0.482028,0.257972 -0.507459,0.45886 -0.507459,4.460293 0,2.939872 -0.08946,4.282665 -0.293792,4.487001 -0.219404,0.219468 -3.709256,0.302313 -14.048588,0.3205 -7.560038,0.01332 -14.008162,0.0947 -14.342379,0.186959 -0.473278,0.130546 -0.631898,0.337632 -0.694417,0.988209 -0.08328,0.866708 0.612159,4.819644 0.934792,5.341668 0.101111,0.163607 0.76408,0.381419 1.495667,0.48075 1.397513,0.18964 2.150044,0.617561 2.872326,1.513997 0.236147,0.293085 1.372661,1.137908 1.801634,1.370504 1.601223,0.86821 3.83371,0.406634 5.742293,-1.629209 l 1.095042,-1.175167 9.294503,-0.16025 c 10.131192,-0.16957 10.179449,-0.150084 10.977129,1.201876 1.154287,1.956381 3.45213,2.750556 5.395085,1.869583 1.362234,-0.617658 3.839741,-2.845486 4.246626,-3.819292 0.238689,-0.571256 0.249974,-1.385839 0.08013,-3.498793 -0.371511,-4.621646 -0.684152,-5.244902 -4.647251,-9.374628 l -2.564001,-2.697543 -3.178293,-0.08012 c -0.503758,-0.01266 -0.948165,-0.0021 -1.362125,0 z m 1.949709,2.884501 c 1.542901,0 1.620008,0.0389 2.777667,1.12175 1.251182,1.170333 1.793642,2.23481 1.442251,2.804376 -0.153095,0.248141 -0.865846,0.335662 -2.697543,0.373917 -3.452302,0.07219 -3.599729,0.01271 -3.605626,-2.056542 -0.0057,-1.999894 0.21294,-2.243501 2.083251,-2.243501 z m -25.266092,9.321211 c 1.585399,0 2.884501,1.272394 2.884501,2.857793 0,1.585399 -1.299102,2.884501 -2.884501,2.884501 -1.585398,0 -2.857792,-1.299102 -2.857792,-2.884501 0,-1.585399 1.272394,-2.857793 2.857792,-2.857793 z m 29.379177,0 c 1.585398,0 2.8845,1.272394 2.8845,2.857793 0,1.585399 -1.299102,2.884501 -2.8845,2.884501 -1.585399,0 -2.857793,-1.299102 -2.857793,-2.884501 0,-1.585399 1.272394,-2.857793 2.857793,-2.857793 z"
       style="fill:#000000" />
  </g>
</svg>
