<?xml version="1.0" encoding="UTF-8" standalone="no"?>
<!-- Created with Inkscape (http://www.inkscape.org/) -->

<svg
   xmlns:dc="http://purl.org/dc/elements/1.1/"
   xmlns:cc="http://creativecommons.org/ns#"
   xmlns:rdf="http://www.w3.org/1999/02/22-rdf-syntax-ns#"
   xmlns:svg="http://www.w3.org/2000/svg"
   xmlns="http://www.w3.org/2000/svg"
   xmlns:sodipodi="http://sodipodi.sourceforge.net/DTD/sodipodi-0.dtd"
   xmlns:inkscape="http://www.inkscape.org/namespaces/inkscape"
   id="svg2"
   version="1.1"
   inkscape:version="0.48.4 r9939"
   width="100"
   height="100"
   sodipodi:docname="checklist.svg">
  <metadata
     id="metadata8">
    <rdf:RDF>
      <cc:Work
         rdf:about="">
        <dc:format>image/svg+xml</dc:format>
        <dc:type
           rdf:resource="http://purl.org/dc/dcmitype/StillImage" />
        <dc:title></dc:title>
      </cc:Work>
    </rdf:RDF>
  </metadata>
  <defs
     id="defs6" />
  <sodipodi:namedview
     pagecolor="#ffffff"
     bordercolor="#666666"
     borderopacity="1"
     objecttolerance="10"
     gridtolerance="10"
     guidetolerance="10"
     inkscape:pageopacity="0"
     inkscape:pageshadow="2"
     inkscape:window-width="1920"
     inkscape:window-height="1058"
     id="namedview4"
     showgrid="false"
     inkscape:zoom="2.6074563"
     inkscape:cx="168.66508"
     inkscape:cy="1.6755769"
     inkscape:window-x="-8"
     inkscape:window-y="-8"
     inkscape:window-maximized="1"
     inkscape:current-layer="svg2" />
  <path
     style="fill:#000000"
     d=""
     id="path3011"
     inkscape:connector-curvature="0" />
  <path
     style="fill:#000000"
     d=""
     id="path3009"
     inkscape:connector-curvature="0" />
  <path
     style="fill:#000000"
     d=""
     id="path2989"
     inkscape:connector-curvature="0" />
  <path
     style="fill:#000000"
     d=""
     id="path2987"
     inkscape:connector-curvature="0" />
  <path
     style="fill:#000000"
     d=""
     id="path3813"
     inkscape:connector-curvature="0" />
  <path
     style="fill:#000000"
     d="m 20.469325,12.401689 c -1.415303,-0.03471 -2.882643,0.394576 -4.236426,1.281608 -3.699158,2.423781 -4.7313,6.745351 -2.456415,10.217262 1.741861,2.658417 1.666716,2.740686 -3.27522,4.628029 -6.7300887,2.570245 -8.3586162,5.55625 -9.8762709,12.301768 -0.63950945,2.842428 -0.0487823,5.552788 1.1136957,6.11993 0.9620292,0.469348 3.7056342,0.480832 3.6717459,-2.935606 -0.075883,-7.650097 3.7327322,-9.982798 6.2656363,-8.971254 0.53789,0.214813 0.10942,3.840708 -0.640804,7.654047 -1.2423244,6.314619 -1.1398071,7.434673 1.068006,12.566876 2.727096,6.339302 3.094046,13.355814 0.854405,16.304899 -1.748569,2.302458 -6.2943106,5.414562 -9.3807645,6.01926 -2.0600324,0.403601 -2.504274,2.158584 -1.9659279,3.490196 0.8625399,2.133516 3.3050138,2.225043 10.2074864,-1.214606 7.032716,-3.50455 10.680064,-9.325179 10.680064,-16.981303 0,-5.931126 0.672968,-6.279912 5.126432,-2.776817 6.287178,4.945495 7.301686,11.324986 2.707158,18.382632 -1.833833,2.816946 -0.08507,4.864839 1.230519,5.005169 3.654801,0.389849 4.296266,-0.876542 6.279585,-5.623293 3.890854,-9.312125 2.300192,-14.495747 -7.654047,-24.991351 -2.224653,-2.345641 -4.229127,-5.806239 -4.521228,-7.796448 -0.470863,-3.2082 -0.287012,-3.472784 1.851212,-2.741216 1.308075,0.447541 6.230038,1.113063 10.929266,1.495209 3.38178,-0.08001 3.46942,-4.815594 0.477834,-4.86166 -8.293596,-0.127708 -7.647662,-0.01018 -10.267893,-6.281208 -0.927949,-2.220893 -2.43365,-4.108959 -2.848017,-4.734828 -1.787783,-2.700306 -0.97349,-2.485156 0.783205,-4.806029 1.787017,-2.360935 2.118997,-4.454939 0.341519,-7.167711 -1.56499,-2.388479 -4.10592,-3.525705 -6.464756,-3.583555 z"
     id="path4085"
     inkscape:connector-curvature="0"
     sodipodi:nodetypes="ssssssssssssssssssssssccsssss" />
  <rect
     style="fill:#000000;fill-opacity:1;stroke:none"
     id="rect4092"
     width="3.1227739"
     height="24.650694"
     x="47.291504"
     y="49.452129"
     ry="1.2641381" />
  <rect
     style="fill:#000000;fill-opacity:1;stroke:none"
     id="rect4092-4"
     width="3.1227739"
     height="51.508778"
     x="70.980049"
     y="-98.800278"
     ry="2.6414759"
     transform="matrix(0,1,-1,0,0,0)" />
  <path
     sodipodi:type="arc"
     style="fill:#000000;fill-opacity:1;stroke:none"
     id="path4114"
     sodipodi:cx="73.694916"
     sodipodi:cy="47.18644"
     sodipodi:rx="4.1355934"
     sodipodi:ry="4.1355934"
     d="m 77.830509,47.18644 a 4.1355934,4.1355934 0 1 1 -8.271187,0 4.1355934,4.1355934 0 1 1 8.271187,0 z"
     transform="matrix(1.0178121,0,0,1.0178121,-22.263639,31.490634)" />
  <path
     sodipodi:type="arc"
     style="fill:#000000;fill-opacity:1;stroke:none"
     id="path4114-8"
     sodipodi:cx="73.694916"
     sodipodi:cy="47.18644"
     sodipodi:rx="4.1355934"
     sodipodi:ry="4.1355934"
     d="m 77.830509,47.18644 a 4.1355934,4.1355934 0 1 1 -8.271187,0 4.1355934,4.1355934 0 1 1 8.271187,0 z"
     transform="matrix(1.0178121,0,0,1.0178121,13.135519,31.490634)" />
  <rect
     style="fill:#000000;fill-opacity:1;stroke:none"
     id="rect4092-8"
     width="3.5727527"
     height="10.849753"
     x="-5.8021874"
     y="60.93224"
     ry="1.7889208"
     transform="matrix(0.69882949,-0.7152883,0.73445296,0.6786596,0,0)" />
  <path
     style="fill:#000000;fill-opacity:1;stroke:none"
     d="m 76.237095,54.632627 0,14.503822 22.232832,0 0,-14.503822 -7.91985,0 0,3.117049 -6.361326,0 0,-3.117049 -7.951656,0 z"
     id="rect4152"
     inkscape:connector-curvature="0" />
  <path
     inkscape:connector-curvature="0"
     style="fill:#000000;fill-opacity:1;stroke:none"
     d="m 52.175768,54.632627 0,14.503822 22.232832,0 0,-14.503822 -7.91985,0 0,3.117049 -6.361325,0 0,-3.117049 -7.951657,0 z"
     id="rect4152-2" />
  <path
     style="fill:#000000;fill-opacity:1;stroke:none"
     d="m 63.888001,42.999117 0,8.810771 10.520599,0 0,-8.810771 -3.747676,0 0,1.893543 -3.010188,0 0,-1.893543 -3.762735,0 z"
     id="rect4152-4-5-1"
     inkscape:connector-curvature="0" />
  <path
     style="fill:#000000;fill-opacity:1;stroke:none"
     d="m 52.175768,42.999117 0,8.810771 10.520599,0 0,-8.810771 -3.747677,0 0,1.893543 -3.010187,0 0,-1.893543 -3.762735,0 z"
     id="rect4152-4-5-1-1"
     inkscape:connector-curvature="0" />
</svg>
