<?xml version="1.0" encoding="UTF-8" standalone="no"?>
<!-- Created with Inkscape (http://www.inkscape.org/) -->

<svg
   xmlns:dc="http://purl.org/dc/elements/1.1/"
   xmlns:cc="http://creativecommons.org/ns#"
   xmlns:rdf="http://www.w3.org/1999/02/22-rdf-syntax-ns#"
   xmlns:svg="http://www.w3.org/2000/svg"
   xmlns="http://www.w3.org/2000/svg"
   xmlns:sodipodi="http://sodipodi.sourceforge.net/DTD/sodipodi-0.dtd"
   xmlns:inkscape="http://www.inkscape.org/namespaces/inkscape"
   id="svg2"
   version="1.1"
   inkscape:version="0.91 r13725"
   width="100"
   height="100"
   sodipodi:docname="warehouse-shelf.svg">
  <metadata
     id="metadata8">
    <rdf:RDF>
      <cc:Work
         rdf:about="">
        <dc:format>image/svg+xml</dc:format>
        <dc:type
           rdf:resource="http://purl.org/dc/dcmitype/StillImage" />
        <dc:title></dc:title>
      </cc:Work>
    </rdf:RDF>
  </metadata>
  <defs
     id="defs6" />
  <sodipodi:namedview
     pagecolor="#ffffff"
     bordercolor="#666666"
     borderopacity="1"
     objecttolerance="10"
     gridtolerance="10"
     guidetolerance="10"
     inkscape:pageopacity="0"
     inkscape:pageshadow="2"
     inkscape:window-width="2495"
     inkscape:window-height="1416"
     id="namedview4"
     showgrid="false"
     inkscape:zoom="5.6568543"
     inkscape:cx="82.933617"
     inkscape:cy="82.90033"
     inkscape:window-x="65"
     inkscape:window-y="24"
     inkscape:window-maximized="1"
     inkscape:current-layer="svg2"
     showborder="true" />
  <path
     style="fill:#000000"
     d=""
     id="path3011"
     inkscape:connector-curvature="0" />
  <path
     style="fill:#000000"
     d=""
     id="path3009"
     inkscape:connector-curvature="0" />
  <path
     style="fill:#000000"
     d=""
     id="path2989"
     inkscape:connector-curvature="0" />
  <path
     style="fill:#000000"
     d=""
     id="path2987"
     inkscape:connector-curvature="0" />
  <path
     style="fill:#000000"
     d=""
     id="path3813"
     inkscape:connector-curvature="0" />
  <g
     style="font-style:normal;font-weight:normal;font-size:56.07156754px;line-height:125%;font-family:Sans;letter-spacing:0px;word-spacing:0px;fill:#000000;fill-opacity:1;stroke:none;stroke-width:1px;stroke-linecap:butt;stroke-linejoin:miter;stroke-opacity:1"
     id="text5053" />
  <path
     style="fill:#000000;fill-opacity:1;stroke:none"
     d="m 0.89648438,5.375 0,90.095703 6.11132812,0 c 0.1242461,-4.54469 -0.107751,-5.027344 4.8808595,-5.027344 l 75.21875,0 c 5.364942,0.244791 5.037684,0.215153 5.36914,5.027344 l 7.03711,0 0,-90.095703 -7.03711,0 0,33.353516 -85.4687495,0 0,-33.353516 -6.11132812,0 z m 6.11132812,38.652344 85.4687495,0 0,41.136718 -85.4687495,0 0,-41.136718 z"
     id="rect5199"
     inkscape:connector-curvature="0" />
  <g
     id="g5248-3-1"
     transform="matrix(0.698459,0,0,0.53830852,38.200444,-18.050604)">
    <path
       style="fill:#000000;fill-opacity:1;stroke:none"
       d="m 10.490234,25.029297 c -0.6577448,0 -1.1874996,0.413579 -1.1874996,0.927734 l 0,11.716797 c 0,0.514155 0.5297548,0.927734 1.1874996,0.927734 l 20.25,0 c 0.657746,0 1.1875,-0.413579 1.1875,-0.927734 l 0,-11.716797 c 0,-0.514155 -0.529754,-0.927734 -1.1875,-0.927734 l -5.919922,0 0.150391,8.283203 c -0.04346,0.239168 -0.301551,1.012726 -0.5,0.861328 -0.17411,-0.132826 -0.409274,-0.679767 -0.574219,-0.658203 -0.229825,0.03004 -0.338418,0.623727 -0.546875,0.570313 -0.200792,-0.05145 -0.356961,-0.857352 -0.542968,-0.802735 -0.161546,0.04743 -0.318213,0.761742 -0.550782,0.738281 -0.213771,-0.02156 -0.279754,-0.556801 -0.476562,-0.552734 -0.198263,0.0041 -0.360289,0.607925 -0.546875,0.59375 -0.227572,-0.01728 -0.444275,-0.600645 -0.660156,-0.605469 -0.276644,-0.0062 -0.287772,0.77372 -0.556641,0.722657 -0.271314,-0.05153 -0.308557,-0.637451 -0.582031,-0.720704 -0.285206,0.30778 -0.330702,0.668693 -0.46875,0.63086 -0.138938,8e-5 -0.214984,-0.490853 -0.431641,-0.580078 -0.177884,-0.06779 -0.316712,0.503995 -0.507812,0.673828 -0.116173,0.103237 -0.287104,-0.365302 -0.322266,-0.375 l -0.15625,-8.779297 -7.056641,0 z"
       transform="matrix(1.4254144,0,0,1.8234957,-53.509647,28.984385)"
       id="rect5242-0-4"
       inkscape:connector-curvature="0" />
  </g>
  <g
     id="g5248-8-8"
     transform="matrix(1.0188631,0,0,1.2340811,98.1187,-83.229802)">
    <path
       style="fill:#000000;fill-opacity:1;stroke:none"
       d="m -39.056413,71.413735 c -0.660987,0 -1.192824,0.532131 -1.192824,1.193118 l 0,22.363202 c 0,0.660987 0.531837,1.193118 1.192824,1.193118 l 29.8625809,0 c 0.660988,0 1.194732,-0.532131 1.194732,-1.193118 l 0,-22.363202 c 0,-0.660987 -0.533744,-1.193118 -1.194732,-1.193118 l -12.7660769,0 0.145048,9.254435 c -0.04613,0.189672 -0.310369,0.800229 -0.50194,0.677343 -0.168077,-0.107812 -0.390074,-0.544848 -0.551563,-0.529756 -0.22501,0.02102 -0.339167,0.492502 -0.542018,0.447419 -0.195394,-0.04342 -0.334635,-0.685835 -0.517209,-0.644719 -0.158564,0.03571 -0.322784,0.601031 -0.549653,0.57947 -0.208532,-0.01981 -0.265693,-0.446644 -0.458044,-0.445866 -0.193774,7.85e-4 -0.361843,0.479665 -0.543927,0.466062 -0.222083,-0.01658 -0.424686,-0.484388 -0.635537,-0.490919 -0.270198,-0.0083 -0.293466,0.61101 -0.555379,0.567043 -0.264294,-0.04437 -0.291369,-0.508292 -0.557287,-0.577917 -0.283377,0.241222 -0.333289,0.525837 -0.467588,0.494025 -0.13575,-0.0017 -0.201925,-0.392395 -0.412239,-0.466061 -0.172762,-0.05613 -0.31835,0.397072 -0.507666,0.529756 -0.115089,0.08066 -0.274974,-0.294788 -0.30918,-0.30294 l -0.219479,-9.557375 -9.912843,0 z"
       id="rect5242-6-4"
       inkscape:connector-curvature="0" />
  </g>
  <path
     inkscape:connector-curvature="0"
     style="fill:#000000;fill-opacity:1;stroke:none"
     d="m 40.881286,60.91903 c -1.172062,0 -2.115636,0.930313 -2.115636,2.085907 l 0,15.268531 c 0,1.155593 0.943574,2.085907 2.115636,2.085907 l 22.653641,0 c 1.172062,0 2.115636,-0.930314 2.115636,-2.085907 l 0,-15.268531 c 0,-1.155594 -0.943574,-2.085907 -2.115636,-2.085907 l -7.863633,0 0.02139,8.771161 c -0.047,0.23407 -0.316224,0.989465 -0.511409,0.837814 -0.171247,-0.133048 -0.397431,-0.672387 -0.561966,-0.653763 -0.229254,0.02594 -0.345565,0.607788 -0.552243,0.552151 -0.199078,-0.05358 -0.340946,-0.848293 -0.526964,-0.797552 -0.161555,0.04406 -0.328873,0.743639 -0.560021,0.71703 -0.212466,-0.02445 -0.268761,-0.551194 -0.464741,-0.550234 -0.197429,9.69e-4 -0.368668,0.590028 -0.554188,0.573241 -0.226271,-0.02047 -0.434641,-0.595857 -0.649469,-0.603916 -0.275295,-0.0103 -0.297056,0.754035 -0.56391,0.699776 -0.26928,-0.05475 -0.296864,-0.629191 -0.567799,-0.715114 -0.288722,0.297688 -0.341521,0.650843 -0.478352,0.611585 -0.138311,-0.0021 -0.205734,-0.486166 -0.420016,-0.577075 -0.17602,-0.06927 -0.32241,0.490019 -0.515297,0.653763 -0.11726,0.09954 -0.282107,-0.361875 -0.316957,-0.371936 l -0.01944,-9.146931 -7.548621,0 z"
     id="rect5242-6" />
  <path
     inkscape:connector-curvature="0"
     style="fill:#000000;fill-opacity:1;stroke:none"
     d="m 12.203526,60.91903 c -1.172062,0 -2.115636,0.930313 -2.115636,2.085907 l 0,15.268531 c 0,1.155593 0.943574,2.085907 2.115636,2.085907 l 22.653642,0 c 1.172062,0 2.115636,-0.930314 2.115636,-2.085907 l 0,-15.268531 c 0,-1.155594 -0.943574,-2.085907 -2.115636,-2.085907 l -7.163607,0 -1.02865,8.569856 c -0.07516,0.226817 -0.433318,0.94436 -0.608634,0.770711 -0.153816,-0.152347 -0.312739,-0.714134 -0.478352,-0.715112 -0.230756,-0.0014 -0.417999,0.560903 -0.616412,0.481215 -0.191118,-0.07675 -0.235001,-0.881516 -0.42585,-0.853151 -0.165746,0.02466 -0.417396,0.699861 -0.643635,0.646094 -0.207954,-0.04941 -0.200058,-0.579765 -0.394738,-0.601999 -0.196121,-0.0224 -0.438167,0.542837 -0.620301,0.504222 -0.222147,-0.0471 -0.357449,-0.64335 -0.569744,-0.676769 -0.272052,-0.0428 -0.38726,0.71428 -0.645581,0.628839 -0.26067,-0.08622 -0.217887,-0.66102 -0.476406,-0.77838 -0.322869,0.261375 -0.417289,0.605398 -0.548354,0.550234 -0.137063,-0.01842 -0.146402,-0.505563 -0.34807,-0.62117 -0.166315,-0.0896 -0.379709,0.448839 -0.591133,0.588578 -0.128528,0.08495 -0.234969,-0.394251 -0.268344,-0.408362 l 0.974204,-8.084806 -8.200035,0 z"
     id="rect5242-6-9" />
  <g
     id="g5248-3-1-6"
     transform="matrix(0.698459,0,0,0.53830852,95.555466,26.864289)">
    <path
       inkscape:connector-curvature="0"
       style="fill:#000000;fill-opacity:1;stroke:none"
       d="m 68.097656,72.785156 c -0.657745,0 -1.185547,0.415533 -1.185547,0.929688 l 0,11.714844 c 0,0.514155 0.527802,0.929687 1.185547,0.929687 l 20.251953,0 c 0.657746,0 1.1875,-0.415532 1.1875,-0.929687 l 0,-11.714844 c 0,-0.514155 -0.529754,-0.929688 -1.1875,-0.929688 l -7.58789,0 0.01172,4.960938 c -0.04721,0.238457 -0.317623,1.006055 -0.513672,0.851562 -0.172005,-0.135542 -0.39919,-0.684988 -0.564454,-0.666015 -0.230269,0.02643 -0.347094,0.619179 -0.554687,0.5625 -0.19996,-0.05459 -0.342456,-0.862239 -0.529297,-0.810547 -0.16227,0.04489 -0.330328,0.755622 -0.5625,0.728515 -0.213406,-0.02491 -0.271903,-0.561524 -0.46875,-0.560547 -0.198303,9.87e-4 -0.370299,0.603039 -0.55664,0.585938 -0.227273,-0.02085 -0.434612,-0.608978 -0.650391,-0.617188 -0.276513,-0.01049 -0.300325,0.768167 -0.568359,0.712891 -0.270472,-0.05578 -0.298179,-0.639029 -0.570313,-0.726562 -0.29,0.303267 -0.341079,0.661087 -0.478516,0.621093 -0.138923,-0.0021 -0.206645,-0.493323 -0.421875,-0.585937 -0.176799,-0.07057 -0.32579,0.499203 -0.519531,0.666015 -0.117779,0.101402 -0.281401,-0.37061 -0.316406,-0.380859 l -0.01172,-5.341797 -5.388672,0 z"
       transform="matrix(1.4254144,0,0,1.8234957,-135.62617,-58.099689)"
       id="rect5242-0-4-4" />
  </g>
</svg>
