<?xml version="1.0" encoding="UTF-8" standalone="no"?>
<!-- Created with Inkscape (http://www.inkscape.org/) -->

<svg
   xmlns:dc="http://purl.org/dc/elements/1.1/"
   xmlns:cc="http://creativecommons.org/ns#"
   xmlns:rdf="http://www.w3.org/1999/02/22-rdf-syntax-ns#"
   xmlns:svg="http://www.w3.org/2000/svg"
   xmlns="http://www.w3.org/2000/svg"
   xmlns:sodipodi="http://sodipodi.sourceforge.net/DTD/sodipodi-0.dtd"
   xmlns:inkscape="http://www.inkscape.org/namespaces/inkscape"
   id="svg2"
   version="1.1"
   inkscape:version="0.91 r13725"
   width="100"
   height="100"
   sodipodi:docname="warehouse.svg">
  <metadata
     id="metadata8">
    <rdf:RDF>
      <cc:Work
         rdf:about="">
        <dc:format>image/svg+xml</dc:format>
        <dc:type
           rdf:resource="http://purl.org/dc/dcmitype/StillImage" />
        <dc:title></dc:title>
      </cc:Work>
    </rdf:RDF>
  </metadata>
  <defs
     id="defs6" />
  <sodipodi:namedview
     pagecolor="#ffffff"
     bordercolor="#666666"
     borderopacity="1"
     objecttolerance="10"
     gridtolerance="10"
     guidetolerance="10"
     inkscape:pageopacity="0"
     inkscape:pageshadow="2"
     inkscape:window-width="2495"
     inkscape:window-height="1416"
     id="namedview4"
     showgrid="false"
     inkscape:zoom="2.8284271"
     inkscape:cx="-52.773315"
     inkscape:cy="-11.638215"
     inkscape:window-x="65"
     inkscape:window-y="24"
     inkscape:window-maximized="1"
     inkscape:current-layer="svg2"
     showborder="true" />
  <path
     style="fill:#000000"
     d=""
     id="path3011"
     inkscape:connector-curvature="0" />
  <path
     style="fill:#000000"
     d=""
     id="path3009"
     inkscape:connector-curvature="0" />
  <path
     style="fill:#000000"
     d=""
     id="path2989"
     inkscape:connector-curvature="0" />
  <path
     style="fill:#000000"
     d=""
     id="path2987"
     inkscape:connector-curvature="0" />
  <path
     style="fill:#000000"
     d=""
     id="path3813"
     inkscape:connector-curvature="0" />
  <g
     style="font-style:normal;font-weight:normal;font-size:56.07156754px;line-height:125%;font-family:Sans;letter-spacing:0px;word-spacing:0px;fill:#000000;fill-opacity:1;stroke:none;stroke-width:1px;stroke-linecap:butt;stroke-linejoin:miter;stroke-opacity:1"
     id="text5053" />
  <path
     style="fill:#000000"
     d="M 50.597656 8.1074219 L 26.082031 24.308594 L 0.859375 41.214844 C 0.53873312 56.891034 0.60832795 72.561203 0.7734375 89.03125 L 8.0527344 89.03125 L 15.333984 89.03125 L 15.382812 68.382812 L 15.433594 47.732422 L 32.316406 36.865234 C 41.601982 30.887898 49.598231 25.823277 50.085938 25.611328 C 50.573649 25.399381 58.929417 30.430875 68.654297 36.791016 L 86.335938 48.355469 L 86.335938 68.693359 L 86.335938 89.03125 L 92.857422 89.03125 L 99.378906 89.03125 C 99.378906 72.757738 99.466797 57.10359 99.466797 40.830078 L 82.351562 28.871094 C 73.128598 22.426402 62.010874 15.409489 57.960938 12.818359 L 50.597656 8.1074219 z M 21.5 53.21875 L 21.5 69.40625 L 37.6875 69.40625 L 37.6875 53.21875 L 21.5 53.21875 z M 41.421875 53.21875 L 41.421875 69.40625 L 57.609375 69.40625 L 57.609375 53.21875 L 41.421875 53.21875 z M 21.5 72.84375 L 21.5 89.03125 L 37.6875 89.03125 L 37.6875 72.84375 L 21.5 72.84375 z M 41.421875 72.84375 L 41.421875 89.03125 L 57.609375 89.03125 L 57.609375 72.84375 L 41.421875 72.84375 z M 61.34375 72.84375 L 61.34375 89.03125 L 77.53125 89.03125 L 77.53125 72.84375 L 61.34375 72.84375 z "
     id="path5009" />
</svg>
