<?xml version="1.0" encoding="UTF-8" standalone="no"?>
<!-- Generator: Adobe Illustrator 15.0.0, SVG Export Plug-In . SVG Version: 6.00 Build 0)  -->

<svg
   xmlns:dc="http://purl.org/dc/elements/1.1/"
   xmlns:cc="http://creativecommons.org/ns#"
   xmlns:rdf="http://www.w3.org/1999/02/22-rdf-syntax-ns#"
   xmlns:svg="http://www.w3.org/2000/svg"
   xmlns="http://www.w3.org/2000/svg"
   xmlns:sodipodi="http://sodipodi.sourceforge.net/DTD/sodipodi-0.dtd"
   xmlns:inkscape="http://www.inkscape.org/namespaces/inkscape"
   version="1.1"
   id="Layer_1"
   x="0px"
   y="0px"
   width="283.464px"
   height="283.464px"
   viewBox="0 0 283.464 283.464"
   enable-background="new 0 0 283.464 283.464"
   xml:space="preserve"
   sodipodi:docname="WERBASInnotec-icon.svg"
   inkscape:version="0.92.1 r15371"><metadata
     id="metadata6400"><rdf:RDF><cc:Work
         rdf:about=""><dc:format>image/svg+xml</dc:format><dc:type
           rdf:resource="http://purl.org/dc/dcmitype/StillImage" /><dc:title></dc:title></cc:Work></rdf:RDF></metadata><defs
     id="defs6398" /><sodipodi:namedview
     pagecolor="#ffffff"
     bordercolor="#666666"
     borderopacity="1"
     objecttolerance="10"
     gridtolerance="10"
     guidetolerance="10"
     inkscape:pageopacity="0"
     inkscape:pageshadow="2"
     inkscape:window-width="1920"
     inkscape:window-height="1017"
     id="namedview6396"
     showgrid="false"
     inkscape:zoom="1.4957809"
     inkscape:cx="42.612977"
     inkscape:cy="132.38089"
     inkscape:window-x="-8"
     inkscape:window-y="-6"
     inkscape:window-maximized="1"
     inkscape:current-layer="Layer_1" /><path
     style="fill:#000000;fill-opacity:1;stroke-width:2.50399089"
     d="M 256.65431,6.7169933 2.3886886,33.550922 27.917986,277.44925 282.1836,250.61337 Z M 120.64063,67.78136 c 6.85955,-0.06037 13.68733,0.910329 20.07228,2.923921 7.38922,2.329976 12.85588,5.185035 19.57226,10.2224 l 6.10546,4.580315 7.48438,-0.678007 c 12.20567,-1.100289 20.54559,0.327737 31.13672,5.332175 4.25795,2.011984 13.01118,8.621189 15.99805,12.080116 5.60594,6.49227 9.62189,14.60198 11.17578,22.56645 l 0.78711,4.03296 3.86132,1.77938 c 10.11687,4.66384 18.14268,13.15613 22.20508,23.49431 1.8536,4.71702 2.95453,15.16922 2.10156,19.94719 -2.84971,15.96495 -13.28371,27.96966 -30.00976,34.52518 -3.45123,1.35276 -3.95675,1.41233 -75.28711,8.97298 -39.4969,4.18422 -72.39596,7.58879 -73.109371,7.56223 C 68.10089,224.58449 58.679287,221.39445 48.398452,213.49623 40.742577,207.61342 35.973,201.43432 32.49611,192.90044 c -1.654339,-4.06051 -1.944893,-5.39794 -2.671878,-12.31466 -0.726564,-6.91165 -0.721057,-8.28999 0.05079,-12.60717 1.57545,-8.81093 5.008442,-16.0117 11.054689,-23.18543 4.397998,-5.21845 8.215417,-8.58089 12.818357,-11.29512 l 3.427734,-2.02333 0.06251,-5.29912 c 0.159754,-13.91957 4.79355,-25.75948 14.308596,-36.558406 5.004075,-5.678774 9.949953,-9.703556 16.42773,-13.369297 9.711333,-5.494656 21.233292,-8.383521 32.666012,-8.466547 z m 0.89063,17.105496 c -5.68588,0.01095 -12.5345,1.018359 -16.71679,2.605451 C 87.3446,94.110657 76.460179,108.20631 75.636732,125.2792 l -0.09959,2.0605 3.707034,-0.47433 c 3.738458,-0.47735 12.362688,-0.14789 14.792975,0.22552 1.639897,0.24747 6.021109,0.59902 9.712889,4.10178 4.79529,4.54962 1.25587,9.97472 -2.12891,10.84571 -3.736475,0.96165 -5.393463,1.65521 -9.925775,0.50757 -3.123841,-0.79065 -5.573548,-0.76988 -11.527348,-0.0901 -10.889767,1.24154 -17.317056,4.47217 -23.992187,12.04702 -6.600854,7.49172 -9.025245,14.77508 -8.039062,24.15802 0.985935,9.38138 4.859309,15.9788 12.916014,22.00389 4.052653,3.0309 5.60729,3.8549 9.867189,5.23635 8.809801,2.85652 3.982265,3.14918 81.115239,-4.92184 59.57142,-6.23366 69.18091,-7.33573 71.94922,-8.24977 v 0.004 c 7.42139,-2.44547 13.83661,-8.05692 16.72264,-14.62901 3.69953,-8.42427 3.44833,-16.09335 -1.92187,-23.56454 -7.08727,-9.89369 -17.85485,-13.08283 -23.46484,-12.47057 -6.78205,0.0597 -9.55439,6.19375 -15.04883,6.44928 -3.41748,0.13171 -5.58777,-0.81313 -6.47851,-1.83999 -2.03845,-2.34931 -2.88844,-4.80876 -1.39063,-7.76733 3.43357,-5.57348 10.27384,-9.05674 14.82618,-10.08225 l 6.66796,-1.50773 -0.66015,-2.10931 c -2.12103,-6.77234 -5.80137,-11.81688 -11.95703,-16.39088 -5.21756,-3.87749 -9.52383,-5.72487 -15.98047,-6.85324 -4.98559,-0.8716 -11.93694,-0.48246 -16.50781,0.92355 -3.50043,1.07684 -3.65034,1.19191 -7.90235,5.94546 -4.07879,4.56011 -6.34477,6.33633 -8.35156,6.54671 -5.76663,0.92518 -7.4409,-0.87892 -8.94922,-3.2927 -1.21286,-1.94106 -2.08376,-5.68051 2.03125,-10.7014 l 4.76953,-5.818216 -1.90039,-1.484307 c -5.38071,-4.200099 -13.9253,-7.677736 -21.80078,-8.874922 -1.49474,-0.2292 -3.26098,-0.330924 -5.15627,-0.325971 z"
     id="rect4116"
     inkscape:connector-curvature="0" /></svg>