<?xml version="1.0" encoding="UTF-8" standalone="no"?>
<!-- Created with Inkscape (http://www.inkscape.org/) -->

<svg
   xmlns:dc="http://purl.org/dc/elements/1.1/"
   xmlns:cc="http://creativecommons.org/ns#"
   xmlns:rdf="http://www.w3.org/1999/02/22-rdf-syntax-ns#"
   xmlns:svg="http://www.w3.org/2000/svg"
   xmlns="http://www.w3.org/2000/svg"
   xmlns:sodipodi="http://sodipodi.sourceforge.net/DTD/sodipodi-0.dtd"
   xmlns:inkscape="http://www.inkscape.org/namespaces/inkscape"
   id="svg2"
   version="1.1"
   inkscape:version="0.48.4 r9939"
   width="100"
   height="100"
   sodipodi:docname="wheelsandaxles.svg"
   inkscape:export-filename="C:\Users\jherwig\Desktop\Screenshots\wheelsandaxles.png"
   inkscape:export-xdpi="1800"
   inkscape:export-ydpi="1800">
  <metadata
     id="metadata8">
    <rdf:RDF>
      <cc:Work
         rdf:about="">
        <dc:format>image/svg+xml</dc:format>
        <dc:type
           rdf:resource="http://purl.org/dc/dcmitype/StillImage" />
        <dc:title></dc:title>
      </cc:Work>
    </rdf:RDF>
  </metadata>
  <defs
     id="defs6" />
  <sodipodi:namedview
     pagecolor="#ffffff"
     bordercolor="#666666"
     borderopacity="1"
     objecttolerance="10"
     gridtolerance="10"
     guidetolerance="10"
     inkscape:pageopacity="0"
     inkscape:pageshadow="2"
     inkscape:window-width="1920"
     inkscape:window-height="1058"
     id="namedview4"
     showgrid="false"
     inkscape:zoom="2.6074563"
     inkscape:cx="-49.933888"
     inkscape:cy="45.224945"
     inkscape:window-x="-8"
     inkscape:window-y="-8"
     inkscape:window-maximized="1"
     inkscape:current-layer="svg2" />
  <path
     style="fill:#000000"
     d="m 15.529767,99.779121 c -2.851095,-0.04228 -2.928089,-0.0587 -3.689297,-0.785828 -0.459108,-0.438584 -0.675797,-0.819528 -0.752558,-1.32288 -0.101572,-0.666005 -0.141821,-4.023755 -0.141821,-11.830182 0,-7.775446 0.04028,-11.16518 0.140523,-11.820955 0.02627,-0.172209 0.103504,-0.434671 0.171563,-0.583265 0.153271,-0.334806 0.730582,-0.951001 1.098954,-1.173032 0.547983,-0.330192 0.473803,-0.325499 5.55447,-0.349665 5.484155,-0.02581 6.377736,0.01564 7.084206,0.327845 0.571109,0.252609 1.217101,1.133615 1.349452,1.840372 0.09569,0.510937 0.097,22.995845 0.0016,23.517484 -0.09769,0.532824 -0.308473,0.91628 -0.741992,1.349779 -0.403682,0.403713 -0.808264,0.641063 -1.24955,0.733044 -0.23097,0.04844 -4.795836,0.150539 -6.067417,0.136153 -0.303366,0 -1.544429,-0.02114 -2.75791,-0.03914 z m 62.053064,0 c -1.385185,-0.02186 -2.291068,-0.05713 -2.482121,-0.09579 -0.489976,-0.09989 -0.813246,-0.288191 -1.266137,-0.737489 l -0.413685,-0.410356 0,-12.689136 0,-12.689057 L 73.8095,72.7643 c 0.448159,-0.453132 0.842801,-0.672426 1.391496,-0.773 0.52352,-0.09597 10.06148,-0.0926 10.806006,0 0.969887,0.125601 1.359657,0.321666 1.791972,0.901338 0.583731,0.782783 0.597222,0.865753 0.669477,4.120035 0.07015,3.161141 0.02808,18.867125 -0.0535,19.95687 -0.0664,0.887182 -0.141719,1.191171 -0.381143,1.538802 -0.219551,0.318774 -0.690366,0.765572 -0.994742,0.943965 -0.432267,0.253306 -0.701496,0.278261 -3.514198,0.325804 -2.820477,0.04771 -2.730804,0.04771 -5.942051,0 z M 49.000813,93.579789 c -1.961541,-0.14735 -3.586673,-0.922464 -4.991292,-2.380784 -0.274907,-0.285461 -0.611096,-0.676732 -0.747076,-0.869596 -0.339928,-0.481984 -0.737863,-1.275868 -0.932677,-1.860631 -0.09815,-0.294605 -0.210229,-0.532583 -0.282258,-0.599379 -0.270847,-0.250963 -0.926209,-0.316032 -3.752418,-0.372501 -3.043108,-0.061 -7.487973,-0.061 -8.399097,-5.43e-4 -1.14052,0.07586 -1.740089,0.193008 -2.218874,0.433813 l -0.238181,0.119822 0,-2.208177 0,-2.20819 0.208236,0.106174 c 0.45806,0.233678 0.773204,0.311418 1.747377,0.430998 0.508622,0.06257 1.534428,0.08153 5.440609,0.101463 4.8564,0.025 6.664944,-0.01256 7.070144,-0.145152 0.195596,-0.06414 0.200609,-0.07199 0.259594,-0.397214 0.18187,-1.003478 1.057957,-2.493396 2.045879,-3.479287 0.869274,-0.867554 2.31198,-1.723295 3.241271,-1.922488 0.407218,-0.08733 0.422358,-0.09579 0.478582,-0.264491 0.170092,-0.510551 0.182888,-1.654409 0.204207,-18.246339 0.02776,-21.605324 -0.02417,-24.651467 -0.463442,-27.203059 -0.255002,-1.481137 -0.61675,-2.094657 -1.362941,-2.311581 -0.193329,-0.05623 -0.663636,-0.0893 -1.708095,-0.120185 -0.792717,-0.02346 -1.509651,-0.0639 -1.593169,-0.08995 -0.32076,-0.09996 -0.578898,-0.269088 -0.697499,-0.456958 -0.274853,-0.435387 -0.284214,-0.53895 -0.351887,-3.891048 -0.06608,-3.273593 -0.07823,-3.415517 -0.295545,-3.455089 -0.05928,-0.01075 -0.263473,-0.04301 -0.453719,-0.07171 -0.528729,-0.07958 -0.938449,-0.305986 -1.413543,-0.781143 -0.409673,-0.409719 -0.709951,-0.869477 -0.821661,-1.258049 -0.03167,-0.110317 -0.07766,-0.832393 -0.102043,-1.604603 -0.0244,-0.772219 -0.06898,-1.487949 -0.09911,-1.590518 -0.03011,-0.102562 -0.113119,-0.255863 -0.184475,-0.340672 -0.314901,-0.374236 -0.811236,-0.480192 -2.605632,-0.556225 -1.588782,-0.06734 -6.324977,-0.0312 -7.03883,0.05365 -0.515066,0.06124 -1.125293,0.209533 -1.358555,0.33016 l -0.145763,0.0754 0,-2.052629 0,-2.052637 0.210432,0.101668 c 0.343683,0.166043 1.05917,0.287037 2.046044,0.345982 1.110693,0.06632 6.804083,0.02784 7.52158,-0.05083 0.849027,-0.09313 1.289381,-0.289485 1.481239,-0.6605 0.107309,-0.2075 0.172651,-0.839539 0.173276,-1.675958 0.0016,-1.897631 0.294005,-2.6601289 1.260483,-3.2847934 0.732513,-0.473444 0.72825,-0.4732326 9.395334,-0.4690642 6.226365,0.00314 7.289421,0.014229 8.073159,0.085675 1.672402,0.1523716 1.938885,0.2973061 2.624317,1.4273464 0.2736,0.4510607 0.311915,0.6939731 0.353403,2.2408352 0.03401,1.268873 0.04778,1.426602 0.142691,1.638566 0.179649,0.401243 0.601695,0.59476 1.520787,0.697312 0.708011,0.079 6.416933,0.118361 7.51239,0.05177 1.351086,-0.08209 1.977754,-0.233558 2.446381,-0.59127 l 0.217556,-0.166058 0,2.356426 c 0,1.296044 -0.01337,2.356432 -0.02964,2.356432 -0.01627,0 -0.118566,-0.0761 -0.227263,-0.169162 -0.405809,-0.34735 -1.092837,-0.507636 -2.501014,-0.583482 -1.174244,-0.06327 -5.014254,-0.06131 -6.418419,0.0031 -1.844724,0.08479 -2.324815,0.240387 -2.562979,0.830609 -0.03543,0.0878 -0.0732,0.676931 -0.09624,1.50248 -0.04004,1.433093 -0.08581,1.795413 -0.278129,2.202177 -0.353646,0.748005 -1.278283,1.453646 -2.077037,1.585113 -0.179268,0.02949 -0.372838,0.06233 -0.430164,0.07297 -0.05733,0.01063 -0.132795,0.08192 -0.167715,0.158424 -0.105703,0.231596 -0.151042,1.236723 -0.154429,3.423525 -0.0047,2.977587 -0.06624,3.489391 -0.468743,3.891878 -0.334024,0.334022 -0.528869,0.371836 -2.170308,0.421184 -0.77587,0.0233 -1.509096,0.0689 -1.629395,0.101318 -0.813683,0.219098 -1.189039,0.828364 -1.445137,2.345712 -0.399014,2.364058 -0.47475,6.563727 -0.430156,23.85275 0.03903,15.133882 0.09678,19.422689 0.280467,20.833237 0.111102,0.853168 0.203089,0.973993 0.919054,1.207055 1.041385,0.33903 1.619586,0.720989 2.612679,1.726109 0.723245,0.731945 1.315439,1.527158 1.680768,2.256904 0.223501,0.446484 0.269472,0.570136 0.426098,1.14613 0.163797,0.602277 0.252922,0.610249 6.793673,0.610249 5.34647,0 5.91187,-0.01872 6.892268,-0.229463 0.548109,-0.117648 1.042801,-0.341687 1.293722,-0.585765 l 0.188041,-0.182923 0,2.577707 0,2.577719 -0.188041,-0.180507 c -0.353935,-0.33973 -1.011729,-0.572164 -1.96815,-0.695502 -0.652819,-0.08419 -5.2757,-0.113058 -8.273738,-0.05158 -2.841146,0.05786 -3.679568,0.120064 -4.185171,0.309232 -0.42734,0.159852 -0.56974,0.33653 -0.900353,1.117116 -0.486105,1.147687 -0.898297,1.754808 -1.741294,2.564806 -1.610656,1.547644 -3.754663,2.277317 -6.160452,2.096654 z M 14.226027,28.325589 C 12.93531,28.280689 12.571536,28.223197 12.25769,28.014535 11.555662,27.547786 11.340655,27.24575 11.191216,26.516365 10.98378,25.503854 10.966675,24.585739 10.966675,14.46214 c 0,-10.8500205 0.01557,-11.4344792 0.330449,-12.3945985 0.145474,-0.4435923 0.320901,-0.6549233 0.824986,-0.9938038 0.78126,-0.52521654 0.409047,-0.49252624 5.864711,-0.51504249 4.812409,-0.0198577 5.5492,8.45e-6 6.387184,0.17221231 0.729923,0.14999441 1.303535,0.50869268 1.587013,0.99241228 0.189653,0.3236212 0.36339,1.067584 0.425691,1.8228478 0.04059,0.491752 0.0513,3.7108116 0.03786,11.3421934 -0.01697,9.639983 -0.02674,10.704211 -0.102175,11.165807 -0.150486,0.920985 -0.35704,1.324096 -0.895028,1.74676 -0.401149,0.315159 -0.656269,0.416477 -1.204432,0.478316 -0.596534,0.06734 -8.3604,0.103286 -9.996889,0.04638 z m 62.07813,-0.0039 c -1.4236,-0.08218 -2.159053,-0.313705 -2.628626,-0.827488 l -0.254643,-0.278621 0,-12.69756 0,-12.6975569 0.152293,-0.2070853 c 0.162296,-0.2206849 0.693167,-0.63632548 1.028606,-0.80532481 0.436077,-0.21971496 0.523935,-0.22357054 5.604727,-0.24610249 4.894777,-0.021742 6.016644,0.004711 6.446511,0.15302862 0.291831,0.10054466 0.726781,0.36929508 1.018025,0.62903708 0.472411,0.4213104 0.601406,0.8550487 0.724856,2.4373781 0.103275,1.3237288 0.157767,15.6997637 0.0725,19.1298897 -0.100026,4.024306 -0.16146,4.29416 -1.13683,4.993239 -0.463785,0.332412 -0.676837,0.371133 -2.327465,0.422992 -1.733661,0.05443 -7.725091,0.05044 -8.699968,-0.0054 z"
     id="path3905"
     inkscape:connector-curvature="0" />
</svg>
