<?xml version="1.0" encoding="UTF-8" standalone="no"?>
<svg
   xmlns:dc="http://purl.org/dc/elements/1.1/"
   xmlns:cc="http://creativecommons.org/ns#"
   xmlns:rdf="http://www.w3.org/1999/02/22-rdf-syntax-ns#"
   xmlns:svg="http://www.w3.org/2000/svg"
   xmlns="http://www.w3.org/2000/svg"
   xmlns:xlink="http://www.w3.org/1999/xlink"
   xmlns:sodipodi="http://sodipodi.sourceforge.net/DTD/sodipodi-0.dtd"
   xmlns:inkscape="http://www.inkscape.org/namespaces/inkscape"
   version="1.1"
   viewBox="0 0 100 100"
   id="svg2"
   inkscape:version="0.48.4 r9939"
   width="100%"
   height="100%"
   sodipodi:docname="Winter-Wheel_black.svg"
   inkscape:export-filename="C:\Users\jherwig\Desktop\Screenshots\Icons\Summer-Wheel_black.png"
   inkscape:export-xdpi="32.400002"
   inkscape:export-ydpi="32.400002">
  <metadata
     id="metadata51">
    <rdf:RDF>
      <cc:Work
         rdf:about="">
        <dc:format>image/svg+xml</dc:format>
        <dc:type
           rdf:resource="http://purl.org/dc/dcmitype/StillImage" />
        <dc:title>remember-me-active</dc:title>
      </cc:Work>
    </rdf:RDF>
  </metadata>
  <defs
     id="defs49">
    <radialGradient
       inkscape:collect="always"
       xlink:href="#linearGradient4042"
       id="radialGradient4048"
       cx="1071.6101"
       cy="314.9259"
       fx="1071.6101"
       fy="314.9259"
       r="293.73334"
       gradientTransform="matrix(1,0,0,1.0022845,0,-0.71943396)"
       gradientUnits="userSpaceOnUse" />
    <linearGradient
       id="linearGradient4042">
      <stop
         style="stop-color:#3a3a3a;stop-opacity:1;"
         offset="0"
         id="stop4044" />
      <stop
         id="stop4050"
         offset="0.65937507"
         style="stop-color:#131313;stop-opacity:1;" />
      <stop
         style="stop-color:#505050;stop-opacity:1;"
         offset="0.89655095"
         id="stop4064" />
      <stop
         style="stop-color:#000000;stop-opacity:1;"
         offset="1"
         id="stop4046" />
    </linearGradient>
    <radialGradient
       inkscape:collect="always"
       xlink:href="#linearGradient4042-7"
       id="radialGradient3819"
       gradientUnits="userSpaceOnUse"
       gradientTransform="matrix(1,0,0,1.0022845,-771.125,-15.156934)"
       cx="1071.6101"
       cy="314.9259"
       fx="1071.6101"
       fy="314.9259"
       r="293.73334" />
    <linearGradient
       id="linearGradient4042-7">
      <stop
         style="stop-color:#3a3a3a;stop-opacity:1;"
         offset="0"
         id="stop4044-4" />
      <stop
         id="stop4050-0"
         offset="0.65937507"
         style="stop-color:#131313;stop-opacity:1;" />
      <stop
         style="stop-color:#505050;stop-opacity:1;"
         offset="0.89655095"
         id="stop4064-9" />
      <stop
         style="stop-color:#000000;stop-opacity:1;"
         offset="1"
         id="stop4046-4" />
    </linearGradient>
    <radialGradient
       inkscape:collect="always"
       xlink:href="#linearGradient4042-8"
       id="radialGradient4048-8"
       cx="1071.6101"
       cy="314.9259"
       fx="1071.6101"
       fy="314.9259"
       r="293.73334"
       gradientTransform="matrix(1,0,0,1.0022845,0,-0.71943396)"
       gradientUnits="userSpaceOnUse" />
    <linearGradient
       id="linearGradient4042-8">
      <stop
         style="stop-color:#3a3a3a;stop-opacity:1;"
         offset="0"
         id="stop4044-2" />
      <stop
         id="stop4050-4"
         offset="0.65937507"
         style="stop-color:#131313;stop-opacity:1;" />
      <stop
         style="stop-color:#505050;stop-opacity:1;"
         offset="0.89655095"
         id="stop4064-5" />
      <stop
         style="stop-color:#000000;stop-opacity:1;"
         offset="1"
         id="stop4046-5" />
    </linearGradient>
    <linearGradient
       id="linearGradient5025">
      <stop
         id="stop5027"
         offset="0"
         style="stop-color:#ffffff;stop-opacity:1;" />
      <stop
         style="stop-color:#9e9e9e;stop-opacity:1;"
         offset="0.65937507"
         id="stop5029" />
      <stop
         id="stop5031"
         offset="0.89655095"
         style="stop-color:#e1e1e1;stop-opacity:1;" />
      <stop
         id="stop5033"
         offset="1"
         style="stop-color:#aaaaaa;stop-opacity:1;" />
    </linearGradient>
    <linearGradient
       id="linearGradient4042-71">
      <stop
         style="stop-color:#3a3a3a;stop-opacity:1;"
         offset="0"
         id="stop4044-1" />
      <stop
         id="stop4050-5"
         offset="0.65937507"
         style="stop-color:#131313;stop-opacity:1;" />
      <stop
         style="stop-color:#505050;stop-opacity:1;"
         offset="0.89655095"
         id="stop4064-2" />
      <stop
         style="stop-color:#000000;stop-opacity:1;"
         offset="1"
         id="stop4046-7" />
    </linearGradient>
    <linearGradient
       id="linearGradient5025-1">
      <stop
         id="stop5027-4"
         offset="0"
         style="stop-color:#ffffff;stop-opacity:1;" />
      <stop
         style="stop-color:#9e9e9e;stop-opacity:1;"
         offset="0.65937507"
         id="stop5029-2" />
      <stop
         id="stop5031-3"
         offset="0.89655095"
         style="stop-color:#e1e1e1;stop-opacity:1;" />
      <stop
         id="stop5033-2"
         offset="1"
         style="stop-color:#aaaaaa;stop-opacity:1;" />
    </linearGradient>
  </defs>
  <sodipodi:namedview
     pagecolor="#ffffff"
     bordercolor="#666666"
     borderopacity="1"
     objecttolerance="10"
     gridtolerance="10"
     guidetolerance="10"
     inkscape:pageopacity="0"
     inkscape:pageshadow="2"
     inkscape:window-width="1920"
     inkscape:window-height="1018"
     id="namedview47"
     showgrid="false"
     inkscape:zoom="4"
     inkscape:cx="-37.197197"
     inkscape:cy="7.8814797"
     inkscape:window-x="1912"
     inkscape:window-y="-8"
     inkscape:window-maximized="1"
     inkscape:current-layer="svg2"
     inkscape:snap-bbox="true"
     fit-margin-top="0"
     fit-margin-left="0"
     fit-margin-right="0"
     fit-margin-bottom="0"
     units="px"
     showguides="true"
     inkscape:guide-bbox="true"
     borderlayer="true" />
  <title
     id="title3003" />
  <path
     d="M 49.625 0.03125 C 48.794232 0.1041085 48.002714 0.43398944 47.375 1 C 49.724388 2.2440338 51.907431 3.715731 53.875 5.40625 C 53.847851 3.6079294 53.792381 2.5461086 53.65625 2.25 C 52.918121 0.64447256 51.213501 -0.10806186 49.625 0.03125 z M 30.15625 2.0625 C 14.374414 2.0625 1.59375 14.003036 1.59375 28.71875 C 1.59375 43.434464 14.374414 55.375 30.15625 55.375 C 45.938084 55.375 58.71875 43.434464 58.71875 28.71875 C 58.71875 14.003036 45.938084 2.0625 30.15625 2.0625 z M 65.0625 6.15625 C 64.735137 6.174054 64.405754 6.227999 64.0625 6.3125 C 63.52885 6.443868 62.65316 7.1508376 58.78125 10.65625 C 60.302639 12.672788 61.596904 14.842672 62.59375 17.15625 C 68.882098 11.41034 69.15625 11.068144 69.15625 9.625 C 69.15625 7.4674959 67.35404 6.0316247 65.0625 6.15625 z M 30.15625 11.3125 C 30.572447 11.312422 30.984281 11.35598 31.8125 11.4375 C 34.541579 11.706126 36.401088 12.19107 38.5 13.1875 C 39.374021 13.602431 40.945963 14.463463 41.15625 14.65625 C 41.21988 14.71458 41.513905 14.951441 41.8125 15.15625 C 42.619997 15.710134 44.256558 17.260395 45.03125 18.21875 C 45.935475 19.337372 46.730849 20.607712 47.25 21.71875 C 47.66186 22.600198 47.71875 22.758351 47.71875 22.84375 C 47.71875 22.89316 47.80211 23.04131 47.875 23.1875 C 48.054102 23.546662 48.438109 24.983586 48.59375 25.8125 C 48.999294 27.972236 48.888392 30.880766 48.3125 32.90625 C 48.23336 33.184608 48.14201 33.564428 48.09375 33.75 C 48.0455 33.935573 47.94791 34.19756 47.875 34.34375 C 47.8021 34.48994 47.71875 34.638094 47.71875 34.6875 C 47.71875 34.804325 47.546637 35.200155 46.90625 36.4375 C 45.466976 39.218429 43.085919 41.68313 40.15625 43.4375 C 38.845795 44.222241 36.310472 45.282387 35.03125 45.5625 C 33.653242 45.864245 33.247173 45.92879 32.65625 46 C 30.378913 46.274437 27.507941 46.120414 25.71875 45.625 C 25.476648 45.55796 25.20387 45.5 25.125 45.5 C 25.003935 45.5 23.866165 45.139476 23.25 44.90625 C 22.61501 44.665902 20.988584 43.884951 20.375 43.53125 C 18.594201 42.504707 16.574696 40.824212 15.4375 39.40625 C 15.135439 39.029613 14.82175 38.644219 14.75 38.5625 C 14.67825 38.48078 14.625 38.393617 14.625 38.375 C 14.625 38.35638 14.457868 38.153863 14.28125 37.90625 C 13.856936 37.311372 12.625 34.906657 12.625 34.6875 C 12.625 34.63809 12.5729 34.48994 12.5 34.34375 C 12.4271 34.19756 12.32951 33.935573 12.28125 33.75 C 12.23299 33.564428 12.11257 33.184608 12.03125 32.90625 C 11.450099 30.917092 11.334549 28.035744 11.75 25.78125 C 11.885239 25.047354 12.28669 23.583649 12.4375 23.28125 C 12.48377 23.18846 12.611245 22.864055 12.71875 22.5625 C 12.826256 22.260944 12.96654 21.928483 13.03125 21.8125 C 13.09596 21.696517 13.259949 21.419466 13.375 21.1875 C 13.737113 20.457411 14.637862 19.091873 15.34375 18.21875 C 16.197347 17.162926 17.831685 15.622301 18.71875 15.03125 C 18.858006 14.93846 19.04832 14.77285 19.15625 14.6875 C 19.912804 14.089234 22.245678 12.935383 23.6875 12.4375 C 25.397861 11.846877 26.341184 11.655696 28.5 11.4375 C 29.309564 11.35567 29.740053 11.312578 30.15625 11.3125 z M 29.6875 14.1875 C 29.085453 14.1951 28.107018 14.27323 27.78125 14.375 C 27.631962 14.42164 27.216985 14.55643 26.84375 14.65625 C 26.470515 14.75608 26.11227 14.87161 26.0625 14.90625 C 26.01273 14.94089 25.874408 14.96711 25.75 15 C 24.966525 15.207142 22.801878 16.331507 21.40625 17.25 C 20.291743 17.983483 18.59375 19.470561 18.59375 19.71875 C 18.59375 19.93509 18.715714 20.023446 19.90625 20.5625 C 20.403897 20.787826 20.87612 21.01426 20.96875 21.0625 C 21.262527 21.215507 22.51602 21.585475 23.40625 21.78125 C 25.520926 22.246304 26.958199 21.86025 28.1875 20.5 C 28.556391 20.091811 29.06209 19.262447 29.34375 18.625 C 29.859148 17.458557 30.32769 15.703672 30.375 14.78125 C 30.40012 14.291627 30.39148 14.25813 30.125 14.1875 C 30.04997 14.16761 29.888182 14.185 29.6875 14.1875 z M 81 14.28125 C 79.603759 14.24328 78.191305 14.877607 77.5 16.1875 C 77.27548 16.612918 75.96601 20.793225 74.59375 25.46875 C 73.22149 30.14428 72.07465 34.085225 72.03125 34.21875 C 71.9963 34.326147 67.745241 36.596919 63.40625 38.90625 C 60.577845 47.084406 54.302052 53.852966 46.15625 57.78125 C 46.19607 59.396588 46.21875 62.153211 46.21875 65.59375 L 46.21875 74.9375 L 38.875 81.625 C 30.93843 88.866822 30.9375 88.85784 30.9375 90.40625 C 30.9375 92.92375 33.4682 94.51991 36.15625 93.6875 C 36.74818 93.5042 37.65178 92.78589 41.4375 89.34375 C 43.94121 87.06726 46.02725 85.1875 46.09375 85.1875 C 46.16033 85.1875 46.21875 87.86867 46.21875 91.15625 C 46.21875 95.44289 46.26609 97.32106 46.40625 97.75 C 46.64649 98.48523 47.849 99.58896 48.625 99.8125 C 50.65333 100.39679 52.65823 99.68484 53.5 98.0625 L 53.90625 97.3125 L 53.90625 91.25 C 53.90711 87.91319 53.936 85.1875 54 85.1875 C 54.064 85.1875 56.229 87.09558 58.78125 89.40625 C 62.65317 92.91166 63.52885 93.61862 64.0625 93.75 C 66.8195 94.4287 69.17245 92.87011 69.15625 90.40625 C 69.14596 88.84023 69.15155 88.863722 61.21875 81.625 L 53.90625 74.9375 L 53.90625 65.59375 C 53.90625 60.460606 53.96075 56.28125 54.03125 56.28125 C 54.10171 56.28125 54.9434 56.683398 55.90625 57.1875 C 61.77075 60.257515 66.38952 62.64729 71.84375 65.5625 C 71.91475 65.62065 72.30383 66.752337 72.6875 68.0625 C 74.76906 75.170592 76.95629 82.605612 77.1875 83.28125 C 78.25328 86.395546 82.98159 86.631508 84.46875 83.65625 C 84.97844 82.636561 84.85478 81.978718 83.15625 76.21875 C 82.27292 73.223246 81.56785 70.74008 81.59375 70.71875 C 81.63974 70.68088 82.47002 71.128121 88.9375 74.53125 C 92.90836 76.620677 93.23024 76.7461 94.375 76.75 C 97.66152 76.76139 99.4538 73.161728 97.25 70.96875 C 96.72986 70.451162 90.71064 67.16458 86.5 65.09375 C 85.47118 64.587761 85.4638 64.58968 85.5625 64.5 C 85.62874 64.4398 90.59753 63.197313 95.84375 61.9375 C 97.85736 61.453962 98.76612 61.019096 99.34375 60.25 C 101.13979 57.858597 99.32342 54.6875 96.15625 54.6875 C 95.80545 54.6875 94.22996 54.985704 92.65625 55.375 C 91.08254 55.764309 86.6468 56.851537 82.8125 57.78125 L 75.84375 59.46875 L 74.5 58.78125 C 68.55007 55.667355 63.94275 53.195447 58.3125 50.28125 L 57.84375 50.0625 L 58.21875 49.84375 C 58.43146 49.721614 60.71822 48.513696 63.3125 47.15625 C 65.90678 45.798805 69.79064 43.753604 71.9375 42.625 L 75.84375 40.5625 L 84.25 42.625 C 88.87464 43.749253 93.30226 44.836831 94.09375 45.03125 C 96.35029 45.585554 97.47449 45.450562 98.65625 44.53125 C 100.82764 42.842084 100.34462 39.660751 97.75 38.65625 C 97.28042 38.47445 91.20374 36.946246 86.125 35.75 C 85.32241 35.560958 84.95918 35.78899 91.21875 32.5 C 94.20876 30.928943 96.85169 29.490083 97.09375 29.28125 C 99.05879 27.585936 98.19298 24.136739 95.625 23.4375 C 94.00126 22.995375 93.17184 23.27012 89.5625 25.21875 C 86.64049 26.796302 81.64045 29.35476 81.59375 29.3125 C 81.56783 29.28905 82.27291 26.835277 83.15625 23.84375 C 84.85682 18.084624 84.98088 17.399589 84.46875 16.375 C 83.79546 15.027996 82.396241 14.319223 81 14.28125 z M 35.875 15.21875 C 35.78649 15.20405 35.70159 15.21842 35.65625 15.25 C 35.467489 15.381486 35.198526 16.408321 34.96875 17.8125 C 34.423833 21.1425 35.124589 23.044289 37.25 24 C 38.102504 24.383333 38.481793 24.468454 39.6875 24.625 C 40.76375 24.764738 41.94461 24.797787 43.28125 24.6875 C 44.37339 24.59739 44.4907 24.517181 44.40625 24.15625 C 44.00222 22.429507 42.681098 20.454414 40.59375 18.5 C 39.319871 17.307242 38.709377 16.854616 37.59375 16.15625 C 36.625411 15.550085 36.140542 15.26286 35.875 15.21875 z M 31.15625 22.96875 C 29.757077 22.96875 29.287319 24.773399 30.53125 25.375 C 30.927964 25.566859 31.627587 25.517059 31.96875 25.28125 C 32.356349 25.013354 32.63971 24.519132 32.59375 24.15625 C 32.51159 23.50764 31.845225 22.96875 31.15625 22.96875 z M 15.8125 24.375 C 15.481877 24.47283 15.14695 26.069763 15.15625 27.53125 C 15.17095 29.852732 15.769037 32.537021 16.8125 34.75 C 17.015484 35.180487 17.55616 36.139268 17.71875 36.375 C 17.897567 36.634259 18.196681 36.490449 19 35.71875 C 20.625503 34.157231 21.539313 32.929823 22.03125 31.625 C 22.26104 31.0155 22.27342 29.681349 22.0625 29.1875 C 21.626402 28.16641 21.017161 27.397038 19.90625 26.5625 C 19.661917 26.378952 19.37665 26.173559 19.28125 26.09375 C 18.711847 25.6174 16.062267 24.301098 15.8125 24.375 z M 25.3125 26.625 C 25.22472 26.6236 25.12192 26.63688 25.03125 26.65625 C 24.91036 26.68207 24.78239 26.75202 24.65625 26.8125 C 23.657802 27.29125 23.573543 28.439964 24.5 29 C 24.93071 29.260352 25.416917 29.299515 25.84375 29.09375 C 26.200897 28.921571 26.315307 28.832958 26.5 28.5 C 26.806444 27.947565 26.633277 27.312111 26.0625 26.90625 C 25.813861 26.729455 25.57584 26.62917 25.3125 26.625 z M 35.125 28.40625 C 34.827296 28.41315 34.529574 28.5019 34.3125 28.65625 C 33.86626 28.973551 33.64022 29.529934 33.78125 29.96875 C 33.914869 30.384541 34.157653 30.696988 34.53125 30.875 C 34.914505 31.057606 35.607281 30.992153 35.9375 30.75 C 36.709306 30.184026 36.689829 29.199609 35.90625 28.625 C 35.708926 28.480304 35.422704 28.39931 35.125 28.40625 z M 44.875 30 C 43.842476 30.0037 42.089363 30.11788 41.40625 30.25 C 38.634765 30.786038 37.384338 31.701 36.90625 33.625 C 36.545922 35.075069 36.94896 37.660479 37.875 39.9375 C 38.002428 40.250844 38.430899 40.161056 39.28125 39.65625 C 39.627967 39.450428 40.66428 38.625616 40.9375 38.34375 C 41.05265 38.224957 41.320534 37.958769 41.53125 37.75 C 43.11805 36.177922 45.092923 32.909369 45.625 31 C 45.875179 30.102205 45.871619 30.096265 45.59375 30.03125 C 45.4797 30.00456 45.219175 29.99876 44.875 30 z M 29.28125 31.84375 C 28.988423 31.82257 28.69683 31.89752 28.40625 32.09375 C 28.060543 32.327209 27.71875 32.824282 27.71875 33.15625 C 27.71875 33.429764 28.121657 34.017551 28.40625 34.1875 C 28.798811 34.421913 29.535214 34.450532 29.9375 34.21875 C 30.099819 34.12523 30.3164 33.891992 30.40625 33.71875 C 30.878939 32.807378 30.159731 31.907291 29.28125 31.84375 z M 27.46875 36.34375 C 26.148779 36.34375 25.96908 36.40403 24.75 36.9375 C 23.027638 37.691212 20.6875 39.311796 20.6875 39.75 C 20.6875 39.967881 21.638086 40.669912 22.5 41.09375 C 24.060975 41.86135 26.168314 42.459936 28.1875 42.71875 C 28.560735 42.76659 29.101294 42.83793 29.375 42.875 C 30.599824 43.040903 33.189167 42.94699 33.46875 42.71875 C 33.573622 42.63313 32.975692 41.147659 32.4375 40.15625 C 31.522825 38.471288 30.267015 37.080407 29.21875 36.59375 C 28.704266 36.354902 28.647482 36.34375 27.46875 36.34375 z M 25.78125 36.78125 C 25.80488 36.78715 25.79519 36.82272 25.78125 36.84375 C 25.75336 36.88582 25.66546 36.90625 25.59375 36.90625 C 25.406466 36.90625 25.444981 36.864 25.65625 36.8125 C 25.70605 36.80036 25.75762 36.77539 25.78125 36.78125 z M 24.5625 37.28125 C 24.5692 37.28535 24.5203 37.31316 24.4375 37.375 C 24.3409 37.44715 24.23606 37.5 24.1875 37.5 C 24.07255 37.5 24.09805 37.46672 24.375 37.34375 C 24.48165 37.2964 24.5558 37.27719 24.5625 37.28125 z M 37.5 38.1875 C 37.5068 38.187012 37.54446 38.20958 37.59375 38.28125 C 37.65075 38.36419 37.68073 38.475007 37.65625 38.53125 C 37.62413 38.60506 37.59885 38.60237 37.59375 38.53125 C 37.58985 38.47705 37.55988 38.366232 37.53125 38.28125 C 37.5065 38.207813 37.4932 38.187988 37.5 38.1875 z M 3.96875 54.6875 C 0.80160004 54.6875 -1.0148 57.858597 0.78125 60.25 C 1.46974 61.166712 2.25209 61.444957 7.25 62.65625 C 14.17585 64.334792 14.5625 64.429 14.5625 64.5625 C 14.5625 64.62989 14.48525 64.6875 14.40625 64.6875 C 14.13505 64.6875 3.44021 70.402722 3 70.78125 C 1.13146 72.387944 1.72806 75.458125 4.09375 76.46875 C 5.7235 77.164971 6.7539999 76.89165 10.5625 74.84375 C 13.76568 73.121339 18.48845 70.67987 18.53125 70.71875 C 18.55586 70.74112 17.82798 73.226543 16.9375 76.25 C 15.55757 80.935258 15.34965 81.882711 15.40625 82.59375 C 15.66069 85.790596 20.37846 86.932515 22.34375 84.28125 C 22.65564 83.860515 23.00142 83.01194 23.3125 81.96875 C 23.58361 81.059596 24.25135 78.860776 24.78125 77.0625 C 27.2048 68.837856 28.01925 66.073618 28.09375 65.84375 C 28.1379 65.707456 28.81622 65.23199 29.625 64.8125 C 30.342655 64.440274 33.964209 62.560247 37.53125 60.6875 C 35.044936 61.198262 32.46646 61.46875 29.8125 61.46875 C 22.613597 61.46875 15.923053 59.465809 10.34375 56.0625 C 9.4815945 55.851302 7.9291901 55.488829 7.46875 55.375 C 5.89504 54.985951 4.31955 54.6875 3.96875 54.6875 z "
     id="path3821" />
  <g
     transform="matrix(0.19545769,0,0,0.1954644,-275.31849,1.0064212)"
     id="g3852" />
  <g
     id="g3916"
     transform="matrix(0.19538319,0,0,0.19588077,-275.2306,0.97450113)" />
  <g
     transform="matrix(0.09525181,0,0,0.08881719,-33.674172,45.71158)"
     id="g5035" />
</svg>
