<?xml version="1.0" encoding="UTF-8" standalone="no"?>
<svg
   xmlns:dc="http://purl.org/dc/elements/1.1/"
   xmlns:cc="http://creativecommons.org/ns#"
   xmlns:rdf="http://www.w3.org/1999/02/22-rdf-syntax-ns#"
   xmlns:svg="http://www.w3.org/2000/svg"
   xmlns="http://www.w3.org/2000/svg"
   xmlns:xlink="http://www.w3.org/1999/xlink"
   xmlns:sodipodi="http://sodipodi.sourceforge.net/DTD/sodipodi-0.dtd"
   xmlns:inkscape="http://www.inkscape.org/namespaces/inkscape"
   version="1.1"
   viewBox="0 0 100 100"
   id="svg2"
   inkscape:version="0.48.4 r9939"
   width="100%"
   height="100%"
   sodipodi:docname="car.svg">
  <metadata
     id="metadata51">
    <rdf:RDF>
      <cc:Work
         rdf:about="">
        <dc:format>image/svg+xml</dc:format>
        <dc:type
           rdf:resource="http://purl.org/dc/dcmitype/StillImage" />
        <dc:title>workorder</dc:title>
      </cc:Work>
    </rdf:RDF>
  </metadata>
  <defs
     id="defs49">
    <linearGradient
       inkscape:collect="always"
       xlink:href="#linearGradient3802-1"
       id="linearGradient3860"
       gradientUnits="userSpaceOnUse"
       gradientTransform="matrix(8.1388236,0,0,8.2087572,43.862514,-237.13826)"
       x1="54.909092"
       y1="98.909088"
       x2="56.909103"
       y2="57.63636" />
    <linearGradient
       inkscape:collect="always"
       id="linearGradient3802-1">
      <stop
         style="stop-color:#2d2d2d;stop-opacity:1"
         offset="0"
         id="stop3804-7" />
      <stop
         style="stop-color:#b0b0b0;stop-opacity:1"
         offset="1"
         id="stop3806-4" />
    </linearGradient>
  </defs>
  <sodipodi:namedview
     pagecolor="#ffffff"
     bordercolor="#666666"
     borderopacity="1"
     objecttolerance="10"
     gridtolerance="10"
     guidetolerance="10"
     inkscape:pageopacity="0"
     inkscape:pageshadow="2"
     inkscape:window-width="2479"
     inkscape:window-height="1410"
     id="namedview47"
     showgrid="false"
     inkscape:zoom="5.3928681"
     inkscape:cx="-50.180273"
     inkscape:cy="26.980248"
     inkscape:window-x="81"
     inkscape:window-y="30"
     inkscape:window-maximized="1"
     inkscape:current-layer="svg2"
     inkscape:snap-bbox="true"
     fit-margin-top="0"
     fit-margin-left="0"
     fit-margin-right="0"
     fit-margin-bottom="0" />
  <title>workorder</title>
  <path
     sodipodi:nodetypes="sscccccccscsssssssscsssssssccccccccccccsccsccsscsssssssssscsssscccsscccsssccccsssccssccccc"
     inkscape:connector-curvature="0"
     id="path3045"
     d="M 62.257,99.379366 C 61.319879,99.246001 61.292338,99.14603 61.292338,95.877768 l 0,-2.959428 c -1.582922,0.04981 -1.235076,0.06178 -4.43327,0.164925 -3.157032,-0.143712 -3.126155,-0.191595 -6.651453,-1.275539 -4.810534,-2.022183 -4.836388,-2.051399 -13.381455,-1.912189 -10.427159,1.3e-4 -10.384841,0.07856 -13.001892,1.334839 -3.455963,1.240377 -3.566277,1.206374 -8.16258,1.457558 l -3.641337,0.06668 0,3.041331 c 0,2.752897 -0.02574,3.065238 -0.271401,3.293482 -0.241679,0.224466 -0.841125,0.252085 -5.4729832,0.252085 -4.6567503,0 -5.222914,-0.02635 -5.4052632,-0.251883 C 0.70304497,98.882302 0.65978658,96.884411 0.62613025,87.794236 0.59038594,78.138957 0.61350618,76.70645 0.8100334,76.398518 0.9979427,76.104102 1.0240103,75.543668 0.96891244,72.982779 0.91187892,70.331866 0.93904041,69.800354 1.170608,69.036537 1.6927737,67.314162 2.7488227,66.160686 4.7403742,65.137428 5.3482148,64.825122 6.1088985,64.398918 6.4307824,64.190315 L 7.0160296,63.81103 6.0676678,63.355492 C 5.5460699,63.104949 4.9189535,62.801557 4.6740774,62.681289 3.8479029,62.275528 2.8184617,61.007852 2.6334465,60.626274 2.3684291,60.079703 1.9295056,59.08284 2.4463137,57.995824 c 0.4344141,-0.913718 4.2264968,-1.407492 5.3103731,-1.543503 1.2293293,-0.154262 2.1859313,0.439587 2.1859313,1.357004 0,0.201173 0.0027,1.415293 -0.8426823,2.31651 l -0.6487961,0.691557 0.4502518,0.583617 0.4502496,0.583618 0.486642,-0.480729 c 1.1307209,-1.436956 2.3655869,-3.045479 3.2220079,-4.71761 1.721892,-3.426376 2.291432,-4.404755 3.201641,-5.499903 2.065737,-2.335178 5.429729,-4.736697 8.44744,-5.183044 4.755189,-0.728165 7.779219,-0.739331 11.257928,-0.740139 3.370053,0.0047 9.655481,0.220806 13.269031,0.886579 2.358429,0.476689 3.771269,1.29796 5.204531,2.622746 2.440393,1.911752 4.082629,4.828199 5.348668,7.198969 0.774267,1.287845 2.709657,4.931409 3.87562,5.636333 0.247606,0.136042 0.366285,0.08176 0.737698,-0.337446 0.524291,-0.591752 0.523542,-0.587971 0.191603,-0.967988 -0.625885,-0.732001 -1.183754,-1.776781 -1.22438,-2.746518 0,-0.462399 0.526815,-1.088508 1.003575,-1.192731 1.122012,-0.245281 4.292905,-0.291528 5.705409,0.906761 1.030605,1.358991 0.622928,3.577283 -0.184327,4.358116 -0.428193,0.412709 -0.807451,0.720693 -0.842794,0.684407 -0.03534,-0.03628 -0.524763,0.201923 -1.087596,0.529347 -0.562833,0.327426 -1.075468,0.59637 -1.139191,0.597652 -0.06373,0.0011 -0.210172,0.06362 -0.32544,0.138533 -0.176932,0.114982 -0.170691,0.176124 0.04007,0.392493 0.137308,0.140962 0.341756,0.270171 0.454327,0.287134 0.112572,0.01696 0.297374,0.109818 0.410671,0.20635 0.113298,0.09653 0.727733,0.444697 1.36541,0.773701 1.15843,0.597684 2.403641,1.669476 2.717697,2.339206 0.843995,1.79983 0.859086,1.917108 0.800834,6.223211 -0.02117,1.564979 0.02724,2.194769 0.201652,2.623303 0.199753,0.490802 0.22951,1.96489 0.22951,11.369431 0,10.408387 -0.01042,10.818718 -0.283432,11.164851 l -0.283432,0.359338 -4.725392,0.0129 c -2.598965,0.007 -4.925743,-0.01562 -5.170619,-0.05045 z M 21.684589,80.782242 c 0.51564,-0.08738 0.971155,-0.818782 1.096069,-1.402638 0.175527,-0.82044 -0.584021,-2.401413 -2.209963,-2.638243 -7.120945,-0.556621 -10.16961,-3.9041 -12.6407084,-3.666582 -3.3233129,0.536581 -3.0834198,6.24309 -0.2141357,7.330129 2.8685391,0.351275 1.7420408,-0.166087 5.8204011,-0.20625 4.823554,-0.0475 6.833441,0.806417 8.148337,0.583584 z m 43.932215,-0.2474 c 3.826596,-1.269041 1.854296,-8.08962 -1.504989,-7.054839 -2.93693,0.262509 -3.884645,2.878192 -11.812001,3.450428 -1.575311,0.616218 -1.692967,1.316368 -1.692967,2.225686 0,0.648318 0.316724,1.399621 0.699456,1.520354 1.641752,0.517885 2.395806,-0.239434 7.660117,-0.263012 4.552624,-0.02039 3.799534,0.105986 6.650384,0.121383 z M 58.483829,62.847924 c 0.645851,-0.173842 1.134516,-0.102003 0.79601,-0.887265 -2.43795,-4.914098 -3.608715,-10.903747 -9.192426,-12.543027 -4.9959,-1.269846 -11.282346,-1.324819 -11.577012,-1.323799 -0.611585,0.0021 -1.904814,-0.157713 -1.600879,0.747444 0.238854,0.711335 2.302615,0.0049 2.400124,1.057242 0.109379,1.180459 -0.956943,1.103623 -3.081936,1.168571 -1.619106,0.08188 -3.312765,0.03758 -3.12634,-0.922019 -0.04051,-1.077927 2.039476,-0.643177 2.237942,-1.18111 0.286508,-0.776566 -0.769851,-0.854572 -0.907938,-0.849103 -2.641125,0.104628 -5.351285,0.364035 -8.292722,0.706819 -6.420977,1.115895 -10.268028,8.315583 -11.996277,12.955785 -0.08798,0.245047 -0.369829,0.806937 0.173434,0.880759 7.602652,1.902877 15.976089,2.495426 23.230994,2.453667 7.942824,-0.143433 14.215806,-1.290465 20.937026,-2.263964 z" />
  <path
     d="M 88.317097,54.302717 C 80.726444,56.486522 73.029248,52.995031 69.73901,45.875585 69.266529,44.853227 68.64505,42.509311 68.604688,41.597495 l -0.02481,-0.56032 -21.218416,-7.419196 -21.218406,-7.419192 -0.39391,0.413915 c -0.661198,0.694782 -2.699089,2.091817 -3.814403,2.614889 -6.862976,3.218693 -14.789088,1.459023 -19.1857593,-4.259409 -1.287968,-1.675156 -2.38056526,-4.17299 -2.75938309,-6.308308 -0.15473304,-0.872194 -0.28447263,-2.645443 -0.21142819,-2.889672 0.029283,-0.09793 2.87867688,0.820405 7.12142478,2.295164 3.8899178,1.35215 7.2856028,2.488199 7.5459288,2.524613 1.459625,0.204224 3.233766,-0.369214 4.346056,-1.404721 1.417795,-1.31994 1.936453,-3.077061 1.47714,-5.004311 -0.259389,-1.088399 -0.801312,-1.907306 -1.753629,-2.649935 -0.698309,-0.54455 -1.58424,-0.89466 -7.941403,-3.1383625 L 3.41829,5.8671935 4.1328589,5.1142354 C 4.987492,4.2136918 6.1861219,3.221154 7.2725255,2.5144069 10.14811,0.64372983 14.067779,-0.17781501 17.833971,0.30077787 19.126302,0.46500505 22.14358,1.5151813 23.265902,2.19144 c 1.788514,1.0775827 3.310249,2.4077841 4.358698,3.8100986 1.859989,2.4877542 2.703374,4.5113824 3.081599,7.3940404 l 0.09447,0.720077 21.115709,7.388611 c 18.638584,6.521532 21.148186,7.36515 21.392398,7.188894 0.152162,-0.109807 0.756637,-0.598017 1.343277,-1.084897 1.934221,-1.605305 5.142289,-2.90956 7.950798,-3.232434 2.497145,-0.287075 4.517725,-0.0539 7.031781,0.811494 3.216334,1.107156 5.455926,2.827253 7.529651,5.783188 1.409922,2.009732 2.337659,4.978443 2.405049,7.696066 l 0.02051,0.826817 -7.156319,-2.488668 c -4.442545,-1.544849 -7.390267,-2.494146 -7.77323,-2.503116 -1.805776,-0.04232 -2.852062,0.30753 -4.010507,1.34099 -1.281944,1.143644 -1.952763,2.872033 -1.739165,4.481078 0.185611,1.398236 1.193226,2.953329 2.34925,3.625685 0.242302,0.140918 3.618821,1.374106 7.503377,2.740406 4.323597,1.520705 7.035655,2.545828 6.992757,2.643124 -0.126015,0.285811 -1.42209,1.564538 -2.315251,2.284286 -0.971357,0.78276 -3.966577,2.352731 -5.123698,2.685627 z"
     id="path4163"
     inkscape:connector-curvature="0"
     sodipodi:nodetypes="ssscccssssssssssscsssssscssssssscsssssssss" />
</svg>
