<?xml version="1.0" encoding="UTF-8" standalone="no"?>
<svg
   xmlns:dc="http://purl.org/dc/elements/1.1/"
   xmlns:cc="http://creativecommons.org/ns#"
   xmlns:rdf="http://www.w3.org/1999/02/22-rdf-syntax-ns#"
   xmlns:svg="http://www.w3.org/2000/svg"
   xmlns="http://www.w3.org/2000/svg"
   xmlns:sodipodi="http://sodipodi.sourceforge.net/DTD/sodipodi-0.dtd"
   xmlns:inkscape="http://www.inkscape.org/namespaces/inkscape"
   version="1.1"
   id="svg32"
   sodipodi:docname="app-icons.svg"
   inkscape:version="0.92.1 r15371">
  <sodipodi:namedview
     pagecolor="#ffffff"
     bordercolor="#666666"
     borderopacity="1"
     objecttolerance="10"
     gridtolerance="10"
     guidetolerance="10"
     inkscape:pageopacity="0"
     inkscape:pageshadow="2"
     inkscape:window-width="2495"
     inkscape:window-height="1416"
     id="namedview34"
     showgrid="false"
     inkscape:zoom="3.337544"
     inkscape:cx="163.17048"
     inkscape:cy="-16.913246"
     inkscape:window-x="65"
     inkscape:window-y="24"
     inkscape:window-maximized="1"
     inkscape:current-layer="svg32" />
  <defs
     id="defs51">
    <view
       id="werbas-blue"
       viewBox="0 0 100 100" />
    <view
       id="shop"
       viewBox="100 0 100 100" />
    <view
       id="my-account"
       viewBox="200 0 100 100" />
    <view
       id="shop"
       viewBox="100 0 100 100" />
    <view
       id="shop"
       viewBox="100 0 100 100" />
    <view
       id="shop"
       viewBox="100 0 100 100" />
  </defs>
  <g
     viewbox="0 0 100 100"
     id="werbas-blue-icon"
     style="opacity:1"
     transform="matrix(0.30937621,0,0,0.30937621,-0.10453514,2.3450222)">
    <rect
       transform="rotate(-6)"
       y="42.675926"
       x="8.2814789"
       height="254.80118"
       width="271.3544"
       id="rect4464"
       style="fill:#009fd7;fill-opacity:1;stroke-width:0.9259814" />
    <rect
       transform="rotate(-6)"
       y="50.952538"
       x="17.095821"
       height="238.24796"
       width="253.72578"
       id="rect4464-7"
       style="fill:#ffffff;fill-opacity:1;stroke-width:0.9259814" />
    <path
       id="rect4511"
       d="m 46.942283,147.94817 1.94e-4,0.002 11.799099,112.26093 14.660811,-1.64457 c 0.236109,-0.0125 0.478095,-0.0419 0.724082,-0.0836 l 0.560796,-0.0627 0.02151,-0.0895 c 0.956617,-0.41525 1.066686,-1.51819 1.364322,-3.73315 -6.2e-5,-2.124 2.254904,-2.07778 5.141096,0.10522 6.794499,5.1391 21.838497,0.82283 26.283297,-7.54156 4.22149,-7.9439 1.8674,-42.45237 -3.67605,-53.9037 -5.423577,-11.20373 -20.135095,-13.57753 -29.768499,-4.80359 -0.428792,0.40722 -2.472681,2.47691 -2.886034,3.06203 l -4.698127,-45.40927 -19.526492,1.84136 z m 68.215597,-7.16975 11.80307,112.29871 19.10886,-2.00843 L 134.26674,138.77 Z m 136.12627,23.05585 c -22.37296,2.69749 -28.86609,12.23181 -26.19708,38.46733 2.02957,19.95323 6.51591,29.61568 15.59056,33.56972 17.69294,7.70936 41.54273,-4.11911 42.64031,-20.78289 l 0.35641,-5.39845 -8.73415,0.90161 c -8.81704,0.91088 -11.66875,1.41341 -11.66881,6.20009 2e-5,12.92758 -14.52389,8.60766 -16.8235,-5.00394 -1.12461,-6.65679 -0.0182,-7.18317 18.77142,-8.92152 19.21467,-1.7777 18.18637,-1.22817 17.33447,-9.23603 -2.33366,-21.94724 -12.89536,-32.01126 -31.26963,-29.79593 z m -95.35459,11.32787 c 1.31636,12.7015 2.52981,23.17927 3.59632,34.77035 2.9073,27.05694 3.59426,29.27622 10.34164,33.39036 6.37462,3.8868 18.1523,2.30468 24.30518,-3.2638 2.04783,-1.85316 2.26307,-1.84388 3.73267,0.16597 1.34759,1.84289 2.55012,2.02627 8.86519,1.34866 11.9222,-1.27943 11.67215,-1.09297 10.7092,-7.95958 -0.46041,-3.28288 -2.15944,-18.73347 -3.857,-34.32652 l -3.23928,-29.74694 c -7.51594,0.71342 -12.45614,1.23573 -19.85679,2.00342 0,1e-5 0.98998,9.94704 2.93985,28.10902 3.23759,30.15953 2.9589,32.04394 -4.739,32.04395 -6.16414,-1e-5 -6.7891,-1.54641 -9.87248,-30.4664 l -2.9923,-28.0544 c -6.87167,0.62622 -14.00089,1.46504 -19.93319,1.98595 z m 96.43632,1.31718 c 0.91021,-0.12863 1.83536,-0.069 2.74731,0.22042 4.1293,1.31064 9.11389,13.12412 6.23614,14.78016 -2.60241,1.49759 -15.00083,1.99735 -16.33924,0.65894 -4.66015,-4.66014 0.98436,-14.75883 7.35579,-15.65952 z M 78.190344,196.31164 c 1.214072,-0.18747 2.615672,0.0158 4.197123,0.62269 6.086048,2.33543 10.670712,38.33104 5.772984,45.32358 -6.893478,9.84171 -14.189777,-3.95774 -15.388882,-27.20428 -0.112348,-2.17714 -0.171365,-4.43747 -0.171327,-6.7687 -7e-6,-2.41759 0.213464,-4.4797 0.628693,-6.18176 l 0.65498,-1.79644 -0.01531,-0.14569 c 0.940237,-2.24271 2.388171,-3.55079 4.321741,-3.8494 z"
       style="fill:#009fd7;fill-opacity:1;stroke-width:0.9259814"
       inkscape:connector-curvature="0" />
  </g>
  <g
     id="shop-icon">
    <path
       style="fill:#999999;fill-opacity:1;stroke-width:4.73392391"
       d="m 103.72835,3.613053 v 9.46815 h 9.46764 l 17.04236,35.93011 -6.39082,11.59826 c -0.75743,1.32549 -1.18339,2.88754 -1.18339,4.54442 0,5.20731 4.26032,9.46816 9.46764,9.46816 h 56.80687 v -9.46816 h -54.81836 c -0.66275,0 -1.18391,-0.52064 -1.18391,-1.18339 l 0.14211,-0.56792 4.26072,-7.71633 h 35.26762 c 3.55044,0 6.6747,-1.94115 8.28425,-4.87618 l 16.9478,-30.72319 c 0.37872,-0.66275 0.56792,-1.46746 0.56792,-2.27222 0,-2.60366 -2.13042,-4.73356 -4.73407,-4.73356 h -26.84901 c 0.7467,0.20622 1.48707,0.48477 2.24379,0.84233 1.31806,0.62276 2.78625,1.73185 3.70727,2.79828 0.9326,1.08027 1.65679,2.32828 2.12493,3.6375 h 13.93042 l -8.15196,13.44156 c -0.46079,1.30536 -1.18102,2.48988 -2.12958,3.51089 l -5.91127,9.7467 H 139.1391 l -2.7652,-5.77071 c -0.1221,-0.0878 -0.24371,-0.17669 -0.36484,-0.26975 -1.69636,-1.3035 -2.86766,-2.81704 -3.64112,-4.71548 -0.34901,-0.85665 -0.47972,-1.43419 -0.62683,-2.83393 -0.0966,-0.91907 -0.12472,-1.4899 -0.0873,-2.03192 l -5.30821,-11.07736 h 11.05411 c 0.40003,-2.24718 1.41133,-4.30554 3.02824,-6.14071 0.36094,-0.40961 0.73218,-0.78515 1.11672,-1.1374 h -17.88676 l -4.44986,-9.46815 z m 47.89733,12.08091 c -0.93279,0.003 -2.24373,0.22615 -2.71818,0.40618 a 1.4916087,1.6204071 83.454199 0 1 -0.002,5.3e-4 c -2.22833,0.84414 -3.69336,2.34695 -4.35012,4.25865 h 10.0707 c -0.48387,-0.81266 -0.52045,-2.30418 0.49868,-3.63543 -0.81622,-0.43722 -1.80701,-0.84331 -2.73834,-0.98496 a 1.4916087,1.6204071 83.454199 0 1 -0.002,0 c -0.18006,-0.0273 -0.45109,-0.0465 -0.75654,-0.045 a 1.4916087,1.6204071 83.454199 0 1 -0.003,0 z m 11.48974,3.33417 c -0.58705,0.0113 -1.22246,0.0817 -1.54978,0.18242 -0.15845,0.0488 -0.20482,0.0618 -0.22169,0.0651 -0.004,0.006 -0.1964,0.19115 -0.59996,0.64234 -0.14161,0.1583 -0.27039,0.2976 -0.40205,0.44131 h 6.45749 c -0.0844,-0.0707 -0.17209,-0.1411 -0.26665,-0.21135 -0.90172,-0.67016 -1.38784,-0.87763 -2.48977,-1.07022 -0.24053,-0.0421 -0.57536,-0.0564 -0.92759,-0.0496 z m -1.77147,0.24753 c 1.6e-4,-2.9e-4 0.0131,-0.0134 0.0124,-0.0129 -0.008,0.006 -0.0317,0.0166 -0.0124,0.0129 z m -29.21217,60.08005 c -5.20732,0 -9.42061,4.26085 -9.42061,9.46816 0,5.20732 4.21329,9.46763 9.42061,9.46763 5.20732,0 9.46764,-4.26031 9.46764,-9.46763 0,-5.20731 -4.26032,-9.46816 -9.46764,-9.46816 z m 47.33923,0 c -5.20731,0 -9.42061,4.26085 -9.42061,9.46816 0,5.20732 4.2133,9.46763 9.42061,9.46763 5.20732,0 9.46764,-4.26031 9.46764,-9.46763 0,-5.20731 -4.26032,-9.46816 -9.46764,-9.46816 z"
       id="shopping-cart"
       inkscape:connector-curvature="0" />
    <path
       id="Innotec-Cloud"
       d="m 151.49667,10.791823 c -2.28117,0.0165 -4.58052,0.5932 -6.51827,1.68913 -1.29252,0.73138 -2.27941,1.53445 -3.27788,2.66756 -1.89853,2.15476 -2.82306,4.51714 -2.85494,7.29455 l -0.0114,1.05744 -0.68394,0.40286 c -0.91843,0.54157 -1.68027,1.21272 -2.55779,2.25397 -1.2064,1.43136 -1.89144,2.86905 -2.20577,4.6271 -0.154,0.86134 -0.15563,1.13573 -0.0114,2.51492 0.145,1.38006 0.20395,1.64718 0.53405,2.45739 0.69373,1.70279 1.6459,2.93528 3.17347,4.10905 2.05133,1.57595 3.9304,2.21211 6.85022,2.31955 0.14239,0.005 6.70702,-0.6735 14.58783,-1.50841 0.20938,-0.0239 0.16725,-0.0186 0.37051,-0.0422 l -0.33329,-3.35419 c -0.39056,0.0445 -0.38266,0.0436 -0.79801,0.083 -15.39033,1.61039 -14.42679,1.55247 -16.18461,0.98238 -0.84999,-0.27564 -1.16023,-0.44059 -1.96886,-1.04524 -1.60755,-1.20225 -2.3798,-2.51832 -2.57655,-4.39023 -0.19676,-1.87215 0.28641,-3.32621 1.60349,-4.82105 1.33188,-1.51143 2.61482,-2.15481 4.78766,-2.40252 1.18795,-0.13569 1.67615,-0.14043 2.29947,0.0173 0.90432,0.22897 1.23536,0.0902 1.9809,-0.10168 0.67538,-0.17374 1.38109,-1.25653 0.42429,-2.16432 -0.73661,-0.69884 -1.61087,-0.7682 -1.93809,-0.8178 -0.4849,-0.074 -2.20537,-0.13945 -2.95127,-0.0441 l -0.74016,0.0938 0.0201,-0.4109 c 0.16431,-3.40658 2.33653,-6.21901 5.8223,-7.53951 0.83448,-0.31669 2.20094,-0.51708 3.33542,-0.52071 0.37809,-0.002 0.72968,0.0203 1.02793,0.0656 1.57139,0.23893 3.27637,0.93275 4.34999,1.77073 l 0.38011,0.2959 -0.95163,1.16173 c -0.82107,1.00186 -0.64757,1.74757 -0.40556,2.13482 0.30095,0.48162 0.63489,0.84173 1.7855,0.65718 0.40002,-0.0456 0.85254,-0.39645 1.66638,-1.3063 0.8484,-0.9485 0.87826,-0.97109 1.5767,-1.18586 0.91203,-0.28061 2.29916,-0.35859 3.29394,-0.1847 1.28828,0.22514 2.14714,0.59421 3.1882,1.36791 1.22825,0.91261 1.96325,1.91849 2.38647,3.26981 l 0.13111,0.4203 -1.33041,0.30116 c -0.90834,0.20451 -2.27289,0.89956 -2.95801,2.01165 -0.29885,0.59035 -0.12963,1.08113 0.27708,1.54996 0.17772,0.20484 0.61105,0.39269 1.29294,0.36673 1.09628,-0.0512 1.64895,-1.27159 3.00215,-1.2863 1.11964,-0.11967 3.26781,0.5141 4.68193,2.48825 1.07151,1.49069 1.1223,3.02111 0.38413,4.70197 -0.33864,0.77115 -0.9243,1.47192 -1.64763,2.02107 l 0.37743,3.78783 c 2.96242,-1.35434 4.81595,-3.63876 5.34713,-6.6146 0.1702,-0.95337 -0.049,-3.03934 -0.41892,-3.98059 -0.81057,-2.06274 -2.41169,-3.75672 -4.4303,-4.6873 l -0.77095,-0.35606 -0.15661,-0.80435 c -0.31005,-1.58917 -1.11132,-3.2072 -2.22986,-4.50255 -0.59597,-0.69025 -2.34263,-2.00923 -3.19222,-2.41063 -2.11326,-0.99857 -3.77772,-1.28361 -6.21311,-1.06403 l -1.49375,0.13487 -1.21801,-0.91415 c -1.3401,-1.0051 -2.43123,-1.57494 -3.90562,-2.03988 -1.27398,-0.4017 -2.63595,-0.59217 -4.00465,-0.58219 z"
       style="fill:#009fd7;fill-opacity:1;stroke-width:0.81289464"
       inkscape:connector-curvature="0" />
    <path
       style="fill:#009fd7;fill-opacity:1;stroke-width:0.07047592"
       d="m 166.30262,42.900413 c -2.0684,-0.23226 -3.85444,-1.4286 -4.85772,-3.25385 -0.56106,-1.02071 -0.78635,-2.06228 -0.72534,-3.35352 0.0751,-1.58969 0.66558,-2.93406 1.78542,-4.06497 2.64442,-2.67058 7.02417,-2.4438 9.3731,0.48536 0.51639,0.64394 0.9351,1.45398 1.16879,2.26116 0.14124,0.48782 0.16193,0.71232 0.15887,1.72372 -0.003,1.07704 -0.018,1.20706 -0.20002,1.7619 -0.45946,1.40061 -1.34165,2.60339 -2.48794,3.39206 -1.13871,0.78344 -2.82908,1.20377 -4.21516,1.04814 z m 1.35156,-0.85116 c 1.28183,-0.17603 2.26709,-0.67196 3.19602,-1.60873 0.45221,-0.45605 0.67719,-0.75323 0.90906,-1.20075 0.46852,-0.90434 0.57575,-1.31451 0.61911,-2.36832 0.0323,-0.78595 0.0162,-1.00566 -0.11148,-1.51524 -0.39699,-1.58475 -1.48222,-2.92345 -2.93667,-3.62253 -0.69607,-0.33457 -1.22044,-0.46327 -2.0794,-0.51033 -1.80413,-0.0989 -3.43946,0.63729 -4.55175,2.04917 -1.50062,1.9048 -1.55592,4.56974 -0.13612,6.55942 0.77732,1.08933 2.06332,1.92108 3.31681,2.14527 0.92155,0.16483 1.05837,0.17037 1.77442,0.072 z m -1.14013,-2.41826 c -0.52298,-0.12737 -1.00589,-0.39098 -1.37762,-0.75206 -0.25057,-0.24339 -0.36286,-0.30866 -0.46323,-0.26925 -0.24494,0.0962 -0.29496,0.0631 -0.40801,-0.26848 -0.10866,-0.31886 -0.0787,-0.4393 0.11036,-0.44373 0.0254,-5.2e-4 0.0124,-0.11131 -0.029,-0.24623 -0.0626,-0.20407 -0.10124,-0.23863 -0.23034,-0.20624 -0.12982,0.0326 -0.17391,-0.008 -0.27054,-0.2496 -0.15454,-0.38622 -0.1483,-0.4225 0.0866,-0.50438 0.18862,-0.0658 0.20453,-0.10106 0.23905,-0.5312 0.10593,-1.31969 1.33871,-2.53804 2.82581,-2.79278 0.75663,-0.12953 1.65722,0.11615 2.26543,0.61812 l 0.21142,0.17449 -0.53246,0.53265 -0.53246,0.53266 -0.19979,-0.15717 c -0.50102,-0.39408 -1.27629,-0.37842 -1.82139,0.0368 -0.27511,0.20956 -0.6723,0.78358 -0.5954,0.86047 0.0185,0.0186 0.42604,-0.10896 0.90565,-0.28306 0.4796,-0.17417 0.89125,-0.29425 0.91476,-0.26683 0.0235,0.0274 0.0947,0.18433 0.15826,0.34875 l 0.1155,0.29892 -0.22823,0.0939 c -0.12553,0.0516 -0.56204,0.21209 -0.97002,0.35665 -0.97069,0.34392 -0.94489,0.32561 -0.83085,0.58947 l 0.0926,0.21436 1.04883,-0.38233 c 0.57685,-0.21029 1.0559,-0.3733 1.06455,-0.36228 0.009,0.0112 0.0659,0.17063 0.12731,0.35465 0.1325,0.39729 0.20556,0.33769 -0.88403,0.72118 -0.41669,0.14666 -0.75761,0.29306 -0.75761,0.32534 0,0.0874 0.2237,0.19094 0.59011,0.27306 0.80048,0.17941 1.59549,-0.29516 1.81277,-1.08204 0.0591,-0.21408 0.10098,-0.2545 0.2609,-0.2519 0.31268,0.005 1.2176,0.11961 1.25708,0.15905 0.083,0.0831 -0.22843,0.94301 -0.47555,1.31309 -0.67832,1.01579 -2.19549,1.55892 -3.48055,1.24602 z m -3.48856,3.01598 c -1.69954,-0.57609 -2.97963,-1.86431 -3.56502,-3.58773 -0.1598,-0.47044 -0.197,-0.72193 -0.22468,-1.51873 -0.0376,-1.08252 0.0868,-1.75635 0.47879,-2.59409 0.21976,-0.46963 0.73994,-1.24524 0.95449,-1.42324 0.11548,-0.0957 0.11532,-0.0873 -0.002,0.14055 -0.21125,0.40859 -0.45943,1.2071 -0.56819,1.82809 -0.17945,1.02471 -0.11443,2.09385 0.19107,3.14147 0.44348,1.52077 1.51035,2.95657 2.85069,3.83648 0.30154,0.19798 0.51802,0.35914 0.48105,0.35814 -0.037,-0.001 -0.30507,-0.0823 -0.59578,-0.18094 z"
       id="coins"
       inkscape:connector-curvature="0" />
  </g>
  <g
     id="my-account-icon">
    <path
       style="fill:#009fd7;fill-opacity:1;stroke-width:0.13271871"
       d="m 251.47705,1.5135907 c -0.18444,0 -1.12572,0.3962063 -2.09186,0.8805664 -5.78735,2.9014099 -11.97785,5.4935169 -16.68787,6.987687 -4.39608,1.3945699 -7.44977,2.0699589 -14.81718,3.2773189 -3.12833,0.51265 -5.92105,0.997021 -6.20634,1.07642 l -0.51884,0.143661 0.0868,3.472656 c 0.16043,6.43468 0.76389,17.390014 1.21853,22.119062 0.40797,4.243502 2.39127,12.394057 4.36924,17.954977 1.42996,4.020211 2.93239,7.37375 4.62091,10.314098 2.26059,3.936551 3.968,6.549565 6.42338,9.832475 2.96662,3.96644 5.76732,6.874111 10.46396,10.861871 4.18467,3.55305 5.24333,4.373787 7.03368,5.452896 0.87564,0.52778 1.8311,1.123828 2.12339,1.324467 0.59784,0.41039 2.87736,1.578081 3.38532,1.734261 0.18249,0.0561 0.36605,0.107689 0.40824,0.113689 0.11683,0.01738 1.69679,-0.638913 2.44481,-1.015441 1.64346,-0.827302 5.58501,-3.365712 7.03317,-4.529442 2.24874,-1.807099 6.1936,-5.194028 7.34787,-6.308656 1.38014,-1.33273 4.57634,-4.762199 5.3976,-5.79138 1.05334,-1.31999 3.86061,-5.214535 4.78007,-6.631636 3.67964,-5.67106 6.12583,-10.693288 8.23929,-16.91473 1.37172,-4.037949 2.96608,-10.524157 3.55741,-14.473018 0.58003,-3.873449 1.34927,-17.095684 1.43609,-24.682214 l 0.0336,-2.916101 -1.59266,-0.304374 c -0.87595,-0.16762 -2.9065,-0.514199 -4.51239,-0.769979 C 277.3871,11.437975 273.03482,10.4098 267.71482,8.5328001 263.72925,7.1266202 258.48998,4.8598554 253.83453,2.5269654 252.72226,1.9696053 251.66149,1.5135907 251.47705,1.5135907 Z"
       id="herald"
       inkscape:connector-curvature="0" />
    <ellipse
       style="fill:#ffffff;fill-opacity:1;stroke:none;stroke-width:0.26325634"
       id="white-circle"
       cx="252.30322"
       cy="40.894974"
       rx="27.862757"
       ry="27.815985" />
    <path
       style="fill:#007198;fill-opacity:1;stroke:none;stroke-width:0.26458332"
       d="m 252.38863,13.03744 c -15.42834,-1.1e-4 -27.93558,12.5069 -27.93577,27.93524 0.003,5.42099 1.58401,10.72389 4.54908,15.26212 v -0.2279 c 0,-7.78442 15.60226,-11.69282 23.38669,-11.69282 7.78441,0 23.38668,3.9084 23.38668,11.69282 v 0.19999 c 2.95989,-4.53027 4.54026,-9.82272 4.54908,-15.23421 -1.9e-4,-15.42834 -12.50743,-27.93535 -27.93576,-27.93524 z m 0,4.54854 c 5.54598,0 9.98957,4.47718 9.98957,10.02317 0,5.54598 -4.4436,10.02264 -9.98957,10.02264 -5.54599,0 -10.02316,-4.47666 -10.02316,-10.02264 0,-5.54599 4.47717,-10.02317 10.02316,-10.02317 z"
       id="darkblue-background"
       inkscape:connector-curvature="0" />
  </g>
  <g
     viewbox="0 100 100 100"
     id="company"
     transform="translate(-1.5090691,-92.326863)">
    <path
       style="fill:#999999;fill-opacity:1;stroke:none;stroke-width:0.29060435"
       d="m 65.068066,201.71154 c -0.239481,0.0133 -0.494051,0.0675 -0.757531,0.16514 L 3.1364633,224.50454 c -0.7552119,0.27982 -1.3570968,1.24793 -1.3570968,2.17327 v 55.69063 c 0,0.92581 0.6016854,1.74758 1.3570968,1.84417 20.3967897,2.61394 40.7859847,5.27455 61.1836467,7.88289 0.289793,0.0371 0.567494,0.0213 0.827541,-0.0359 0.274221,0.0669 0.569304,0.0873 0.877803,0.0478 l 31.955204,-4.08626 c 0.939887,-0.12019 1.688029,-1.14335 1.687995,-2.29533 l -0.0019,-69.29391 c -3.5e-5,-1.15137 -0.748959,-2.35578 -1.688592,-2.70402 L 66.033834,201.88866 c -0.07975,-0.0295 -0.158443,-0.0539 -0.236358,-0.0754 -0.220171,-0.0789 -0.464916,-0.11648 -0.72941,-0.10178 z m -6.807024,10.91422 6.12e-4,9.97597 -9.017993,2.38928 v -9.46197 z m 13.82288,0.0119 9.017396,2.90387 v 9.46198 l -9.017993,-2.38987 z m -27.670295,4.44647 v 9.18673 l -7.678248,2.03445 v -8.74873 z m 41.51771,0.0126 7.678248,2.47244 v 8.74874 l -7.678248,-2.03505 z m -61.983662,6.53356 0.0012,8.01753 -7.248023,1.92016 -6.12e-4,-7.60465 z m -11.129032,3.58243 6.12e-4,7.38325 -6.1715729,1.63473 v -7.03141 z m 45.443596,0.62648 6.13e-4,9.97778 -9.01859,1.60542 v -9.46379 z m 13.820488,0.0119 9.01799,2.11942 v 9.46377 l -9.018591,-1.60482 z m -27.668499,3.24256 v 9.18852 l -7.679446,1.36667 6.12e-4,-8.75052 z m 41.516511,0.0119 7.679446,1.80468 v 8.75052 l -7.679446,-1.36666 z m -61.981868,4.75164 0.0012,8.01871 -7.248022,1.28949 -6.12e-4,-7.60585 z m -11.12963,2.61487 6.13e-4,7.38445 -6.1721719,1.09797 v -7.03261 z m 45.445392,18.00786 v 4.24123 l -21.529851,1.01303 v -3.71945 z m 13.815699,0.0119 9.0156,0.64264 v 9.21845 l -9.016198,-0.23636 z m 13.850407,0.98731 7.679446,0.5475 v 8.65419 l -7.679446,-0.20106 z m -61.979474,1.39538 6.13e-4,3.40891 -17.3035831,0.81317 v -2.98944 z m 34.313967,4.9132 v 4.24183 l -21.53045,0.11313 v -3.71944 z m -34.313369,0.95978 6.13e-4,3.4089 -17.3041811,0.091 v -2.98945 z m 69.658322,5.04319 v 11.18288 l -7.679446,0.60136 v -8.90849 l 7.627986,-0.30576 z m -86.9619046,0.61811 17.3041816,0.21242 6.12e-4,3.4089 -17.3047791,-0.63188 z m 30.0865016,0.42365 21.531048,0.26387 v 4.24184 L 36.734782,274.5519 Z m 44.36115,2.02727 v 9.09398 l -9.017393,0.70607 6.13e-4,-9.43864 z m -74.4470531,2.69983 17.3041821,0.93525 6.12e-4,3.40949 -17.3047798,-1.3553 z m 30.0859031,1.68201 21.531645,1.16382 v 4.24183 L 36.734782,280.9616 Z"
       id="building" />
  </g>
  <g
     viewbox="100 100 100 100"
     id="users"
     transform="translate(100.93562,-89.913236)">
    <path
       d="m 31.900934,240.55352 c 7.436662,0 13.394956,-6.00309 13.394956,-13.43976 0,-7.43667 -5.958294,-13.43976 -13.394956,-13.43976 -7.436672,0 -13.439765,6.00309 -13.439765,13.43976 0,7.43667 6.003093,13.43976 13.439765,13.43976 z m 0,8.95984 c -10.438218,0 -31.35944248,5.24151 -31.35944248,15.67972 v 11.1998 H 63.260367 v -11.1998 c 0,-10.43821 -20.921225,-15.67972 -31.359433,-15.67972 z"
       id="foreground-person"
       style="fill:#000000;stroke-width:4.47991991" />
    <path
       d="m 67.857679,240.55352 c 7.436671,0 13.394963,-6.00309 13.394963,-13.43976 0,-7.43667 -5.958292,-13.43976 -13.394963,-13.43976 -7.43667,0 -13.439765,6.00309 -13.439765,13.43976 0,7.43667 6.003095,13.43976 13.439765,13.43976 z m 0,8.95984 c -1.299181,0 -2.777556,0.0896 -4.345528,0.224 5.196709,3.76313 8.825444,8.82544 8.825444,15.45572 v 11.1998 h 26.879514 v -11.1998 c 0,-10.43821 -20.921215,-15.67972 -31.35943,-15.67972 z"
       id="background-person"
       style="fill:#999999;fill-opacity:1;stroke-width:4.47991943" />
  </g>
  <g
     viewbox="100 200 100 100"
     id="user-rights"
     transform="matrix(0.28222222,0,0,0.28222222,206.36948,107.2334)">
    <path
       id="person"
       d="m 159.40247,12.075805 c -38.35701,0 -69.424442,31.068571 -69.424442,69.426271 0,21.118114 9.428286,40.012784 24.294432,52.743524 7.0285,-3.82632 14.94164,-6.03067 23.10242,-6.38671 2.12613,-0.0926 4.26794,-0.0593 6.41418,0.10437 14.61751,1.11459 28.15582,8.11948 38.07495,19.2334 27.32203,-9.33331 46.96472,-35.20164 46.96472,-65.694584 0,-38.3577 -31.06796,-69.426271 -69.42626,-69.426271 z M 196.1792,189.19006 c -0.13225,1.27931 -0.30595,2.56896 -0.54016,3.88367 a 12.296432,12.296432 0 0 0 0,0.002 c -2.36798,13.28758 -9.38761,25.15181 -19.99695,33.07067 -4.85136,3.62109 -9.81689,6.13557 -15.68664,7.81311 -7.5589,2.16036 -15.53715,2.52675 -23.33496,1.36597 -0.36706,1.11556 -0.753,2.2159 -1.48499,3.62731 -0.8757,1.6882 -2.58336,4.21738 -5.53345,5.94361 -2.95008,1.72623 -6.0006,1.9176 -7.43041,1.89881 -1.65226,-0.0217 -4.37881,-1.00857 -6.70899,-2.10572 l -0.0146,0.42846 a 12.296432,12.296432 0 0 1 -12.28821,11.91468 h -2.66968 v 0.92285 a 12.296432,12.296432 0 0 1 -3.632814,8.72681 l -2.34375,2.32544 -2.341916,2.32544 a 12.296432,12.296432 0 0 1 -8.314819,3.56506 l -3.024903,0.0842 0.06958,-0.82397 a 12.296432,12.296432 0 0 1 -0.15564,0.82581 12.296432,12.296432 0 0 1 -3.625488,6.20178 l -3.237304,2.98278 a 12.296432,12.296432 0 0 0 0,0.002 l -3.239136,2.98279 a 12.296432,12.296432 0 0 1 -4.480591,2.62574 H 298.25503 v -34.71314 c 0,-35.76581 -55.51229,-57.77041 -102.07581,-65.87586 z M 76.926271,201.38123 c -30.900786,11.5594 -56.374513,29.46275 -56.374513,53.68469 v 34.71314 h 14.285889 c -2.096211,-1.08825 -3.938451,-2.90732 -4.793701,-4.11622 -0.931586,-1.31666 -1.166346,-1.96105 -1.331177,-2.30713 a 12.296432,12.296432 0 0 0 0,-0.002 c -3.555648,-7.46213 -2.249792,-14.55113 -0.04029,-21.47461 a 12.296432,12.296432 0 0 1 0,-0.006 l 1.001588,-3.1311 a 12.296432,12.296432 0 0 1 3.012084,-4.94385 L 59.697875,226.7613 a 12.296432,12.296432 0 0 0 0,-0.002 l 18.984376,-19.00085 0.999756,1.16821 c -0.611524,-0.87314 -1.222302,-1.73815 -1.853028,-3.18787 -0.550642,-1.26578 -0.811571,-2.80268 -0.902709,-4.35791 z"
       style="fill:#999999;fill-opacity:1;stroke-width:17.35642624" />
    <g
       id="key"
       transform="matrix(1.0106154,0,0,1.0106154,-1907.3787,14.223924)">
      <path
         id="path5126"
         d="m 1926.7528,261.16701 c -1.339,-2.81007 -1.1484,-6.93154 0.5696,-12.31498 l 0.9885,-3.09769 26.7296,-26.75408 26.7297,-26.75407 -0.5478,-0.64183 c -0.3013,-0.35301 -1.7039,-1.92324 -3.1168,-3.4894 -2.8596,-3.16969 -3.1839,-3.91479 -2.4748,-5.68707 0.7827,-1.95599 1.5644,-2.24394 7.915,-2.91562 3.0578,-0.32341 5.5992,-0.61881 5.6477,-0.65645 0.048,-0.0376 -0.2326,-1.12478 -0.6245,-2.41587 -4.1043,-13.51858 -1.7581,-27.41719 6.3245,-37.46437 7.9025,-9.82335 20.7137,-15.20263 33.8254,-14.20285 11.8334,0.90231 22.7836,6.75297 30.7686,16.43965 4.6876,5.68654 8.1765,13.19723 9.4644,20.37444 0.622,3.46585 0.6305,9.91037 0.018,13.34877 -1.8479,10.36921 -7.14,19.1761 -15.0875,25.10818 -2.8891,2.15644 -8.2422,4.82881 -11.5883,5.78512 -7.9765,2.27968 -17.4024,2.01745 -25.5453,-0.71068 -1.4085,-0.4719 -2.652,-0.75354 -2.7632,-0.62589 -0.1112,0.12766 -0.9174,2.95104 -1.7914,6.27418 -1.7113,6.50609 -2.1326,7.31845 -3.7836,7.29674 -1.2286,-0.0162 -1.8993,-0.54594 -6.3695,-5.03124 l -4.2546,-4.26903 -4.005,4.22056 -4.0049,4.22056 -0.1685,5.49303 -0.1685,5.49304 h -7.2197 -7.2197 l -0.1837,3.41645 c -0.101,1.87904 -0.1837,4.82207 -0.1837,6.54007 v 3.12364 l -2.3185,2.30074 -2.3184,2.30073 -6.9205,0.19461 -6.9205,0.1946 -0.1704,1.99488 c -0.094,1.09719 -0.257,3.13304 -0.3629,4.52412 l -0.1925,2.52925 -3.204,2.95078 -3.2039,2.95078 -6.6446,0.19801 c -3.6546,0.10892 -6.6719,0.17081 -6.7052,0.13754 -0.059,-0.0593 4.4639,-4.52011 43.4578,-42.85963 l 19.2504,-18.92726 2.769,-5.33386 c 1.5229,-2.93362 2.7243,-5.37324 2.6697,-5.42137 -0.055,-0.0481 -16.7075,16.32521 -37.0064,36.38521 l -36.9073,36.47271 -1.3644,0.0959 c -1.2923,0.0908 -1.3868,0.049 -1.7871,-0.79101 z m 116.5237,-100.30339 c 1.7943,-0.61137 3.8453,-2.52127 4.8532,-4.51934 0.7225,-1.43228 0.829,-1.9485 0.8315,-4.03135 0,-2.0448 -0.1092,-2.61699 -0.7757,-3.97414 -0.8649,-1.7612 -2.6056,-3.51779 -4.4627,-4.50336 -1.0273,-0.5452 -1.6482,-0.64926 -3.8921,-0.65228 -3.1531,-0.004 -4.6826,0.58936 -6.6895,2.59626 -1.8739,1.87393 -2.4418,3.36379 -2.4368,6.39301 0,2.11177 0.1181,2.76117 0.6944,3.93437 2.1789,4.43529 7.0712,6.39458 11.8777,4.75683 z"
         style="fill:#4d4d4d;stroke-width:0.28102678" />
    </g>
    <g
       id="grant-deny">
      <g
         id="grant">
        <circle
           style="fill:#ffffff;fill-opacity:1;stroke:none;stroke-width:0.65256178"
           id="grant-background"
           cx="254.56213"
           cy="142.33128"
           r="36.662849" />
        <path
           style="fill:#44aa00;stroke-width:0.65256178"
           d="m 262.79328,181.30874 c 38.20469,-10.35474 38.30729,-60.59944 4.52366,-73.52839 -4.75496,-1.72944 -15.28171,-2.34047 -20.75306,-1.20462 -6.19039,1.28512 -13.79742,5.52618 -18.65234,10.39908 -14.58014,17.07387 -14.19223,38.59104 -0.60767,53.23314 9.40768,9.9038 22.17284,13.89665 35.48941,11.10079 z m -19.24469,-28.05141 -7.47735,-7.49859 3.55265,-3.59733 3.55265,-3.59733 4.10303,4.06655 4.10296,4.06654 8.00525,-7.98601 8.00524,-7.98601 3.5585,3.60325 3.5585,3.60327 -11.39815,11.41212 c -6.26898,6.27668 -11.55288,11.41213 -11.74207,11.41213 -0.18913,0 -3.70871,-3.37436 -7.82121,-7.49859 z"
           id="grant-foreground" />
      </g>
      <g
         id="deny">
        <ellipse
           style="fill:#ffffff;fill-opacity:1;stroke:none;stroke-width:0.54502475"
           id="deny-background"
           cx="254.56213"
           cy="235.23833"
           rx="30.830126"
           ry="30.413502" />
        <path
           style="fill:#ff0000;stroke-width:0.65256178"
           d="m 265.62815,263.77445 c 34.01082,-15.5883 29.91315,-60.9191 -2.02875,-70.069 -4.48392,-1.16789 -12.47817,-1.2999 -17.39685,-0.28727 -37.46909,9.36586 -35.49379,63.04398 -0.52149,70.98441 1.97397,0.39885 4.17639,0.85469 4.89418,1.01296 2.42189,0.53403 11.05951,-0.40767 15.05291,-1.6411 z m -26.32459,-19.69293 -4.71605,-4.74775 5.22133,-5.19069 5.22133,-5.19069 -5.22328,-5.25055 -5.22328,-5.25055 4.571,-4.53595 4.57092,-4.53594 5.21938,5.18877 5.21945,5.18878 5.2253,-5.1947 5.22536,-5.19471 4.71571,4.71574 4.71578,4.71574 -5.19474,5.22534 -5.19467,5.22536 5.19467,5.22534 5.19474,5.22536 -4.56793,4.56793 -4.56794,4.56793 -5.19557,-5.22619 -5.19551,-5.22618 -5.24993,5.22268 -5.25001,5.22268 z"
           id="deny-foreground" />
      </g>
    </g>
  </g>
  <metadata
     id="metadata4536">
    <rdf:RDF>
      <cc:Work
         rdf:about="">
        <dc:format>image/svg+xml</dc:format>
        <dc:type
           rdf:resource="http://purl.org/dc/dcmitype/StillImage" />
        <dc:title />
      </cc:Work>
    </rdf:RDF>
  </metadata>
</svg>
