<?xml version="1.0" encoding="UTF-8" standalone="no"?>
<svg
   xmlns:dc="http://purl.org/dc/elements/1.1/"
   xmlns:cc="http://creativecommons.org/ns#"
   xmlns:rdf="http://www.w3.org/1999/02/22-rdf-syntax-ns#"
   xmlns:svg="http://www.w3.org/2000/svg"
   xmlns="http://www.w3.org/2000/svg"
   id="svg8"
   version="1.1"
   viewBox="0 0 100 100"
   height="100mm"
   width="100mm">
  <defs
     id="defs2" />
  <metadata
     id="metadata5">
    <rdf:RDF>
      <cc:Work
         rdf:about="">
        <dc:format>image/svg+xml</dc:format>
        <dc:type
           rdf:resource="http://purl.org/dc/dcmitype/StillImage" />
        <dc:title></dc:title>
      </cc:Work>
    </rdf:RDF>
  </metadata>
  <g
     transform="translate(0,-197)"
     id="layer1">
    <g
       transform="translate(-0.53874922,0.26726953)"
       id="g4551" />
    <path
       id="rect4498"
       d="m 65.068066,201.71154 c -0.239481,0.0133 -0.494051,0.0675 -0.757531,0.16514 L 3.1364633,224.50454 c -0.7552119,0.27982 -1.3570968,1.24793 -1.3570968,2.17327 v 55.69063 c 0,0.92581 0.6016854,1.74758 1.3570968,1.84417 20.3967897,2.61394 40.7859847,5.27455 61.1836467,7.88289 0.289793,0.0371 0.567494,0.0213 0.827541,-0.0359 0.274221,0.0669 0.569304,0.0873 0.877803,0.0478 l 31.955204,-4.08626 c 0.939887,-0.12019 1.688029,-1.14335 1.687995,-2.29533 l -0.0019,-69.29391 c -3.5e-5,-1.15137 -0.748959,-2.35578 -1.688592,-2.70402 L 66.033834,201.88866 c -0.07975,-0.0295 -0.158443,-0.0539 -0.236358,-0.0754 -0.220171,-0.0789 -0.464916,-0.11648 -0.72941,-0.10178 z m -6.807024,10.91422 6.12e-4,9.97597 -9.017993,2.38928 v -9.46197 z m 13.82288,0.0119 9.017396,2.90387 v 9.46198 l -9.017993,-2.38987 z m -27.670295,4.44647 v 9.18673 l -7.678248,2.03445 v -8.74873 z m 41.51771,0.0126 7.678248,2.47244 v 8.74874 l -7.678248,-2.03505 z m -61.983662,6.53356 0.0012,8.01753 -7.248023,1.92016 -6.12e-4,-7.60465 z m -11.129032,3.58243 6.12e-4,7.38325 -6.1715729,1.63473 v -7.03141 z m 45.443596,0.62648 6.13e-4,9.97778 -9.01859,1.60542 v -9.46379 z m 13.820488,0.0119 9.01799,2.11942 v 9.46377 l -9.018591,-1.60482 z m -27.668499,3.24256 v 9.18852 l -7.679446,1.36667 6.12e-4,-8.75052 z m 41.516511,0.0119 7.679446,1.80468 v 8.75052 l -7.679446,-1.36666 z m -61.981868,4.75164 0.0012,8.01871 -7.248022,1.28949 -6.12e-4,-7.60585 z m -11.12963,2.61487 6.13e-4,7.38445 -6.1721719,1.09797 v -7.03261 z m 45.445392,18.00786 v 4.24123 l -21.529851,1.01303 v -3.71945 z m 13.815699,0.0119 9.0156,0.64264 v 9.21845 l -9.016198,-0.23636 z m 13.850407,0.98731 7.679446,0.5475 v 8.65419 l -7.679446,-0.20106 z m -61.979474,1.39538 6.13e-4,3.40891 -17.3035831,0.81317 v -2.98944 z m 34.313967,4.9132 v 4.24183 l -21.53045,0.11313 v -3.71944 z m -34.313369,0.95978 6.13e-4,3.4089 -17.3041811,0.091 v -2.98945 z m 69.658322,5.04319 v 11.18288 l -7.679446,0.60136 v -8.90849 l 7.627986,-0.30576 z m -86.9619046,0.61811 17.3041816,0.21242 6.12e-4,3.4089 -17.3047791,-0.63188 z m 30.0865016,0.42365 21.531048,0.26387 v 4.24184 L 36.734782,274.5519 Z m 44.36115,2.02727 v 9.09398 l -9.017393,0.70607 6.13e-4,-9.43864 z m -74.4470531,2.69983 17.3041821,0.93525 6.12e-4,3.40949 -17.3047798,-1.3553 z m 30.0859031,1.68201 21.531645,1.16382 v 4.24183 L 36.734782,280.9616 Z"
       style="fill:#999999;fill-opacity:1;stroke:none;stroke-width:0.29060435" />
  </g>
</svg>
