<?xml version="1.0" encoding="UTF-8" standalone="no"?>
<svg
   xmlns:dc="http://purl.org/dc/elements/1.1/"
   xmlns:cc="http://creativecommons.org/ns#"
   xmlns:rdf="http://www.w3.org/1999/02/22-rdf-syntax-ns#"
   xmlns:svg="http://www.w3.org/2000/svg"
   xmlns="http://www.w3.org/2000/svg"
   id="svg8"
   version="1.1"
   viewBox="0 0 100 100"
   height="100mm"
   width="100mm">
  <defs
     id="defs2" />
  <metadata
     id="metadata5">
    <rdf:RDF>
      <cc:Work
         rdf:about="">
        <dc:format>image/svg+xml</dc:format>
        <dc:type
           rdf:resource="http://purl.org/dc/dcmitype/StillImage" />
        <dc:title></dc:title>
      </cc:Work>
    </rdf:RDF>
  </metadata>
  <g
     transform="translate(0,-197)"
     id="layer1">
    <g
       transform="translate(-0.53874922,0.26726953)"
       id="g4551" />
    <path
       id="path4953"
       transform="matrix(0.26458333,0,0,0.26458333,0,197)"
       d="m 188.68555,10.478516 c -0.69711,0 -4.25469,1.497473 -7.90625,3.328125 C 158.90586,24.7726 135.50869,34.56954 117.70703,40.216797 101.09195,45.487613 89.550441,48.040265 61.705078,52.603516 49.881503,54.54109 39.326327,56.371781 38.248047,56.671875 l -1.960938,0.542969 0.328125,13.125 c 0.606349,24.32005 2.88713,65.726036 4.605469,83.599606 1.541915,16.03843 9.037861,46.84368 16.513672,67.86133 5.404543,15.1945 11.083047,27.86929 17.464844,38.98242 8.543977,14.8783 14.997182,24.75426 24.277343,37.16211 11.212418,14.99127 21.797738,25.98089 39.548828,41.05274 15.81608,13.42885 19.81732,16.53085 26.58399,20.60937 3.3095,1.99476 6.92069,4.24754 8.02539,5.00586 2.25956,1.55108 10.87507,5.9644 12.79492,6.55469 0.68972,0.21203 1.38351,0.40701 1.54297,0.42969 0.44156,0.0657 6.41306,-2.41479 9.24023,-3.83789 6.2115,-3.12681 21.10869,-12.7208 26.58203,-17.11915 8.49918,-6.82998 23.40889,-19.63097 27.77149,-23.84374 5.21628,-5.03709 17.2964,-17.99886 20.40039,-21.88868 3.98113,-4.98894 14.59126,-19.70848 18.0664,-25.06445 13.90731,-21.43393 23.15275,-40.41558 31.14063,-63.92969 5.18444,-15.26154 11.21039,-39.77634 13.44531,-54.70117 2.19227,-14.63981 5.0996,-64.61361 5.42774,-93.287109 l 0.12695,-11.021484 -6.01953,-1.150391 C 330.84364,55.120382 323.16913,53.810478 317.09961,52.84375 286.61329,47.988002 270.16372,44.101986 250.05664,37.007812 234.99309,31.693116 215.19112,23.125816 197.5957,14.308594 c -4.20384,-2.106558 -8.21305,-3.830078 -8.91015,-3.830078 z"
       style="fill:#009fd7;fill-opacity:1;stroke-width:0.50161403" />
    <ellipse
       ry="27.815985"
       rx="27.862757"
       cy="239.15382"
       cx="50.749218"
       id="path5143"
       style="fill:#ffffff;fill-opacity:1;stroke:none;stroke-width:0.26325634" />
    <path
       id="path5080"
       d="m 50.834626,211.29629 c -15.428336,-1.1e-4 -27.935576,12.5069 -27.935766,27.93524 0.003,5.42099 1.58401,10.72389 4.54908,15.26212 v -0.2279 c 0,-7.78442 15.602261,-11.69282 23.386686,-11.69282 7.784417,0 23.386684,3.9084 23.386684,11.69282 v 0.19999 c 2.959889,-4.53027 4.540261,-9.82272 4.549077,-15.23421 -1.83e-4,-15.42834 -12.507426,-27.93535 -27.935761,-27.93524 z m 0,4.54854 c 5.545979,0 9.989571,4.47718 9.989571,10.02317 0,5.54598 -4.443592,10.02264 -9.989571,10.02264 -5.545987,0 -10.02316,-4.47666 -10.02316,-10.02264 0,-5.54599 4.477173,-10.02317 10.02316,-10.02317 z"
       style="fill:#007198;fill-opacity:1;stroke:none;stroke-width:0.26458332" />
    <g
       transform="translate(14.644464,-90.430716)"
       id="layer1-3">
      <g
         transform="matrix(1.7783238,0,0,1.7783238,0.62082331,197.96874)"
         id="g5247"
         style="fill:#000000" />
    </g>
  </g>
</svg>
