<?xml version="1.0" encoding="UTF-8" standalone="no"?>
<svg
   xmlns:dc="http://purl.org/dc/elements/1.1/"
   xmlns:cc="http://creativecommons.org/ns#"
   xmlns:rdf="http://www.w3.org/1999/02/22-rdf-syntax-ns#"
   xmlns:svg="http://www.w3.org/2000/svg"
   xmlns="http://www.w3.org/2000/svg"
   id="svg2"
   version="1.1"
   width="341.54971"
   height="324.57916"
   viewBox="0 0 320.20286 304.29297">
  <metadata
     id="metadata8">
    <rdf:RDF>
      <cc:Work
         rdf:about="">
        <dc:format>image/svg+xml</dc:format>
        <dc:type
           rdf:resource="http://purl.org/dc/dcmitype/StillImage" />
        <dc:title></dc:title>
      </cc:Work>
    </rdf:RDF>
  </metadata>
  <defs
     id="defs6" />
  <g
     transform="matrix(0.66802072,0,0,0.66802072,-843.4344,-182.25546)"
     id="g2988"
     style="fill:#003ce0;fill-opacity:0.47826089" />
  <g
     id="g4416"
     transform="translate(-1456.5468,-36.244325)">
    <path
       id="path875"
       transform="matrix(0.93750001,0,0,0.93750001,1456.5468,36.244325)"
       d="M 170.0293 12.880859 C 129.11516 12.880859 95.976562 46.020667 95.976562 86.935547 C 95.976562 109.46154 106.0334 129.61585 121.89062 143.19531 C 129.38769 139.1139 137.82837 136.76259 146.5332 136.38281 C 148.80108 136.28403 151.08567 136.31957 153.375 136.49414 C 168.96701 137.68304 183.40787 145.15492 193.98828 157.00977 C 223.13177 147.05424 244.08398 119.46135 244.08398 86.935547 C 244.08398 46.020667 210.94482 12.880859 170.0293 12.880859 z M 209.25781 201.80273 C 209.11674 203.16733 208.93146 204.54295 208.68164 205.94531 A 13.116194 13.116194 0 0 0 208.68164 205.94727 C 206.1558 220.12069 198.66819 232.77587 187.35156 241.22266 C 182.17678 245.08515 176.88021 247.76726 170.61914 249.55664 C 162.55632 251.86102 154.04618 252.25184 145.72852 251.01367 C 145.33699 252.20361 144.92532 253.3773 144.14453 254.88281 C 143.21045 256.68355 141.38895 259.38134 138.24219 261.22266 C 135.09543 263.06397 131.84155 263.2681 130.31641 263.24805 C 128.554 263.22482 125.64568 262.17225 123.16016 261.00195 L 123.14453 261.45898 A 13.116194 13.116194 0 0 1 110.03711 274.16797 L 107.18945 274.16797 L 107.18945 275.15234 A 13.116194 13.116194 0 0 1 103.31445 284.46094 L 100.81445 286.94141 L 98.316406 289.42188 A 13.116194 13.116194 0 0 1 89.447266 293.22461 L 86.220703 293.31445 L 86.294922 292.43555 A 13.116194 13.116194 0 0 1 86.128906 293.31641 A 13.116194 13.116194 0 0 1 82.261719 299.93164 L 78.808594 303.11328 A 13.116194 13.116194 0 0 0 78.808594 303.11523 L 75.353516 306.29688 A 13.116194 13.116194 0 0 1 70.574219 309.09766 L 318.13867 309.09766 L 318.13867 272.07031 C 318.13867 233.92012 258.92556 210.44855 209.25781 201.80273 z M 82.054688 214.80664 C 49.09385 227.13667 21.921875 246.23358 21.921875 272.07031 L 21.921875 309.09766 L 37.160156 309.09766 C 34.924198 307.93686 32.959142 305.99652 32.046875 304.70703 C 31.053184 303.30259 30.802773 302.61524 30.626953 302.24609 A 13.116194 13.116194 0 0 0 30.626953 302.24414 C 26.834262 294.28454 28.227175 286.72294 30.583984 279.33789 A 13.116194 13.116194 0 0 1 30.583984 279.33203 L 31.652344 275.99219 A 13.116194 13.116194 0 0 1 34.865234 270.71875 L 63.677734 241.87891 A 13.116194 13.116194 0 0 0 63.677734 241.87695 L 83.927734 221.60938 L 84.994141 222.85547 C 84.341849 221.92412 83.690352 221.00144 83.017578 219.45508 C 82.430226 218.10491 82.151902 216.46555 82.054688 214.80664 z "
       style="fill:#999999;fill-opacity:1;stroke-width:18.51352119" />
    <g
       id="g5147"
       transform="matrix(1.0106154,0,0,1.0106154,-450.83187,50.468249)">
      <path
         id="path5126"
         d="m 1926.7528,261.16701 c -1.339,-2.81007 -1.1484,-6.93154 0.5696,-12.31498 l 0.9885,-3.09769 26.7296,-26.75408 26.7297,-26.75407 -0.5478,-0.64183 c -0.3013,-0.35301 -1.7039,-1.92324 -3.1168,-3.4894 -2.8596,-3.16969 -3.1839,-3.91479 -2.4748,-5.68707 0.7827,-1.95599 1.5644,-2.24394 7.915,-2.91562 3.0578,-0.32341 5.5992,-0.61881 5.6477,-0.65645 0.048,-0.0376 -0.2326,-1.12478 -0.6245,-2.41587 -4.1043,-13.51858 -1.7581,-27.41719 6.3245,-37.46437 7.9025,-9.82335 20.7137,-15.20263 33.8254,-14.20285 11.8334,0.90231 22.7836,6.75297 30.7686,16.43965 4.6876,5.68654 8.1765,13.19723 9.4644,20.37444 0.622,3.46585 0.6305,9.91037 0.018,13.34877 -1.8479,10.36921 -7.14,19.1761 -15.0875,25.10818 -2.8891,2.15644 -8.2422,4.82881 -11.5883,5.78512 -7.9765,2.27968 -17.4024,2.01745 -25.5453,-0.71068 -1.4085,-0.4719 -2.652,-0.75354 -2.7632,-0.62589 -0.1112,0.12766 -0.9174,2.95104 -1.7914,6.27418 -1.7113,6.50609 -2.1326,7.31845 -3.7836,7.29674 -1.2286,-0.0162 -1.8993,-0.54594 -6.3695,-5.03124 l -4.2546,-4.26903 -4.005,4.22056 -4.0049,4.22056 -0.1685,5.49303 -0.1685,5.49304 h -7.2197 -7.2197 l -0.1837,3.41645 c -0.101,1.87904 -0.1837,4.82207 -0.1837,6.54007 v 3.12364 l -2.3185,2.30074 -2.3184,2.30073 -6.9205,0.19461 -6.9205,0.1946 -0.1704,1.99488 c -0.094,1.09719 -0.257,3.13304 -0.3629,4.52412 l -0.1925,2.52925 -3.204,2.95078 -3.2039,2.95078 -6.6446,0.19801 c -3.6546,0.10892 -6.6719,0.17081 -6.7052,0.13754 -0.059,-0.0593 4.4639,-4.52011 43.4578,-42.85963 l 19.2504,-18.92726 2.769,-5.33386 c 1.5229,-2.93362 2.7243,-5.37324 2.6697,-5.42137 -0.055,-0.0481 -16.7075,16.32521 -37.0064,36.38521 l -36.9073,36.47271 -1.3644,0.0959 c -1.2923,0.0908 -1.3868,0.049 -1.7871,-0.79101 z m 116.5237,-100.30339 c 1.7943,-0.61137 3.8453,-2.52127 4.8532,-4.51934 0.7225,-1.43228 0.829,-1.9485 0.8315,-4.03135 0,-2.0448 -0.1092,-2.61699 -0.7757,-3.97414 -0.8649,-1.7612 -2.6056,-3.51779 -4.4627,-4.50336 -1.0273,-0.5452 -1.6482,-0.64926 -3.8921,-0.65228 -3.1531,-0.004 -4.6826,0.58936 -6.6895,2.59626 -1.8739,1.87393 -2.4418,3.36379 -2.4368,6.39301 0,2.11177 0.1181,2.76117 0.6944,3.93437 2.1789,4.43529 7.0712,6.39458 11.8777,4.75683 z"
         style="fill:#4d4d4d;stroke-width:0.28102678" />
    </g>
    <g
       id="g5182"
       transform="matrix(0.93484003,0,0,0.93484003,88.165893,116.71854)">
      <g
         id="g5208"
         transform="matrix(0.74458289,0,0,0.74458289,445.64903,31.876417)">
        <circle
           style="fill:#ffffff;fill-opacity:1;stroke:none;stroke-width:0.9375"
           id="path5162"
           cx="1733.0723"
           cy="46.055573"
           r="52.67152" />
        <ellipse
           style="fill:#ffffff;fill-opacity:1;stroke:none;stroke-width:0.78300744"
           id="path5162-6"
           cx="1733.0723"
           cy="179.53006"
           rx="44.291965"
           ry="43.693424" />
        <g
           id="g5201">
          <path
             id="path5160"
             d="m 1744.8975,102.05237 c 54.8866,-14.876099 55.034,-87.059929 6.4989,-105.6342392 -6.8312,-2.4846 -21.9544,-3.36243 -29.8148,-1.73061 -8.8934,1.84625 -19.822,7.93916 -26.7968,14.93978 -20.9465,24.5291002 -20.3892,55.4416502 -0.873,76.4771602 13.5155,14.228249 31.8545,19.964559 50.9857,15.947909 z m -27.6478,-40.299939 -10.7423,-10.77282 5.1039,-5.16809 5.1039,-5.16808 5.8946,5.84218 5.8945,5.84219 11.5007,-11.47307 11.5007,-11.47307 5.1123,5.1766 5.1123,5.17661 -16.3751,16.39518 c -9.0063,9.01736 -16.5974,16.39519 -16.8692,16.39519 -0.2717,0 -5.3281,-4.84777 -11.2363,-10.77282 z"
             style="fill:#44aa00;stroke-width:0.9375" />
          <path
             id="path5160-7"
             d="m 1748.9702,220.52637 c 48.8615,-22.39487 42.9746,-87.51916 -2.9146,-100.66432 -6.4418,-1.67785 -17.9267,-1.8675 -24.9931,-0.41271 -53.8298,13.45542 -50.992,90.57185 -0.7492,101.97944 2.8359,0.573 6,1.22789 7.0312,1.45527 3.4794,0.76721 15.8886,-0.58569 21.6257,-2.35768 z m -37.8191,-28.29177 -6.7753,-6.82083 7.5012,-7.45719 7.5012,-7.45718 -7.504,-7.54318 -7.504,-7.54318 6.5669,-6.51654 6.5668,-6.51655 7.4984,7.45443 7.4985,7.45444 7.5069,-7.46295 7.507,-7.46295 6.7748,6.77485 6.7749,6.77484 -7.463,7.50696 -7.4629,7.50699 7.4629,7.50697 7.463,7.50698 -6.5625,6.5625 -6.5625,6.5625 -7.4642,-7.50818 -7.4641,-7.50818 -7.5423,7.50314 -7.5424,7.50315 z"
             style="fill:#ff0000;stroke-width:0.9375" />
        </g>
      </g>
    </g>
  </g>
</svg>
