<?xml version="1.0" encoding="UTF-8" standalone="no"?>
<svg
   xmlns:dc="http://purl.org/dc/elements/1.1/"
   xmlns:cc="http://creativecommons.org/ns#"
   xmlns:rdf="http://www.w3.org/1999/02/22-rdf-syntax-ns#"
   xmlns:svg="http://www.w3.org/2000/svg"
   xmlns="http://www.w3.org/2000/svg"
   id="svg8"
   version="1.1"
   viewBox="0 0 100 100"
   height="100mm"
   width="100mm">
  <defs
     id="defs2" />
  <metadata
     id="metadata5">
    <rdf:RDF>
      <cc:Work
         rdf:about="">
        <dc:format>image/svg+xml</dc:format>
        <dc:type
           rdf:resource="http://purl.org/dc/dcmitype/StillImage" />
        <dc:title></dc:title>
      </cc:Work>
    </rdf:RDF>
  </metadata>
  <g
     transform="translate(0,-197)"
     id="layer1">
    <g
       transform="matrix(1.7783238,0,0,1.7783238,0.62082331,197.96874)"
       id="g5247"
       style="fill:#000000">
      <path
         d="m 17.58966,23.946585 c 4.181838,0 7.532349,-3.375703 7.532349,-7.557543 0,-4.181843 -3.350511,-7.5575462 -7.532349,-7.5575462 -4.181844,0 -7.557547,3.3757032 -7.557547,7.5575462 0,4.18184 3.375703,7.557543 7.557547,7.557543 z m 0,5.038364 c -5.869695,0 -17.63427043,2.947442 -17.63427043,8.817134 v 6.297953 H 35.223925 v -6.297953 c 0,-5.869692 -11.764576,-8.817134 -17.634265,-8.817134 z"
         id="path5235"
         style="fill:#000000;stroke-width:2.51918125" />
      <path
         d="m 37.809119,23.946586 c 4.181843,0 7.532353,-3.375704 7.532353,-7.557544 0,-4.181843 -3.35051,-7.5575461 -7.532353,-7.5575461 -4.181843,0 -7.557547,3.3757031 -7.557547,7.5575461 0,4.18184 3.375704,7.557544 7.557547,7.557544 z m 0,5.038363 c -0.730565,0 -1.561896,0.05038 -2.443609,0.12596 2.922251,2.116111 4.962788,4.962786 4.962788,8.691174 v 6.297953 h 15.115084 v -6.297953 c 0,-5.869691 -11.76457,-8.817134 -17.634263,-8.817134 z"
         id="path5235-3"
         style="fill:#999999;stroke-width:2.51918101;fill-opacity:1" />
    </g>
  </g>
</svg>
