<?xml version="1.0" encoding="UTF-8" standalone="no"?>
<svg
   xmlns:dc="http://purl.org/dc/elements/1.1/"
   xmlns:cc="http://creativecommons.org/ns#"
   xmlns:rdf="http://www.w3.org/1999/02/22-rdf-syntax-ns#"
   xmlns:svg="http://www.w3.org/2000/svg"
   xmlns="http://www.w3.org/2000/svg"
   xmlns:sodipodi="http://sodipodi.sourceforge.net/DTD/sodipodi-0.dtd"
   xmlns:inkscape="http://www.inkscape.org/namespaces/inkscape"
   viewBox="0 0 320.20286 304.29297"
   height="324.57916"
   width="341.54971"
   version="1.1"
   id="svg2"
   sodipodi:docname="Werbas-blue.svg"
   inkscape:version="0.92.1 r15371">
  <sodipodi:namedview
     pagecolor="#ffffff"
     bordercolor="#666666"
     borderopacity="1"
     objecttolerance="10"
     gridtolerance="10"
     guidetolerance="10"
     inkscape:pageopacity="0"
     inkscape:pageshadow="2"
     inkscape:window-width="2479"
     inkscape:window-height="1410"
     id="namedview6247"
     showgrid="false"
     inkscape:zoom="4.1130724"
     inkscape:cx="105.51756"
     inkscape:cy="248.33012"
     inkscape:window-x="81"
     inkscape:window-y="30"
     inkscape:window-maximized="1"
     inkscape:current-layer="g4566" />
  <metadata
     id="metadata8">
    <rdf:RDF>
      <cc:Work
         rdf:about="">
        <dc:format>image/svg+xml</dc:format>
        <dc:type
           rdf:resource="http://purl.org/dc/dcmitype/StillImage" />
        <dc:title />
      </cc:Work>
    </rdf:RDF>
  </metadata>
  <defs
     id="defs6" />
  <g
     style="fill:#003ce0;fill-opacity:0.47826089"
     id="g2988"
     transform="matrix(0.66802072,0,0,0.66802072,-843.4344,-182.25546)" />
  <g
     transform="translate(-1456.5468,-36.244325)"
     id="g4416">
    <g
       transform="matrix(0.92090875,-0.09679141,0.09679141,0.92090875,110.47459,173.3283)"
       id="g4566">
      <rect
         style="fill:#009fd7;fill-opacity:1"
         id="rect4464"
         width="293.0452"
         height="275.16879"
         x="1470.1256"
         y="50.806396" />
      <rect
         style="fill:#ffffff;fill-opacity:1"
         id="rect4464-7"
         width="274.00745"
         height="257.29239"
         x="1479.6445"
         y="59.744598" />
      <path
         style="fill:#009fd7;fill-opacity:1"
         d="m -315.72461,113.77734 v 0.002 121.90234 l 15.93164,-0.11133 c 0.255,0.0132 0.51821,0.009 0.78711,-0.008 l 0.60938,-0.004 0.0332,-0.0937 c 1.0743,-0.338 1.31702,-1.51015 1.88672,-3.85546 0.2397,-2.28123 2.65636,-1.97704 5.50976,0.69335 6.7173,6.28649 23.36208,3.34896 29.08008,-5.13281 5.4307,-8.05537 6.79782,-45.38387 2.13672,-58.30859 -4.5603,-12.64525 -20.09279,-16.85546 -31.42969,-8.51953 -0.5065,0.38896 -2.93531,2.38112 -3.44531,2.96289 l 0.0801,-49.30078 -21.17969,-0.22657 z m 74.07422,0 V 235.7207 h 20.75 V 113.77734 Z m 143.599609,40.12891 c -24.333499,0.3716 -32.383519,9.87868 -32.478519,38.35742 -0.0726,21.65926 3.65508,32.54336 12.95508,37.81445 18.132301,10.27726 45.082679,0.26551 48.142579,-17.50781 l 0.992188,-5.75781 -9.482422,-0.0176 c -9.5725,-0.017 -12.692022,0.20082 -13.232422,5.3418 -1.4593,13.88447 -16.570603,7.60527 -17.503903,-7.27344 -0.4564,-7.27647 0.79127,-7.71692 21.167966,-7.46289 20.8376,0.25975 19.671156,0.73387 19.660156,-7.96289 -0.0289,-23.83519 -10.236303,-35.83639 -30.220703,-35.53125 z m -103.691409,1.40234 c -0.02,13.79025 0.1005,25.18056 -0.0625,37.75 0.0682,29.38786 0.55549,31.84896 7.33789,37.0293 6.4077,4.89409 19.23576,4.52437 26.47266,-0.76172 2.4086,-1.75917 2.63873,-1.7249 3.99023,0.59961 1.2393,2.13142 2.51014,2.46412 9.36914,2.44922 12.9491,-0.0283 12.65949,0.14373 12.40039,-7.33984 -0.1239,-3.57785 -0.20457,-20.36388 -0.26757,-37.30274 l -0.1211,-32.31445 c -8.1528,-0.0822 -13.51763,-0.0789 -21.55273,-0.0898 0,1e-5 -0.0596,10.79506 -0.0156,30.52149 0.0727,32.75739 -0.43933,34.74982 -8.70703,33.88086 -6.6204,-0.69584 -7.11706,-2.42725 -7.16406,-33.83594 l -0.0469,-30.46875 c -7.451,-0.10313 -15.20261,-0.007 -21.63281,-0.11719 z m 103.425784,12.30079 c 0.992101,-0.0354 1.979006,0.13306 2.925781,0.54687 4.287,1.87378 8.306997,15.12437 5.029297,16.57813 -2.9641,1.31467 -16.336652,0.45184 -17.623052,-1.13672 -4.47903,-5.53114 2.72326,-15.74015 9.667974,-15.98828 z m -189.306644,1.63867 c 1.3251,-0.0643 2.8075,0.31223 4.4375,1.14257 6.2729,3.19531 7.13359,42.37283 1.08399,49.33008 -8.5147,9.79202 -14.79333,-5.85249 -13.45703,-30.95508 0.1251,-2.35097 0.31687,-4.78527 0.58007,-7.28906 0.2729,-2.59654 0.73495,-4.78718 1.37305,-6.56836 l 0.90625,-1.85547 v -0.1582 c 1.263,-2.30258 2.96577,-3.54403 5.07617,-3.64648 z"
         transform="translate(1810.6227,55.140036)"
         id="rect4511" />
    </g>
  </g>
</svg>
